<svg width="1461" height="1080" viewBox="0 0 1461 1080" fill="none"
    xmlns="http://www.w3.org/2000/svg">
    <g clip-path="url(#clip0_3007_152463)">
        <path fill-rule="evenodd" clip-rule="evenodd"
            d="M540.816 95.1063L1212.7 334.953L1460.69 1129.17L315.796 1485.01L68.8461 690.476L486.396 112.021C498.77 94.8885 520.962 87.9909 540.816 95.1063Z"
            fill="#D8EDDD" />
        <path fill-rule="evenodd" clip-rule="evenodd"
            d="M550.95 133.737L1179.97 358.301L1412.13 1101.8L340.283 1434.94L109.1 691.138L499.996 149.574C511.575 133.537 532.371 127.074 550.95 133.737Z"
            fill="#00B26B" />
        <mask id="mask0_3007_152463" style="mask-type:luminance" maskUnits="userSpaceOnUse" x="109"
            y="131" width="1304" height="1304">
            <path
                d="M550.95 133.737L1179.97 358.301L1412.13 1101.8L340.283 1434.94L109.1 691.138L499.996 149.574C511.575 133.537 532.371 127.074 550.95 133.737Z"
                fill="white" />
        </mask>
        <g mask="url(#mask0_3007_152463)">
            <g opacity="0.38">
                <path
                    d="M1002.35 194.935C1008.89 218.174 1015.48 241.396 1022.03 264.635C1023.4 269.41 1007.43 271.15 1005.77 265.276C999.233 242.038 992.639 218.815 986.097 195.576C984.726 190.801 1000.69 189.061 1002.35 194.935Z"
                    fill="black" fill-opacity="0.1" />
                <path
                    d="M707.083 99.1175C713.625 122.356 720.219 145.579 726.761 168.817C728.132 173.593 712.165 175.333 710.509 169.459C703.967 146.22 697.373 122.997 690.831 99.7588C689.46 94.9835 705.427 93.2434 707.083 99.1175Z"
                    fill="black" fill-opacity="0.1" />
                <path
                    d="M953.246 304.16L978.485 385.362C979.35 388.146 963.659 390.591 962.233 386.003L936.995 304.802C936.129 302.018 951.82 299.572 953.246 304.16Z"
                    fill="black" fill-opacity="0.1" />
                <path
                    d="M880.31 270.802C885.353 291.228 890.381 311.601 895.425 332.027C896.259 335.442 880.372 337.44 879.173 332.668C874.129 312.243 869.102 291.869 864.058 271.444C863.223 268.028 879.11 266.03 880.31 270.802Z"
                    fill="black" fill-opacity="0.1" />
                <path
                    d="M903.841 395.615C909.758 416.843 915.676 438.07 921.66 459.334C922.711 463.078 919.758 465.805 916.263 466.609C913.302 467.303 907.182 466.774 906.131 463.03C900.214 441.802 894.297 420.574 888.312 399.31C887.262 395.566 890.215 392.839 893.709 392.036C896.67 391.342 902.791 391.87 903.841 395.615Z"
                    fill="black" fill-opacity="0.1" />
                <path
                    d="M788.366 235.436C798.662 266.554 806.526 298.427 811.931 330.783C812.644 335.084 796.529 336.531 795.679 331.424C790.274 299.069 782.41 267.195 772.114 236.077C770.941 232.484 786.644 230.261 788.366 235.436Z"
                    fill="black" fill-opacity="0.1" />
                <path
                    d="M986.008 560.323C994.293 590.992 1002.52 621.677 1010.81 652.346C1012.08 656.982 996.113 658.722 994.558 652.987C986.273 622.318 978.041 591.633 969.757 560.964C968.486 556.327 984.453 554.587 986.008 560.323Z"
                    fill="black" fill-opacity="0.1" />
                <path
                    d="M913.012 525.683L934.629 595.232C937.033 602.966 921.155 605.357 919.103 598.757L897.487 529.208C895.083 521.474 910.961 519.084 913.012 525.683Z"
                    fill="black" fill-opacity="0.1" />
                <path
                    d="M1041.02 400.753L1070.95 497.06C1073.16 504.175 1057.21 506.137 1055.38 500.26L1025.45 403.953C1023.24 396.838 1039.19 394.875 1041.02 400.753Z"
                    fill="black" fill-opacity="0.1" />
                <path
                    d="M729.975 303.45L754.091 381.043C755.517 385.631 739.65 387.51 737.84 381.684L713.723 304.092C712.297 299.503 728.164 297.624 729.975 303.45Z"
                    fill="black" fill-opacity="0.1" />
                <path
                    d="M781.594 545.271L805.71 622.864C807.137 627.452 791.27 629.331 789.459 623.505L765.342 545.913C763.916 541.324 779.783 539.446 781.594 545.271Z"
                    fill="black" fill-opacity="0.1" />
                <path
                    d="M619.538 270.27L637.004 326.467C638.142 330.127 622.355 332.264 620.753 327.108L603.286 270.912C602.148 267.251 617.935 265.115 619.538 270.27Z"
                    fill="black" fill-opacity="0.1" />
                <path
                    d="M917.229 676.683L934.696 732.879C935.833 736.539 920.046 738.676 918.444 733.52L900.978 677.324C899.84 673.663 915.627 671.527 917.229 676.683Z"
                    fill="black" fill-opacity="0.1" />
                <path
                    d="M464.054 346.582C471.668 366.152 477.503 386.387 481.361 407.012C482.266 411.932 466.203 413.362 465.109 407.653C461.357 387.731 455.849 368.185 448.495 349.27C447.278 346.086 451.54 344.648 453.964 344.234C456.388 343.82 462.869 343.501 464.054 346.582Z"
                    fill="black" fill-opacity="0.1" />
                <path
                    d="M396.371 440.551C405.141 462.928 410.665 486.54 412.498 510.507C413.094 517.898 396.89 518.694 396.247 511.148C394.411 488.086 389.24 465.609 380.794 444.093C377.821 436.536 393.739 433.907 396.355 440.5L396.371 440.551Z"
                    fill="black" fill-opacity="0.1" />
                <path
                    d="M313.54 400.374C322.385 432.847 332.695 464.922 344.489 496.479C345.493 499.163 329.986 501.834 328.237 497.12C316.443 465.563 306.082 433.504 297.289 401.015C296.431 397.889 312.253 395.685 313.54 400.374Z"
                    fill="black" fill-opacity="0.1" />
                <path
                    d="M382.814 747.181L396.948 792.653C398.021 796.108 394.517 798.158 391.508 798.697C388.929 799.16 382.487 799.24 381.413 795.785L367.28 750.313C366.206 746.858 369.71 744.808 372.719 744.269C375.298 743.806 381.741 743.726 382.814 747.181Z"
                    fill="black" fill-opacity="0.1" />
                <path
                    d="M415.746 166.883L429.879 212.356C430.953 215.81 427.449 217.861 424.44 218.4C421.861 218.863 415.419 218.943 414.345 215.488L400.212 170.016C399.138 166.561 402.642 164.511 405.651 163.972C408.23 163.509 414.672 163.429 415.746 166.883Z"
                    fill="black" fill-opacity="0.1" />
                <path
                    d="M499.644 463.463L513.778 508.936C514.851 512.39 511.347 514.44 508.338 514.98C505.759 515.442 499.317 515.522 498.243 512.068L484.11 466.595C483.036 463.141 486.54 461.091 489.549 460.551C492.129 460.089 498.571 460.009 499.644 463.463Z"
                    fill="black" fill-opacity="0.1" />
                <path
                    d="M351.429 550.746L365.563 596.218C366.636 599.673 363.133 601.723 360.124 602.262C357.544 602.725 351.102 602.805 350.029 599.35L335.895 553.878C334.822 550.423 338.325 548.373 341.335 547.834C343.914 547.371 350.356 547.291 351.429 550.746Z"
                    fill="black" fill-opacity="0.1" />
                <path
                    d="M236.125 608.859L250.258 654.332C251.332 657.786 247.828 659.836 244.819 660.375C242.24 660.838 235.798 660.918 234.724 657.464L220.59 611.991C219.517 608.537 223.021 606.486 226.03 605.947C228.609 605.485 235.051 605.405 236.125 608.859Z"
                    fill="black" fill-opacity="0.1" />
                <path
                    d="M678.875 381.24L693.008 426.713C694.082 430.167 690.578 432.218 687.569 432.757C684.99 433.22 678.548 433.3 677.474 429.845L663.34 384.373C662.267 380.918 665.771 378.868 668.78 378.329C671.359 377.866 677.801 377.786 678.875 381.24Z"
                    fill="black" fill-opacity="0.1" />
                <path
                    d="M200.396 463.244L222.013 532.793C224.513 540.836 208.663 543.501 206.484 536.489L184.867 466.939C182.367 458.897 198.217 456.232 200.396 463.244Z"
                    fill="black" fill-opacity="0.1" />
                <path
                    d="M289.896 680.569L311.513 750.119C314.013 758.162 298.163 760.827 295.984 753.815L274.367 684.265C271.867 676.223 287.717 673.558 289.896 680.569Z"
                    fill="black" fill-opacity="0.1" />
                <path
                    d="M305.216 581.109L326.833 650.658C329.333 658.701 313.483 661.366 311.304 654.354L289.687 584.805C287.187 576.762 303.037 574.097 305.216 581.109Z"
                    fill="black" fill-opacity="0.1" />
                <path
                    d="M671.874 522.61C679.488 542.18 685.324 562.416 689.181 583.04C690.086 587.96 674.023 589.391 672.929 583.681C669.177 563.759 663.617 544.23 656.315 525.298C655.098 522.114 659.36 520.677 661.784 520.262C664.208 519.848 670.689 519.53 671.874 522.61Z"
                    fill="black" fill-opacity="0.1" />
                <path
                    d="M723.96 645.841C731.574 665.411 737.41 685.647 741.267 706.271C742.172 711.191 726.109 712.622 725.015 706.912C721.263 686.99 715.755 667.444 708.401 648.529C707.184 645.345 711.446 643.907 713.87 643.493C716.294 643.079 722.775 642.761 723.96 645.841Z"
                    fill="black" fill-opacity="0.1" />
                <path
                    d="M652.596 190.285C660.211 209.855 666.046 230.091 669.904 250.715C670.809 255.635 654.746 257.066 653.652 251.356C649.899 231.434 644.392 211.889 637.038 192.973C635.821 189.789 640.083 188.352 642.507 187.937C644.931 187.523 651.412 187.205 652.596 190.285Z"
                    fill="black" fill-opacity="0.1" />
                <path
                    d="M604.174 616.528C612.944 638.905 618.468 662.517 620.301 686.484C620.896 693.875 604.693 694.671 604.049 687.125C602.214 664.063 597.043 641.586 588.597 620.069C585.624 612.513 601.542 609.884 604.158 616.477L604.174 616.528Z"
                    fill="black" fill-opacity="0.1" />
                <path
                    d="M521.361 576.402C530.206 608.876 540.515 640.95 552.309 672.507C553.313 675.191 537.806 677.863 536.057 673.148C524.264 641.592 513.902 609.533 505.109 577.044C504.251 573.918 520.074 571.714 521.361 576.402Z"
                    fill="black" fill-opacity="0.1" />
                <path
                    d="M807.827 698.304C816.672 730.777 826.982 762.852 838.776 794.409C839.78 797.093 824.273 799.764 822.524 795.05C810.73 763.493 800.369 731.435 791.576 698.945C790.718 695.82 806.54 693.616 807.827 698.304Z"
                    fill="black" fill-opacity="0.1" />
                <path
                    d="M408.199 639.22L429.816 708.77C432.315 716.813 416.466 719.477 414.286 712.466L392.67 642.916C390.17 634.873 406.02 632.209 408.199 639.22Z"
                    fill="black" fill-opacity="0.1" />
                <path
                    d="M601.371 763.378L622.987 832.927C625.487 840.97 609.638 843.635 607.458 836.623L585.842 767.074C583.342 759.031 599.191 756.366 601.371 763.378Z"
                    fill="black" fill-opacity="0.1" />
                <path
                    d="M1085.01 299.56L1106.63 369.109C1109.13 377.152 1093.28 379.817 1091.1 372.805L1069.48 303.255C1066.98 295.213 1082.83 292.548 1085.01 299.56Z"
                    fill="black" fill-opacity="0.1" />
                <path
                    d="M523.383 238.871L547.499 316.463C548.445 319.505 532.722 321.847 531.248 317.104L507.131 239.512C506.186 236.47 521.909 234.127 523.383 238.871Z"
                    fill="black" fill-opacity="0.1" />
                <path
                    d="M558.477 153.391C566.652 174.765 572.739 196.901 576.572 219.455C577.514 225.042 561.387 226.267 560.32 220.097C556.608 198.297 550.778 176.985 542.879 156.316C540.462 150.001 556.433 148.09 558.461 153.339L558.477 153.391Z"
                    fill="black" fill-opacity="0.1" />
                <path
                    d="M817.904 425.378C831.512 460.216 843.185 495.767 852.894 531.93C853.736 535.004 837.913 537.208 836.642 532.571C826.898 496.476 815.208 460.873 801.652 426.019C800.644 423.506 816.052 420.696 817.904 425.378Z"
                    fill="black" fill-opacity="0.1" />
                <path
                    d="M569.01 412.504C578.011 444.929 586.959 477.37 595.943 509.744C597.391 514.948 581.427 516.517 579.692 510.385C570.691 477.96 561.743 445.519 552.759 413.146C551.311 407.942 567.275 406.372 569.01 412.504Z"
                    fill="black" fill-opacity="0.1" />
                <path
                    d="M503.075 697.534C512.075 729.959 521.024 762.4 530.008 794.773C531.455 799.977 515.492 801.547 513.756 795.415C504.756 762.99 495.807 730.548 486.823 698.175C485.376 692.971 501.339 691.402 503.075 697.534Z"
                    fill="black" fill-opacity="0.1" />
                <path
                    d="M701.327 773.243C710.327 805.668 719.275 838.109 728.26 870.482C729.707 875.686 713.744 877.256 712.008 871.124C703.008 838.699 694.059 806.258 685.075 773.884C683.628 768.68 699.591 767.111 701.327 773.243Z"
                    fill="black" fill-opacity="0.1" />
            </g>
        </g>
        <path d="M68.9337 694.407L1214.86 338.24L1460.69 1129.17L314.762 1485.33L68.9337 694.407Z"
            fill="black" fill-opacity="0.1" />
        <path fill-rule="evenodd" clip-rule="evenodd"
            d="M807.107 1047.87L1214.78 337.983L1460.69 1129.17L893.933 1305.32L881.517 1309.18L314.762 1485.33L68.8536 694.149L807.107 1047.87Z"
            fill="#D8EDDD" />
        <g filter="url(#filter0_d_3007_152463)">
            <path fill-rule="evenodd" clip-rule="evenodd"
                d="M790.504 907.391L1460.69 1129.17L314.763 1485.33L741.154 922.73C752.612 907.578 772.476 901.404 790.504 907.391Z"
                fill="#D8EDDD" />
            <path fill-rule="evenodd" clip-rule="evenodd"
                d="M790.504 907.391L1460.69 1129.17L314.763 1485.33L741.154 922.73C752.612 907.578 772.476 901.404 790.504 907.391Z"
                fill="white" fill-opacity="0.8" />
        </g>
    </g>
    <defs>
        <filter id="filter0_d_3007_152463" x="274.764" y="865.131" width="1225.93" height="660.202"
            filterUnits="userSpaceOnUse" color-interpolation-filters="sRGB">
            <feFlood flood-opacity="0" result="BackgroundImageFix" />
            <feColorMatrix in="SourceAlpha" type="matrix"
                values="0 0 0 0 0 0 0 0 0 0 0 0 0 0 0 0 0 0 127 0" result="hardAlpha" />
            <feOffset />
            <feGaussianBlur stdDeviation="20" />
            <feComposite in2="hardAlpha" operator="out" />
            <feColorMatrix type="matrix" values="0 0 0 0 0 0 0 0 0 0 0 0 0 0 0 0 0 0 0.2 0" />
            <feBlend mode="normal" in2="BackgroundImageFix" result="effect1_dropShadow_3007_152463" />
            <feBlend mode="normal" in="SourceGraphic" in2="effect1_dropShadow_3007_152463"
                result="shape" />
        </filter>
        <clipPath id="clip0_3007_152463">
            <rect width="1200" height="1350" fill="white"
                transform="matrix(-0.954938 0.296805 0.296805 0.954938 1060 -160)" />
        </clipPath>
    </defs>
</svg>