<svg width="1268" height="84" viewBox="0 0 1268 84" fill="none" xmlns="http://www.w3.org/2000/svg">
    <g clip-path="url(#clip0_3102_203383)">
        <rect width="1268" height="4" rx="2" fill="url(#paint0_linear_3102_203383)" />
    </g>
    <g filter="url(#filter0_i_3102_203383)">
        <g filter="url(#filter1_b_3102_203383)">
            <g filter="url(#filter2_b_3102_203383)">
                <path
                    d="M405.5 44.0001C405.5 21.9087 387.591 4.00007 365.5 4.00007H344.566H923.435L902.5 4.00004C880.408 4.00002 862.5 21.9086 862.5 44.0001V44.0001C862.5 66.0914 844.591 84.0001 822.5 84.0001H445.5C423.408 84.0001 405.5 66.0915 405.5 44.0001V44.0001Z"
                    fill="url(#paint1_linear_3102_203383)" />
            </g>
        </g>
        <g filter="url(#filter3_d_3102_203383)">
            <path
                d="M496.003 53.288C495.193 53.288 494.574 53.064 494.147 52.616C493.721 52.168 493.507 51.5387 493.507 50.728V34.536H487.843C487.182 34.536 486.67 34.3547 486.307 33.992C485.945 33.6293 485.763 33.128 485.763 32.488C485.763 31.8267 485.945 31.3253 486.307 30.984C486.67 30.6213 487.182 30.44 487.843 30.44H504.131C504.793 30.44 505.305 30.6213 505.667 30.984C506.03 31.3253 506.211 31.8267 506.211 32.488C506.211 33.128 506.03 33.6293 505.667 33.992C505.305 34.3547 504.793 34.536 504.131 34.536H498.467V50.728C498.467 51.5387 498.254 52.168 497.827 52.616C497.422 53.064 496.814 53.288 496.003 53.288ZM512.955 53.352C511.27 53.352 509.798 53.0213 508.539 52.36C507.302 51.6987 506.342 50.7493 505.659 49.512C504.976 48.2747 504.635 46.8133 504.635 45.128C504.635 43.8693 504.827 42.7387 505.211 41.736C505.595 40.7333 506.15 39.88 506.875 39.176C507.622 38.4507 508.507 37.9067 509.531 37.544C510.555 37.16 511.696 36.968 512.955 36.968C514.64 36.968 516.102 37.2987 517.339 37.96C518.598 38.6213 519.568 39.56 520.251 40.776C520.955 41.992 521.307 43.4427 521.307 45.128C521.307 46.408 521.104 47.5493 520.699 48.552C520.315 49.5547 519.76 50.4187 519.035 51.144C518.31 51.8693 517.424 52.424 516.379 52.808C515.355 53.1707 514.214 53.352 512.955 53.352ZM512.955 49.736C513.659 49.736 514.267 49.5653 514.779 49.224C515.291 48.8827 515.696 48.3813 515.995 47.72C516.294 47.0373 516.443 46.1733 516.443 45.128C516.443 43.5707 516.123 42.4293 515.483 41.704C514.843 40.9573 514 40.584 512.955 40.584C512.272 40.584 511.664 40.744 511.131 41.064C510.619 41.384 510.214 41.8853 509.915 42.568C509.638 43.2293 509.499 44.0827 509.499 45.128C509.499 46.6853 509.819 47.848 510.459 48.616C511.099 49.3627 511.931 49.736 512.955 49.736ZM510.491 35.08C510.192 35.4 509.872 35.5813 509.531 35.624C509.19 35.6667 508.891 35.6027 508.635 35.432C508.379 35.24 508.208 34.9947 508.123 34.696C508.059 34.3973 508.155 34.0667 508.411 33.704L510.235 30.952C510.619 30.3973 511.024 30.0133 511.451 29.8C511.899 29.5867 512.4 29.48 512.955 29.48C513.339 29.48 513.691 29.5227 514.011 29.608C514.331 29.6933 514.63 29.8427 514.907 30.056C515.184 30.2693 515.44 30.568 515.675 30.952L517.499 33.704C517.755 34.0667 517.851 34.3973 517.787 34.696C517.723 34.9947 517.563 35.24 517.307 35.432C517.072 35.6027 516.774 35.6667 516.411 35.624C516.07 35.5813 515.739 35.4 515.419 35.08L512.955 32.456L510.491 35.08ZM518.651 31.976C518.352 32.1253 518.043 32.168 517.723 32.104C517.403 32.0187 517.179 31.8587 517.051 31.624C516.944 31.3893 517.008 31.144 517.243 30.888C517.499 30.632 517.712 30.3973 517.883 30.184C518.054 29.9493 518.139 29.7147 518.139 29.48C518.139 29.2453 518.054 29.0747 517.883 28.968C517.712 28.84 517.456 28.776 517.115 28.776C516.987 28.776 516.838 28.7867 516.667 28.808C516.518 28.8293 516.358 28.8613 516.187 28.904C515.867 28.9893 515.6 28.9893 515.387 28.904C515.174 28.7973 515.014 28.616 514.907 28.36C514.822 28.0613 514.832 27.8053 514.939 27.592C515.067 27.3787 515.302 27.2293 515.643 27.144C516.027 27.0373 516.422 26.9627 516.827 26.92C517.254 26.8773 517.702 26.856 518.171 26.856C519.131 26.856 519.867 27.0053 520.379 27.304C520.912 27.6027 521.179 28.0827 521.179 28.744C521.179 29.1707 521.04 29.5973 520.763 30.024C520.507 30.4293 520.187 30.8027 519.803 31.144C519.44 31.464 519.056 31.7413 518.651 31.976ZM526.679 53.288C525.889 53.288 525.281 53.0747 524.855 52.648C524.449 52.2213 524.247 51.6133 524.247 50.824V39.464C524.247 38.6747 524.449 38.0773 524.855 37.672C525.281 37.2453 525.868 37.032 526.615 37.032C527.383 37.032 527.969 37.2453 528.375 37.672C528.78 38.0773 528.983 38.6747 528.983 39.464V41.288L528.631 40.232C529.121 39.1867 529.847 38.3867 530.807 37.832C531.788 37.256 532.897 36.968 534.135 36.968C535.393 36.968 536.428 37.2133 537.239 37.704C538.049 38.1733 538.657 38.8987 539.063 39.88C539.468 40.84 539.671 42.0667 539.671 43.56V50.824C539.671 51.6133 539.457 52.2213 539.031 52.648C538.625 53.0747 538.028 53.288 537.239 53.288C536.471 53.288 535.873 53.0747 535.447 52.648C535.041 52.2213 534.839 51.6133 534.839 50.824V43.784C534.839 42.696 534.636 41.9173 534.231 41.448C533.847 40.9573 533.249 40.712 532.439 40.712C531.415 40.712 530.593 41.032 529.975 41.672C529.377 42.312 529.079 43.1653 529.079 44.232V50.824C529.079 52.4667 528.279 53.288 526.679 53.288ZM550.83 59.112C549.678 59.112 548.569 59.016 547.502 58.824C546.457 58.632 545.529 58.344 544.718 57.96C544.227 57.7467 543.875 57.4693 543.662 57.128C543.47 56.7867 543.385 56.424 543.406 56.04C543.449 55.656 543.577 55.3147 543.79 55.016C544.025 54.7173 544.313 54.504 544.654 54.376C544.995 54.2693 545.358 54.3013 545.742 54.472C546.681 54.8987 547.545 55.176 548.334 55.304C549.145 55.432 549.838 55.496 550.414 55.496C551.779 55.496 552.803 55.1867 553.486 54.568C554.169 53.9493 554.51 53 554.51 51.72V49.288H554.798C554.478 50.2693 553.817 51.0693 552.814 51.688C551.811 52.3067 550.702 52.616 549.486 52.616C548.078 52.616 546.851 52.296 545.806 51.656C544.761 50.9947 543.95 50.0773 543.374 48.904C542.798 47.7093 542.51 46.3333 542.51 44.776C542.51 43.6027 542.67 42.536 542.99 41.576C543.331 40.616 543.801 39.7947 544.398 39.112C545.017 38.4293 545.753 37.9067 546.606 37.544C547.481 37.16 548.441 36.968 549.486 36.968C550.745 36.968 551.854 37.2773 552.814 37.896C553.795 38.4933 554.446 39.2827 554.766 40.264L554.446 41.288V39.464C554.446 38.6747 554.649 38.0773 555.054 37.672C555.481 37.2453 556.078 37.032 556.846 37.032C557.614 37.032 558.201 37.2453 558.606 37.672C559.011 38.0773 559.214 38.6747 559.214 39.464V51.176C559.214 53.8 558.489 55.7733 557.038 57.096C555.609 58.44 553.539 59.112 550.83 59.112ZM550.926 49C551.651 49 552.27 48.8293 552.782 48.488C553.315 48.1467 553.731 47.6667 554.03 47.048C554.329 46.408 554.478 45.6507 554.478 44.776C554.478 43.4533 554.147 42.4293 553.486 41.704C552.846 40.9573 551.993 40.584 550.926 40.584C550.201 40.584 549.571 40.7547 549.038 41.096C548.505 41.416 548.089 41.896 547.79 42.536C547.513 43.1547 547.374 43.9013 547.374 44.776C547.374 46.0987 547.694 47.1333 548.334 47.88C548.974 48.6267 549.838 49 550.926 49ZM585.279 59.048C584.49 59.048 583.892 58.8347 583.487 58.408C583.082 58.0027 582.879 57.3947 582.879 56.584V50.056H583.231C582.89 51.0373 582.239 51.8373 581.279 52.456C580.34 53.0533 579.252 53.352 578.015 53.352C576.65 53.352 575.444 53.0213 574.399 52.36C573.375 51.6987 572.575 50.7493 571.999 49.512C571.423 48.2747 571.135 46.8133 571.135 45.128C571.135 43.4427 571.423 41.992 571.999 40.776C572.575 39.56 573.375 38.6213 574.399 37.96C575.444 37.2987 576.65 36.968 578.015 36.968C579.274 36.968 580.383 37.288 581.343 37.928C582.324 38.5467 582.964 39.368 583.263 40.392L582.911 41.64V39.464C582.911 38.6747 583.114 38.0773 583.519 37.672C583.946 37.2453 584.543 37.032 585.311 37.032C586.079 37.032 586.666 37.2453 587.071 37.672C587.498 38.0773 587.711 38.6747 587.711 39.464V56.584C587.711 57.3947 587.498 58.0027 587.071 58.408C586.644 58.8347 586.047 59.048 585.279 59.048ZM579.455 49.736C580.159 49.736 580.767 49.5653 581.279 49.224C581.791 48.8827 582.196 48.3813 582.495 47.72C582.794 47.0373 582.943 46.1733 582.943 45.128C582.943 43.5707 582.623 42.4293 581.983 41.704C581.343 40.9573 580.5 40.584 579.455 40.584C578.772 40.584 578.164 40.744 577.631 41.064C577.119 41.384 576.714 41.8853 576.415 42.568C576.138 43.2293 575.999 44.0827 575.999 45.128C575.999 46.6853 576.319 47.848 576.959 48.616C577.599 49.3627 578.431 49.736 579.455 49.736ZM597.226 53.352C595.903 53.352 594.805 53.1067 593.93 52.616C593.055 52.1253 592.405 51.3893 591.978 50.408C591.573 49.4053 591.37 48.168 591.37 46.696V39.464C591.37 38.6533 591.573 38.0453 591.978 37.64C592.405 37.2347 593.002 37.032 593.77 37.032C594.538 37.032 595.135 37.2347 595.562 37.64C595.989 38.0453 596.202 38.6533 596.202 39.464V46.824C596.202 47.7627 596.394 48.4667 596.778 48.936C597.162 49.384 597.77 49.608 598.602 49.608C599.519 49.608 600.266 49.288 600.842 48.648C601.439 47.9867 601.738 47.1227 601.738 46.056V39.464C601.738 38.6533 601.941 38.0453 602.346 37.64C602.773 37.2347 603.37 37.032 604.138 37.032C604.927 37.032 605.525 37.2347 605.93 37.64C606.357 38.0453 606.57 38.6533 606.57 39.464V50.824C606.57 52.4667 605.791 53.288 604.234 53.288C603.466 53.288 602.879 53.0747 602.474 52.648C602.069 52.2213 601.866 51.6133 601.866 50.824V48.68L602.346 49.928C601.877 51.016 601.205 51.8587 600.33 52.456C599.455 53.0533 598.421 53.352 597.226 53.352ZM615.621 53.352C614.469 53.352 613.434 53.128 612.517 52.68C611.6 52.232 610.885 51.624 610.373 50.856C609.861 50.088 609.605 49.224 609.605 48.264C609.605 47.112 609.904 46.2053 610.501 45.544C611.098 44.8613 612.069 44.3813 613.413 44.104C614.757 43.8053 616.538 43.656 618.757 43.656H620.453V46.152H618.789C617.701 46.152 616.816 46.216 616.133 46.344C615.472 46.4507 614.992 46.6427 614.693 46.92C614.416 47.1973 614.277 47.5813 614.277 48.072C614.277 48.6693 614.48 49.16 614.885 49.544C615.312 49.928 615.92 50.12 616.709 50.12C617.328 50.12 617.872 49.9813 618.341 49.704C618.832 49.4053 619.216 49.0107 619.493 48.52C619.77 48.008 619.909 47.432 619.909 46.792V43.112C619.909 42.1733 619.696 41.512 619.269 41.128C618.842 40.7227 618.117 40.52 617.093 40.52C616.517 40.52 615.888 40.5947 615.205 40.744C614.544 40.872 613.808 41.096 612.997 41.416C612.528 41.6293 612.112 41.6827 611.749 41.576C611.386 41.448 611.109 41.2347 610.917 40.936C610.725 40.616 610.629 40.2747 610.629 39.912C610.629 39.528 610.736 39.1653 610.949 38.824C611.162 38.4613 611.514 38.1947 612.005 38.024C613.008 37.6187 613.946 37.3413 614.821 37.192C615.717 37.0427 616.538 36.968 617.285 36.968C618.928 36.968 620.272 37.2133 621.317 37.704C622.384 38.1733 623.184 38.9093 623.717 39.912C624.25 40.8933 624.517 42.1627 624.517 43.72V50.824C624.517 51.6133 624.325 52.2213 623.941 52.648C623.557 53.0747 623.002 53.288 622.277 53.288C621.552 53.288 620.986 53.0747 620.581 52.648C620.197 52.2213 620.005 51.6133 620.005 50.824V49.64L620.229 49.832C620.101 50.5573 619.824 51.1867 619.397 51.72C618.992 52.232 618.469 52.6373 617.829 52.936C617.189 53.2133 616.453 53.352 615.621 53.352ZM630.554 53.288C629.764 53.288 629.156 53.0747 628.73 52.648C628.324 52.2213 628.122 51.6133 628.122 50.824V39.464C628.122 38.6747 628.324 38.0773 628.73 37.672C629.156 37.2453 629.743 37.032 630.49 37.032C631.258 37.032 631.844 37.2453 632.25 37.672C632.655 38.0773 632.858 38.6747 632.858 39.464V41.288L632.506 40.232C632.996 39.1867 633.722 38.3867 634.682 37.832C635.663 37.256 636.772 36.968 638.01 36.968C639.268 36.968 640.303 37.2133 641.114 37.704C641.924 38.1733 642.532 38.8987 642.938 39.88C643.343 40.84 643.546 42.0667 643.546 43.56V50.824C643.546 51.6133 643.332 52.2213 642.906 52.648C642.5 53.0747 641.903 53.288 641.114 53.288C640.346 53.288 639.748 53.0747 639.322 52.648C638.916 52.2213 638.714 51.6133 638.714 50.824V43.784C638.714 42.696 638.511 41.9173 638.106 41.448C637.722 40.9573 637.124 40.712 636.314 40.712C635.29 40.712 634.468 41.032 633.85 41.672C633.252 42.312 632.954 43.1653 632.954 44.232V50.824C632.954 52.4667 632.154 53.288 630.554 53.288ZM665.786 53.352C664.528 53.352 663.408 53.0427 662.426 52.424C661.466 51.784 660.826 50.9413 660.506 49.896L660.858 48.84V50.824C660.858 51.6133 660.656 52.2213 660.25 52.648C659.845 53.0747 659.258 53.288 658.49 53.288C657.722 53.288 657.125 53.0747 656.698 52.648C656.293 52.2213 656.09 51.6133 656.09 50.824V32.616C656.09 31.8053 656.293 31.1973 656.698 30.792C657.125 30.3653 657.733 30.152 658.522 30.152C659.29 30.152 659.877 30.3653 660.282 30.792C660.709 31.1973 660.922 31.8053 660.922 32.616V40.2H660.538C660.88 39.24 661.53 38.4613 662.49 37.864C663.45 37.2667 664.549 36.968 665.786 36.968C667.173 36.968 668.378 37.2987 669.402 37.96C670.426 38.6213 671.226 39.56 671.802 40.776C672.378 41.992 672.666 43.4427 672.666 45.128C672.666 46.8133 672.378 48.2747 671.802 49.512C671.226 50.7493 670.416 51.6987 669.37 52.36C668.346 53.0213 667.152 53.352 665.786 53.352ZM664.346 49.736C665.029 49.736 665.626 49.5653 666.138 49.224C666.672 48.8827 667.077 48.3813 667.354 47.72C667.653 47.0373 667.802 46.1733 667.802 45.128C667.802 43.5707 667.482 42.4293 666.842 41.704C666.202 40.9573 665.37 40.584 664.346 40.584C663.664 40.584 663.056 40.744 662.522 41.064C662.01 41.384 661.605 41.8853 661.306 42.568C661.008 43.2293 660.858 44.0827 660.858 45.128C660.858 46.6853 661.178 47.848 661.818 48.616C662.458 49.3627 663.301 49.736 664.346 49.736ZM681.414 53.352C680.091 53.352 678.992 53.1067 678.118 52.616C677.243 52.1253 676.592 51.3893 676.166 50.408C675.76 49.4053 675.558 48.168 675.558 46.696V39.464C675.558 38.6533 675.76 38.0453 676.166 37.64C676.592 37.2347 677.19 37.032 677.958 37.032C678.726 37.032 679.323 37.2347 679.75 37.64C680.176 38.0453 680.39 38.6533 680.39 39.464V46.824C680.39 47.7627 680.582 48.4667 680.966 48.936C681.35 49.384 681.958 49.608 682.79 49.608C683.707 49.608 684.454 49.288 685.03 48.648C685.627 47.9867 685.926 47.1227 685.926 46.056V39.464C685.926 38.6533 686.128 38.0453 686.534 37.64C686.96 37.2347 687.558 37.032 688.326 37.032C689.115 37.032 689.712 37.2347 690.118 37.64C690.544 38.0453 690.758 38.6533 690.758 39.464V50.824C690.758 52.4667 689.979 53.288 688.422 53.288C687.654 53.288 687.067 53.0747 686.662 52.648C686.256 52.2213 686.054 51.6133 686.054 50.824V48.68L686.534 49.928C686.064 51.016 685.392 51.8587 684.518 52.456C683.643 53.0533 682.608 53.352 681.414 53.352ZM702.049 53.352C700.363 53.352 698.891 53.0213 697.633 52.36C696.395 51.6987 695.435 50.7493 694.753 49.512C694.07 48.2747 693.729 46.8133 693.729 45.128C693.729 43.8693 693.921 42.7387 694.305 41.736C694.689 40.7333 695.243 39.88 695.969 39.176C696.715 38.4507 697.601 37.9067 698.625 37.544C699.649 37.16 700.79 36.968 702.049 36.968C703.734 36.968 705.195 37.2987 706.433 37.96C707.691 38.6213 708.662 39.56 709.345 40.776C710.049 41.992 710.401 43.4427 710.401 45.128C710.401 46.408 710.198 47.5493 709.793 48.552C709.409 49.5547 708.854 50.4187 708.129 51.144C707.403 51.8693 706.518 52.424 705.473 52.808C704.449 53.1707 703.307 53.352 702.049 53.352ZM702.049 49.736C702.753 49.736 703.361 49.5653 703.873 49.224C704.385 48.8827 704.79 48.3813 705.089 47.72C705.387 47.0373 705.537 46.1733 705.537 45.128C705.537 43.5707 705.217 42.4293 704.577 41.704C703.937 40.9573 703.094 40.584 702.049 40.584C701.366 40.584 700.758 40.744 700.225 41.064C699.713 41.384 699.307 41.8853 699.009 42.568C698.731 43.2293 698.593 44.0827 698.593 45.128C698.593 46.6853 698.913 47.848 699.553 48.616C700.193 49.3627 701.025 49.736 702.049 49.736ZM699.585 35.08C699.286 35.4 698.966 35.5813 698.625 35.624C698.283 35.6667 697.985 35.6027 697.729 35.432C697.473 35.24 697.302 34.9947 697.217 34.696C697.153 34.3973 697.249 34.0667 697.505 33.704L699.329 30.952C699.713 30.3973 700.118 30.0133 700.545 29.8C700.993 29.5867 701.494 29.48 702.049 29.48C702.433 29.48 702.785 29.5227 703.105 29.608C703.425 29.6933 703.723 29.8427 704.001 30.056C704.278 30.2693 704.534 30.568 704.769 30.952L706.593 33.704C706.849 34.0667 706.945 34.3973 706.881 34.696C706.817 34.9947 706.657 35.24 706.401 35.432C706.166 35.6027 705.867 35.6667 705.505 35.624C705.163 35.5813 704.833 35.4 704.513 35.08L702.049 32.456L699.585 35.08ZM707.745 31.976C707.446 32.1253 707.137 32.168 706.817 32.104C706.497 32.0187 706.273 31.8587 706.145 31.624C706.038 31.3893 706.102 31.144 706.337 30.888C706.593 30.632 706.806 30.3973 706.977 30.184C707.147 29.9493 707.233 29.7147 707.233 29.48C707.233 29.2453 707.147 29.0747 706.977 28.968C706.806 28.84 706.55 28.776 706.209 28.776C706.081 28.776 705.931 28.7867 705.761 28.808C705.611 28.8293 705.451 28.8613 705.281 28.904C704.961 28.9893 704.694 28.9893 704.481 28.904C704.267 28.7973 704.107 28.616 704.001 28.36C703.915 28.0613 703.926 27.8053 704.033 27.592C704.161 27.3787 704.395 27.2293 704.737 27.144C705.121 27.0373 705.515 26.9627 705.921 26.92C706.347 26.8773 706.795 26.856 707.265 26.856C708.225 26.856 708.961 27.0053 709.473 27.304C710.006 27.6027 710.273 28.0827 710.273 28.744C710.273 29.1707 710.134 29.5973 709.857 30.024C709.601 30.4293 709.281 30.8027 708.897 31.144C708.534 31.464 708.15 31.7413 707.745 31.976ZM715.772 53.256C714.983 53.256 714.375 53.032 713.948 52.584C713.543 52.1147 713.34 51.464 713.34 50.632V39.688C713.34 38.8347 713.543 38.184 713.948 37.736C714.375 37.2667 714.983 37.032 715.772 37.032C716.54 37.032 717.127 37.2667 717.532 37.736C717.959 38.184 718.172 38.8347 718.172 39.688V50.632C718.172 51.464 717.97 52.1147 717.564 52.584C717.159 53.032 716.562 53.256 715.772 53.256ZM715.772 34.408C714.876 34.408 714.183 34.2053 713.692 33.8C713.223 33.3733 712.988 32.776 712.988 32.008C712.988 31.2187 713.223 30.6213 713.692 30.216C714.183 29.7893 714.876 29.576 715.772 29.576C716.668 29.576 717.351 29.7893 717.82 30.216C718.29 30.6213 718.524 31.2187 718.524 32.008C718.524 32.776 718.29 33.3733 717.82 33.8C717.351 34.2053 716.668 34.408 715.772 34.408ZM733.272 53.288C732.483 53.288 731.875 53.0747 731.448 52.648C731.043 52.2213 730.84 51.6133 730.84 50.824V32.616C730.84 31.8053 731.043 31.1973 731.448 30.792C731.875 30.3653 732.483 30.152 733.272 30.152C734.04 30.152 734.627 30.3653 735.032 30.792C735.459 31.1973 735.672 31.8053 735.672 32.616V40.232H735.224C735.715 39.1867 736.44 38.3867 737.4 37.832C738.382 37.256 739.491 36.968 740.728 36.968C741.987 36.968 743.022 37.2133 743.832 37.704C744.643 38.1733 745.251 38.8987 745.656 39.88C746.062 40.84 746.264 42.0667 746.264 43.56V50.824C746.264 51.6133 746.051 52.2213 745.624 52.648C745.219 53.0747 744.622 53.288 743.832 53.288C743.064 53.288 742.467 53.0747 742.04 52.648C741.635 52.2213 741.432 51.6133 741.432 50.824V43.784C741.432 42.696 741.23 41.9173 740.824 41.448C740.44 40.9573 739.843 40.712 739.032 40.712C738.008 40.712 737.187 41.032 736.568 41.672C735.971 42.312 735.672 43.1653 735.672 44.232V50.824C735.672 52.4667 734.872 53.288 733.272 53.288ZM757.424 53.352C755.738 53.352 754.266 53.0213 753.008 52.36C751.77 51.6987 750.81 50.7493 750.128 49.512C749.445 48.2747 749.104 46.8133 749.104 45.128C749.104 43.8693 749.296 42.7387 749.68 41.736C750.064 40.7333 750.618 39.88 751.344 39.176C752.09 38.4507 752.976 37.9067 754 37.544C755.024 37.16 756.165 36.968 757.424 36.968C759.109 36.968 760.57 37.2987 761.808 37.96C763.066 38.6213 764.037 39.56 764.72 40.776C765.424 41.992 765.776 43.4427 765.776 45.128C765.776 46.408 765.573 47.5493 765.168 48.552C764.784 49.5547 764.229 50.4187 763.504 51.144C762.778 51.8693 761.893 52.424 760.848 52.808C759.824 53.1707 758.682 53.352 757.424 53.352ZM757.424 49.736C758.128 49.736 758.736 49.5653 759.248 49.224C759.76 48.8827 760.165 48.3813 760.464 47.72C760.762 47.0373 760.912 46.1733 760.912 45.128C760.912 43.5707 760.592 42.4293 759.952 41.704C759.312 40.9573 758.469 40.584 757.424 40.584C756.741 40.584 756.133 40.744 755.6 41.064C755.088 41.384 754.682 41.8853 754.384 42.568C754.106 43.2293 753.968 44.0827 753.968 45.128C753.968 46.6853 754.288 47.848 754.928 48.616C755.568 49.3627 756.4 49.736 757.424 49.736ZM757.424 60.008C756.656 60.008 756.058 59.8053 755.632 59.4C755.226 59.016 755.024 58.4613 755.024 57.736C755.024 56.9893 755.226 56.424 755.632 56.04C756.058 55.656 756.656 55.464 757.424 55.464C758.213 55.464 758.81 55.656 759.216 56.04C759.621 56.424 759.824 56.9893 759.824 57.736C759.824 58.4613 759.621 59.016 759.216 59.4C758.81 59.8053 758.213 60.008 757.424 60.008ZM776.363 53.352C774.657 53.352 773.163 53.0213 771.883 52.36C770.625 51.6773 769.654 50.7173 768.971 49.48C768.289 48.2427 767.947 46.7813 767.947 45.096C767.947 43.8373 768.139 42.7067 768.523 41.704C768.907 40.7013 769.462 39.848 770.187 39.144C770.934 38.44 771.83 37.9067 772.875 37.544C773.921 37.16 775.083 36.968 776.363 36.968C777.025 36.968 777.729 37.0533 778.475 37.224C779.222 37.3733 779.958 37.64 780.683 38.024C781.11 38.216 781.398 38.4933 781.547 38.856C781.718 39.1973 781.782 39.56 781.739 39.944C781.697 40.3067 781.558 40.6373 781.323 40.936C781.11 41.2133 780.833 41.4053 780.491 41.512C780.15 41.5973 779.766 41.5333 779.339 41.32C778.934 41.0853 778.507 40.9147 778.059 40.808C777.633 40.7013 777.227 40.648 776.843 40.648C776.203 40.648 775.638 40.7547 775.147 40.968C774.657 41.16 774.241 41.448 773.899 41.832C773.579 42.1947 773.323 42.6533 773.131 43.208C772.961 43.7627 772.875 44.4027 772.875 45.128C772.875 46.536 773.217 47.6453 773.899 48.456C774.603 49.2453 775.585 49.64 776.843 49.64C777.227 49.64 777.633 49.5973 778.059 49.512C778.486 49.4053 778.913 49.2347 779.339 49C779.766 48.7867 780.15 48.7333 780.491 48.84C780.833 48.9467 781.099 49.1493 781.291 49.448C781.505 49.7253 781.622 50.056 781.643 50.44C781.686 50.8027 781.622 51.1653 781.451 51.528C781.302 51.8693 781.025 52.136 780.619 52.328C779.894 52.6907 779.169 52.9467 778.443 53.096C777.718 53.2667 777.025 53.352 776.363 53.352Z"
                fill="white" />
        </g>
    </g>
    <defs>
        <filter id="filter0_i_3102_203383" x="344.566" y="4" width="578.869" height="80"
            filterUnits="userSpaceOnUse" color-interpolation-filters="sRGB">
            <feFlood flood-opacity="0" result="BackgroundImageFix" />
            <feBlend mode="normal" in="SourceGraphic" in2="BackgroundImageFix" result="shape" />
            <feColorMatrix in="SourceAlpha" type="matrix"
                values="0 0 0 0 0 0 0 0 0 0 0 0 0 0 0 0 0 0 127 0" result="hardAlpha" />
            <feOffset />
            <feGaussianBlur stdDeviation="6" />
            <feComposite in2="hardAlpha" operator="arithmetic" k2="-1" k3="1" />
            <feColorMatrix type="matrix" values="0 0 0 0 0 0 0 0 0 0 0 0 0 0 0 0 0 0 0.4 0" />
            <feBlend mode="normal" in2="shape" result="effect1_innerShadow_3102_203383" />
        </filter>
        <filter id="filter1_b_3102_203383" x="284.566" y="-56" width="698.869" height="200"
            filterUnits="userSpaceOnUse" color-interpolation-filters="sRGB">
            <feFlood flood-opacity="0" result="BackgroundImageFix" />
            <feGaussianBlur in="BackgroundImageFix" stdDeviation="30" />
            <feComposite in2="SourceAlpha" operator="in" result="effect1_backgroundBlur_3102_203383" />
            <feBlend mode="normal" in="SourceGraphic" in2="effect1_backgroundBlur_3102_203383"
                result="shape" />
        </filter>
        <filter id="filter2_b_3102_203383" x="284.566" y="-56" width="698.869" height="200"
            filterUnits="userSpaceOnUse" color-interpolation-filters="sRGB">
            <feFlood flood-opacity="0" result="BackgroundImageFix" />
            <feGaussianBlur in="BackgroundImageFix" stdDeviation="30" />
            <feComposite in2="SourceAlpha" operator="in" result="effect1_backgroundBlur_3102_203383" />
            <feBlend mode="normal" in="SourceGraphic" in2="effect1_backgroundBlur_3102_203383"
                result="shape" />
        </filter>
        <filter id="filter3_d_3102_203383" x="481.764" y="24.856" width="304.039" height="41.1519"
            filterUnits="userSpaceOnUse" color-interpolation-filters="sRGB">
            <feFlood flood-opacity="0" result="BackgroundImageFix" />
            <feColorMatrix in="SourceAlpha" type="matrix"
                values="0 0 0 0 0 0 0 0 0 0 0 0 0 0 0 0 0 0 127 0" result="hardAlpha" />
            <feOffset dy="2" />
            <feGaussianBlur stdDeviation="2" />
            <feComposite in2="hardAlpha" operator="out" />
            <feColorMatrix type="matrix" values="0 0 0 0 0 0 0 0 0 0 0 0 0 0 0 0 0 0 0.3 0" />
            <feBlend mode="normal" in2="BackgroundImageFix" result="effect1_dropShadow_3102_203383" />
            <feBlend mode="normal" in="SourceGraphic" in2="effect1_dropShadow_3102_203383"
                result="shape" />
        </filter>
        <linearGradient id="paint0_linear_3102_203383" x1="633.852" y1="4.1133" x2="633.852"
            y2="-2.94198" gradientUnits="userSpaceOnUse">
            <stop stop-color="#00B26B" />
            <stop offset="1" stop-color="#D8EDDD" />
        </linearGradient>
        <linearGradient id="paint1_linear_3102_203383" x1="633.933" y1="86.266" x2="633.933"
            y2="-54.8396" gradientUnits="userSpaceOnUse">
            <stop stop-color="#00B26B" />
            <stop offset="1" stop-color="#D8EDDD" />
        </linearGradient>
        <clipPath id="clip0_3102_203383">
            <rect width="1268" height="4" rx="2" fill="white" />
        </clipPath>
    </defs>
</svg>