<svg width="1040" height="1000" viewBox="0 0 1040 1000" fill="none"
    xmlns="http://www.w3.org/2000/svg">
    <g filter="url(#filter0_dd_3008_152531)">
        <g clip-path="url(#clip0_3008_152531)">
            <path d="M1020 20H20V1427.09H1020V20Z" fill="#FFEC9F" />
            <rect x="60" y="140" width="920" height="1380" rx="20" fill="white" />
            <mask id="mask0_3008_152531" style="mask-type:luminance" maskUnits="userSpaceOnUse"
                x="20" y="20" width="1000" height="1408">
                <path d="M1020 20H20V1427.09H1020V20Z" fill="white" />
            </mask>
            <g mask="url(#mask0_3008_152531)">
                <path
                    d="M1150.06 443.706C1160.9 442.856 1183.11 441.908 1195.4 453.77C1283.44 555.579 1182.51 589.328 1172.34 593.829C1153.61 602.106 1118.19 592.7 1097.26 584.304C1078.91 576.943 1059.32 563.911 1044.33 548.122C1023.92 526.619 1016.53 480.608 1016.35 452.531C1016.1 414.635 999.579 398.686 950.732 386.489C910.045 376.328 921.806 347.335 922.659 332.6C923.474 318.536 927.458 306.662 920.365 290.336C917.826 284.49 914.036 278.821 908.788 274.66C902.823 269.931 894.173 265.716 888.048 264L888.227 263.868C892.458 260.762 901.004 254.488 906.136 253.122C911.976 251.568 917.566 252.116 922.962 254.817C933.929 260.306 937.739 271.686 942.569 282.066C947.474 292.61 954.722 301.469 965.754 305.932C978.287 311.002 991.248 309.611 1004.32 308.806C1018.24 307.947 1033.61 309.434 1045.94 316.636C1052.16 320.27 1055.76 325.223 1057.35 332.314C1060.42 345.946 1058.28 360.361 1059.4 374.158C1060.7 390.041 1062.98 407.762 1074.28 420.076C1084.16 430.842 1100.08 435.846 1113.65 439.631C1125.52 442.942 1137.76 444.672 1150.06 443.706Z"
                    fill="#40DD88" />
                <path
                    d="M1165.7 473.345C1200.43 459.783 1192.54 468.748 1203.77 480.935C1287.35 585.772 1174.14 600.072 1167.5 604.897C1155.29 613.772 1127.52 604.458 1110.59 595.997C1095.75 588.581 1078.94 575.274 1064.99 559.033C1046.01 536.916 1032.04 489.096 1026.69 459.856C1019.46 420.391 1004.37 404.006 966.223 391.966C934.451 381.936 937.704 351.58 935.594 336.222C933.58 321.564 934.301 309.143 926.059 292.236C923.108 286.182 919.272 280.33 914.643 276.067C909.384 271.222 902.248 266.951 897.43 265.247L897.537 265.107C900.068 261.815 905.18 255.164 908.695 253.672C912.696 251.973 916.904 252.469 921.369 255.208C930.444 260.775 935.356 272.576 940.831 283.321C946.393 294.236 957.402 317.757 975.99 317.433C994.578 317.109 1027.21 299.082 1040.57 333.651C1051.4 361.707 1032.69 431.129 1069.2 452.369C1107.11 474.425 1148.22 480.167 1165.7 473.345Z"
                    fill="#77FFAA" />
                <g style="mix-blend-mode:plus-lighter">
                    <path
                        d="M1165.93 452.472C1200.67 438.91 1192.53 468.752 1203.76 480.939C1203.76 480.939 1109.08 622.903 1102.44 627.729C1087.6 620.312 1062.62 607.635 1039.09 574.136C1017.25 543.051 1036.61 476.344 1031.25 447.104C1024.03 407.64 1010.7 394.597 972.563 382.557C940.792 372.528 941.866 342.272 939.757 326.915C937.743 312.257 937.946 303.933 929.705 287.027C926.754 280.973 917.899 267.116 897.432 265.256L897.539 265.117C900.07 261.824 905.181 255.174 908.696 253.682C912.697 251.984 912.985 255.36 917.45 258.1C926.524 263.667 928.812 272.096 934.288 282.841C939.849 293.755 948.255 318.257 968.065 333.783C987.875 349.31 1011.77 332.093 1025.12 366.661C1035.95 394.715 1030.92 440.316 1067.42 461.556C1105.33 483.611 1148.46 459.294 1165.93 452.472Z"
                        fill="#FF9800" />
                </g>
                <path style="mix-blend-mode:color-dodge"
                    d="M972.092 165.75C972.092 165.75 1006.27 244.456 935.04 297.594C852.579 359.115 793.081 293.545 793.081 293.545L827.134 162.961L972.092 165.75Z"
                    fill="url(#paint0_radial_3008_152531)" />
                <path opacity="0.5"
                    d="M942.529 184.935C942.529 184.935 964.241 231.404 910.904 270.725C858.565 309.302 816.657 270.299 816.657 270.299L821.426 152.016L942.547 184.959L942.529 184.935Z"
                    fill="url(#paint1_linear_3008_152531)" />
                <path
                    d="M871.488 246.497C871.488 246.497 873.799 248.14 877.257 250.448C878.936 251.585 880.819 252.751 882.909 254.051C892.107 259.643 904.29 265.796 908.602 262.18C912.288 259.032 909.576 246.393 906.726 236.572C905.999 234.29 905.4 232.131 904.793 230.303C903.639 226.819 902.732 224.491 902.732 224.491L871.465 246.515L871.488 246.497Z"
                    fill="#FF6047" />
                <path
                    d="M793.637 285.638C793.637 285.638 796.062 288.499 799.645 292.234C801.115 293.671 802.736 295.358 804.426 296.993C811.957 304.226 821.464 311.831 826.123 309.405C830.259 307.297 830.688 295.284 830.268 285.28C830.121 282.856 830.037 280.565 829.849 278.57C829.489 274.312 829.181 271.429 829.181 271.429L793.66 285.621L793.637 285.638Z"
                    fill="#FF6047" />
                <path
                    d="M939.88 188.814C939.88 188.814 943.286 190.327 948.06 192.123C949.966 192.837 952.052 193.598 954.271 194.295C963.42 197.353 974.112 199.911 977.159 196.732C980.521 193.247 976.924 183.441 972.6 174.648C971.652 172.748 970.67 170.948 969.716 169.234C966.513 163.297 963.598 158.811 963.598 158.811L939.88 188.814Z"
                    fill="#FF6047" />
                <path
                    d="M794.124 296.164C834.013 280.849 868.833 259.18 896.858 237.801C900.038 235.429 903.056 233.032 906.062 230.717C929.707 211.846 947.913 193.919 959.351 181.693C968.513 171.889 973.415 165.77 973.415 165.77C920.809 119.505 863.749 94.628 823.073 81.5312C805.098 75.7533 790.274 72.2591 780.486 70.33C777.293 69.6351 774.161 70.2334 771.568 71.6976C770.999 72.0494 770.431 72.4013 769.908 72.8634C767.297 74.8842 765.553 77.7778 765.044 81.1626C762.604 96.9213 761.405 112.406 761.197 127.476C759.654 220.258 794.141 296.187 794.141 296.187L794.124 296.164Z"
                    fill="url(#paint2_linear_3008_152531)" />
                <path
                    d="M791.614 290.436C890.777 252.203 958.475 174.621 969.074 161.93C970.535 163.159 971.977 164.365 973.431 165.635C973.431 165.635 902.445 254.512 794.002 296.154C794.002 296.154 793.088 294.155 791.591 290.453L791.614 290.436Z"
                    fill="#FF9800" />
                <g style="mix-blend-mode:multiply" opacity="0.5">
                    <path
                        d="M948.056 192.127C949.963 192.841 952.05 193.602 954.27 194.3C962.523 185.933 968.715 179.067 972.607 174.642C971.658 172.742 970.675 170.94 969.721 169.226C965.37 174.247 958.057 182.275 948.079 192.109L948.056 192.127Z"
                        fill="#9185E7" />
                </g>
                <g style="mix-blend-mode:multiply" opacity="0.5">
                    <path
                        d="M877.277 250.44C878.957 251.577 880.84 252.744 882.932 254.045C891.392 248.277 899.288 242.385 906.762 236.555C906.034 234.272 905.434 232.111 904.828 230.282C896.332 237.019 887.106 243.794 877.253 250.458L877.277 250.44Z"
                        fill="#9185E7" />
                </g>
                <g style="mix-blend-mode:multiply" opacity="0.5">
                    <path
                        d="M799.657 292.261C801.128 293.698 802.75 295.386 804.441 297.022C813.319 293.368 821.942 289.47 830.293 285.303C830.145 282.878 830.062 280.586 829.873 278.59C820.187 283.535 810.096 288.13 799.657 292.261Z"
                        fill="#9185E7" />
                </g>
                <path
                    d="M761.253 127.499C787.534 114.084 810.003 94.3513 823.12 81.5593C805.142 75.7799 790.314 72.2847 780.523 70.3552C773.219 68.8516 766.225 73.8164 765.078 81.1905C762.637 96.9533 761.438 112.442 761.23 127.516L761.253 127.499Z"
                    fill="#FF9800" />
                <g style="mix-blend-mode:overlay" opacity="0.25">
                    <path
                        d="M896.874 237.732C925.067 216.408 946.468 195.375 959.34 181.645C959.387 181.61 959.604 179.53 959.604 179.53C919.722 121.598 799.374 80.4907 771.642 71.6505C771.074 72.0022 770.436 72.4058 769.937 72.8505C826.46 115.326 878.911 204.956 896.897 237.715L896.874 237.732Z"
                        fill="white" />
                </g>
                <path style="mix-blend-mode:multiply"
                    d="M794.093 296.166C803.807 292.431 813.294 288.248 822.377 283.861C850.592 270.302 875.665 253.986 896.802 237.818C899.981 235.446 902.998 233.05 906.004 230.735C905.842 230.712 905.645 230.786 905.517 230.809C769.996 255.799 768.526 105.855 769.843 72.9131C767.279 74.8989 765.536 77.7917 765.027 81.1757C762.587 96.9307 761.388 112.412 761.181 127.478C760.85 147.994 762.287 167.734 764.736 185.923C773.197 250.117 794.117 296.149 794.117 296.149L794.093 296.166Z"
                    fill="#D8EDDD" />
                <g style="mix-blend-mode:multiply" opacity="0.5">
                    <path
                        d="M880.547 231.502C855.176 250.43 819.23 245.172 800.259 219.758C781.289 194.343 786.477 158.397 811.848 139.468C837.22 120.54 873.166 125.798 892.136 151.212C911.107 176.627 905.918 212.574 880.547 231.502Z"
                        fill="#00B26B" />
                </g>
                <path
                    d="M841.807 231.851C810.159 229.834 786.093 202.586 788.053 170.991C790.013 139.395 817.257 115.416 848.904 117.433C880.552 119.449 904.618 146.697 902.658 178.293C900.699 209.889 873.454 233.867 841.807 231.851Z"
                    fill="#00B26B" />
                <path
                    d="M877.962 218.343C853.872 236.315 819.743 231.323 801.731 207.192C783.719 183.062 788.645 148.932 812.734 130.96C836.823 112.988 870.953 117.981 888.965 142.111C906.977 166.241 902.051 200.371 877.962 218.343Z"
                    fill="#308060" />
                <path
                    d="M839.653 214.15C817.804 210.959 802.648 190.687 805.802 168.871C808.955 147.055 829.225 131.957 851.074 135.148C872.924 138.339 888.08 158.611 884.926 180.427C881.772 202.242 861.503 217.341 839.653 214.15Z"
                    fill="url(#paint3_linear_3008_152531)" />
                <g filter="url(#filter1_i_3008_152531)">
                    <path
                        d="M824.479 194.257C818.395 184.445 820.661 173.185 822.555 168.782C821.975 164.531 821.913 154.632 826.309 149.039C831.804 142.048 843.463 142.053 849.345 147.225C863.517 146.522 872.686 158.335 875.499 164.329C891.013 183.303 875.034 208.823 856.939 212.79C838.845 216.758 825.908 205.592 824.479 194.257Z"
                        fill="url(#paint4_linear_3008_152531)" />
                </g>
                <g filter="url(#filter2_i_3008_152531)">
                    <path
                        d="M824.487 194.249C818.404 184.439 820.669 173.181 822.563 168.778C821.983 164.528 821.921 154.63 826.316 149.038C831.81 142.048 843.468 142.053 849.348 147.225C863.518 146.522 872.686 158.332 875.499 164.325C880.264 170.153 882.057 176.597 881.731 182.845C880.945 181.146 877.729 177.179 871.158 174.905C864.587 172.631 855.582 175.58 851.9 177.338C847.854 171.559 841.197 168.423 839.101 169.486C837.005 170.549 836.181 175.418 837.399 181.159C826.993 185.656 824.787 193.418 824.985 196.737C824.758 195.912 824.592 195.081 824.487 194.249Z"
                        fill="#51A63B" />
                </g>
                <g filter="url(#filter3_i_3008_152531)">
                    <ellipse cx="9.25895" cy="11.5435" rx="9.25895" ry="11.5435"
                        transform="matrix(0.964136 -0.254912 0.257006 0.969234 822.584 173.283)"
                        fill="white" />
                </g>
                <ellipse cx="5.68557" cy="5.64819" rx="5.68557" ry="5.64819"
                    transform="matrix(0.994842 0.070326 -0.069618 1.00025 829.238 180.57)"
                    fill="#C57125" />
                <ellipse cx="3.1294" cy="3.10882" rx="3.1294" ry="3.10882"
                    transform="matrix(0.994842 0.070326 -0.069618 1.00025 831.742 185.552)"
                    fill="black" />
                <ellipse cx="1.37379" cy="1.36475" rx="1.37379" ry="1.36475"
                    transform="matrix(0.994842 0.070326 -0.069618 1.00025 833.359 183.394)"
                    fill="white" />
                <g filter="url(#filter4_i_3008_152531)">
                    <ellipse cx="9.82305" cy="11.5424" rx="9.82305" ry="11.5424"
                        transform="matrix(0.984247 -0.159929 0.16173 0.989714 840.029 164.694)"
                        fill="white" />
                </g>
                <ellipse cx="5.68557" cy="5.64818" rx="5.68557" ry="5.64818"
                    transform="matrix(0.994843 0.0703275 -0.0696166 1.00025 845.48 172.58)"
                    fill="#C57125" />
                <ellipse cx="3.12362" cy="3.10308" rx="3.12362" ry="3.10308"
                    transform="matrix(0.994843 0.0703275 -0.0696166 1.00025 847.57 177.845)"
                    fill="black" />
                <ellipse cx="1.59311" cy="1.58263" rx="1.59311" ry="1.58263"
                    transform="matrix(0.994843 0.0703275 -0.0696166 1.00025 850.369 175.777)"
                    fill="white" />
                <g filter="url(#filter5_i_3008_152531)">
                    <path
                        d="M858.099 184.022C856.093 183.421 850.709 182.505 845.227 183.65C838.775 185.149 832.273 193.187 833.247 202.495C837.243 200.188 839.541 199.703 840.191 199.749C841.665 199.872 845.034 202.268 846.711 210.866C858.107 210.796 861.045 197.988 861.25 195.035C862.856 193.312 865.686 190.493 864.218 186.343C863.044 183.023 859.65 183.412 858.099 184.022Z"
                        fill="#F1BD18" />
                </g>
                <path
                    d="M846.769 211.052C845.698 204.81 842.355 199.88 839.933 199.708C853.268 197.073 855.062 197.538 858.24 191.531C857.314 199.107 852.157 207.247 846.769 211.052Z"
                    fill="#BF800F" />
                <g filter="url(#filter6_i_3008_152531)">
                    <path
                        d="M856.009 194.894C853.75 197.485 847.723 198.188 843.212 199.055C844.594 199.59 847.562 202.322 848.377 208.971C853.504 207.008 857.76 200.333 856.009 194.894Z"
                        fill="#7B2C25" />
                </g>
                <path
                    d="M816.227 161.048C818.465 147.757 828.906 145.999 834.014 147.345C833.508 149.113 830.79 156.337 830.261 160.17C829.599 164.962 821.8 169.479 820.127 167.556C818.789 166.018 820.617 161.961 821.698 160.125C819.964 160.913 818.082 161.349 816.227 161.048Z"
                    fill="url(#paint5_linear_3008_152531)" />
                <path
                    d="M815.833 161.998C818.07 148.708 828.844 148.076 833.951 149.422C833.445 151.19 832.301 155.685 831.771 159.518C831.11 164.31 821.405 170.429 819.732 168.507C818.394 166.969 820.222 162.912 821.303 161.075C819.569 161.864 817.688 162.3 815.833 161.998Z"
                    fill="url(#paint6_radial_3008_152531)" />
                <path fill-rule="evenodd" clip-rule="evenodd"
                    d="M851.838 160.32C850.637 160.203 849.172 160.259 847.509 160.573C845.641 160.925 844.136 162.024 843.074 163.168C842.025 164.296 841.298 165.586 841.067 166.498C840.925 167.057 841.264 167.626 841.824 167.769C842.385 167.912 842.954 167.574 843.096 167.014C843.218 166.534 843.724 165.544 844.609 164.592C845.48 163.654 846.61 162.871 847.9 162.628C849.394 162.346 850.657 162.306 851.636 162.402C852.64 162.5 853.261 162.734 853.539 162.921C854.019 163.244 854.669 163.118 854.992 162.639C855.315 162.161 855.187 161.511 854.708 161.188C854.023 160.727 853.013 160.436 851.838 160.32ZM835.383 169.006C835.441 168.431 835.022 167.918 834.446 167.86C832.877 167.7 830.021 168.072 827.853 169.497C826.763 170.214 825.771 171.233 825.017 172.217C824.281 173.178 823.676 174.229 823.476 175.046C823.338 175.607 823.682 176.173 824.244 176.311C824.805 176.449 825.372 176.107 825.509 175.546C825.607 175.148 826.005 174.372 826.68 173.49C827.337 172.633 828.165 171.797 829.006 171.244C830.7 170.131 833.054 169.82 834.237 169.94C834.812 169.999 835.326 169.58 835.383 169.006Z"
                    fill="black" fill-opacity="0.2" />
                <path
                    d="M851.329 207.255C847.965 205.055 848.192 200.19 848.726 198.033C849.604 197.797 850.357 197.716 851.325 197.381C850.032 200.842 850.738 203.208 850.925 203.132C851.111 203.057 851.02 200.862 852.143 197.139C853.533 196.5 855.538 195.363 856.009 194.873C857.717 200.585 853.474 205.6 851.329 207.255Z"
                    fill="#A9524C" />
                <path
                    d="M839.653 214.15C817.804 210.959 802.648 190.687 805.802 168.871C808.955 147.055 829.225 131.957 851.074 135.148C872.924 138.339 888.08 158.611 884.926 180.427C881.772 202.242 861.503 217.341 839.653 214.15Z"
                    fill="url(#paint7_linear_3008_152531)" />
                <path style="mix-blend-mode:multiply"
                    d="M834.003 161.048C819.91 171.562 814.95 189.565 820.139 205.428C817.695 203.413 815.368 201.166 813.389 198.515C800.178 180.816 803.791 155.779 821.46 142.598C839.128 129.416 864.164 133.078 877.375 150.777C880.049 154.358 881.864 158.291 883.168 162.315C869.275 150.918 849.024 149.841 834.003 161.048Z"
                    fill="url(#paint8_radial_3008_152531)" />
                <path
                    d="M872.892 181.946C871.481 187.126 872.147 191.843 874.361 192.436C876.592 193.052 879.531 189.339 880.941 184.159C882.352 178.98 881.686 174.263 879.472 173.67C877.241 173.053 874.302 176.767 872.892 181.946Z"
                    fill="white" />
                <path
                    d="M821.947 203.148C824.105 205.121 826.596 205.94 827.501 204.975C828.389 203.987 827.39 201.584 825.214 199.588C823.056 197.616 820.565 196.796 819.66 197.761C818.771 198.749 819.771 201.153 821.947 203.148Z"
                    fill="white" />
                <g style="mix-blend-mode:overlay" opacity="0.5">
                    <path
                        d="M822.335 283.85C791.47 278.507 774.236 231.8 764.684 185.948C773.143 250.13 794.058 296.154 794.058 296.154C803.769 292.419 813.255 288.237 822.335 283.85Z"
                        fill="white" />
                </g>
                <g style="mix-blend-mode:lighten" opacity="0.4">
                    <path
                        d="M103.625 571.189C186.787 571.189 254.204 503.435 254.204 419.856C254.204 336.278 186.787 268.524 103.625 268.524C20.4631 268.524 -46.9531 336.278 -46.9531 419.856C-46.9531 503.435 20.4631 571.189 103.625 571.189Z"
                        fill="white" />
                </g>
                <g style="mix-blend-mode:lighten" opacity="0.4">
                    <path
                        d="M103.626 546.292C173.107 546.292 229.432 489.685 229.432 419.856C229.432 350.027 173.107 293.42 103.626 293.42C34.1455 293.42 -22.1797 350.027 -22.1797 419.856C-22.1797 489.685 34.1455 546.292 103.626 546.292Z"
                        fill="white" />
                </g>
                <path
                    d="M52.3266 665.523C42.6865 681.306 13.9266 681.29 -11.9141 665.507C-37.7547 649.725 -50.8915 624.142 -41.2675 608.359C-31.6273 592.577 -2.86744 592.593 22.9732 608.376C48.8138 624.158 61.9506 649.741 52.3266 665.523Z"
                    fill="#FFCD28" />
                <path
                    d="M48.8614 653.205C41.7235 664.882 18.5776 663.727 -2.83591 650.639C-24.2655 637.551 -35.8464 617.486 -28.7246 605.809C-21.5868 594.133 1.55908 595.287 22.9726 608.375C44.4022 621.463 55.9832 641.529 48.8614 653.205Z"
                    fill="#FFE235" />
                <path
                    d="M10.0754 629.483C2.66484 624.976 0.306945 615.272 4.84629 607.83L12.6578 595.047L14.6949 591.695L37.6964 554.082L37.7927 553.922L64.6759 570.346L64.5796 570.507L41.6904 607.958L39.6854 611.214L31.7456 624.254C27.2062 631.696 17.534 634.022 10.0914 629.483H10.0754Z"
                    fill="#FFE235" />
                <path
                    d="M39.6717 611.215C31.1384 607.285 26.214 604.254 26.214 604.254C21.4181 601.222 16.9268 598.159 12.6602 595.063L14.6973 591.711L37.6988 554.099L64.582 570.523L41.6927 607.975L39.6877 611.231L39.6717 611.215Z"
                    fill="#FFC14A" />
                <path
                    d="M199.623 500.286C199.623 500.286 237.381 500.639 246.251 534.386C248.625 543.432 248.192 553.056 245.401 561.989C239.29 581.573 219.513 613.524 156.234 591.486L161.913 575.992C161.913 575.992 188.667 585.006 207.338 575.414C223.859 566.93 220.331 541.668 202.189 537.674C196.976 536.535 190.496 535.99 182.46 536.503L199.639 500.286H199.623Z"
                    fill="#FFCD28" />
                <path
                    d="M211.044 532.301C217.54 536.792 225.865 545.517 223.699 559.905C222.352 568.822 217.043 576.618 209.857 582.071C206.616 584.525 202.863 586.883 199.174 588.054C199.174 588.054 230.628 592.561 241.873 561.893C245.802 551.179 245.786 539.182 240.894 528.869C237.911 522.581 232.906 515.861 224.517 510.953C217.411 506.799 208.269 510.632 206.183 518.587C206.151 518.7 206.119 518.796 206.103 518.908C204.788 523.977 206.745 529.318 211.06 532.301H211.044Z"
                    fill="#FFE235" />
                <path
                    d="M142.875 603.98C122.456 614.31 98.3955 617.421 74.7363 611.23C49.7619 604.702 32.3102 594.004 32.3102 594.004C7.75284 578.366 -9.98752 561.252 -22.7394 545.726C-50.8096 511.37 -52.189 462.819 -25.6106 427.276C-9.81108 406.2 10.2391 388.252 26.632 375.485C43.5704 362.204 56.4827 354.49 56.4827 354.49L81.9544 370.529L212.505 452.682C212.409 465.257 210.965 477.831 208.655 490.053C204.18 513.872 196.401 536.311 188.701 554.708C179.414 576.794 162.909 593.827 142.875 603.964V603.98Z"
                    fill="#FFCD28" />
                <path
                    d="M166.565 573.041C149.594 592.93 122.422 601.831 97.0789 595.383C96.9345 595.351 96.8062 595.319 96.6618 595.271C74.9114 589.625 59.7215 580.275 59.7215 580.275C38.356 566.657 22.8934 551.757 11.7936 538.22C-12.6996 508.354 -13.9026 466.043 9.29138 435.119C34.5545 401.357 72.4573 376.897 79.5952 372.438L204.419 450.982C204.098 486.413 192.806 521.876 181.658 548.533C177.825 557.659 172.708 565.871 166.581 573.041H166.565Z"
                    fill="#FFE235" />
                <path
                    d="M102.149 476.18L101.154 493.053C101.058 494.609 101.748 496.116 102.967 497.063L116.296 507.44C119.392 509.846 118.381 514.77 114.58 515.765L98.2349 520.031C96.7271 520.432 95.5081 521.539 94.9787 522.998L89.2203 538.893C87.889 542.582 82.9005 543.144 80.7833 539.84L71.6725 525.613C70.8384 524.297 69.3948 523.479 67.8389 523.431L50.9486 522.87C47.0188 522.742 44.9497 518.17 47.4359 515.123L58.1507 502.051C59.1451 500.848 59.4659 499.228 59.0329 497.736L54.3492 481.505C53.2584 477.735 56.9637 474.351 60.6208 475.779L76.3562 481.938C77.8158 482.499 79.4519 482.323 80.7351 481.441L94.7221 471.961C97.9782 469.764 102.341 472.25 102.101 476.164L102.149 476.18Z"
                    fill="white" />
                <path
                    d="M197.409 517.963C194.698 529.992 185.732 538.204 177.407 536.328C169.066 534.451 164.527 523.175 167.237 511.146C169.948 499.116 178.915 490.904 187.239 492.781C195.58 494.658 200.12 505.933 197.409 517.963Z"
                    fill="#FFEF6B" />
                <path
                    d="M208.638 490.07C182.156 496.662 139.201 485.13 98.1862 458.072C60.2674 433.099 33.8654 401.405 26.6152 375.502C43.5536 362.221 56.4659 354.506 56.4659 354.506L81.9376 370.545L212.488 452.699C212.392 465.273 210.948 477.848 208.638 490.07Z"
                    fill="#FFC14A" />
                <path
                    d="M222.144 464.502C237.56 441.115 210.045 395.785 160.688 363.254C111.331 330.723 58.822 323.31 43.4065 346.697C27.9909 370.083 55.5059 415.413 104.863 447.944C154.22 480.475 206.728 487.888 222.144 464.502Z"
                    fill="#FFE235" />
                <path
                    d="M184.066 443.187C170.272 443.315 147.19 434.478 123.819 419.112C101.059 404.116 84.0721 386.841 78.3618 374.186C75.9237 368.781 75.5387 364.21 77.64 360.986C84.6656 350.32 116.714 359.077 149.291 380.522C181.837 401.982 202.512 427.998 195.471 438.648C193.466 441.647 189.52 443.123 184.066 443.187Z"
                    fill="#FFC14A" />
                <path
                    d="M184.066 443.187C170.271 443.315 147.189 434.478 123.819 419.112C101.058 404.115 84.0716 386.841 78.3613 374.186C92.1879 374.026 115.27 382.863 138.608 398.261C161.401 413.226 178.355 430.532 184.066 443.187Z"
                    fill="#D2732C" />
                <g opacity="0.6">
                    <path
                        d="M951.675 70.5603C944.885 70.5603 939.367 65.0153 939.367 58.1906C939.367 56.013 937.625 54.262 935.458 54.262C933.292 54.262 931.549 56.013 931.549 58.1906C931.549 65.0153 926.032 70.5603 919.241 70.5603C917.074 70.5603 915.332 72.3114 915.332 74.489C915.332 76.6666 917.074 78.4177 919.241 78.4177C926.032 78.4177 931.549 83.9627 931.549 90.7874C931.549 92.965 933.292 94.7161 935.458 94.7161C937.625 94.7161 939.367 92.965 939.367 90.7874C939.367 83.9627 944.885 78.4177 951.675 78.4177C953.842 78.4177 955.585 76.6666 955.585 74.489C955.585 72.3114 953.842 70.5603 951.675 70.5603Z"
                        fill="white" />
                    <path
                        d="M979.628 459.9C970.492 459.9 963.054 452.425 963.054 443.243C963.054 440.324 960.686 437.945 957.782 437.945C954.878 437.945 952.51 440.324 952.51 443.243C952.51 452.425 945.072 459.9 935.936 459.9C933.032 459.9 930.664 462.28 930.664 465.198C930.664 468.117 933.032 470.496 935.936 470.496C945.072 470.496 952.51 477.972 952.51 487.154C952.51 490.072 954.878 492.452 957.782 492.452C960.686 492.452 963.054 490.072 963.054 487.154C963.054 477.972 970.492 470.496 979.628 470.496C982.532 470.496 984.9 468.117 984.9 465.198C984.9 462.28 982.532 459.9 979.628 459.9Z"
                        fill="white" />
                    <path
                        d="M452.437 62.2284C443.301 62.2284 435.862 54.7527 435.862 45.5708C435.862 42.6524 433.495 40.2727 430.591 40.2727C427.687 40.2727 425.319 42.6524 425.319 45.5708C425.319 54.7527 417.88 62.2284 408.744 62.2284C405.84 62.2284 403.473 64.608 403.473 67.5265C403.473 70.4449 405.84 72.8246 408.744 72.8246C417.88 72.8246 425.319 80.3003 425.319 89.4822C425.319 92.4006 427.687 94.7803 430.591 94.7803C433.495 94.7803 435.862 92.4006 435.862 89.4822C435.862 80.3003 443.301 72.8246 452.437 72.8246C455.341 72.8246 457.709 70.4449 457.709 67.5265C457.709 64.608 455.341 62.2284 452.437 62.2284Z"
                        fill="white" />
                    <path
                        d="M102.319 879.61C98.0526 879.61 94.5679 876.108 94.5679 871.82C94.5679 870.451 93.4734 869.351 92.1108 869.351C90.7482 869.351 89.6536 870.451 89.6536 871.82C89.6536 876.108 86.169 879.61 81.9025 879.61C80.5399 879.61 79.4453 880.71 79.4453 882.08C79.4453 883.449 80.5399 884.549 81.9025 884.549C86.169 884.549 89.6536 888.051 89.6536 892.339C89.6536 893.709 90.7482 894.809 92.1108 894.809C93.4734 894.809 94.5679 893.709 94.5679 892.339C94.5679 888.051 98.0526 884.549 102.319 884.549C103.682 884.549 104.776 883.449 104.776 882.08C104.776 880.71 103.682 879.61 102.319 879.61Z"
                        fill="white" />
                    <path
                        d="M912.854 53.5214C908.588 53.5214 905.103 50.0193 905.103 45.7314C905.103 44.362 904.009 43.262 902.646 43.262C901.283 43.262 900.189 44.362 900.189 45.7314C900.189 50.0193 896.704 53.5214 892.438 53.5214C891.075 53.5214 889.98 54.6214 889.98 55.9909C889.98 57.3603 891.075 58.4603 892.438 58.4603C896.704 58.4603 900.189 61.9625 900.189 66.2503C900.189 67.6197 901.283 68.7198 902.646 68.7198C904.009 68.7198 905.103 67.6197 905.103 66.2503C905.103 61.9625 908.588 58.4603 912.854 58.4603C914.217 58.4603 915.311 57.3603 915.311 55.9909C915.311 54.6214 914.217 53.5214 912.854 53.5214Z"
                        fill="white" />
                    <path
                        d="M465.235 96.1269C460.969 96.1269 457.484 92.6248 457.484 88.3369C457.484 86.9675 456.389 85.8674 455.027 85.8674C453.664 85.8674 452.57 86.9675 452.57 88.3369C452.57 92.6248 449.085 96.1269 444.818 96.1269C443.456 96.1269 442.361 97.2269 442.361 98.5963C442.361 99.9658 443.456 101.066 444.818 101.066C449.085 101.066 452.57 104.568 452.57 108.856C452.57 110.225 453.664 111.325 455.027 111.325C456.389 111.325 457.484 110.225 457.484 108.856C457.484 104.568 460.969 101.066 465.235 101.066C466.598 101.066 467.692 99.9658 467.692 98.5963C467.692 97.2269 466.598 96.1269 465.235 96.1269Z"
                        fill="white" />
                    <path
                        d="M111.03 105.301C106.764 105.301 103.279 101.799 103.279 97.5114C103.279 96.142 102.184 95.042 100.822 95.042C99.4591 95.042 98.3646 96.142 98.3646 97.5114C98.3646 101.799 94.8799 105.301 90.6134 105.301C89.2508 105.301 88.1562 106.401 88.1562 107.771C88.1562 109.14 89.2508 110.24 90.6134 110.24C94.8799 110.24 98.3646 113.742 98.3646 118.03C98.3646 119.4 99.4591 120.5 100.822 120.5C102.184 120.5 103.279 119.4 103.279 118.03C103.279 113.742 106.764 110.24 111.03 110.24C112.393 110.24 113.487 109.14 113.487 107.771C113.487 106.401 112.393 105.301 111.03 105.301Z"
                        fill="white" />
                    <path
                        d="M116.414 897.749C116.414 901.61 113.309 904.73 109.467 904.73C105.624 904.73 102.52 901.61 102.52 897.749C102.52 893.887 105.624 890.767 109.467 890.767C113.309 890.767 116.414 893.887 116.414 897.749Z"
                        fill="white" />
                    <path
                        d="M88.1108 125.327C88.1108 129.188 85.0059 132.309 81.1638 132.309C77.3217 132.309 74.2168 129.188 74.2168 125.327C74.2168 121.465 77.3217 118.345 81.1638 118.345C85.0059 118.345 88.1108 121.465 88.1108 125.327Z"
                        fill="white" />
                    <path
                        d="M991.847 491.487C991.847 495.348 988.742 498.469 984.9 498.469C981.058 498.469 977.953 495.348 977.953 491.487C977.953 487.626 981.058 484.505 984.9 484.505C988.742 484.505 991.847 487.626 991.847 491.487Z"
                        fill="white" />
                </g>
                <g filter="url(#filter7_dd_3008_152531)">
                    <path
                        d="M984.954 869.986C984.954 869.986 984.899 869.943 984.868 869.918C984.639 869.788 984.368 869.792 984.113 869.921C979.082 872.459 974.583 876.052 970.847 879.241C968.565 881.184 966.31 883.237 964.125 885.218C963.103 886.143 962.081 887.069 961.059 887.994C959.033 886.88 956.915 885.784 954.609 884.653C953.277 883.999 951.934 883.36 950.592 882.735C949.846 882.389 948.963 881.973 948.096 881.506L947.366 881.122C945.9 880.348 944.38 879.544 942.82 878.888C941.897 878.491 941.03 878.202 940.172 877.997C939.271 877.783 938.51 877.73 937.849 877.858C937.619 877.907 937.459 877.997 937.335 878.154C937.212 878.311 937.159 878.524 937.181 878.706C937.989 884.001 940.204 888.902 942.053 892.586C943.681 895.855 945.553 899.073 947.354 902.172L947.723 902.819C945.508 905.986 942.617 910.172 939.9 914.495C936.247 920.295 933.595 925.165 931.539 929.844C931.309 930.362 931.093 930.879 930.876 931.396L930.82 931.516C930.722 931.77 930.755 932.051 930.908 932.261C930.943 932.314 930.992 932.365 931.047 932.408C931.212 932.538 931.419 932.599 931.607 932.57C936.993 931.571 942.178 929.55 946.985 927.523C948.842 926.734 950.682 925.919 952.521 925.103C955.065 923.977 957.683 922.821 960.304 921.757C961.819 926.043 963.084 930.501 964.296 934.815C965.773 940.039 967.285 945.443 969.308 950.587C969.337 950.712 969.401 950.826 969.49 950.922C969.522 950.947 969.545 950.965 969.577 950.99C969.703 951.089 969.867 951.155 970.031 951.157C970.173 951.155 970.298 951.126 970.419 951.069C970.6 950.969 970.689 950.823 970.772 950.621C973.404 944.742 975.469 938.531 977.466 932.521C978.934 928.104 980.461 923.53 982.192 919.117C983.145 919.041 984.105 918.97 985.065 918.9L985.742 918.848C987.995 918.689 990.324 918.514 992.61 918.28C995.402 917.986 997.701 917.622 999.837 917.142C1002.3 916.588 1004.43 915.846 1006.34 914.873C1006.52 914.773 1006.64 914.552 1006.68 914.391C1006.73 914.128 1006.64 913.84 1006.45 913.677C1004.73 912.207 1003.01 910.786 1001.33 909.461C999.136 907.733 996.941 906.105 994.791 904.614C991.017 901.983 987.574 899.919 984.276 898.3C984.437 896.187 984.619 894.065 984.801 891.943C984.951 890.216 985.109 888.496 985.245 886.771C985.621 881.913 985.914 876.189 985.26 870.584C985.229 870.317 985.135 870.128 984.97 869.998"
                        fill="#FFCD2C" />
                    <path
                        d="M982.495 874.339C982.241 874.304 981.985 874.484 981.959 874.744C981.687 877.304 981.306 879.841 980.831 882.368C980.714 883.002 980.605 883.641 980.474 884.276C980.343 884.911 980.204 885.54 980.066 886.169C979.795 887.419 979.495 888.672 979.341 889.951C979.262 890.601 979.706 891.218 980.364 891.304C980.675 891.346 980.987 891.273 981.236 891.087C981.511 890.884 981.635 890.613 981.717 890.283C982.002 889.031 982.09 887.739 982.174 886.469C982.211 885.823 982.248 885.178 982.277 884.526C982.308 883.889 982.359 883.242 982.388 882.591C982.516 880.019 982.636 877.441 982.9 874.875C982.922 874.701 982.852 874.531 982.719 874.426C982.656 874.376 982.581 874.343 982.501 874.331"
                        fill="#FFF1AA" />
                    <path
                        d="M979.148 893.94C978.765 894.426 978.846 895.164 979.333 895.548C979.82 895.932 980.55 895.846 980.94 895.352C981.33 894.857 981.237 894.135 980.749 893.751C980.262 893.367 979.532 893.453 979.148 893.94Z"
                        fill="#FFF1AA" />
                    <path
                        d="M997.4 909.623C996.346 908.957 995.266 908.323 994.175 907.704C993.03 907.056 991.877 906.402 990.732 905.755C988.49 904.496 986.201 903.328 983.958 902.07C983.721 901.934 983.419 901.962 983.269 902.201C983.122 902.403 983.164 902.754 983.395 902.898C984.478 903.51 985.552 904.152 986.618 904.802C987.739 905.481 988.848 906.19 989.964 906.891C991.024 907.549 992.073 908.223 993.117 908.918C994.214 909.643 995.292 910.391 996.383 911.124C996.793 911.395 997.365 911.3 997.643 910.882C997.897 910.511 997.824 909.957 997.463 909.672C997.439 909.654 997.424 909.641 997.4 909.623Z"
                        fill="#FFF1AA" />
                    <path
                        d="M999.284 911.832C999.023 912.212 999.15 912.681 999.487 912.947C999.825 913.213 1000.37 913.084 1000.6 912.744C1000.86 912.364 1000.74 911.895 1000.39 911.622C1000.05 911.35 999.506 911.485 999.276 911.826"
                        fill="#FFF1AA" />
                    <path
                        d="M978.455 919.699C978.236 919.654 978.074 919.794 978.005 919.994C977.922 920.246 977.844 920.49 977.76 920.742C977.771 920.713 977.781 920.683 977.784 920.647C976.967 923.058 976.026 925.434 975.074 927.79C974.826 928.396 974.57 928.996 974.314 929.596C974.065 930.202 973.801 930.796 973.553 931.402C973.058 932.629 972.61 933.892 972.242 935.168C972.212 935.335 972.217 935.491 972.271 935.649C972.35 935.889 972.531 936.095 972.758 936.211C972.986 936.327 973.244 936.339 973.484 936.261C973.718 936.19 973.952 936.006 974.045 935.774C974.554 934.546 974.988 933.284 975.356 932.009C975.741 930.695 976.066 929.361 976.429 928.043C977.153 925.394 977.899 922.749 978.742 920.142C978.79 920.001 978.709 919.861 978.599 919.775C978.552 919.737 978.498 919.708 978.441 919.701"
                        fill="#FFF1AA" />
                    <path
                        d="M971.093 939.919C970.879 940.158 970.879 940.578 971.146 940.788C971.413 940.999 971.783 940.998 972.016 940.735C972.23 940.496 972.23 940.076 971.963 939.866C971.695 939.655 971.325 939.656 971.093 939.919Z"
                        fill="#FFF1AA" />
                    <path
                        d="M957.356 918.659C956.508 919.136 955.636 919.581 954.759 919.998C954.759 919.998 954.766 919.99 954.772 919.982C953.855 920.418 952.919 920.813 951.99 921.2C950.994 921.624 949.999 922.062 949.001 922.472C946.998 923.299 944.948 924.025 943.016 925.022C942.884 925.109 942.777 925.229 942.702 925.373C942.605 925.577 942.583 925.814 942.658 926.026C942.795 926.452 943.324 926.767 943.758 926.587C944.94 926.106 946.09 925.536 947.233 924.974C948.432 924.391 949.612 923.781 950.811 923.198C953.207 922.032 955.531 920.733 957.846 919.427C958.066 919.294 958.115 918.989 957.984 918.784C957.957 918.737 957.923 918.698 957.884 918.667C957.735 918.55 957.521 918.547 957.347 918.638"
                        fill="#FFF1AA" />
                    <path
                        d="M939.188 925.893C938.83 926.298 938.83 927.01 939.278 927.363C939.726 927.716 940.36 927.72 940.756 927.281C941.114 926.876 941.114 926.164 940.666 925.811C940.218 925.458 939.584 925.454 939.196 925.899"
                        fill="#FFF1AA" />
                </g>
                <g filter="url(#filter8_dd_3008_152531)">
                    <path
                        d="M657.919 -37.4941C657.919 -37.4941 657.8 -37.4941 657.732 -37.4941C657.29 -37.4262 656.934 -37.1375 656.73 -36.696C652.688 -28.0182 650.463 -18.4912 648.833 -10.3059C647.831 -5.31316 646.982 -0.201565 646.15 4.74021C645.759 7.04977 645.369 9.35933 644.978 11.6689C641.106 12.3142 637.133 13.0784 632.87 13.9954C630.408 14.5219 627.945 15.0823 625.5 15.6597C624.141 15.9823 622.528 16.3559 620.881 16.6446L619.505 16.8994C616.737 17.4088 613.867 17.9353 611.099 18.6994C609.452 19.141 607.991 19.6674 606.633 20.2958C605.206 20.9581 604.136 21.6883 603.389 22.5544C603.135 22.8601 603.016 23.1488 603.016 23.4884C603.016 23.828 603.168 24.1677 603.389 24.3884C610.029 30.6039 618.13 34.8154 624.464 37.7873C630.068 40.4365 635.944 42.763 641.599 45.0046L642.771 45.4801C643.144 52.0352 643.688 60.6621 644.605 69.289C645.827 80.8707 647.407 90.1599 649.58 98.566C649.818 99.5 650.073 100.417 650.328 101.334L650.379 101.555C650.514 101.996 650.854 102.336 651.279 102.455C651.38 102.489 651.499 102.506 651.618 102.506C651.975 102.506 652.315 102.37 652.535 102.132C658.666 95.1357 663.455 86.9843 667.734 79.2235C669.381 76.2177 670.978 73.1948 672.574 70.172C674.782 65.9945 677.057 61.698 679.435 57.5204C685.956 61.6471 692.324 66.2662 698.472 70.7494C705.927 76.1667 713.62 81.7878 721.72 86.5257C721.89 86.6616 722.094 86.7465 722.314 86.7805C722.382 86.7805 722.433 86.7805 722.501 86.7805C722.773 86.7805 723.062 86.6956 723.282 86.5257C723.469 86.3729 723.605 86.2031 723.707 85.9993C723.843 85.6767 723.809 85.388 723.707 85.0313C721.041 74.4176 717.271 63.9566 713.62 53.8353C710.937 46.3972 708.168 38.6873 705.842 30.9775C707.031 29.8736 708.236 28.7698 709.442 27.666L710.291 26.8848C713.127 24.3035 716.048 21.6204 718.85 18.9032C722.264 15.5748 724.947 12.6708 727.29 9.78388C729.99 6.45539 732.045 3.22881 733.574 -0.0826874C733.709 -0.405346 733.642 -0.829899 733.523 -1.08463C733.319 -1.4922 732.894 -1.7809 732.47 -1.79788C728.632 -1.95072 724.845 -2.03563 721.211 -2.03563C716.473 -2.03563 711.837 -1.89977 707.404 -1.62806C699.61 -1.16954 692.851 -0.303455 686.754 1.00416C684.75 -1.98468 682.763 -5.00748 680.776 -8.03029C679.163 -10.4927 677.567 -12.9551 675.937 -15.4005C671.334 -22.2782 665.713 -30.2258 658.954 -37.0186C658.632 -37.3413 658.309 -37.4941 657.953 -37.4941"
                        fill="#FFCD2C" />
                    <path
                        d="M701.495 35.6816C701.156 35.8514 701.088 36.208 701.207 36.5476C701.359 36.9722 701.512 37.3798 701.665 37.8043C701.648 37.7534 701.631 37.7024 701.597 37.6515C703.041 41.7272 704.28 45.8878 705.486 50.0314C705.792 51.1013 706.08 52.1711 706.369 53.241C706.675 54.3109 706.947 55.3807 707.252 56.4506C707.881 58.6073 708.611 60.764 709.46 62.8528C709.596 63.1076 709.766 63.3114 710.003 63.4642C710.36 63.7019 710.818 63.7869 711.243 63.7019C711.668 63.617 712.024 63.3623 712.262 63.0057C712.5 62.666 712.619 62.1736 712.5 61.766C711.888 59.5923 711.141 57.4525 710.292 55.3638C709.426 53.207 708.458 51.0843 707.558 48.9445C705.741 44.6481 703.958 40.3346 702.344 35.9703C702.259 35.7325 702.005 35.6306 701.767 35.6306C701.665 35.6306 701.563 35.6476 701.478 35.6985"
                        fill="#FFF1AA" />
                    <path
                        d="M712.924 70.3927C712.89 70.9361 713.331 71.4965 713.909 71.4965C714.486 71.4965 714.979 71.1059 715.012 70.5115C715.046 69.9681 714.605 69.4077 714.028 69.4077C713.45 69.4077 712.958 69.7983 712.924 70.3927Z"
                        fill="#FFF1AA" />
                    <path
                        d="M672.251 56.4675C671.622 57.9959 670.926 59.5073 670.196 60.9847C670.196 60.9847 670.196 60.9677 670.196 60.9508C669.432 62.4961 668.6 64.0075 667.767 65.5019C666.884 67.1152 666.018 68.7455 665.118 70.3418C663.318 73.5514 661.348 76.6761 659.82 80.0386C659.735 80.2933 659.718 80.565 659.769 80.8367C659.854 81.2103 660.075 81.55 660.397 81.7538C661.026 82.1783 662.061 82.0425 662.452 81.3462C663.522 79.4612 664.456 77.4913 665.39 75.5383C666.375 73.5005 667.309 71.4457 668.294 69.4078C670.264 65.3321 671.996 61.1545 673.711 56.977C673.864 56.5694 673.609 56.1109 673.219 55.975C673.134 55.9411 673.049 55.9241 672.964 55.9241C672.641 55.9241 672.353 56.1448 672.217 56.4505"
                        fill="#FFF1AA" />
                    <path
                        d="M655.626 85.2182C655.575 86.1352 656.322 87.0862 657.29 87.0862C658.258 87.0862 659.107 86.4239 659.175 85.422C659.226 84.505 658.478 83.554 657.511 83.554C656.543 83.554 655.693 84.2163 655.642 85.2182"
                        fill="#FFF1AA" />
                </g>
                <g filter="url(#filter9_dd_3008_152531)">
                    <path
                        d="M61.0333 186.479C61.0333 186.479 60.9686 186.492 60.9316 186.499C60.6988 186.584 60.536 186.78 60.4729 187.042C59.2128 192.197 59.0334 197.616 59.0322 202.24C59.0273 205.062 59.1185 207.931 59.2005 210.707C59.2379 212.004 59.2753 213.301 59.3128 214.599C57.2759 215.372 55.1964 216.22 52.9764 217.183C51.6935 217.738 50.4144 218.311 49.1463 218.891C48.442 219.215 47.6046 219.593 46.7396 219.93L46.0187 220.218C44.5677 220.797 43.0631 221.396 41.6397 222.113C40.7912 222.533 40.0535 222.978 39.3823 223.467C38.6778 223.983 38.1747 224.496 37.8619 225.048C37.7563 225.242 37.7229 225.412 37.7597 225.596C37.7964 225.781 37.9163 225.949 38.0603 226.045C42.3458 228.697 47.2091 230.102 50.9773 231.025C54.3132 231.853 57.762 232.476 61.0816 233.077L61.7706 233.208C62.6833 236.728 63.9125 241.356 65.3451 245.942C67.2638 252.101 69.1284 256.975 71.2208 261.305C71.4512 261.786 71.6891 262.257 71.9269 262.727L71.9785 262.841C72.1002 263.066 72.3218 263.214 72.5657 263.232C72.6248 263.24 72.6913 263.236 72.756 263.223C72.95 263.184 73.1201 263.073 73.2145 262.92C75.793 258.45 77.5166 253.5 79.0052 248.817C79.5762 247.004 80.1176 245.188 80.6591 243.372C81.4082 240.861 82.1814 238.279 83.0229 235.75C87.0177 237.281 90.9826 239.096 94.8126 240.861C99.4553 242.991 104.249 245.205 109.17 246.896C109.277 246.951 109.397 246.975 109.521 246.969C109.558 246.962 109.585 246.956 109.622 246.949C109.77 246.919 109.918 246.842 110.02 246.725C110.105 246.622 110.16 246.515 110.194 246.393C110.233 246.203 110.183 246.05 110.089 245.867C107.49 240.392 104.306 235.12 101.224 230.02C98.9595 226.272 96.619 222.385 94.5187 218.45C95.0461 217.721 95.5827 216.99 96.1192 216.259L96.4967 215.742C97.7605 214.03 99.0594 212.254 100.29 210.472C101.787 208.292 102.933 206.421 103.895 204.597C105.004 202.495 105.773 200.518 106.246 198.552C106.285 198.362 106.203 198.139 106.11 198.013C105.955 197.814 105.693 197.703 105.46 197.741C103.355 198.076 101.286 198.443 99.3083 198.839C96.7303 199.356 94.2225 199.936 91.8402 200.567C87.6487 201.666 84.0649 202.873 80.8892 204.249C79.4754 202.844 78.0672 201.418 76.659 199.993C75.5147 198.831 74.3797 197.667 73.228 196.516C69.9796 193.282 66.0611 189.577 61.6484 186.624C61.4379 186.484 61.2458 186.436 61.0518 186.475"
                        fill="#FFCD2C" />
                    <path
                        d="M62.6265 190.893C62.4471 191.053 62.419 191.347 62.5889 191.524C64.2559 193.282 65.8396 195.104 67.3586 196.988C67.7407 197.458 68.132 197.926 68.5066 198.408C68.8813 198.889 69.2467 199.373 69.6121 199.856C70.3411 200.813 71.0553 201.793 71.8768 202.684C72.2939 203.138 73.0073 203.196 73.4716 202.777C73.6917 202.579 73.8306 202.312 73.8494 202.02C73.8719 201.699 73.7539 201.444 73.5675 201.184C72.846 200.215 71.9746 199.363 71.1161 198.528C70.6767 198.107 70.2372 197.687 69.7886 197.268C69.351 196.857 68.919 196.425 68.4704 196.007C66.7072 194.345 64.9348 192.685 63.2585 190.929C63.1478 190.807 62.9833 190.754 62.8262 190.785C62.7523 190.8 62.682 190.833 62.6247 190.883"
                        fill="#FFF1AA" />
                    <path
                        d="M74.6177 205.263C74.7316 205.835 75.3095 206.227 75.8824 206.113C76.4552 205.998 76.8401 205.422 76.7243 204.841C76.6086 204.259 76.0344 203.885 75.4615 204C74.8887 204.115 74.5038 204.691 74.6177 205.263Z"
                        fill="#FFF1AA" />
                    <path
                        d="M97.0046 201.769C95.8835 202.119 94.7696 202.504 93.6595 202.909C92.4958 203.333 91.3228 203.76 90.1591 204.184C87.8871 205.023 85.6519 205.949 83.3799 206.787C83.138 206.874 82.9734 207.108 83.0525 207.361C83.1076 207.589 83.3844 207.773 83.6282 207.695C84.7291 207.293 85.8448 206.916 86.9623 206.549C88.1333 206.161 89.3191 205.799 90.5031 205.428C91.6224 205.07 92.7454 204.73 93.8813 204.407C95.0708 204.063 96.2658 203.747 97.4571 203.413C97.9022 203.285 98.1834 202.817 98.0546 202.364C97.9443 201.955 97.5033 201.67 97.0785 201.755C97.0508 201.76 97.0323 201.764 97.0046 201.769Z"
                        fill="#FFF1AA" />
                    <path
                        d="M99.7375 201.77C99.8497 202.188 100.263 202.384 100.661 202.304C101.058 202.224 101.3 201.754 101.197 201.381C101.085 200.962 100.672 200.767 100.265 200.848C99.8584 200.93 99.6252 201.399 99.7282 201.771"
                        fill="#FFF1AA" />
                    <path
                        d="M92.6493 221.501C92.4827 221.63 92.4844 221.831 92.5859 222.003C92.7151 222.217 92.8424 222.422 92.9716 222.636C92.9569 222.61 92.9421 222.584 92.9181 222.56C94.1455 224.618 95.271 226.744 96.3763 228.864C96.6586 229.412 96.9317 229.962 97.2047 230.512C97.487 231.06 97.7508 231.612 98.0331 232.16C98.6088 233.264 99.24 234.356 99.9286 235.399C100.03 235.522 100.145 235.614 100.291 235.672C100.511 235.762 100.769 235.758 100.991 235.666C101.213 235.573 101.38 235.396 101.471 235.176C101.563 234.965 101.575 234.685 101.466 234.476C100.898 233.362 100.259 232.28 99.5706 231.238C98.8654 230.16 98.1085 229.112 97.3867 228.047C95.932 225.911 94.494 223.761 93.1429 221.565C93.0709 221.445 92.9212 221.417 92.7917 221.443C92.7362 221.455 92.6826 221.475 92.6419 221.512"
                        fill="#FFF1AA" />
                    <path
                        d="M102.633 239.126C102.673 239.425 102.974 239.681 103.288 239.618C103.602 239.555 103.828 239.289 103.782 238.962C103.742 238.664 103.441 238.407 103.127 238.47C102.813 238.533 102.587 238.799 102.633 239.126Z"
                        fill="#FFF1AA" />
                    <path
                        d="M79.0173 235.974C78.8408 236.873 78.6254 237.77 78.3878 238.653C78.3878 238.653 78.386 238.643 78.3842 238.634C78.1355 239.557 77.8462 240.469 77.555 241.372C77.249 242.345 76.954 243.326 76.6369 244.291C76.0045 246.232 75.2705 248.145 74.8026 250.139C74.7839 250.286 74.8041 250.436 74.8613 250.578C74.9479 250.772 75.1049 250.932 75.3026 251.008C75.6906 251.17 76.2398 250.983 76.377 250.562C76.7553 249.421 77.0504 248.249 77.3474 247.086C77.663 245.871 77.9489 244.652 78.2644 243.437C78.8955 241.008 79.3861 238.549 79.8675 236.091C79.9065 235.853 79.7182 235.632 79.4909 235.6C79.441 235.591 79.393 235.591 79.3467 235.601C79.1711 235.636 79.0378 235.787 78.997 235.968"
                        fill="#FFF1AA" />
                    <path
                        d="M73.0935 253.411C73.1651 253.914 73.6745 254.349 74.2012 254.244C74.7278 254.138 75.1181 253.686 75.0467 253.134C74.9752 252.631 74.4657 252.195 73.939 252.301C73.4124 252.407 73.0221 252.859 73.1028 253.409"
                        fill="#FFF1AA" />
                </g>
            </g>
            <path
                d="M140.46 130.089C139.46 131.409 138.24 132.649 136.8 133.809C135.36 134.949 133.72 135.889 131.88 136.629C130.04 137.349 128.03 137.709 125.85 137.709C123.15 137.709 120.75 137.209 118.65 136.209C116.57 135.189 114.82 133.769 113.4 131.949C111.98 130.109 110.9 127.959 110.16 125.499C109.42 123.019 109.05 120.329 109.05 117.429C109.05 113.649 109.69 110.269 110.97 107.289C112.27 104.289 114.15 101.929 116.61 100.209C119.09 98.4689 122.12 97.5989 125.7 97.5989C128.64 97.5989 131.36 98.2289 133.86 99.4889C136.36 100.749 138.3 102.589 139.68 105.009C139.2 105.529 138.57 106.119 137.79 106.779C137.01 107.419 136.21 108.039 135.39 108.639C134.59 109.219 133.9 109.689 133.32 110.049C133.22 109.809 133 109.419 132.66 108.879C132.34 108.319 131.88 107.749 131.28 107.169C130.7 106.569 129.95 106.059 129.03 105.639C128.13 105.219 127.05 105.009 125.79 105.009C124.71 105.009 123.7 105.269 122.76 105.789C121.84 106.309 121.03 107.079 120.33 108.099C119.65 109.119 119.11 110.369 118.71 111.849C118.33 113.309 118.14 114.989 118.14 116.889C118.14 118.589 118.31 120.189 118.65 121.689C118.99 123.189 119.48 124.509 120.12 125.649C120.78 126.789 121.58 127.679 122.52 128.319C123.46 128.939 124.52 129.249 125.7 129.249C126.98 129.249 128.16 128.999 129.24 128.499C130.32 127.999 131.3 127.369 132.18 126.609C133.06 125.829 133.84 125.029 134.52 124.209C135.16 124.629 135.87 125.189 136.65 125.889C137.43 126.569 138.16 127.289 138.84 128.049C139.54 128.789 140.08 129.469 140.46 130.089ZM159.951 138.129C154.671 138.129 150.721 136.709 148.101 133.869C145.481 131.009 144.171 126.879 144.171 121.479C144.171 117.959 144.841 115.009 146.181 112.629C147.541 110.249 149.421 108.459 151.821 107.259C154.241 106.039 157.031 105.429 160.191 105.429C163.471 105.429 166.181 106.179 168.321 107.679C170.481 109.179 172.091 111.259 173.151 113.919C174.231 116.579 174.771 119.659 174.771 123.159C174.771 126.179 174.191 128.809 173.031 131.049C171.871 133.289 170.191 135.029 167.991 136.269C165.791 137.509 163.111 138.129 159.951 138.129ZM159.651 130.599C160.931 130.599 162.041 130.379 162.981 129.939C163.941 129.479 164.741 128.849 165.381 128.049C166.021 127.229 166.491 126.289 166.791 125.229C167.111 124.169 167.271 123.039 167.271 121.839C167.271 119.839 166.991 118.069 166.431 116.529C165.871 114.989 165.031 113.789 163.911 112.929C162.811 112.049 161.431 111.609 159.771 111.609C158.051 111.609 156.621 112.039 155.481 112.899C154.361 113.759 153.531 114.909 152.991 116.349C152.451 117.789 152.181 119.359 152.181 121.059C152.181 123.839 152.811 126.129 154.071 127.929C155.351 129.709 157.211 130.599 159.651 130.599ZM188.537 137.769C187.997 137.789 187.347 137.789 186.587 137.769C185.827 137.769 185.047 137.769 184.247 137.769C183.587 137.729 182.827 137.689 181.967 137.649C181.127 137.629 180.527 137.599 180.167 137.559C180.367 135.879 180.527 134.009 180.647 131.949C180.787 129.869 180.897 127.559 180.977 125.019C181.077 122.479 181.147 119.669 181.187 116.589C181.227 113.489 181.247 110.079 181.247 106.359C181.927 106.259 182.727 106.189 183.647 106.149C184.567 106.089 185.487 106.059 186.407 106.059C187.067 106.059 187.697 106.079 188.297 106.119C188.917 106.139 189.457 106.189 189.917 106.269C189.937 106.449 189.947 106.819 189.947 107.379C189.947 107.939 189.947 108.559 189.947 109.239C189.947 109.899 189.937 110.489 189.917 111.009C190.517 110.249 191.427 109.449 192.647 108.609C193.887 107.749 195.307 107.029 196.907 106.449C198.527 105.869 200.167 105.579 201.827 105.579C204.887 105.579 207.217 106.189 208.817 107.409C210.437 108.629 211.537 110.449 212.117 112.869C212.717 115.289 213.017 118.309 213.017 121.929C213.017 123.249 212.977 124.769 212.897 126.489C212.837 128.189 212.727 129.989 212.567 131.889C212.427 133.769 212.247 135.629 212.027 137.469C211.667 137.509 211.097 137.539 210.317 137.559C209.557 137.599 208.747 137.619 207.887 137.619C207.007 137.619 206.157 137.599 205.337 137.559C204.537 137.539 203.937 137.509 203.537 137.469C203.757 136.149 203.987 134.629 204.227 132.909C204.487 131.169 204.697 129.359 204.857 127.479C205.037 125.599 205.127 123.799 205.127 122.079C205.127 120.279 204.977 118.709 204.677 117.369C204.397 116.009 203.857 114.959 203.057 114.219C202.257 113.459 201.077 113.079 199.517 113.079C198.117 113.079 196.797 113.319 195.557 113.799C194.317 114.279 193.207 114.859 192.227 115.539C191.247 116.219 190.427 116.859 189.767 117.459C189.727 120.699 189.627 123.639 189.467 126.279C189.327 128.919 189.167 131.209 188.987 133.149C188.827 135.089 188.677 136.629 188.537 137.769ZM236.51 129.939C232.55 129.939 229.41 129.349 227.09 128.169C224.77 126.989 223.11 125.479 222.11 123.639C221.13 121.779 220.64 119.829 220.64 117.789C220.64 115.169 221.3 112.969 222.62 111.189C223.94 109.389 225.74 108.029 228.02 107.109C230.32 106.169 232.91 105.699 235.79 105.699C240.49 105.699 244.03 106.769 246.41 108.909C248.81 111.029 250.01 113.879 250.01 117.459C250.01 120.159 249.43 122.439 248.27 124.299C247.13 126.139 245.55 127.539 243.53 128.499C241.51 129.459 239.17 129.939 236.51 129.939ZM235.07 152.349C232.01 152.349 229.23 152.059 226.73 151.479C224.23 150.899 222.24 149.879 220.76 148.419C219.3 146.979 218.57 144.949 218.57 142.329C218.57 140.689 219.09 139.179 220.13 137.799C221.17 136.419 222.66 135.289 224.6 134.409C226.54 133.529 228.84 133.019 231.5 132.879C232.76 132.819 234.09 132.779 235.49 132.759C236.91 132.719 238.5 132.699 240.26 132.699C243.44 132.699 246.05 133.389 248.09 134.769C250.15 136.129 251.18 138.319 251.18 141.339C251.18 143.979 250.48 146.109 249.08 147.729C247.7 149.349 245.8 150.519 243.38 151.239C240.96 151.979 238.19 152.349 235.07 152.349ZM235.4 147.159C236.88 147.159 238.21 146.999 239.39 146.679C240.59 146.379 241.54 145.889 242.24 145.209C242.94 144.549 243.29 143.649 243.29 142.509C243.29 141.529 243.01 140.769 242.45 140.229C241.89 139.689 241.18 139.309 240.32 139.089C239.48 138.869 238.63 138.759 237.77 138.759C237.17 138.759 236.47 138.759 235.67 138.759C234.89 138.759 234.14 138.759 233.42 138.759C232.7 138.759 232.11 138.759 231.65 138.759C230.87 138.759 230.12 138.869 229.4 139.089C228.7 139.309 228.12 139.699 227.66 140.259C227.2 140.839 226.97 141.649 226.97 142.689C226.97 143.769 227.34 144.639 228.08 145.299C228.84 145.959 229.85 146.429 231.11 146.709C232.39 147.009 233.82 147.159 235.4 147.159ZM228.08 135.759C225.52 135.259 223.71 134.509 222.65 133.509C221.59 132.489 221.06 131.389 221.06 130.209C221.06 129.309 221.26 128.519 221.66 127.839C222.08 127.139 222.59 126.569 223.19 126.129C223.81 125.689 224.42 125.399 225.02 125.259L230.18 127.959C229.34 128.239 228.72 128.599 228.32 129.039C227.94 129.479 227.75 129.929 227.75 130.389C227.75 131.009 228.08 131.579 228.74 132.099C229.4 132.619 230.32 132.879 231.5 132.879L228.08 135.759ZM235.73 123.579C237.25 123.579 238.5 123.339 239.48 122.859C240.48 122.359 241.22 121.649 241.7 120.729C242.2 119.789 242.45 118.679 242.45 117.399C242.45 116.319 242.17 115.369 241.61 114.549C241.05 113.729 240.3 113.089 239.36 112.629C238.42 112.149 237.36 111.909 236.18 111.909C234.26 111.909 232.59 112.339 231.17 113.199C229.77 114.039 229.07 115.489 229.07 117.549C229.07 119.469 229.69 120.959 230.93 122.019C232.19 123.059 233.79 123.579 235.73 123.579ZM247.25 112.929L242.6 109.029C242.88 108.249 243.34 107.419 243.98 106.539C244.64 105.659 245.38 104.839 246.2 104.079C247.04 103.319 247.84 102.729 248.6 102.309C248.84 102.689 249.2 103.219 249.68 103.899C250.16 104.559 250.66 105.229 251.18 105.909C251.7 106.589 252.13 107.139 252.47 107.559C252.05 107.779 251.58 108.089 251.06 108.489C250.54 108.869 250.02 109.309 249.5 109.809C248.98 110.289 248.52 110.799 248.12 111.339C247.72 111.879 247.43 112.409 247.25 112.929ZM263.914 110.589C264.414 109.649 265.174 108.769 266.194 107.949C267.214 107.129 268.394 106.459 269.734 105.939C271.094 105.419 272.514 105.159 273.994 105.159C274.914 105.159 275.834 105.249 276.754 105.429C277.694 105.609 278.394 105.849 278.854 106.149L277.204 114.519C276.764 114.339 276.184 114.139 275.464 113.919C274.744 113.699 273.904 113.589 272.944 113.589C271.924 113.589 270.924 113.759 269.944 114.099C268.984 114.439 268.094 114.919 267.274 115.539C266.454 116.159 265.754 116.889 265.174 117.729C265.394 118.989 265.624 120.559 265.864 122.439C266.124 124.299 266.364 126.219 266.584 128.199C266.804 130.159 266.984 131.949 267.124 133.569C267.284 135.189 267.364 136.389 267.364 137.169C266.124 137.329 264.684 137.429 263.044 137.469C261.424 137.509 259.874 137.519 258.394 137.499C258.394 135.759 258.344 133.829 258.244 131.709C258.164 129.589 258.044 127.399 257.884 125.139C257.724 122.859 257.524 120.609 257.284 118.389C257.044 116.149 256.764 114.039 256.444 112.059C256.144 110.079 255.814 108.339 255.454 106.839C256.274 106.599 257.184 106.369 258.184 106.149C259.204 105.929 260.134 105.749 260.974 105.609C261.814 105.469 262.354 105.389 262.594 105.369C262.834 105.969 263.104 106.819 263.404 107.919C263.704 108.999 263.874 109.889 263.914 110.589ZM295.039 137.919C292.559 137.919 290.299 137.589 288.259 136.929C286.219 136.269 284.589 135.189 283.369 133.689C282.169 132.169 281.569 130.169 281.569 127.689C281.569 125.209 282.259 123.209 283.639 121.689C285.039 120.149 286.889 119.029 289.189 118.329C291.489 117.609 294.009 117.249 296.749 117.249C297.869 117.249 298.959 117.329 300.019 117.489C301.079 117.649 302.009 117.849 302.809 118.089C303.609 118.309 304.169 118.519 304.489 118.719C304.449 118.139 304.339 117.539 304.159 116.919C303.979 116.299 303.709 115.769 303.349 115.329C302.709 114.349 301.799 113.529 300.619 112.869C299.459 112.209 297.949 111.879 296.089 111.879C294.189 111.879 292.539 112.299 291.139 113.139C289.739 113.979 288.689 114.949 287.989 116.049L281.479 111.849C282.379 110.569 283.579 109.439 285.079 108.459C286.579 107.479 288.289 106.719 290.209 106.179C292.129 105.619 294.169 105.339 296.329 105.339C299.809 105.339 302.649 105.939 304.849 107.139C307.049 108.339 308.669 109.979 309.709 112.059C310.209 113.079 310.619 114.199 310.939 115.419C311.259 116.639 311.469 118.079 311.569 119.739C311.629 121.279 311.679 122.669 311.719 123.909C311.759 125.149 311.809 126.279 311.869 127.299C311.909 128.759 312.079 129.709 312.379 130.149C312.699 130.569 313.129 130.779 313.669 130.779C314.249 130.779 314.749 130.589 315.169 130.209C315.589 129.829 315.849 129.309 315.949 128.649L318.979 133.689C318.799 134.869 318.189 135.819 317.149 136.539C316.109 137.239 314.839 137.589 313.339 137.589C312.199 137.589 311.149 137.389 310.189 136.989C309.229 136.569 308.439 136.029 307.819 135.369C307.219 134.689 306.869 133.949 306.769 133.149C306.409 133.889 305.699 134.629 304.639 135.369C303.579 136.109 302.239 136.719 300.619 137.199C298.999 137.679 297.139 137.919 295.039 137.919ZM296.719 131.649C297.779 131.649 298.849 131.489 299.929 131.169C301.009 130.849 301.989 130.429 302.869 129.909C303.769 129.389 304.479 128.849 304.999 128.289C304.959 127.449 304.929 126.649 304.909 125.889C304.909 125.129 304.919 124.459 304.939 123.879C304.459 123.699 303.529 123.489 302.149 123.249C300.789 122.989 299.319 122.859 297.739 122.859C296.339 122.859 295.039 123.029 293.839 123.369C292.659 123.689 291.699 124.179 290.959 124.839C290.239 125.479 289.879 126.289 289.879 127.269C289.879 128.389 290.159 129.269 290.719 129.909C291.299 130.549 292.099 130.999 293.119 131.259C294.159 131.519 295.359 131.649 296.719 131.649ZM341.361 132.909C341.001 133.709 340.441 134.569 339.681 135.489C338.941 136.389 337.961 137.149 336.741 137.769C335.521 138.409 334.001 138.729 332.181 138.729C329.821 138.729 327.911 138.229 326.451 137.229C324.991 136.229 323.921 134.899 323.241 133.239C322.581 131.559 322.251 129.729 322.251 127.749C322.251 126.689 322.261 125.529 322.281 124.269C322.321 122.989 322.361 121.699 322.401 120.399C322.441 119.079 322.481 117.829 322.521 116.649C322.581 115.469 322.631 114.429 322.671 113.529C322.731 112.609 322.771 111.909 322.791 111.429C321.091 111.609 319.551 111.809 318.171 112.029C316.791 112.229 315.871 112.379 315.411 112.479C315.231 111.539 315.091 110.559 314.991 109.539C314.911 108.519 314.851 107.629 314.811 106.869C314.771 106.109 314.751 105.629 314.751 105.429C315.891 105.269 317.151 105.119 318.531 104.979C319.911 104.819 321.331 104.699 322.791 104.619C322.771 104.039 322.751 103.219 322.731 102.159C322.731 101.099 322.721 100.129 322.701 99.2489C322.681 98.4689 322.641 97.6989 322.581 96.9389C322.521 96.1589 322.471 95.5189 322.431 95.0189L330.231 94.3889C330.231 94.6489 330.241 95.2689 330.261 96.2489C330.301 97.2089 330.321 98.3689 330.321 99.7289C330.321 100.329 330.321 101.049 330.321 101.889C330.341 102.709 330.351 103.489 330.351 104.229C331.011 104.189 331.781 104.149 332.661 104.109C333.541 104.069 334.241 104.039 334.761 104.019C335.641 103.979 336.451 103.959 337.191 103.959C337.931 103.959 338.551 103.969 339.051 103.989C339.551 103.989 339.881 103.989 340.041 103.989C340.161 104.809 340.231 105.869 340.251 107.169C340.291 108.449 340.311 109.559 340.311 110.499C340.111 110.479 339.451 110.479 338.331 110.499C337.211 110.519 336.111 110.549 335.031 110.589C334.251 110.609 333.401 110.649 332.481 110.709C331.561 110.769 330.811 110.829 330.231 110.889C330.211 111.329 330.181 111.969 330.141 112.809C330.101 113.629 330.061 114.559 330.021 115.599C330.001 116.619 329.971 117.669 329.931 118.749C329.891 119.829 329.861 120.859 329.841 121.839C329.821 122.819 329.811 123.659 329.811 124.359C329.811 125.659 329.881 126.849 330.021 127.929C330.161 129.009 330.471 129.879 330.951 130.539C331.451 131.179 332.221 131.499 333.261 131.499C333.961 131.499 334.541 131.279 335.001 130.839C335.461 130.399 335.831 129.889 336.111 129.309C336.411 128.729 336.661 128.219 336.861 127.779C337.081 128.079 337.411 128.489 337.851 129.009C338.291 129.509 338.751 130.029 339.231 130.569C339.731 131.109 340.171 131.599 340.551 132.039C340.951 132.459 341.221 132.749 341.361 132.909ZM356.079 139.779C353.899 139.779 351.849 139.499 349.929 138.939C348.029 138.399 346.369 137.729 344.949 136.929C343.549 136.109 342.499 135.319 341.799 134.559C341.939 134.219 342.169 133.729 342.489 133.089C342.809 132.429 343.179 131.729 343.599 130.989C344.039 130.229 344.469 129.529 344.889 128.889C345.329 128.229 345.719 127.739 346.059 127.419C346.979 128.299 348.009 129.149 349.149 129.969C350.309 130.789 351.509 131.459 352.749 131.979C354.009 132.499 355.209 132.759 356.349 132.759C357.329 132.759 358.209 132.629 358.989 132.369C359.769 132.089 360.389 131.689 360.849 131.169C361.309 130.629 361.539 129.979 361.539 129.219C361.539 128.339 361.179 127.529 360.459 126.789C359.739 126.049 358.809 125.369 357.669 124.749C356.529 124.129 355.309 123.569 354.009 123.069C352.309 122.389 350.729 121.619 349.269 120.759C347.829 119.899 346.669 118.829 345.789 117.549C344.929 116.269 344.499 114.659 344.499 112.719C344.499 110.759 345.069 109.109 346.209 107.769C347.369 106.429 348.879 105.419 350.739 104.739C352.619 104.059 354.629 103.719 356.769 103.719C358.909 103.719 361.009 104.009 363.069 104.589C365.129 105.169 366.789 105.939 368.049 106.899C367.929 107.259 367.699 107.789 367.359 108.489C367.019 109.189 366.609 109.929 366.129 110.709C365.649 111.489 365.139 112.209 364.599 112.869C363.739 112.189 362.659 111.539 361.359 110.919C360.079 110.299 358.709 109.989 357.249 109.989C356.449 109.989 355.659 110.079 354.879 110.259C354.099 110.439 353.459 110.749 352.959 111.189C352.459 111.609 352.209 112.189 352.209 112.929C352.209 113.609 352.469 114.219 352.989 114.759C353.509 115.299 354.239 115.809 355.179 116.289C356.139 116.749 357.249 117.229 358.509 117.729C359.849 118.229 361.159 118.809 362.439 119.469C363.739 120.129 364.909 120.909 365.949 121.809C367.009 122.709 367.849 123.749 368.469 124.929C369.089 126.089 369.399 127.429 369.399 128.949C369.399 131.349 368.789 133.359 367.569 134.979C366.369 136.579 364.759 137.779 362.739 138.579C360.739 139.379 358.519 139.779 356.079 139.779ZM383.686 124.749C383.186 124.749 382.476 124.739 381.556 124.719C380.636 124.679 379.716 124.629 378.796 124.569C377.876 124.509 377.136 124.449 376.576 124.389C376.476 122.489 376.386 120.459 376.306 118.299C376.226 116.139 376.156 113.929 376.096 111.669C376.056 109.409 376.026 107.179 376.006 104.979C375.986 102.759 375.976 100.649 375.976 98.6489C375.996 96.6489 376.036 94.8289 376.096 93.1889L385.696 93.6089C385.596 94.5089 385.466 95.9089 385.306 97.8089C385.146 99.6889 384.976 101.849 384.796 104.289C384.636 106.709 384.476 109.199 384.316 111.759C384.156 114.319 384.016 116.739 383.896 119.019C383.796 121.299 383.726 123.209 383.686 124.749ZM380.476 138.159C378.736 138.159 377.306 137.639 376.186 136.599C375.066 135.559 374.506 134.239 374.506 132.639C374.506 131.039 375.086 129.789 376.246 128.889C377.426 127.969 378.806 127.509 380.386 127.509C381.986 127.509 383.346 127.989 384.466 128.949C385.606 129.909 386.176 131.129 386.176 132.609C386.176 134.309 385.626 135.659 384.526 136.659C383.446 137.659 382.096 138.159 380.476 138.159Z"
                fill="#FF9800" />
        </g>
    </g>
    <defs>
        <filter id="filter0_dd_3008_152531" x="0" y="0" width="1040" height="1440"
            filterUnits="userSpaceOnUse" color-interpolation-filters="sRGB">
            <feFlood flood-opacity="0" result="BackgroundImageFix" />
            <feColorMatrix in="SourceAlpha" type="matrix"
                values="0 0 0 0 0 0 0 0 0 0 0 0 0 0 0 0 0 0 127 0" result="hardAlpha" />
            <feOffset />
            <feGaussianBlur stdDeviation="3" />
            <feComposite in2="hardAlpha" operator="out" />
            <feColorMatrix type="matrix" values="0 0 0 0 1 0 0 0 0 0.95 0 0 0 0 0 0 0 0 1 0" />
            <feBlend mode="normal" in2="BackgroundImageFix" result="effect1_dropShadow_3008_152531" />
            <feColorMatrix in="SourceAlpha" type="matrix"
                values="0 0 0 0 0 0 0 0 0 0 0 0 0 0 0 0 0 0 127 0" result="hardAlpha" />
            <feOffset />
            <feGaussianBlur stdDeviation="10" />
            <feComposite in2="hardAlpha" operator="out" />
            <feColorMatrix type="matrix" values="0 0 0 0 1 0 0 0 0 1 0 0 0 0 1 0 0 0 0.6 0" />
            <feBlend mode="normal" in2="effect1_dropShadow_3008_152531"
                result="effect2_dropShadow_3008_152531" />
            <feBlend mode="normal" in="SourceGraphic" in2="effect2_dropShadow_3008_152531"
                result="shape" />
        </filter>
        <filter id="filter1_i_3008_152531" x="820.523" y="143.545" width="61.2461" height="70.0627"
            filterUnits="userSpaceOnUse" color-interpolation-filters="sRGB">
            <feFlood flood-opacity="0" result="BackgroundImageFix" />
            <feBlend mode="normal" in="SourceGraphic" in2="BackgroundImageFix" result="shape" />
            <feColorMatrix in="SourceAlpha" type="matrix"
                values="0 0 0 0 0 0 0 0 0 0 0 0 0 0 0 0 0 0 127 0" result="hardAlpha" />
            <feOffset dy="8" />
            <feComposite in2="hardAlpha" operator="arithmetic" k2="-1" k3="1" />
            <feColorMatrix type="matrix" values="0 0 0 0 0 0 0 0 0 0 0 0 0 0 0 0 0 0 0.2 0" />
            <feBlend mode="normal" in2="shape" result="effect1_innerShadow_3008_152531" />
        </filter>
        <filter id="filter2_i_3008_152531" x="820.531" y="143.545" width="61.2363" height="53.1912"
            filterUnits="userSpaceOnUse" color-interpolation-filters="sRGB">
            <feFlood flood-opacity="0" result="BackgroundImageFix" />
            <feBlend mode="normal" in="SourceGraphic" in2="BackgroundImageFix" result="shape" />
            <feColorMatrix in="SourceAlpha" type="matrix"
                values="0 0 0 0 0 0 0 0 0 0 0 0 0 0 0 0 0 0 127 0" result="hardAlpha" />
            <feOffset dy="8" />
            <feComposite in2="hardAlpha" operator="arithmetic" k2="-1" k3="1" />
            <feColorMatrix type="matrix" values="0 0 0 0 0 0 0 0 0 0 0 0 0 0 0 0 0 0 0.2 0" />
            <feBlend mode="normal" in2="shape" result="effect1_innerShadow_3008_152531" />
        </filter>
        <filter id="filter3_i_3008_152531" x="825.068" y="170.675" width="18.8184" height="22.8738"
            filterUnits="userSpaceOnUse" color-interpolation-filters="sRGB">
            <feFlood flood-opacity="0" result="BackgroundImageFix" />
            <feBlend mode="normal" in="SourceGraphic" in2="BackgroundImageFix" result="shape" />
            <feColorMatrix in="SourceAlpha" type="matrix"
                values="0 0 0 0 0 0 0 0 0 0 0 0 0 0 0 0 0 0 127 0" result="hardAlpha" />
            <feOffset dx="4" dy="4" />
            <feComposite in2="hardAlpha" operator="arithmetic" k2="-1" k3="1" />
            <feColorMatrix type="matrix" values="0 0 0 0 0 0 0 0 0 0 0 0 0 0 0 0 0 0 0.25 0" />
            <feBlend mode="normal" in2="shape" result="effect1_innerShadow_3008_152531" />
        </filter>
        <filter id="filter4_i_3008_152531" x="841.715" y="163.014" width="19.6973" height="23.0652"
            filterUnits="userSpaceOnUse" color-interpolation-filters="sRGB">
            <feFlood flood-opacity="0" result="BackgroundImageFix" />
            <feBlend mode="normal" in="SourceGraphic" in2="BackgroundImageFix" result="shape" />
            <feColorMatrix in="SourceAlpha" type="matrix"
                values="0 0 0 0 0 0 0 0 0 0 0 0 0 0 0 0 0 0 127 0" result="hardAlpha" />
            <feOffset dx="4" dy="4" />
            <feComposite in2="hardAlpha" operator="arithmetic" k2="-1" k3="1" />
            <feColorMatrix type="matrix" values="0 0 0 0 0 0 0 0 0 0 0 0 0 0 0 0 0 0 0.25 0" />
            <feBlend mode="normal" in2="shape" result="effect1_innerShadow_3008_152531" />
        </filter>
        <filter id="filter5_i_3008_152531" x="833.15" y="183.103" width="31.4766" height="27.7627"
            filterUnits="userSpaceOnUse" color-interpolation-filters="sRGB">
            <feFlood flood-opacity="0" result="BackgroundImageFix" />
            <feBlend mode="normal" in="SourceGraphic" in2="BackgroundImageFix" result="shape" />
            <feColorMatrix in="SourceAlpha" type="matrix"
                values="0 0 0 0 0 0 0 0 0 0 0 0 0 0 0 0 0 0 127 0" result="hardAlpha" />
            <feOffset dy="6" />
            <feComposite in2="hardAlpha" operator="arithmetic" k2="-1" k3="1" />
            <feColorMatrix type="matrix" values="0 0 0 0 0 0 0 0 0 0 0 0 0 0 0 0 0 0 0.2 0" />
            <feBlend mode="normal" in2="shape" result="effect1_innerShadow_3008_152531" />
        </filter>
        <filter id="filter6_i_3008_152531" x="843.213" y="194.894" width="13.1973" height="14.0774"
            filterUnits="userSpaceOnUse" color-interpolation-filters="sRGB">
            <feFlood flood-opacity="0" result="BackgroundImageFix" />
            <feBlend mode="normal" in="SourceGraphic" in2="BackgroundImageFix" result="shape" />
            <feColorMatrix in="SourceAlpha" type="matrix"
                values="0 0 0 0 0 0 0 0 0 0 0 0 0 0 0 0 0 0 127 0" result="hardAlpha" />
            <feOffset dx="8" dy="-2" />
            <feComposite in2="hardAlpha" operator="arithmetic" k2="-1" k3="1" />
            <feColorMatrix type="matrix" values="0 0 0 0 0 0 0 0 0 0 0 0 0 0 0 0 0 0 0.2 0" />
            <feBlend mode="normal" in2="shape" result="effect1_innerShadow_3008_152531" />
        </filter>
        <filter id="filter7_dd_3008_152531" x="910.764" y="849.822" width="115.932" height="121.335"
            filterUnits="userSpaceOnUse" color-interpolation-filters="sRGB">
            <feFlood flood-opacity="0" result="BackgroundImageFix" />
            <feColorMatrix in="SourceAlpha" type="matrix"
                values="0 0 0 0 0 0 0 0 0 0 0 0 0 0 0 0 0 0 127 0" result="hardAlpha" />
            <feOffset />
            <feGaussianBlur stdDeviation="10" />
            <feComposite in2="hardAlpha" operator="out" />
            <feColorMatrix type="matrix" values="0 0 0 0 1 0 0 0 0 0.972549 0 0 0 0 0.4 0 0 0 1 0" />
            <feBlend mode="normal" in2="BackgroundImageFix" result="effect1_dropShadow_3008_152531" />
            <feColorMatrix in="SourceAlpha" type="matrix"
                values="0 0 0 0 0 0 0 0 0 0 0 0 0 0 0 0 0 0 127 0" result="hardAlpha" />
            <feOffset />
            <feGaussianBlur stdDeviation="1" />
            <feComposite in2="hardAlpha" operator="out" />
            <feColorMatrix type="matrix" values="0 0 0 0 1 0 0 0 0 1 0 0 0 0 1 0 0 0 1 0" />
            <feBlend mode="normal" in2="effect1_dropShadow_3008_152531"
                result="effect2_dropShadow_3008_152531" />
            <feBlend mode="normal" in="SourceGraphic" in2="effect2_dropShadow_3008_152531"
                result="shape" />
        </filter>
        <filter id="filter8_dd_3008_152531" x="583.016" y="-57.4941" width="170.633" height="180"
            filterUnits="userSpaceOnUse" color-interpolation-filters="sRGB">
            <feFlood flood-opacity="0" result="BackgroundImageFix" />
            <feColorMatrix in="SourceAlpha" type="matrix"
                values="0 0 0 0 0 0 0 0 0 0 0 0 0 0 0 0 0 0 127 0" result="hardAlpha" />
            <feOffset />
            <feGaussianBlur stdDeviation="10" />
            <feComposite in2="hardAlpha" operator="out" />
            <feColorMatrix type="matrix" values="0 0 0 0 1 0 0 0 0 0.972549 0 0 0 0 0.4 0 0 0 1 0" />
            <feBlend mode="normal" in2="BackgroundImageFix" result="effect1_dropShadow_3008_152531" />
            <feColorMatrix in="SourceAlpha" type="matrix"
                values="0 0 0 0 0 0 0 0 0 0 0 0 0 0 0 0 0 0 127 0" result="hardAlpha" />
            <feOffset />
            <feGaussianBlur stdDeviation="1" />
            <feComposite in2="hardAlpha" operator="out" />
            <feColorMatrix type="matrix" values="0 0 0 0 1 0 0 0 0 1 0 0 0 0 1 0 0 0 1 0" />
            <feBlend mode="normal" in2="effect1_dropShadow_3008_152531"
                result="effect2_dropShadow_3008_152531" />
            <feBlend mode="normal" in="SourceGraphic" in2="effect2_dropShadow_3008_152531"
                result="shape" />
        </filter>
        <filter id="filter9_dd_3008_152531" x="17.7461" y="166.462" width="112.461" height="116.774"
            filterUnits="userSpaceOnUse" color-interpolation-filters="sRGB">
            <feFlood flood-opacity="0" result="BackgroundImageFix" />
            <feColorMatrix in="SourceAlpha" type="matrix"
                values="0 0 0 0 0 0 0 0 0 0 0 0 0 0 0 0 0 0 127 0" result="hardAlpha" />
            <feOffset />
            <feGaussianBlur stdDeviation="10" />
            <feComposite in2="hardAlpha" operator="out" />
            <feColorMatrix type="matrix" values="0 0 0 0 1 0 0 0 0 0.972549 0 0 0 0 0.4 0 0 0 1 0" />
            <feBlend mode="normal" in2="BackgroundImageFix" result="effect1_dropShadow_3008_152531" />
            <feColorMatrix in="SourceAlpha" type="matrix"
                values="0 0 0 0 0 0 0 0 0 0 0 0 0 0 0 0 0 0 127 0" result="hardAlpha" />
            <feOffset />
            <feGaussianBlur stdDeviation="1" />
            <feComposite in2="hardAlpha" operator="out" />
            <feColorMatrix type="matrix" values="0 0 0 0 1 0 0 0 0 1 0 0 0 0 1 0 0 0 1 0" />
            <feBlend mode="normal" in2="effect1_dropShadow_3008_152531"
                result="effect2_dropShadow_3008_152531" />
            <feBlend mode="normal" in="SourceGraphic" in2="effect2_dropShadow_3008_152531"
                result="shape" />
        </filter>
        <radialGradient id="paint0_radial_3008_152531" cx="0" cy="0" r="1"
            gradientUnits="userSpaceOnUse"
            gradientTransform="translate(882.329 229.351) rotate(143.275) scale(98.7396 98.9285)">
            <stop stop-color="white" />
            <stop offset="0.31" stop-color="#F2F2F2" />
            <stop offset="1" />
        </radialGradient>
        <linearGradient id="paint1_linear_3008_152531" x1="911.444" y1="270.286" x2="822.553"
            y2="151.138" gradientUnits="userSpaceOnUse">
            <stop stop-color="#85FFCF" />
            <stop offset="0.423" stop-color="#D2FD51" />
            <stop offset="1" stop-color="#F9C448" />
        </linearGradient>
        <linearGradient id="paint2_linear_3008_152531" x1="918.345" y1="91.9466" x2="740.679"
            y2="224.566" gradientUnits="userSpaceOnUse">
            <stop stop-color="white" />
            <stop offset="0.763" stop-color="#D8EDDD" />
            <stop offset="1" stop-color="#00B26B" />
        </linearGradient>
        <linearGradient id="paint3_linear_3008_152531" x1="869.306" y1="206.679" x2="821.546"
            y2="142.562" gradientUnits="userSpaceOnUse">
            <stop stop-color="#FF9800" />
            <stop offset="0.538" stop-color="#FFEE2F" />
        </linearGradient>
        <linearGradient id="paint4_linear_3008_152531" x1="827.55" y1="142.712" x2="857.025"
            y2="212.704" gradientUnits="userSpaceOnUse">
            <stop stop-color="#206D33" />
            <stop offset="0.47991" stop-color="#EFEFEF" />
        </linearGradient>
        <linearGradient id="paint5_linear_3008_152531" x1="852.505" y1="135.348" x2="816.267"
            y2="161.156" gradientUnits="userSpaceOnUse">
            <stop offset="1" stop-color="#298B41" />
        </linearGradient>
        <radialGradient id="paint6_radial_3008_152531" cx="0" cy="0" r="1"
            gradientUnits="userSpaceOnUse"
            gradientTransform="translate(833.969 149.173) rotate(144.638) scale(22.243 18.5773)">
            <stop offset="0.409263" stop-color="#51A63B" />
            <stop offset="1" stop-color="#298B41" />
        </radialGradient>
        <linearGradient id="paint7_linear_3008_152531" x1="869.306" y1="206.679" x2="821.546"
            y2="142.562" gradientUnits="userSpaceOnUse">
            <stop stop-color="#FFED66" stop-opacity="0.8" />
            <stop offset="0.428" stop-color="white" stop-opacity="0" />
        </linearGradient>
        <radialGradient id="paint8_radial_3008_152531" cx="0" cy="0" r="1"
            gradientUnits="userSpaceOnUse"
            gradientTransform="translate(867.943 207.727) rotate(-125.536) scale(80.0148 54.1615)">
            <stop offset="0.393" stop-color="white" />
            <stop offset="0.883" stop-color="#FF9800" />
            <stop offset="0.99" stop-color="#F26722" />
        </radialGradient>
        <clipPath id="clip0_3008_152531">
            <rect x="20" y="20" width="1000" height="1400" rx="40" fill="white" />
        </clipPath>
    </defs>
</svg>