<svg width="512" height="512" viewBox="0 0 512 512" fill="none" xmlns="http://www.w3.org/2000/svg">
    <g clip-path="url(#clip0_1307_37834)">
        <path
            d="M394.7 489.1C420.768 489.1 441.9 467.968 441.9 441.9C441.9 415.832 420.768 394.7 394.7 394.7C368.632 394.7 347.5 415.832 347.5 441.9C347.5 467.968 368.632 489.1 394.7 489.1Z"
            fill="url(#paint0_linear_1307_37834)" />
        <path
            d="M492.9 500.1C503.448 500.1 512 491.549 512 481C512 470.451 503.448 461.9 492.9 461.9C482.351 461.9 473.8 470.451 473.8 481C473.8 491.549 482.351 500.1 492.9 500.1Z"
            fill="url(#paint1_linear_1307_37834)" />
        <path
            d="M197.5 228.6C197.1 226.3 196.5 224.1 195.8 221.9C195.2 220 194.4 218.2 193.3 216.4C192.5 215 191.5 213.8 190.3 212.8C189.3 212 188 211.7 186.7 211.9C185.4 212.2 184.2 213 183.5 214.2C182.6 215.7 182 217.4 181.8 219.1C181.4 221.3 181.3 223.5 181.5 225.6C181.8 230.5 182.7 235.3 184.3 239.9C185 242 185.9 244 186.9 245.9C187.7 247.4 188.8 248.8 190.1 249.9C191.1 250.8 192.4 251.2 193.7 251C195.1 250.7 196.2 249.8 196.8 248.5C197.6 246.8 198.1 245.1 198.4 243.2C198.7 240.9 198.8 238.5 198.6 236.2C198.4 233.8 198 231.2 197.5 228.6Z"
            fill="url(#paint2_linear_1307_37834)" />
        <path
            d="M260.199 195.8C259.099 194.1 257.899 193.3 256.499 193.6C255.599 193.7 254.699 194.2 253.999 194.9C253.399 195.6 252.999 196.4 252.799 197.3C252.599 198.3 252.599 199.4 252.699 200.4C252.799 201.6 252.999 202.8 253.199 203.9C253.499 205.4 253.799 206.8 254.199 208.1C254.599 209.4 254.799 210.7 254.999 211.7C255.299 212.5 255.599 213.2 256.099 213.9C256.499 214.4 256.999 214.9 257.599 215.2C258.199 215.6 258.899 215.7 259.599 215.5C260.499 215.3 261.299 214.8 261.699 213.9C262.299 212.9 262.599 211.8 262.799 210.7C262.999 209.3 263.099 207.8 262.999 206.4C262.999 204.9 262.799 203.4 262.499 201.9C262.199 199.9 261.399 197.7 260.199 195.8Z"
            fill="url(#paint3_linear_1307_37834)" />
        <path
            d="M126.2 242.4C125.8 240.1 125.2 237.9 124.5 235.7C123.9 233.8 123.1 231.9 122 230.2C121.2 228.8 120.2 227.6 119 226.6C118 225.8 116.7 225.4 115.4 225.7C114.1 226 112.9 226.8 112.2 228C111.3 229.5 110.7 231.2 110.5 232.9C110.2 235.1 110.1 237.2 110.2 239.4C110.5 244.3 111.4 249.1 113 253.7C113.7 255.8 114.6 257.8 115.6 259.7C116.4 261.2 117.5 262.6 118.8 263.7C119.8 264.6 121.1 265 122.4 264.8C123.8 264.5 124.9 263.6 125.5 262.3C126.3 260.6 126.8 258.9 127.1 257C127.4 254.7 127.5 252.3 127.3 250C127.1 247.5 126.7 245 126.2 242.4Z"
            fill="url(#paint4_linear_1307_37834)" />
        <path
            d="M480.3 173.1C474.1 140.9 440.7 119.8 403.7 123.3C421.7 94.2998 412.8 58.6998 381.9 41.0998C351 23.4998 308.9 29.8998 284 54.9998C273.8 24.5998 238.2 6.29982 200.8 13.5998C163.4 20.8998 137.1 50.9998 139 82.9998C106.6 68.9998 65.0999 78.6998 42.9999 106.6C20.8999 134.5 25.9999 170.8 53.4999 191C17.8999 201.6 -5.20006 233.6 0.999938 265.8C7.19994 298 40.5999 319.1 77.5999 315.6C59.5999 344.6 68.4999 380.2 99.3999 397.8C130.3 415.4 172.4 409 197.3 383.9C207.5 414.3 243.1 432.6 280.5 425.3C317.9 418 344.1 387.8 342.3 355.8C374.7 369.8 416.2 360.1 438.3 332.2C460.4 304.3 455.3 268 427.8 247.8C463.4 237.2 486.5 205.2 480.3 173.1ZM153.2 250.9C152.8 256.5 151.4 262 149.2 267.1C147.1 272 144 276.4 140.1 280C136.1 283.7 131.1 286.1 125.7 287C120.6 288.1 115.4 287.7 110.5 286C105.8 284.3 101.6 281.6 98.0999 278.1C94.3999 274.4 91.3999 270.1 89.0999 265.4C86.6999 260.5 84.8999 255.2 83.8999 249.8C82.7999 244.5 82.4999 239 82.9999 233.6C83.3999 228.4 84.7999 223.3 86.9999 218.5C89.1999 213.9 92.2999 209.8 96.1999 206.6C100.6 203.1 105.8 200.7 111.4 199.8C121.2 197.5 131.6 200.3 138.9 207.3C142.4 210.6 145.3 214.6 147.5 219C149.8 223.6 151.4 228.5 152.4 233.6C153.4 239.3 153.7 245.1 153.2 250.9ZM224.5 237.1C224.1 242.7 222.7 248.2 220.5 253.3C218.4 258.2 215.3 262.6 211.4 266.2C207.4 269.9 202.4 272.3 197 273.2C191.9 274.3 186.7 273.9 181.8 272.2C177.1 270.5 172.9 267.8 169.4 264.3C165.7 260.6 162.6 256.3 160.3 251.6C157.9 246.7 156.1 241.4 155.1 236C154.1 230.6 153.8 225.2 154.2 219.7C154.6 214.5 155.9 209.4 158.1 204.6C160.3 200 163.4 195.9 167.3 192.7C171.7 189.2 176.9 186.8 182.5 185.9C192.3 183.6 202.7 186.4 210 193.4C213.6 196.7 216.5 200.7 218.6 205.1C220.9 209.7 222.5 214.6 223.5 219.7C224.7 225.4 225 231.3 224.5 237.1ZM292.2 208.1C291.9 212.4 290.9 216.7 289.2 220.7C287.6 224.5 285.3 227.9 282.2 230.7C279.1 233.5 275.2 235.4 271.1 236.1C269.1 236.5 267.1 236.6 265 236.5C263.3 236.4 261.6 236 259.9 235.5C260.7 238.8 261.4 241.8 261.9 244.5C262.4 247.2 263 249.5 263.4 251.4C263.9 253.7 264.4 255.7 264.8 257.5L238.2 264.7C237.8 261.9 237.3 259.1 236.7 256.4C236.2 253.6 235.6 250.9 235.1 248.1C233.4 239.3 231.6 230.9 229.8 222.8C228 214.7 226.3 207.6 224.7 201.3C222.9 194 221.1 187.1 219.3 180.7L248.5 173.4C248.5 174.1 248.6 174.7 248.7 175.4L248.9 176.6C249 177.3 249.1 177.9 249.2 178.6C250.5 176.5 252.1 174.7 253.9 173.1C256.2 171.2 259 169.9 262 169.4C265.6 168.6 269.3 168.8 272.8 169.9C276 171 279 172.8 281.4 175.2C284 177.7 286.1 180.7 287.6 184C289.3 187.5 290.5 191.2 291.2 195C292.2 199.2 292.5 203.7 292.2 208.1ZM363.6 222.3C363.1 225.6 362 228.8 360.4 231.7C358.4 235.1 355.8 238 352.6 240.3C348.6 243.1 344 245 339.1 245.8C334.4 246.8 329.5 247.3 324.6 247.2C321.2 247.1 317.9 246.7 314.6 246C311.9 245.4 309.3 244.4 306.9 242.9L307.7 221.7C311.4 222 315 222 318.7 221.9C321.4 221.8 324.1 221.5 326.8 221C328.7 220.7 330.6 220.2 332.4 219.5C333.6 219.1 334.7 218.5 335.8 217.8C336.6 217.3 337.4 216.7 338.1 216C329.5 217.7 322.6 218.1 317.3 217.4C312 216.7 307.7 215.3 304.6 213.1C301.7 211.2 299.3 208.6 297.8 205.5C296.5 202.7 295.5 199.7 294.9 196.6C294.1 192.4 294.1 188 294.9 183.8C295.7 179.7 297.3 175.7 299.6 172.2C301.8 168.7 304.7 165.6 308.1 163.2C315.5 158.1 324.7 156.4 333.5 158.3C337 159.2 340.4 160.6 343.6 162.4C346.7 164.5 349.4 167 351.8 169.8L336.8 193C335 191.7 333.2 190.5 331.2 189.5C329.5 188.7 327.7 188 325.8 187.5C323.9 187 321.8 186.9 319.9 187.3C318.5 187.5 317.3 188.2 316.4 189.3C315.7 190.2 315.5 191.4 315.7 192.5C316.1 194.5 317.4 195.6 319.6 196.1C322.3 196.5 325.1 196.7 327.8 196.5C331 196.3 334.5 196.2 338.2 196.1C341.8 196 345.5 196.4 349 197.3C352.4 198.2 355.6 200 358.1 202.5C360.8 205 362.6 208.9 363.6 214.1C364 216.8 364 219.6 363.6 222.3ZM367.5 206.5C367.2 204.7 366.8 202.9 366.4 201.1C365.3 195.2 364 189.5 362.7 183.9C361.4 178.3 360.1 173.3 358.9 168.8C357.5 163.6 356 158.6 354.6 153.9L383.9 147.1C384.3 151.2 384.8 155.4 385.5 159.9C386.2 164.3 387 168.8 387.8 173.2C388.6 177.6 389.5 181.6 390.4 185.5C391.3 189.4 392.1 192.8 392.8 195.8C393.6 199.3 394.3 202.5 395.2 205.5L368.4 211.9C368.1 210 367.8 208.2 367.5 206.5ZM399.6 226.3C399.1 227.9 398.3 229.4 397.1 230.6C395.9 232 394.5 233.1 392.9 234C391.2 235 389.3 235.6 387.3 236C385.3 236.4 383.3 236.5 381.3 236.2C379.5 236 377.7 235.4 376.1 234.6C374.6 233.8 373.3 232.8 372.2 231.5C371.2 230.3 370.5 228.8 370.2 227.3C369.9 225.7 370 224.1 370.5 222.5C371 220.9 371.9 219.5 373 218.3C374.2 216.9 375.7 215.8 377.3 214.9C379.1 213.9 381 213.3 382.9 212.9C384.9 212.5 386.9 212.4 388.8 212.7C390.6 212.9 392.3 213.5 394 214.2C395.5 214.9 396.8 215.9 397.9 217.2C398.9 218.4 399.6 219.9 399.9 221.5C400.1 223.2 400 224.7 399.6 226.3Z"
            fill="url(#paint5_linear_1307_37834)" />
    </g>
    <defs>
        <linearGradient id="paint0_linear_1307_37834" x1="394.689" y1="491.774" x2="394.689"
            y2="325.269" gradientUnits="userSpaceOnUse">
            <stop stop-color="#717BFF" />
            <stop offset="0.23" stop-color="#6D99E2" />
            <stop offset="0.56" stop-color="#6ABEBF" />
            <stop offset="0.83" stop-color="#67D4AA" />
            <stop offset="1" stop-color="#67DDA3" />
        </linearGradient>
        <linearGradient id="paint1_linear_1307_37834" x1="492.895" y1="501.182" x2="492.895"
            y2="433.804" gradientUnits="userSpaceOnUse">
            <stop stop-color="#717BFF" />
            <stop offset="0.23" stop-color="#6D99E2" />
            <stop offset="0.56" stop-color="#6ABEBF" />
            <stop offset="0.83" stop-color="#67D4AA" />
            <stop offset="1" stop-color="#67DDA3" />
        </linearGradient>
        <linearGradient id="paint2_linear_1307_37834" x1="190.05" y1="252.161" x2="190.05"
            y2="183.001" gradientUnits="userSpaceOnUse">
            <stop stop-color="#717BFF" />
            <stop offset="0.23" stop-color="#6D99E2" />
            <stop offset="0.56" stop-color="#6ABEBF" />
            <stop offset="0.83" stop-color="#67D4AA" />
            <stop offset="1" stop-color="#67DDA3" />
        </linearGradient>
        <linearGradient id="paint3_linear_1307_37834" x1="257.835" y1="216.225" x2="257.835"
            y2="177.312" gradientUnits="userSpaceOnUse">
            <stop stop-color="#717BFF" />
            <stop offset="0.23" stop-color="#6D99E2" />
            <stop offset="0.56" stop-color="#6ABEBF" />
            <stop offset="0.83" stop-color="#67D4AA" />
            <stop offset="1" stop-color="#67DDA3" />
        </linearGradient>
        <linearGradient id="paint4_linear_1307_37834" x1="118.781" y1="265.962" x2="118.781"
            y2="196.732" gradientUnits="userSpaceOnUse">
            <stop stop-color="#717BFF" />
            <stop offset="0.23" stop-color="#6D99E2" />
            <stop offset="0.56" stop-color="#6ABEBF" />
            <stop offset="0.83" stop-color="#67D4AA" />
            <stop offset="1" stop-color="#67DDA3" />
        </linearGradient>
        <linearGradient id="paint5_linear_1307_37834" x1="240.594" y1="438.655" x2="240.594"
            y2="-293.163" gradientUnits="userSpaceOnUse">
            <stop stop-color="#717BFF" />
            <stop offset="0.23" stop-color="#6D99E2" />
            <stop offset="0.56" stop-color="#6ABEBF" />
            <stop offset="0.83" stop-color="#67D4AA" />
            <stop offset="1" stop-color="#67DDA3" />
        </linearGradient>
        <clipPath id="clip0_1307_37834">
            <rect width="512" height="512" fill="white" />
        </clipPath>
    </defs>
</svg>
    