<svg width="375" height="644" viewBox="0 0 375 644" fill="none" xmlns="http://www.w3.org/2000/svg">
<g clip-path="url(#clip0_4552_244988)">
<g clip-path="url(#clip1_4552_244988)">
<path fill-rule="evenodd" clip-rule="evenodd" d="M201.581 20.2934L483.465 232.301L484 644.001L-108.465 644L-108.464 232.301L173.419 20.2934C181.771 14.0154 193.256 14.0154 201.581 20.2934Z" fill="#D8EDDD"/>
<path fill-rule="evenodd" clip-rule="evenodd" d="M200.698 40.0348L464.593 238.525L465.102 623.937L-89.5643 623.937L-89.5642 238.525L174.33 40.0348C182.147 34.1576 192.908 34.1576 200.698 40.0348Z" fill="#00B26B"/>
<mask id="mask0_4552_244988" style="mask-type:luminance" maskUnits="userSpaceOnUse" x="-90" y="35" width="556" height="589">
<path d="M200.696 40.0348L464.591 238.525L465.1 623.937L-89.5662 623.937L-89.5662 238.525L174.328 40.0348C182.145 34.1576 192.906 34.1576 200.696 40.0348Z" fill="white"/>
</mask>
<g mask="url(#mask0_4552_244988)">
<g opacity="0.38">
<path d="M279.454 46.607C279.133 58.5485 278.839 70.4899 278.518 82.4314C278.464 84.8891 270.674 83.3664 270.754 80.3477C271.076 68.4062 271.37 56.4647 271.691 44.5233C271.745 42.0655 279.535 43.5883 279.454 46.607Z" fill="black" fill-opacity="0.1"/>
<path d="M365.545 179.646L365.545 221.722C365.545 223.164 357.782 222.015 357.782 219.638L357.782 177.562C357.782 176.12 365.545 177.268 365.545 179.646Z" fill="black" fill-opacity="0.1"/>
<path d="M336.018 153.172C335.402 163.564 334.786 173.929 334.171 184.321C334.064 186.058 326.274 184.669 326.408 182.238C327.023 171.846 327.639 161.48 328.255 151.088C328.362 149.352 336.152 150.741 336.018 153.172Z" fill="black" fill-opacity="0.1"/>
<path d="M328.818 215.604C328.496 226.503 328.175 237.403 327.881 248.329C327.827 250.253 326.034 251.107 324.267 250.974C322.768 250.867 319.957 249.718 320.01 247.795C320.332 236.895 320.653 225.996 320.947 215.069C321.001 213.146 322.794 212.291 324.561 212.425C326.06 212.532 328.871 213.68 328.818 215.604Z" fill="black" fill-opacity="0.1"/>
<path d="M297.817 122.958C298.112 139.174 297.148 155.389 294.953 171.472C294.659 173.609 286.842 171.926 287.19 169.388C289.385 153.306 290.349 137.09 290.054 120.874C290.027 119.004 297.764 120.26 297.817 122.958Z" fill="black" fill-opacity="0.1"/>
<path d="M343.432 305.498C342.844 321.206 342.228 336.915 341.639 352.623C341.559 355 333.769 353.478 333.876 350.539C334.465 334.831 335.08 319.123 335.669 303.414C335.75 301.037 343.54 302.559 343.432 305.498Z" fill="black" fill-opacity="0.1"/>
<path d="M314.068 278.41L314.068 314.448C314.068 318.455 306.225 317.253 306.225 313.833L306.225 277.795C306.225 273.788 314.068 274.99 314.068 278.41Z" fill="black" fill-opacity="0.1"/>
<path d="M260.287 146.52L260.287 186.725C260.287 189.103 252.524 187.66 252.524 184.642L252.524 144.436C252.524 142.058 260.287 143.501 260.287 146.52Z" fill="black" fill-opacity="0.1"/>
<path d="M249.178 268.365L249.178 308.571C249.178 310.949 241.415 309.506 241.415 306.487L241.415 266.282C241.415 263.904 249.178 265.347 249.178 268.365Z" fill="black" fill-opacity="0.1"/>
<path d="M213.039 114.622L213.039 143.741C213.039 145.638 205.276 144.329 205.276 141.657L205.276 112.538C205.276 110.642 213.039 111.951 213.039 114.622Z" fill="black" fill-opacity="0.1"/>
<path d="M293.91 350.379L293.91 379.498C293.91 381.395 286.147 380.086 286.147 377.414L286.147 348.295C286.147 346.398 293.91 347.708 293.91 350.379Z" fill="black" fill-opacity="0.1"/>
<path d="M128.474 127.846C129.196 138.212 128.982 148.63 127.777 158.942C127.483 161.4 119.693 159.717 120.014 156.858C121.165 146.894 121.433 136.849 120.737 126.831C120.63 125.148 122.852 125.095 124.057 125.255C125.261 125.415 128.366 126.217 128.474 127.846Z" fill="black" fill-opacity="0.1"/>
<path d="M82.7503 162.308C83.6069 174.17 82.7503 186.138 80.1001 197.732C79.297 201.312 71.5339 199.308 72.337 195.648C74.8533 184.481 75.7099 173.101 74.8801 161.694C74.5856 157.687 82.4826 158.782 82.7503 162.282L82.7503 162.308Z" fill="black" fill-opacity="0.1"/>
<path d="M49.5572 131.159C48.9683 147.802 49.1288 164.472 50.0658 181.115C50.1461 182.531 42.4365 181.516 42.3026 179.031C41.3657 162.388 41.1783 145.718 41.794 129.075C41.8475 127.472 49.6375 128.754 49.5572 131.159Z" fill="black" fill-opacity="0.1"/>
<path d="M31.3809 305.205L31.3809 328.767C31.3809 330.557 29.4267 331.011 27.9276 330.824C26.6427 330.664 23.5909 329.756 23.5909 327.966L23.5909 304.404C23.5909 302.614 25.5451 302.16 27.0442 302.347C28.3291 302.507 31.3809 303.415 31.3809 305.205Z" fill="black" fill-opacity="0.1"/>
<path d="M132.033 35.8408L132.033 59.4031C132.033 61.193 130.079 61.6472 128.58 61.4602C127.295 61.2999 124.243 60.3916 124.243 58.6017L124.243 35.0394C124.243 33.2495 126.197 32.7953 127.697 32.9823C128.981 33.1426 132.033 34.0509 132.033 35.8408Z" fill="black" fill-opacity="0.1"/>
<path d="M128.127 188.302L128.127 211.864C128.127 213.654 126.173 214.108 124.674 213.921C123.389 213.761 120.337 212.853 120.337 211.063L120.337 187.5C120.337 185.71 122.291 185.256 123.79 185.443C125.075 185.604 128.127 186.512 128.127 188.302Z" fill="black" fill-opacity="0.1"/>
<path d="M45.3809 207.776L45.3809 231.339C45.3809 233.129 43.4267 233.583 41.9276 233.396C40.6427 233.235 37.5909 232.327 37.5909 230.537L37.5909 206.975C37.5909 205.185 39.5451 204.731 41.0442 204.918C42.3291 205.078 45.3809 205.986 45.3809 207.776Z" fill="black" fill-opacity="0.1"/>
<path d="M224.764 175.772L224.764 199.335C224.764 201.125 222.809 201.579 221.31 201.392C220.025 201.232 216.974 200.323 216.974 198.533L216.974 174.971C216.974 173.181 218.928 172.727 220.427 172.914C221.712 173.074 224.764 173.983 224.764 175.772Z" fill="black" fill-opacity="0.1"/>
<path d="M19.1211 215.336L19.1211 251.374C19.1211 255.542 11.2508 254.473 11.2508 250.84L11.2508 214.802C11.2508 210.634 19.1211 211.703 19.1211 215.336Z" fill="black" fill-opacity="0.1"/>
<path d="M200.725 241.544C201.448 251.909 201.234 262.328 200.029 272.639C199.735 275.097 191.945 273.414 192.266 270.556C193.417 260.591 193.658 250.546 192.989 240.528C192.882 238.845 195.104 238.792 196.308 238.952C197.513 239.113 200.618 239.914 200.725 241.544Z" fill="black" fill-opacity="0.1"/>
<path d="M207.229 307.422C207.952 317.788 207.738 328.207 206.533 338.518C206.239 340.976 198.449 339.293 198.77 336.435C199.921 326.47 200.189 316.425 199.493 306.407C199.386 304.724 201.608 304.671 202.812 304.831C204.017 304.991 207.122 305.793 207.229 307.422Z" fill="black" fill-opacity="0.1"/>
<path d="M240.37 81.6832C241.093 92.0485 240.879 102.467 239.674 112.779C239.38 115.237 231.59 113.554 231.911 110.695C233.062 100.731 233.33 90.6861 232.634 80.6681C232.527 78.9851 234.748 78.9316 235.953 79.0919C237.158 79.2522 240.263 80.0536 240.37 81.6832Z" fill="black" fill-opacity="0.1"/>
<path d="M155.002 275.979C155.859 287.84 155.002 299.809 152.352 311.403C151.549 314.983 143.786 312.979 144.589 309.319C147.105 298.152 147.962 286.772 147.132 275.365C146.838 271.358 154.735 272.453 155.002 275.952L155.002 275.979Z" fill="black" fill-opacity="0.1"/>
<path d="M121.807 244.857C121.218 261.5 121.379 278.17 122.316 294.813C122.396 296.229 114.686 295.214 114.553 292.729C113.616 276.086 113.428 259.416 114.044 242.773C114.098 241.17 121.887 242.452 121.807 244.857Z" fill="black" fill-opacity="0.1"/>
<path d="M239.112 344.529C238.523 361.172 238.684 377.842 239.62 394.485C239.701 395.901 231.991 394.886 231.857 392.401C230.92 375.758 230.733 359.088 231.349 342.445C231.402 340.842 239.192 342.124 239.112 344.529Z" fill="black" fill-opacity="0.1"/>
<path d="M59.1953 257.92L59.1953 293.958C59.1953 298.126 51.325 297.057 51.325 293.424L51.325 257.386C51.325 253.218 59.1953 254.287 59.1953 257.92Z" fill="black" fill-opacity="0.1"/>
<path d="M132.141 344.956L132.141 380.994C132.141 385.162 124.27 384.093 124.27 380.46L124.27 344.422C124.27 340.255 132.141 341.323 132.141 344.956Z" fill="black" fill-opacity="0.1"/>
<path d="M172.27 85.6641L172.27 125.87C172.27 127.446 164.506 126.244 164.506 123.786L164.506 83.5803C164.506 82.0042 172.27 83.2063 172.27 85.6641Z" fill="black" fill-opacity="0.1"/>
<path d="M201.369 50.4276C202.091 61.7279 201.717 73.0816 200.217 84.3018C199.843 87.0801 192.053 85.2902 192.454 82.218C193.9 71.3719 194.275 60.4456 193.579 49.5193C193.364 46.18 201.181 47.6226 201.369 50.4009L201.369 50.4276Z" fill="black" fill-opacity="0.1"/>
<path d="M283.897 217.046C285.209 235.506 285.504 254.019 284.781 272.533C284.727 274.109 276.937 272.827 277.018 270.449C277.714 251.962 277.419 233.422 276.134 214.963C276.027 213.627 283.71 214.562 283.897 217.046Z" fill="black" fill-opacity="0.1"/>
<path d="M168.333 174.409C167.825 191.053 167.289 207.696 166.781 224.312C166.7 226.984 158.937 225.381 159.018 222.229C159.526 205.585 160.062 188.942 160.57 172.326C160.65 169.654 168.414 171.257 168.333 174.409Z" fill="black" fill-opacity="0.1"/>
<path d="M95.4134 299.407C94.9048 316.051 94.3694 332.694 93.8608 349.31C93.7805 351.982 86.0173 350.379 86.0976 347.227C86.6063 330.584 87.1417 313.94 87.6503 297.324C87.7306 294.652 95.4938 296.255 95.4134 299.407Z" fill="black" fill-opacity="0.1"/>
<path d="M177.865 364.297C177.356 380.94 176.821 397.584 176.312 414.2C176.232 416.872 168.468 415.269 168.549 412.116C169.057 395.473 169.593 378.83 170.101 362.213C170.182 359.542 177.945 361.145 177.865 364.297Z" fill="black" fill-opacity="0.1"/>
</g>
</g>
<path d="M-109 234.171L484 234.171L484 644.001L-109 644L-109 234.171Z" fill="black" fill-opacity="0.1"/>
<path fill-rule="evenodd" clip-rule="evenodd" d="M187.5 509.599L484 234.037L484 644L190.712 644L184.288 644L-109 644L-109 234.037L187.5 509.599Z" fill="#D8EDDD"/>
<g filter="url(#filter0_d_4552_244988)">
<path fill-rule="evenodd" clip-rule="evenodd" d="M200.269 440.782L484 644.001L-109 644.001L174.731 440.782C182.36 435.306 192.64 435.306 200.269 440.782Z" fill="#D8EDDD"/>
</g>
</g>
<g filter="url(#filter1_dd_4552_244988)">
<g clip-path="url(#clip2_4552_244988)">
<path d="M347 40H25V712.706H347V40Z" fill="#FFEC9F"/>
<rect x="47" y="87" width="279" height="867" rx="8" fill="white"/>
<mask id="mask1_4552_244988" style="mask-type:luminance" maskUnits="userSpaceOnUse" x="25" y="40" width="322" height="586">
<path d="M347 40H25V625.95H347V40Z" fill="white"/>
</mask>
<g mask="url(#mask1_4552_244988)">
<g style="mix-blend-mode:lighten" opacity="0.4">
<path d="M55.1814 233.923C83.1287 233.923 105.785 211.154 105.785 183.067C105.785 154.979 83.1287 132.21 55.1814 132.21C27.234 132.21 4.57812 154.979 4.57812 183.067C4.57812 211.154 27.234 233.923 55.1814 233.923Z" fill="white"/>
</g>
<g style="mix-blend-mode:lighten" opacity="0.4">
<path d="M55.1805 225.556C78.5302 225.556 97.4587 206.533 97.4587 183.066C97.4587 159.6 78.5302 140.576 55.1805 140.576C31.8309 140.576 12.9023 159.6 12.9023 183.066C12.9023 206.533 31.8309 225.556 55.1805 225.556Z" fill="white"/>
</g>
<path d="M37.9409 265.626C34.7013 270.93 25.0362 270.925 16.3523 265.621C7.66831 260.317 3.25355 251.72 6.48781 246.416C9.72745 241.112 19.3925 241.117 28.0764 246.421C36.7604 251.725 41.1752 260.322 37.9409 265.626Z" fill="#FFCD28"/>
<path d="M36.7771 261.487C34.3784 265.411 26.6 265.023 19.4038 260.624C12.2022 256.226 8.31028 249.483 10.7036 245.559C13.1024 241.635 20.8807 242.023 28.077 246.421C35.2786 250.82 39.1704 257.563 36.7771 261.487Z" fill="#FFE235"/>
<path d="M23.7429 253.514C21.2526 251.999 20.4602 248.738 21.9857 246.237L24.6108 241.941L25.2954 240.815L33.0252 228.175L33.0576 228.121L42.0919 233.641L42.0596 233.695L34.3675 246.28L33.6937 247.375L31.0254 251.757C29.4999 254.258 26.2495 255.039 23.7483 253.514H23.7429Z" fill="#FFE235"/>
<path d="M33.6888 247.375C30.8211 246.054 29.1662 245.036 29.1662 245.036C27.5545 244.017 26.0452 242.987 24.6113 241.947L25.2959 240.821L33.0258 228.181L42.0601 233.7L34.368 246.286L33.6942 247.38L33.6888 247.375Z" fill="#FFC14A"/>
<path d="M26.2874 173.46C26.2874 173.46 19.7434 162.588 8.46127 165.779C5.43185 166.636 2.72047 168.404 0.612812 170.732C-4.01217 175.842 -9.89312 187.021 7.28076 201.58L10.8007 197.295C10.8007 197.295 3.62606 191.085 3.21639 184.046C2.85523 177.815 10.7738 174.527 15.0214 179.103C16.245 180.418 17.501 182.203 18.7246 184.617L26.282 173.465L26.2874 173.46Z" fill="#FFCD28"/>
<path d="M87.4424 210.096C87.4424 210.096 100.131 210.214 103.112 221.555C103.91 224.595 103.765 227.829 102.827 230.832C100.773 237.413 94.1265 248.15 72.8613 240.744L74.7695 235.537C74.7695 235.537 83.7608 238.566 90.0352 235.343C95.5873 232.492 94.4015 224.002 88.3049 222.66C86.553 222.277 84.3753 222.094 81.6747 222.267L87.4478 210.096H87.4424Z" fill="#FFCD28"/>
<path d="M91.2799 220.854C93.4631 222.364 96.2607 225.296 95.533 230.131C95.0802 233.128 93.2959 235.747 90.881 237.58C89.7922 238.405 88.5308 239.197 87.291 239.591C87.291 239.591 97.8616 241.105 101.64 230.799C102.961 227.199 102.956 223.167 101.312 219.701C100.309 217.588 98.6271 215.33 95.8079 213.68C93.4199 212.284 90.3474 213.572 89.6466 216.246C89.6359 216.284 89.6251 216.316 89.6197 216.354C89.1777 218.057 89.8353 219.852 91.2853 220.854H91.2799Z" fill="#FFE235"/>
<path d="M68.3699 244.943C61.5079 248.414 53.4222 249.46 45.4714 247.38C37.0785 245.186 31.2137 241.591 31.2137 241.591C22.961 236.335 16.9992 230.584 12.7138 225.366C3.28054 213.821 2.81696 197.505 11.7489 185.56C17.0585 178.477 23.7965 172.446 29.3055 168.155C34.9978 163.692 39.3371 161.1 39.3371 161.1L47.8971 166.49L91.7697 194.098C91.7374 198.324 91.2522 202.55 90.476 206.657C88.9721 214.661 86.3577 222.202 83.7703 228.385C80.6493 235.807 75.1025 241.531 68.3699 244.938V244.943Z" fill="#FFCD28"/>
<path d="M76.3322 234.545C70.6292 241.229 61.4978 244.221 52.9809 242.054C52.9324 242.043 52.8893 242.032 52.8407 242.016C45.5313 240.119 40.4266 236.976 40.4266 236.976C33.2466 232.4 28.0502 227.393 24.32 222.843C16.0889 212.807 15.6846 198.588 23.4791 188.196C31.969 176.849 44.7066 168.629 47.1053 167.131L89.0536 193.526C88.9458 205.433 85.1509 217.351 81.4046 226.309C80.1163 229.376 78.3967 232.136 76.3376 234.545H76.3322Z" fill="#FFE235"/>
<path d="M54.6834 201.994L54.3492 207.665C54.3169 208.188 54.5486 208.694 54.9583 209.012L59.4378 212.5C60.4781 213.308 60.1385 214.963 58.861 215.297L53.3681 216.731C52.8614 216.866 52.4518 217.238 52.2739 217.728L50.3387 223.07C49.8913 224.31 48.2149 224.498 47.5034 223.388L44.4416 218.607C44.1613 218.165 43.6762 217.89 43.1533 217.874L37.4772 217.685C36.1565 217.642 35.4612 216.106 36.2967 215.082L39.8975 210.689C40.2317 210.284 40.3395 209.74 40.1939 209.239L38.6199 203.784C38.2534 202.517 39.4986 201.38 40.7276 201.86L46.0156 203.93C46.5061 204.118 47.056 204.059 47.4872 203.762L52.1876 200.577C53.2819 199.838 54.7481 200.674 54.6672 201.989L54.6834 201.994Z" fill="white"/>
<path d="M86.6979 216.036C85.7869 220.078 82.7737 222.838 79.976 222.207C77.173 221.577 75.6475 217.787 76.5585 213.745C77.4695 209.702 80.4827 206.943 83.2804 207.573C86.0834 208.204 87.6089 211.993 86.6979 216.036Z" fill="#FFEF6B"/>
<path d="M90.4713 206.663C81.5717 208.878 67.1362 205.003 53.3528 195.91C40.6099 187.517 31.7373 176.866 29.3008 168.161C34.9931 163.698 39.3324 161.105 39.3324 161.105L47.8923 166.496L91.765 194.104C91.7326 198.33 91.2475 202.556 90.4713 206.663Z" fill="#FFC14A"/>
<path d="M95.011 198.07C100.192 190.211 90.9449 174.977 74.358 164.045C57.7711 153.112 40.1252 150.621 34.9446 158.48C29.7641 166.34 39.0108 181.573 55.5976 192.506C72.1845 203.438 89.8304 205.929 95.011 198.07Z" fill="#FFE235"/>
<path d="M82.2149 190.907C77.5792 190.95 69.8223 187.98 61.9685 182.817C54.3195 177.777 48.611 171.972 46.692 167.719C45.8727 165.902 45.7433 164.366 46.4495 163.283C48.8105 159.698 59.5805 162.641 70.5285 169.848C81.4657 177.06 88.4139 185.803 86.0475 189.382C85.3737 190.39 84.0477 190.886 82.2149 190.907Z" fill="#FFC14A"/>
<path d="M82.2143 190.907C77.5785 190.95 69.8217 187.98 61.9679 182.816C54.3188 177.776 48.6104 171.971 46.6914 167.718C51.3379 167.665 59.0948 170.635 66.9378 175.809C74.5976 180.838 80.2953 186.654 82.2143 190.907Z" fill="#D2732C"/>
<g filter="url(#filter2_dd_4552_244988)">
<path d="M332.606 264.469C332.606 264.469 332.584 264.451 332.571 264.441C332.477 264.386 332.369 264.384 332.268 264.433C330.276 265.388 328.509 266.769 327.044 267.998C326.149 268.747 325.267 269.54 324.412 270.306C324.012 270.663 323.612 271.02 323.211 271.378C322.385 270.91 321.522 270.448 320.582 269.97C320.04 269.693 319.493 269.423 318.947 269.158C318.643 269.011 318.283 268.835 317.93 268.638L317.632 268.477C317.034 268.151 316.415 267.813 315.781 267.533C315.405 267.364 315.054 267.238 314.707 267.147C314.342 267.051 314.036 267.021 313.772 267.064C313.68 267.081 313.617 267.115 313.569 267.176C313.521 267.238 313.502 267.322 313.513 267.395C313.898 269.517 314.843 271.498 315.628 272.99C316.319 274.313 317.108 275.619 317.866 276.876L318.022 277.139C317.168 278.377 316.055 280.014 315.012 281.707C313.61 283.979 312.6 285.892 311.827 287.735C311.741 287.939 311.66 288.143 311.579 288.346L311.557 288.394C311.521 288.494 311.538 288.606 311.601 288.692C311.616 288.713 311.636 288.734 311.659 288.752C311.727 288.806 311.81 288.833 311.886 288.823C314.038 288.487 316.098 287.741 318.006 286.987C318.743 286.694 319.473 286.39 320.203 286.086C321.212 285.666 322.251 285.235 323.292 284.841C323.949 286.569 324.508 288.362 325.044 290.098C325.696 292.199 326.365 294.373 327.236 296.45C327.249 296.5 327.276 296.546 327.313 296.585C327.326 296.595 327.336 296.603 327.349 296.613C327.401 296.654 327.467 296.683 327.533 296.685C327.59 296.686 327.64 296.676 327.688 296.654C327.76 296.617 327.794 296.56 327.825 296.48C328.815 294.165 329.575 291.71 330.309 289.335C330.848 287.589 331.41 285.782 332.055 284.041C332.437 284.022 332.822 284.005 333.206 283.988L333.478 283.975C334.381 283.938 335.315 283.895 336.231 283.828C337.349 283.743 338.269 283.624 339.121 283.458C340.104 283.265 340.95 282.994 341.707 282.627C341.779 282.59 341.826 282.503 341.839 282.439C341.858 282.335 341.818 282.219 341.739 282.152C341.032 281.545 340.324 280.958 339.633 280.41C338.733 279.695 337.832 279.02 336.952 278.4C335.406 277.307 333.999 276.443 332.656 275.759C332.697 274.918 332.745 274.073 332.794 273.228C332.835 272.541 332.879 271.856 332.914 271.17C333.01 269.236 333.063 266.955 332.736 264.711C332.72 264.604 332.681 264.528 332.613 264.474" fill="#FFCD2C"/>
<path d="M331.904 265.937C331.801 265.92 331.7 265.99 331.692 266.093C331.612 267.117 331.487 268.13 331.323 269.138C331.284 269.391 331.247 269.646 331.201 269.899C331.156 270.153 331.107 270.403 331.058 270.654C330.963 271.152 330.856 271.651 330.808 272.162C330.784 272.422 330.97 272.674 331.237 272.717C331.363 272.737 331.488 272.712 331.587 272.64C331.695 272.561 331.742 272.454 331.772 272.323C331.873 271.824 331.893 271.307 331.913 270.798C331.92 270.54 331.928 270.282 331.932 270.021C331.937 269.765 331.951 269.506 331.955 269.246C331.977 268.216 331.997 267.183 332.074 266.157C332.081 266.087 332.05 266.019 331.995 265.975C331.969 265.954 331.939 265.94 331.906 265.934" fill="#FFF1AA"/>
<path d="M330.649 273.767C330.501 273.956 330.541 274.251 330.741 274.41C330.941 274.569 331.233 274.543 331.384 274.35C331.535 274.157 331.489 273.868 331.289 273.71C331.09 273.551 330.797 273.577 330.649 273.767Z" fill="#FFF1AA"/>
<path d="M337.959 280.096C337.535 279.824 337.103 279.564 336.665 279.31C336.207 279.044 335.745 278.776 335.286 278.51C334.387 277.993 333.472 277.511 332.573 276.994C332.478 276.939 332.359 276.946 332.303 277.038C332.247 277.115 332.268 277.252 332.36 277.311C332.795 277.563 333.225 277.825 333.653 278.091C334.102 278.369 334.548 278.659 334.996 278.945C335.421 279.214 335.842 279.489 336.262 279.772C336.702 280.067 337.136 280.372 337.575 280.67C337.739 280.781 337.964 280.75 338.069 280.59C338.165 280.448 338.13 280.231 337.984 280.116C337.975 280.108 337.968 280.103 337.959 280.096Z" fill="#FFF1AA"/>
<path d="M338.709 280.925C338.608 281.073 338.664 281.262 338.803 281.372C338.941 281.481 339.159 281.436 339.247 281.303C339.348 281.155 339.292 280.967 339.15 280.854C339.009 280.742 338.794 280.789 338.705 280.923" fill="#FFF1AA"/>
<path d="M330.303 284.081C330.213 284.06 330.149 284.115 330.124 284.195C330.092 284.296 330.064 284.393 330.032 284.494C330.036 284.482 330.04 284.47 330.041 284.456C329.737 285.419 329.381 286.366 329.021 287.305C328.927 287.547 328.83 287.786 328.733 288.025C328.639 288.267 328.539 288.503 328.445 288.745C328.257 289.234 328.09 289.738 327.955 290.248C327.945 290.316 327.948 290.379 327.972 290.443C328.007 290.54 328.083 290.626 328.177 290.675C328.271 290.725 328.376 290.732 328.472 290.704C328.566 290.678 328.66 290.607 328.695 290.514C328.888 290.025 329.05 289.521 329.185 289.01C329.326 288.485 329.443 287.951 329.575 287.423C329.839 286.363 330.112 285.305 330.425 284.263C330.443 284.207 330.408 284.15 330.362 284.113C330.343 284.098 330.321 284.085 330.297 284.082" fill="#FFF1AA"/>
<path d="M327.432 292.162C327.349 292.255 327.353 292.422 327.463 292.509C327.572 292.596 327.721 292.6 327.811 292.498C327.894 292.405 327.89 292.238 327.78 292.151C327.671 292.064 327.522 292.06 327.432 292.162Z" fill="#FFF1AA"/>
<path d="M321.935 283.738C321.597 283.92 321.249 284.089 320.899 284.246C320.899 284.246 320.901 284.243 320.904 284.24C320.537 284.405 320.163 284.553 319.791 284.698C319.392 284.856 318.995 285.021 318.595 285.174C317.794 285.483 316.972 285.751 316.201 286.129C316.148 286.163 316.106 286.21 316.077 286.267C316.04 286.347 316.034 286.443 316.067 286.529C316.127 286.701 316.345 286.834 316.519 286.767C316.992 286.587 317.451 286.372 317.908 286.159C318.387 285.939 318.858 285.707 319.336 285.487C320.294 285.046 321.22 284.551 322.142 284.053C322.23 284.002 322.246 283.88 322.191 283.796C322.179 283.777 322.165 283.761 322.149 283.748C322.087 283.699 322.001 283.695 321.931 283.73" fill="#FFF1AA"/>
<path d="M314.666 286.549C314.527 286.706 314.535 286.99 314.719 287.136C314.903 287.282 315.157 287.291 315.311 287.121C315.45 286.963 315.442 286.679 315.259 286.533C315.075 286.388 314.82 286.379 314.67 286.552" fill="#FFF1AA"/>
</g>
<g filter="url(#filter3_dd_4552_244988)">
<path d="M216.16 17.002C216.16 17.002 216.113 17.002 216.086 17.002C215.909 17.0291 215.766 17.1446 215.685 17.3212C214.068 20.7923 213.178 24.6031 212.526 27.8773C212.125 29.8743 211.786 31.919 211.453 33.8957C211.297 34.8195 211.141 35.7433 210.984 36.6672C209.436 36.9253 207.846 37.231 206.141 37.5978C205.156 37.8084 204.171 38.0325 203.193 38.2635C202.649 38.3925 202.004 38.542 201.345 38.6575L200.795 38.7594C199.688 38.9631 198.54 39.1737 197.433 39.4794C196.774 39.656 196.19 39.8666 195.646 40.1179C195.075 40.3828 194.648 40.6749 194.349 41.0214C194.247 41.1436 194.199 41.2591 194.199 41.395C194.199 41.5308 194.26 41.6667 194.349 41.755C197.005 44.2412 200.245 45.9258 202.779 47.1145C205.02 48.1742 207.37 49.1048 209.633 50.0015L210.101 50.1917C210.251 52.8137 210.468 56.2645 210.835 59.7152C211.324 64.3479 211.956 68.0636 212.825 71.426C212.92 71.7996 213.022 72.1664 213.124 72.5332L213.144 72.6216C213.199 72.7982 213.335 72.934 213.504 72.9816C213.545 72.9952 213.593 73.002 213.64 73.002C213.783 73.002 213.919 72.9476 214.007 72.8525C216.459 70.0539 218.375 66.7933 220.087 63.689C220.746 62.4867 221.384 61.2775 222.023 60.0684C222.906 58.3974 223.816 56.6788 224.767 55.0078C227.375 56.6584 229.923 58.5061 232.382 60.2994C235.364 62.4663 238.441 64.7147 241.681 66.6099C241.749 66.6642 241.83 66.6982 241.919 66.7118C241.946 66.7118 241.966 66.7118 241.993 66.7118C242.102 66.7118 242.218 66.6778 242.306 66.6099C242.381 66.5488 242.435 66.4808 242.476 66.3993C242.53 66.2703 242.517 66.1548 242.476 66.0121C241.409 61.7666 239.901 57.5823 238.441 53.5337C237.368 50.5585 236.26 47.4745 235.33 44.3906C235.805 43.9491 236.288 43.5075 236.77 43.066L237.109 42.7535C238.244 41.721 239.412 40.6478 240.533 39.5609C241.898 38.2295 242.972 37.0679 243.909 35.9132C244.989 34.5818 245.811 33.2911 246.422 31.9665C246.477 31.8375 246.45 31.6676 246.402 31.5658C246.321 31.4027 246.151 31.2873 245.981 31.2805C244.446 31.2193 242.931 31.1854 241.477 31.1854C239.582 31.1854 237.728 31.2397 235.955 31.3484C232.837 31.5318 230.133 31.8782 227.695 32.4013C226.893 31.2057 226.098 29.9966 225.304 28.7875C224.658 27.8025 224.02 26.8176 223.368 25.8394C221.527 23.0883 219.278 19.9093 216.575 17.1922C216.446 17.0631 216.317 17.002 216.174 17.002" fill="#FFCD2C"/>
<path d="M233.59 46.2723C233.454 46.3403 233.427 46.4829 233.475 46.6188C233.536 46.7886 233.597 46.9516 233.658 47.1214C233.651 47.1011 233.645 47.0807 233.631 47.0603C234.208 48.6906 234.704 50.3548 235.187 52.0123C235.309 52.4402 235.424 52.8682 235.54 53.2961C235.662 53.7241 235.771 54.152 235.893 54.5799C236.144 55.4426 236.436 56.3053 236.776 57.1408C236.83 57.2427 236.898 57.3243 236.994 57.3854C237.136 57.4805 237.32 57.5145 237.489 57.4805C237.659 57.4465 237.802 57.3446 237.897 57.202C237.992 57.0661 238.04 56.8691 237.992 56.7061C237.748 55.8366 237.449 54.9807 237.109 54.1452C236.763 53.2825 236.375 52.4334 236.015 51.5775C235.289 49.8589 234.575 48.1336 233.93 46.3878C233.896 46.2927 233.794 46.252 233.699 46.252C233.658 46.252 233.617 46.2587 233.584 46.2791" fill="#FFF1AA"/>
<path d="M238.163 60.1567C238.149 60.374 238.326 60.5982 238.557 60.5982C238.788 60.5982 238.985 60.442 238.998 60.2042C239.012 59.9869 238.835 59.7627 238.604 59.7627C238.373 59.7627 238.176 59.9189 238.163 60.1567Z" fill="#FFF1AA"/>
<path d="M221.893 54.5865C221.642 55.1979 221.363 55.8024 221.071 56.3934C221.071 56.3934 221.071 56.3866 221.071 56.3798C220.765 56.998 220.432 57.6025 220.1 58.2003C219.746 58.8456 219.4 59.4977 219.04 60.1362C218.32 61.4201 217.532 62.67 216.921 64.0149C216.887 64.1168 216.88 64.2255 216.9 64.3342C216.934 64.4836 217.022 64.6195 217.151 64.701C217.403 64.8708 217.817 64.8165 217.973 64.538C218.401 63.784 218.775 62.996 219.149 62.2148C219.543 61.3997 219.916 60.5778 220.31 59.7626C221.098 58.1324 221.791 56.4613 222.477 54.7903C222.538 54.6273 222.436 54.4439 222.28 54.3895C222.246 54.3759 222.212 54.3691 222.178 54.3691C222.049 54.3691 221.934 54.4574 221.879 54.5797" fill="#FFF1AA"/>
<path d="M215.243 66.0866C215.223 66.4534 215.522 66.8338 215.909 66.8338C216.296 66.8338 216.636 66.5689 216.663 66.1681C216.683 65.8013 216.384 65.4209 215.997 65.4209C215.61 65.4209 215.27 65.6858 215.25 66.0866" fill="#FFF1AA"/>
</g>
<g filter="url(#filter4_dd_4552_244988)">
<path d="M41.8731 107.308C41.8731 107.308 41.8462 107.314 41.8308 107.317C41.7335 107.355 41.6631 107.434 41.6327 107.537C41.0272 109.561 40.8625 111.665 40.7846 113.458C40.7353 114.552 40.7248 115.663 40.7121 116.737C40.7058 117.24 40.6995 117.742 40.6932 118.244C39.841 118.584 38.9701 118.954 38.0393 119.372C37.5014 119.612 36.9648 119.86 36.4326 120.11C36.1371 120.249 35.7857 120.413 35.4237 120.561L35.1218 120.687C34.5143 120.94 33.8844 121.202 33.2859 121.508C32.9293 121.688 32.6179 121.875 32.3332 122.078C32.0343 122.292 31.8184 122.501 31.6803 122.721C31.6335 122.798 31.6169 122.865 31.629 122.936C31.641 123.006 31.6876 123.069 31.7453 123.103C33.4666 124.047 35.4468 124.495 36.9838 124.778C38.3443 125.033 39.7548 125.206 41.1124 125.374L41.3941 125.411C41.7112 126.757 42.1402 128.527 42.6536 130.277C43.3409 132.627 44.0275 134.48 44.8171 136.117C44.9039 136.299 44.9941 136.476 45.0842 136.654L45.1035 136.697C45.1499 136.782 45.2387 136.835 45.3389 136.837C45.3631 136.839 45.3906 136.836 45.4174 136.83C45.498 136.811 45.57 136.765 45.6114 136.703C46.7487 134.919 47.5417 132.966 48.2334 131.12C48.4991 130.406 48.7526 129.691 49.0061 128.977C49.3567 127.988 49.7186 126.972 50.1076 125.975C51.7279 126.489 53.331 127.114 54.8795 127.722C56.7566 128.456 58.6947 129.22 60.6935 129.777C60.7368 129.797 60.7858 129.804 60.8369 129.799C60.8523 129.795 60.8638 129.793 60.8791 129.789C60.9405 129.775 61.0028 129.742 61.0466 129.695C61.0834 129.653 61.1081 129.61 61.1239 129.562C61.1432 129.488 61.1252 129.429 61.0896 129.36C60.1103 127.289 58.8871 125.308 57.7027 123.392C56.8324 121.984 55.9332 120.523 55.1338 119.039C55.3632 118.746 55.5966 118.452 55.8299 118.158L55.9941 117.95C56.5434 117.261 57.1083 116.547 57.6452 115.831C58.2985 114.956 58.8018 114.209 59.229 113.482C59.7211 112.645 60.071 111.863 60.2989 111.092C60.3182 111.017 60.2878 110.932 60.2519 110.886C60.1913 110.811 60.0851 110.774 59.9886 110.793C59.1158 110.965 58.2569 111.148 57.4356 111.341C56.3648 111.592 55.3218 111.867 54.3298 112.159C52.5844 112.668 51.0876 113.207 49.7562 113.803C49.1972 113.287 48.6409 112.762 48.0846 112.237C47.6326 111.809 47.1844 111.381 46.7292 110.957C45.445 109.768 43.8926 108.409 42.124 107.352C42.0397 107.302 41.9613 107.287 41.8807 107.306" fill="#FFCD2C"/>
<path d="M42.0555 108.517C41.9778 108.584 41.9612 108.699 42.029 108.765C42.695 109.421 43.3251 110.104 43.9272 110.812C44.0787 110.988 44.2341 111.164 44.3823 111.345C44.5305 111.527 44.6748 111.709 44.8191 111.891C45.1072 112.252 45.3886 112.621 45.7164 112.954C45.8828 113.123 46.1796 113.132 46.3805 112.958C46.4757 112.877 46.5383 112.769 46.5511 112.654C46.5659 112.528 46.521 112.43 46.4476 112.332C46.1628 111.967 45.8136 111.65 45.4694 111.34C45.2931 111.184 45.1169 111.028 44.9367 110.873C44.761 110.72 44.5881 110.56 44.4079 110.405C43.7001 109.789 42.9885 109.173 42.3186 108.519C42.2745 108.473 42.2068 108.456 42.1406 108.471C42.1095 108.478 42.0796 108.493 42.0548 108.514" fill="#FFF1AA"/>
<path d="M46.8323 114.123C46.8695 114.343 47.1006 114.483 47.338 114.427C47.5754 114.372 47.7432 114.141 47.7053 113.919C47.6674 113.696 47.4376 113.562 47.2002 113.618C46.9628 113.674 46.795 113.904 46.8323 114.123Z" fill="#FFF1AA"/>
<path d="M55.8502 112.716C55.396 112.861 54.9441 113.019 54.4934 113.184C54.0209 113.356 53.5448 113.53 53.0723 113.703C52.1498 114.043 51.2405 114.414 50.3179 114.754C50.2197 114.79 50.1501 114.876 50.1776 114.965C50.1959 115.045 50.3037 115.106 50.4025 115.074C50.8494 114.91 51.3019 114.755 51.7549 114.604C52.2297 114.444 52.71 114.294 53.1897 114.14C53.6433 113.991 54.0981 113.85 54.5577 113.714C55.0392 113.57 55.5224 113.435 56.0044 113.294C56.1845 113.241 56.3046 113.068 56.2605 112.909C56.223 112.765 56.0513 112.672 55.8799 112.71C55.8688 112.712 55.8613 112.714 55.8502 112.716Z" fill="#FFF1AA"/>
<path d="M56.8858 112.72C56.9249 112.88 57.0916 112.948 57.2561 112.909C57.4206 112.87 57.528 112.683 57.4918 112.541C57.4527 112.381 57.286 112.314 57.1177 112.353C56.9494 112.393 56.8458 112.579 56.8819 112.721" fill="#FFF1AA"/>
<path d="M54.0665 120.718C53.9933 120.772 53.9905 120.852 54.0308 120.918C54.0821 121 54.1329 121.079 54.1842 121.161C54.1784 121.151 54.1726 121.141 54.1627 121.132C54.6503 121.922 55.0933 122.741 55.5277 123.559C55.6385 123.77 55.7454 123.983 55.8523 124.195C55.9631 124.406 56.066 124.62 56.1769 124.831C56.4032 125.256 56.6533 125.676 56.9288 126.075C56.9699 126.122 57.0171 126.156 57.0784 126.176C57.1706 126.207 57.281 126.201 57.3772 126.16C57.4734 126.118 57.5475 126.045 57.5901 125.956C57.6332 125.871 57.6429 125.759 57.6001 125.679C57.3772 125.249 57.1237 124.833 56.8483 124.434C56.5663 124.022 56.2618 123.622 55.9726 123.215C55.3895 122.398 54.8137 121.576 54.2758 120.733C54.2472 120.687 54.1838 120.679 54.1282 120.692C54.1044 120.698 54.0811 120.707 54.0631 120.722" fill="#FFF1AA"/>
<path d="M58.0471 127.661C58.0587 127.776 58.178 127.87 58.308 127.839C58.438 127.808 58.535 127.701 58.5216 127.575C58.51 127.46 58.3907 127.367 58.2607 127.398C58.1307 127.428 58.0336 127.536 58.0471 127.661Z" fill="#FFF1AA"/>
<path d="M48.7672 126.402C48.6776 126.76 48.5716 127.118 48.4566 127.47C48.4566 127.47 48.456 127.466 48.4554 127.463C48.335 127.831 48.1977 128.196 48.0598 128.558C47.9144 128.947 47.7735 129.339 47.6236 129.726C47.3244 130.503 46.9829 131.271 46.752 132.066C46.7416 132.124 46.7475 132.183 46.7691 132.238C46.8023 132.312 46.8656 132.372 46.9475 132.398C47.1079 132.454 47.3421 132.369 47.4071 132.201C47.5857 131.744 47.7299 131.276 47.8747 130.812C48.0283 130.327 48.1694 129.842 48.3229 129.357C48.6299 128.387 48.8784 127.409 49.1229 126.431C49.1434 126.337 49.0679 126.253 48.9729 126.246C48.952 126.243 48.9318 126.244 48.9122 126.249C48.8377 126.266 48.7791 126.328 48.7588 126.4" fill="#FFF1AA"/>
<path d="M46.2255 133.382C46.2465 133.576 46.4486 133.734 46.6668 133.683C46.885 133.631 47.053 133.449 47.0328 133.237C47.0118 133.043 46.8097 132.885 46.5915 132.936C46.3733 132.987 46.2053 133.17 46.2293 133.381" fill="#FFF1AA"/>
</g>
</g>
<path d="M394.002 193.195C398.054 192.914 406.358 192.64 411.006 197.192C444.381 236.199 406.767 248.626 402.978 250.296C396.009 253.367 382.715 249.658 374.85 246.388C367.955 243.521 360.569 238.496 354.893 232.441C347.165 224.196 344.205 206.693 344.015 196.029C343.76 181.635 337.511 175.514 319.185 170.692C303.919 166.676 308.195 155.71 308.451 150.117C308.696 144.779 310.135 140.285 307.412 134.057C306.437 131.827 304.995 129.66 303.014 128.059C300.762 126.24 297.508 124.605 295.209 123.93L295.276 123.881C296.845 122.717 300.016 120.368 301.93 119.869C304.108 119.301 306.202 119.531 308.232 120.578C312.358 122.704 313.832 127.041 315.684 131.002C317.564 135.026 320.313 138.418 324.46 140.156C329.171 142.13 334.013 141.652 338.901 141.397C344.105 141.125 349.861 141.749 354.504 144.532C356.847 145.936 358.214 147.831 358.841 150.53C360.046 155.719 359.309 161.186 359.788 166.43C360.34 172.467 361.268 179.206 365.55 183.927C369.294 188.054 375.269 190.016 380.361 191.506C384.817 192.809 389.403 193.514 394.002 193.195Z" fill="#40DD88"/>
<path d="M399.999 204.427C412.934 199.422 410.022 202.788 414.275 207.447C445.992 247.478 403.707 252.463 401.244 254.266C396.714 257.581 386.287 253.947 379.918 250.677C374.334 247.811 367.987 242.707 362.702 236.502C355.504 228.051 350.072 209.884 347.943 198.787C345.071 183.81 339.353 177.546 325.034 172.84C313.106 168.92 314.191 157.433 313.336 151.608C312.519 146.047 312.735 141.345 309.579 134.909C308.449 132.605 306.988 130.373 305.239 128.741C303.25 126.886 300.563 125.241 298.753 124.577L298.793 124.524C299.725 123.287 301.608 120.787 302.917 120.235C304.406 119.607 305.982 119.811 307.664 120.865C311.083 123.009 312.971 127.497 315.066 131.589C317.193 135.744 321.413 144.696 328.365 144.644C335.316 144.592 347.446 137.888 352.589 151.034C356.764 161.703 350.065 187.928 363.813 196.113C378.089 204.613 393.492 206.944 399.999 204.427Z" fill="#77FFAA"/>
<g style="mix-blend-mode:plus-lighter">
<path d="M399.949 196.537C412.878 191.534 409.963 202.804 414.215 207.462C414.215 207.462 379.428 260.864 376.966 262.666C371.385 259.801 361.993 254.905 353.049 242.129C344.75 230.273 351.7 205.084 349.573 193.99C346.702 179.017 341.662 174.027 327.35 169.322C315.429 165.403 315.699 153.948 314.844 148.124C314.028 142.565 314.068 139.414 310.914 132.98C309.784 130.676 306.414 125.394 298.754 124.612L298.793 124.56C299.725 123.322 301.607 120.823 302.915 120.272C304.404 119.644 304.526 120.924 306.207 121.978C309.624 124.121 310.516 127.322 312.609 131.412C314.736 135.567 317.984 144.878 325.458 150.833C332.932 156.789 341.79 150.36 346.93 163.502C351.103 174.168 349.417 191.418 363.158 199.601C377.426 208.099 393.446 199.054 399.949 196.537Z" fill="#FF9800"/>
</g>
<path style="mix-blend-mode:color-dodge" d="M326.747 87.94C326.747 87.94 339.908 117.834 313.156 137.774C282.185 160.859 259.494 135.875 259.494 135.875L271.955 86.5109L326.747 87.94Z" fill="url(#paint0_radial_4552_244988)"/>
<path opacity="0.5" d="M315.664 95.1896C315.664 95.1896 324.007 112.829 303.991 127.571C284.349 142.034 268.404 127.168 268.404 127.168L269.835 82.4214L315.671 95.1984L315.664 95.1896Z" fill="url(#paint1_linear_4552_244988)"/>
<path d="M288.925 118.208C288.925 118.208 289.802 118.836 291.116 119.718C291.753 120.153 292.468 120.599 293.262 121.096C296.753 123.237 301.374 125.597 302.991 124.239C304.374 123.057 303.31 118.267 302.203 114.542C301.921 113.677 301.688 112.858 301.453 112.164C301.006 110.843 300.657 109.959 300.657 109.959L288.916 118.215L288.925 118.208Z" fill="#FF6047"/>
<path d="M259.497 133.002C259.497 133.002 260.421 134.091 261.785 135.513C262.345 136.06 262.962 136.703 263.605 137.326C266.47 140.081 270.083 142.983 271.834 142.077C273.388 141.29 273.513 136.746 273.323 132.961C273.26 132.043 273.221 131.176 273.144 130.421C272.995 128.809 272.869 127.718 272.869 127.718L259.506 132.996L259.497 133.002Z" fill="#FF6047"/>
<path d="M314.797 96.4206C314.797 96.4206 316.087 97.0018 317.895 97.6936C318.617 97.9686 319.407 98.2618 320.246 98.5313C323.709 99.7116 327.753 100.707 328.894 99.5121C330.152 98.2022 328.763 94.4832 327.104 91.1454C326.74 90.4244 326.364 89.7406 325.998 89.0898C324.771 86.8356 323.656 85.1309 323.656 85.1309L314.797 96.4206Z" fill="#FF6047"/>
<path d="M260.122 137.022C275.138 131.328 288.22 123.217 298.737 115.198C299.931 114.308 301.063 113.409 302.191 112.541C311.061 105.46 317.881 98.7221 322.162 94.1245C325.591 90.4377 327.423 88.1346 327.423 88.1346C307.413 70.49 285.787 60.9284 270.385 55.8673C263.579 53.6344 257.97 52.2738 254.267 51.5186C253.059 51.2474 251.878 51.4658 250.903 52.0133C250.69 52.1449 250.476 52.2766 250.28 52.4502C249.3 53.2083 248.651 54.2989 248.469 55.5785C247.597 61.5362 247.192 67.3934 247.161 73.0963C246.868 108.206 260.129 137.03 260.129 137.03L260.122 137.022Z" fill="url(#paint2_linear_4552_244988)"/>
<path d="M258.732 134.805C296.285 120.501 321.762 91.1278 325.749 86.3213C326.307 86.7934 326.859 87.2566 327.415 87.7441C327.415 87.7441 300.725 121.411 259.657 136.989C259.657 136.989 259.304 136.225 258.723 134.812L258.732 134.805Z" fill="#FF9800"/>
<g style="mix-blend-mode:multiply" opacity="0.5">
<path d="M317.883 97.7078C318.608 97.9839 319.401 98.2783 320.244 98.5491C323.346 95.3931 325.671 92.802 327.132 91.1318C326.767 90.4077 326.389 89.721 326.021 89.0674C324.388 90.9628 321.642 93.9924 317.891 97.7012L317.883 97.7078Z" fill="#9185E7"/>
</g>
<g style="mix-blend-mode:multiply" opacity="0.5">
<path d="M291.112 119.744C291.753 120.181 292.472 120.629 293.27 121.13C296.462 118.957 299.441 116.737 302.258 114.539C301.975 113.669 301.741 112.845 301.505 112.148C298.302 114.688 294.822 117.241 291.103 119.75L291.112 119.744Z" fill="#9185E7"/>
</g>
<g style="mix-blend-mode:multiply" opacity="0.5">
<path d="M261.772 135.539C262.334 136.088 262.953 136.733 263.599 137.358C266.951 135.994 270.206 134.537 273.356 132.977C273.293 132.056 273.254 131.186 273.176 130.427C269.522 132.279 265.714 133.998 261.772 135.539Z" fill="#9185E7"/>
</g>
<path d="M247.362 73.2871C257.266 68.268 265.708 60.8433 270.633 56.0264C263.81 53.7885 258.188 52.4249 254.476 51.668C251.707 51.079 249.076 52.9436 248.665 55.7369C247.79 61.7079 247.385 67.578 247.353 73.2936L247.362 73.2871Z" fill="#FF9800"/>
<g style="mix-blend-mode:overlay" opacity="0.25">
<path d="M298.801 114.97C309.34 106.995 317.326 99.1129 322.126 93.9649C322.143 93.952 322.219 93.1675 322.219 93.1675C307.036 71.2033 261.635 55.3811 251.175 51.9739C250.962 52.1051 250.723 52.2558 250.537 52.4223C271.932 68.5967 291.942 102.555 298.809 114.963L298.801 114.97Z" fill="white"/>
</g>
<path style="mix-blend-mode:multiply" d="M260.009 137.031C263.657 135.645 267.218 134.089 270.627 132.455C281.215 127.406 290.611 121.306 298.525 115.253C299.715 114.365 300.845 113.467 301.97 112.601C301.909 112.591 301.835 112.619 301.787 112.627C250.804 121.72 249.784 65.0708 250.177 52.6294C249.217 53.373 248.569 54.4614 248.388 55.7384C247.518 61.684 247.114 67.5292 247.083 73.2206C247.022 80.9701 247.625 88.4308 248.605 95.3084C251.992 119.581 260.017 137.025 260.017 137.025L260.009 137.031Z" fill="#D8EDDD"/>
<g style="mix-blend-mode:multiply" opacity="0.5">
<path d="M292.474 112.713C282.953 119.81 269.365 117.73 262.125 108.066C254.884 98.4014 256.733 84.8136 266.253 77.7162C275.774 70.6188 289.362 72.6995 296.602 82.3636C303.843 92.0277 301.994 105.616 292.474 112.713Z" fill="#00B26B"/>
</g>
<path d="M277.885 112.614C265.823 111.782 256.566 101.483 257.207 89.6092C257.849 77.7356 268.148 68.7844 280.209 69.6161C292.271 70.4478 301.529 80.7475 300.887 92.6211C300.245 104.495 289.947 113.446 277.885 112.614Z" fill="#00B26B"/>
<path d="M291.49 107.734C282.451 114.472 269.55 112.497 262.675 103.321C255.801 94.1453 257.556 81.2441 266.595 74.5053C275.635 67.7665 288.536 69.7421 295.41 78.9179C302.285 88.0936 300.53 100.995 291.49 107.734Z" fill="#308060"/>
<path d="M277.006 105.967C268.683 104.715 262.851 97.0518 263.979 88.8513C265.107 80.6509 272.769 75.0181 281.092 76.2701C289.415 77.5221 295.247 85.1849 294.119 93.3853C292.991 101.586 285.329 107.219 277.006 105.967Z" fill="url(#paint3_linear_4552_244988)"/>
<g filter="url(#filter5_i_4552_244988)">
<path d="M271.126 98.4511C268.787 94.7453 269.621 90.5115 270.33 88.8578C270.099 87.2566 270.05 83.5302 271.709 81.4339C273.782 78.8134 278.218 78.8393 280.468 80.7984C285.859 80.563 289.377 85.0281 290.462 87.2902C296.412 94.4644 290.396 104.038 283.522 105.494C276.648 106.951 271.698 102.721 271.126 98.4511Z" fill="url(#paint4_linear_4552_244988)"/>
</g>
<g filter="url(#filter6_i_4552_244988)">
<path d="M271.162 98.425C268.826 94.7241 269.659 90.496 270.367 88.8445C270.136 87.2455 270.088 83.524 271.744 81.4305C273.814 78.8136 278.243 78.8394 280.49 80.7959C285.871 80.5608 289.384 85.02 290.467 87.279C292.292 89.4797 292.99 91.9065 292.881 94.2549C292.578 93.6145 291.347 92.1164 288.845 91.2478C286.342 90.3792 282.929 91.4695 281.535 92.1232C279.983 89.9422 277.446 88.7492 276.652 89.1447C275.858 89.5401 275.558 91.369 276.035 93.5298C272.093 95.1995 271.274 98.1131 271.358 99.3613C271.269 99.0509 271.204 98.738 271.162 98.425Z" fill="#51A63B"/>
</g>
<g filter="url(#filter7_i_4552_244988)">
<ellipse cx="3.56213" cy="4.28618" rx="3.56213" ry="4.28618" transform="matrix(0.942448 -0.245916 0.265657 0.990473 270.438 90.5693)" fill="white"/>
</g>
<ellipse cx="2.21115" cy="2.07792" rx="2.21115" ry="2.07792" transform="matrix(0.97193 0.0728969 -0.0662218 1.0229 272.932 93.3564)" fill="#C57125"/>
<ellipse cx="1.21704" cy="1.14371" rx="1.21704" ry="1.14371" transform="matrix(0.97193 0.0728969 -0.0662218 1.0229 273.887 95.2393)" fill="black"/>
<ellipse cx="0.534274" cy="0.502081" rx="0.534274" ry="0.502081" transform="matrix(0.97193 0.0728969 -0.0662218 1.0229 274.506 94.4238)" fill="white"/>
<g filter="url(#filter8_i_4552_244988)">
<ellipse cx="3.78292" cy="4.28229" rx="3.78292" ry="4.28229" transform="matrix(0.961106 -0.152193 0.169173 1.01259 277.033 87.3193)" fill="white"/>
</g>
<ellipse cx="2.21119" cy="2.07791" rx="2.21119" ry="2.07791" transform="matrix(0.971948 0.0729152 -0.0661856 1.02288 279.07 90.3359)" fill="#C57125"/>
<ellipse cx="1.21481" cy="1.14159" rx="1.21481" ry="1.14159" transform="matrix(0.971948 0.0729152 -0.0661856 1.02288 279.871 92.3262)" fill="black"/>
<ellipse cx="0.619579" cy="0.582234" rx="0.619579" ry="0.582234" transform="matrix(0.971948 0.0729152 -0.0661856 1.02288 280.936 91.5449)" fill="white"/>
<g filter="url(#filter9_i_4552_244988)">
<path d="M283.85 94.7053C283.086 94.4751 281.038 94.1196 278.958 94.5391C276.51 95.0897 274.059 98.0988 274.453 101.601C275.965 100.742 276.837 100.564 277.084 100.583C277.645 100.632 278.931 101.54 279.59 104.777C283.92 104.774 285.004 99.9634 285.075 98.8534C285.681 98.2086 286.749 97.1545 286.181 95.5908C285.727 94.3398 284.438 94.4792 283.85 94.7053Z" fill="#F1BD18"/>
</g>
<path d="M279.601 104.859C279.178 102.507 277.894 100.644 276.972 100.575C282.039 99.61 282.723 99.7886 283.917 97.5339C283.584 100.384 281.642 103.438 279.601 104.859Z" fill="#BF800F"/>
<g filter="url(#filter10_i_4552_244988)">
<path d="M283.076 98.7922C282.223 99.7625 279.934 100.014 278.221 100.331C278.747 100.536 279.883 101.57 280.209 104.073C282.153 103.345 283.755 100.842 283.076 98.7922Z" fill="#7B2C25"/>
</g>
<path d="M268.02 85.9543C268.838 80.9531 272.81 80.3126 274.759 80.8299C274.57 81.4948 273.553 84.21 273.362 85.6526C273.122 87.456 270.163 89.1411 269.521 88.4136C269.007 87.8316 269.693 86.3072 270.101 85.6178C269.442 85.9114 268.727 86.0717 268.02 85.9543Z" fill="url(#paint5_linear_4552_244988)"/>
<path d="M267.871 86.3135C268.689 81.3141 272.788 81.0984 274.735 81.6155C274.547 82.2802 274.123 83.9703 273.931 85.4124C273.691 87.2151 270.013 89.4993 269.371 88.772C268.858 88.1902 269.544 86.6664 269.951 85.9772C269.293 86.2707 268.578 86.4309 267.871 86.3135Z" fill="url(#paint6_radial_4552_244988)"/>
<path fill-rule="evenodd" clip-rule="evenodd" d="M281.49 85.7448C281.034 85.698 280.479 85.7162 279.849 85.8308C279.142 85.9593 278.574 86.3693 278.174 86.797C277.779 87.219 277.506 87.7024 277.421 88.0445C277.369 88.2545 277.499 88.4692 277.711 88.524C277.924 88.5787 278.139 88.4529 278.192 88.2428C278.237 88.0626 278.426 87.6915 278.759 87.3354C279.087 86.9848 279.514 86.6928 280.002 86.604C280.568 86.5011 281.047 86.4885 281.418 86.5267C281.8 86.5658 282.035 86.6549 282.141 86.726C282.324 86.8484 282.57 86.8023 282.692 86.623C282.813 86.4437 282.763 86.1992 282.58 86.0768C282.32 85.9022 281.936 85.7906 281.49 85.7448ZM275.272 88.9755C275.293 88.7597 275.132 88.566 274.914 88.5428C274.319 88.4795 273.237 88.6135 272.418 89.1446C272.007 89.4117 271.633 89.793 271.35 90.1613C271.073 90.5208 270.846 90.9147 270.772 91.2213C270.721 91.4318 270.853 91.6454 271.066 91.6985C271.28 91.7516 271.494 91.624 271.544 91.4135C271.58 91.2642 271.729 90.9731 271.983 90.6432C272.23 90.3221 272.542 90.0098 272.86 89.8038C273.499 89.3887 274.391 89.2766 274.84 89.3243C275.058 89.3475 275.252 89.1914 275.272 88.9755Z" fill="black" fill-opacity="0.2"/>
<path d="M281.316 103.434C280.027 102.598 280.101 100.765 280.3 99.9529C280.634 99.8657 280.921 99.8368 281.289 99.7124C280.805 101.014 281.08 101.907 281.151 101.879C281.222 101.852 281.182 101.024 281.601 99.6227C282.13 99.3848 282.892 98.9603 283.07 98.7765C283.736 100.933 282.13 102.815 281.316 103.434Z" fill="#A9524C"/>
<path d="M277.006 105.967C268.683 104.715 262.851 97.0518 263.979 88.8513C265.107 80.6509 272.769 75.0181 281.092 76.2701C289.415 77.5221 295.247 85.1849 294.119 93.3853C292.991 101.586 285.329 107.219 277.006 105.967Z" fill="url(#paint7_linear_4552_244988)"/>
<path style="mix-blend-mode:multiply" d="M274.745 85.9665C269.448 89.9146 267.628 96.7237 269.639 102.747C268.709 101.978 267.822 101.121 267.065 100.111C262.014 93.371 263.304 83.8933 269.945 78.9435C276.586 73.9937 286.066 75.445 291.116 82.1849C292.138 83.5488 292.837 85.0435 293.342 86.5714C288.053 82.2177 280.392 81.7582 274.745 85.9665Z" fill="url(#paint8_radial_4552_244988)"/>
<path d="M289.451 93.8649C288.934 95.8222 289.2 97.6097 290.038 97.8399C290.883 98.0789 291.982 96.6806 292.499 94.7232C293.016 92.7659 292.75 90.9784 291.911 90.7483C291.067 90.5093 289.968 91.9075 289.451 93.8649Z" fill="white"/>
<path d="M270.205 101.885C271.024 102.636 271.964 102.951 272.302 102.589C272.633 102.218 272.25 101.309 271.425 100.55C270.606 99.7997 269.666 99.4838 269.328 99.8458C268.997 100.217 269.38 101.127 270.205 101.885Z" fill="white"/>
<g style="mix-blend-mode:overlay" opacity="0.5">
<path d="M270.387 132.47C258.765 130.375 252.14 112.71 248.406 95.3877C251.786 119.623 259.793 137.039 259.793 137.039C263.433 135.655 266.986 134.102 270.387 132.47Z" fill="white"/>
</g>
<path d="M73.1846 84.2354C72.7846 84.7634 72.2966 85.2594 71.7206 85.7234C71.1446 86.1794 70.4886 86.5554 69.7526 86.8514C69.0166 87.1394 68.2126 87.2834 67.3406 87.2834C66.2606 87.2834 65.3006 87.0834 64.4606 86.6834C63.6286 86.2754 62.9286 85.7074 62.3606 84.9794C61.7926 84.2434 61.3606 83.3834 61.0646 82.3994C60.7686 81.4074 60.6206 80.3314 60.6206 79.1714C60.6206 77.6594 60.8766 76.3074 61.3886 75.1154C61.9086 73.9154 62.6606 72.9714 63.6446 72.2834C64.6366 71.5874 65.8486 71.2394 67.2806 71.2394C68.4566 71.2394 69.5446 71.4914 70.5446 71.9954C71.5446 72.4994 72.3206 73.2354 72.8726 74.2034C72.6806 74.4114 72.4286 74.6474 72.1166 74.9114C71.8046 75.1674 71.4846 75.4154 71.1566 75.6554C70.8366 75.8874 70.5606 76.0754 70.3286 76.2194C70.2886 76.1234 70.2006 75.9674 70.0646 75.7514C69.9366 75.5274 69.7526 75.2994 69.5126 75.0674C69.2806 74.8274 68.9806 74.6234 68.6126 74.4554C68.2526 74.2874 67.8206 74.2034 67.3166 74.2034C66.8846 74.2034 66.4806 74.3074 66.1046 74.5154C65.7366 74.7234 65.4126 75.0314 65.1326 75.4394C64.8606 75.8474 64.6446 76.3474 64.4846 76.9394C64.3326 77.5234 64.2566 78.1954 64.2566 78.9554C64.2566 79.6354 64.3246 80.2754 64.4606 80.8754C64.5966 81.4754 64.7926 82.0034 65.0486 82.4594C65.3126 82.9154 65.6326 83.2714 66.0086 83.5274C66.3846 83.7754 66.8086 83.8994 67.2806 83.8994C67.7926 83.8994 68.2646 83.7994 68.6966 83.5994C69.1286 83.3994 69.5206 83.1474 69.8726 82.8434C70.2246 82.5314 70.5366 82.2114 70.8086 81.8834C71.0646 82.0514 71.3486 82.2754 71.6606 82.5554C71.9726 82.8274 72.2646 83.1154 72.5366 83.4194C72.8166 83.7154 73.0326 83.9874 73.1846 84.2354ZM80.9813 87.4514C78.8693 87.4514 77.2893 86.8834 76.2413 85.7474C75.1933 84.6034 74.6693 82.9514 74.6693 80.7914C74.6693 79.3834 74.9373 78.2034 75.4733 77.2514C76.0173 76.2994 76.7693 75.5834 77.7293 75.1034C78.6973 74.6154 79.8133 74.3714 81.0773 74.3714C82.3893 74.3714 83.4733 74.6714 84.3293 75.2714C85.1933 75.8714 85.8373 76.7034 86.2613 77.7674C86.6933 78.8314 86.9093 80.0634 86.9093 81.4634C86.9093 82.6714 86.6773 83.7234 86.2133 84.6194C85.7493 85.5154 85.0773 86.2114 84.1973 86.7074C83.3173 87.2034 82.2453 87.4514 80.9813 87.4514ZM80.8613 84.4394C81.3733 84.4394 81.8173 84.3514 82.1933 84.1754C82.5773 83.9914 82.8973 83.7394 83.1533 83.4194C83.4093 83.0914 83.5973 82.7154 83.7173 82.2914C83.8453 81.8674 83.9093 81.4154 83.9093 80.9354C83.9093 80.1354 83.7973 79.4274 83.5733 78.8114C83.3493 78.1954 83.0133 77.7154 82.5653 77.3714C82.1253 77.0194 81.5733 76.8434 80.9093 76.8434C80.2213 76.8434 79.6493 77.0154 79.1933 77.3594C78.7453 77.7034 78.4133 78.1634 78.1973 78.7394C77.9813 79.3154 77.8733 79.9434 77.8733 80.6234C77.8733 81.7354 78.1253 82.6514 78.6293 83.3714C79.1413 84.0834 79.8853 84.4394 80.8613 84.4394ZM92.4158 87.3074C92.1998 87.3154 91.9398 87.3154 91.6358 87.3074C91.3318 87.3074 91.0198 87.3074 90.6998 87.3074C90.4358 87.2914 90.1318 87.2754 89.7878 87.2594C89.4518 87.2514 89.2118 87.2394 89.0678 87.2234C89.1478 86.5514 89.2118 85.8034 89.2598 84.9794C89.3158 84.1474 89.3598 83.2234 89.3918 82.2074C89.4318 81.1914 89.4598 80.0674 89.4758 78.8354C89.4918 77.5954 89.4998 76.2314 89.4998 74.7434C89.7718 74.7034 90.0918 74.6754 90.4598 74.6594C90.8278 74.6354 91.1957 74.6234 91.5638 74.6234C91.8278 74.6234 92.0798 74.6314 92.3198 74.6474C92.5678 74.6554 92.7838 74.6754 92.9678 74.7074C92.9758 74.7794 92.9798 74.9274 92.9798 75.1514C92.9798 75.3754 92.9798 75.6234 92.9798 75.8954C92.9798 76.1594 92.9758 76.3954 92.9678 76.6034C93.2078 76.2994 93.5718 75.9794 94.0598 75.6434C94.5558 75.2994 95.1238 75.0114 95.7638 74.7794C96.4118 74.5474 97.0678 74.4314 97.7318 74.4314C98.9558 74.4314 99.8878 74.6754 100.528 75.1634C101.176 75.6514 101.616 76.3794 101.848 77.3474C102.088 78.3154 102.208 79.5234 102.208 80.9714C102.208 81.4994 102.192 82.1074 102.16 82.7954C102.136 83.4754 102.092 84.1954 102.028 84.9554C101.972 85.7074 101.9 86.4514 101.812 87.1874C101.668 87.2034 101.44 87.2154 101.128 87.2234C100.824 87.2394 100.5 87.2474 100.156 87.2474C99.8038 87.2474 99.4638 87.2394 99.1358 87.2234C98.8158 87.2154 98.5758 87.2034 98.4158 87.1874C98.5038 86.6594 98.5958 86.0514 98.6918 85.3634C98.7958 84.6674 98.8798 83.9434 98.9438 83.1914C99.0158 82.4394 99.0518 81.7194 99.0518 81.0314C99.0518 80.3114 98.9918 79.6834 98.8718 79.1474C98.7598 78.6034 98.5438 78.1834 98.2238 77.8874C97.9038 77.5834 97.4318 77.4314 96.8078 77.4314C96.2478 77.4314 95.7198 77.5274 95.2238 77.7194C94.7278 77.9114 94.2838 78.1434 93.8918 78.4154C93.4998 78.6874 93.1718 78.9434 92.9078 79.1834C92.8918 80.4794 92.8518 81.6554 92.7878 82.7114C92.7318 83.7674 92.6678 84.6834 92.5958 85.4594C92.5318 86.2354 92.4718 86.8514 92.4158 87.3074ZM111.605 84.1754C110.021 84.1754 108.765 83.9394 107.837 83.4674C106.909 82.9954 106.245 82.3914 105.845 81.6554C105.453 80.9114 105.257 80.1314 105.257 79.3154C105.257 78.2674 105.521 77.3874 106.049 76.6754C106.577 75.9554 107.297 75.4114 108.209 75.0434C109.129 74.6674 110.165 74.4794 111.317 74.4794C113.197 74.4794 114.613 74.9074 115.565 75.7634C116.525 76.6114 117.005 77.7514 117.005 79.1834C117.005 80.2634 116.773 81.1754 116.309 81.9194C115.853 82.6554 115.221 83.2154 114.413 83.5994C113.605 83.9834 112.669 84.1754 111.605 84.1754ZM111.029 93.1394C109.805 93.1394 108.693 93.0234 107.693 92.7914C106.693 92.5594 105.897 92.1514 105.305 91.5674C104.721 90.9914 104.429 90.1794 104.429 89.1314C104.429 88.4754 104.637 87.8714 105.053 87.3194C105.469 86.7674 106.065 86.3154 106.841 85.9634C107.617 85.6114 108.537 85.4074 109.601 85.3514C110.105 85.3274 110.637 85.3114 111.197 85.3034C111.765 85.2874 112.401 85.2794 113.105 85.2794C114.377 85.2794 115.421 85.5554 116.237 86.1074C117.061 86.6514 117.473 87.5274 117.473 88.7354C117.473 89.7914 117.193 90.6434 116.633 91.2914C116.081 91.9394 115.321 92.4074 114.353 92.6954C113.385 92.9914 112.277 93.1394 111.029 93.1394ZM111.161 91.0634C111.753 91.0634 112.285 90.9994 112.757 90.8714C113.237 90.7514 113.617 90.5554 113.897 90.2834C114.177 90.0194 114.317 89.6594 114.317 89.2034C114.317 88.8114 114.205 88.5074 113.981 88.2914C113.757 88.0754 113.473 87.9234 113.129 87.8354C112.793 87.7474 112.453 87.7034 112.109 87.7034C111.869 87.7034 111.589 87.7034 111.269 87.7034C110.957 87.7034 110.657 87.7034 110.369 87.7034C110.081 87.7034 109.845 87.7034 109.661 87.7034C109.349 87.7034 109.049 87.7474 108.761 87.8354C108.481 87.9234 108.249 88.0794 108.065 88.3034C107.881 88.5354 107.789 88.8594 107.789 89.2754C107.789 89.7074 107.937 90.0554 108.233 90.3194C108.537 90.5834 108.941 90.7714 109.445 90.8834C109.957 91.0034 110.529 91.0634 111.161 91.0634ZM108.233 86.5034C107.209 86.3034 106.485 86.0034 106.061 85.6034C105.637 85.1954 105.425 84.7554 105.425 84.2834C105.425 83.9234 105.505 83.6074 105.665 83.3354C105.833 83.0554 106.037 82.8274 106.277 82.6514C106.525 82.4754 106.769 82.3594 107.009 82.3034L109.073 83.3834C108.737 83.4954 108.489 83.6394 108.329 83.8154C108.177 83.9914 108.101 84.1714 108.101 84.3554C108.101 84.6034 108.233 84.8314 108.497 85.0394C108.761 85.2474 109.129 85.3514 109.601 85.3514L108.233 86.5034ZM111.293 81.6314C111.901 81.6314 112.401 81.5354 112.793 81.3434C113.193 81.1434 113.489 80.8594 113.681 80.4914C113.881 80.1154 113.981 79.6714 113.981 79.1594C113.981 78.7274 113.869 78.3474 113.645 78.0194C113.421 77.6914 113.121 77.4354 112.745 77.2514C112.369 77.0594 111.945 76.9634 111.473 76.9634C110.705 76.9634 110.037 77.1354 109.469 77.4794C108.909 77.8154 108.629 78.3954 108.629 79.2194C108.629 79.9874 108.877 80.5834 109.373 81.0074C109.877 81.4234 110.517 81.6314 111.293 81.6314ZM115.901 77.3714L114.041 75.8114C114.153 75.4994 114.337 75.1674 114.593 74.8154C114.857 74.4634 115.153 74.1354 115.481 73.8314C115.817 73.5274 116.137 73.2914 116.441 73.1234C116.537 73.2754 116.681 73.4874 116.873 73.7594C117.065 74.0234 117.265 74.2914 117.473 74.5634C117.681 74.8354 117.853 75.0554 117.989 75.2234C117.821 75.3114 117.633 75.4354 117.425 75.5954C117.217 75.7474 117.009 75.9234 116.801 76.1234C116.593 76.3154 116.409 76.5194 116.249 76.7354C116.089 76.9514 115.973 77.1634 115.901 77.3714ZM122.566 76.4354C122.766 76.0594 123.07 75.7074 123.478 75.3794C123.886 75.0514 124.358 74.7834 124.894 74.5754C125.438 74.3674 126.006 74.2634 126.598 74.2634C126.966 74.2634 127.334 74.2994 127.702 74.3714C128.078 74.4434 128.358 74.5394 128.542 74.6594L127.882 78.0074C127.706 77.9354 127.474 77.8554 127.186 77.7674C126.898 77.6794 126.562 77.6354 126.178 77.6354C125.77 77.6354 125.37 77.7034 124.978 77.8394C124.594 77.9754 124.238 78.1674 123.91 78.4154C123.582 78.6634 123.302 78.9554 123.07 79.2914C123.158 79.7954 123.25 80.4234 123.346 81.1754C123.45 81.9194 123.546 82.6874 123.634 83.4794C123.722 84.2634 123.794 84.9794 123.85 85.6274C123.914 86.2754 123.946 86.7554 123.946 87.0674C123.45 87.1314 122.874 87.1714 122.218 87.1874C121.57 87.2034 120.95 87.2074 120.358 87.1994C120.358 86.5034 120.338 85.7314 120.298 84.8834C120.266 84.0354 120.218 83.1594 120.154 82.2554C120.09 81.3434 120.01 80.4434 119.914 79.5554C119.818 78.6594 119.706 77.8154 119.578 77.0234C119.458 76.2314 119.326 75.5354 119.182 74.9354C119.51 74.8394 119.874 74.7474 120.274 74.6594C120.682 74.5714 121.054 74.4994 121.39 74.4434C121.726 74.3874 121.942 74.3554 122.038 74.3474C122.134 74.5874 122.242 74.9274 122.362 75.3674C122.482 75.7994 122.55 76.1554 122.566 76.4354ZM135.017 87.3674C134.025 87.3674 133.121 87.2354 132.305 86.9714C131.489 86.7074 130.837 86.2754 130.349 85.6754C129.869 85.0674 129.629 84.2674 129.629 83.2754C129.629 82.2834 129.905 81.4834 130.457 80.8754C131.017 80.2594 131.757 79.8114 132.677 79.5314C133.597 79.2434 134.605 79.0994 135.701 79.0994C136.149 79.0994 136.585 79.1314 137.009 79.1954C137.433 79.2594 137.805 79.3394 138.125 79.4354C138.445 79.5234 138.669 79.6074 138.797 79.6874C138.781 79.4554 138.737 79.2154 138.665 78.9674C138.593 78.7194 138.485 78.5074 138.341 78.3314C138.085 77.9394 137.721 77.6114 137.249 77.3474C136.785 77.0834 136.181 76.9514 135.437 76.9514C134.677 76.9514 134.017 77.1194 133.457 77.4554C132.897 77.7914 132.477 78.1794 132.197 78.6194L129.593 76.9394C129.953 76.4274 130.433 75.9754 131.033 75.5834C131.633 75.1914 132.317 74.8874 133.085 74.6714C133.853 74.4474 134.669 74.3354 135.533 74.3354C136.925 74.3354 138.061 74.5754 138.941 75.0554C139.821 75.5354 140.469 76.1914 140.885 77.0234C141.085 77.4314 141.249 77.8794 141.377 78.3674C141.505 78.8554 141.589 79.4314 141.629 80.0954C141.653 80.7114 141.673 81.2674 141.689 81.7634C141.705 82.2594 141.725 82.7114 141.749 83.1194C141.765 83.7034 141.833 84.0834 141.953 84.2594C142.081 84.4274 142.253 84.5114 142.469 84.5114C142.701 84.5114 142.901 84.4354 143.069 84.2834C143.237 84.1314 143.341 83.9234 143.381 83.6594L144.593 85.6754C144.521 86.1474 144.277 86.5274 143.861 86.8154C143.445 87.0954 142.937 87.2354 142.337 87.2354C141.881 87.2354 141.461 87.1554 141.077 86.9954C140.693 86.8274 140.377 86.6114 140.129 86.3474C139.889 86.0754 139.749 85.7794 139.709 85.4594C139.565 85.7554 139.281 86.0514 138.857 86.3474C138.433 86.6434 137.897 86.8874 137.249 87.0794C136.601 87.2714 135.857 87.3674 135.017 87.3674ZM135.689 84.8594C136.113 84.8594 136.541 84.7954 136.973 84.6674C137.405 84.5394 137.797 84.3714 138.149 84.1634C138.509 83.9554 138.793 83.7394 139.001 83.5154C138.985 83.1794 138.973 82.8594 138.965 82.5554C138.965 82.2514 138.969 81.9834 138.977 81.7514C138.785 81.6794 138.413 81.5954 137.861 81.4994C137.317 81.3954 136.729 81.3434 136.097 81.3434C135.537 81.3434 135.017 81.4114 134.537 81.5474C134.065 81.6754 133.681 81.8714 133.385 82.1354C133.097 82.3914 132.953 82.7154 132.953 83.1074C132.953 83.5554 133.065 83.9074 133.289 84.1634C133.521 84.4194 133.841 84.5994 134.249 84.7034C134.664 84.8074 135.145 84.8594 135.689 84.8594ZM153.545 85.3634C153.401 85.6834 153.177 86.0274 152.873 86.3954C152.577 86.7554 152.185 87.0594 151.697 87.3074C151.209 87.5634 150.601 87.6914 149.873 87.6914C148.929 87.6914 148.165 87.4914 147.581 87.0914C146.997 86.6914 146.569 86.1594 146.297 85.4954C146.033 84.8234 145.901 84.0914 145.901 83.2994C145.901 82.8754 145.905 82.4114 145.913 81.9074C145.929 81.3954 145.945 80.8794 145.961 80.3594C145.977 79.8314 145.993 79.3314 146.009 78.8594C146.033 78.3874 146.053 77.9714 146.069 77.6114C146.093 77.2434 146.109 76.9634 146.117 76.7714C145.437 76.8434 144.821 76.9234 144.269 77.0114C143.717 77.0914 143.349 77.1514 143.165 77.1914C143.093 76.8154 143.037 76.4234 142.997 76.0154C142.965 75.6074 142.941 75.2514 142.925 74.9474C142.909 74.6434 142.901 74.4514 142.901 74.3714C143.357 74.3074 143.861 74.2474 144.413 74.1914C144.965 74.1274 145.533 74.0794 146.117 74.0474C146.109 73.8154 146.101 73.4874 146.093 73.0634C146.093 72.6394 146.089 72.2514 146.081 71.8994C146.073 71.5874 146.057 71.2794 146.033 70.9754C146.009 70.6634 145.989 70.4074 145.973 70.2074L149.093 69.9554C149.093 70.0594 149.097 70.3074 149.105 70.6994C149.121 71.0834 149.129 71.5474 149.129 72.0914C149.129 72.3314 149.129 72.6194 149.129 72.9554C149.137 73.2834 149.141 73.5954 149.141 73.8914C149.405 73.8754 149.713 73.8594 150.065 73.8434C150.417 73.8274 150.697 73.8154 150.905 73.8074C151.257 73.7914 151.581 73.7834 151.877 73.7834C152.173 73.7834 152.421 73.7874 152.621 73.7954C152.821 73.7954 152.953 73.7954 153.017 73.7954C153.065 74.1234 153.093 74.5474 153.101 75.0674C153.117 75.5794 153.125 76.0234 153.125 76.3994C153.045 76.3914 152.781 76.3914 152.333 76.3994C151.885 76.4074 151.445 76.4194 151.013 76.4354C150.701 76.4434 150.361 76.4594 149.993 76.4834C149.625 76.5074 149.325 76.5314 149.093 76.5554C149.085 76.7314 149.073 76.9874 149.057 77.3234C149.041 77.6514 149.025 78.0234 149.009 78.4394C149.001 78.8474 148.989 79.2674 148.973 79.6994C148.957 80.1314 148.945 80.5434 148.937 80.9354C148.929 81.3274 148.925 81.6634 148.925 81.9434C148.925 82.4634 148.953 82.9394 149.009 83.3714C149.065 83.8034 149.189 84.1514 149.381 84.4154C149.581 84.6714 149.889 84.7994 150.305 84.7994C150.585 84.7994 150.817 84.7114 151.001 84.5354C151.185 84.3594 151.333 84.1554 151.445 83.9234C151.565 83.6914 151.665 83.4874 151.745 83.3114C151.833 83.4314 151.965 83.5954 152.141 83.8034C152.317 84.0034 152.501 84.2114 152.693 84.4274C152.893 84.6434 153.069 84.8394 153.221 85.0154C153.381 85.1834 153.489 85.2994 153.545 85.3634ZM159.432 88.1114C158.56 88.1114 157.74 87.9994 156.972 87.7754C156.212 87.5594 155.548 87.2914 154.98 86.9714C154.42 86.6434 154 86.3274 153.72 86.0234C153.776 85.8874 153.868 85.6914 153.996 85.4354C154.124 85.1714 154.272 84.8914 154.44 84.5954C154.616 84.2914 154.788 84.0114 154.956 83.7554C155.132 83.4914 155.288 83.2954 155.424 83.1674C155.792 83.5194 156.204 83.8594 156.66 84.1874C157.124 84.5154 157.604 84.7834 158.1 84.9914C158.604 85.1994 159.084 85.3034 159.54 85.3034C159.932 85.3034 160.284 85.2514 160.596 85.1474C160.908 85.0354 161.156 84.8754 161.34 84.6674C161.524 84.4514 161.616 84.1914 161.616 83.8874C161.616 83.5354 161.472 83.2114 161.184 82.9154C160.896 82.6194 160.524 82.3474 160.068 82.0994C159.612 81.8514 159.124 81.6274 158.604 81.4274C157.924 81.1554 157.292 80.8474 156.708 80.5034C156.132 80.1594 155.668 79.7314 155.316 79.2194C154.972 78.7074 154.8 78.0634 154.8 77.2874C154.8 76.5034 155.028 75.8434 155.484 75.3074C155.948 74.7714 156.552 74.3674 157.296 74.0954C158.048 73.8234 158.852 73.6874 159.708 73.6874C160.564 73.6874 161.404 73.8034 162.228 74.0354C163.052 74.2674 163.716 74.5754 164.22 74.9594C164.172 75.1034 164.08 75.3154 163.944 75.5954C163.808 75.8754 163.644 76.1714 163.452 76.4834C163.26 76.7954 163.056 77.0834 162.84 77.3474C162.496 77.0754 162.064 76.8154 161.544 76.5674C161.032 76.3194 160.484 76.1954 159.9 76.1954C159.58 76.1954 159.264 76.2314 158.952 76.3034C158.64 76.3754 158.384 76.4994 158.184 76.6754C157.984 76.8434 157.884 77.0754 157.884 77.3714C157.884 77.6434 157.988 77.8874 158.196 78.1034C158.404 78.3194 158.696 78.5234 159.072 78.7154C159.456 78.8994 159.9 79.0914 160.404 79.2914C160.94 79.4914 161.464 79.7234 161.976 79.9874C162.496 80.2514 162.964 80.5634 163.38 80.9234C163.804 81.2834 164.14 81.6994 164.388 82.1714C164.636 82.6354 164.76 83.1714 164.76 83.7794C164.76 84.7394 164.516 85.5434 164.028 86.1914C163.548 86.8314 162.904 87.3114 162.096 87.6314C161.296 87.9514 160.408 88.1114 159.432 88.1114ZM170.475 82.0994C170.275 82.0994 169.991 82.0954 169.623 82.0874C169.255 82.0714 168.887 82.0514 168.519 82.0274C168.151 82.0034 167.855 81.9794 167.631 81.9554C167.591 81.1954 167.555 80.3834 167.523 79.5194C167.491 78.6554 167.463 77.7714 167.439 76.8674C167.423 75.9634 167.411 75.0714 167.403 74.1914C167.395 73.3034 167.391 72.4594 167.391 71.6594C167.399 70.8594 167.415 70.1314 167.439 69.4754L171.279 69.6434C171.239 70.0034 171.187 70.5634 171.123 71.3234C171.059 72.0754 170.991 72.9394 170.919 73.9154C170.855 74.8834 170.791 75.8794 170.727 76.9034C170.663 77.9274 170.607 78.8954 170.559 79.8074C170.519 80.7194 170.491 81.4834 170.475 82.0994ZM169.191 87.4634C168.495 87.4634 167.923 87.2554 167.475 86.8394C167.027 86.4234 166.803 85.8954 166.803 85.2554C166.803 84.6154 167.035 84.1154 167.499 83.7554C167.971 83.3874 168.523 83.2034 169.155 83.2034C169.795 83.2034 170.339 83.3954 170.787 83.7794C171.243 84.1634 171.471 84.6514 171.471 85.2434C171.471 85.9234 171.251 86.4634 170.811 86.8634C170.379 87.2634 169.839 87.4634 169.191 87.4634Z" fill="#FF9800"/>
</g>
</g>
<g clip-path="url(#clip3_4552_244988)" filter="url(#filter11_d_4552_244988)">
<rect x="-67.5" y="643.6" width="510" height="0.4" fill="black" fill-opacity="0.1"/>
</g>
</g>
<defs>
<filter id="filter0_d_4552_244988" x="-125" y="420.675" width="625" height="239.326" filterUnits="userSpaceOnUse" color-interpolation-filters="sRGB">
<feFlood flood-opacity="0" result="BackgroundImageFix"/>
<feColorMatrix in="SourceAlpha" type="matrix" values="0 0 0 0 0 0 0 0 0 0 0 0 0 0 0 0 0 0 127 0" result="hardAlpha"/>
<feOffset/>
<feGaussianBlur stdDeviation="8"/>
<feComposite in2="hardAlpha" operator="out"/>
<feColorMatrix type="matrix" values="0 0 0 0 0 0 0 0 0 0 0 0 0 0 0 0 0 0 0.2 0"/>
<feBlend mode="normal" in2="BackgroundImageFix" result="effect1_dropShadow_4552_244988"/>
<feBlend mode="normal" in="SourceGraphic" in2="effect1_dropShadow_4552_244988" result="shape"/>
</filter>
<filter id="filter1_dd_4552_244988" x="17" y="32" width="338" height="784" filterUnits="userSpaceOnUse" color-interpolation-filters="sRGB">
<feFlood flood-opacity="0" result="BackgroundImageFix"/>
<feColorMatrix in="SourceAlpha" type="matrix" values="0 0 0 0 0 0 0 0 0 0 0 0 0 0 0 0 0 0 127 0" result="hardAlpha"/>
<feOffset/>
<feGaussianBlur stdDeviation="1.2"/>
<feComposite in2="hardAlpha" operator="out"/>
<feColorMatrix type="matrix" values="0 0 0 0 1 0 0 0 0 0.95 0 0 0 0 0 0 0 0 1 0"/>
<feBlend mode="normal" in2="BackgroundImageFix" result="effect1_dropShadow_4552_244988"/>
<feColorMatrix in="SourceAlpha" type="matrix" values="0 0 0 0 0 0 0 0 0 0 0 0 0 0 0 0 0 0 127 0" result="hardAlpha"/>
<feOffset/>
<feGaussianBlur stdDeviation="4"/>
<feComposite in2="hardAlpha" operator="out"/>
<feColorMatrix type="matrix" values="0 0 0 0 1 0 0 0 0 1 0 0 0 0 1 0 0 0 0.6 0"/>
<feBlend mode="normal" in2="effect1_dropShadow_4552_244988" result="effect2_dropShadow_4552_244988"/>
<feBlend mode="normal" in="SourceGraphic" in2="effect2_dropShadow_4552_244988" result="shape"/>
</filter>
<filter id="filter2_dd_4552_244988" x="303.539" y="256.398" width="46.3047" height="48.2871" filterUnits="userSpaceOnUse" color-interpolation-filters="sRGB">
<feFlood flood-opacity="0" result="BackgroundImageFix"/>
<feColorMatrix in="SourceAlpha" type="matrix" values="0 0 0 0 0 0 0 0 0 0 0 0 0 0 0 0 0 0 127 0" result="hardAlpha"/>
<feOffset/>
<feGaussianBlur stdDeviation="4"/>
<feComposite in2="hardAlpha" operator="out"/>
<feColorMatrix type="matrix" values="0 0 0 0 1 0 0 0 0 0.972549 0 0 0 0 0.4 0 0 0 1 0"/>
<feBlend mode="normal" in2="BackgroundImageFix" result="effect1_dropShadow_4552_244988"/>
<feColorMatrix in="SourceAlpha" type="matrix" values="0 0 0 0 0 0 0 0 0 0 0 0 0 0 0 0 0 0 127 0" result="hardAlpha"/>
<feOffset/>
<feGaussianBlur stdDeviation="0.4"/>
<feComposite in2="hardAlpha" operator="out"/>
<feColorMatrix type="matrix" values="0 0 0 0 1 0 0 0 0 1 0 0 0 0 1 0 0 0 1 0"/>
<feBlend mode="normal" in2="effect1_dropShadow_4552_244988" result="effect2_dropShadow_4552_244988"/>
<feBlend mode="normal" in="SourceGraphic" in2="effect2_dropShadow_4552_244988" result="shape"/>
</filter>
<filter id="filter3_dd_4552_244988" x="186.199" y="9.00195" width="68.2539" height="72" filterUnits="userSpaceOnUse" color-interpolation-filters="sRGB">
<feFlood flood-opacity="0" result="BackgroundImageFix"/>
<feColorMatrix in="SourceAlpha" type="matrix" values="0 0 0 0 0 0 0 0 0 0 0 0 0 0 0 0 0 0 127 0" result="hardAlpha"/>
<feOffset/>
<feGaussianBlur stdDeviation="4"/>
<feComposite in2="hardAlpha" operator="out"/>
<feColorMatrix type="matrix" values="0 0 0 0 1 0 0 0 0 0.972549 0 0 0 0 0.4 0 0 0 1 0"/>
<feBlend mode="normal" in2="BackgroundImageFix" result="effect1_dropShadow_4552_244988"/>
<feColorMatrix in="SourceAlpha" type="matrix" values="0 0 0 0 0 0 0 0 0 0 0 0 0 0 0 0 0 0 127 0" result="hardAlpha"/>
<feOffset/>
<feGaussianBlur stdDeviation="0.4"/>
<feComposite in2="hardAlpha" operator="out"/>
<feColorMatrix type="matrix" values="0 0 0 0 1 0 0 0 0 1 0 0 0 0 1 0 0 0 1 0"/>
<feBlend mode="normal" in2="effect1_dropShadow_4552_244988" result="effect2_dropShadow_4552_244988"/>
<feBlend mode="normal" in="SourceGraphic" in2="effect2_dropShadow_4552_244988" result="shape"/>
</filter>
<filter id="filter4_dd_4552_244988" x="23.625" y="99.2979" width="45.5059" height="45.54" filterUnits="userSpaceOnUse" color-interpolation-filters="sRGB">
<feFlood flood-opacity="0" result="BackgroundImageFix"/>
<feColorMatrix in="SourceAlpha" type="matrix" values="0 0 0 0 0 0 0 0 0 0 0 0 0 0 0 0 0 0 127 0" result="hardAlpha"/>
<feOffset/>
<feGaussianBlur stdDeviation="4"/>
<feComposite in2="hardAlpha" operator="out"/>
<feColorMatrix type="matrix" values="0 0 0 0 1 0 0 0 0 0.972549 0 0 0 0 0.4 0 0 0 1 0"/>
<feBlend mode="normal" in2="BackgroundImageFix" result="effect1_dropShadow_4552_244988"/>
<feColorMatrix in="SourceAlpha" type="matrix" values="0 0 0 0 0 0 0 0 0 0 0 0 0 0 0 0 0 0 127 0" result="hardAlpha"/>
<feOffset/>
<feGaussianBlur stdDeviation="0.4"/>
<feComposite in2="hardAlpha" operator="out"/>
<feColorMatrix type="matrix" values="0 0 0 0 1 0 0 0 0 1 0 0 0 0 1 0 0 0 1 0"/>
<feBlend mode="normal" in2="effect1_dropShadow_4552_244988" result="effect2_dropShadow_4552_244988"/>
<feBlend mode="normal" in="SourceGraphic" in2="effect2_dropShadow_4552_244988" result="shape"/>
</filter>
<filter id="filter5_i_4552_244988" x="269.584" y="79.3916" width="23.3066" height="26.3955" filterUnits="userSpaceOnUse" color-interpolation-filters="sRGB">
<feFlood flood-opacity="0" result="BackgroundImageFix"/>
<feBlend mode="normal" in="SourceGraphic" in2="BackgroundImageFix" result="shape"/>
<feColorMatrix in="SourceAlpha" type="matrix" values="0 0 0 0 0 0 0 0 0 0 0 0 0 0 0 0 0 0 127 0" result="hardAlpha"/>
<feOffset dy="3.2"/>
<feComposite in2="hardAlpha" operator="arithmetic" k2="-1" k3="1"/>
<feColorMatrix type="matrix" values="0 0 0 0 0 0 0 0 0 0 0 0 0 0 0 0 0 0 0.2 0"/>
<feBlend mode="normal" in2="shape" result="effect1_innerShadow_4552_244988"/>
</filter>
<filter id="filter6_i_4552_244988" x="269.623" y="79.3906" width="23.2695" height="19.9707" filterUnits="userSpaceOnUse" color-interpolation-filters="sRGB">
<feFlood flood-opacity="0" result="BackgroundImageFix"/>
<feBlend mode="normal" in="SourceGraphic" in2="BackgroundImageFix" result="shape"/>
<feColorMatrix in="SourceAlpha" type="matrix" values="0 0 0 0 0 0 0 0 0 0 0 0 0 0 0 0 0 0 127 0" result="hardAlpha"/>
<feOffset dy="3.2"/>
<feComposite in2="hardAlpha" operator="arithmetic" k2="-1" k3="1"/>
<feColorMatrix type="matrix" values="0 0 0 0 0 0 0 0 0 0 0 0 0 0 0 0 0 0 0.2 0"/>
<feBlend mode="normal" in2="shape" result="effect1_innerShadow_4552_244988"/>
</filter>
<filter id="filter7_i_4552_244988" x="271.387" y="89.6035" width="7.0918" height="8.6709" filterUnits="userSpaceOnUse" color-interpolation-filters="sRGB">
<feFlood flood-opacity="0" result="BackgroundImageFix"/>
<feBlend mode="normal" in="SourceGraphic" in2="BackgroundImageFix" result="shape"/>
<feColorMatrix in="SourceAlpha" type="matrix" values="0 0 0 0 0 0 0 0 0 0 0 0 0 0 0 0 0 0 127 0" result="hardAlpha"/>
<feOffset dx="1.6" dy="1.6"/>
<feComposite in2="hardAlpha" operator="arithmetic" k2="-1" k3="1"/>
<feColorMatrix type="matrix" values="0 0 0 0 0 0 0 0 0 0 0 0 0 0 0 0 0 0 0.25 0"/>
<feBlend mode="normal" in2="shape" result="effect1_innerShadow_4552_244988"/>
</filter>
<filter id="filter8_i_4552_244988" x="277.686" y="86.7051" width="7.41602" height="8.75" filterUnits="userSpaceOnUse" color-interpolation-filters="sRGB">
<feFlood flood-opacity="0" result="BackgroundImageFix"/>
<feBlend mode="normal" in="SourceGraphic" in2="BackgroundImageFix" result="shape"/>
<feColorMatrix in="SourceAlpha" type="matrix" values="0 0 0 0 0 0 0 0 0 0 0 0 0 0 0 0 0 0 127 0" result="hardAlpha"/>
<feOffset dx="1.6" dy="1.6"/>
<feComposite in2="hardAlpha" operator="arithmetic" k2="-1" k3="1"/>
<feColorMatrix type="matrix" values="0 0 0 0 0 0 0 0 0 0 0 0 0 0 0 0 0 0 0.25 0"/>
<feBlend mode="normal" in2="shape" result="effect1_innerShadow_4552_244988"/>
</filter>
<filter id="filter9_i_4552_244988" x="274.41" y="94.3447" width="11.9316" height="10.4326" filterUnits="userSpaceOnUse" color-interpolation-filters="sRGB">
<feFlood flood-opacity="0" result="BackgroundImageFix"/>
<feBlend mode="normal" in="SourceGraphic" in2="BackgroundImageFix" result="shape"/>
<feColorMatrix in="SourceAlpha" type="matrix" values="0 0 0 0 0 0 0 0 0 0 0 0 0 0 0 0 0 0 127 0" result="hardAlpha"/>
<feOffset dy="2.4"/>
<feComposite in2="hardAlpha" operator="arithmetic" k2="-1" k3="1"/>
<feColorMatrix type="matrix" values="0 0 0 0 0 0 0 0 0 0 0 0 0 0 0 0 0 0 0.2 0"/>
<feBlend mode="normal" in2="shape" result="effect1_innerShadow_4552_244988"/>
</filter>
<filter id="filter10_i_4552_244988" x="278.221" y="98.792" width="5.01367" height="5.28125" filterUnits="userSpaceOnUse" color-interpolation-filters="sRGB">
<feFlood flood-opacity="0" result="BackgroundImageFix"/>
<feBlend mode="normal" in="SourceGraphic" in2="BackgroundImageFix" result="shape"/>
<feColorMatrix in="SourceAlpha" type="matrix" values="0 0 0 0 0 0 0 0 0 0 0 0 0 0 0 0 0 0 127 0" result="hardAlpha"/>
<feOffset dx="3.2" dy="-0.8"/>
<feComposite in2="hardAlpha" operator="arithmetic" k2="-1" k3="1"/>
<feColorMatrix type="matrix" values="0 0 0 0 0 0 0 0 0 0 0 0 0 0 0 0 0 0 0.2 0"/>
<feBlend mode="normal" in2="shape" result="effect1_innerShadow_4552_244988"/>
</filter>
<filter id="filter11_d_4552_244988" x="-87.5" y="619.6" width="550" height="40.4004" filterUnits="userSpaceOnUse" color-interpolation-filters="sRGB">
<feFlood flood-opacity="0" result="BackgroundImageFix"/>
<feColorMatrix in="SourceAlpha" type="matrix" values="0 0 0 0 0 0 0 0 0 0 0 0 0 0 0 0 0 0 127 0" result="hardAlpha"/>
<feOffset dy="-4"/>
<feGaussianBlur stdDeviation="10"/>
<feComposite in2="hardAlpha" operator="out"/>
<feColorMatrix type="matrix" values="0 0 0 0 0 0 0 0 0 0 0 0 0 0 0 0 0 0 0.6 0"/>
<feBlend mode="normal" in2="BackgroundImageFix" result="effect1_dropShadow_4552_244988"/>
<feBlend mode="normal" in="SourceGraphic" in2="effect1_dropShadow_4552_244988" result="shape"/>
</filter>
<radialGradient id="paint0_radial_4552_244988" cx="0" cy="0" r="1" gradientUnits="userSpaceOnUse" gradientTransform="translate(293.022 111.795) rotate(143.3) scale(37.0737 37.7066)">
<stop stop-color="white"/>
<stop offset="0.31" stop-color="#F2F2F2"/>
<stop offset="1"/>
</radialGradient>
<linearGradient id="paint1_linear_4552_244988" x1="304.193" y1="127.407" x2="270.358" y2="82.0179" gradientUnits="userSpaceOnUse">
<stop stop-color="#85FFCF"/>
<stop offset="0.423" stop-color="#D2FD51"/>
<stop offset="1" stop-color="#F9C448"/>
</linearGradient>
<linearGradient id="paint2_linear_4552_244988" x1="306.396" y1="60.054" x2="239.826" y2="109.935" gradientUnits="userSpaceOnUse">
<stop stop-color="white"/>
<stop offset="0.763" stop-color="#D8EDDD"/>
<stop offset="1" stop-color="#00B26B"/>
</linearGradient>
<linearGradient id="paint3_linear_4552_244988" x1="288.263" y1="103.226" x2="270.247" y2="78.7213" gradientUnits="userSpaceOnUse">
<stop stop-color="#FF9800"/>
<stop offset="0.538" stop-color="#FFEE2F"/>
</linearGradient>
<linearGradient id="paint4_linear_4552_244988" x1="272.165" y1="79.055" x2="283.128" y2="105.638" gradientUnits="userSpaceOnUse">
<stop stop-color="#206D33"/>
<stop offset="0.47991" stop-color="#EFEFEF"/>
</linearGradient>
<linearGradient id="paint5_linear_4552_244988" x1="281.77" y1="76.3495" x2="268.177" y2="86.1905" gradientUnits="userSpaceOnUse">
<stop offset="1" stop-color="#298B41"/>
</linearGradient>
<radialGradient id="paint6_radial_4552_244988" cx="0" cy="0" r="1" gradientUnits="userSpaceOnUse" gradientTransform="translate(274.741 81.5218) rotate(145.011) scale(8.38763 7.05956)">
<stop offset="0.409263" stop-color="#51A63B"/>
<stop offset="1" stop-color="#298B41"/>
</radialGradient>
<linearGradient id="paint7_linear_4552_244988" x1="288.263" y1="103.226" x2="270.247" y2="78.7213" gradientUnits="userSpaceOnUse">
<stop stop-color="#FFED66" stop-opacity="0.8"/>
<stop offset="0.428" stop-color="white" stop-opacity="0"/>
</linearGradient>
<radialGradient id="paint8_radial_4552_244988" cx="0" cy="0" r="1" gradientUnits="userSpaceOnUse" gradientTransform="translate(287.724 103.74) rotate(-125.661) scale(30.5117 20.352)">
<stop offset="0.393" stop-color="white"/>
<stop offset="0.883" stop-color="#FF9800"/>
<stop offset="0.99" stop-color="#F26722"/>
</radialGradient>
<clipPath id="clip0_4552_244988">
<rect width="375" height="644" fill="white"/>
</clipPath>
<clipPath id="clip1_4552_244988">
<rect width="593" height="668" fill="white" transform="matrix(-1 -8.74228e-08 -8.74228e-08 1 484 -24)"/>
</clipPath>
<clipPath id="clip2_4552_244988">
<rect x="25" y="40" width="322" height="768" rx="16" fill="white"/>
</clipPath>
<clipPath id="clip3_4552_244988">
<rect width="510" height="0.4" fill="white" transform="translate(-67.5 643.6)"/>
</clipPath>
</defs>
</svg>
