<svg width="667" height="169" viewBox="0 0 667 169" fill="none" xmlns="http://www.w3.org/2000/svg">
<g filter="url(#filter0_di_3522_154845)">
<rect x="2" width="663" height="165" rx="20" fill="#D8EDDD"/>
</g>
<path d="M510.243 93.4379C515.669 94.9574 519.798 88.5495 516.171 84.2362C514.189 81.8796 514.425 78.3779 516.705 76.3086L526.858 67.0944C527.695 66.3344 528.458 65.4963 529.137 64.5914C534.244 57.778 533.805 48.3007 528.09 41.9886L526.29 40.0002C522.537 35.8555 520.813 30.2612 521.583 24.7233C521.806 23.1192 522.234 21.5505 522.857 20.0557L524.202 16.8285C525.743 13.1306 528.36 9.98086 531.712 7.78731L538.624 3.26434C541.88 1.13442 545.685 0 549.575 0H645C656.046 0 665 8.95431 665 20V141C665 152.046 656.046 161 645 161H500.583C499.313 161 498.047 160.879 496.8 160.639L485.52 158.467C480.998 157.596 476.916 155.192 473.962 151.66L471.65 148.896C469.718 146.587 468.333 143.872 467.597 140.952L464.583 128.994L463.228 122.751C462.426 119.053 462.689 115.205 463.986 111.651L465.785 106.723C466.696 104.228 468.095 101.939 469.901 99.99L471.941 97.7869C473.565 96.0341 475.49 94.5864 477.625 93.5125L479.97 92.3325C482.759 90.9295 485.837 90.1988 488.959 90.1988H497.431C498.256 90.1988 499.077 90.3116 499.871 90.534L510.243 93.4379Z" fill="url(#paint0_linear_3522_154845)"/>
<g filter="url(#filter1_d_3522_154845)">
<path d="M558.404 78.4805L577.819 72.3652C577.819 72.3652 608.298 80.6943 613.71 82.632C614.132 82.783 614.585 87.7992 606.985 86.148C599.995 84.627 583.106 82.757 583.106 82.757L580.059 86.7418L558.404 78.4805Z" fill="#D8EDDD"/>
<path d="M558.404 76.2661L577.819 70.1509C577.819 70.1509 611.752 81.6521 613.236 82.2824C615.023 83.0377 612.325 84.9702 606.985 83.9336C599.963 82.5689 583.106 80.5426 583.106 80.5426L580.059 84.5274L558.404 76.2661Z" fill="#FFF2DF"/>
<path d="M493.925 52.5803L465.774 54.8462C465.285 54.8879 465.066 55.4765 465.415 55.8255L485.309 75.8693C485.486 76.0464 485.7 76.1819 485.934 76.2704L575.542 109.425L584.268 85.8391L494.659 52.6845C494.425 52.596 494.175 52.5647 493.925 52.5856V52.5803Z" fill="#FCEDCD"/>
<path d="M494.66 52.6797C494.66 52.6797 488.888 53.9663 487.763 58.0032C487.112 60.3524 488.31 62.2432 489.425 63.4152C489.946 63.9622 489.737 64.8789 489.029 65.1446C487.674 65.655 485.825 66.7854 484.163 69.2961C482.054 72.4891 485.934 76.2656 485.934 76.2656L575.543 109.42L584.268 85.8343L494.66 52.6797Z" fill="#FF9800"/>
<path d="M584.264 85.8447L593.131 89.1263C597.386 90.701 599.566 95.4348 597.989 99.6946L594.97 107.853C593.395 112.108 588.661 114.288 584.401 112.711L575.534 109.43L584.264 85.8447Z" fill="#FF6047"/>
<path d="M568.901 108.071L579.98 112.322C579.98 112.322 580.85 112.483 580.923 111.66C581.642 103.467 585.049 94.8197 588.873 87.5377L589.847 87.8971C590.17 86.6418 589.378 86.4751 589.378 86.4751L578.678 82.5163C578.298 82.3757 577.871 82.5372 577.678 82.8966C572.474 89.7515 569.463 98.5753 568.671 107.227C568.614 107.826 568.755 108.014 568.901 108.066V108.071Z" fill="#3A3335"/>
<path d="M465.416 55.8192L471.656 62.1063C471.281 60.3249 471.411 58.5226 472.052 57.2568C473.646 54.1263 474.756 54.1211 474.756 54.1211L465.78 54.8451C465.291 54.8868 465.072 55.4754 465.421 55.8244L465.416 55.8192Z" fill="#241530"/>
<path d="M486.504 66.3027L570.597 97.1894C573.879 100.294 578.359 101.799 582.849 101.299L583.073 101.273C583.073 101.273 589.173 113.816 597.992 99.6845C599.57 95.4236 597.393 90.6939 593.132 89.1156L589.34 87.7144L589.845 87.9019C590.168 86.6466 589.376 86.4799 589.376 86.4799L578.676 82.5212C578.296 82.3805 577.869 82.542 577.676 82.9014C577.577 83.0316 577.489 83.1618 577.39 83.2921L494.657 52.6794C494.423 52.5908 494.173 52.5596 493.923 52.5804L474.732 54.1223L465.772 54.8411C465.59 54.8567 465.444 54.9505 465.35 55.0755C465.335 55.1015 465.324 55.1276 465.309 55.1536L486.504 66.3027Z" fill="white" fill-opacity="0.6"/>
<path d="M595.653 103.456C593.991 107.951 591.965 111.342 591.126 111.034C590.293 110.727 590.96 106.831 592.627 102.336C594.294 97.8403 596.315 94.4493 597.153 94.7566C597.987 95.064 597.32 98.9602 595.653 103.456Z" fill="black" fill-opacity="0.2"/>
<path d="M535.838 91.1675L565.333 99.8351V103.393L559.499 116.405L581.481 131.911V135.469C581.481 135.469 581.257 138.386 576.548 136.928C571.839 135.469 542.902 120.78 542.902 120.78C542.902 120.78 532.249 101.492 535.838 91.1727V91.1675Z" fill="#D8EDDD"/>
<path d="M535.838 87.6099L565.333 99.8351L559.499 112.847L581.481 131.912C581.481 131.912 581.257 134.828 576.548 133.37C571.839 131.912 542.902 117.222 542.902 117.222C542.902 117.222 532.249 97.9339 535.838 87.6151V87.6099Z" fill="#FFF2DF"/>
<g style="mix-blend-mode:hard-light" opacity="0.66">
<path d="M596.165 110.336C596.165 110.336 596.139 113.43 600.484 118.675C604.828 123.916 610.694 124.952 610.485 124.884C610.314 124.827 609.22 119.952 608.829 118.196C608.777 117.967 609.027 117.785 609.23 117.91C611.012 119.004 616.835 122.421 620.862 122.843C621.138 122.874 621.341 122.593 621.232 122.337C620.404 120.327 617.367 113.342 614.491 111.31C614.413 111.253 614.455 111.128 614.549 111.128H616.585C616.815 111.128 616.976 110.904 616.903 110.69C616.2 108.612 612.606 98.6473 600.025 99.8974L596.16 110.336H596.165Z" fill="#F9FBFC"/>
</g>
<g style="mix-blend-mode:hard-light">
<path d="M609.137 109.378C609.663 109.295 610.179 109.071 610.283 108.487C610.413 107.758 609.491 107.279 608.944 107.034C607.064 106.19 604.975 106.701 603.084 107.216C602.823 107.289 602.954 107.617 603.193 107.555C604.49 107.206 605.829 106.826 607.184 106.94C607.845 106.997 608.507 107.159 609.09 107.492C609.512 107.732 610.043 108.076 609.814 108.654C609.642 109.091 608.918 109.091 608.533 109.102C608.371 109.102 608.246 109.326 608.434 109.409C610.283 110.196 611.565 111.956 611.762 113.946C610.085 112.592 608.142 111.592 606.048 111.055C605.933 111.024 605.761 111.144 605.85 111.274C607.126 112.993 606.913 115.196 606.631 117.202C605.313 116.347 604.042 115.384 603.501 113.842C602.975 112.347 602.995 110.722 602.339 109.263C602.292 109.164 602.089 109.201 602.136 109.31C602.829 110.951 602.657 112.821 603.412 114.446C604.074 115.868 605.392 116.764 606.673 117.582C606.777 117.65 606.908 117.566 606.923 117.462C607.21 115.436 607.444 113.285 606.366 111.472C608.376 112.092 610.231 113.081 611.835 114.457C611.934 114.54 612.158 114.503 612.158 114.342C612.106 112.274 610.929 110.373 609.137 109.383V109.378Z" fill="#F9FBFC"/>
</g>
<path d="M612.82 127.832C608.903 126.968 605.356 125.728 602.162 123.212C599.084 120.785 596.604 117.545 595.12 113.909C595.057 113.748 594.745 113.805 594.807 113.982C597.495 121.248 604.772 127.707 612.763 128.166C612.982 128.176 613.039 127.879 612.815 127.827L612.82 127.832Z" fill="#F9FBFC"/>
<path d="M620.897 125.436C617.996 124.988 615.48 124.322 612.87 122.931C612.75 122.868 612.557 123.025 612.693 123.124C614.99 124.723 618.022 125.817 620.84 125.78C621.054 125.78 621.132 125.473 620.892 125.436H620.897Z" fill="#F9FBFC"/>
<path d="M618.245 112.419C618.109 112.315 617.87 112.481 618.021 112.607C620.928 115.018 622.308 118.076 623.199 121.654C623.241 121.811 623.543 121.785 623.532 121.618C623.324 118.013 621.011 114.591 618.24 112.419H618.245Z" fill="#F9FBFC"/>
<path d="M619.502 108.174C618.809 105.112 616.7 102.205 614.381 100.158C614.251 100.043 614.012 100.205 614.152 100.351C616.481 102.7 617.851 105.257 619.174 108.253C619.247 108.419 619.549 108.372 619.502 108.174Z" fill="#F9FBFC"/>
<path d="M615.236 98.1629C615.137 98.1004 614.981 98.2358 615.09 98.3244C617.648 100.33 618.971 102.794 619.705 105.914C619.742 106.075 620.06 106.049 620.049 105.872C619.856 102.773 617.82 99.7933 615.236 98.1629Z" fill="#F9FBFC"/>
<path d="M602.608 126.603C599.107 124.353 596.242 121.707 594.33 117.951C594.278 117.852 594.059 117.915 594.111 118.029C595.836 121.681 598.742 125.087 602.457 126.822C602.613 126.895 602.774 126.707 602.608 126.603Z" fill="#F9FBFC"/>
</g>
<g style="mix-blend-mode:multiply" opacity="0.21">
<path d="M513.27 51.3592C512.733 50.9789 512.207 50.5831 511.691 50.1768C512.238 50.5414 512.764 50.9373 513.27 51.3592Z" fill="#F2AFCF"/>
</g>
<g style="mix-blend-mode:multiply" opacity="0.21">
<path d="M518.665 56.1408C518.732 56.1669 518.805 56.1929 518.873 56.219C518.727 56.3804 518.503 56.5211 518.18 56.5159C517.592 56.5107 517.232 56.2138 517.05 55.7397C517.571 55.9168 518.102 56.0627 518.659 56.1408H518.665Z" fill="#F2AFCF"/>
</g>
<g filter="url(#filter2_d_3522_154845)">
<path d="M543.739 60.1791C543.739 60.1791 544.474 56.7256 548.698 52.6835C550.954 50.5218 552.558 50.1364 553.709 49.9489C554.189 49.8707 554.579 48.5477 554.204 48.2351C553.105 47.3132 550.907 46.6881 547.828 48.8394C543.145 52.1105 541.088 58.0747 541.14 59.5489C541.192 61.023 543.734 60.1843 543.734 60.1843L543.739 60.1791Z" fill="white"/>
<g style="mix-blend-mode:multiply" opacity="0.28">
<path d="M548.697 52.678C550.953 50.5163 552.557 50.1308 553.709 49.9433C554.047 49.886 554.334 49.2193 554.344 48.7192C553.573 48.6359 552.422 48.7296 551.125 49.6672C548.901 51.2768 544.613 56.8607 544.15 55.0272C543.9 54.0271 544.28 52.7717 544.676 51.8341C542.212 54.923 541.097 58.4546 541.134 59.5433C541.186 61.0226 543.728 60.1788 543.728 60.1788C543.728 60.1788 544.462 56.7253 548.687 52.6832L548.697 52.678Z" fill="#B0BBEA"/>
</g>
<g style="mix-blend-mode:multiply" opacity="0.57">
<path d="M544.835 69.4041C544.835 69.4041 540.532 74.5974 542.309 79.2646C543.496 82.3847 547.747 83.4265 547.747 83.4265L545.549 89.7813L553.436 88.4322V74.2536L544.835 69.3989V69.4041Z" fill="#D69230"/>
</g>
<g style="mix-blend-mode:multiply" opacity="0.57">
<path d="M505.148 59.1222C505.148 59.1222 503.523 67.3314 517.166 71.6965C523.891 73.8478 532.877 69.4046 532.877 69.4046C532.877 69.4046 526.61 72.2226 526.349 73.0821C526.089 73.9415 527.907 74.6968 527.907 74.6968C527.907 74.6968 526.131 74.5301 525.719 75.1448C525.308 75.7594 528.225 76.2647 528.225 76.2647C528.225 76.2647 525.745 77.3169 526.089 77.8326C526.433 78.3535 529.501 77.2179 529.501 77.2179C529.501 77.2179 527.126 78.8691 527.735 79.2598C528.11 79.4994 535.361 77.6763 540.539 75.1448C543.743 73.5769 545.9 70.8422 545.9 70.8422L508.461 57.7783L505.153 59.117L505.148 59.1222Z" fill="#D69230"/>
</g>
<path d="M548.629 48.6621C548.629 48.6621 549.692 41.5572 543.805 35.9681C536.549 29.0819 517.15 28.7642 508.461 42.052C499.772 55.3399 516.702 65.0702 525.609 65.44C534.517 65.8098 540.977 60.3926 540.977 60.3926C540.977 60.3926 544.54 49.9227 548.624 48.6621H548.629Z" fill="white"/>
<g style="mix-blend-mode:multiply" opacity="0.28">
<path d="M548.63 48.6625C548.63 48.6625 548.677 48.3604 548.693 47.8343C540.54 56.2519 538.102 41.5263 534.232 37.9687C530.096 34.1714 526.861 35.2496 525.767 33.8797C525.329 33.3275 526.507 32.3326 528.075 31.3325C520.803 31.7388 513.103 34.9527 508.462 42.0524C506.259 45.4226 505.706 48.5635 506.248 51.3816C515.27 55.9654 532.211 63.5391 540.671 60.643C540.874 60.4867 540.983 60.3982 540.983 60.3982C540.983 60.3982 544.546 49.9283 548.63 48.6677V48.6625Z" fill="#B0BBEA"/>
</g>
<path d="M508.915 41.2509C500.945 48.8454 502.399 61.3832 509.452 66.7588C516.542 72.1552 534.394 75.2337 541.64 60.4196C549.891 43.5584 524.486 26.4055 508.915 41.2509Z" fill="white"/>
<path d="M514.703 39.6561C513.344 40.4166 512.026 41.3594 510.781 42.5262C503.201 49.5791 504.582 61.2262 511.291 66.2163C516.011 69.7271 525.747 72.1701 533.524 68.602C536.321 67.0185 538.791 64.5703 540.582 60.997C547.552 47.0788 529.258 32.9523 514.703 39.6561Z" fill="#D3D9E8"/>
<path d="M510.554 43.1255C505.439 47.5166 504.918 60.3722 511.565 65.4613C518.212 70.5451 533.698 74.4049 540.538 60.419C547.378 46.4332 526.916 29.0875 510.554 43.1255Z" fill="#FF9800"/>
<g filter="url(#filter3_i_3522_154845)">
<path d="M518.83 65.6464C514.555 62.6908 513.463 57.6311 513.451 55.4706C512.447 53.8196 510.64 49.7416 511.445 46.6385C512.452 42.7596 517.26 40.6588 520.616 41.7346C526.333 38.8882 532.239 42.1137 534.478 44.0822C544.289 49.1217 542.295 62.5452 535.549 67.4475C528.803 72.3498 521.459 70.0709 518.83 65.6464Z" fill="url(#paint1_linear_3522_154845)"/>
</g>
<g filter="url(#filter4_i_3522_154845)">
<path d="M518.83 65.6464C514.555 62.6908 513.463 57.6311 513.451 55.4706C512.447 53.8196 510.64 49.7416 511.445 46.6385C512.452 42.7596 517.26 40.6588 520.616 41.7346C526.333 38.8882 532.239 42.1137 534.478 44.0822C537.492 45.6301 539.391 47.9691 540.382 50.6091C539.752 50.049 537.712 48.9902 534.592 49.2359C531.473 49.4817 528.291 52.3244 527.09 53.7151C524.381 52.0576 521.071 51.9626 520.398 52.7799C519.725 53.5973 520.262 55.7574 521.798 57.9091C518.316 61.6444 518.804 65.2489 519.483 66.5842C519.241 66.2845 519.023 65.9712 518.83 65.6464Z" fill="#51A63B"/>
</g>
<g filter="url(#filter5_i_3522_154845)">
<ellipse cx="520.747" cy="58.8229" rx="4.16116" ry="5.20974" transform="rotate(-38.4166 520.747 58.8229)" fill="white"/>
</g>
<ellipse cx="521.574" cy="60.6799" rx="2.55193" ry="2.55193" transform="rotate(-19.5737 521.574 60.6799)" fill="#C57125"/>
<ellipse cx="520.73" cy="60.2791" rx="1.40461" ry="1.40461" transform="rotate(-19.5737 520.73 60.2791)" fill="black"/>
<ellipse cx="520.655" cy="58.9472" rx="0.616615" ry="0.616615" transform="rotate(-19.5737 520.655 58.9472)" fill="white"/>
<g filter="url(#filter6_i_3522_154845)">
<ellipse cx="526.446" cy="52.6239" rx="4.41414" ry="5.20974" transform="rotate(-32.8412 526.446 52.6239)" fill="white"/>
</g>
<ellipse cx="526.845" cy="54.4558" rx="2.55193" ry="2.55193" transform="rotate(-19.5737 526.845 54.4558)" fill="#C57125"/>
<ellipse cx="525.873" cy="54.2478" rx="1.40201" ry="1.40201" transform="rotate(-19.5737 525.873 54.2478)" fill="black"/>
<circle cx="526.433" cy="52.7984" r="0.715055" transform="rotate(-19.5737 526.433 52.7984)" fill="white"/>
<g filter="url(#filter7_i_3522_154845)">
<path d="M530.85 55.3475C529.915 55.4611 527.53 56.0539 525.476 57.516C523.085 59.2991 521.851 63.7922 523.928 67.4619C525.161 65.788 526.021 65.1732 526.297 65.075C526.927 64.8598 528.748 65.2418 530.987 68.4914C535.673 66.4069 534.579 60.5857 534.132 59.3288C534.484 58.3273 535.144 56.6526 533.791 55.2027C532.71 54.0428 531.38 54.8159 530.85 55.3475Z" fill="#F1BD18"/>
</g>
<path d="M531.045 68.5555C529.479 66.1703 527.214 64.7368 526.184 65.1029C531.208 61.6091 532.031 61.4775 532.26 58.4232C533.242 61.7195 532.581 66.0121 531.045 68.5555Z" fill="#BF800F"/>
<g filter="url(#filter8_i_3522_154845)">
<path d="M531.944 60.2145C531.479 61.6925 529.12 63.0698 527.416 64.2416C528.082 64.2133 529.798 64.8068 531.331 67.4063C533.091 65.6709 533.645 62.1457 531.944 60.2145Z" fill="#7B2C25"/>
</g>
<path d="M509.43 53.42C507.961 47.5267 511.949 44.9179 514.296 44.5526C514.406 45.3743 514.586 48.848 515.058 50.5268C515.647 52.6252 513.245 55.8973 512.209 55.4049C511.381 55.011 511.404 53.0056 511.519 52.0521C510.947 52.6906 510.249 53.21 509.43 53.42Z" fill="url(#paint2_linear_3522_154845)"/>
<path d="M509.443 53.8839C507.973 47.9907 512.302 45.7868 514.649 45.4214C514.759 46.2431 515.096 48.3062 515.568 49.9849C516.157 52.0833 513.258 56.3613 512.222 55.8689C511.394 55.475 511.417 53.4696 511.532 52.5161C510.959 53.1546 510.262 53.6739 509.443 53.8839Z" fill="url(#paint3_radial_3522_154845)"/>
<path fill-rule="evenodd" clip-rule="evenodd" d="M523.994 46.6946C523.477 46.8625 522.883 47.1502 522.254 47.5799C521.547 48.0624 521.124 48.7879 520.892 49.4522C520.662 50.1077 520.595 50.7717 520.664 51.1899C520.706 51.4467 520.948 51.6207 521.205 51.5785C521.462 51.5363 521.636 51.294 521.593 51.0372C521.557 50.8169 521.588 50.3166 521.781 49.7634C521.972 49.219 522.297 48.6916 522.785 48.3583C523.351 47.9723 523.864 47.7276 524.285 47.5908C524.717 47.4503 525.015 47.4349 525.164 47.4621C525.42 47.509 525.665 47.3395 525.712 47.0835C525.759 46.8276 525.59 46.582 525.334 46.5352C524.968 46.4683 524.499 46.5302 523.994 46.6946ZM518.771 53.2516C518.691 53.0038 518.426 52.8675 518.178 52.9471C517.502 53.1643 516.391 53.8334 515.754 54.813C515.433 55.3058 515.208 55.9061 515.074 56.4487C514.943 56.9783 514.883 57.5218 514.947 57.8953C514.991 58.1518 515.235 58.3238 515.492 58.2795C515.748 58.2353 515.92 57.9915 515.876 57.7351C515.845 57.5532 515.869 57.1605 515.989 56.6745C516.105 56.2016 516.296 55.707 516.544 55.327C517.042 54.5613 517.957 54.0081 518.466 53.8444C518.714 53.7648 518.851 53.4994 518.771 53.2516Z" fill="black" fill-opacity="0.2"/>
<path d="M532.242 66.165C530.46 65.863 529.678 63.8131 529.51 62.8259C529.829 62.57 530.125 62.4009 530.464 62.0879C530.554 63.7506 531.27 64.6001 531.334 64.5353C531.397 64.4708 530.964 63.5804 530.757 61.8402C531.215 61.326 531.837 60.4947 531.943 60.2073C533.675 62.2588 532.829 65.0949 532.242 66.165Z" fill="#A9524C"/>
<path d="M528.212 71.253C518.482 73.9176 508.53 68.5423 505.983 59.247C503.436 49.9517 509.259 40.2563 518.989 37.5917C528.72 34.9271 538.672 40.3024 541.219 49.5977C543.765 58.8931 537.942 68.5885 528.212 71.253Z" fill="url(#paint4_linear_3522_154845)"/>
<path opacity="0.71" d="M519.087 57.9388C514.523 53.4956 513.127 45.6927 515.237 39.9785C513.659 40.7703 512.085 41.812 510.554 43.1299C505.439 47.521 504.918 60.3766 511.565 65.4656C518.113 70.4766 533.599 74.701 541.148 59.5483C537.73 58.1159 526.437 65.101 519.087 57.944V57.9388Z" fill="white" fill-opacity="0.2"/>
<path opacity="0.71" d="M513.803 63.2203C507.813 58.6365 507.651 47.7343 511.423 42.416C511.131 42.6452 510.844 42.8796 510.558 43.1244C505.442 47.5155 504.922 60.3711 511.568 65.4602C517.486 69.9919 530.421 73.534 538.01 64.3715C530.322 70.6326 519.179 67.3302 513.808 63.2203H513.803Z" fill="white" fill-opacity="0.6"/>
<path opacity="0.69" d="M532.597 49.667L536.269 47.4064C533.498 42.01 523.804 38.4262 521.027 40.8067C521.027 40.8067 530.128 43.5518 532.602 49.6723L532.597 49.667Z" fill="white" fill-opacity="0.6"/>
<path opacity="0.69" d="M537.249 49.8286L533.785 51.6517L534.853 55.9386L538.932 54.1728C538.932 54.1728 539 51.7872 537.249 49.8286Z" fill="white" fill-opacity="0.6"/>
<path d="M543.082 60.1785C540.056 59.1159 537.482 61.0015 536.446 63.4497C535.404 65.8979 534.029 70.9557 530.611 72.3256C530.611 72.3256 532.247 74.279 533.476 77.2272C533.476 77.2272 539.701 76.6386 543.541 71.8881C547.38 67.1376 547.187 61.6266 543.087 60.1837L543.082 60.1785Z" fill="white"/>
<path d="M531.01 72.6221C531.379 72.5804 528.066 72.6117 527.384 72.7523C526.754 72.8825 526.587 74.216 527.67 74.3514C528.754 74.4869 528.212 74.6692 527.988 74.8046C527.764 74.94 525.597 75.2109 525.733 76.112C525.868 77.0132 528.301 76.112 528.301 76.112C528.525 76.4298 526.004 76.7892 526.316 77.7372C526.634 78.6852 528.749 77.5549 529.113 77.4663C529.473 77.3778 527.374 78.4196 527.936 79.1384C528.499 79.8572 530.239 78.8623 531.004 78.2789C531.77 77.6903 533.901 77.2267 533.901 77.2267L531.01 72.6273V72.6221Z" fill="white"/>
<path d="M538.352 75.7012C538.352 75.7012 538.014 76.1231 537.295 76.2638C536.576 76.4044 535.883 72.3206 537.821 70.8413C539.759 69.362 543.738 69.8829 544.452 70.6225C545.161 71.3622 538.352 75.7012 538.352 75.7012Z" fill="#A2A4BD"/>
<path d="M538.35 75.701C538.35 75.701 537.626 72.6329 539.924 71.6276C542.221 70.6275 543.737 71.6276 543.737 71.6276C543.737 71.6276 542.122 75.3832 538.35 75.701Z" fill="#D3D9E8"/>
<path d="M531.36 71.4875C531.36 71.4875 533.095 71.2427 534.21 74.2951C534.923 76.2536 534.876 78.134 533.376 78.1548C532.626 78.1653 532.412 77.3891 532.412 77.3891C532.412 77.3891 532.366 76.488 531.662 75.0868C530.959 73.6856 529.959 72.7376 529.959 72.7376C528.802 72.2532 529.985 70.6384 531.355 71.4927L531.36 71.4875Z" fill="#D3D9E8"/>
<path d="M530.321 74.0447C530.243 73.8676 529.941 73.9144 529.978 74.128C530.056 74.602 530.306 75.0343 530.462 75.4875C530.639 75.998 530.665 76.5606 530.874 77.0554C530.936 77.2013 531.249 77.2533 531.28 77.0554C531.447 76.0032 530.738 74.9666 530.321 74.0447Z" fill="#D3D9E8"/>
<path d="M529.506 74.7213C529.376 74.5389 529.001 74.6848 529.146 74.9036C529.423 75.3203 529.641 75.763 529.777 76.2422C529.902 76.6798 529.891 77.1434 530.037 77.5705C530.089 77.7268 530.381 77.7424 530.428 77.5705C530.678 76.6329 530.042 75.4557 529.511 74.7213H529.506Z" fill="#D3D9E8"/>
<g style="mix-blend-mode:multiply" opacity="0.28">
<path d="M539.558 65.0906C539.86 64.4447 540.209 63.8248 540.626 63.2518C540.948 62.4236 541.428 61.6683 542.173 61.2568C542.22 61.2151 542.272 61.1787 542.324 61.1422C541.923 60.3244 541.209 59.9702 540.266 59.939C538.245 60.4182 536.583 63.1268 536.448 63.4446C535.552 65.5542 534.401 69.6015 531.911 71.5548C531.582 71.461 531.358 71.4871 531.358 71.4871C530.087 70.6901 528.978 72.034 529.759 72.6122C528.858 72.6278 527.748 72.6747 527.384 72.7476C526.753 72.8779 526.587 74.2113 527.67 74.3468C528.754 74.4822 528.212 74.6645 527.988 74.7999C527.785 74.9197 526.024 75.1541 525.764 75.8521C525.79 75.8521 525.816 75.8521 525.847 75.8626C526.014 75.9303 526.175 75.9667 526.342 75.9876C526.571 75.9772 526.806 75.9772 527.03 75.9615C527.41 75.899 527.79 75.7792 528.165 75.7011C528.493 75.6334 528.603 76.0501 528.316 76.1907C528.306 76.1959 528.29 76.2011 528.28 76.2063C528.024 76.5033 526.029 76.8783 526.316 77.7273C526.352 77.8419 526.42 77.9305 526.509 77.9878C526.404 77.8367 526.514 77.545 526.759 77.5659C526.915 77.5815 527.087 77.5919 527.264 77.5919C527.78 77.4877 528.269 77.2221 528.676 76.8939C528.884 76.7272 529.144 77.0189 529.03 77.2273C528.946 77.3783 528.848 77.5034 528.733 77.6075C528.91 77.5346 529.045 77.4773 529.113 77.4617C529.337 77.4044 528.618 77.7846 528.176 78.2482C529.483 77.5502 530.801 76.8627 532.098 76.1543C532.239 75.9719 532.369 75.7844 532.473 75.5865C532.457 75.5448 532.452 75.4979 532.468 75.4458C532.65 74.8885 532.65 74.2999 532.749 73.7321C532.749 73.6644 532.754 73.5967 532.76 73.529C532.76 73.4613 532.791 73.404 532.838 73.3571C532.874 73.2321 532.916 73.1071 532.978 72.982C533.036 72.857 533.197 72.8049 533.317 72.8674C533.702 73.0758 533.979 73.529 534.177 74.0551C534.442 73.904 534.708 73.7582 534.974 73.6123C535.244 73.1071 535.619 72.6643 535.958 72.1695C535.989 72.1226 536.026 72.1017 536.067 72.0913C536.291 71.7527 536.526 71.4194 536.771 71.0964C537.01 70.6537 537.25 70.2057 537.458 69.7473C538.073 68.3982 538.521 66.971 539.24 65.674C539.339 65.4969 539.443 65.3041 539.558 65.0958V65.0906Z" fill="#B0BBEA"/>
</g>
<path d="M566.341 53.6581C559.522 47.9543 554.058 49.6733 554.058 49.6733C552.901 49.8608 550.958 50.5171 548.703 52.6788C544.478 56.7261 543.744 60.1744 543.744 60.1744C543.744 60.1744 543.103 60.388 542.462 60.414C542.363 60.7786 542.316 60.9974 542.316 60.9974C542.316 60.9974 548.192 59.4243 544.463 70.6235C540.733 81.8226 549.896 83.0831 549.896 83.604C549.896 84.1249 546.692 88.9536 547.536 91.1621C547.708 91.6153 559.001 88.292 559.001 88.292L558.413 85.8959C558.413 85.8959 556.579 83.0779 556.511 82.0309C556.444 80.9839 557.168 76.7335 558.413 76.2595C568.67 72.358 573.16 59.3514 566.346 53.6529L566.341 53.6581Z" fill="white"/>
<path d="M558.409 85.9019C558.409 85.9019 548.017 88.5792 547.564 89.0428C547.111 89.5012 546.954 91.0951 547.694 91.2097C548.434 91.3243 559.191 88.2563 559.191 88.2563C559.191 88.2563 559.066 85.9487 558.409 85.9019Z" fill="#F2AFCF"/>
<path d="M549.063 89.9071C548.996 89.6414 548.949 89.3549 548.844 89.1049C548.719 88.8184 548.412 88.9903 548.386 89.1622C548.386 89.1622 548.386 89.1622 548.381 89.157C548.381 89.4174 548.454 89.6779 548.495 89.9331C548.537 90.1779 548.527 90.4592 548.74 90.6103C548.839 90.6832 549.006 90.6884 549.084 90.5738C549.225 90.3602 549.121 90.1415 549.063 89.9071Z" fill="#ED7AC7"/>
<path d="M551.077 89.8612C551.077 89.8039 551.057 89.7518 551.03 89.6997C550.989 89.5695 550.931 89.4445 550.879 89.3142C550.775 89.059 550.661 88.809 550.562 88.5537C550.489 88.361 550.134 88.4183 550.192 88.6423C550.286 89.0069 550.353 89.3715 550.447 89.7362C550.515 89.9966 550.65 90.1997 550.947 90.0852C551.004 90.0643 551.062 89.9914 551.072 89.9185C551.072 89.9289 551.072 89.9185 551.083 89.8664L551.077 89.8612Z" fill="#ED7AC7"/>
<path d="M552.828 88.798C552.729 88.5584 552.63 88.3188 552.51 88.0948C552.437 87.9594 552.135 88.0062 552.151 88.1781C552.172 88.4334 552.229 88.6782 552.286 88.9282C552.344 89.173 552.37 89.4752 552.531 89.6731C552.682 89.8606 553.057 89.8294 553.073 89.5481C553.089 89.2928 552.922 89.0376 552.828 88.8032V88.798Z" fill="#ED7AC7"/>
<path d="M555.373 88.652C555.43 88.6885 555.425 88.6677 555.352 88.5843C555.32 88.527 555.284 88.4697 555.248 88.4124C555.18 88.2978 555.107 88.1832 555.039 88.0739C554.904 87.8603 554.789 87.6155 554.591 87.4592C554.445 87.3446 554.143 87.3967 554.159 87.6103C554.18 87.8915 554.362 88.1572 554.492 88.402C554.602 88.6208 554.711 88.9594 554.914 89.1052C555.055 89.2042 555.279 89.2406 555.419 89.1052C555.43 89.0948 555.435 89.0896 555.445 89.0792C555.597 88.9333 555.55 88.7562 555.378 88.6468L555.373 88.652Z" fill="#ED7AC7"/>
<path d="M557.744 87.5743C557.676 87.293 557.613 87.017 557.394 86.8086C557.264 86.6836 556.936 86.7513 556.952 86.9649C556.967 87.2618 557.035 87.5691 557.082 87.8608C557.129 88.1786 557.202 88.4807 557.493 88.6474C557.671 88.7463 558.051 88.6474 558.02 88.3921C557.988 88.116 557.816 87.8504 557.744 87.5743Z" fill="#ED7AC7"/>
<path d="M557.459 81.8954C557.553 81.5412 557.157 81.1193 556.704 81.0881C556.318 81.062 555.886 81.1818 555.48 81.3225C554.625 81.4006 553.719 81.6923 552.99 81.8694C552.208 82.0621 551.427 82.2601 550.646 82.4528C550.161 82.5726 549.437 82.6299 549.015 82.9476C548.739 83.156 548.624 83.4581 548.713 83.7133C548.718 83.8644 548.812 84.005 548.921 84.104C548.958 84.1665 549.005 84.2186 549.067 84.2603C549.151 84.3124 549.244 84.3488 549.338 84.3697C549.38 84.3853 549.421 84.3957 549.463 84.4061C549.505 84.4947 549.599 84.5624 549.744 84.5728C551.271 84.6666 552.844 84.0155 554.297 83.6144C555.037 83.4112 556.787 83.2862 557.277 82.583C557.386 82.4267 557.423 82.2757 557.412 82.135C557.449 82.0621 557.464 81.984 557.464 81.9006L557.459 81.8954Z" fill="#D3D9E8"/>
<path d="M550.851 83.7855C550.763 83.723 550.669 83.6866 550.627 83.5824C550.57 83.447 550.591 83.2907 550.617 83.1501C550.648 82.9834 550.393 82.9365 550.335 83.0823C550.242 83.3115 550.148 83.572 550.289 83.8012C550.403 83.9835 550.617 84.0929 550.82 83.9939C550.898 83.9574 550.934 83.8428 550.851 83.7855Z" fill="#F9FBFC"/>
<path d="M551.902 83.2647C551.86 83.098 551.86 82.9261 551.761 82.7803C551.715 82.7126 551.605 82.7178 551.558 82.7803C551.36 83.046 551.475 83.6293 551.756 83.796C551.829 83.8377 551.954 83.8065 551.975 83.7179C552.022 83.5512 551.944 83.4314 551.897 83.2647H551.902Z" fill="#F9FBFC"/>
<path d="M553.329 82.3274C553.204 82.2285 552.99 82.3691 553.121 82.5045C553.256 82.6452 553.35 82.8379 553.376 83.0306C553.392 83.1765 553.366 83.2859 553.48 83.3953C553.532 83.4421 553.61 83.4317 553.662 83.3953C554.022 83.1452 553.558 82.5098 553.329 82.3274Z" fill="#F9FBFC"/>
<path d="M555.387 81.9681C555.262 81.8535 555.023 82.015 555.169 82.1556C555.278 82.265 555.372 82.3848 555.44 82.5255C555.497 82.6401 555.518 82.7338 555.606 82.8276C555.664 82.8849 555.815 82.8693 555.83 82.7755C555.888 82.4786 555.591 82.1556 555.387 81.9681Z" fill="#F9FBFC"/>
<path d="M556.491 81.3946C556.366 81.306 556.142 81.4415 556.283 81.5717C556.512 81.7853 556.533 82.0457 556.559 82.3426C556.575 82.5197 556.861 82.5562 556.913 82.3843C557.033 82.004 556.794 81.6134 556.486 81.3998L556.491 81.3946Z" fill="#F9FBFC"/>
<path d="M543.289 75.0871C543.289 75.0871 545.779 73.238 548.681 75.0767C551.582 76.9155 550.165 80.7857 547.514 82.4213C547.514 82.4213 543.461 81.3118 543.294 75.0871H543.289Z" fill="#A2A4BD"/>
<path d="M543.289 75.7951C543.289 75.7951 545.508 74.3471 548.092 75.7847C550.676 77.2224 549.014 80.7436 546.649 82.025C546.649 82.025 543.435 80.6654 543.289 75.7951Z" fill="#D3D9E8"/>
<g style="mix-blend-mode:multiply" opacity="0.28">
<path d="M553.775 82.9952C553.775 82.9952 549.534 75.8069 550.29 68.8426C550.816 63.9671 553.248 60.8886 554.66 59.477C554.863 59.2739 554.634 58.9405 554.368 59.0551C551.133 60.4146 548.039 63.0608 545.596 65.9777C545.44 67.2122 545.091 68.7332 544.455 70.6293C540.725 81.8284 549.888 83.089 549.888 83.6098C549.888 84.1307 546.685 88.9594 547.529 91.168C547.643 91.4649 552.561 90.1314 555.915 89.1834L553.775 82.99V82.9952Z" fill="#B0BBEA"/>
</g>
<g style="mix-blend-mode:multiply" opacity="0.28">
<path d="M564.357 72.4673C562.163 74.1237 558.778 76.3219 556.887 75.7072L553.975 74.7592C553.975 74.7592 554.944 77.2386 557.527 77.3272C557.777 76.7959 558.074 76.3948 558.402 76.2698C560.694 75.3999 562.7 74.0664 564.351 72.4673H564.357Z" fill="#B0BBEA"/>
</g>
</g>
<g filter="url(#filter9_d_3522_154845)">
<path d="M633.537 27.6037C640.934 29.4528 641.596 34.719 640.304 37.9277C639.007 41.1364 627.995 44.2409 626.198 36.0942C624.807 29.8018 630.084 26.739 633.537 27.6037Z" fill="#FFF7D6"/>
<path d="M635.115 32.7456C635.641 31.4486 635.845 29.813 635.407 28.1982C641.033 30.4068 641.476 35.0167 640.298 37.9285C639.001 41.1371 627.989 44.2416 626.192 36.0949C626.182 36.048 626.176 36.0012 626.166 35.9543C629.896 36.6158 634.323 34.6989 635.115 32.7404V32.7456Z" fill="black" fill-opacity="0.1"/>
<path d="M620.057 28.9223C619.828 29.5578 625.839 32.2925 633.481 35.0272C641.123 37.7618 647.499 39.4599 647.728 38.8244C647.957 38.189 641.946 35.4543 634.304 32.7196C626.662 29.9849 620.286 28.2868 620.057 28.9223Z" fill="#F9D641"/>
<path opacity="0.51" d="M636.861 33.6514C635.918 33.9691 629.881 32.3179 622.734 29.7603C621.859 29.4478 621.005 29.1353 620.181 28.8227C621.124 28.505 627.162 30.1562 634.309 32.7138C635.184 33.0263 636.038 33.3388 636.861 33.6514Z" fill="black" fill-opacity="0.05"/>
</g>
<g filter="url(#filter10_d_3522_154845)">
<path d="M497.417 13.2249C503.579 13.3759 509.007 18.9025 506.736 24.3719C504.465 29.8412 494.969 32.0081 491.046 27.5701C487.124 23.1322 489.124 13.0165 497.412 13.2249H497.417Z" fill="#00B26B"/>
<g style="mix-blend-mode:hard-light" opacity="0.51">
<path d="M497.416 13.2355C497.989 13.2512 498.552 13.3085 499.104 13.4127C499.698 14.9753 499.75 16.7047 499.036 18.4288C497.604 21.8771 493.296 24.0128 489.326 24.0075C488.311 19.1997 490.946 13.0741 497.416 13.2355Z" fill="#DAD5F7"/>
</g>
<g style="mix-blend-mode:soft-light" opacity="0.9">
<path d="M505.133 25.4339C504.83 25.2152 504.632 24.9235 504.58 24.5484C504.56 24.3922 504.721 23.8817 504.669 23.7463C504.278 22.6784 503.518 23.3035 502.908 23.5119C502.064 23.8036 500.825 24.0119 500.314 23.0326C499.668 21.7929 501.267 21.0064 501.721 20.0115C500.955 20.1938 500.1 20.4334 499.387 20.3657C499.038 20.3344 498.762 20.2719 498.553 19.9646C498.178 19.402 498.527 18.428 498.72 17.8654C499.132 16.6622 499.496 15.6673 499.58 14.3911C499.507 14.2088 499.569 13.9796 499.83 13.9327C500.163 13.8754 500.486 13.8546 500.809 13.8494C505.372 15.4693 508.581 19.9334 506.742 24.3609C506.544 24.8401 506.284 25.2985 505.982 25.7256C505.685 25.7048 505.393 25.6058 505.138 25.4235L505.133 25.4339Z" fill="#D3D6F2"/>
</g>
<g style="mix-blend-mode:soft-light" opacity="0.9">
<path d="M491.275 21.1065C490.931 20.5387 490.05 19.997 490.748 19.3302C491.17 18.9292 491.749 19.2 492.202 19.523C492.384 19.3667 492.639 19.2521 492.905 19.2156C494.332 19.0021 494.806 20.2366 494.65 21.419C494.463 22.8358 493.259 24.6694 495.499 25.0288C495.963 25.1017 496.281 25.1121 496.64 25.4767C497.343 26.1904 497.526 27.7843 496.546 28.3468C495.28 29.0709 494.14 28.0968 493.296 27.2999C492.405 26.456 490.608 26.357 491.228 24.5964C491.285 24.4298 491.572 24.1016 491.603 23.9297C491.723 23.263 491.306 23.414 490.967 23.0911C490.639 22.7785 490.41 22.1378 490.561 21.6899C490.686 21.3305 490.967 21.1377 491.264 21.1065H491.275Z" fill="#D3D6F2"/>
</g>
</g>
<path d="M588 4.43048C596.204 5.63894 600.731 19.0831 595.152 25.3598C589.568 31.6365 581.733 33.918 574.227 26.761C566.72 19.604 564.277 0.940518 588 4.43048Z" fill="#AFF2B7"/>
<path d="M588.791 5.89361C590.109 6.11759 591.51 6.44575 592.885 6.86767C594.651 8.48243 596.006 10.7327 596.803 13.1704C594.563 12.4568 592.344 11.6078 590.151 10.8108C588.807 10.3264 585.124 9.27418 585.358 7.24792C585.54 5.67483 587.666 5.69567 588.796 5.8884L588.791 5.89361Z" fill="#297F5D"/>
<path d="M569.907 10.2176C570.413 9.0873 571.142 8.05073 572.137 7.16001C572.324 7.16001 572.512 7.14438 572.699 7.14438C572.757 7.06625 572.845 7.01416 572.991 7.01416C573.825 7.02458 574.632 7.14959 575.424 7.34753C578.169 7.71736 580.826 8.59766 583.232 10.0509C583.675 10.3166 584.17 10.6396 584.41 11.0406C584.54 11.15 584.675 11.2542 584.785 11.3688C585.415 12.0251 585.67 13.145 584.748 13.6972C583.488 14.4525 580.836 13.7545 579.55 13.3951C578.727 13.1659 577.935 12.8637 577.169 12.4887C576.476 12.3324 575.783 12.1449 575.101 11.9366C573.366 11.5094 571.668 10.926 570.017 10.2749C569.97 10.2593 569.944 10.2333 569.907 10.2124V10.2176Z" fill="#297F5D"/>
<path d="M570.379 17.0205C573.213 17.4216 576.177 18.0102 578.703 19.2135C580 19.8333 582.495 21.62 580.49 23.0056C578.615 24.2974 574.749 23.0837 572.879 22.318C572.134 22.0159 571.233 21.5992 570.384 21.0783C569.79 19.6823 569.358 18.2134 569.149 16.7393C569.566 16.8018 569.972 16.8955 570.379 17.0153V17.0205Z" fill="#297F5D"/>
<path d="M583.584 24.5102C584.684 23.6299 586.559 24.4008 587.668 24.8019C589.549 25.4895 591.127 26.5052 592.57 27.8335C591.304 28.8545 589.966 29.6775 588.564 30.2504C587.023 29.3545 585.444 28.4534 584.085 27.3803C583.209 26.6876 582.47 25.3957 583.579 24.5102H583.584Z" fill="#297F5D"/>
<path d="M597.299 21.0364C597.033 22.198 596.596 23.2971 595.965 24.2711C594.778 23.8961 593.585 23.3179 593.246 23.1773C592.074 22.6929 590.115 22.2813 589.475 21.026C589.074 20.2395 589.256 19.38 590.027 18.9268C591.048 18.3278 592.449 18.8018 593.475 19.1352C594.84 19.5831 596.122 20.2186 597.299 21.0312V21.0364Z" fill="#297F5D"/>
<g filter="url(#filter11_d_3522_154845)">
<path d="M581.353 13.182C583.463 10.8068 584.13 7.40535 583.692 4.02478C584.994 4.07687 586.396 4.20709 587.906 4.43107C596.111 5.63954 600.637 19.0837 595.058 25.3604C589.474 31.6371 581.64 33.9186 574.133 26.7616C572.081 24.8031 570.409 21.9851 569.544 18.9951C573.914 19.2348 578.035 16.9168 581.353 13.182Z" fill="black" fill-opacity="0.1" shape-rendering="crispEdges"/>
</g>
<g filter="url(#filter12_d_3522_154845)">
<path d="M607.986 59.115C606.351 60.761 602.308 60.9225 602.355 57.3127C602.402 53.703 605.59 53.3279 607.262 53.7186C608.934 54.1093 610.08 57.0106 607.986 59.1202V59.115Z" fill="#FFF2DF"/>
<g style="mix-blend-mode:multiply">
<path d="M606.377 56.5053C607.216 55.6562 607.528 54.6874 607.502 53.7966C609.034 54.3957 609.977 57.1095 607.987 59.1149C606.367 60.7453 602.392 60.912 602.361 57.4116C603.663 57.9064 605.424 57.4637 606.377 56.5053Z" fill="#EFD2AC"/>
</g>
<path d="M611.603 53.5938C612.437 54.7606 612.697 55.7346 612.218 57.1098C611.723 58.5214 610.723 59.6517 609.457 60.4278C606.618 62.1572 602.852 62.6052 599.591 62.6677C595.903 62.7406 591.319 62.402 588.548 59.6778C588.386 59.5215 588.636 59.2037 588.803 59.36C591.585 61.9905 596.283 62.2197 599.924 62.0843C603.545 61.954 609.072 61.4071 611.155 58.0057C611.906 56.7816 612.119 55.5836 611.317 54.3491C610.77 53.5052 610.103 52.7239 609.311 52.0988C607.671 50.8122 605.592 50.2601 603.571 49.9371C601.815 49.6558 600.039 49.5256 598.294 49.161C596.46 48.7755 594.71 48.2442 592.845 48.015C592.59 47.9838 592.663 47.6035 592.887 47.5827C594.408 47.4108 595.887 47.9213 597.346 48.2859C599.232 48.7599 601.159 48.9318 603.081 49.2079C606.467 49.6871 609.546 50.7237 611.609 53.599L611.603 53.5938Z" fill="#D9BDF9"/>
<path d="M598.958 57.6249C596.994 57.604 595.036 57.4946 593.093 57.2186C591.332 56.9633 589.394 56.7394 587.732 56.083C587.524 55.9997 587.67 55.6663 587.868 55.6924C589.727 55.9372 591.551 56.4945 593.41 56.7706C595.27 57.0467 597.14 57.2498 599.015 57.354C599.192 57.3644 599.109 57.6301 598.958 57.6249Z" fill="#D9BDF9"/>
<path d="M599.571 54.3016C598.185 54.0464 596.8 53.7911 595.419 53.5411C594.383 53.3536 593.304 53.2442 592.419 52.64C592.242 52.5202 592.46 52.1868 592.643 52.2806C594.706 53.3015 597.409 53.463 599.66 53.8953C599.915 53.9422 599.8 54.3433 599.571 54.3016Z" fill="#D9BDF9"/>
<path d="M600.434 51.8946C598.913 51.2904 597.35 50.8372 595.73 50.5611C594.24 50.3059 592.698 50.4101 591.229 50.1444C591.037 50.108 591.094 49.8527 591.261 49.8163C592.771 49.4985 594.548 49.8059 596.043 50.0924C597.621 50.3945 599.147 50.8633 600.632 51.4779C600.882 51.5821 600.668 51.9884 600.434 51.8946Z" fill="#D9BDF9"/>
</g>
<g filter="url(#filter13_d_3522_154845)">
<path d="M497.418 93.0124C497.418 93.0124 495.574 88.9703 491.99 89.9287C488.406 90.8872 487.307 93.7573 488.229 95.9919L497.413 93.0124H497.418Z" fill="#BECAFF"/>
<path d="M499.046 94.4292C499.046 94.4292 502.312 93.8562 503.297 94.4292C504.281 95.0022 501.901 97.44 498.645 99.1328C495.389 100.831 488.034 102.633 486.226 101.815C484.419 100.992 488.487 98.2682 488.487 98.2682L499.041 94.4292H499.046Z" fill="#454575"/>
<path d="M498.097 92.6797L488.569 95.7216C487.97 95.9144 487.6 96.529 487.731 97.1437C487.767 97.3208 487.824 97.4875 487.918 97.6281C487.918 97.6333 487.923 97.6385 487.928 97.6437C488.246 98.1073 488.845 98.2844 489.371 98.0917L498.17 94.8518C498.784 94.6278 499.128 93.9558 498.93 93.336C498.81 92.9557 498.571 92.6432 498.092 92.6797H498.097Z" fill="#454575"/>
<path d="M499.967 96.4132C500.03 96.408 500.087 96.4184 500.145 96.4392C500.447 96.4757 500.697 96.7466 500.712 97.0539C500.728 97.4393 500.4 97.7571 500.02 97.7675C499.655 97.7779 499.301 97.5279 499.285 97.1424C499.269 96.783 499.618 96.4444 499.967 96.4132Z" fill="#F2AFCF"/>
<path d="M495.099 98.8407C495.151 98.5959 495.375 98.4344 495.604 98.3667C495.63 98.3615 495.656 98.3563 495.682 98.3511C495.917 98.174 496.406 98.3198 496.542 98.5699C496.604 98.6844 496.615 98.7886 496.594 98.8824C496.583 98.9501 496.568 99.0178 496.521 99.0855C496.411 99.247 496.193 99.3303 495.963 99.3408C495.792 99.3824 495.625 99.3929 495.5 99.3668C495.26 99.3147 495.041 99.1064 495.094 98.8407H495.099Z" fill="#F2AFCF"/>
<path d="M490.667 99.9403C490.678 99.8934 490.699 99.8517 490.725 99.81C490.793 99.7163 490.902 99.6694 491.022 99.659C491.168 99.6225 491.329 99.6433 491.48 99.6954C491.688 99.7111 491.881 99.8152 491.991 100.024C492.079 100.19 492.079 100.409 491.928 100.534C491.761 100.675 491.423 100.69 491.214 100.659C491.1 100.643 490.99 100.591 490.891 100.524C490.86 100.508 490.829 100.498 490.803 100.477C490.709 100.404 490.662 100.305 490.652 100.201C490.631 100.117 490.631 100.029 490.673 99.9455L490.667 99.9403Z" fill="#F2AFCF"/>
<path d="M486.835 101.008C486.939 100.721 487.372 100.669 487.622 100.742C487.684 100.758 487.752 100.794 487.814 100.841C487.955 100.867 488.07 100.945 488.101 101.122C488.169 101.508 487.7 101.612 487.413 101.596C487.116 101.581 486.694 101.388 486.83 101.013L486.835 101.008Z" fill="#F2AFCF"/>
<path d="M497.036 96.9145C497.713 96.43 498.551 96.1331 499.307 95.7841C500.166 95.3883 501.031 94.9976 501.891 94.5965C502.016 94.5392 502.156 94.7059 502.016 94.7736C501.166 95.1903 500.323 95.6122 499.473 96.0237C498.718 96.3884 497.947 96.8363 497.129 97.0499C497.056 97.0707 496.957 96.977 497.041 96.9145H497.036Z" fill="#D3D9E8"/>
<path d="M489.263 99.2686C490.8 98.6644 492.43 98.3258 493.972 97.706C494.097 97.6539 494.238 97.8154 494.092 97.8831C492.623 98.5498 490.935 99.2843 489.31 99.4301C489.222 99.4405 489.164 99.3051 489.258 99.2686H489.263Z" fill="#D3D9E8"/>
<path d="M492.368 91.0434C492.633 90.8559 492.868 90.6475 493.092 90.4183C493.066 90.3558 493.133 90.2673 493.232 90.2777C493.248 90.2777 493.269 90.2829 493.284 90.2881C493.305 90.2881 493.326 90.2881 493.352 90.2985C494.17 90.4235 495.066 90.6371 495.509 91.408C495.629 91.6164 495.774 91.9393 495.649 92.1737C495.603 92.2675 495.363 92.3717 495.3 92.4081C495.035 92.5644 494.764 92.7155 494.498 92.8665C494.42 92.9134 494.305 92.8821 494.253 92.8092C493.764 92.1321 493.154 91.632 492.399 91.2778C492.31 91.2361 492.274 91.1007 492.362 91.0382L492.368 91.0434Z" fill="white" fill-opacity="0.6"/>
</g>
<g style="mix-blend-mode:hard-light">
<path d="M505.542 126.142C507.454 125.647 509.454 125.402 511.397 125.069C513.408 124.72 515.419 124.376 517.435 124.043C521.279 123.402 525.16 122.595 529.046 122.214C527.015 119.985 525.42 117.266 523.795 114.75C522.081 112.104 520.362 109.453 518.336 107.03C516.341 107.379 514.346 107.728 512.351 108.072C510.564 108.38 508.704 108.791 506.886 108.598C506.667 108.578 506.756 108.301 506.949 108.307C510.751 108.364 514.596 107.395 518.336 106.775C518.372 106.77 518.404 106.775 518.425 106.786C518.461 106.786 518.497 106.791 518.524 106.822C520.586 109.239 522.347 111.885 524.087 114.542C525.837 117.209 527.713 119.73 529.603 122.298C529.728 122.47 529.447 122.647 529.317 122.506C529.281 122.47 529.244 122.423 529.208 122.386C525.348 123.23 521.368 123.699 517.471 124.355C515.518 124.689 513.559 125.017 511.606 125.355C509.605 125.699 507.589 126.173 505.568 126.376C505.391 126.392 505.396 126.184 505.547 126.147L505.542 126.142Z" fill="#CCB5E2"/>
<path d="M506.328 124.875C506.146 122.266 506.573 119.604 506.797 117.005C507.037 114.234 507.105 111.463 506.495 108.733C506.474 108.639 506.657 108.582 506.683 108.676C507.36 111.166 507.344 113.728 507.162 116.286C506.959 119.14 506.677 121.958 506.641 124.823C506.641 124.99 506.339 125.068 506.328 124.875Z" fill="#CCB5E2"/>
<path d="M457.549 142.956C460.914 143.191 464.227 143.873 467.405 145.009C468.91 145.551 470.348 146.207 471.786 146.91C472.39 147.202 472.859 147.368 473.536 147.139C474.015 146.973 474.526 146.514 474.906 146.176C475.641 145.509 476.24 144.707 476.771 143.878C477.792 142.29 478.688 140.607 479.636 138.977C480.095 138.185 480.553 137.393 481.011 136.602C481.418 135.904 481.808 135.159 482.423 134.622C483.678 133.528 485.674 133.127 487.21 132.565C489.138 131.856 491.065 131.148 492.993 130.44C497.29 128.866 501.582 127.288 505.88 125.715C506.01 125.668 506.083 125.84 505.953 125.887C502.051 127.34 498.15 128.794 494.248 130.247C492.326 130.966 490.404 131.679 488.476 132.393C487.486 132.757 486.497 133.127 485.507 133.492C484.481 133.872 483.262 134.18 482.47 134.987C481.798 135.674 481.376 136.617 480.907 137.445C480.376 138.388 479.839 139.331 479.308 140.274C478.454 141.785 477.636 143.352 476.63 144.769C475.849 145.863 474.693 147.259 473.323 147.618C472.796 147.759 472.317 147.618 471.838 147.389C470.942 146.967 470.072 146.504 469.16 146.113C465.457 144.524 461.498 143.597 457.481 143.321C457.216 143.305 457.32 142.951 457.554 142.967L457.549 142.956Z" fill="#CCB5E2"/>
<path d="M518.59 106.551L518.235 105.437L517.715 106.661L516.027 106.864L517.704 107.01L518.11 108.562L518.689 107.369L519.746 107.906L518.965 106.905L519.506 105.89L518.59 106.551Z" fill="#CCB5E2"/>
<path d="M483.284 134.075L482.929 132.96L482.414 134.184L480.721 134.387L482.398 134.533L482.81 136.085L483.383 134.892L484.445 135.429L483.659 134.429L484.2 133.413L483.284 134.075Z" fill="#CCB5E2"/>
<path d="M506.521 108.265L506.349 106.849L505.974 108.333L505.125 108.161L505.886 108.729L505.313 109.74L506.584 108.812L507.266 109.891L507.11 108.583L508.412 107.817L506.521 108.265Z" fill="#CCB5E2"/>
<path d="M457.73 142.716L457.558 141.294L457.183 142.779L456.334 142.607L457.095 143.18L456.527 144.185L457.798 143.258L458.48 144.336L458.319 143.029L459.621 142.263L457.73 142.716Z" fill="#CCB5E2"/>
<path d="M528.871 122.105L528.699 120.688L528.329 122.173L527.475 121.996L528.235 122.569L527.667 123.579L528.939 122.652L529.621 123.73L529.465 122.423L530.762 121.657L528.871 122.105Z" fill="#CCB5E2"/>
<path d="M506.232 125.58L506.221 124.622L505.836 125.382L505.153 125.169L505.549 125.658L505.159 126.434L505.956 125.867L506.482 126.747L506.372 125.981L507.086 125.731L506.232 125.58Z" fill="#CCB5E2"/>
<path d="M473.335 147.509L473.319 146.545L472.939 147.311L472.256 147.092L472.652 147.587L472.261 148.363L473.053 147.79L473.579 148.676L473.47 147.91L474.184 147.66L473.335 147.509Z" fill="#CCB5E2"/>
</g>
<g filter="url(#filter14_d_3522_154845)">
<path d="M460.96 8.64273C460.96 8.64273 473.571 9.87724 476.035 19.9721C478.504 30.0669 472.67 37.2448 472.67 37.2448L472.446 40.1618C472.446 40.1618 471.884 42.0682 470.092 42.9641C468.3 43.8601 466.393 44.4226 466.393 44.4226L464.263 42.9641C464.263 42.9641 457.98 46.6 451.255 45.454C444.525 44.308 438.696 36.5728 437.013 36.2342C435.331 35.8957 434.768 35.7446 434.768 35.7446L431.966 30.1763C431.966 30.1763 433.648 27.5979 433.872 25.9154C434.096 24.233 432.19 16.2686 439.144 12.1223C446.098 7.97599 449.687 8.53334 450.359 7.63741C451.031 6.74148 451.818 5.73096 451.818 5.73096L460.231 7.18945C460.231 7.18945 460.116 8.52292 460.97 8.64794L460.96 8.64273Z" fill="#6080DD"/>
<path d="M466.503 14.4713C464.169 14.862 467.738 22.3211 471.436 22.2117C475.135 22.0971 470.54 13.7994 466.503 14.4713Z" fill="#454575"/>
<path d="M471.567 40.2547C472.39 40.1609 468.571 43.8488 467.118 43.2498C465.665 42.6508 470.686 40.3589 471.567 40.2547Z" fill="#454575"/>
<path d="M433.051 30.416C433.478 31.6974 434.505 34.6092 435.275 34.7811C436.046 34.953 433.051 30.416 433.051 30.416Z" fill="#454575"/>
<path d="M441.264 35.7395C440.118 36.8021 444.514 41.537 447.343 40.2556C450.166 38.9742 442.723 34.3904 441.264 35.7395Z" fill="#454575"/>
<path d="M461.469 34.7864C461.641 36.323 455.104 38.7191 454.307 36.4063C453.51 34.0936 461.297 33.2498 461.469 34.7864Z" fill="#454575"/>
<path d="M450.249 14.924C452.364 16.4554 444.17 22.6279 442.717 19.888C441.263 17.1482 445.285 11.3298 450.249 14.924Z" fill="#454575"/>
<path d="M461.019 15.4447C462.342 15.5385 463.243 15.4968 464.368 14.7103C464.879 14.3561 465.337 13.9966 465.988 14.0071C466.139 14.0071 466.165 14.1842 466.025 14.2362C465.019 14.5957 464.347 15.4655 463.337 15.8145C462.566 16.0802 461.659 16.1375 460.915 15.7885C460.722 15.6999 460.826 15.4291 461.024 15.4447H461.019Z" fill="#454575"/>
<path d="M450.087 8.5749C450.269 8.42905 450.488 8.39259 450.681 8.27278C450.952 8.1061 451.103 7.86649 451.223 7.57479C451.41 7.1112 451.483 6.65802 451.837 6.28819C451.947 6.1736 452.181 6.27778 452.145 6.43925C451.999 7.05911 451.973 7.77794 451.598 8.31445C451.311 8.71554 450.728 9.14788 450.217 8.9864C450.04 8.9291 449.91 8.71554 450.087 8.5749Z" fill="#454575"/>
<path d="M440.11 32.8011C440.026 32.6709 440.11 32.5615 440.219 32.5147C440.287 32.2959 440.646 32.1865 440.875 32.1396C441.344 32.0407 441.974 32.0198 442.396 32.2803C442.589 32.4001 442.49 32.6188 442.287 32.6293C442.011 32.6449 441.74 32.5928 441.469 32.6032C441.381 32.6032 440.933 32.6188 440.761 32.6866C440.927 32.9418 440.912 33.3689 440.907 33.6502C440.901 34.3065 440.995 35.0358 440.464 35.515C440.333 35.6296 440.021 35.4889 440.156 35.3118C440.438 34.9472 440.323 34.3638 440.307 33.9367C440.297 33.5252 440.339 33.1554 440.115 32.8011H440.11Z" fill="#454575"/>
<path d="M432.273 29.8333C432.632 29.4634 433.023 29.1405 433.361 28.7394C433.684 28.3591 433.966 27.9528 434.252 27.5466C434.367 27.3851 434.705 27.4632 434.643 27.6872C434.346 28.7186 433.632 29.7499 432.731 30.3385C432.408 30.5521 431.981 30.1354 432.273 29.8333Z" fill="#454575"/>
<path d="M451.171 33.5101C452.051 33.5934 452.718 34.3122 453.098 35.0675C453.322 35.5207 453.395 35.9999 453.525 36.4791C453.848 37.6355 454.781 37.6772 455.812 37.8647C456 37.9012 455.927 38.1147 455.771 38.1304C454.833 38.2189 453.656 38.021 453.197 37.0782C452.963 36.5937 452.968 36.0051 452.765 35.4999C452.411 34.6248 451.858 34.2497 451.077 33.7966C450.931 33.7132 450.994 33.4944 451.171 33.5101Z" fill="#454575"/>
<path d="M461.5 42.8237C462.318 42.7091 463.266 41.7454 464.11 41.9225C464.501 42.0059 464.917 42.4799 465.193 42.7247C465.589 43.0685 466.022 43.3967 466.267 43.8655C466.267 43.8655 466.267 43.8707 466.267 43.8759C466.267 43.8811 466.267 43.8811 466.267 43.8863C466.287 43.9696 466.194 44.0269 466.116 43.9905C465.381 43.6623 464.85 42.7872 464.079 42.5737C463.417 42.3913 462.516 43.1675 461.823 43.3394C461.682 43.3758 461.537 43.3237 461.448 43.2091C461.417 43.1727 461.391 43.1362 461.36 43.0945C461.276 42.9904 461.37 42.8341 461.495 42.8133L461.5 42.8237Z" fill="#454575"/>
<path d="M436.503 33.9633C449.042 33.9633 459.21 24.8789 459.21 13.6694C459.21 11.2473 458.736 8.92931 457.866 6.77283L460.226 7.18433C460.226 7.18433 460.111 8.51781 460.966 8.64282C460.966 8.64282 473.577 9.87733 476.041 19.9722C478.51 30.067 472.676 37.2449 472.676 37.2449L472.452 40.1618C472.452 40.1618 471.889 42.0683 470.097 42.9642C468.306 43.8602 466.399 44.4227 466.399 44.4227L464.268 42.9642C464.268 42.9642 457.986 46.6 451.261 45.4541C444.536 44.3081 438.702 36.5729 437.019 36.2343C435.337 35.8958 434.774 35.7447 434.774 35.7447L433.805 33.8174C434.696 33.9112 435.597 33.9685 436.514 33.9685L436.503 33.9633Z" fill="black" fill-opacity="0.1"/>
</g>
<g filter="url(#filter15_d_3522_154845)">
<path d="M450.853 109.008C476.297 109.552 478.407 125.927 474.684 137.271C470.961 148.623 446.826 153.397 434.938 142.772C428.044 136.607 424.598 108.446 450.853 109.008Z" fill="#FF9800"/>
<path d="M436.531 144.044C438.807 143.408 441.157 143.684 443.443 144.256C445.489 144.44 447.507 144.864 449.451 145.527C451.064 146.016 452.621 146.698 454.096 147.647C454.142 147.675 454.197 147.693 454.243 147.73C454.289 147.757 454.335 147.785 454.382 147.813C454.575 147.942 454.612 148.117 454.566 148.274C454.778 148.375 454.999 148.485 455.211 148.587C448.65 149.121 441.729 147.794 436.55 144.044H436.531Z" fill="#FFEC9F"/>
<path d="M430.007 127.733C434.154 133.742 443.443 134.801 450.318 135.824C454.806 135.824 459.773 137.557 463.864 139.003C465.385 139.547 469.182 140.662 471.246 142.367C469.965 143.546 468.426 144.588 466.694 145.472C464.427 143.731 461.809 142.376 459.109 141.372C458.013 141.16 456.907 140.948 455.81 140.726C452.493 140.266 449.193 139.648 445.931 138.865C444.908 138.616 443.885 138.349 442.872 138.073C442.715 138.137 442.531 138.156 442.346 138.091C441.388 137.768 440.439 137.428 439.489 137.068C438.024 136.607 436.559 136.128 435.112 135.603C433.776 135.124 431.684 134.46 430.799 133.189C430.661 133.069 430.541 132.931 430.412 132.802C430.136 131.171 429.979 129.466 430.016 127.733H430.007Z" fill="#FFEC9F"/>
<path d="M433.002 121.457C432.476 120.757 432.062 120.02 431.748 119.264C432.274 118.076 432.937 116.942 433.73 115.892C435.241 117.034 435.287 119.402 436.347 121.034C437.222 122.388 438.31 123.798 439.508 124.867C439.646 124.987 439.784 125.088 439.932 125.199C440.872 125.65 441.858 126.028 442.825 126.351C446.539 127.585 450.511 128.065 454.409 127.724C454.676 127.696 454.934 127.659 455.202 127.631C458.178 126.599 461.238 125.881 464.362 125.53C467.873 124.71 471.375 124.314 474.821 125.742C474.987 125.788 475.153 125.835 475.31 125.899C475.605 126.01 475.817 126.176 475.983 126.369C476.112 127.65 476.139 128.94 476.056 130.221C467.292 125.549 458.031 131.188 448.806 130.129C444.042 129.585 435.02 126.867 433.002 121.476V121.457Z" fill="#FFEC9F"/>
<path d="M440.302 116.851C439.141 115.994 437.998 114.961 436.772 114.095C436.468 113.92 436.173 113.763 435.869 113.588C436.855 112.713 437.98 111.939 439.27 111.285C441.657 112.003 443.979 113.423 446.154 114.464C447.757 115.229 449.407 115.966 451.01 116.758C452.282 117.062 453.554 117.339 454.844 117.56C457.194 117.956 459.655 118.343 461.995 117.708C463.94 117.182 465.617 116.03 467.239 114.86C467.396 114.473 467.46 114.141 467.663 113.865C467.663 113.846 467.672 113.828 467.681 113.81C467.718 113.625 467.884 113.524 468.068 113.496C468.124 113.459 468.17 113.423 468.234 113.395C469.018 113.911 469.736 114.455 470.391 115.035C470.105 117.689 467.009 119.882 464.778 120.841C461.636 122.186 458.162 122.831 454.743 122.702C451.324 122.573 447.923 121.688 444.947 119.993C443.325 119.071 441.813 117.938 440.311 116.841L440.302 116.851Z" fill="#FFEC9F"/>
<path d="M459.072 122.591C460.335 118.739 460.925 114.297 460.16 110.104C476.757 114.021 477.9 127.502 474.683 137.27C470.96 148.623 446.825 153.396 434.937 142.771C432.983 141.03 431.315 137.519 430.514 133.4C442.392 135.777 456.317 130.985 459.072 122.591Z" fill="black" fill-opacity="0.05"/>
</g>
<path d="M46.152 99.432C44.936 99.432 44.008 99.096 43.368 98.424C42.728 97.752 42.408 96.808 42.408 95.592V68.52C42.408 67.304 42.728 66.376 43.368 65.736C44.008 65.064 44.936 64.728 46.152 64.728C47.336 64.728 48.248 65.064 48.888 65.736C49.528 66.376 49.848 67.304 49.848 68.52V79.896H49.944L62.712 66.552C63.256 65.976 63.816 65.544 64.392 65.256C65 64.936 65.688 64.776 66.456 64.776C67.576 64.776 68.376 65.064 68.856 65.64C69.368 66.216 69.592 66.888 69.528 67.656C69.464 68.424 69.112 69.144 68.472 69.816L55.656 82.92L55.704 79.704L69.144 94.056C69.88 94.856 70.248 95.672 70.248 96.504C70.28 97.336 70.008 98.04 69.432 98.616C68.888 99.16 68.072 99.432 66.984 99.432C66.056 99.432 65.304 99.24 64.728 98.856C64.184 98.472 63.576 97.912 62.904 97.176L49.944 83.544H49.848V95.592C49.848 96.808 49.528 97.752 48.888 98.424C48.28 99.096 47.368 99.432 46.152 99.432ZM87.0709 99.528C84.2869 99.528 81.8869 99.032 79.8709 98.04C77.8869 97.016 76.3509 95.592 75.2629 93.768C74.2069 91.912 73.6789 89.736 73.6789 87.24C73.6789 84.808 74.1909 82.68 75.2149 80.856C76.2389 79 77.6629 77.56 79.4869 76.536C81.3429 75.48 83.4389 74.952 85.7749 74.952C87.4709 74.952 89.0069 75.24 90.3829 75.816C91.7589 76.36 92.9429 77.16 93.9349 78.216C94.9269 79.24 95.6789 80.504 96.1909 82.008C96.7029 83.48 96.9589 85.128 96.9589 86.952C96.9589 87.56 96.7669 88.024 96.3829 88.344C95.9989 88.632 95.4389 88.776 94.7029 88.776H79.6309V85.032H91.7269L90.9589 85.704C90.9589 84.392 90.7669 83.304 90.3829 82.44C89.9989 81.544 89.4389 80.872 88.7029 80.424C87.9989 79.976 87.1189 79.752 86.0629 79.752C84.8789 79.752 83.8709 80.024 83.0389 80.568C82.2069 81.112 81.5669 81.896 81.1189 82.92C80.6709 83.944 80.4469 85.176 80.4469 86.616V87C80.4469 89.432 81.0069 91.224 82.1269 92.376C83.2789 93.528 84.9749 94.104 87.2149 94.104C87.9829 94.104 88.8629 94.008 89.8549 93.816C90.8469 93.624 91.7749 93.32 92.6389 92.904C93.3749 92.552 94.0309 92.44 94.6069 92.568C95.1829 92.664 95.6309 92.92 95.9509 93.336C96.2709 93.752 96.4469 94.232 96.4789 94.776C96.5429 95.32 96.4309 95.864 96.1429 96.408C95.8549 96.92 95.3749 97.352 94.7029 97.704C93.6149 98.312 92.3829 98.76 91.0069 99.048C89.6629 99.368 88.3509 99.528 87.0709 99.528ZM82.1269 72.12C81.6789 72.6 81.1989 72.872 80.6869 72.936C80.1749 73 79.7269 72.904 79.3429 72.648C78.9589 72.36 78.7029 71.992 78.5749 71.544C78.4789 71.096 78.6229 70.6 79.0069 70.056L81.7429 65.928C82.3189 65.096 82.9269 64.52 83.5669 64.2C84.2389 63.88 84.9909 63.72 85.8229 63.72C86.3989 63.72 86.9269 63.784 87.4069 63.912C87.8869 64.04 88.3349 64.264 88.7509 64.584C89.1669 64.904 89.5509 65.352 89.9029 65.928L92.6389 70.056C93.0229 70.6 93.1669 71.096 93.0709 71.544C92.9749 71.992 92.7349 72.36 92.3509 72.648C91.9989 72.904 91.5509 73 91.0069 72.936C90.4949 72.872 89.9989 72.6 89.5189 72.12L85.8229 68.184L82.1269 72.12ZM95.1349 67.512C94.7829 67.96 94.3829 68.216 93.9349 68.28C93.4869 68.312 93.0869 68.232 92.7349 68.04C92.3829 67.816 92.1429 67.496 92.0149 67.08C91.9189 66.632 92.0149 66.136 92.3029 65.592L95.0869 60.552C95.4069 60.008 95.7909 59.656 96.2389 59.496C96.7189 59.336 97.1989 59.32 97.6789 59.448C98.1589 59.576 98.5589 59.816 98.8789 60.168C99.1989 60.52 99.3749 60.936 99.4069 61.416C99.4389 61.896 99.2469 62.392 98.8309 62.904L95.1349 67.512ZM112.743 99.528C110.535 99.528 108.679 99.16 107.175 98.424C105.703 97.688 104.599 96.616 103.863 95.208C103.159 93.8 102.807 92.024 102.807 89.88V80.856H100.791C99.8946 80.856 99.1906 80.616 98.6786 80.136C98.1986 79.656 97.9586 79 97.9586 78.168C97.9586 77.272 98.1986 76.6 98.6786 76.152C99.1906 75.672 99.8946 75.432 100.791 75.432H102.807V71.784C102.807 70.568 103.127 69.656 103.767 69.048C104.407 68.408 105.303 68.088 106.455 68.088C107.639 68.088 108.535 68.408 109.143 69.048C109.751 69.656 110.055 70.568 110.055 71.784V75.432H114.615C115.511 75.432 116.199 75.672 116.679 76.152C117.159 76.6 117.399 77.272 117.399 78.168C117.399 79 117.159 79.656 116.679 80.136C116.199 80.616 115.511 80.856 114.615 80.856H110.055V89.592C110.055 90.936 110.359 91.944 110.967 92.616C111.607 93.288 112.615 93.624 113.991 93.624C114.471 93.624 114.919 93.576 115.335 93.48C115.751 93.384 116.135 93.32 116.487 93.288C116.935 93.256 117.303 93.4 117.591 93.72C117.879 94.008 118.023 94.664 118.023 95.688C118.023 96.456 117.895 97.128 117.639 97.704C117.383 98.28 116.935 98.696 116.295 98.952C115.879 99.112 115.303 99.24 114.567 99.336C113.863 99.464 113.255 99.528 112.743 99.528ZM154.051 108.072C152.867 108.072 151.971 107.752 151.363 107.112C150.755 106.504 150.451 105.592 150.451 104.376V94.584H150.979C150.467 96.056 149.491 97.256 148.051 98.184C146.643 99.08 145.011 99.528 143.155 99.528C141.107 99.528 139.299 99.032 137.731 98.04C136.195 97.048 134.995 95.624 134.131 93.768C133.267 91.912 132.835 89.72 132.835 87.192C132.835 84.664 133.267 82.488 134.131 80.664C134.995 78.84 136.195 77.432 137.731 76.44C139.299 75.448 141.107 74.952 143.155 74.952C145.043 74.952 146.707 75.432 148.147 76.392C149.619 77.32 150.579 78.552 151.027 80.088L150.499 81.96V78.696C150.499 77.512 150.803 76.616 151.411 76.008C152.051 75.368 152.947 75.048 154.099 75.048C155.251 75.048 156.131 75.368 156.739 76.008C157.379 76.616 157.699 77.512 157.699 78.696V104.376C157.699 105.592 157.379 106.504 156.739 107.112C156.099 107.752 155.203 108.072 154.051 108.072ZM145.315 94.104C146.371 94.104 147.283 93.848 148.051 93.336C148.819 92.824 149.427 92.072 149.875 91.08C150.323 90.056 150.547 88.76 150.547 87.192C150.547 84.856 150.067 83.144 149.107 82.056C148.147 80.936 146.883 80.376 145.315 80.376C144.291 80.376 143.379 80.616 142.579 81.096C141.811 81.576 141.203 82.328 140.755 83.352C140.339 84.344 140.131 85.624 140.131 87.192C140.131 89.528 140.611 91.272 141.571 92.424C142.531 93.544 143.779 94.104 145.315 94.104ZM171.972 99.528C169.988 99.528 168.34 99.16 167.028 98.424C165.716 97.688 164.74 96.584 164.1 95.112C163.492 93.608 163.188 91.752 163.188 89.544V78.696C163.188 77.48 163.492 76.568 164.1 75.96C164.74 75.352 165.636 75.048 166.788 75.048C167.94 75.048 168.836 75.352 169.476 75.96C170.116 76.568 170.436 77.48 170.436 78.696V89.736C170.436 91.144 170.724 92.2 171.3 92.904C171.876 93.576 172.788 93.912 174.036 93.912C175.412 93.912 176.532 93.432 177.396 92.472C178.292 91.48 178.74 90.184 178.74 88.584V78.696C178.74 77.48 179.044 76.568 179.652 75.96C180.292 75.352 181.188 75.048 182.34 75.048C183.524 75.048 184.42 75.352 185.028 75.96C185.668 76.568 185.988 77.48 185.988 78.696V95.736C185.988 98.2 184.82 99.432 182.484 99.432C181.332 99.432 180.452 99.112 179.844 98.472C179.236 97.832 178.932 96.92 178.932 95.736V92.52L179.652 94.392C178.948 96.024 177.94 97.288 176.628 98.184C175.316 99.08 173.764 99.528 171.972 99.528ZM199.565 99.528C197.837 99.528 196.285 99.192 194.909 98.52C193.533 97.848 192.461 96.936 191.693 95.784C190.925 94.632 190.541 93.336 190.541 91.896C190.541 90.168 190.989 88.808 191.885 87.816C192.781 86.792 194.237 86.072 196.253 85.656C198.269 85.208 200.941 84.984 204.269 84.984H206.813V88.728H204.317C202.685 88.728 201.357 88.824 200.333 89.016C199.341 89.176 198.621 89.464 198.173 89.88C197.757 90.296 197.549 90.872 197.549 91.608C197.549 92.504 197.853 93.24 198.461 93.816C199.101 94.392 200.013 94.68 201.197 94.68C202.125 94.68 202.941 94.472 203.645 94.056C204.381 93.608 204.957 93.016 205.373 92.28C205.789 91.512 205.997 90.648 205.997 89.688V84.168C205.997 82.76 205.677 81.768 205.037 81.192C204.397 80.584 203.309 80.28 201.773 80.28C200.909 80.28 199.965 80.392 198.941 80.616C197.949 80.808 196.845 81.144 195.629 81.624C194.925 81.944 194.301 82.024 193.757 81.864C193.213 81.672 192.797 81.352 192.509 80.904C192.221 80.424 192.077 79.912 192.077 79.368C192.077 78.792 192.237 78.248 192.557 77.736C192.877 77.192 193.405 76.792 194.141 76.536C195.645 75.928 197.053 75.512 198.365 75.288C199.709 75.064 200.941 74.952 202.061 74.952C204.525 74.952 206.541 75.32 208.109 76.056C209.709 76.76 210.909 77.864 211.709 79.368C212.509 80.84 212.909 82.744 212.909 85.08V95.736C212.909 96.92 212.621 97.832 212.045 98.472C211.469 99.112 210.637 99.432 209.549 99.432C208.461 99.432 207.613 99.112 207.005 98.472C206.429 97.832 206.141 96.92 206.141 95.736V93.96L206.477 94.248C206.285 95.336 205.869 96.28 205.229 97.08C204.621 97.848 203.837 98.456 202.877 98.904C201.917 99.32 200.813 99.528 199.565 99.528ZM202.397 72.744C201.725 72.744 201.197 72.632 200.812 72.408C200.461 72.152 200.285 71.8 200.285 71.352C200.285 70.712 200.397 70.184 200.621 69.768C200.877 69.32 201.165 68.936 201.484 68.616C201.837 68.296 202.141 67.992 202.397 67.704C202.653 67.416 202.781 67.064 202.781 66.648C202.781 66.264 202.621 65.992 202.301 65.832C202.013 65.64 201.597 65.544 201.053 65.544C200.829 65.544 200.589 65.56 200.333 65.592C200.077 65.592 199.805 65.64 199.517 65.736C198.909 65.896 198.429 65.928 198.077 65.832C197.757 65.736 197.501 65.464 197.309 65.016C197.117 64.504 197.101 64.056 197.261 63.672C197.453 63.288 197.853 62.984 198.461 62.76C199.069 62.536 199.725 62.376 200.429 62.28C201.165 62.184 201.933 62.136 202.733 62.136C204.429 62.136 205.757 62.44 206.717 63.048C207.677 63.656 208.157 64.536 208.157 65.688C208.157 66.488 207.965 67.144 207.581 67.656C207.229 68.136 206.813 68.568 206.333 68.952C205.853 69.304 205.421 69.672 205.037 70.056C204.685 70.44 204.509 70.92 204.509 71.496C204.509 71.88 204.333 72.184 203.981 72.408C203.629 72.632 203.101 72.744 202.397 72.744ZM235.37 99.432C234.186 99.432 233.274 99.112 232.634 98.472C232.026 97.832 231.722 96.92 231.722 95.736V68.424C231.722 67.208 232.026 66.296 232.634 65.688C233.274 65.048 234.186 64.728 235.37 64.728C236.522 64.728 237.402 65.048 238.01 65.688C238.65 66.296 238.97 67.208 238.97 68.424V79.848H238.298C239.034 78.28 240.122 77.08 241.562 76.248C243.034 75.384 244.698 74.952 246.554 74.952C248.442 74.952 249.994 75.32 251.21 76.056C252.426 76.76 253.338 77.848 253.946 79.32C254.554 80.76 254.858 82.6 254.858 84.84V95.736C254.858 96.92 254.538 97.832 253.898 98.472C253.29 99.112 252.394 99.432 251.21 99.432C250.058 99.432 249.162 99.112 248.522 98.472C247.914 97.832 247.61 96.92 247.61 95.736V85.176C247.61 83.544 247.306 82.376 246.698 81.672C246.122 80.936 245.226 80.568 244.01 80.568C242.474 80.568 241.242 81.048 240.314 82.008C239.418 82.968 238.97 84.248 238.97 85.848V95.736C238.97 98.2 237.77 99.432 235.37 99.432ZM271.596 99.528C269.068 99.528 266.86 99.032 264.972 98.04C263.116 97.048 261.676 95.624 260.652 93.768C259.628 91.912 259.116 89.72 259.116 87.192C259.116 85.304 259.404 83.608 259.98 82.104C260.556 80.6 261.388 79.32 262.476 78.264C263.596 77.176 264.924 76.36 266.46 75.816C267.996 75.24 269.708 74.952 271.596 74.952C274.124 74.952 276.316 75.448 278.172 76.44C280.06 77.432 281.516 78.84 282.54 80.664C283.596 82.488 284.124 84.664 284.124 87.192C284.124 89.112 283.82 90.824 283.212 92.328C282.636 93.832 281.804 95.128 280.716 96.216C279.628 97.304 278.3 98.136 276.732 98.712C275.196 99.256 273.484 99.528 271.596 99.528ZM271.596 94.104C272.652 94.104 273.564 93.848 274.332 93.336C275.1 92.824 275.708 92.072 276.156 91.08C276.604 90.056 276.828 88.76 276.828 87.192C276.828 84.856 276.348 83.144 275.388 82.056C274.428 80.936 273.164 80.376 271.596 80.376C270.572 80.376 269.66 80.616 268.86 81.096C268.092 81.576 267.484 82.328 267.036 83.352C266.62 84.344 266.412 85.624 266.412 87.192C266.412 89.528 266.892 91.272 267.852 92.424C268.812 93.544 270.06 94.104 271.596 94.104ZM271.596 109.512C270.444 109.512 269.548 109.208 268.908 108.6C268.3 108.024 267.996 107.192 267.996 106.104C267.996 104.984 268.3 104.136 268.908 103.56C269.548 102.984 270.444 102.696 271.596 102.696C272.78 102.696 273.676 102.984 274.284 103.56C274.892 104.136 275.196 104.984 275.196 106.104C275.196 107.192 274.892 108.024 274.284 108.6C273.676 109.208 272.78 109.512 271.596 109.512ZM300.006 99.528C297.446 99.528 295.206 99.032 293.286 98.04C291.398 97.016 289.942 95.576 288.918 93.72C287.894 91.864 287.382 89.672 287.382 87.144C287.382 85.256 287.67 83.56 288.246 82.056C288.822 80.552 289.654 79.272 290.742 78.216C291.862 77.16 293.206 76.36 294.774 75.816C296.342 75.24 298.086 74.952 300.006 74.952C300.998 74.952 302.054 75.08 303.174 75.336C304.294 75.56 305.398 75.96 306.486 76.536C307.126 76.824 307.558 77.24 307.782 77.784C308.038 78.296 308.134 78.84 308.07 79.416C308.006 79.96 307.798 80.456 307.446 80.904C307.126 81.32 306.71 81.608 306.198 81.768C305.686 81.896 305.11 81.8 304.47 81.48C303.862 81.128 303.222 80.872 302.55 80.712C301.91 80.552 301.302 80.472 300.726 80.472C299.766 80.472 298.918 80.632 298.182 80.952C297.446 81.24 296.822 81.672 296.31 82.248C295.83 82.792 295.446 83.48 295.158 84.312C294.902 85.144 294.774 86.104 294.774 87.192C294.774 89.304 295.286 90.968 296.31 92.184C297.366 93.368 298.838 93.96 300.726 93.96C301.302 93.96 301.91 93.896 302.55 93.768C303.19 93.608 303.83 93.352 304.47 93C305.11 92.68 305.686 92.6 306.198 92.76C306.71 92.92 307.11 93.224 307.398 93.672C307.718 94.088 307.894 94.584 307.926 95.16C307.99 95.704 307.894 96.248 307.638 96.792C307.414 97.304 306.998 97.704 306.39 97.992C305.302 98.536 304.214 98.92 303.126 99.144C302.038 99.4 300.998 99.528 300.006 99.528ZM336.43 99.528C334.222 99.528 332.366 99.16 330.862 98.424C329.39 97.688 328.286 96.616 327.55 95.208C326.846 93.8 326.494 92.024 326.494 89.88V80.856H324.478C323.582 80.856 322.878 80.616 322.366 80.136C321.886 79.656 321.646 79 321.646 78.168C321.646 77.272 321.886 76.6 322.366 76.152C322.878 75.672 323.582 75.432 324.478 75.432H326.494V71.784C326.494 70.568 326.814 69.656 327.454 69.048C328.094 68.408 328.99 68.088 330.142 68.088C331.326 68.088 332.222 68.408 332.83 69.048C333.438 69.656 333.742 70.568 333.742 71.784V75.432H338.302C339.198 75.432 339.886 75.672 340.366 76.152C340.846 76.6 341.086 77.272 341.086 78.168C341.086 79 340.846 79.656 340.366 80.136C339.886 80.616 339.198 80.856 338.302 80.856H333.742V89.592C333.742 90.936 334.046 91.944 334.654 92.616C335.294 93.288 336.302 93.624 337.678 93.624C338.158 93.624 338.606 93.576 339.022 93.48C339.438 93.384 339.822 93.32 340.174 93.288C340.622 93.256 340.99 93.4 341.278 93.72C341.566 94.008 341.71 94.664 341.71 95.688C341.71 96.456 341.582 97.128 341.326 97.704C341.07 98.28 340.622 98.696 339.982 98.952C339.566 99.112 338.99 99.24 338.254 99.336C337.55 99.464 336.942 99.528 336.43 99.528ZM347.916 99.432C346.732 99.432 345.82 99.112 345.18 98.472C344.572 97.832 344.268 96.92 344.268 95.736V68.424C344.268 67.208 344.572 66.296 345.18 65.688C345.82 65.048 346.732 64.728 347.916 64.728C349.068 64.728 349.948 65.048 350.556 65.688C351.196 66.296 351.516 67.208 351.516 68.424V79.848H350.844C351.58 78.28 352.668 77.08 354.108 76.248C355.58 75.384 357.244 74.952 359.1 74.952C360.988 74.952 362.54 75.32 363.756 76.056C364.972 76.76 365.884 77.848 366.492 79.32C367.1 80.76 367.404 82.6 367.404 84.84V95.736C367.404 96.92 367.084 97.832 366.444 98.472C365.836 99.112 364.94 99.432 363.756 99.432C362.604 99.432 361.708 99.112 361.068 98.472C360.46 97.832 360.156 96.92 360.156 95.736V85.176C360.156 83.544 359.852 82.376 359.244 81.672C358.668 80.936 357.772 80.568 356.556 80.568C355.02 80.568 353.788 81.048 352.86 82.008C351.964 82.968 351.516 84.248 351.516 85.848V95.736C351.516 98.2 350.316 99.432 347.916 99.432ZM381.503 99.528C379.519 99.528 377.871 99.16 376.559 98.424C375.247 97.688 374.271 96.584 373.631 95.112C373.023 93.608 372.719 91.752 372.719 89.544V78.696C372.719 77.512 373.023 76.616 373.631 76.008C374.271 75.368 375.167 75.048 376.319 75.048C377.471 75.048 378.367 75.368 379.007 76.008C379.647 76.616 379.967 77.512 379.967 78.696V89.736C379.967 91.144 380.255 92.2 380.831 92.904C381.407 93.576 382.319 93.912 383.567 93.912C384.943 93.912 386.063 93.432 386.927 92.472C387.823 91.48 388.271 90.184 388.271 88.584V79.032C388.271 77.816 388.575 76.936 389.183 76.392C389.791 75.816 390.639 75.448 391.727 75.288C392.335 75.192 392.847 75.016 393.263 74.76C393.679 74.504 393.999 74.12 394.223 73.608C394.479 73.096 394.607 72.408 394.607 71.544C394.607 70.072 395.663 69.336 397.775 69.336C398.767 69.336 399.535 69.528 400.079 69.912C400.623 70.264 400.895 70.792 400.895 71.496C400.895 73.352 400.399 74.936 399.407 76.248C398.447 77.528 397.151 78.36 395.519 78.744V95.736C395.519 98.2 394.351 99.432 392.015 99.432C390.863 99.432 389.983 99.112 389.375 98.472C388.767 97.832 388.463 96.92 388.463 95.736V92.52L389.183 94.392C388.479 96.024 387.471 97.288 386.159 98.184C384.847 99.08 383.295 99.528 381.503 99.528ZM384.143 72.744C383.471 72.744 382.943 72.632 382.559 72.408C382.207 72.152 382.031 71.8 382.031 71.352C382.031 70.712 382.143 70.184 382.367 69.768C382.623 69.32 382.911 68.936 383.231 68.616C383.583 68.296 383.887 67.992 384.143 67.704C384.399 67.416 384.527 67.064 384.527 66.648C384.527 66.264 384.367 65.992 384.047 65.832C383.759 65.64 383.343 65.544 382.799 65.544C382.575 65.544 382.335 65.56 382.079 65.592C381.823 65.592 381.551 65.64 381.263 65.736C380.655 65.896 380.175 65.928 379.823 65.832C379.503 65.736 379.247 65.464 379.055 65.016C378.863 64.504 378.847 64.056 379.007 63.672C379.199 63.288 379.599 62.984 380.207 62.76C380.815 62.536 381.471 62.376 382.175 62.28C382.911 62.184 383.679 62.136 384.479 62.136C386.175 62.136 387.503 62.44 388.463 63.048C389.423 63.656 389.903 64.536 389.903 65.688C389.903 66.488 389.711 67.144 389.327 67.656C388.975 68.136 388.559 68.568 388.079 68.952C387.599 69.304 387.167 69.672 386.783 70.056C386.431 70.44 386.255 70.92 386.255 71.496C386.255 71.88 386.079 72.184 385.727 72.408C385.375 72.632 384.847 72.744 384.143 72.744Z" fill="#454575"/>
<defs>
<filter id="filter0_di_3522_154845" x="0" y="0" width="667" height="169" filterUnits="userSpaceOnUse" color-interpolation-filters="sRGB">
<feFlood flood-opacity="0" result="BackgroundImageFix"/>
<feColorMatrix in="SourceAlpha" type="matrix" values="0 0 0 0 0 0 0 0 0 0 0 0 0 0 0 0 0 0 127 0" result="hardAlpha"/>
<feOffset dy="2"/>
<feGaussianBlur stdDeviation="1"/>
<feComposite in2="hardAlpha" operator="out"/>
<feColorMatrix type="matrix" values="0 0 0 0 0 0 0 0 0 0 0 0 0 0 0 0 0 0 0.25 0"/>
<feBlend mode="normal" in2="BackgroundImageFix" result="effect1_dropShadow_3522_154845"/>
<feBlend mode="normal" in="SourceGraphic" in2="effect1_dropShadow_3522_154845" result="shape"/>
<feColorMatrix in="SourceAlpha" type="matrix" values="0 0 0 0 0 0 0 0 0 0 0 0 0 0 0 0 0 0 127 0" result="hardAlpha"/>
<feOffset dy="-4"/>
<feComposite in2="hardAlpha" operator="arithmetic" k2="-1" k3="1"/>
<feColorMatrix type="matrix" values="0 0 0 0 0 0 0 0 0 0 0 0 0 0 0 0 0 0 0.1 0"/>
<feBlend mode="normal" in2="shape" result="effect2_innerShadow_3522_154845"/>
</filter>
<filter id="filter1_d_3522_154845" x="459.913" y="52.5742" width="168.951" height="95.4233" filterUnits="userSpaceOnUse" color-interpolation-filters="sRGB">
<feFlood flood-opacity="0" result="BackgroundImageFix"/>
<feColorMatrix in="SourceAlpha" type="matrix" values="0 0 0 0 0 0 0 0 0 0 0 0 0 0 0 0 0 0 127 0" result="hardAlpha"/>
<feOffset dy="5.33081"/>
<feGaussianBlur stdDeviation="2.6654"/>
<feComposite in2="hardAlpha" operator="out"/>
<feColorMatrix type="matrix" values="0 0 0 0 0 0 0 0 0 0 0 0 0 0 0 0 0 0 0.25 0"/>
<feBlend mode="normal" in2="BackgroundImageFix" result="effect1_dropShadow_3522_154845"/>
<feBlend mode="normal" in="SourceGraphic" in2="effect1_dropShadow_3522_154845" result="shape"/>
</filter>
<filter id="filter2_d_3522_154845" x="498.195" y="31.2876" width="76.7339" height="70.5869" filterUnits="userSpaceOnUse" color-interpolation-filters="sRGB">
<feFlood flood-opacity="0" result="BackgroundImageFix"/>
<feColorMatrix in="SourceAlpha" type="matrix" values="0 0 0 0 0 0 0 0 0 0 0 0 0 0 0 0 0 0 127 0" result="hardAlpha"/>
<feOffset dy="5.33081"/>
<feGaussianBlur stdDeviation="2.6654"/>
<feComposite in2="hardAlpha" operator="out"/>
<feColorMatrix type="matrix" values="0 0 0 0 0 0 0 0 0 0 0 0 0 0 0 0 0 0 0.25 0"/>
<feBlend mode="normal" in2="BackgroundImageFix" result="effect1_dropShadow_3522_154845"/>
<feBlend mode="normal" in="SourceGraphic" in2="effect1_dropShadow_3522_154845" result="shape"/>
</filter>
<filter id="filter3_i_3522_154845" x="511.244" y="40.6108" width="29.9824" height="29.595" filterUnits="userSpaceOnUse" color-interpolation-filters="sRGB">
<feFlood flood-opacity="0" result="BackgroundImageFix"/>
<feBlend mode="normal" in="SourceGraphic" in2="BackgroundImageFix" result="shape"/>
<feColorMatrix in="SourceAlpha" type="matrix" values="0 0 0 0 0 0 0 0 0 0 0 0 0 0 0 0 0 0 127 0" result="hardAlpha"/>
<feOffset dy="1.88482"/>
<feComposite in2="hardAlpha" operator="arithmetic" k2="-1" k3="1"/>
<feColorMatrix type="matrix" values="0 0 0 0 0 0 0 0 0 0 0 0 0 0 0 0 0 0 0.2 0"/>
<feBlend mode="normal" in2="shape" result="effect1_innerShadow_3522_154845"/>
</filter>
<filter id="filter4_i_3522_154845" x="511.244" y="40.6108" width="29.1367" height="25.9734" filterUnits="userSpaceOnUse" color-interpolation-filters="sRGB">
<feFlood flood-opacity="0" result="BackgroundImageFix"/>
<feBlend mode="normal" in="SourceGraphic" in2="BackgroundImageFix" result="shape"/>
<feColorMatrix in="SourceAlpha" type="matrix" values="0 0 0 0 0 0 0 0 0 0 0 0 0 0 0 0 0 0 127 0" result="hardAlpha"/>
<feOffset dy="1.88482"/>
<feComposite in2="hardAlpha" operator="arithmetic" k2="-1" k3="1"/>
<feColorMatrix type="matrix" values="0 0 0 0 0 0 0 0 0 0 0 0 0 0 0 0 0 0 0.2 0"/>
<feBlend mode="normal" in2="shape" result="effect1_innerShadow_3522_154845"/>
</filter>
<filter id="filter5_i_3522_154845" x="516.152" y="53.9905" width="9.18945" height="9.66504" filterUnits="userSpaceOnUse" color-interpolation-filters="sRGB">
<feFlood flood-opacity="0" result="BackgroundImageFix"/>
<feBlend mode="normal" in="SourceGraphic" in2="BackgroundImageFix" result="shape"/>
<feColorMatrix in="SourceAlpha" type="matrix" values="0 0 0 0 0 0 0 0 0 0 0 0 0 0 0 0 0 0 127 0" result="hardAlpha"/>
<feOffset dx="0.942409" dy="0.942409"/>
<feComposite in2="hardAlpha" operator="arithmetic" k2="-1" k3="1"/>
<feColorMatrix type="matrix" values="0 0 0 0 0 0 0 0 0 0 0 0 0 0 0 0 0 0 0.25 0"/>
<feBlend mode="normal" in2="shape" result="effect1_innerShadow_3522_154845"/>
</filter>
<filter id="filter6_i_3522_154845" x="521.783" y="47.634" width="9.32617" height="9.97974" filterUnits="userSpaceOnUse" color-interpolation-filters="sRGB">
<feFlood flood-opacity="0" result="BackgroundImageFix"/>
<feBlend mode="normal" in="SourceGraphic" in2="BackgroundImageFix" result="shape"/>
<feColorMatrix in="SourceAlpha" type="matrix" values="0 0 0 0 0 0 0 0 0 0 0 0 0 0 0 0 0 0 127 0" result="hardAlpha"/>
<feOffset dx="0.942409" dy="0.942409"/>
<feComposite in2="hardAlpha" operator="arithmetic" k2="-1" k3="1"/>
<feColorMatrix type="matrix" values="0 0 0 0 0 0 0 0 0 0 0 0 0 0 0 0 0 0 0.25 0"/>
<feBlend mode="normal" in2="shape" result="effect1_innerShadow_3522_154845"/>
</filter>
<filter id="filter7_i_3522_154845" x="522.871" y="54.5984" width="11.7344" height="13.8931" filterUnits="userSpaceOnUse" color-interpolation-filters="sRGB">
<feFlood flood-opacity="0" result="BackgroundImageFix"/>
<feBlend mode="normal" in="SourceGraphic" in2="BackgroundImageFix" result="shape"/>
<feColorMatrix in="SourceAlpha" type="matrix" values="0 0 0 0 0 0 0 0 0 0 0 0 0 0 0 0 0 0 127 0" result="hardAlpha"/>
<feOffset dy="1.41361"/>
<feComposite in2="hardAlpha" operator="arithmetic" k2="-1" k3="1"/>
<feColorMatrix type="matrix" values="0 0 0 0 0 0 0 0 0 0 0 0 0 0 0 0 0 0 0.2 0"/>
<feBlend mode="normal" in2="shape" result="effect1_innerShadow_3522_154845"/>
</filter>
<filter id="filter8_i_3522_154845" x="527.416" y="60.2146" width="5.55469" height="7.19165" filterUnits="userSpaceOnUse" color-interpolation-filters="sRGB">
<feFlood flood-opacity="0" result="BackgroundImageFix"/>
<feBlend mode="normal" in="SourceGraphic" in2="BackgroundImageFix" result="shape"/>
<feColorMatrix in="SourceAlpha" type="matrix" values="0 0 0 0 0 0 0 0 0 0 0 0 0 0 0 0 0 0 127 0" result="hardAlpha"/>
<feOffset dx="1.88482" dy="-0.471205"/>
<feComposite in2="hardAlpha" operator="arithmetic" k2="-1" k3="1"/>
<feColorMatrix type="matrix" values="0 0 0 0 0 0 0 0 0 0 0 0 0 0 0 0 0 0 0.2 0"/>
<feBlend mode="normal" in2="shape" result="effect1_innerShadow_3522_154845"/>
</filter>
<filter id="filter9_d_3522_154845" x="614.72" y="27.46" width="38.3452" height="24.4846" filterUnits="userSpaceOnUse" color-interpolation-filters="sRGB">
<feFlood flood-opacity="0" result="BackgroundImageFix"/>
<feColorMatrix in="SourceAlpha" type="matrix" values="0 0 0 0 0 0 0 0 0 0 0 0 0 0 0 0 0 0 127 0" result="hardAlpha"/>
<feOffset dy="5.33081"/>
<feGaussianBlur stdDeviation="2.6654"/>
<feComposite in2="hardAlpha" operator="out"/>
<feColorMatrix type="matrix" values="0 0 0 0 0 0 0 0 0 0 0 0 0 0 0 0 0 0 0.25 0"/>
<feBlend mode="normal" in2="BackgroundImageFix" result="effect1_dropShadow_3522_154845"/>
<feBlend mode="normal" in="SourceGraphic" in2="effect1_dropShadow_3522_154845" result="shape"/>
</filter>
<filter id="filter10_d_3522_154845" x="483.781" y="13.2217" width="28.8198" height="27.3909" filterUnits="userSpaceOnUse" color-interpolation-filters="sRGB">
<feFlood flood-opacity="0" result="BackgroundImageFix"/>
<feColorMatrix in="SourceAlpha" type="matrix" values="0 0 0 0 0 0 0 0 0 0 0 0 0 0 0 0 0 0 127 0" result="hardAlpha"/>
<feOffset dy="5.33081"/>
<feGaussianBlur stdDeviation="2.6654"/>
<feComposite in2="hardAlpha" operator="out"/>
<feColorMatrix type="matrix" values="0 0 0 0 0 0 0 0 0 0 0 0 0 0 0 0 0 0 0.25 0"/>
<feBlend mode="normal" in2="BackgroundImageFix" result="effect1_dropShadow_3522_154845"/>
<feBlend mode="normal" in="SourceGraphic" in2="effect1_dropShadow_3522_154845" result="shape"/>
</filter>
<filter id="filter11_d_3522_154845" x="564.212" y="4.02478" width="38.644" height="37.8285" filterUnits="userSpaceOnUse" color-interpolation-filters="sRGB">
<feFlood flood-opacity="0" result="BackgroundImageFix"/>
<feColorMatrix in="SourceAlpha" type="matrix" values="0 0 0 0 0 0 0 0 0 0 0 0 0 0 0 0 0 0 127 0" result="hardAlpha"/>
<feOffset dy="5.33081"/>
<feGaussianBlur stdDeviation="2.6654"/>
<feComposite in2="hardAlpha" operator="out"/>
<feColorMatrix type="matrix" values="0 0 0 0 0 0 0 0 0 0 0 0 0 0 0 0 0 0 0.25 0"/>
<feBlend mode="normal" in2="BackgroundImageFix" result="effect1_dropShadow_3522_154845"/>
<feBlend mode="normal" in="SourceGraphic" in2="effect1_dropShadow_3522_154845" result="shape"/>
</filter>
<filter id="filter12_d_3522_154845" x="582.3" y="47.5483" width="35.4878" height="25.7895" filterUnits="userSpaceOnUse" color-interpolation-filters="sRGB">
<feFlood flood-opacity="0" result="BackgroundImageFix"/>
<feColorMatrix in="SourceAlpha" type="matrix" values="0 0 0 0 0 0 0 0 0 0 0 0 0 0 0 0 0 0 127 0" result="hardAlpha"/>
<feOffset dy="5.33081"/>
<feGaussianBlur stdDeviation="2.6654"/>
<feComposite in2="hardAlpha" operator="out"/>
<feColorMatrix type="matrix" values="0 0 0 0 0 0 0 0 0 0 0 0 0 0 0 0 0 0 0.25 0"/>
<feBlend mode="normal" in2="BackgroundImageFix" result="effect1_dropShadow_3522_154845"/>
<feBlend mode="normal" in="SourceGraphic" in2="effect1_dropShadow_3522_154845" result="shape"/>
</filter>
<filter id="filter13_d_3522_154845" x="480.433" y="89.7817" width="28.4194" height="22.8987" filterUnits="userSpaceOnUse" color-interpolation-filters="sRGB">
<feFlood flood-opacity="0" result="BackgroundImageFix"/>
<feColorMatrix in="SourceAlpha" type="matrix" values="0 0 0 0 0 0 0 0 0 0 0 0 0 0 0 0 0 0 127 0" result="hardAlpha"/>
<feOffset dy="5.33081"/>
<feGaussianBlur stdDeviation="2.6654"/>
<feComposite in2="hardAlpha" operator="out"/>
<feColorMatrix type="matrix" values="0 0 0 0 0 0 0 0 0 0 0 0 0 0 0 0 0 0 0.25 0"/>
<feBlend mode="normal" in2="BackgroundImageFix" result="effect1_dropShadow_3522_154845"/>
<feBlend mode="normal" in="SourceGraphic" in2="effect1_dropShadow_3522_154845" result="shape"/>
</filter>
<filter id="filter14_d_3522_154845" x="426.634" y="5.73096" width="55.3472" height="50.6082" filterUnits="userSpaceOnUse" color-interpolation-filters="sRGB">
<feFlood flood-opacity="0" result="BackgroundImageFix"/>
<feColorMatrix in="SourceAlpha" type="matrix" values="0 0 0 0 0 0 0 0 0 0 0 0 0 0 0 0 0 0 127 0" result="hardAlpha"/>
<feOffset dy="5.33081"/>
<feGaussianBlur stdDeviation="2.6654"/>
<feComposite in2="hardAlpha" operator="out"/>
<feColorMatrix type="matrix" values="0 0 0 0 0 0 0 0 0 0 0 0 0 0 0 0 0 0 0.25 0"/>
<feBlend mode="normal" in2="BackgroundImageFix" result="effect1_dropShadow_3522_154845"/>
<feBlend mode="normal" in="SourceGraphic" in2="effect1_dropShadow_3522_154845" result="shape"/>
</filter>
<filter id="filter15_d_3522_154845" x="424.669" y="109" width="56.7788" height="50.3618" filterUnits="userSpaceOnUse" color-interpolation-filters="sRGB">
<feFlood flood-opacity="0" result="BackgroundImageFix"/>
<feColorMatrix in="SourceAlpha" type="matrix" values="0 0 0 0 0 0 0 0 0 0 0 0 0 0 0 0 0 0 127 0" result="hardAlpha"/>
<feOffset dy="5.33081"/>
<feGaussianBlur stdDeviation="2.6654"/>
<feComposite in2="hardAlpha" operator="out"/>
<feColorMatrix type="matrix" values="0 0 0 0 0 0 0 0 0 0 0 0 0 0 0 0 0 0 0.25 0"/>
<feBlend mode="normal" in2="BackgroundImageFix" result="effect1_dropShadow_3522_154845"/>
<feBlend mode="normal" in="SourceGraphic" in2="effect1_dropShadow_3522_154845" result="shape"/>
</filter>
<linearGradient id="paint0_linear_3522_154845" x1="397.254" y1="23.5729" x2="699.733" y2="23.5729" gradientUnits="userSpaceOnUse">
<stop stop-color="#717BFF"/>
<stop offset="0.44" stop-color="#6D99E2"/>
<stop offset="0.64" stop-color="#6ABEBF"/>
<stop offset="0.835" stop-color="#67D4AA"/>
<stop offset="1" stop-color="#00C463"/>
</linearGradient>
<linearGradient id="paint1_linear_3522_154845" x1="510.818" y1="43.8014" x2="535.613" y2="67.3491" gradientUnits="userSpaceOnUse">
<stop stop-color="#206D33"/>
<stop offset="0.47991" stop-color="#EFEFEF"/>
</linearGradient>
<linearGradient id="paint2_linear_3522_154845" x1="519.76" y1="36.2629" x2="509.437" y2="53.4401" gradientUnits="userSpaceOnUse">
<stop offset="1" stop-color="#298B41"/>
</linearGradient>
<radialGradient id="paint3_radial_3522_154845" cx="0" cy="0" r="1" gradientUnits="userSpaceOnUse" gradientTransform="translate(514.612 45.3155) rotate(121.004) scale(10.0202 8.36101)">
<stop offset="0.409263" stop-color="#51A63B"/>
<stop offset="1" stop-color="#298B41"/>
</radialGradient>
<linearGradient id="paint4_linear_3522_154845" x1="539.324" y1="62.9165" x2="508.727" y2="44.5392" gradientUnits="userSpaceOnUse">
<stop stop-color="#FFED66" stop-opacity="0.8"/>
<stop offset="0.428" stop-color="white" stop-opacity="0"/>
</linearGradient>
</defs>
</svg>
