<svg width="32" height="33" viewBox="0 0 32 33" fill="none" xmlns="http://www.w3.org/2000/svg">
<path d="M31.5 7.9475L31.39 7.9625L19 9.4475L6.825 8.0125H6.82L4.525 7.7425L2 7.4475L13.615 6.0525C14.2029 5.9825 14.7971 5.9825 15.385 6.0525L31.5 7.9475Z" fill="#7070F2"/>
<path d="M31.5 12.4475L31.39 12.4625L19 13.9475C18.9628 13.9478 18.9258 13.9427 18.89 13.9325C18.39 13.8075 18 12.8575 18 11.6975C18 10.4525 18.45 9.44752 19 9.44752L31.39 7.96252C30.89 8.08752 30.5 9.03752 30.5 10.1975C30.5 11.4425 30.95 12.4475 31.5 12.4475Z" fill="#EAEAEA"/>
<path d="M31.5 16.9475C31.4476 16.9468 31.3955 16.9535 31.345 16.9675L19 18.4475C18.9628 18.4478 18.9258 18.4427 18.89 18.4325C18.39 18.3075 18 17.3575 18 16.1975C18 14.9525 18.45 13.9475 19 13.9475L31.39 12.4625C30.89 12.5875 30.5 13.5375 30.5 14.6975C30.5 15.9425 30.95 16.9475 31.5 16.9475Z" fill="#EAEAEA"/>
<path d="M31.39 12.4625C31.07 12.5425 30.795 12.9575 30.64 13.5525L19 14.9475C18.53 14.9475 18.13 15.6875 18.025 16.6875C18.01 16.5325 18 16.3675 18 16.1975C18 14.9525 18.45 13.9475 19 13.9475L31.39 12.4625Z" fill="#DAD4D4"/>
<path d="M31.39 7.96252C31.07 8.04252 30.795 8.45752 30.64 9.05252L19 10.4475C18.53 10.4475 18.13 11.1875 18.025 12.1875C18.01 12.0325 18 11.8675 18 11.6975C18 10.4525 18.45 9.44752 19 9.44752L31.39 7.96252Z" fill="#DAD4D4"/>
<path d="M31.5001 23.9475L31.1401 23.9925L26.5001 24.5475V20.5475L23.5001 20.9075V24.9075L19.0001 25.4475L18.8451 25.4275C18.7963 25.4176 18.7491 25.4008 18.7051 25.3775C18.6596 25.3563 18.6162 25.3312 18.5751 25.3025C18.5712 25.3022 18.5677 25.3004 18.5651 25.2975C18.5301 25.2725 18.4901 25.2425 18.4551 25.2125C18.4046 25.1662 18.3578 25.116 18.3151 25.0625C18.2728 25.0139 18.2343 24.9621 18.2001 24.9075C18.1227 24.7947 18.0541 24.676 17.9951 24.5525C17.9551 24.4675 17.9201 24.3775 17.8801 24.2825C17.8551 24.2125 17.8301 24.1375 17.8051 24.0625C17.7741 23.9777 17.7491 23.8908 17.7301 23.8025C17.7051 23.7175 17.6851 23.6275 17.6651 23.5375C17.602 23.2609 17.5586 22.9802 17.5351 22.6975V22.6825C17.5107 22.4383 17.499 22.193 17.5001 21.9475C17.5001 20.0125 18.1701 18.4475 19.0001 18.4475L31.3451 16.9675C31.3268 16.9692 31.3094 16.9761 31.2951 16.9875C30.5651 17.2075 30.0001 18.6725 30.0001 20.4475C30.0001 22.3825 30.6701 23.9475 31.5001 23.9475Z" fill="#EAEAEA"/>
<path d="M31.5001 23.9475L31.1401 23.9925L26.5001 24.5475V23.0475C27.0605 22.9761 27.5747 22.7 27.9439 22.2724C28.313 21.8448 28.5111 21.2958 28.5001 20.731C28.5001 20.705 28.5001 20.681 28.5001 20.6525V20.6325C28.5037 20.4062 28.4591 20.1817 28.3693 19.9739C28.2794 19.7662 28.1463 19.5799 27.9788 19.4276C27.8114 19.2753 27.6134 19.1604 27.3981 19.0905C27.1828 19.0207 26.955 18.9975 26.7301 19.0225L19.0001 19.9475C18.8313 19.9649 18.6696 20.0239 18.5292 20.1192C18.3889 20.2145 18.2744 20.3431 18.1961 20.4935C17.9261 20.9056 17.7762 21.3847 17.7629 21.8771C17.7497 22.3696 17.8737 22.856 18.1211 23.282C18.1922 23.4327 18.293 23.5676 18.4174 23.6785C18.5418 23.7894 18.6872 23.8741 18.8451 23.9275L19.0001 23.9475L23.5001 23.4075V24.9075L19.0001 25.4475L18.8451 25.4275C18.7963 25.4176 18.7491 25.4008 18.7051 25.3775C18.6596 25.3563 18.6162 25.3312 18.5751 25.3025C18.5712 25.3022 18.5677 25.3004 18.5651 25.2975C18.5301 25.2725 18.4901 25.2425 18.4551 25.2125C18.4046 25.1662 18.3578 25.116 18.3151 25.0625C18.2728 25.0139 18.2343 24.9621 18.2001 24.9075C18.1227 24.7947 18.0541 24.676 17.9951 24.5525C17.9551 24.4675 17.9201 24.3775 17.8801 24.2825C17.8551 24.2125 17.8301 24.1375 17.8051 24.0625C17.7741 23.9777 17.7491 23.8908 17.7301 23.8025C17.7051 23.7175 17.6851 23.6275 17.6651 23.5375C17.602 23.2609 17.5586 22.9802 17.5351 22.6975V22.6825C17.5107 22.4383 17.499 22.193 17.5001 21.9475C17.5001 20.0125 18.1701 18.4475 19.0001 18.4475L31.3451 16.9675C31.3268 16.9692 31.3094 16.9761 31.2951 16.9875C30.5651 17.2075 30.0001 18.6725 30.0001 20.4475C30.0001 22.3825 30.6701 23.9475 31.5001 23.9475Z" fill="#DAD4D4"/>
<path d="M26.5 24.5475V26.9475L25 24.9475L23.5 27.4475V24.9075V20.9125L26.5 20.5475V24.5475Z" fill="#ED1C24"/>
<path d="M25.5 20.6675V21.58C25.507 22.2111 25.3213 22.8293 24.9675 23.352C24.6138 23.8746 24.109 24.2769 23.5205 24.505L23.5 24.5125V27.4475L25 24.9475L26.5 26.9475V20.5475L25.5 20.6675Z" fill="#C1272D"/>
<path d="M6.82351 8.01245L18.9985 9.44745C18.4485 9.44745 17.9985 10.4525 17.9985 11.6975C17.9985 12.8575 18.3885 13.8075 18.8885 13.9325L15.2985 13.5125L13.0985 13.2525L6.56351 12.4825C6.33506 11.8291 6.22829 11.1393 6.24851 10.4475C6.24851 9.27245 6.48851 8.28245 6.81851 8.01245H6.82351Z" fill="#5E5EEA"/>
<path d="M18.8885 13.9325C18.9242 13.9427 18.9613 13.9477 18.9985 13.9475C18.4485 13.9475 17.9985 14.9525 17.9985 16.1975C17.9985 17.3575 18.3885 18.3075 18.8885 18.4325L15.8235 18.0725L14.9885 17.9775C14.7264 17.3337 14.6021 16.6422 14.6235 15.9475C14.6235 14.7625 14.9135 13.7675 15.2985 13.5125L18.8885 13.9325Z" fill="#99E0D4"/>
<path d="M18.89 18.4325C18.9258 18.4427 18.9628 18.4478 19 18.4475C18.17 18.4475 17.5 20.0125 17.5 21.9475C17.5 23.7625 18.09 25.2525 18.845 25.4275L15.86 25.0775C15.355 24.4575 15 23.1125 15 21.5525C15 20.0325 15.335 18.7175 15.825 18.0725L18.89 18.4325Z" fill="#FFCA3A"/>
<path d="M15.86 25.0775L13.84 24.8425C13.34 24.2075 13 22.8775 13 21.3425C13 19.8075 13.345 18.4725 13.845 17.8425L14.99 17.9775L15.825 18.0725C15.335 18.7175 15 20.0325 15 21.5525C15 23.1125 15.355 24.4575 15.86 25.0775Z" fill="#F7931E"/>
<path d="M13.101 13.2524L15.301 13.5124C14.916 13.7674 14.626 14.7624 14.626 15.9474C14.6046 16.6422 14.7289 17.3337 14.991 17.9774L13.846 17.8424L13.031 17.7474C12.6327 17.0493 12.4484 16.2495 12.501 15.4474C12.4939 14.6743 12.7016 13.9144 13.101 13.2524Z" fill="#7070F2"/>
<path d="M13.0303 17.7475L13.8453 17.8425C13.3453 18.4725 13.0003 19.8025 13.0003 21.3425C13.0003 22.8825 13.3403 24.2075 13.8403 24.8425L5.73028 23.8875C5.20803 22.8614 4.96 21.7177 5.01028 20.5675C5.01028 18.8875 5.42528 17.4575 6.00028 16.9175L13.0303 17.7475Z" fill="#FFCA3A"/>
<path d="M6.565 12.4825L13.1 13.2525C12.7006 13.9145 12.4929 14.6744 12.5 15.4475C12.4474 16.2496 12.6317 17.0494 13.03 17.7475L6 16.9175L3.995 16.6825L2 16.4475C1.45 16.4475 1 15.4425 1 14.1975C1 12.9525 1.45 11.9475 2 11.9475L4.445 12.2325V12.2375L6.565 12.4825Z" fill="#99E0D4"/>
<path d="M18.8902 18.4325L15.8252 18.0725L14.9902 17.9775C14.8074 17.5537 14.6959 17.1026 14.6602 16.6425L18.0752 17.0325C18.2052 17.7875 18.5152 18.3375 18.8902 18.4325Z" fill="#5BD3C7"/>
<path d="M14.9903 17.9775L13.8453 17.8425L13.0303 17.7475C12.7672 17.3445 12.6091 16.8821 12.5703 16.4025L14.6603 16.6425C14.696 17.1026 14.8075 17.5537 14.9903 17.9775Z" fill="#5858DD"/>
<path d="M13.0281 17.7475L5.99813 16.9175L3.99312 16.6825L1.99812 16.4475C1.58812 16.4475 1.23313 15.8875 1.07812 15.0825L3.97312 15.4125L7.36312 15.8025L12.5681 16.4025C12.6069 16.8822 12.7651 17.3445 13.0281 17.7475Z" fill="#5BD3C7"/>
<path d="M4.52459 7.74255L6.81959 8.01255C6.48959 8.28255 6.24959 9.27255 6.24959 10.4476C6.22938 11.1394 6.33614 11.8292 6.56459 12.4826L4.44459 12.2376V12.2326C4.1085 11.5198 3.95555 10.7344 3.99959 9.94755C3.99267 9.1808 4.17288 8.42392 4.52459 7.74255Z" fill="#99E0D4"/>
<path d="M3.99549 16.6825L6.00049 16.9175C5.42549 17.4575 5.01049 18.8875 5.01049 20.5675C4.96021 21.7177 5.20824 22.8614 5.73049 23.8875L3.73549 23.6525C3.20901 22.626 2.95914 21.48 3.01049 20.3275C3.01049 18.6525 3.42049 17.2225 3.99549 16.6825Z" fill="#F7931E"/>
<path d="M2 7.44751L4.525 7.74251C4.17329 8.42388 3.99308 9.18075 4 9.94751C3.95596 10.7343 4.10891 11.5197 4.445 12.2325L2 11.9475C1.45 11.9475 1 10.9425 1 9.69751C1 8.45251 1.45 7.44751 2 7.44751Z" fill="#5E5EEA"/>
<path d="M18.8903 13.9325L6.56531 12.4825C6.44286 12.1708 6.36054 11.8449 6.32031 11.5125L18.1603 12.9075C18.3153 13.4675 18.5803 13.8575 18.8903 13.9325Z" fill="#5B52D8"/>
<path d="M4.44328 12.2374V12.2324C4.27198 11.9315 4.15996 11.6005 4.11328 11.2574L6.31828 11.5124C6.35851 11.8449 6.44083 12.1708 6.56328 12.4824L4.44328 12.2374Z" fill="#5BD3C7"/>
<path d="M4.445 12.2325L2 11.9475C1.625 11.9475 1.295 11.4775 1.125 10.7825C1.22498 10.8824 1.35877 10.9413 1.5 10.9475L4.115 11.2575C4.16168 11.6006 4.2737 11.9315 4.445 12.2325Z" fill="#5B52D8"/>
<path d="M2 16.4475L3.995 16.6825C3.42 17.2225 3.01 18.6525 3.01 20.3275C2.95865 21.48 3.20853 22.626 3.735 23.6525L2 23.4475C1.17 23.4475 0.5 21.8825 0.5 19.9475C0.5 18.0125 1.17 16.4475 2 16.4475Z" fill="#FFCA3A"/>
<path d="M18.8459 25.4275L15.8609 25.0775C15.5335 24.6164 15.3116 24.0889 15.2109 23.5325L15.6059 23.5775L17.7309 23.8075C17.9659 24.6975 18.3759 25.3175 18.8459 25.4275Z" fill="#F7931E"/>
<path d="M15.8581 25.0775L13.8381 24.8425C13.5216 24.3844 13.3053 23.8648 13.2031 23.3175L13.4181 23.3425L15.2081 23.5325C15.3088 24.089 15.5307 24.6164 15.8581 25.0775Z" fill="#F15A24"/>
<path d="M13.8392 24.8425L5.72922 23.8875C5.47155 23.4413 5.29229 22.9543 5.19922 22.4475L13.2042 23.3175C13.3064 23.8648 13.5227 24.3844 13.8392 24.8425Z" fill="#F7931E"/>
<path d="M5.72812 23.8875L3.73312 23.6525C3.4761 23.2114 3.29683 22.7294 3.20312 22.2275L4.65313 22.3875L5.19812 22.4475C5.29119 22.9543 5.47046 23.4414 5.72812 23.8875Z" fill="#F15A24"/>
<path d="M3.73344 23.6525L1.99844 23.4475C1.48844 23.4475 1.04344 22.8625 0.773438 21.9625L2.49344 22.1525L3.20344 22.2275C3.29714 22.7294 3.47642 23.2114 3.73344 23.6525Z" fill="#F7931E"/>
<path d="M22.8578 21.4874C22.7305 21.487 22.6081 21.4381 22.5156 21.3505C22.4231 21.2629 22.3675 21.1434 22.3602 21.0162C22.3529 20.8891 22.3943 20.7639 22.4761 20.6663C22.5579 20.5687 22.6739 20.506 22.8003 20.4909L27.1938 19.9604C27.3256 19.9447 27.4582 19.982 27.5624 20.064C27.6667 20.1461 27.7341 20.2662 27.7498 20.3979C27.7656 20.5297 27.7283 20.6623 27.6462 20.7665C27.5642 20.8708 27.4441 20.9382 27.3123 20.9539L22.9168 21.4839C22.8973 21.4863 22.8776 21.4875 22.8578 21.4874Z" fill="#DAD4D4"/>
</svg>
