<svg width="33" height="32" viewBox="0 0 33 32" fill="none" xmlns="http://www.w3.org/2000/svg">
<g clip-path="url(#clip0_5414_85161)">
<path d="M29.8653 3.0373C29.0334 2.34413 28.0583 1.84378 27.0101 1.57222C25.9619 1.30065 24.8665 1.26459 23.8027 1.46663L19.4253 2.38397C18.3377 2.57852 17.3252 3.07048 16.5 3.8053C15.6921 3.07589 14.6973 2.58562 13.6267 2.3893L9.14534 1.45597C8.08889 1.26386 7.00313 1.30609 5.96479 1.5797C4.92646 1.8533 3.96087 2.35158 3.13626 3.03935C2.31165 3.72712 1.64814 4.58758 1.19261 5.55995C0.73708 6.53231 0.500644 7.59285 0.500007 8.66663V21.7226C0.49763 23.4354 1.09572 25.0948 2.19024 26.4123C3.28477 27.7297 4.80647 28.6217 6.49067 28.9333L14.2333 30.4626C14.9785 30.5985 15.7345 30.6668 16.492 30.6666C17.2647 30.6661 18.0358 30.5961 18.796 30.4573L26.4787 28.9333C28.1674 28.6262 29.6948 27.7366 30.7951 26.4192C31.8954 25.1019 32.4987 23.4403 32.5 21.724V8.66663C32.5011 7.59243 32.2655 6.53118 31.8102 5.55827C31.3548 4.58536 30.6908 3.72465 29.8653 3.0373ZM14.5 26.4386L7.23734 25.004C6.46918 24.8644 5.77439 24.4596 5.27414 23.8601C4.77389 23.2607 4.49992 22.5047 4.50001 21.724V8.66663C4.50246 7.78472 4.85334 6.9395 5.4762 6.31514C6.09906 5.69078 6.94343 5.33787 7.82534 5.3333C8.01046 5.33294 8.19522 5.34945 8.37734 5.38263L12.8587 6.31597C13.3192 6.39991 13.7356 6.64269 14.0355 7.00205C14.3354 7.3614 14.4998 7.81457 14.5 8.28263V26.4386ZM28.5 21.724C28.4985 22.5094 28.2204 23.2693 27.7145 23.8701C27.2085 24.4709 26.5071 24.8742 25.7333 25.0093L18.5 26.4386V8.28263C18.5028 7.8058 18.6746 7.34541 18.9849 6.98335C19.2952 6.62129 19.7239 6.38103 20.1947 6.3053L24.5707 5.3893C25.0508 5.30204 25.5443 5.32128 26.0162 5.44566C26.4881 5.57003 26.927 5.79652 27.3017 6.10911C27.6765 6.42169 27.9781 6.81276 28.1851 7.25469C28.3922 7.69661 28.4997 8.17861 28.5 8.66663V21.724Z" fill="white" fill-opacity="0.8"/>
</g>
<defs>
<clipPath id="clip0_5414_85161">
<rect width="32" height="32" fill="white" transform="translate(0.5)"/>
</clipPath>
</defs>
</svg>
