<svg width="20" height="20" viewBox="0 0 20 20" fill="none" xmlns="http://www.w3.org/2000/svg">
<g clip-path="url(#clip0_5414_97970)">
<path d="M18.3533 1.89846C17.8334 1.46523 17.224 1.15252 16.5688 0.982788C15.9137 0.813057 15.2291 0.790521 14.5642 0.916798L11.8283 1.49013C11.1486 1.61173 10.5157 1.9192 10 2.37846C9.49508 1.92259 8.87329 1.61616 8.20417 1.49346L5.40334 0.910131C4.74305 0.790063 4.06446 0.816462 3.4155 0.987462C2.76653 1.15846 2.16304 1.46989 1.64766 1.89975C1.13228 2.3296 0.717589 2.86739 0.432882 3.47512C0.148175 4.08285 0.000402281 4.74569 4.41239e-06 5.4168V13.5768C-0.00148141 14.6473 0.372324 15.6844 1.0564 16.5078C1.74048 17.3312 2.69155 17.8887 3.74417 18.0835L8.58334 19.0393C9.04909 19.1242 9.52157 19.1669 9.99501 19.1668C10.478 19.1665 10.9599 19.1227 11.435 19.036L16.2367 18.0835C17.2921 17.8915 18.2468 17.3355 18.9344 16.5122C19.6221 15.6888 19.9992 14.6504 20 13.5776V5.4168C20.0007 4.74542 19.8535 4.08214 19.5689 3.47407C19.2843 2.866 18.8693 2.32806 18.3533 1.89846ZM8.75 16.5243L4.21084 15.6276C3.73074 15.5404 3.29649 15.2874 2.98384 14.9127C2.67118 14.5381 2.49995 14.0656 2.5 13.5776V5.4168C2.50154 4.8656 2.72084 4.33734 3.11013 3.94711C3.49941 3.55689 4.02714 3.33632 4.57834 3.33346C4.69404 3.33324 4.80951 3.34356 4.92334 3.3643L7.72417 3.94763C8.01197 4.00009 8.27225 4.15183 8.45969 4.37643C8.64714 4.60103 8.74987 4.88426 8.75 5.1768V16.5243ZM17.5 13.5776C17.4991 14.0685 17.3253 14.5434 17.009 14.9189C16.6928 15.2944 16.2544 15.5465 15.7708 15.631L11.25 16.5243V5.1768C11.2517 4.87878 11.3591 4.59104 11.5531 4.36475C11.747 4.13846 12.0149 3.9883 12.3092 3.94096L15.0442 3.36846C15.3443 3.31393 15.6527 3.32595 15.9476 3.40369C16.2426 3.48142 16.5168 3.62298 16.7511 3.81834C16.9853 4.01371 17.1738 4.25813 17.3032 4.53433C17.4326 4.81053 17.4998 5.11178 17.5 5.4168V13.5776Z" fill="black" fill-opacity="0.6"/>
</g>
<defs>
<clipPath id="clip0_5414_97970">
<rect width="20" height="20" fill="white"/>
</clipPath>
</defs>
</svg>
