<svg width="16" height="16" viewBox="0 0 16 16" fill="none" xmlns="http://www.w3.org/2000/svg">
<g clip-path="url(#clip0_5414_85137)">
<path d="M8 0C6.41775 0 4.87104 0.469192 3.55544 1.34824C2.23985 2.22729 1.21447 3.47672 0.608967 4.93853C0.00346629 6.40034 -0.15496 8.00887 0.153721 9.56072C0.462403 11.1126 1.22433 12.538 2.34315 13.6569C3.46197 14.7757 4.88743 15.5376 6.43928 15.8463C7.99113 16.155 9.59966 15.9965 11.0615 15.391C12.5233 14.7855 13.7727 13.7602 14.6518 12.4446C15.5308 11.129 16 9.58225 16 8C15.9977 5.87897 15.1541 3.84547 13.6543 2.34568C12.1545 0.845886 10.121 0.00229405 8 0V0ZM8 14C6.81332 14 5.65328 13.6481 4.66658 12.9888C3.67989 12.3295 2.91085 11.3925 2.45673 10.2961C2.0026 9.19975 1.88378 7.99335 2.11529 6.82946C2.3468 5.66557 2.91825 4.59647 3.75736 3.75736C4.59648 2.91824 5.66558 2.3468 6.82946 2.11529C7.99335 1.88378 9.19975 2.0026 10.2961 2.45672C11.3925 2.91085 12.3295 3.67988 12.9888 4.66658C13.6481 5.65327 14 6.81331 14 8C13.9982 9.59076 13.3655 11.1159 12.2407 12.2407C11.1159 13.3655 9.59076 13.9982 8 14Z" fill="white"/>
<path d="M6.99903 7.37006L5.39903 8.37006C5.28769 8.43977 5.19117 8.53073 5.115 8.63775C5.03882 8.74477 4.98447 8.86575 4.95507 8.99378C4.92566 9.12181 4.92177 9.25438 4.94361 9.38392C4.96545 9.51345 5.0126 9.63741 5.08237 9.74872C5.15207 9.86006 5.24304 9.95658 5.35006 10.0328C5.45708 10.1089 5.57806 10.1633 5.70609 10.1927C5.83412 10.2221 5.96669 10.226 6.09623 10.2041C6.22576 10.1823 6.34972 10.1352 6.46103 10.0654L8.3737 8.86539C8.5656 8.74514 8.72371 8.57798 8.83312 8.3797C8.94253 8.18141 8.99963 7.95852 8.99903 7.73206V5.18139C8.99903 4.91618 8.89368 4.66183 8.70614 4.47429C8.5186 4.28675 8.26425 4.1814 7.99903 4.1814C7.73382 4.1814 7.47946 4.28675 7.29193 4.47429C7.10439 4.66183 6.99903 4.91618 6.99903 5.18139V7.37006Z" fill="white"/>
</g>
<defs>
<clipPath id="clip0_5414_85137">
<rect width="16" height="16" fill="white"/>
</clipPath>
</defs>
</svg>
