<svg width="17" height="16" viewBox="0 0 17 16" fill="none" xmlns="http://www.w3.org/2000/svg">
<g clip-path="url(#clip0_5414_85149)">
<path d="M8.5 0C6.91775 0 5.37104 0.469192 4.05544 1.34824C2.73985 2.22729 1.71447 3.47672 1.10897 4.93853C0.503466 6.40034 0.34504 8.00887 0.653721 9.56072C0.962403 11.1126 1.72433 12.538 2.84315 13.6569C3.96197 14.7757 5.38743 15.5376 6.93928 15.8463C8.49113 16.155 10.0997 15.9965 11.5615 15.391C13.0233 14.7855 14.2727 13.7602 15.1518 12.4446C16.0308 11.129 16.5 9.58225 16.5 8C16.4977 5.87897 15.6541 3.84547 14.1543 2.34568C12.6545 0.845886 10.621 0.00229405 8.5 0V0ZM8.5 14C7.31332 14 6.15328 13.6481 5.16658 12.9888C4.17989 12.3295 3.41085 11.3925 2.95673 10.2961C2.5026 9.19975 2.38378 7.99335 2.61529 6.82946C2.8468 5.66557 3.41825 4.59647 4.25736 3.75736C5.09648 2.91824 6.16558 2.3468 7.32946 2.11529C8.49335 1.88378 9.69975 2.0026 10.7961 2.45672C11.8925 2.91085 12.8295 3.67988 13.4888 4.66658C14.1481 5.65327 14.5 6.81331 14.5 8C14.4982 9.59076 13.8655 11.1159 12.7407 12.2407C11.6159 13.3655 10.0908 13.9982 8.5 14Z" fill="#252525"/>
<path d="M7.49903 7.37006L5.89903 8.37006C5.78769 8.43977 5.69117 8.53073 5.615 8.63775C5.53882 8.74477 5.48447 8.86575 5.45507 8.99378C5.42566 9.12181 5.42177 9.25438 5.44361 9.38392C5.46545 9.51345 5.5126 9.63741 5.58237 9.74872C5.65207 9.86006 5.74304 9.95658 5.85006 10.0328C5.95708 10.1089 6.07806 10.1633 6.20609 10.1927C6.33412 10.2221 6.46669 10.226 6.59623 10.2041C6.72576 10.1823 6.84972 10.1352 6.96103 10.0654L8.8737 8.86539C9.0656 8.74514 9.22371 8.57798 9.33312 8.3797C9.44253 8.18141 9.49963 7.95852 9.49903 7.73206V5.18139C9.49903 4.91618 9.39368 4.66183 9.20614 4.47429C9.0186 4.28675 8.76425 4.1814 8.49903 4.1814C8.23382 4.1814 7.97946 4.28675 7.79193 4.47429C7.60439 4.66183 7.49903 4.91618 7.49903 5.18139V7.37006Z" fill="#252525"/>
</g>
<defs>
<clipPath id="clip0_5414_85149">
<rect width="16" height="16" fill="white" transform="translate(0.5)"/>
</clipPath>
</defs>
</svg>
