<svg width="33" height="32" viewBox="0 0 33 32" fill="none" xmlns="http://www.w3.org/2000/svg">
<path d="M27.6412 16C27.6412 18.2039 26.9877 20.3582 25.7633 22.1907C24.5389 24.0231 22.7986 25.4513 20.7625 26.2947C18.7264 27.1381 16.486 27.3587 14.3245 26.9288C12.163 26.4988 10.1775 25.4376 8.61914 23.8792C7.06078 22.3209 5.99953 20.3354 5.56958 18.1739C5.13963 16.0124 5.3603 13.7719 6.20367 11.7358C7.04705 9.69976 8.47526 7.95948 10.3077 6.73509C12.1401 5.51069 14.2945 4.85718 16.4983 4.85718C19.4536 4.85718 22.2878 6.03115 24.3775 8.12084C26.4672 10.2105 27.6412 13.0448 27.6412 16Z" fill="white"/>
<path d="M27.6421 16C27.6414 13.6409 26.8919 11.3428 25.5017 9.43687C24.1114 7.5309 22.1521 6.11536 19.9059 5.39412C17.6597 4.67287 15.2426 4.68314 13.0026 5.42344C10.7626 6.16374 8.81543 7.59587 7.44141 9.51358C9.58732 7.97587 12.2096 7.25021 14.8407 7.46597C17.4719 7.68173 19.9409 8.82487 21.8077 10.6916C23.6744 12.5584 24.8175 15.0274 25.0333 17.6585C25.2491 20.2897 24.5234 22.9119 22.9857 25.0579C24.4269 24.0278 25.6013 22.6685 26.4112 21.093C27.2211 19.5175 27.6431 17.7715 27.6421 16Z" fill="black" fill-opacity="0.1"/>
<path d="M16.5 0.5C19.5656 0.5 22.5624 1.40906 25.1113 3.11222C27.6603 4.81538 29.647 7.23615 30.8201 10.0684C31.9933 12.9007 32.3002 16.0172 31.7022 19.0239C31.1041 22.0306 29.6279 24.7924 27.4602 26.9602C25.2924 29.1279 22.5306 30.6041 19.5239 31.2022C16.5172 31.8002 13.4007 31.4933 10.5684 30.3201C7.73615 29.147 5.31538 27.1603 3.61222 24.6113C1.90906 22.0624 1 19.0656 1 16C1 11.8891 2.63303 7.94666 5.53985 5.03985C8.44666 2.13303 12.3891 0.5 16.5 0.5Z" fill="white"/>
<path d="M17.356 9.65701V15.777C17.3574 15.9762 17.2875 16.1693 17.1588 16.3213L14.4674 19.5956C14.387 19.6865 14.2863 19.7573 14.1734 19.8022C14.0606 19.8471 13.9388 19.8648 13.8178 19.854C13.6969 19.8431 13.5802 19.804 13.4771 19.7398C13.3741 19.6755 13.2876 19.588 13.2246 19.4841C13.11 19.2959 13.0605 19.0751 13.0837 18.856C13.107 18.6368 13.2016 18.4314 13.3531 18.2713L15.5388 15.6913C15.6063 15.6143 15.6429 15.5151 15.6417 15.4127V9.65701C15.6304 9.53761 15.6441 9.41716 15.682 9.30338C15.7199 9.1896 15.7812 9.085 15.8619 8.99628C15.9426 8.90755 16.0409 8.83667 16.1506 8.78816C16.2603 8.73966 16.3789 8.7146 16.4988 8.7146C16.6188 8.7146 16.7374 8.73966 16.8471 8.78816C16.9568 8.83667 17.0551 8.90755 17.1358 8.99628C17.2165 9.085 17.2778 9.1896 17.3157 9.30338C17.3536 9.41716 17.3673 9.53761 17.356 9.65701Z" fill="#FF9800"/>
<path d="M13.2262 19.4842C13.1117 19.296 13.0622 19.0752 13.0854 18.8561C13.1086 18.6369 13.2033 18.4315 13.3548 18.2714L15.5405 15.6914C15.608 15.6144 15.6446 15.5152 15.6434 15.4128V9.65711C15.6434 9.48181 15.6892 9.30954 15.7762 9.15739C15.7324 9.14885 15.688 9.14398 15.6434 9.14282C15.4049 9.1547 15.1808 9.26058 15.0201 9.43728C14.8595 9.61398 14.7754 9.84712 14.7862 10.0857V15.8414C14.7875 15.9438 14.7508 16.043 14.6834 16.12L12.4977 18.7C12.3462 18.86 12.2515 19.0655 12.2283 19.2846C12.205 19.5038 12.2545 19.7245 12.3691 19.9128C12.4321 20.0166 12.5186 20.1042 12.6217 20.1684C12.7247 20.2327 12.8414 20.2718 12.9624 20.2826C13.0833 20.2935 13.2051 20.2758 13.318 20.2309C13.4308 20.186 13.5315 20.1152 13.612 20.0242L13.762 19.8417C13.6528 19.8223 13.5489 19.7805 13.4567 19.719C13.3645 19.6575 13.2861 19.5775 13.2262 19.4842Z" fill="#E3EFFA"/>
<path d="M16.5 4C14.1266 4 11.8066 4.70379 9.83316 6.02236C7.85977 7.34094 6.3217 9.21508 5.41345 11.4078C4.5052 13.6005 4.26756 16.0133 4.73058 18.3411C5.1936 20.6689 6.33649 22.807 8.01472 24.4853C9.69295 26.1635 11.8311 27.3064 14.1589 27.7694C16.4867 28.2324 18.8995 27.9948 21.0922 27.0865C23.2849 26.1783 25.1591 24.6402 26.4776 22.6668C27.7962 20.6934 28.5 18.3734 28.5 16C28.5 12.8174 27.2357 9.76515 24.9853 7.51472C22.7348 5.26428 19.6826 4 16.5 4ZM16.5 27.1429C14.2962 27.1429 12.1418 26.4893 10.3094 25.2649C8.47693 24.0406 7.04872 22.3003 6.20535 20.2642C5.36197 18.2281 5.14131 15.9876 5.57125 13.8261C6.0012 11.6646 7.06246 9.67917 8.62081 8.12081C10.1792 6.56245 12.1646 5.5012 14.3261 5.07125C16.4876 4.6413 18.7281 4.86197 20.7642 5.70534C22.8003 6.54872 24.5406 7.97693 25.7649 9.80936C26.9893 11.6418 27.6429 13.7961 27.6429 16C27.6429 18.9553 26.4689 21.7895 24.3792 23.8792C22.2895 25.9689 19.4553 27.1429 16.5 27.1429Z" fill="#00B26B" stroke="#00B26B" stroke-width="2"/>
<path d="M16.9104 7.38453V5.34351C16.7742 5.33859 16.6375 5.33325 16.5001 5.33325C16.3627 5.33325 16.226 5.33859 16.0898 5.34351V7.38453H16.9104Z" fill="#006638" stroke="#006638"/>
<path d="M16.0898 24.6152V26.6563C16.226 26.6612 16.3627 26.6665 16.5001 26.6665C16.6375 26.6665 16.7742 26.6612 16.9104 26.6563V24.6152H16.0898Z" fill="#006638" stroke="#006638"/>
<path d="M27.1543 15.5896H25.1133V16.4101H27.1543C27.1592 16.2739 27.1646 16.1373 27.1646 15.9999C27.1646 15.8624 27.1592 15.7258 27.1543 15.5896Z" fill="#006638" stroke="#006638"/>
<path d="M7.88331 15.5896H5.84229C5.83736 15.7258 5.83203 15.8624 5.83203 15.9999C5.83203 16.1373 5.83736 16.2739 5.84229 16.4101H7.88331V15.5896Z" fill="#006638" stroke="#006638"/>
</svg>
