<svg width="32" height="32" viewBox="0 0 32 32" fill="none" xmlns="http://www.w3.org/2000/svg">
<path d="M23.6 4H8.4C5.86667 4 3.6 5.33333 2.26667 7.6C0.8 10.1333 0 13.0667 0 16C0 22.5333 2.66667 29.3333 7.06667 29.3333C9.46667 29.3333 11.4667 27.4667 12.4 24.4C12.5333 24.1333 12.6667 24 12.9333 24H19.0667C19.3333 24 19.6 24.1333 19.6 24.4C20.9333 28.6667 23.4667 29.3333 24.8 29.3333C29.3333 29.3333 32 22.5333 32 16C32 13.0667 31.2 10.1333 29.7333 7.46667C28.5333 5.33333 26.1333 4 23.6 4ZM24.9333 25.3333C24.5333 25.3333 24 24.6667 23.6 23.2C22.9333 21.3333 21.2 20 19.2 20H12.9333C10.9333 20 9.2 21.3333 8.53333 23.2C8.13333 24.5333 7.46667 25.3333 7.06667 25.3333C6.26667 25.2 4 21.8667 4 16C4 13.7333 4.66667 11.4667 5.73333 9.46667C6.26667 8.53333 7.33333 8 8.4 8H23.6C24.6667 8 25.7333 8.53333 26.2667 9.46667C27.4667 11.4667 28 13.7333 28 16C28 21.8667 25.7333 25.2 24.9333 25.3333Z" fill="white"/>
<path d="M14.0013 12.0004H13.3346V11.3337C13.3346 10.2671 12.4013 9.33374 11.3346 9.33374C10.268 9.33374 9.33464 10.2671 9.33464 11.3337V12.0004H8.66797C7.6013 12.0004 6.66797 12.9337 6.66797 14.0004C6.66797 15.0671 7.6013 16.0004 8.66797 16.0004H9.33464V16.6671C9.33464 17.7337 10.268 18.6671 11.3346 18.6671C12.4013 18.6671 13.3346 17.7337 13.3346 16.6671V16.0004H14.0013C15.068 16.0004 16.0013 15.0671 16.0013 14.0004C16.0013 12.9337 15.068 12.0004 14.0013 12.0004Z" fill="white"/>
<path d="M22.6667 15.9996C24.1394 15.9996 25.3333 14.8057 25.3333 13.3329C25.3333 11.8602 24.1394 10.6663 22.6667 10.6663C21.1939 10.6663 20 11.8602 20 13.3329C20 14.8057 21.1939 15.9996 22.6667 15.9996Z" fill="white"/>
</svg>
