<svg width="40" height="40" viewBox="0 0 40 40" fill="none" xmlns="http://www.w3.org/2000/svg">
    <path
        d="M10.202 15L28.822 15C29.1516 15.0001 29.4737 15.0979 29.7477 15.281C30.0217 15.4641 30.2353 15.7244 30.3614 16.0289C30.4875 16.3334 30.5206 16.6685 30.4563 16.9917C30.392 17.315 30.2333 17.6119 30.0003 17.845L20.6903 27.155C20.3778 27.4674 19.9539 27.643 19.512 27.643C19.07 27.643 18.6462 27.4674 18.3336 27.155L9.02363 17.845C8.79062 17.6119 8.63194 17.315 8.56766 16.9917C8.50338 16.6685 8.53639 16.3334 8.66251 16.0289C8.78862 15.7244 9.00219 15.4641 9.2762 15.281C9.55022 15.0979 9.87238 15.0001 10.202 15Z"
        fill="white" />
</svg>
    