<svg width="60" height="60" viewBox="0 0 60 60" fill="none" xmlns="http://www.w3.org/2000/svg">
    <path
        d="M33.2321 46.4649L19.2671 32.4999C18.7984 32.0311 18.5352 31.3953 18.5352 30.7324C18.5352 30.0695 18.7984 29.4337 19.2671 28.9649L33.2321 14.9999C33.5818 14.6504 34.0272 14.4124 34.512 14.316C34.9969 14.2195 35.4995 14.269 35.9563 14.4582C36.413 14.6474 36.8034 14.9677 37.0781 15.3788C37.3528 15.7898 37.4995 16.273 37.4996 16.7674V44.6974C37.4995 45.1918 37.3528 45.675 37.0781 46.0861C36.8034 46.4971 36.413 46.8174 35.9563 47.0066C35.4995 47.1958 34.9969 47.2453 34.512 47.1489C34.0272 47.0525 33.5818 46.8144 33.2321 46.4649Z"
        fill="#3A3335" />
</svg>
    