<svg width="60" height="60" viewBox="0 0 60 60" fill="none" xmlns="http://www.w3.org/2000/svg">
    <path
        d="M33.2324 46.4649L19.2674 32.4999C18.7987 32.0311 18.5354 31.3953 18.5354 30.7324C18.5354 30.0695 18.7987 29.4337 19.2674 28.9649L33.2324 14.9999C33.582 14.6504 34.0274 14.4124 34.5123 14.316C34.9972 14.2195 35.4998 14.269 35.9565 14.4582C36.4133 14.6474 36.8037 14.9677 37.0784 15.3788C37.3531 15.7898 37.4998 16.273 37.4999 16.7674V44.6974C37.4998 45.1918 37.3531 45.675 37.0784 46.0861C36.8037 46.4971 36.4133 46.8174 35.9565 47.0066C35.4998 47.1958 34.9972 47.2453 34.5123 47.1489C34.0274 47.0525 33.582 46.8144 33.2324 46.4649Z"
        fill="white" />
</svg>
    