<svg width="32" height="32" viewBox="0 0 32 32" fill="none" xmlns="http://www.w3.org/2000/svg">
    <path
        d="M8.55204 12H23.448C23.7117 12.0001 23.9694 12.0783 24.1887 12.2248C24.4079 12.3713 24.5787 12.5795 24.6796 12.8231C24.7805 13.0667 24.8069 13.3348 24.7555 13.5934C24.7041 13.852 24.5771 14.0895 24.3907 14.276L16.9427 21.724C16.6927 21.9739 16.3536 22.1144 16 22.1144C15.6465 22.1144 15.3074 21.9739 15.0574 21.724L7.60938 14.276C7.42296 14.0895 7.29602 13.852 7.2446 13.5934C7.19318 13.3348 7.21958 13.0667 7.32047 12.8231C7.42137 12.5795 7.59222 12.3713 7.81143 12.2248C8.03065 12.0783 8.28838 12.0001 8.55204 12Z"
        fill="white" fill-opacity="0.8" />
</svg>
    