<svg width="24" height="24" viewBox="0 0 24 24" fill="none" xmlns="http://www.w3.org/2000/svg">
    <path
        d="M21.3138 18.3296V21.8542C21.3138 22.4401 20.8408 22.913 20.255 22.913H4.55262C3.62443 22.913 2.79498 22.2106 2.69615 21.3141C2.68908 21.2578 2.68555 21.1942 2.68555 21.1342V21.0706C2.70321 20.6048 2.90088 20.1848 3.20789 19.8777C3.52912 19.5565 3.97383 19.3554 4.46438 19.3554L21.3138 18.3296Z"
        fill="#B72A2A" />
    <path
        d="M4.55276 22.913H4.46453C3.5434 22.913 2.78452 22.2106 2.69629 21.3141C2.79512 22.2106 3.62457 22.913 4.55276 22.913Z"
        fill="#FF6047" />
    <path
        d="M21.3134 1.38362V18.6495C21.3134 19.0377 20.9958 19.3554 20.6075 19.3554H6.33105V0.324799H20.2546C20.8404 0.324799 21.3134 0.797685 21.3134 1.38362Z"
        fill="#FF6047" />
    <path
        d="M19.4565 11.3242C19.4565 13.2689 17.0812 14.8466 14.1518 14.8466C11.2259 14.8466 8.85059 13.2689 8.85059 11.3242C8.85059 9.38305 11.2259 7.80533 14.1518 7.80533C17.0812 7.80533 19.4565 9.38305 19.4565 11.3242Z"
        fill="#B72A2A" />
    <path
        d="M6.33146 0.324799H4.46438C3.97383 0.324799 3.52912 0.525913 3.20789 0.847145C2.88675 1.1682 2.68555 1.613 2.68555 2.10364V21.1342C2.68555 22.1153 3.4832 22.913 4.46438 22.913H6.33146V0.324799Z"
        fill="#FDC72E" />
    <path
        d="M6.33146 19.3553V22.913H4.46438C3.4832 22.913 2.68555 22.1153 2.68555 21.1342V21.0706C2.70321 20.6048 2.90088 20.1848 3.20789 19.8777C3.52912 19.5565 3.97383 19.3553 4.46438 19.3553H6.33146Z"
        fill="#FDC72E" />
    <path
        d="M6.33146 19.3553V22.913H4.46438C3.54326 22.913 2.78438 22.2106 2.69615 21.3141C2.68908 21.2577 2.68555 21.1942 2.68555 21.1342V21.0706C2.70321 20.6048 2.90088 20.1848 3.20789 19.8777C3.52912 19.5565 3.97383 19.3553 4.46438 19.3553H6.33146Z"
        fill="black" fill-opacity="0.1" />
    <path
        d="M20.5373 20.453V21.8153C20.5373 21.9917 20.3927 22.1365 20.2162 22.1365H4.52797C3.96322 22.1365 3.45148 21.6741 3.46208 21.113C3.46914 20.8554 3.57142 20.6118 3.75849 20.4283C3.94556 20.2377 4.19967 20.1319 4.46437 20.1319H20.2162C20.3927 20.1319 20.5373 20.2765 20.5373 20.453Z"
        fill="#E9E9FF" />
    <path
        d="M2.68555 8.233C2.68555 7.74236 2.88675 7.29757 3.20789 6.97651C3.52912 6.65528 3.97383 6.45416 4.46438 6.45416H6.33146V4.67532H4.46438C3.97383 4.67532 3.52912 4.87644 3.20789 5.19767C2.88675 5.51873 2.68555 5.96352 2.68555 6.45416V8.233Z"
        fill="black" fill-opacity="0.1" />
    <path
        d="M2.68555 17.4154C2.68555 16.9248 2.88675 16.48 3.20789 16.1589C3.52912 15.8377 3.97383 15.6366 4.46438 15.6366H6.33146V13.8578H4.46438C3.97383 13.8578 3.52912 14.0589 3.20789 14.3801C2.88675 14.7012 2.68555 15.146 2.68555 15.6366V17.4154Z"
        fill="black" fill-opacity="0.1" />
    <path
        d="M8.1416 21.0706V23.5519C8.1416 23.6543 8.02519 23.7106 7.94402 23.6506L7.31224 23.1636C7.26631 23.1283 7.20634 23.1283 7.1605 23.1636L6.52872 23.6506C6.44755 23.7106 6.33105 23.6543 6.33105 23.5519V21.0706H8.1416Z"
        fill="#70C1F9" />
    <path
        d="M19.1254 10.8389C19.1254 12.7836 16.7501 14.3613 13.8207 14.3613C10.8948 14.3613 8.51953 12.7836 8.51953 10.8389C8.51953 8.89776 10.8948 7.32004 13.8207 7.32004C16.7501 7.32004 19.1254 8.89776 19.1254 10.8389Z"
        fill="#E9E9FF" />
    <path
        d="M18.3353 4.95909V5.60802C18.3353 5.6978 18.2625 5.77057 18.1727 5.77057H9.4731C9.38333 5.77057 9.31055 5.6978 9.31055 5.60802V4.95909C9.31055 4.86932 9.38333 4.79654 9.4731 4.79654H18.1727C18.2625 4.79654 18.3353 4.86932 18.3353 4.95909Z"
        fill="#E9E9FF" />
    <path
        d="M9.96276 9.97638H13.7463C13.7796 9.97638 13.8067 10.0034 13.8067 10.0368V10.3902C13.8067 10.4235 13.7796 10.4506 13.7463 10.4506H9.96276C9.92939 10.4506 9.90234 10.4235 9.90234 10.3902V10.0368C9.90234 10.0034 9.92939 9.97638 9.96276 9.97638Z"
        fill="#4F5D99" />
    <path
        d="M17.7433 10.0363V10.3898C17.7433 10.423 17.7162 10.4502 17.6829 10.4502H14.7479C14.7147 10.4502 14.6875 10.423 14.6875 10.3898V10.0363C14.6875 10.0031 14.7147 9.97586 14.7479 9.97586H17.6829C17.7162 9.97586 17.7433 10.0031 17.7433 10.0363Z"
        fill="#4F5D99" />
    <path
        d="M17.7439 11.2917V11.6451C17.7439 11.6783 17.7168 11.7055 17.6835 11.7055H12.744C12.7107 11.7055 12.6836 11.6783 12.6836 11.6451V11.2917C12.6836 11.2585 12.7107 11.2312 12.744 11.2312H17.6835C17.7168 11.2312 17.7439 11.2585 17.7439 11.2917Z"
        fill="#4F5D99" />
    <path
        d="M9.96276 11.2309H11.7428C11.7762 11.2309 11.8032 11.2579 11.8032 11.2913V11.6447C11.8032 11.678 11.7762 11.7051 11.7428 11.7051H9.96276C9.92939 11.7051 9.90234 11.678 9.90234 11.6447V11.2913C9.90234 11.2579 9.92939 11.2309 9.96276 11.2309Z"
        fill="#4F5D99" />
    <g opacity="0.2">
        <path d="M6.41992 0.324799L12.8169 19.3554H18.2722L11.8719 0.324799H6.41992Z" fill="white" />
        <path
            d="M21.1415 19.1118C21.0109 19.2601 20.8203 19.3554 20.6085 19.3554H19.6733L13.2744 0.324799H14.8239L21.1415 19.1118Z"
            fill="white" />
    </g>
</svg>
    