<svg width="24" height="25" viewBox="0 0 24 25" fill="none" xmlns="http://www.w3.org/2000/svg">
    <path
        d="M20.3333 3.80078H3.66667C2.74619 3.80078 2 4.54697 2 5.46745V20.8008C2 21.7213 2.74619 22.4674 3.66667 22.4674H20.3333C21.2538 22.4674 22 21.7213 22 20.8008V5.46745C22 4.54697 21.2538 3.80078 20.3333 3.80078Z"
        fill="#E5E5E5" />
    <path
        d="M22 6.13444V18.2744L18.4733 21.8011H3.66667C3.22464 21.8011 2.80072 21.6255 2.48816 21.313C2.17559 21.0004 2 20.5765 2 20.1344V6.13444C2 5.69241 2.17559 5.26849 2.48816 4.95593C2.80072 4.64337 3.22464 4.46777 3.66667 4.46777H20.3333C20.7754 4.46777 21.1993 4.64337 21.5118 4.95593C21.8244 5.26849 22 5.69241 22 6.13444Z"
        fill="black" fill-opacity="0.1" />
    <path
        d="M22 5.46745V17.6074L18.4733 21.1341H3.66667C3.22464 21.1341 2.80072 20.9585 2.48816 20.646C2.17559 20.3334 2 19.9095 2 19.4674V5.46745C2 5.02542 2.17559 4.6015 2.48816 4.28894C2.80072 3.97638 3.22464 3.80078 3.66667 3.80078H20.3333C20.7754 3.80078 21.1993 3.97638 21.5118 4.28894C21.8244 4.6015 22 5.02542 22 5.46745Z"
        fill="white" />
    <path
        d="M21.5 5.46745V17.4003L18.2662 20.6341H3.66667C3.35725 20.6341 3.0605 20.5112 2.84171 20.2924C2.62292 20.0736 2.5 19.7769 2.5 19.4674V5.46745C2.5 5.15803 2.62292 4.86128 2.84171 4.64249C3.0605 4.4237 3.35725 4.30078 3.66667 4.30078H20.3333C20.6428 4.30078 20.9395 4.4237 21.1583 4.64249C21.3771 4.86128 21.5 5.15803 21.5 5.46745Z"
        stroke="black" stroke-opacity="0.05" />
    <path
        d="M21.9987 16.4678V17.6078L18.472 21.1344H17.332V18.1344C17.332 17.6924 17.5076 17.2685 17.8202 16.9559C18.1327 16.6434 18.5567 16.4678 18.9987 16.4678H21.9987Z"
        fill="black" fill-opacity="0.1" />
    <path
        d="M22 16.4678V17.6078L18.4733 21.1344H18V18.1344C18 17.6924 18.1756 17.2685 18.4882 16.9559C18.8007 16.6434 19.2246 16.4678 19.6667 16.4678H22Z"
        fill="#D8EDDD" />
    <path
        d="M20.3333 3.80078H3.66667C3.2248 3.80131 2.80119 3.97708 2.48874 4.28952C2.17629 4.60197 2.00053 5.02558 2 5.46745V8.46745H22V5.46745C21.9995 5.02558 21.8237 4.60197 21.5113 4.28952C21.1988 3.97708 20.7752 3.80131 20.3333 3.80078Z"
        fill="#FF9800" />
    <path
        d="M17.332 7.13477C17.8843 7.13477 18.332 6.68705 18.332 6.13477C18.332 5.58248 17.8843 5.13477 17.332 5.13477C16.7797 5.13477 16.332 5.58248 16.332 6.13477C16.332 6.68705 16.7797 7.13477 17.332 7.13477Z"
        fill="#F26722" />
    <path
        d="M12 7.13477C12.5523 7.13477 13 6.68705 13 6.13477C13 5.58248 12.5523 5.13477 12 5.13477C11.4477 5.13477 11 5.58248 11 6.13477C11 6.68705 11.4477 7.13477 12 7.13477Z"
        fill="#F26722" />
    <path
        d="M7 7.13477C7.55228 7.13477 8 6.68705 8 6.13477C8 5.58248 7.55228 5.13477 7 5.13477C6.44772 5.13477 6 5.58248 6 6.13477C6 6.68705 6.44772 7.13477 7 7.13477Z"
        fill="#F26722" />
    <path
        d="M8.0013 3.46777V3.80111H7.33464V3.46777C7.33464 3.37937 7.29952 3.29458 7.237 3.23207C7.17449 3.16956 7.08971 3.13444 7.0013 3.13444H6.66797C6.57956 3.13444 6.49478 3.16956 6.43227 3.23207C6.36975 3.29458 6.33464 3.37937 6.33464 3.46777V5.46777C6.33464 5.55618 6.36975 5.64096 6.43227 5.70348C6.49478 5.76599 6.57956 5.80111 6.66797 5.80111H7.0013C7.08971 5.80111 7.17449 5.83623 7.237 5.89874C7.29952 5.96125 7.33464 6.04603 7.33464 6.13444C7.33464 6.22285 7.29952 6.30763 7.237 6.37014C7.17449 6.43265 7.08971 6.46777 7.0013 6.46777H6.66797C6.403 6.46698 6.1491 6.36137 5.96174 6.17401C5.77437 5.98664 5.66876 5.73275 5.66797 5.46777V3.46777C5.66876 3.2028 5.77437 2.94891 5.96174 2.76154C6.1491 2.57418 6.403 2.46856 6.66797 2.46777H7.0013C7.26628 2.46856 7.52017 2.57418 7.70753 2.76154C7.8949 2.94891 8.00051 3.2028 8.0013 3.46777Z"
        fill="#3E4042" />
    <path
        d="M13.0013 3.46777V3.80111H12.3346V3.46777C12.3346 3.37937 12.2995 3.29458 12.237 3.23207C12.1745 3.16956 12.0897 3.13444 12.0013 3.13444H11.668C11.5796 3.13444 11.4948 3.16956 11.4323 3.23207C11.3698 3.29458 11.3346 3.37937 11.3346 3.46777V5.46777C11.3346 5.55618 11.3698 5.64096 11.4323 5.70348C11.4948 5.76599 11.5796 5.80111 11.668 5.80111H12.0013C12.0897 5.80111 12.1745 5.83623 12.237 5.89874C12.2995 5.96125 12.3346 6.04603 12.3346 6.13444C12.3346 6.22285 12.2995 6.30763 12.237 6.37014C12.1745 6.43265 12.0897 6.46777 12.0013 6.46777H11.668C11.403 6.46698 11.1491 6.36137 10.9617 6.17401C10.7744 5.98664 10.6688 5.73275 10.668 5.46777V3.46777C10.6688 3.2028 10.7744 2.94891 10.9617 2.76154C11.1491 2.57418 11.403 2.46856 11.668 2.46777H12.0013C12.2663 2.46856 12.5202 2.57418 12.7075 2.76154C12.8949 2.94891 13.0005 3.2028 13.0013 3.46777Z"
        fill="#3E4042" />
    <path
        d="M18.3333 3.46777V3.80111H17.6667V3.46777C17.6667 3.37937 17.6315 3.29458 17.569 3.23207C17.5065 3.16956 17.4217 3.13444 17.3333 3.13444H17C16.9116 3.13444 16.8268 3.16956 16.7643 3.23207C16.7018 3.29458 16.6667 3.37937 16.6667 3.46777V5.46777C16.6667 5.55618 16.7018 5.64096 16.7643 5.70348C16.8268 5.76599 16.9116 5.80111 17 5.80111H17.3333C17.4217 5.80111 17.5065 5.83623 17.569 5.89874C17.6315 5.96125 17.6667 6.04603 17.6667 6.13444C17.6667 6.22285 17.6315 6.30763 17.569 6.37014C17.5065 6.43265 17.4217 6.46777 17.3333 6.46777H17C16.735 6.46698 16.4811 6.36137 16.2938 6.17401C16.1064 5.98664 16.0008 5.73275 16 5.46777V3.46777C16.0008 3.2028 16.1064 2.94891 16.2938 2.76154C16.4811 2.57418 16.735 2.46856 17 2.46777H17.3333C17.5983 2.46856 17.8522 2.57418 18.0396 2.76154C18.2269 2.94891 18.3325 3.2028 18.3333 3.46777Z"
        fill="#3E4042" />
    <path
        d="M6.33333 16.8008H4.33333C4.14924 16.8008 4 16.95 4 17.1341V19.1341C4 19.3182 4.14924 19.4674 4.33333 19.4674H6.33333C6.51743 19.4674 6.66667 19.3182 6.66667 19.1341V17.1341C6.66667 16.95 6.51743 16.8008 6.33333 16.8008Z"
        fill="#D8EDDD" />
    <path
        d="M9.66536 16.8008H7.66536C7.48127 16.8008 7.33203 16.95 7.33203 17.1341V19.1341C7.33203 19.3182 7.48127 19.4674 7.66536 19.4674H9.66536C9.84946 19.4674 9.9987 19.3182 9.9987 19.1341V17.1341C9.9987 16.95 9.84946 16.8008 9.66536 16.8008Z"
        fill="#D8EDDD" />
    <path
        d="M13.0013 16.8008H11.0013C10.8172 16.8008 10.668 16.95 10.668 17.1341V19.1341C10.668 19.3182 10.8172 19.4674 11.0013 19.4674H13.0013C13.1854 19.4674 13.3346 19.3182 13.3346 19.1341V17.1341C13.3346 16.95 13.1854 16.8008 13.0013 16.8008Z"
        fill="#D8EDDD" />
    <path
        d="M6.33333 13.4678H4.33333C4.14924 13.4678 4 13.617 4 13.8011V15.8011C4 15.9852 4.14924 16.1344 4.33333 16.1344H6.33333C6.51743 16.1344 6.66667 15.9852 6.66667 15.8011V13.8011C6.66667 13.617 6.51743 13.4678 6.33333 13.4678Z"
        fill="#00B26B" />
    <path
        d="M9.66536 13.4678H7.66536C7.48127 13.4678 7.33203 13.617 7.33203 13.8011V15.8011C7.33203 15.9852 7.48127 16.1344 7.66536 16.1344H9.66536C9.84946 16.1344 9.9987 15.9852 9.9987 15.8011V13.8011C9.9987 13.617 9.84946 13.4678 9.66536 13.4678Z"
        fill="#D8EDDD" />
    <path
        d="M12.9974 13.4678H10.9974C10.8133 13.4678 10.6641 13.617 10.6641 13.8011V15.8011C10.6641 15.9852 10.8133 16.1344 10.9974 16.1344H12.9974C13.1815 16.1344 13.3307 15.9852 13.3307 15.8011V13.8011C13.3307 13.617 13.1815 13.4678 12.9974 13.4678Z"
        fill="#D8EDDD" />
    <path
        d="M16.3333 13.4678H14.3333C14.1492 13.4678 14 13.617 14 13.8011V15.8011C14 15.9852 14.1492 16.1344 14.3333 16.1344H16.3333C16.5174 16.1344 16.6667 15.9852 16.6667 15.8011V13.8011C16.6667 13.617 16.5174 13.4678 16.3333 13.4678Z"
        fill="#D8EDDD" />
    <path
        d="M12.9974 10.1348H10.9974C10.8133 10.1348 10.6641 10.284 10.6641 10.4681V12.4681C10.6641 12.6522 10.8133 12.8014 10.9974 12.8014H12.9974C13.1815 12.8014 13.3307 12.6522 13.3307 12.4681V10.4681C13.3307 10.284 13.1815 10.1348 12.9974 10.1348Z"
        fill="#D8EDDD" />
    <path
        d="M16.3333 10.1348H14.3333C14.1492 10.1348 14 10.284 14 10.4681V12.4681C14 12.6522 14.1492 12.8014 14.3333 12.8014H16.3333C16.5174 12.8014 16.6667 12.6522 16.6667 12.4681V10.4681C16.6667 10.284 16.5174 10.1348 16.3333 10.1348Z"
        fill="#00B26B" />
    <path
        d="M19.6654 10.1348H17.6654C17.4813 10.1348 17.332 10.284 17.332 10.4681V12.4681C17.332 12.6522 17.4813 12.8014 17.6654 12.8014H19.6654C19.8495 12.8014 19.9987 12.6522 19.9987 12.4681V10.4681C19.9987 10.284 19.8495 10.1348 19.6654 10.1348Z"
        fill="#00B26B" />
</svg>
    