<svg width="24" height="26" viewBox="0 0 24 26" fill="none" xmlns="http://www.w3.org/2000/svg">
    <g clip-path="url(#clip0_1307_25234)">
        <path
            d="M17.8333 4.66667H17V3.83333C17 3.61232 16.9122 3.40036 16.7559 3.24408C16.5996 3.0878 16.3877 3 16.1667 3C15.9457 3 15.7337 3.0878 15.5774 3.24408C15.4211 3.40036 15.3333 3.61232 15.3333 3.83333V4.66667H8.66667V3.83333C8.66667 3.61232 8.57887 3.40036 8.42259 3.24408C8.26631 3.0878 8.05435 3 7.83333 3C7.61232 3 7.40036 3.0878 7.24408 3.24408C7.0878 3.40036 7 3.61232 7 3.83333V4.66667H6.16667C5.062 4.66799 4.00296 5.1074 3.22185 5.88852C2.44073 6.66963 2.00132 7.72867 2 8.83333L2 18.8333C2.00132 19.938 2.44073 20.997 3.22185 21.7782C4.00296 22.5593 5.062 22.9987 6.16667 23H17.8333C18.938 22.9987 19.997 22.5593 20.7782 21.7782C21.5593 20.997 21.9987 19.938 22 18.8333V8.83333C21.9987 7.72867 21.5593 6.66963 20.7782 5.88852C19.997 5.1074 18.938 4.66799 17.8333 4.66667ZM3.66667 8.83333C3.66667 8.17029 3.93006 7.53441 4.3989 7.06557C4.86774 6.59673 5.50363 6.33333 6.16667 6.33333H17.8333C18.4964 6.33333 19.1323 6.59673 19.6011 7.06557C20.0699 7.53441 20.3333 8.17029 20.3333 8.83333V9.66667H3.66667V8.83333ZM17.8333 21.3333H6.16667C5.50363 21.3333 4.86774 21.0699 4.3989 20.6011C3.93006 20.1323 3.66667 19.4964 3.66667 18.8333V11.3333H20.3333V18.8333C20.3333 19.4964 20.0699 20.1323 19.6011 20.6011C19.1323 21.0699 18.4964 21.3333 17.8333 21.3333Z"
            fill="white" />
        <path
            d="M12 16.75C12.6904 16.75 13.25 16.1904 13.25 15.5C13.25 14.8096 12.6904 14.25 12 14.25C11.3096 14.25 10.75 14.8096 10.75 15.5C10.75 16.1904 11.3096 16.75 12 16.75Z"
            fill="white" />
        <path
            d="M7.83301 16.75C8.52336 16.75 9.08301 16.1904 9.08301 15.5C9.08301 14.8096 8.52336 14.25 7.83301 14.25C7.14265 14.25 6.58301 14.8096 6.58301 15.5C6.58301 16.1904 7.14265 16.75 7.83301 16.75Z"
            fill="white" />
        <path
            d="M16.167 16.75C16.8573 16.75 17.417 16.1904 17.417 15.5C17.417 14.8096 16.8573 14.25 16.167 14.25C15.4766 14.25 14.917 14.8096 14.917 15.5C14.917 16.1904 15.4766 16.75 16.167 16.75Z"
            fill="white" />
    </g>
    <defs>
        <clipPath id="clip0_1307_25234">
            <rect width="20" height="20" fill="white" transform="translate(2 3)" />
        </clipPath>
    </defs>
</svg>
    