<svg width="40" height="41" viewBox="0 0 40 41" fill="none" xmlns="http://www.w3.org/2000/svg">
    <path d="M15.6104 14.1079H35.0738C36.6902 14.1079 38.0007 15.4183 38.0007 17.0347V28.2768C38.0007 29.8932 36.6902 31.2036 35.0738 31.2036H31.3031L28.7813 35.5713L26.2596 31.2036H15.6104C13.994 31.2036 12.6836 29.8932 12.6836 28.2768V17.0347C12.6836 15.4183 13.994 14.1079 15.6104 14.1079Z" fill="#FF9800"/>
    <path fill-rule="evenodd" clip-rule="evenodd" d="M28.7813 36.5713C29.1386 36.5713 29.4687 36.3807 29.6473 36.0713L31.8804 32.2036H35.0738C37.2426 32.2036 39.0007 30.4454 39.0007 28.2768V17.0347C39.0007 14.866 37.2426 13.1079 35.0738 13.1079H27.4641C26.9118 13.1079 26.4641 13.5556 26.4641 14.1079C26.4641 14.6602 26.9118 15.1079 27.4641 15.1079H35.0738C36.138 15.1079 37.0007 15.9706 37.0007 17.0347V28.2768C37.0007 29.3409 36.138 30.2036 35.0738 30.2036H31.3031C30.9458 30.2036 30.6157 30.3942 30.437 30.7036L28.7813 33.5713L27.1256 30.7036C26.947 30.3942 26.6169 30.2036 26.2596 30.2036H15.6104C14.5463 30.2036 13.6836 29.3409 13.6836 28.2768V22.6444C13.6836 22.0922 13.2359 21.6444 12.6836 21.6444C12.1313 21.6444 11.6836 22.0922 11.6836 22.6444V28.2768C11.6836 30.4455 13.4417 32.2036 15.6104 32.2036H25.6823L27.9153 36.0713C28.0939 36.3807 28.424 36.5713 28.7813 36.5713Z" fill="black"/>
    <path d="M24.3902 5.42529H4.92683C3.31041 5.42529 2 6.7357 2 8.35212V19.5941C2 21.2106 3.31041 22.521 4.92683 22.521H5.95122L8.47297 26.8887L10.9947 22.521H24.3902C26.0067 22.521 27.3171 21.2106 27.3171 19.5941V8.35212C27.3171 6.7357 26.0067 5.42529 24.3902 5.42529Z" fill="white"/>
    <path fill-rule="evenodd" clip-rule="evenodd" d="M8.47298 27.8887C8.83025 27.8887 9.16037 27.6981 9.339 27.3887L11.572 23.521H24.3902C26.559 23.521 28.3171 21.7628 28.3171 19.5941V8.35212C28.3171 6.18343 26.559 4.42529 24.3902 4.42529H4.92683C2.75813 4.42529 1 6.18342 1 8.35212V19.5941C1 21.7628 2.75813 23.521 4.92683 23.521H5.37388L7.60695 27.3887C7.78559 27.6981 8.11572 27.8887 8.47298 27.8887ZM8.47296 24.8887L6.81724 22.021C6.6386 21.7116 6.30848 21.521 5.95122 21.521H4.92683C3.8627 21.521 3 20.6583 3 19.5941V8.35212C3 7.28798 3.8627 6.42529 4.92683 6.42529H24.3902C25.4544 6.42529 26.3171 7.28797 26.3171 8.35212V19.5941C26.3171 20.6583 25.4544 21.521 24.3902 21.521H10.9947C10.6374 21.521 10.3073 21.7116 10.1286 22.021L8.47296 24.8887Z" fill="black"/>
    <path d="M19.9277 13.9724C19.9277 13.0025 20.714 12.2163 21.6838 12.2163C22.6537 12.2163 23.4399 13.0025 23.4399 13.9724C23.4399 14.9423 22.6537 15.7285 21.6838 15.7285C20.714 15.7285 19.9277 14.9423 19.9277 13.9724Z" fill="white"/>
    <path d="M12.9023 13.9724C12.9023 13.0025 13.6886 12.2163 14.6584 12.2163C15.6283 12.2163 16.4145 13.0025 16.4145 13.9724C16.4145 14.9423 15.6283 15.7285 14.6584 15.7285C13.6886 15.7285 12.9023 14.9423 12.9023 13.9724Z" fill="white"/>
    <path d="M5.87891 13.9724C5.87891 13.0025 6.66513 12.2163 7.635 12.2163C8.60488 12.2163 9.3911 13.0025 9.3911 13.9724C9.3911 14.9423 8.60488 15.7285 7.635 15.7285C6.66513 15.7285 5.87891 14.9423 5.87891 13.9724Z" fill="white"/>
    <path fill-rule="evenodd" clip-rule="evenodd" d="M18.9277 13.9724C18.9277 15.4946 20.1617 16.7285 21.6838 16.7285C23.206 16.7285 24.4399 15.4946 24.4399 13.9724C24.4399 12.4503 23.206 11.2163 21.6838 11.2163C20.1617 11.2163 18.9277 12.4503 18.9277 13.9724ZM21.6838 14.7285C21.2662 14.7285 20.9277 14.39 20.9277 13.9724C20.9277 13.5548 21.2662 13.2163 21.6838 13.2163C22.1014 13.2163 22.4399 13.5548 22.4399 13.9724C22.4399 14.39 22.1014 14.7285 21.6838 14.7285Z" fill="black"/>
    <path fill-rule="evenodd" clip-rule="evenodd" d="M11.9023 13.9724C11.9023 15.4946 13.1363 16.7285 14.6584 16.7285C16.1806 16.7285 17.4145 15.4946 17.4145 13.9724C17.4145 12.4503 16.1806 11.2163 14.6584 11.2163C13.1363 11.2163 11.9023 12.4503 11.9023 13.9724ZM14.6584 14.7285C14.2408 14.7285 13.9023 14.39 13.9023 13.9724C13.9023 13.5548 14.2408 13.2163 14.6584 13.2163C15.076 13.2163 15.4145 13.5548 15.4145 13.9724C15.4145 14.39 15.076 14.7285 14.6584 14.7285Z" fill="black"/>
    <path fill-rule="evenodd" clip-rule="evenodd" d="M4.87891 13.9724C4.87891 15.4946 6.11284 16.7285 7.635 16.7285C9.15717 16.7285 10.3911 15.4946 10.3911 13.9724C10.3911 12.4503 9.15717 11.2163 7.635 11.2163C6.11284 11.2163 4.87891 12.4503 4.87891 13.9724ZM7.635 14.7285C7.21741 14.7285 6.87891 14.39 6.87891 13.9724C6.87891 13.5548 7.21741 13.2163 7.635 13.2163C8.0526 13.2163 8.3911 13.5548 8.3911 13.9724C8.3911 14.39 8.0526 14.7285 7.635 14.7285Z" fill="black"/>
    </svg>
    