<svg width="40" height="41" viewBox="0 0 40 41" fill="none" xmlns="http://www.w3.org/2000/svg">
    <path d="M36.0024 32.1091H4.00083C3.41882 32.1091 2.94727 31.6375 2.94727 31.0555V11.1737C2.94727 10.5917 3.41882 10.1201 4.00083 10.1201H36.0024C36.5844 10.1201 37.056 10.5917 37.056 11.1737V31.0555C37.056 31.6375 36.5844 32.1091 36.0024 32.1091Z" fill="white"/>
    <path d="M37 10.1426V32.1426H3V10.1426H37Z" fill="white"/>
    <path d="M34 10.1426H37V32.1426H34V10.1426Z" fill="black" fill-opacity="0.1"/>
    <path d="M15.5491 32.1083H8.09373C7.80259 32.1083 7.56641 31.8721 7.56641 31.5809V28.4902C7.56641 28.1991 7.80259 27.9629 8.09373 27.9629H15.5491C15.8403 27.9629 16.0764 28.1991 16.0764 28.4902V31.5809C16.0764 31.8721 15.8403 32.1083 15.5491 32.1083Z" fill="#FF9800"/>
    <path d="M14.0192 31.5809V28.4902C14.0192 28.1991 13.7831 27.9629 13.4919 27.9629H15.5508C15.8419 27.9629 16.0781 28.1991 16.0781 28.4902V31.5809C16.0781 31.8721 15.8419 32.1083 15.5508 32.1083H13.4919C13.7831 32.1083 14.0192 31.8721 14.0192 31.5809Z" fill="black" fill-opacity="0.1"/>
    <path d="M35.2918 35.6369H4.71152C3.73704 35.6369 2.94727 34.8471 2.94727 33.8727C2.94727 32.8982 3.73704 32.1084 4.71152 32.1084H35.2918C36.2662 32.1084 37.056 32.8982 37.056 33.8727C37.056 34.8471 36.2662 35.6369 35.2918 35.6369Z" fill="#FF9800"/>
    <path d="M34.5114 33.8727C34.5114 32.8982 33.7217 32.1084 32.7472 32.1084H34.8061C35.7805 32.1084 36.5703 32.8982 36.5703 33.8727C36.5703 34.8471 35.7805 35.6369 34.8061 35.6369H32.7472C33.7217 35.6369 34.5114 34.8471 34.5114 33.8727Z" fill="black" fill-opacity="0.1"/>
    <path d="M7.56641 30.0361V31.5816C7.56641 31.8728 7.80259 32.109 8.09373 32.109H15.5491C15.8403 32.109 16.0764 31.8728 16.0764 31.5816V30.0361H7.56641Z" fill="#FF9800"/>
    <path d="M14.0192 31.5816V30.0361H16.0781V31.5816C16.0781 31.8728 15.8419 32.109 15.5508 32.109H13.4919C13.7831 32.109 14.0192 31.8728 14.0192 31.5816Z" fill="black" fill-opacity="0.1"/>
    <path d="M21.5884 6.25538C21.5884 7.13255 20.8774 7.84351 20.0002 7.84351C19.1231 7.84351 18.4121 7.13255 18.4121 6.25538C18.4121 5.37822 19.1231 4.66699 20.0002 4.66699C20.8774 4.66699 21.5884 5.37822 21.5884 6.25538Z" fill="#FF9800"/>
    <path fill-rule="evenodd" clip-rule="evenodd" d="M37.5698 11.1639V31.0458C37.5698 31.5568 37.324 32.0114 36.9446 32.298C37.3315 32.7068 37.5698 33.2577 37.5698 33.8636C37.5698 35.1204 36.5476 36.1426 35.2908 36.1426H4.71061C3.45384 36.1426 2.43164 35.1204 2.43164 33.8636C2.43164 33.2577 2.66997 32.7066 3.05681 32.298C2.67747 32.0114 2.43164 31.5568 2.43164 31.0458V11.1639C2.43164 10.2991 3.13509 9.59566 3.99993 9.59566H9.38464L17.8992 6.30762L17.8986 6.28696C17.8981 6.27321 17.8976 6.25945 17.8976 6.24569C17.8976 5.08596 18.841 4.14258 20.0007 4.14258C21.1605 4.14258 22.1038 5.08596 22.1038 6.24569C22.1038 6.25944 22.1034 6.2732 22.1029 6.28695L22.1022 6.30762L30.6168 9.59566H36.0015C36.8664 9.59566 37.5698 10.2991 37.5698 11.1639ZM21.0744 6.24569C21.0744 5.65349 20.5927 5.17202 20.0007 5.17202C19.4088 5.17202 18.9271 5.65349 18.9271 6.24542C18.9271 6.83762 19.4088 7.31909 20.0007 7.31909C20.5927 7.31909 21.0744 6.83762 21.0744 6.24569ZM20.0007 8.34853C19.226 8.34853 18.5483 7.92711 18.1834 7.30167L12.2424 9.59566H27.7591L21.8181 7.30167C21.4532 7.92711 20.7755 8.34853 20.0007 8.34853ZM36.5404 31.0458C36.5404 31.3431 36.2986 31.5846 36.0015 31.5846H30.7478H29.9488H16.5915C16.5915 31.5803 16.5921 31.5763 16.5921 31.572V30.5552V28.4813C16.5921 27.9068 16.1245 27.4393 15.55 27.4393H8.09463C7.52012 27.4393 7.05259 27.9068 7.05259 28.4813V30.5552V31.572L7.05285 31.5781L7.05312 31.5846H3.99993C3.70289 31.5846 3.46108 31.3428 3.46108 31.0458V11.1639C3.46108 10.8666 3.70289 10.6251 3.99993 10.6251H36.0015C36.2986 10.6251 36.5404 10.8666 36.5404 11.1639V31.0458ZM30.7478 32.6141H29.9488H4.71061C4.02164 32.6141 3.46108 33.1746 3.46108 33.8636C3.46108 34.5526 4.02164 35.1131 4.71061 35.1131H35.2908C35.9798 35.1131 36.5404 34.5526 36.5404 33.8636C36.5404 33.1746 35.9798 32.6141 35.2908 32.6141H30.7478ZM15.5626 31.572V30.5413V28.4813C15.5626 28.4743 15.557 28.4687 15.55 28.4687H8.09463C8.08766 28.4687 8.08203 28.4743 8.08203 28.4813V30.5413V31.572C8.08203 31.579 8.08766 31.5846 8.09463 31.5846H15.55C15.557 31.5846 15.5626 31.579 15.5626 31.572Z" fill="black"/>
    <path fill-rule="evenodd" clip-rule="evenodd" d="M17.4132 5.9593C17.5562 4.65778 18.6616 3.64258 20.0007 3.64258C21.3398 3.64258 22.4453 4.65778 22.5882 5.9593L30.71 9.09566H36.0015C37.1425 9.09566 38.0698 10.023 38.0698 11.1639V31.0458C38.0698 31.5359 37.8983 31.9862 37.6136 32.3403C37.9012 32.7775 38.0698 33.3011 38.0698 33.8636C38.0698 35.3965 36.8238 36.6426 35.2908 36.6426H4.71061C3.1777 36.6426 1.93164 35.3965 1.93164 33.8636C1.93164 33.3012 2.10016 32.7775 2.38785 32.3403C2.10312 31.9862 1.93164 31.5359 1.93164 31.0458V11.1639C1.93164 10.023 2.85895 9.09566 3.99993 9.09566H9.29145L17.4132 5.9593ZM18.399 6.29176L18.3991 6.29467L18.4082 6.64706L9.47783 10.0957H3.99993C3.41123 10.0957 2.93164 10.5752 2.93164 11.1639V31.0458C2.93164 31.3927 3.09798 31.7025 3.35821 31.8991L3.80414 32.2359L3.41988 32.6418C3.11684 32.9618 2.93164 33.3915 2.93164 33.8636C2.93164 34.8442 3.72998 35.6426 4.71061 35.6426H35.2908C36.2715 35.6426 37.0698 34.8442 37.0698 33.8636C37.0698 33.3916 36.8847 32.9621 36.5815 32.6417L36.1975 32.2358L36.6433 31.8991C36.9035 31.7025 37.0698 31.3927 37.0698 31.0458V11.1639C37.0698 10.5752 36.5902 10.0957 36.0015 10.0957H30.5236L21.5932 6.64704L21.6024 6.29461L21.6025 6.29175L21.6031 6.27108L21.6032 6.26966C21.6037 6.25445 21.6038 6.24933 21.6038 6.24569C21.6038 5.3621 20.8843 4.64258 20.0007 4.64258C19.1171 4.64258 18.3976 5.3621 18.3976 6.24569C18.3976 6.24934 18.3977 6.25444 18.3983 6.26964L18.3983 6.27111L18.399 6.29176ZM20.0007 5.67202C19.6848 5.67202 19.4271 5.9298 19.4271 6.24542C19.4271 6.56139 19.6849 6.81909 20.0007 6.81909C20.3167 6.81909 20.5744 6.56131 20.5744 6.24569C20.5744 5.92972 20.3166 5.67202 20.0007 5.67202ZM18.4271 6.24542C18.4271 5.37719 19.1328 4.67202 20.0007 4.67202C20.8687 4.67202 21.5744 5.37727 21.5744 6.24569C21.5744 7.11392 20.8686 7.81909 20.0007 7.81909C19.1327 7.81909 18.4271 7.11384 18.4271 6.24542ZM18.4006 6.6818L18.6153 7.04972C18.8947 7.52863 19.4118 7.84853 20.0007 7.84853C20.5896 7.84853 21.1068 7.52863 21.3862 7.04972L21.6008 6.6818L27.9392 9.12922L27.7591 10.0957H12.2424L12.0623 9.12922L18.4006 6.6818ZM14.9254 9.09566H25.0761L22.0013 7.90842C21.5245 8.48146 20.8056 8.84853 20.0007 8.84853C19.1959 8.84853 18.477 8.48146 18.0001 7.90842L14.9254 9.09566ZM3.99993 11.1251C3.97887 11.1251 3.96108 11.1429 3.96108 11.1639V31.0458C3.96108 31.0667 3.97903 31.0846 3.99993 31.0846H6.55259V28.4813C6.55259 27.6307 7.24398 26.9393 8.09463 26.9393H15.55C16.4007 26.9393 17.0921 27.6307 17.0921 28.4813V31.0846H36.0015C36.0226 31.0846 36.0404 31.0668 36.0404 31.0458V11.1639C36.0404 11.1429 36.0226 11.1251 36.0015 11.1251H3.99993ZM36.0015 32.0846H31.7624C31.7625 32.0895 31.7625 32.0944 31.7625 32.0994C31.7625 32.1043 31.7625 32.1092 31.7624 32.1141H35.2908C36.256 32.1141 37.0404 32.8985 37.0404 33.8636C37.0404 34.8287 36.256 35.6131 35.2908 35.6131H4.71061C3.7455 35.6131 2.96108 34.8287 2.96108 33.8636C2.96108 32.8985 3.7455 32.1141 4.71061 32.1141H28.9341C28.9341 32.1092 28.934 32.1043 28.934 32.0994C28.934 32.0944 28.9341 32.0895 28.9341 32.0846H16.0915V31.5846C16.0915 31.5748 16.0918 31.5664 16.0921 31.5602V28.4813C16.0921 28.1829 15.8484 27.9393 15.55 27.9393H8.09463C7.79627 27.9393 7.55259 28.1829 7.55259 28.4813V31.5601C7.55285 31.5662 7.55312 31.5747 7.55312 31.5846V32.0846H3.99993C3.42675 32.0846 2.96108 31.619 2.96108 31.0458V11.1639C2.96108 10.5903 3.42691 10.1251 3.99993 10.1251H36.0015C36.5746 10.1251 37.0404 10.5903 37.0404 11.1639V31.0458C37.0404 31.6194 36.5746 32.0846 36.0015 32.0846ZM6.55386 31.6099C6.55386 31.6098 6.55386 31.6099 6.55386 31.6099L6.74712 31.5976L6.74434 31.5977L6.55386 31.6099ZM29.9488 32.0846C29.9458 32.0846 29.9442 32.0851 29.9431 32.0856C29.9418 32.0862 29.94 32.0872 29.9384 32.0889C29.9367 32.0906 29.9356 32.0923 29.935 32.0938C29.9345 32.0948 29.934 32.0964 29.934 32.0994C29.934 32.1076 29.9405 32.1141 29.9488 32.1141H30.7478C30.7496 32.1141 30.7508 32.1139 30.7518 32.1136C30.7524 32.1135 30.753 32.1133 30.7534 32.1131C30.7548 32.1125 30.7565 32.1114 30.7582 32.1098C30.7599 32.1081 30.761 32.1064 30.7615 32.105C30.762 32.1039 30.7625 32.1024 30.7625 32.0994C30.7625 32.0965 30.762 32.095 30.7616 32.0939C30.7612 32.093 30.7606 32.0919 30.7598 32.0909C30.7593 32.0902 30.7588 32.0896 30.7582 32.089C30.7564 32.0873 30.7547 32.0862 30.7533 32.0856C30.7524 32.0852 30.7514 32.0849 30.7497 32.0847C30.7491 32.0847 30.7485 32.0846 30.7478 32.0846H29.9488ZM4.71061 33.1141C4.29778 33.1141 3.96108 33.4508 3.96108 33.8636C3.96108 34.2764 4.29778 34.6131 4.71061 34.6131H35.2908C35.7037 34.6131 36.0404 34.2764 36.0404 33.8636C36.0404 33.4508 35.7037 33.1141 35.2908 33.1141H4.71061ZM8.58203 28.9687V31.0846H15.0626V28.9687H8.58203ZM7.58203 28.4813C7.58203 28.1982 7.81151 27.9687 8.09463 27.9687H15.55C15.8331 27.9687 16.0626 28.1982 16.0626 28.4813V31.572C16.0626 31.8551 15.8331 32.0846 15.55 32.0846H8.09463C7.81151 32.0846 7.58203 31.8551 7.58203 31.572V28.4813Z" fill="black"/>
    <path d="M28.4508 26.2701C28.0561 26.2701 27.7628 26.2008 27.5708 26.0621C27.3894 25.9235 27.2988 25.7528 27.2988 25.5501L27.4588 25.2781C27.3948 25.3848 27.2721 25.5181 27.0908 25.6781C26.9094 25.8275 26.6748 25.9661 26.3868 26.0941C26.0988 26.2115 25.7414 26.2701 25.3148 26.2701C24.8241 26.2701 24.3548 26.1635 23.9068 25.9501C23.4694 25.7368 23.0801 25.4435 22.7388 25.0701C22.3974 24.6861 22.1254 24.2541 21.9228 23.7741C21.7308 23.2941 21.6348 22.7875 21.6348 22.2541C21.6348 21.7315 21.7308 21.2355 21.9228 20.7661C22.1254 20.2861 22.3974 19.8648 22.7388 19.5021C23.0908 19.1288 23.4854 18.8355 23.9228 18.6221C24.3601 18.4088 24.8241 18.3021 25.3148 18.3021C25.7094 18.3021 26.0454 18.3608 26.3228 18.4781C26.6001 18.5848 26.8294 18.7128 27.0108 18.8621C27.2028 19.0115 27.3468 19.1555 27.4428 19.2941L27.3148 19.0701C27.3041 18.8141 27.3894 18.6221 27.5708 18.4941C27.7628 18.3555 28.0614 18.2861 28.4668 18.2861C28.8508 18.2861 29.1228 18.3448 29.2828 18.4621C29.4534 18.5795 29.5548 18.7341 29.5868 18.9261C29.6294 19.1181 29.6508 19.3208 29.6508 19.5341V25.0541C29.6508 25.2568 29.6294 25.4541 29.5868 25.6461C29.5548 25.8381 29.4534 25.9928 29.2828 26.1101C29.1228 26.2168 28.8454 26.2701 28.4508 26.2701ZM25.6668 23.8861C25.9441 23.8861 26.1948 23.8168 26.4188 23.6781C26.6534 23.5288 26.8348 23.3315 26.9628 23.0861C27.1014 22.8408 27.1708 22.5688 27.1708 22.2701C27.1708 21.9608 27.1014 21.6888 26.9628 21.4541C26.8241 21.2088 26.6374 21.0168 26.4028 20.8781C26.1681 20.7288 25.9121 20.6541 25.6348 20.6541C25.3254 20.6541 25.0481 20.7288 24.8028 20.8781C24.5681 21.0275 24.3761 21.2248 24.2268 21.4701C24.0881 21.7155 24.0188 21.9928 24.0188 22.3021C24.0188 22.5901 24.0881 22.8568 24.2268 23.1021C24.3761 23.3368 24.5734 23.5288 24.8188 23.6781C25.0748 23.8168 25.3574 23.8861 25.6668 23.8861Z" fill="#FF9800"/>
    <path d="M21.0083 24.5905C21.1363 24.8572 21.2056 25.0865 21.2163 25.2785C21.227 25.4599 21.1683 25.6252 21.0403 25.7745C20.923 25.9132 20.7256 26.0519 20.4483 26.1905C20.0216 26.3932 19.691 26.4519 19.4563 26.3665C19.2216 26.2919 19.003 26.0412 18.8003 25.6145L15.6643 19.0545L12.5443 25.6145C12.331 26.0305 12.107 26.2759 11.8723 26.3505C11.6483 26.4359 11.323 26.3772 10.8963 26.1745C10.619 26.0465 10.4163 25.9132 10.2883 25.7745C10.171 25.6252 10.1176 25.4545 10.1283 25.2625C10.139 25.0599 10.2136 24.8252 10.3523 24.5585L14.5603 15.8065C14.667 15.5932 14.8216 15.4225 15.0243 15.2945C15.2376 15.1665 15.4563 15.1025 15.6803 15.1025C15.8403 15.1025 15.9896 15.1345 16.1283 15.1985C16.267 15.2519 16.3896 15.3319 16.4963 15.4385C16.6136 15.5452 16.7096 15.6732 16.7843 15.8225L21.0083 24.5905ZM12.9763 23.6785L13.9683 21.6145H17.3763L18.3683 23.6785H12.9763Z" fill="#FF9800"/>
    </svg>
    