<svg width="60" height="60" viewBox="0 0 60 60" fill="none" xmlns="http://www.w3.org/2000/svg">
    <path d="M50.8912 30.0003C50.8912 34.1325 49.6658 38.1719 47.3701 41.6077C45.0744 45.0435 41.8113 47.7214 37.9937 49.3028C34.176 50.8841 29.9752 51.2978 25.9223 50.4917C21.8695 49.6855 18.1468 47.6957 15.2249 44.7738C12.3029 41.8518 10.3131 38.1291 9.50693 34.0763C8.70077 30.0235 9.11452 25.8226 10.6959 22.0049C12.2772 18.1873 14.9551 14.9242 18.3909 12.6285C21.8267 10.3328 25.8661 9.10742 29.9983 9.10742C35.5395 9.10742 40.8536 11.3086 44.7718 15.2268C48.69 19.145 50.8912 24.4591 50.8912 30.0003Z" fill="white" fill-opacity="0.4"/>
    <path d="M50.892 29.9997C50.8906 25.5763 49.4853 21.2675 46.8786 17.6938C44.2719 14.1201 40.5982 11.466 36.3866 10.1136C32.175 8.76129 27.6428 8.78054 23.4429 10.1686C19.2429 11.5567 15.5919 14.2419 13.0156 17.8376C17.0392 14.9544 21.956 13.5938 26.8894 13.9984C31.8228 14.4029 36.4522 16.5463 39.9523 20.0464C43.4525 23.5466 45.5959 28.176 46.0004 33.1094C46.405 38.0428 45.0443 42.9596 42.1611 46.9832C44.8634 45.0518 47.0653 42.5031 48.5839 39.5491C50.1025 36.5951 50.8938 33.3211 50.892 29.9997Z" fill="black" fill-opacity="0.1"/>
    <path d="M30 0.9375C35.748 0.9375 41.367 2.64199 46.1463 5.83541C50.9256 9.02884 54.6506 13.5678 56.8503 18.8783C59.0499 24.1887 59.6255 30.0322 58.5041 35.6698C57.3827 41.3074 54.6148 46.4858 50.5503 50.5503C46.4858 54.6148 41.3074 57.3827 35.6698 58.5041C30.0322 59.6255 24.1887 59.0499 18.8783 56.8503C13.5678 54.6506 9.02884 50.9256 5.83541 46.1463C2.64199 41.367 0.9375 35.748 0.9375 30C0.9375 22.2921 3.99943 14.9 9.44971 9.44971C14.9 3.99943 22.2921 0.9375 30 0.9375Z" fill="white"/>
    <path d="M31.6069 18.1069V29.5819C31.6097 29.9553 31.4785 30.3173 31.2373 30.6024L26.1909 36.7417C26.04 36.9122 25.8512 37.0449 25.6396 37.1291C25.4281 37.2133 25.1997 37.2465 24.9729 37.2262C24.7461 37.2058 24.5273 37.1325 24.3341 37.012C24.1408 36.8916 23.9786 36.7274 23.8605 36.5328C23.6457 36.1797 23.5529 35.7659 23.5964 35.3549C23.64 34.944 23.8175 34.5588 24.1016 34.2586L28.1998 29.4211C28.3263 29.2768 28.3949 29.0907 28.3927 28.8988V18.1069C28.3714 17.883 28.3971 17.6572 28.4682 17.4438C28.5393 17.2305 28.6542 17.0343 28.8055 16.868C28.9568 16.7016 29.1412 16.5687 29.3469 16.4778C29.5525 16.3868 29.7749 16.3398 29.9998 16.3398C30.2247 16.3398 30.4471 16.3868 30.6527 16.4778C30.8584 16.5687 31.0428 16.7016 31.1941 16.868C31.3454 17.0343 31.4603 17.2305 31.5314 17.4438C31.6025 17.6572 31.6282 17.883 31.6069 18.1069Z" fill="#FF9800"/>
    <path d="M23.8622 36.5328C23.6473 36.1797 23.5545 35.7659 23.5981 35.3549C23.6417 34.944 23.8192 34.5588 24.1033 34.2586L28.2015 29.4211C28.3279 29.2768 28.3966 29.0908 28.3943 28.8988V18.1069C28.3943 17.7782 28.4802 17.4552 28.6434 17.1699C28.5613 17.1539 28.478 17.1447 28.3943 17.1426C27.9471 17.1649 27.527 17.3634 27.2258 17.6947C26.9246 18.026 26.7669 18.4631 26.7872 18.9104V29.7024C26.7895 29.8943 26.7208 30.0803 26.5943 30.2247L22.4961 35.0622C22.212 35.3623 22.0345 35.7476 21.991 36.1585C21.9474 36.5694 22.0402 36.9833 22.255 37.3363C22.3732 37.531 22.5354 37.6952 22.7286 37.8156C22.9218 37.9361 23.1406 38.0094 23.3674 38.0298C23.5942 38.0501 23.8226 38.0168 24.0342 37.9327C24.2457 37.8485 24.4345 37.7158 24.5854 37.5453L24.8667 37.2029C24.6621 37.1665 24.4672 37.0882 24.2943 36.9729C24.1215 36.8575 23.9743 36.7077 23.8622 36.5328Z" fill="#E3EFFA"/>
    <path d="M30 7.5C25.5499 7.5 21.1998 8.8196 17.4997 11.2919C13.7996 13.7643 10.9157 17.2783 9.21272 21.3896C7.50975 25.501 7.06417 30.025 7.93234 34.3895C8.80051 38.7541 10.9434 42.7632 14.0901 45.9099C17.2368 49.0566 21.2459 51.1995 25.6105 52.0677C29.975 52.9358 34.499 52.4903 38.6104 50.7873C42.7217 49.0843 46.2357 46.2004 48.7081 42.5003C51.1804 38.8002 52.5 34.4501 52.5 30C52.5 24.0326 50.1295 18.3097 45.9099 14.0901C41.6903 9.87053 35.9674 7.5 30 7.5ZM30 50.8928C25.8678 50.8928 21.8284 49.6675 18.3926 47.3718C14.9567 45.076 12.2789 41.813 10.6975 37.9953C9.1162 34.1777 8.70245 29.9768 9.5086 25.924C10.3148 21.8712 12.3046 18.1484 15.2265 15.2265C18.1484 12.3046 21.8712 10.3147 25.924 9.50859C29.9768 8.70244 34.1777 9.11619 37.9954 10.6975C41.813 12.2788 45.076 14.9567 47.3718 18.3925C49.6675 21.8284 50.8929 25.8678 50.8929 30C50.8929 35.5411 48.6917 40.8553 44.7735 44.7735C40.8553 48.6916 35.5411 50.8928 30 50.8928Z" fill="#00B26B" stroke="#00B26B" stroke-width="2"/>
    <path d="M30.7689 13.8462V10.0192C30.5135 10.01 30.2574 10 29.9997 10C29.742 10 29.4859 10.01 29.2305 10.0192V13.8462H30.7689Z" fill="#006638" stroke="#006638"/>
    <path d="M29.2305 46.1543V49.9812C29.4859 49.9904 29.742 50.0005 29.9997 50.0005C30.2574 50.0005 30.5135 49.9904 30.7689 49.9812V46.1543H29.2305Z" fill="#006638" stroke="#006638"/>
    <path d="M49.9793 29.2305H46.1523V30.7689H49.9793C49.9885 30.5135 49.9985 30.2574 49.9985 29.9997C49.9985 29.742 49.9885 29.4859 49.9793 29.2305Z" fill="#006638" stroke="#006638"/>
    <path d="M13.8462 29.2305H10.0192C10.01 29.4859 10 29.742 10 29.9997C10 30.2574 10.01 30.5135 10.0192 30.7689H13.8462V29.2305Z" fill="#006638" stroke="#006638"/>
    </svg>
    