<svg width="63" height="62" viewBox="0 0 63 62" fill="none" xmlns="http://www.w3.org/2000/svg">
    <path
        d="M52.3927 31.0003C52.3927 35.1325 51.1673 39.1719 48.8716 42.6077C46.5758 46.0435 43.3128 48.7214 39.4951 50.3027C35.6775 51.8841 31.4766 52.2978 27.4238 51.4917C23.371 50.6855 19.6482 48.6957 16.7263 45.7738C13.8044 42.8518 11.8145 39.1291 11.0084 35.0763C10.2022 31.0235 10.616 26.8226 12.1973 23.0049C13.7786 19.1873 16.4565 15.9242 19.8923 13.6285C23.3282 11.3328 27.3676 10.1074 31.4998 10.1074C37.0409 10.1074 42.3551 12.3086 46.2733 16.2268C50.1914 20.145 52.3927 25.4591 52.3927 31.0003Z"
        fill="white" />
    <path
        d="M52.3929 31.0002C52.3916 26.5768 50.9863 22.268 48.3796 18.6943C45.7728 15.1206 42.0991 12.4665 37.8875 11.1141C33.676 9.76178 29.1438 9.78103 24.9439 11.1691C20.7439 12.5572 17.0929 15.2424 14.5166 18.8381C18.5402 15.9549 23.4569 14.5943 28.3903 14.9988C33.3237 15.4034 37.9532 17.5468 41.4533 21.0469C44.9535 24.5471 47.0969 29.1765 47.5014 34.1099C47.9059 39.0433 46.5453 43.96 43.6621 47.9836C46.3643 46.0522 48.5663 43.5035 50.0849 40.5495C51.6035 37.5955 52.3948 34.3216 52.3929 31.0002Z"
        fill="black" fill-opacity="0.1" />
    <path
        d="M31.5 1.9375C37.248 1.9375 42.867 3.64199 47.6463 6.83541C52.4256 10.0288 56.1506 14.5678 58.3502 19.8783C60.5499 25.1887 61.1255 31.0322 60.0041 36.6698C58.8827 42.3074 56.1147 47.4858 52.0503 51.5503C47.9858 55.6147 42.8074 58.3827 37.1698 59.5041C31.5322 60.6255 25.6887 60.0499 20.3783 57.8502C15.0678 55.6506 10.5288 51.9256 7.33541 47.1463C4.14199 42.367 2.4375 36.748 2.4375 31C2.4375 23.2921 5.49943 15.9 10.9497 10.4497C16.4 4.99943 23.7921 1.9375 31.5 1.9375Z"
        fill="white" stroke="black" stroke-width="3" />
    <path
        d="M33.1069 19.1069V30.5819C33.1097 30.9553 32.9785 31.3173 32.7373 31.6024L27.6909 37.7417C27.54 37.9122 27.3512 38.0449 27.1396 38.1291C26.9281 38.2132 26.6997 38.2465 26.4729 38.2262C26.2461 38.2058 26.0273 38.1325 25.8341 38.012C25.6408 37.8916 25.4786 37.7274 25.3605 37.5327C25.1457 37.1797 25.0529 36.7659 25.0964 36.3549C25.14 35.944 25.3175 35.5588 25.6016 35.2586L29.6998 30.4211C29.8263 30.2768 29.8949 30.0907 29.8927 29.8988V19.1069C29.8714 18.883 29.8971 18.6572 29.9682 18.4438C30.0393 18.2305 30.1542 18.0343 30.3055 17.868C30.4568 17.7016 30.6412 17.5687 30.8469 17.4778C31.0525 17.3868 31.2749 17.3398 31.4998 17.3398C31.7247 17.3398 31.9471 17.3868 32.1527 17.4778C32.3584 17.5687 32.5428 17.7016 32.6941 17.868C32.8454 18.0343 32.9603 18.2305 33.0314 18.4438C33.1025 18.6572 33.1282 18.883 33.1069 19.1069Z"
        fill="#FF9800" />
    <path
        d="M25.3607 37.5328C25.1459 37.1797 25.0531 36.7659 25.0966 36.3549C25.1402 35.944 25.3177 35.5588 25.6018 35.2586L29.7 30.4211C29.8265 30.2768 29.8951 30.0908 29.8929 29.8988V19.1069C29.8928 18.7782 29.9787 18.4552 30.142 18.1699C30.0598 18.1539 29.9765 18.1447 29.8929 18.1426C29.4457 18.1649 29.0255 18.3634 28.7243 18.6947C28.4231 19.026 28.2654 19.4631 28.2857 19.9104V30.7024C28.288 30.8943 28.2193 31.0803 28.0929 31.2247L23.9946 36.0622C23.7106 36.3623 23.5331 36.7476 23.4895 37.1585C23.4459 37.5694 23.5387 37.9833 23.7536 38.3363C23.8717 38.531 24.0339 38.6952 24.2271 38.8156C24.4203 38.9361 24.6392 39.0094 24.866 39.0298C25.0927 39.0501 25.3211 39.0168 25.5327 38.9327C25.7443 38.8485 25.9331 38.7158 26.0839 38.5453L26.3652 38.2029C26.1606 38.1665 25.9657 38.0882 25.7929 37.9729C25.62 37.8575 25.4729 37.7077 25.3607 37.5328Z"
        fill="#E3EFFA" />
    <path
        d="M31.5 8.5C27.0499 8.5 22.6998 9.8196 18.9997 12.2919C15.2996 14.7643 12.4157 18.2783 10.7127 22.3896C9.00975 26.501 8.56417 31.025 9.43234 35.3895C10.3005 39.7541 12.4434 43.7632 15.5901 46.9099C18.7368 50.0566 22.7459 52.1995 27.1105 53.0677C31.475 53.9358 35.999 53.4903 40.1104 51.7873C44.2217 50.0843 47.7357 47.2004 50.2081 43.5003C52.6804 39.8002 54 35.4501 54 31C54 25.0326 51.6295 19.3097 47.4099 15.0901C43.1903 10.8705 37.4674 8.5 31.5 8.5ZM31.5 51.8928C27.3678 51.8928 23.3284 50.6675 19.8926 48.3718C16.4567 46.076 13.7789 42.813 12.1975 38.9953C10.6162 35.1777 10.2024 30.9768 11.0086 26.924C11.8148 22.8712 13.8046 19.1484 16.7265 16.2265C19.6484 13.3046 23.3712 11.3147 27.424 10.5086C31.4768 9.70244 35.6777 10.1162 39.4954 11.6975C43.313 13.2788 46.576 15.9567 48.8718 19.3925C51.1675 22.8284 52.3929 26.8678 52.3929 31C52.3929 36.5411 50.1917 41.8553 46.2735 45.7735C42.3553 49.6916 37.0411 51.8928 31.5 51.8928Z"
        fill="#00B26B" stroke="#00B26B" stroke-width="2" />
    <path
        d="M32.2694 14.8462V11.0192C32.014 11.01 31.7579 11 31.5002 11C31.2425 11 30.9863 11.01 30.731 11.0192V14.8462H32.2694Z"
        fill="#006638" stroke="#006638" />
    <path
        d="M30.731 47.1538V50.9807C30.9863 50.99 31.2425 51 31.5002 51C31.7579 51 32.014 50.99 32.2694 50.9807V47.1538H30.731Z"
        fill="#006638" stroke="#006638" />
    <path
        d="M51.4807 30.231H47.6538V31.7694H51.4807C51.49 31.514 51.5 31.2579 51.5 31.0002C51.5 30.7425 51.49 30.4863 51.4807 30.231Z"
        fill="#006638" stroke="#006638" />
    <path
        d="M15.3462 30.231H11.5192C11.51 30.4863 11.5 30.7425 11.5 31.0002C11.5 31.2579 11.51 31.514 11.5192 31.7694H15.3462V30.231Z"
        fill="#006638" stroke="#006638" />
</svg>
    