<svg width="32" height="32" viewBox="0 0 32 32" fill="none" xmlns="http://www.w3.org/2000/svg">
    <g clip-path="url(#clip0_3384_39268)">
        <path
            d="M16 0C12.8355 0 9.74207 0.938384 7.11088 2.69649C4.4797 4.45459 2.42894 6.95345 1.21793 9.87707C0.00693258 12.8007 -0.309921 16.0178 0.307443 19.1214C0.924806 22.2251 2.44866 25.0761 4.6863 27.3137C6.92394 29.5514 9.77487 31.0752 12.8786 31.6926C15.9823 32.3099 19.1993 31.9931 22.1229 30.7821C25.0466 29.5711 27.5454 27.5203 29.3035 24.8891C31.0616 22.2579 32 19.1645 32 16C31.9954 11.7579 30.3082 7.69095 27.3087 4.69136C24.3091 1.69177 20.2421 0.00458811 16 0V0ZM16 28C13.6266 28 11.3066 27.2962 9.33316 25.9776C7.35977 24.6591 5.8217 22.7849 4.91345 20.5922C4.0052 18.3995 3.76756 15.9867 4.23058 13.6589C4.69361 11.3311 5.8365 9.19295 7.51473 7.51472C9.19296 5.83649 11.3312 4.6936 13.6589 4.23058C15.9867 3.76755 18.3995 4.00519 20.5922 4.91345C22.7849 5.8217 24.6591 7.35977 25.9776 9.33316C27.2962 11.3065 28 13.6266 28 16C27.9965 19.1815 26.7311 22.2317 24.4814 24.4814C22.2317 26.7311 19.1815 27.9965 16 28V28Z"
            fill="#00B26B" />
        <path
            d="M14 14.7401L10.8 16.7401C10.5773 16.8795 10.3843 17.0615 10.2319 17.2755C10.0796 17.4895 9.9709 17.7315 9.91209 17.9876C9.85327 18.2436 9.84548 18.5088 9.88917 18.7678C9.93285 19.0269 10.0272 19.2748 10.1667 19.4974V19.4974C10.3061 19.7201 10.488 19.9132 10.7021 20.0655C10.9161 20.2179 11.1581 20.3266 11.4141 20.3854C11.6702 20.4442 11.9353 20.452 12.1944 20.4083C12.4535 20.3646 12.7014 20.2703 12.924 20.1308L16.7494 17.7308C17.1332 17.4903 17.4494 17.156 17.6682 16.7594C17.887 16.3628 18.0012 15.917 18 15.4641V10.3628C18 9.83236 17.7893 9.32365 17.4142 8.94858C17.0392 8.57351 16.5305 8.36279 16 8.36279V8.36279C15.4696 8.36279 14.9609 8.57351 14.5858 8.94858C14.2107 9.32365 14 9.83236 14 10.3628V14.7401Z"
            fill="#00B26B" />
    </g>
    <defs>
        <clipPath id="clip0_3384_39268">
            <rect width="32" height="32" fill="white" />
        </clipPath>
    </defs>
</svg>