<svg width="40" height="41" viewBox="0 0 40 41" fill="none" xmlns="http://www.w3.org/2000/svg">
    <rect x="4" y="4.42773" width="28.1591" height="31.3662" rx="5" fill="white"/>
    <path d="M26.8874 12.6112C26.8874 12.0617 26.4418 11.6162 25.8924 11.6162H16.1825C15.633 11.6162 15.1875 12.0617 15.1875 12.6112C15.1875 13.1606 15.633 13.6062 16.1825 13.6062H25.8924C26.4418 13.6062 26.8874 13.1606 26.8874 12.6112Z" fill="black"/>
    <path d="M16.1825 15.6924C15.633 15.6924 15.1875 16.1379 15.1875 16.6874C15.1875 17.2368 15.633 17.6823 16.1825 17.6823H20.8876C21.4371 17.6823 21.8826 17.2368 21.8826 16.6874C21.8826 16.1379 21.4371 15.6924 20.8876 15.6924H16.1825Z" fill="black"/>
    <path d="M23.4558 33.8029H8.25631C7.00705 33.8029 5.99107 32.7869 5.99107 31.5255C5.99107 30.2972 7.02806 29.2591 8.25631 29.2591H19.6654C20.2149 29.2591 20.6604 28.8136 20.6604 28.2642C20.6604 27.7147 20.2149 27.2692 19.6654 27.2692H11.9101V6.4188H28.7319C29.5246 6.4188 30.1691 7.0578 30.1691 7.84494V26.8031C30.1691 27.3526 30.6146 27.7981 31.1641 27.7981C31.7135 27.7981 32.1591 27.3526 32.1591 26.8031V7.84494C32.1591 5.96111 30.6202 4.42773 28.7308 4.42773H8.25631C5.91036 4.42773 4 6.3381 4 8.68515V31.5255L4.00111 31.5288C4.00111 31.531 4 31.5332 4 31.5366C4 33.8836 5.91036 35.794 8.25631 35.794H23.4558C24.0052 35.794 24.4507 35.3484 24.4507 34.799C24.4507 34.2495 24.0052 33.8029 23.4558 33.8029ZM5.99107 8.68515C5.99107 7.43479 7.00705 6.4188 8.25631 6.4188H9.91903V27.2692C8.56696 27.2692 7.18947 27.1675 5.99107 27.9237V8.68515Z" fill="black"/>
    <path d="M5.99107 8.68515C5.99107 7.43479 7.00705 6.4188 8.25631 6.4188H9.91903V27.2692C8.56696 27.2692 7.18947 27.1675 5.99107 27.9237V8.68515Z" fill="#FF9800"/>
    <path d="M35.473 27.8016C34.9612 27.0278 34.1387 26.5181 33.2166 26.4042L29.5076 25.9499V22.3016C29.5076 20.7516 28.2461 19.4902 26.6962 19.4902C25.1462 19.4902 23.8848 20.7516 23.8848 22.3016V27.6657L22.8589 27.0311C21.6538 26.2837 20.0884 26.5668 19.2217 27.6911C18.4146 28.7347 18.4611 30.2128 19.3344 31.2034L23.9511 36.4447C24.473 37.0351 25.2225 37.3745 26.0097 37.3745H31.8115C33.0287 37.3745 34.1121 36.5575 34.4482 35.3889L35.8766 30.4262C36.1319 29.5329 35.986 28.5755 35.473 27.8016ZM33.9629 29.8745L32.5345 34.8384C32.4428 35.159 32.1443 35.3823 31.8115 35.3823H26.0097C25.793 35.3823 25.5862 35.2894 25.4436 35.128L20.828 29.8878C20.5837 29.6114 20.5715 29.199 20.796 28.9072C20.9474 28.7104 21.1752 28.6065 21.4073 28.6065C21.5455 28.6065 21.6859 28.6441 21.8119 28.7226L24.3558 30.2979C24.662 30.4859 25.0489 30.4969 25.3629 30.3212C25.6791 30.1454 25.8748 29.8126 25.8748 29.4522V22.3027C25.8748 21.8506 26.2429 21.4824 26.6951 21.4824C27.1472 21.4824 27.5154 21.8506 27.5154 22.3027V26.8321C27.5154 27.3351 27.8913 27.7585 28.3899 27.8204L32.9734 28.3821C33.3206 28.4241 33.619 28.6087 33.8125 28.9017C34.0071 29.1913 34.0602 29.5384 33.9629 29.8745Z" fill="black"/>
    <path d="M33.9629 29.8745L32.5345 34.8384C32.4428 35.159 32.1443 35.3823 31.8115 35.3823H26.0097C25.793 35.3823 25.5862 35.2894 25.4436 35.128L20.828 29.8878C20.5837 29.6114 20.5715 29.199 20.796 28.9072C20.9474 28.7104 21.1752 28.6065 21.4073 28.6065C21.5455 28.6065 21.6859 28.6441 21.8119 28.7226L24.3558 30.2979C24.662 30.4859 25.0489 30.4969 25.3629 30.3212C25.6791 30.1454 25.8748 29.8126 25.8748 29.4522V22.3027C25.8748 21.8506 26.2429 21.4824 26.6951 21.4824C27.1472 21.4824 27.5154 21.8506 27.5154 22.3027V26.8321C27.5154 27.3351 27.8913 27.7585 28.3899 27.8204L32.9734 28.3821C33.3206 28.4241 33.619 28.6087 33.8125 28.9017C34.0071 29.1913 34.0602 29.5384 33.9629 29.8745Z" fill="#FF9800"/>
    </svg>
    