<svg width="40" height="41" viewBox="0 0 40 41" fill="none" xmlns="http://www.w3.org/2000/svg">
    <g clip-path="url(#clip0_2744_4069)">
    <rect x="2" y="2.71387" width="36" height="36" rx="18" fill="#FFC849"/>
    <path d="M21.8866 30.46C14.1557 30.1355 10.4282 32.2165 10.4004 38.7144H29.5712C29.8934 34.9776 27.5637 30.6971 21.8866 30.46Z" fill="#FF7F36"/>
    <path d="M24.4983 38.7148C24.0443 34.713 22.2034 31.7148 19.9992 31.7148C17.795 31.7148 15.954 34.713 15.5 38.7148H24.5H24.4983Z" fill="#FFCCA2"/>
    <path d="M27.8348 7.61035C27.8348 7.61035 28.5867 9.89649 28.9143 11.2911C29.2419 12.6857 30.9301 17.0306 30.1818 20.8492C29.7002 23.3072 24.6374 18.6866 23.0656 17.5265C21.4938 16.3664 23.2196 9.45072 27.8348 7.61035Z" fill="#FF7F36"/>
    <path d="M28.9143 11.293C28.5867 9.89844 27.8348 7.6123 27.8348 7.6123C25.4305 8.57187 23.8121 10.9063 23.0352 13.0904C23.4881 12.5802 26.809 8.86905 27.3049 9.27902C27.62 9.54039 28.6834 11.6511 29.4943 13.325C29.2455 12.4352 29.0163 11.7245 28.9143 11.2948V11.293Z" fill="#703F58"/>
    <path d="M23.918 16.7264C23.918 16.7264 24.3047 11.7925 27.3051 9.27539C27.3051 9.27539 28.0785 11.7907 28.8537 14.8878C29.6288 17.9849 29.7237 20.2102 29.2404 20.5969C28.757 20.9836 23.918 16.7264 23.918 16.7264Z" fill="white"/>
    <path d="M12.7044 7.51367C12.7044 7.51367 11.9525 9.79981 11.6249 11.1944C11.2973 12.589 9.60907 16.9339 10.3574 20.7525C10.839 23.2105 15.9018 18.5899 17.4736 17.4298C19.0454 16.2697 17.3196 9.35404 12.7044 7.51367Z" fill="#FF7F36"/>
    <path d="M11.625 11.1964C11.9526 9.80176 12.7045 7.51562 12.7045 7.51562C15.1088 8.47519 16.7271 10.8097 17.5041 12.9938C17.0512 12.4835 13.7303 8.77237 13.2344 9.18234C12.9193 9.44371 11.8559 11.5544 11.0449 13.2283C11.2938 12.3385 11.5229 11.6278 11.625 11.1981V11.1964Z" fill="#703F58"/>
    <path d="M16.6237 16.6297C16.6237 16.6297 16.237 11.6958 13.2366 9.17871C13.2366 9.17871 12.4632 11.694 11.688 14.7911C10.9146 17.8864 10.8179 20.1135 11.3013 20.5002C11.7847 20.8869 16.6237 16.6297 16.6237 16.6297Z" fill="white"/>
    <path d="M8.00353 26.352C7.85315 17.5422 12.506 14.7369 22.3595 15.1647C34.474 15.6911 34.3917 31.4792 26.4412 32.9669C20.5048 34.0768 8.15391 35.1492 8.00353 26.352Z" fill="#FF7F36"/>
    <path d="M31.4019 28.4324C29.3324 27.4478 25.9327 27.847 25.1755 27.6985C24.1926 27.5051 23.3065 26.7997 22.5957 25.8169C22.3326 25.4535 20.7124 20.8812 20.1252 20.9152C19.5291 20.9492 18.002 25.534 17.8194 25.7811C17.0424 26.8284 16.0417 27.4782 14.9872 27.7522C14.0814 27.9885 8.98633 28.7977 8.98633 29.8199C8.98633 29.8628 8.9917 29.9076 8.99528 29.9506C12.062 34.795 21.4858 33.8963 26.4412 32.9689C28.8741 32.5142 30.5677 30.7186 31.4037 28.4342L31.4019 28.4324Z" fill="white"/>
    <path d="M28.6297 23.8141C28.7443 24.1955 27.3443 24.5445 25.6418 25.0548C23.9393 25.565 22.5769 26.0412 22.4623 25.6599C22.3477 25.2785 23.6081 24.2796 25.3106 23.7694C26.0124 23.5599 26.6801 23.465 27.2315 23.4543C28.0156 23.4382 28.5634 23.5904 28.6297 23.8159V23.8141Z" fill="#482725"/>
    <path d="M11.81 23.7907C11.69 24.1702 13.0775 24.5372 14.7621 25.0671C16.4467 25.5971 17.793 26.0912 17.9129 25.7098C18.0328 25.3303 16.7958 24.3152 15.1094 23.7853C13.4248 23.2554 11.9281 23.4112 11.8082 23.7907H11.81Z" fill="#482725"/>
    <path d="M20.2293 29.3444C22.003 29.3444 23.441 28.1637 23.441 26.7073C23.441 25.251 22.003 24.0703 20.2293 24.0703C18.4555 24.0703 17.0176 25.251 17.0176 26.7073C17.0176 28.1637 18.4555 29.3444 20.2293 29.3444Z" fill="white"/>
    <path d="M20.422 25.4229C20.422 25.4229 19.9619 26.6814 20.3253 27.4798" stroke="#482725" stroke-width="0.6" stroke-miterlimit="10" stroke-linecap="round"/>
    <path d="M18.9473 27.3713C18.9473 27.3713 21.9602 28.3362 22.3595 25.7959" stroke="#482725" stroke-width="0.6" stroke-miterlimit="10" stroke-linecap="round"/>
    <path d="M21.8867 25.9512C21.8867 25.9512 22.5044 25.5448 22.7747 26.1642" stroke="#482725" stroke-width="0.6" stroke-miterlimit="10" stroke-linecap="round"/>
    <path d="M19.0291 27.8043C19.0291 27.8043 18.7014 27.303 19.26 27.0703" stroke="#482725" stroke-width="0.6" stroke-miterlimit="10" stroke-linecap="round"/>
    <path d="M22.0844 24.381C22.0057 23.7509 18.5022 23.7204 18.4753 24.5332C18.4449 25.4444 19.3973 26.2482 20.2942 26.259C21.0837 26.2697 22.1847 25.1902 22.0844 24.3792V24.381Z" fill="#482725"/>
    <path d="M20.629 24.6174C20.3032 24.5905 19.8914 24.5977 19.4707 24.7159" stroke="white" stroke-width="0.6" stroke-miterlimit="10" stroke-linecap="round"/>
    <path d="M21.2962 24.7376C21.2962 24.7376 21.1548 24.6929 20.9238 24.6553" stroke="white" stroke-width="0.6" stroke-miterlimit="10" stroke-linecap="round"/>
    </g>
    <rect x="1" y="1.71387" width="38" height="38" rx="19" stroke="black" stroke-width="2"/>
    <defs>
    <clipPath id="clip0_2744_4069">
    <rect x="2" y="2.71387" width="36" height="36" rx="18" fill="white"/>
    </clipPath>
    </defs>
    </svg>
    