<svg width="32" height="32" viewBox="0 0 32 32" fill="none" xmlns="http://www.w3.org/2000/svg">
    <g clip-path="url(#clip0_1307_41291)">
        <path
            d="M31.9996 14.9962C31.8067 11.8763 30.7051 8.88093 28.8305 6.37948C26.9559 3.87803 24.3902 1.97984 21.4498 0.918908C18.5095 -0.142022 15.3229 -0.319307 12.283 0.408909C9.24305 1.13712 6.48267 2.73901 4.34215 5.01707C2.20163 7.29514 0.774539 10.1498 0.236808 13.2291C-0.300924 16.3085 0.0742137 19.4778 1.31597 22.3465C2.55773 25.2152 4.61183 27.6579 7.22503 29.3733C9.83823 31.0887 12.8963 32.0018 16.0222 32.0003H25.3329C27.1005 31.9985 28.7951 31.2955 30.045 30.0457C31.2948 28.7958 31.9978 27.1012 31.9996 25.3336V14.9962ZM29.3329 25.3336C29.3329 26.3944 28.9115 27.4119 28.1613 28.162C27.4112 28.9122 26.3938 29.3336 25.3329 29.3336H16.0222C14.1408 29.3327 12.2807 28.9353 10.5631 28.1673C8.84562 27.3993 7.30925 26.2779 6.05422 24.8762C4.79312 23.4753 3.84613 21.8209 3.27674 20.024C2.70736 18.2271 2.52875 16.3292 2.75289 14.4576C3.1068 11.5055 4.43314 8.75517 6.52281 6.64015C8.61248 4.52513 11.3466 3.16573 14.2942 2.77625C14.8692 2.70418 15.4481 2.66767 16.0276 2.66691C19.1349 2.65844 22.146 3.74412 24.5329 5.73358C25.9269 6.89217 27.0712 8.32178 27.8963 9.93575C28.7213 11.5497 29.2101 13.3144 29.3329 15.1229V25.3336Z"
            fill="#252525" />
        <path
            d="M10.6663 11.9998H15.9997C16.3533 11.9998 16.6924 11.8593 16.9425 11.6093C17.1925 11.3592 17.333 11.0201 17.333 10.6664C17.333 10.3128 17.1925 9.97369 16.9425 9.72364C16.6924 9.47359 16.3533 9.33311 15.9997 9.33311H10.6663C10.3127 9.33311 9.97358 9.47359 9.72353 9.72364C9.47348 9.97369 9.33301 10.3128 9.33301 10.6664C9.33301 11.0201 9.47348 11.3592 9.72353 11.6093C9.97358 11.8593 10.3127 11.9998 10.6663 11.9998Z"
            fill="#252525" />
        <path
            d="M21.333 14.6669H10.6663C10.3127 14.6669 9.97358 14.8074 9.72353 15.0574C9.47348 15.3075 9.33301 15.6466 9.33301 16.0002C9.33301 16.3539 9.47348 16.693 9.72353 16.943C9.97358 17.1931 10.3127 17.3336 10.6663 17.3336H21.333C21.6866 17.3336 22.0258 17.1931 22.2758 16.943C22.5259 16.693 22.6663 16.3539 22.6663 16.0002C22.6663 15.6466 22.5259 15.3075 22.2758 15.0574C22.0258 14.8074 21.6866 14.6669 21.333 14.6669Z"
            fill="#252525" />
        <path
            d="M21.333 20H10.6663C10.3127 20 9.97358 20.1405 9.72353 20.3905C9.47348 20.6406 9.33301 20.9797 9.33301 21.3333C9.33301 21.687 9.47348 22.0261 9.72353 22.2762C9.97358 22.5262 10.3127 22.6667 10.6663 22.6667H21.333C21.6866 22.6667 22.0258 22.5262 22.2758 22.2762C22.5259 22.0261 22.6663 21.687 22.6663 21.3333C22.6663 20.9797 22.5259 20.6406 22.2758 20.3905C22.0258 20.1405 21.6866 20 21.333 20Z"
            fill="#252525" />
    </g>
    <defs>
        <clipPath id="clip0_1307_41291">
            <rect width="32" height="32" fill="white" />
        </clipPath>
    </defs>
</svg>
    