<svg width="40" height="40" viewBox="0 0 40 40" fill="none" xmlns="http://www.w3.org/2000/svg">
    <path
        d="M36.3118 21.2487L13.5887 33.7544C12.343 34.44 10.7773 33.9859 10.0917 32.7401L3.16717 20.1581C2.48158 18.9124 2.93566 17.3467 4.18139 16.6611L26.9045 4.15545C28.1502 3.46986 29.7159 3.92394 30.4014 5.16968L37.326 17.7517C38.0116 18.9974 37.5575 20.5631 36.3118 21.2487Z"
        fill="#FEBC1F" />
    <path
        d="M35.8157 20.3473L13.0926 32.853C11.8469 33.5386 10.2812 33.0845 9.59562 31.8388L2.67108 19.2567C1.98548 18.011 2.43957 16.4454 3.6853 15.7598L26.4084 3.25408C27.6541 2.56849 29.2198 3.02258 29.9054 4.26831L36.8299 16.8503C37.5155 18.0961 37.0614 19.6617 35.8157 20.3473Z"
        fill="#FFD475" />
    <path
        d="M26.4084 3.25453L3.6853 15.7602C2.43956 16.4458 1.98549 18.0115 2.67107 19.2572L9.59562 31.8393C9.59562 31.8393 3.14333 19.4996 28.7057 3.16508C27.9932 2.84495 27.1454 2.84892 26.4084 3.25453Z"
        fill="#FEBC1F" />
    <path
        d="M4.70762 20.7995L5.57715 22.3794C5.79634 22.7777 6.29688 22.9229 6.69515 22.7037L30.6664 9.51108C31.0646 9.29189 31.2098 8.79135 30.9906 8.39308L30.1211 6.81312C29.9019 6.41485 29.4014 6.26968 29.0031 6.48887L5.03187 19.6815C4.6336 19.9007 4.48843 20.4012 4.70762 20.7995Z"
        fill="#1D2943" />
    <path
        d="M4.46543 20.362L5.33497 21.9419C5.55415 22.3402 6.05469 22.4854 6.45296 22.2662L30.4242 9.07357C30.8224 8.85439 30.9676 8.35385 30.7484 7.95558L29.8789 6.37562C29.6597 5.97735 29.1592 5.83218 28.7609 6.05137L4.78968 19.244C4.39142 19.4632 4.24624 19.9637 4.46543 20.362Z"
        fill="#4C5C75" />
    <path
        d="M32.2031 37.0656L6.26605 37.0656C4.84411 37.0656 3.69141 35.9129 3.69141 34.491L3.69141 20.1293C3.69141 18.7074 4.84411 17.5547 6.26604 17.5547L32.2031 17.5547C33.625 17.5547 34.7777 18.7074 34.7777 20.1293L34.7777 34.491C34.7777 35.9129 33.625 37.0656 32.2031 37.0656Z"
        fill="#5094FF" />
    <path
        d="M6.26604 36.0363L32.2031 36.0363C33.625 36.0363 34.7777 34.8836 34.7777 33.4617L34.7777 19.1C34.7777 17.6781 33.625 16.5254 32.2031 16.5254L6.26605 16.5254C4.84411 16.5254 3.69141 17.6781 3.69141 19.1L3.69141 33.4617C3.69141 34.8836 4.84411 36.0363 6.26604 36.0363Z"
        fill="#57B3FE" />
    <path
        d="M6.2667 16.5254L32.2038 16.5254C33.6257 16.5254 34.7784 17.6781 34.7784 19.1L34.7784 33.4617C34.7784 33.4617 34.4815 19.5401 4.21094 17.5547C4.68076 16.9307 5.42546 16.5254 6.2667 16.5254Z"
        fill="#5094FF" />
    <path
        d="M32.7622 31.4158V31.8153H32.7569C32.7673 32.3557 32.3166 32.8096 31.7732 32.8096L29.1609 32.8096C28.6272 32.8096 28.1666 32.3641 28.1772 31.8153H28.1719V31.4158H28.2357C28.3899 31.0276 28.81 30.7617 29.2513 30.7617L31.6828 30.7617C32.1241 30.7617 32.5442 31.0276 32.6984 31.4158H32.7622Z"
        fill="#E3E7F0" />
    <path
        d="M31.7723 32.4127L29.2471 32.4128C28.7383 32.4128 28.2575 32.0673 28.1861 31.5636C28.0991 30.9502 28.5736 30.4239 29.1702 30.4239L31.6855 30.4238C32.225 30.4238 32.7275 30.8153 32.7603 31.3539C32.7968 31.9516 32.3241 32.4127 31.7723 32.4127Z"
        fill="white" />
    <path
        d="M25.274 31.4158V31.8153H25.2686C25.279 32.3557 24.8283 32.8096 24.2849 32.8096L21.6726 32.8096C21.1389 32.8096 20.6784 32.3641 20.6889 31.8153H20.6836V31.4158H20.7474C20.9016 31.0276 21.3217 30.7617 21.763 30.7617L24.1945 30.7617C24.6358 30.7617 25.0559 31.0276 25.2102 31.4158H25.274Z"
        fill="#E3E7F0" />
    <path
        d="M24.284 32.4127L21.7588 32.4128C21.25 32.4128 20.7692 32.0673 20.6978 31.5636C20.6108 30.9502 21.0853 30.4239 21.6819 30.4239L24.1972 30.4238C24.7367 30.4238 25.2392 30.8153 25.272 31.3539C25.3085 31.9516 24.8358 32.4127 24.284 32.4127Z"
        fill="white" />
    <path
        d="M17.7896 31.4158V31.8153H17.7843C17.7947 32.3557 17.3439 32.8096 16.8005 32.8096H14.1883C13.6545 32.8096 13.194 32.3641 13.2045 31.8153H13.1992V31.4158H13.263C13.4173 31.0276 13.8374 30.7617 14.2786 30.7617H16.7101C17.1515 30.7617 17.5716 31.0276 17.7258 31.4158H17.7896Z"
        fill="#E3E7F0" />
    <path
        d="M16.7996 32.4127L14.2744 32.4128C13.7657 32.4128 13.2849 32.0673 13.2134 31.5636C13.1265 30.9502 13.6009 30.4239 14.1976 30.4239L16.7128 30.4238C17.2524 30.4238 17.7548 30.8153 17.7877 31.3539C17.8241 31.9516 17.3515 32.4127 16.7996 32.4127Z"
        fill="white" />
    <path
        d="M10.3013 31.4158V31.8153H10.296C10.3064 32.3557 9.85564 32.8096 9.31226 32.8096L6.69998 32.8096C6.16624 32.8096 5.7057 32.3641 5.71626 31.8153H5.71094V31.4158H5.77474C5.92897 31.0276 6.34907 30.7617 6.79033 30.7617L9.22184 30.7617C9.66317 30.7617 10.0833 31.0276 10.2375 31.4158H10.3013Z"
        fill="#E3E7F0" />
    <path
        d="M9.31135 32.4127L6.78615 32.4128C6.27737 32.4128 5.79658 32.0673 5.72516 31.5636C5.63819 30.9502 6.11262 30.4239 6.70929 30.4239L9.22456 30.4238C9.76408 30.4238 10.2665 30.8153 10.2994 31.3539C10.3358 31.9516 9.86318 32.4127 9.31135 32.4127Z"
        fill="white" />
    <path
        d="M5.71094 21.0614L5.71094 23.4638C5.71094 24.0694 6.20187 24.5603 6.80745 24.5603L11.306 24.5603C11.9116 24.5603 12.4025 24.0694 12.4025 23.4638L12.4025 21.0614C12.4025 20.4558 11.9116 19.9648 11.306 19.9648L6.80745 19.9649C6.20186 19.9649 5.71094 20.4558 5.71094 21.0614Z"
        fill="#FEBC1F" />
    <path
        d="M5.71094 20.6873L5.71094 23.0898C5.71094 23.6954 6.20186 24.1863 6.80745 24.1863L11.306 24.1863C11.9116 24.1863 12.4025 23.6954 12.4025 23.0898V20.6873C12.4025 20.0817 11.9116 19.5908 11.306 19.5908L6.80745 19.5908C6.20186 19.5908 5.71094 20.0818 5.71094 20.6873Z"
        fill="#FFD475" />
    <path
        d="M8.94018 21.6294V19.5908H8.41934V21.6294H5.71094V22.1502H7.19271V24.1863H7.71354V22.1502H10.0587V24.1863H10.5795V22.1502H12.4025V21.6294H8.94018Z"
        fill="#FEBC1F" />
    <path
        d="M32.2827 23.4288L29.3504 23.4288C29.1061 23.4288 28.8752 23.2629 28.8409 23.021C28.7991 22.7264 29.027 22.4737 29.3135 22.4737L32.2411 22.4736C32.5002 22.4736 32.7415 22.6617 32.7572 22.9203C32.7747 23.2073 32.5478 23.4288 32.2827 23.4288Z"
        fill="white" />
    <path
        d="M32.2838 21.3839L27.1356 21.3839C26.8912 21.3839 26.6603 21.218 26.626 20.9761C26.5843 20.6815 26.8121 20.4287 27.0987 20.4287L32.2421 20.4287C32.5012 20.4287 32.7425 20.6167 32.7582 20.8753C32.7758 21.1624 32.5488 21.3839 32.2838 21.3839Z"
        fill="white" />
</svg>
    