<svg width="40" height="40" viewBox="0 0 40 40" fill="none" xmlns="http://www.w3.org/2000/svg">
    <g clip-path="url(#clip0_3341_127492)">
        <path d="M15.6094 26.5135H24.3875V31.9154H15.6094V26.5135Z" fill="black" fill-opacity="0.4" />
        <path d="M15.6094 26.5135H24.3875V31.9154H15.6094V26.5135Z"
            fill="url(#paint0_linear_3341_127492)" />
        <path d="M15.6094 26.5135H24.3875V31.9154H15.6094V26.5135Z"
            fill="url(#paint1_linear_3341_127492)" />
        <path
            d="M32.6601 27.8077H7.33847C6.40616 27.8077 5.65039 27.0519 5.65039 26.1196V8.28189C5.65039 7.34958 6.40616 6.59381 7.33847 6.59381H32.66C33.5923 6.59381 34.3481 7.34958 34.3481 8.28189V26.1195C34.3482 27.0519 33.5924 27.8077 32.6601 27.8077Z"
            fill="url(#paint2_linear_3341_127492)" />
        <path
            d="M11.9316 18.3851H7.30177C6.38976 18.3851 5.65039 19.1244 5.65039 20.0365V26.1196C5.65039 27.0519 6.40616 27.8077 7.33847 27.8077H21.354L11.9316 18.3851Z"
            fill="url(#paint3_linear_3341_127492)" />
        <path
            d="M32.6607 6.59381H22.3633V27.8077H32.6607C33.593 27.8077 34.3488 27.0519 34.3488 26.1196V8.28189C34.3488 7.34958 33.593 6.59381 32.6607 6.59381Z"
            fill="url(#paint4_linear_3341_127492)" />
        <path
            d="M32.6601 6.59381H7.33847C6.40616 6.59381 5.65039 7.34958 5.65039 8.28189V24.3586H34.3482V8.28189C34.3482 7.34958 33.5924 6.59381 32.6601 6.59381Z"
            fill="url(#paint5_linear_3341_127492)" />
        <path
            d="M5.65039 25.2193V26.1196C5.65039 27.0519 6.40616 27.8077 7.33847 27.8077H32.66C33.5923 27.8077 34.3481 27.0519 34.3481 26.1196V25.2193H5.65039Z"
            fill="url(#paint6_linear_3341_127492)" />
        <path
            d="M31.8721 7.9724H8.12615C7.56677 7.9724 7.11328 8.42589 7.11328 8.98526V21.9672C7.11328 22.5265 7.56677 22.98 8.12615 22.98H31.8721C32.4314 22.98 32.8849 22.5265 32.8849 21.9672V8.98526C32.8849 8.42589 32.4315 7.9724 31.8721 7.9724Z"
            fill="url(#paint7_linear_3341_127492)" />
        <path
            d="M26.0693 33.4062H13.9274C13.5813 33.4062 13.3008 33.1256 13.3008 32.7795C13.3008 31.7068 14.1704 30.8372 15.2431 30.8372H24.7537C25.8265 30.8372 26.696 31.7068 26.696 32.7795C26.696 33.1256 26.4154 33.4062 26.0693 33.4062Z"
            fill="url(#paint8_linear_3341_127492)" />
        <path
            d="M26.0693 33.4062H13.9274C13.5813 33.4062 13.3008 33.1256 13.3008 32.7795C13.3008 31.7068 14.1704 30.8372 15.2431 30.8372H24.7537C25.8265 30.8372 26.696 31.7068 26.696 32.7795C26.696 33.1256 26.4154 33.4062 26.0693 33.4062Z"
            fill="url(#paint9_linear_3341_127492)" />
        <path
            d="M-0.00109066 20.0605L-0.00109077 22.6253C-0.00109078 22.8624 0.191066 23.0545 0.428164 23.0545C0.665263 23.0545 0.857422 22.8624 0.857422 22.6253L0.857422 20.0605C0.857422 19.8235 0.665263 19.6312 0.428164 19.6312C0.191066 19.6313 -0.00109065 19.8235 -0.00109066 20.0605Z"
            fill="url(#paint10_linear_3341_127492)" />
        <path
            d="M16.9227 21.792L16.9227 22.6253C16.9227 22.8624 17.1149 23.0545 17.352 23.0545C17.589 23.0545 17.7812 22.8624 17.7812 22.6253L17.7812 21.792C17.7812 21.555 17.5891 21.3628 17.352 21.3628C17.1149 21.3628 16.9227 21.555 16.9227 21.792Z"
            fill="url(#paint11_linear_3341_127492)" />
        <path
            d="M0.475007 38.6608L0.475008 18.5723C0.475008 17.8327 1.07462 17.2331 1.8143 17.2331L15.9655 17.2331C16.7051 17.2331 17.3047 17.8327 17.3047 18.5723L17.3047 38.6608C17.3047 39.4004 16.7051 40 15.9655 40L1.8143 40C1.07461 40 0.475007 39.4005 0.475007 38.6608Z"
            fill="url(#paint12_linear_3341_127492)" />
        <path
            d="M15.9434 36.9207L15.9434 19.1517C15.9434 18.7331 15.5171 18.3938 14.9913 18.3938L2.78882 18.3938C2.26302 18.3938 1.83674 18.7331 1.83674 19.1517L1.83674 36.9207C1.83674 37.3393 2.26302 37.6786 2.78882 37.6786L14.9914 37.6786C15.5172 37.6787 15.9434 37.3393 15.9434 36.9207Z"
            fill="url(#paint13_linear_3341_127492)" />
        <path
            d="M8.19818 38.7947C8.19818 39.1769 8.50797 39.4867 8.89011 39.4867C9.27225 39.4867 9.58203 39.1769 9.58203 38.7947C9.58203 38.4126 9.27225 38.1028 8.89011 38.1028C8.50797 38.1028 8.19818 38.4126 8.19818 38.7947Z"
            fill="#D8EDDD" />
        <path
            d="M28.3301 4.20651V6.49224C28.3301 6.70354 28.5014 6.87475 28.7126 6.87475C28.9239 6.87475 29.0951 6.70346 29.0951 6.49224V4.20651C29.0951 3.99522 28.9238 3.82401 28.7126 3.82401C28.5013 3.82401 28.3301 3.9953 28.3301 4.20651Z"
            fill="url(#paint14_linear_3341_127492)" />
        <path
            d="M39.2363 5.74973V6.49232C39.2363 6.70361 39.4076 6.87483 39.6188 6.87483C39.8301 6.87483 40.0014 6.70361 40.0014 6.49232V5.74973C40.0014 5.53843 39.8301 5.36722 39.6188 5.36722C39.4076 5.36714 39.2363 5.53843 39.2363 5.74973Z"
            fill="url(#paint15_linear_3341_127492)" />
        <path
            d="M38.4222 18.8141H29.9083C29.2492 18.8141 28.7148 18.2797 28.7148 17.6206V1.19349C28.7148 0.534355 29.2492 0 29.9083 0H38.4222C39.0813 0 39.6156 0.534355 39.6156 1.19349V17.6206C39.6156 18.2797 39.0813 18.8141 38.4222 18.8141Z"
            fill="url(#paint16_linear_3341_127492)" />
        <path
            d="M38.6207 1.5317V17.2824C38.6207 17.579 38.3802 17.8195 38.0836 17.8195H30.2461C29.9495 17.8195 29.709 17.579 29.709 17.2824V1.5317C29.709 1.23507 29.9495 0.994598 30.2461 0.994598H31.0251C31.2997 0.994598 31.5224 1.21727 31.5224 1.49193C31.5224 1.7666 31.7451 1.98927 32.0197 1.98927H36.31C36.5847 1.98927 36.8074 1.7666 36.8074 1.49193C36.8074 1.21727 37.03 0.994598 37.3047 0.994598H38.0837C38.3802 0.994598 38.6207 1.23507 38.6207 1.5317Z"
            fill="url(#paint17_linear_3341_127492)" />
    </g>
    <defs>
        <linearGradient id="paint0_linear_3341_127492" x1="19.9985" y1="29.8709" x2="19.9985"
            y2="26.9052" gradientUnits="userSpaceOnUse">
            <stop stop-color="#9E9797" stop-opacity="0" />
            <stop offset="0.3562" stop-color="#9B9494" stop-opacity="0.356" />
            <stop offset="0.6285" stop-color="#928B8B" stop-opacity="0.629" />
            <stop offset="0.872" stop-color="#827A7A" stop-opacity="0.872" />
            <stop offset="1" stop-color="#766E6E" />
        </linearGradient>
        <linearGradient id="paint1_linear_3341_127492" x1="19.9985" y1="28.9706" x2="19.9985"
            y2="31.8305" gradientUnits="userSpaceOnUse">
            <stop stop-color="#9E9797" stop-opacity="0" />
            <stop offset="0.3562" stop-color="#9B9494" stop-opacity="0.356" />
            <stop offset="0.6285" stop-color="#928B8B" stop-opacity="0.629" />
            <stop offset="0.872" stop-color="#827A7A" stop-opacity="0.872" />
            <stop offset="1" stop-color="#766E6E" />
        </linearGradient>
        <linearGradient id="paint2_linear_3341_127492" x1="14.6513" y1="5.75499" x2="24.1969"
            y2="26.1844" gradientUnits="userSpaceOnUse">
            <stop stop-color="#F9F5F3" />
            <stop offset="1" stop-color="#EFE2DD" />
        </linearGradient>
        <linearGradient id="paint3_linear_3341_127492" x1="14.0979" y1="28.3669" x2="9.31354"
            y2="18.6806" gradientUnits="userSpaceOnUse">
            <stop stop-color="#9E9797" stop-opacity="0" />
            <stop offset="0.3562" stop-color="#9B9494" stop-opacity="0.356" />
            <stop offset="0.6285" stop-color="#928B8B" stop-opacity="0.629" />
            <stop offset="0.872" stop-color="#827A7A" stop-opacity="0.872" />
            <stop offset="1" stop-color="#766E6E" />
        </linearGradient>
        <linearGradient id="paint4_linear_3341_127492" x1="31.3665" y1="17.2007" x2="34.5176"
            y2="17.2007" gradientUnits="userSpaceOnUse">
            <stop stop-color="#9E9797" stop-opacity="0" />
            <stop offset="0.3562" stop-color="#9B9494" stop-opacity="0.356" />
            <stop offset="0.6285" stop-color="#928B8B" stop-opacity="0.629" />
            <stop offset="0.872" stop-color="#827A7A" stop-opacity="0.872" />
            <stop offset="1" stop-color="#766E6E" />
        </linearGradient>
        <linearGradient id="paint5_linear_3341_127492" x1="15.9412" y1="4.62581" x2="23.408"
            y2="25.8772" gradientUnits="userSpaceOnUse">
            <stop stop-color="#596C76" />
            <stop offset="0.2842" stop-color="#4A5960" />
            <stop offset="0.8747" stop-color="#232627" />
            <stop offset="1" stop-color="#1A1A1A" />
        </linearGradient>
        <linearGradient id="paint6_linear_3341_127492" x1="19.9993" y1="26.4139" x2="19.9993"
            y2="28.1531" gradientUnits="userSpaceOnUse">
            <stop stop-color="#9E9797" stop-opacity="0" />
            <stop offset="0.3562" stop-color="#9B9494" stop-opacity="0.356" />
            <stop offset="0.6285" stop-color="#928B8B" stop-opacity="0.629" />
            <stop offset="0.872" stop-color="#827A7A" stop-opacity="0.872" />
            <stop offset="1" stop-color="#766E6E" />
        </linearGradient>
        <linearGradient id="paint7_linear_3341_127492" x1="16.6389" y1="5.91255" x2="23.0456"
            y2="24.147" gradientUnits="userSpaceOnUse">
            <stop stop-color="#A6E7F0" />
            <stop offset="0.1713" stop-color="#90E2ED" />
            <stop offset="0.5295" stop-color="#56D7E7" />
            <stop offset="1" stop-color="#02C7DD" />
        </linearGradient>
        <linearGradient id="paint8_linear_3341_127492" x1="19.9984" y1="31.8805" x2="19.9984"
            y2="33.6699" gradientUnits="userSpaceOnUse">
            <stop stop-color="#F9F5F3" />
            <stop offset="1" stop-color="#EFE2DD" />
        </linearGradient>
        <linearGradient id="paint9_linear_3341_127492" x1="19.9984" y1="31.8805" x2="19.9984"
            y2="33.6699" gradientUnits="userSpaceOnUse">
            <stop stop-color="#E1D3CE" stop-opacity="0" />
            <stop offset="0.3157" stop-color="#D0C4C0" stop-opacity="0.316" />
            <stop offset="0.9401" stop-color="#A39C9B" stop-opacity="0.94" />
            <stop offset="1" stop-color="#9E9797" />
        </linearGradient>
        <linearGradient id="paint10_linear_3341_127492" x1="1.03303" y1="21.3429" x2="-0.396151"
            y2="21.3429" gradientUnits="userSpaceOnUse">
            <stop stop-color="#596C76" />
            <stop offset="0.2842" stop-color="#4A5960" />
            <stop offset="0.8747" stop-color="#232627" />
            <stop offset="1" stop-color="#1A1A1A" />
        </linearGradient>
        <linearGradient id="paint11_linear_3341_127492" x1="17.9524" y1="22.2087" x2="16.9256"
            y2="22.2087" gradientUnits="userSpaceOnUse">
            <stop stop-color="#596C76" />
            <stop offset="0.2842" stop-color="#4A5960" />
            <stop offset="0.8747" stop-color="#232627" />
            <stop offset="1" stop-color="#1A1A1A" />
        </linearGradient>
        <linearGradient id="paint12_linear_3341_127492" x1="17.9702" y1="24.3738" x2="1.76285"
            y2="31.9466" gradientUnits="userSpaceOnUse">
            <stop stop-color="#596C76" />
            <stop offset="0.2842" stop-color="#4A5960" />
            <stop offset="0.8747" stop-color="#232627" />
            <stop offset="1" stop-color="#1A1A1A" />
        </linearGradient>
        <linearGradient id="paint13_linear_3341_127492" x1="17.2114" y1="25.1125" x2="1.34576"
            y2="30.6869" gradientUnits="userSpaceOnUse">
            <stop stop-color="#C9F6B0" />
            <stop offset="1" stop-color="#0BB494" />
        </linearGradient>
        <linearGradient id="paint14_linear_3341_127492" x1="28.2907" y1="5.34942" x2="28.8748"
            y2="5.34942" gradientUnits="userSpaceOnUse">
            <stop stop-color="#596C76" />
            <stop offset="0.2842" stop-color="#4A5960" />
            <stop offset="0.8747" stop-color="#232627" />
            <stop offset="1" stop-color="#1A1A1A" />
        </linearGradient>
        <linearGradient id="paint15_linear_3341_127492" x1="39.2716" y1="6.12102" x2="39.8342"
            y2="6.12102" gradientUnits="userSpaceOnUse">
            <stop stop-color="#596C76" />
            <stop offset="0.2842" stop-color="#4A5960" />
            <stop offset="0.8747" stop-color="#232627" />
            <stop offset="1" stop-color="#1A1A1A" />
        </linearGradient>
        <linearGradient id="paint16_linear_3341_127492" x1="28.4553" y1="4.78974" x2="40.755"
            y2="14.7359" gradientUnits="userSpaceOnUse">
            <stop stop-color="#596C76" />
            <stop offset="0.2842" stop-color="#4A5960" />
            <stop offset="0.8747" stop-color="#232627" />
            <stop offset="1" stop-color="#1A1A1A" />
        </linearGradient>
        <linearGradient id="paint17_linear_3341_127492" x1="28.1949" y1="5.96708" x2="38.4179"
            y2="11.8577" gradientUnits="userSpaceOnUse">
            <stop stop-color="#FEF48B" />
            <stop offset="1" stop-color="#FFBF51" />
        </linearGradient>
        <clipPath id="clip0_3341_127492">
            <rect width="40" height="40" fill="white" />
        </clipPath>
    </defs>
</svg>