<svg width="60" height="60" viewBox="0 0 60 60" fill="none" xmlns="http://www.w3.org/2000/svg">
    <g clip-path="url(#clip0_1324_27015)">
        <path
            d="M38.3335 33.3333C38.3335 33.7753 38.1579 34.1993 37.8453 34.5118C37.5328 34.8244 37.1089 35 36.6668 35H23.3335C22.8915 35 22.4675 34.8244 22.155 34.5118C21.8424 34.1993 21.6668 33.7753 21.6668 33.3333C21.6668 32.8913 21.8424 32.4674 22.155 32.1548C22.4675 31.8422 22.8915 31.6666 23.3335 31.6666H36.6668C37.1089 31.6666 37.5328 31.8422 37.8453 32.1548C38.1579 32.4674 38.3335 32.8913 38.3335 33.3333ZM31.6668 38.3333H23.3335C22.8915 38.3333 22.4675 38.5089 22.155 38.8215C21.8424 39.134 21.6668 39.5579 21.6668 40C21.6668 40.442 21.8424 40.8659 22.155 41.1785C22.4675 41.491 22.8915 41.6666 23.3335 41.6666H31.6668C32.1089 41.6666 32.5328 41.491 32.8453 41.1785C33.1579 40.8659 33.3335 40.442 33.3335 40C33.3335 39.5579 33.1579 39.134 32.8453 38.8215C32.5328 38.5089 32.1089 38.3333 31.6668 38.3333ZM46.6668 27.475V41.6666C46.6642 43.876 45.7854 45.994 44.2231 47.5563C42.6609 49.1185 40.5428 49.9973 38.3335 50H21.6668C19.4575 49.9973 17.3394 49.1185 15.7772 47.5563C14.215 45.994 13.3361 43.876 13.3335 41.6666V18.3333C13.3361 16.124 14.215 14.0059 15.7772 12.4437C17.3394 10.8814 19.4575 10.0026 21.6668 9.99998H29.1918C30.7245 9.99603 32.2428 10.296 33.6589 10.8824C35.0749 11.4689 36.3607 12.3302 37.4418 13.4166L43.2485 19.2266C44.3356 20.307 45.1974 21.5924 45.7842 23.0083C46.371 24.4241 46.671 25.9423 46.6668 27.475ZM35.0852 15.7733C34.5606 15.2652 33.9717 14.8282 33.3335 14.4733V21.6666C33.3335 22.1087 33.5091 22.5326 33.8217 22.8452C34.1342 23.1577 34.5581 23.3333 35.0002 23.3333H42.1935C41.8384 22.6953 41.4008 22.1069 40.8918 21.5833L35.0852 15.7733ZM43.3335 27.475C43.3335 27.2 43.2802 26.9366 43.2552 26.6666H35.0002C33.6741 26.6666 32.4023 26.1399 31.4646 25.2022C30.5269 24.2645 30.0002 22.9927 30.0002 21.6666V13.4116C29.7302 13.3866 29.4652 13.3333 29.1918 13.3333H21.6668C20.3407 13.3333 19.069 13.8601 18.1313 14.7978C17.1936 15.7355 16.6668 17.0072 16.6668 18.3333V41.6666C16.6668 42.9927 17.1936 44.2645 18.1313 45.2022C19.069 46.1399 20.3407 46.6666 21.6668 46.6666H38.3335C39.6596 46.6666 40.9313 46.1399 41.869 45.2022C42.8067 44.2645 43.3335 42.9927 43.3335 41.6666V27.475Z"
            fill="#00B26B" />
    </g>
    <defs>
        <clipPath id="clip0_1324_27015">
            <rect width="40" height="40" fill="white" transform="translate(10 10)" />
        </clipPath>
    </defs>
</svg>
    