<svg width="33" height="32" viewBox="0 0 33 32" fill="none" xmlns="http://www.w3.org/2000/svg">
    <g clip-path="url(#clip0_2808_40470)">
    <path d="M23.418 18.6667C23.418 19.0203 23.2775 19.3595 23.0274 19.6095C22.7774 19.8596 22.4383 20 22.0846 20H11.418C11.0643 20 10.7252 19.8596 10.4752 19.6095C10.2251 19.3595 10.0846 19.0203 10.0846 18.6667C10.0846 18.3131 10.2251 17.9739 10.4752 17.7239C10.7252 17.4738 11.0643 17.3334 11.418 17.3334H22.0846C22.4383 17.3334 22.7774 17.4738 23.0274 17.7239C23.2775 17.9739 23.418 18.3131 23.418 18.6667ZM18.0846 22.6667H11.418C11.0643 22.6667 10.7252 22.8072 10.4752 23.0572C10.2251 23.3073 10.0846 23.6464 10.0846 24C10.0846 24.3537 10.2251 24.6928 10.4752 24.9428C10.7252 25.1929 11.0643 25.3334 11.418 25.3334H18.0846C18.4383 25.3334 18.7774 25.1929 19.0274 24.9428C19.2775 24.6928 19.418 24.3537 19.418 24C19.418 23.6464 19.2775 23.3073 19.0274 23.0572C18.7774 22.8072 18.4383 22.6667 18.0846 22.6667ZM30.0846 13.98V25.3334C30.0825 27.1008 29.3795 28.7953 28.1297 30.0451C26.8799 31.2949 25.1854 31.9979 23.418 32H10.0846C8.31718 31.9979 6.62271 31.2949 5.37293 30.0451C4.12314 28.7953 3.42009 27.1008 3.41797 25.3334V6.6667C3.42009 4.89924 4.12314 3.20477 5.37293 1.95499C6.62271 0.705207 8.31718 0.00214788 10.0846 3.07316e-05H16.1046C17.3308 -0.00312517 18.5454 0.236814 19.6783 0.705976C20.8111 1.17514 21.8397 1.86421 22.7046 2.73336L27.35 7.38136C28.2196 8.24568 28.9091 9.27397 29.3785 10.4067C29.848 11.5394 30.088 12.7539 30.0846 13.98ZM20.8193 4.6187C20.3997 4.21225 19.9285 3.8626 19.418 3.5787V9.33336C19.418 9.68699 19.5584 10.0261 19.8085 10.2762C20.0585 10.5262 20.3977 10.6667 20.7513 10.6667H26.506C26.2219 10.1563 25.8718 9.68556 25.4646 9.2667L20.8193 4.6187ZM27.418 13.98C27.418 13.76 27.3753 13.5494 27.3553 13.3334H20.7513C19.6904 13.3334 18.673 12.9119 17.9229 12.1618C17.1727 11.4116 16.7513 10.3942 16.7513 9.33336V2.72936C16.5353 2.70936 16.3233 2.6667 16.1046 2.6667H10.0846C9.02377 2.6667 8.00635 3.08812 7.25621 3.83827C6.50606 4.58842 6.08464 5.60583 6.08464 6.6667V25.3334C6.08464 26.3942 6.50606 27.4116 7.25621 28.1618C8.00635 28.9119 9.02377 29.3334 10.0846 29.3334H23.418C24.4788 29.3334 25.4963 28.9119 26.2464 28.1618C26.9965 27.4116 27.418 26.3942 27.418 25.3334V13.98Z" fill="#D8EDDD"/>
    </g>
    <defs>
    <clipPath id="clip0_2808_40470">
    <rect width="32" height="32" fill="white" transform="translate(0.75)"/>
    </clipPath>
    </defs>
    </svg>
    