<svg width="61" height="60" viewBox="0 0 61 60" fill="none" xmlns="http://www.w3.org/2000/svg">
    <g clip-path="url(#clip0_1324_27026)">
        <path
            d="M26.9639 40.2033C27.4282 40.668 27.9795 41.0366 28.5864 41.288C29.1932 41.5395 29.8437 41.6689 30.5005 41.6689C31.1574 41.6689 31.8079 41.5395 32.4147 41.288C33.0215 41.0366 33.5729 40.668 34.0372 40.2033L39.3889 34.8517C39.6758 34.5343 39.8297 34.1188 39.8187 33.6911C39.8078 33.2634 39.6327 32.8563 39.3299 32.5541C39.027 32.2519 38.6196 32.0778 38.1919 32.0677C37.7641 32.0576 37.3489 32.2124 37.0322 32.5L32.1555 37.3783L32.1672 11.6667C32.1672 11.2246 31.9916 10.8007 31.679 10.4882C31.3665 10.1756 30.9426 10 30.5005 10V10C30.0585 10 29.6346 10.1756 29.322 10.4882C29.0095 10.8007 28.8339 11.2246 28.8339 11.6667L28.8189 37.3467L23.9689 32.5C23.6561 32.1875 23.2321 32.012 22.7899 32.0122C22.3478 32.0123 21.9239 32.1881 21.6114 32.5008C21.2989 32.8136 21.1234 33.2376 21.1235 33.6798C21.1237 34.1219 21.2995 34.5458 21.6122 34.8583L26.9639 40.2033Z"
            fill="#00B26B" />
        <path
            d="M48.8333 36.6664C48.3913 36.6664 47.9674 36.842 47.6548 37.1545C47.3423 37.4671 47.1667 37.891 47.1667 38.333V44.9997C47.1667 45.4417 46.9911 45.8657 46.6785 46.1782C46.366 46.4908 45.942 46.6664 45.5 46.6664H15.5C15.058 46.6664 14.634 46.4908 14.3215 46.1782C14.0089 45.8657 13.8333 45.4417 13.8333 44.9997V38.333C13.8333 37.891 13.6577 37.4671 13.3452 37.1545C13.0326 36.842 12.6087 36.6664 12.1667 36.6664C11.7246 36.6664 11.3007 36.842 10.9882 37.1545C10.6756 37.4671 10.5 37.891 10.5 38.333V44.9997C10.5 46.3258 11.0268 47.5975 11.9645 48.5352C12.9021 49.4729 14.1739 49.9997 15.5 49.9997H45.5C46.8261 49.9997 48.0979 49.4729 49.0355 48.5352C49.9732 47.5975 50.5 46.3258 50.5 44.9997V38.333C50.5 37.891 50.3244 37.4671 50.0118 37.1545C49.6993 36.842 49.2754 36.6664 48.8333 36.6664Z"
            fill="#00B26B" />
    </g>
    <defs>
        <clipPath id="clip0_1324_27026">
            <rect width="40" height="40" fill="white" transform="translate(10.5 10)" />
        </clipPath>
    </defs>
</svg>
    