<svg width="64" height="68" viewBox="0 0 64 68" fill="none" xmlns="http://www.w3.org/2000/svg">
    <g filter="url(#filter0_d_3341_134329)">
        <path
            d="M33.414 46.9935L31.5385 51.8778C30.5333 54.4955 27.5964 55.8028 24.9786 54.7977L22.113 53.6973C19.4952 52.6921 18.188 49.7552 19.1931 47.1374L21.0686 42.2532L18.0481 41.0934L15.4125 47.9571C14.1423 51.2651 15.7942 54.9766 19.1023 56.2468L25.5094 58.707C28.8173 59.9771 32.5288 58.3252 33.799 55.0172L36.4346 48.1534L33.414 46.9935Z"
            fill="black" fill-opacity="0.4" />
        <path
            d="M35.2994 45.755H15.8901C9.58877 45.755 4.48047 40.6468 4.48047 34.3454C4.48047 28.0441 9.58866 22.9358 15.8901 22.9358H35.2994V45.755Z"
            fill="url(#paint0_linear_3341_134329)" />
        <path
            d="M35.2994 45.755H15.8901C9.58877 45.755 4.48047 40.6468 4.48047 34.3454C4.48047 28.0441 9.58866 22.9358 15.8901 22.9358H35.2994V45.755Z"
            fill="url(#paint1_linear_3341_134329)" />
        <path
            d="M38.6688 13.0239L30.1892 16.3063L18.0846 20.9915C16.015 21.7926 14.484 23.5815 14.0248 25.7528C13.488 28.2914 13.1914 31.0772 13.1914 34C13.1914 36.9219 13.488 39.7076 14.025 42.2461C14.4842 44.4171 16.0149 46.206 18.0843 47.0071L30.1893 51.6936L38.6689 54.976C41.904 56.2704 45.4471 57.3594 49.2305 58.205V9.79358C45.4471 10.6392 41.9039 11.7295 38.6688 13.0239Z"
            fill="url(#paint2_linear_3341_134329)" />
        <path
            d="M16.9574 39.4896C16.2171 39.4896 15.6172 38.8895 15.6172 38.1494V29.8508C15.6172 29.1106 16.2173 28.5106 16.9574 28.5106C17.6976 28.5106 18.2976 29.1107 18.2976 29.8508V38.1494C18.2976 38.8895 17.6975 39.4896 16.9574 39.4896Z"
            fill="black" fill-opacity="0.2" />
        <path
            d="M45.3643 63.1C53.181 63.1 59.5177 50.0715 59.5177 34C59.5177 17.9285 53.181 4.90002 45.3643 4.90002C37.5476 4.90002 31.2109 17.9285 31.2109 34C31.2109 50.0715 37.5476 63.1 45.3643 63.1Z"
            fill="url(#paint3_linear_3341_134329)" />
        <path
            d="M45.3663 4.90002C42.5506 4.90002 39.9272 6.59078 37.7227 9.50487V58.4952C39.9272 61.4093 42.5506 63.1 45.3663 63.1C53.1831 63.1 59.5197 50.0715 59.5197 34C59.5197 17.9285 53.1831 4.90002 45.3663 4.90002Z"
            fill="url(#paint4_linear_3341_134329)" />
        <path
            d="M46.4191 57.8276C52.2381 57.8276 56.9553 47.1596 56.9553 34C56.9553 20.8404 52.2381 10.1725 46.4191 10.1725C40.6001 10.1725 35.8828 20.8404 35.8828 34C35.8828 47.1596 40.6001 57.8276 46.4191 57.8276Z"
            fill="url(#paint5_radial_3341_134329)" />
        <path
            d="M40.9145 24.3182C39.363 24.3182 37.8979 24.6852 36.5979 25.334C36.5979 25.334 35.7227 28.0243 35.7227 34C35.7227 39.9757 36.5979 42.666 36.5979 42.666C37.8979 43.3149 39.363 43.6818 40.9145 43.6818C46.2616 43.6818 50.5963 39.3471 50.5963 34C50.5963 28.6529 46.2615 24.3182 40.9145 24.3182Z"
            fill="url(#paint6_linear_3341_134329)" />
        <path
            d="M40.9145 24.3182C39.363 24.3182 37.8979 24.6852 36.5979 25.334C36.5979 25.334 35.7227 28.0243 35.7227 34C35.7227 39.9757 36.5979 42.666 36.5979 42.666C37.8979 43.3149 39.363 43.6818 40.9145 43.6818C46.2616 43.6818 50.5963 39.3471 50.5963 34C50.5963 28.6529 46.2615 24.3182 40.9145 24.3182Z"
            fill="url(#paint7_linear_3341_134329)" />
        <path
            d="M35.7227 34C35.7227 39.9758 36.5979 42.666 36.5979 42.666C37.8979 43.3148 39.363 43.6818 40.9145 43.6818C46.2616 43.6818 50.5963 39.3471 50.5963 34C50.5963 33.2361 50.505 32.4938 50.3378 31.781H35.7657C35.7386 32.4635 35.7227 33.2014 35.7227 34Z"
            fill="url(#paint8_linear_3341_134329)" />
    </g>
    <defs>
        <filter id="filter0_d_3341_134329" x="0.480469" y="0.900024" width="63.0391" height="66.2"
            filterUnits="userSpaceOnUse" color-interpolation-filters="sRGB">
            <feFlood flood-opacity="0" result="BackgroundImageFix" />
            <feColorMatrix in="SourceAlpha" type="matrix"
                values="0 0 0 0 0 0 0 0 0 0 0 0 0 0 0 0 0 0 127 0" result="hardAlpha" />
            <feOffset />
            <feGaussianBlur stdDeviation="2" />
            <feComposite in2="hardAlpha" operator="out" />
            <feColorMatrix type="matrix" values="0 0 0 0 0 0 0 0 0 0 0 0 0 0 0 0 0 0 0.5 0" />
            <feBlend mode="normal" in2="BackgroundImageFix" result="effect1_dropShadow_3341_134329" />
            <feBlend mode="normal" in="SourceGraphic" in2="effect1_dropShadow_3341_134329"
                result="shape" />
        </filter>
        <linearGradient id="paint0_linear_3341_134329" x1="19.8899" y1="26.9495" x2="19.8899"
            y2="41.863" gradientUnits="userSpaceOnUse">
            <stop stop-color="#5A5A5A" />
            <stop offset="1" stop-color="#444444" />
        </linearGradient>
        <linearGradient id="paint1_linear_3341_134329" x1="7.9503" y1="30.656" x2="15.2433"
            y2="32.2362" gradientUnits="userSpaceOnUse">
            <stop stop-color="#433F43" stop-opacity="0" />
            <stop offset="1" stop-color="#1A1A1A" />
        </linearGradient>
        <linearGradient id="paint2_linear_3341_134329" x1="22.7326" y1="18.8293" x2="31.2109"
            y2="41.741" gradientUnits="userSpaceOnUse">
            <stop offset="0.144" stop-color="white" />
            <stop offset="1" stop-color="#FFCC85" />
        </linearGradient>
        <linearGradient id="paint3_linear_3341_134329" x1="32.6531" y1="34" x2="58.9789" y2="34"
            gradientUnits="userSpaceOnUse">
            <stop stop-color="#FF9800" />
            <stop offset="1" stop-color="#F26722" />
        </linearGradient>
        <linearGradient id="paint4_linear_3341_134329" x1="48.7605" y1="34" x2="60.5437" y2="34"
            gradientUnits="userSpaceOnUse">
            <stop stop-color="white" stop-opacity="0" />
            <stop offset="1" stop-opacity="0.2" />
        </linearGradient>
        <radialGradient id="paint5_radial_3341_134329" cx="0" cy="0" r="1"
            gradientUnits="userSpaceOnUse"
            gradientTransform="translate(56.9553 34) rotate(180) scale(21.2304 33.7852)">
            <stop stop-color="white" stop-opacity="0" />
            <stop offset="1" stop-opacity="0.4" />
        </radialGradient>
        <linearGradient id="paint6_linear_3341_134329" x1="39.0028" y1="29.8572" x2="45.3021"
            y2="39.5015" gradientUnits="userSpaceOnUse">
            <stop stop-color="#F5FBFF" />
            <stop offset="1" stop-color="#DBD5EF" />
        </linearGradient>
        <linearGradient id="paint7_linear_3341_134329" x1="44.8207" y1="33.4232" x2="35.0093"
            y2="34.8727" gradientUnits="userSpaceOnUse">
            <stop stop-color="#DBD5EF" stop-opacity="0" />
            <stop offset="0.2853" stop-color="#D9D2EE" stop-opacity="0.285" />
            <stop offset="0.4739" stop-color="#D4C9E9" stop-opacity="0.474" />
            <stop offset="0.6346" stop-color="#CBBAE2" stop-opacity="0.635" />
            <stop offset="0.7795" stop-color="#BFA5D7" stop-opacity="0.78" />
            <stop offset="0.9126" stop-color="#AF8ACA" stop-opacity="0.913" />
            <stop offset="1" stop-color="#A274BF" />
        </linearGradient>
        <linearGradient id="paint8_linear_3341_134329" x1="43.1594" y1="34.5684" x2="43.1594"
            y2="43.9338" gradientUnits="userSpaceOnUse">
            <stop stop-color="#DBD5EF" stop-opacity="0" />
            <stop offset="0.2853" stop-color="#D9D2EE" stop-opacity="0.285" />
            <stop offset="0.4739" stop-color="#D4C9E9" stop-opacity="0.474" />
            <stop offset="0.6346" stop-color="#CBBAE2" stop-opacity="0.635" />
            <stop offset="0.7795" stop-color="#BFA5D7" stop-opacity="0.78" />
            <stop offset="0.9126" stop-color="#AF8ACA" stop-opacity="0.913" />
            <stop offset="1" stop-color="#A274BF" />
        </linearGradient>
    </defs>
</svg>