<svg width="61" height="60" viewBox="0 0 61 60" fill="none" xmlns="http://www.w3.org/2000/svg">
    <g clip-path="url(#clip0_1307_38242)">
        <path
            d="M42.703 9.70542L20.351 32.0574C19.4973 32.9065 18.8205 33.9165 18.3598 35.029C17.8991 36.1414 17.6636 37.3342 17.667 38.5383V41.0004C17.667 41.4866 17.8602 41.953 18.204 42.2968C18.5478 42.6406 19.0141 42.8338 19.5004 42.8338H21.9625C23.1666 42.8372 24.3594 42.6017 25.4718 42.141C26.5843 41.6803 27.5943 41.0035 28.4434 40.1497L50.7954 17.7978C51.8668 16.7237 52.4684 15.2686 52.4684 13.7516C52.4684 12.2345 51.8668 10.7794 50.7954 9.70542C49.7058 8.66389 48.2565 8.08264 46.7492 8.08264C45.2419 8.08264 43.7926 8.66389 42.703 9.70542ZM48.203 15.2054L25.851 37.5574C24.8173 38.5849 23.42 39.1633 21.9625 39.1671H21.3337V38.5383C21.3375 37.0807 21.9159 35.6835 22.9434 34.6498L45.2954 12.2978C45.6869 11.9237 46.2076 11.7149 46.7492 11.7149C47.2907 11.7149 47.8114 11.9237 48.203 12.2978C48.5879 12.6837 48.8041 13.2065 48.8041 13.7516C48.8041 14.2967 48.5879 14.8195 48.203 15.2054Z"
            fill="#D8EDDD" />
        <path
            d="M50.6667 24.4615C50.1804 24.4615 49.7141 24.6547 49.3703 24.9985C49.0265 25.3423 48.8333 25.8086 48.8333 26.2948V35.5H41.5C40.0413 35.5 38.6424 36.0795 37.6109 37.1109C36.5795 38.1424 36 39.5413 36 41V48.3333H17.6667C16.208 48.3333 14.809 47.7539 13.7776 46.7224C12.7461 45.691 12.1667 44.292 12.1667 42.8333V17.1667C12.1667 15.708 12.7461 14.309 13.7776 13.2776C14.809 12.2461 16.208 11.6667 17.6667 11.6667H34.2437C34.7299 11.6667 35.1962 11.4735 35.54 11.1297C35.8838 10.7859 36.077 10.3196 36.077 9.83333C36.077 9.3471 35.8838 8.88079 35.54 8.53697C35.1962 8.19315 34.7299 8 34.2437 8H17.6667C15.2364 8.00291 12.9065 8.96962 11.1881 10.6881C9.46962 12.4065 8.50291 14.7364 8.5 17.1667L8.5 42.8333C8.50291 45.2636 9.46962 47.5935 11.1881 49.3119C12.9065 51.0304 15.2364 51.9971 17.6667 52H38.4622C39.6665 52.0034 40.8596 51.768 41.9723 51.3073C43.0851 50.8466 44.0954 50.1698 44.9448 49.316L49.8142 44.443C50.668 43.5939 51.3451 42.584 51.8061 41.4715C52.2671 40.3591 52.503 39.1663 52.5 37.9622V26.2948C52.5 25.8086 52.3069 25.3423 51.963 24.9985C51.6192 24.6547 51.1529 24.4615 50.6667 24.4615ZM42.3525 46.7237C41.6155 47.4588 40.6836 47.9678 39.6667 48.1903V41C39.6667 40.5138 39.8598 40.0475 40.2036 39.7036C40.5475 39.3598 41.0138 39.1667 41.5 39.1667H48.6958C48.469 40.1814 47.9607 41.1117 47.2292 41.8507L42.3525 46.7237Z"
            fill="#D8EDDD" />
    </g>
    <defs>
        <clipPath id="clip0_1307_38242">
            <rect width="44" height="44" fill="white" transform="translate(8.5 8)" />
        </clipPath>
    </defs>
</svg>
    