<svg width="60" height="60" viewBox="0 0 60 60" fill="none" xmlns="http://www.w3.org/2000/svg">
    <g filter="url(#filter0_b_775_45976)">
        <path
            d="M29.935 56.8582C44.7326 56.8582 56.7284 44.8624 56.7284 30.0649C56.7284 15.2673 44.7326 3.27148 29.935 3.27148C15.1374 3.27148 3.1416 15.2673 3.1416 30.0649C3.1416 44.8624 15.1374 56.8582 29.935 56.8582Z"
            fill="white" fill-opacity="0.1" />
    </g>
    <path opacity="0.4"
        d="M30.1449 56.3092C15.3474 56.3092 3.35166 44.3133 3.35166 29.516C3.35166 26.3223 3.91277 23.2606 4.93783 20.4204C3.7819 23.4139 3.1416 26.6637 3.1416 30.0648C3.1416 44.8624 15.1373 56.8583 29.9351 56.8583C41.539 56.8583 51.4176 49.4803 55.1422 39.1604C51.2694 49.1908 41.5414 56.3092 30.1449 56.3092Z"
        fill="#BFE6FF" />
    <g clip-path="url(#clip0_775_45976)">
        <path
            d="M42.9098 45.303H22.0438C21.2085 45.303 20.5312 44.6257 20.5312 43.7904V13.5775C20.5312 12.7422 21.2085 12.0649 22.0438 12.0649H42.9098C43.7452 12.0649 44.4224 12.7422 44.4224 13.5775V43.7904C44.4223 44.6257 43.7452 45.303 42.9098 45.303Z"
            fill="#00B26B" />
        <path
            d="M41.53 15.4062V36.455C41.53 39.673 40.4604 42.7803 38.519 45.3031H42.9101C43.7454 45.3031 44.4226 44.6259 44.4226 43.7906V18.2989L41.53 15.4062Z"
            fill="url(#paint0_linear_775_45976)" />
        <path
            d="M38.2511 46.7146H17.3851C16.5498 46.7146 15.8726 46.0374 15.8726 45.202V14.9891C15.8726 14.1538 16.5498 13.4766 17.3851 13.4766H38.2511C39.0865 13.4766 39.7637 14.1538 39.7637 14.9891V45.202C39.7636 46.0374 39.0865 46.7146 38.2511 46.7146Z"
            fill="#D8EDDD" />
        <path
            d="M35.9003 48.0652H19.4284C18.6147 48.0652 17.9551 47.4055 17.9551 46.5919V16.3005C17.9551 15.4868 18.6147 14.8271 19.4284 14.8271H40.3729C41.1866 14.8271 41.8462 15.4868 41.8462 16.3005V42.1193C41.8462 45.4032 39.1841 48.0652 35.9003 48.0652Z"
            fill="white" />
        <path opacity="0.5"
            d="M17.9551 37.2686V46.5921C17.9551 47.4057 18.6147 48.0654 19.4284 48.0654H35.9003C39.1841 48.0654 41.8462 45.4034 41.8462 42.1195V37.2686L17.9551 37.2686Z"
            fill="url(#paint1_linear_775_45976)" fill-opacity="0.1" />
        <path opacity="0.5"
            d="M35.9004 48.0651V43.5925C35.9004 42.7788 36.56 42.1191 37.3737 42.1191H41.8463C41.8463 45.403 39.1842 48.0651 35.9004 48.0651Z"
            fill="black" fill-opacity="0.2" />
        <path
            d="M26.358 37.4019H32.3455C32.6378 37.4019 32.8749 37.6389 32.8749 37.9313C32.8749 38.2236 32.6378 38.4607 32.3455 38.4607H26.358C26.0656 38.4607 25.8286 38.2236 25.8286 37.9313C25.8286 37.6389 26.0656 37.4019 26.358 37.4019Z"
            fill="#00B26B" />
        <path
            d="M26.358 35.0962H30.4749C30.7673 35.0962 31.0043 35.3332 31.0043 35.6256C31.0043 35.918 30.7673 36.155 30.4749 36.155H26.358C26.0656 36.155 25.8286 35.918 25.8286 35.6256C25.8286 35.3332 26.0656 35.0962 26.358 35.0962Z"
            fill="#00B26B" />
        <path
            d="M38.7463 38.4607H34.4757C34.1833 38.4607 33.9463 38.2236 33.9463 37.9313C33.9463 37.6389 34.1833 37.4019 34.4757 37.4019H38.7463C39.0387 37.4019 39.2757 37.6389 39.2757 37.9313C39.2757 38.2236 39.0387 38.4607 38.7463 38.4607Z"
            fill="#00B26B" />
        <path
            d="M36.8757 35.0962C37.1681 35.0962 37.4051 35.3332 37.4051 35.6256C37.4051 35.918 37.1681 36.155 36.8757 36.155H34.4757C34.1833 36.155 33.9463 35.918 33.9463 35.6256C33.9463 35.3332 34.1833 35.0962 34.4757 35.0962H36.8757Z"
            fill="#00B26B" />
        <path
            d="M32.0402 36.155C31.7478 36.155 31.5107 35.918 31.5107 35.6256C31.5107 35.3332 31.7478 35.0962 32.0402 35.0962H32.6402C32.9325 35.0962 33.1696 35.3332 33.1696 35.6256C33.1696 35.918 32.9325 36.155 32.6402 36.155H32.0402Z"
            fill="#00B26B" />
        <path
            d="M38.7463 33.5193H32.7589C32.4665 33.5193 32.2295 33.2822 32.2295 32.9899C32.2295 32.6975 32.4665 32.4604 32.7589 32.4604H38.7463C39.0387 32.4604 39.2758 32.6975 39.2758 32.9899C39.2758 33.2822 39.0387 33.5193 38.7463 33.5193Z"
            fill="#00B26B" />
        <path
            d="M36.8758 31.2136H32.7589C32.4665 31.2136 32.2295 30.9766 32.2295 30.6842C32.2295 30.3918 32.4665 30.1548 32.7589 30.1548H36.8758C37.1681 30.1548 37.4052 30.3918 37.4052 30.6842C37.4052 30.9766 37.1681 31.2136 36.8758 31.2136Z"
            fill="#00B26B" />
        <path
            d="M26.358 32.4604H30.6286C30.921 32.4604 31.158 32.6975 31.158 32.9899C31.158 33.2822 30.921 33.5193 30.6286 33.5193H26.358C26.0656 33.5193 25.8286 33.2822 25.8286 32.9899C25.8286 32.6975 26.0656 32.4604 26.358 32.4604Z"
            fill="#00B26B" />
        <path
            d="M26.358 30.1548H28.758C29.0504 30.1548 29.2874 30.3918 29.2874 30.6842C29.2874 30.9766 29.0504 31.2136 28.758 31.2136H26.358C26.0656 31.2136 25.8286 30.9766 25.8286 30.6842C25.8286 30.3917 26.0656 30.1548 26.358 30.1548Z"
            fill="#00B26B" />
        <path
            d="M30.5934 31.2136C30.301 31.2136 30.064 30.9766 30.064 30.6842C30.064 30.3918 30.301 30.1548 30.5934 30.1548H31.1934C31.4858 30.1548 31.7228 30.3918 31.7228 30.6842C31.7228 30.9766 31.4858 31.2136 31.1934 31.2136H30.5934Z"
            fill="#00B26B" />
        <path
            d="M30.4749 28.7195H26.358C26.0656 28.7195 25.8286 28.4825 25.8286 28.1901C25.8286 27.8977 26.0656 27.6606 26.358 27.6606H30.4749C30.7673 27.6606 31.0043 27.8977 31.0043 28.1901C31.0043 28.4825 30.7673 28.7195 30.4749 28.7195Z"
            fill="#00B26B" />
        <path
            d="M36.8757 28.7195H34.4757C34.1833 28.7195 33.9463 28.4825 33.9463 28.1901C33.9463 27.8977 34.1833 27.6606 34.4757 27.6606H36.8757C37.1681 27.6606 37.4051 27.8977 37.4051 28.1901C37.4051 28.4825 37.1681 28.7195 36.8757 28.7195Z"
            fill="#00B26B" />
        <path
            d="M32.6402 28.7195H32.0402C31.7478 28.7195 31.5107 28.4825 31.5107 28.1901C31.5107 27.8977 31.7478 27.6606 32.0402 27.6606H32.6402C32.9325 27.6606 33.1696 27.8977 33.1696 28.1901C33.1696 28.4825 32.9325 28.7195 32.6402 28.7195Z"
            fill="#00B26B" />
        <path
            d="M26.358 40.0488H29.3752C29.6676 40.0488 29.9047 40.2859 29.9047 40.5782C29.9047 40.8706 29.6676 41.1077 29.3752 41.1077H26.358C26.0656 41.1077 25.8286 40.8706 25.8286 40.5782C25.8286 40.2859 26.0656 40.0488 26.358 40.0488Z"
            fill="#00B26B" />
        <path
            d="M31.6705 40.0488H38.7466C39.0389 40.0488 39.276 40.2859 39.276 40.5782C39.276 40.8706 39.0389 41.1077 38.7466 41.1077H31.6705C31.3781 41.1077 31.1411 40.8706 31.1411 40.5782C31.1411 40.2859 31.3781 40.0488 31.6705 40.0488Z"
            fill="#00B26B" />
        <path
            d="M23.4933 31.6936H21.5997C21.0073 31.6936 20.5254 31.2116 20.5254 30.6193V28.7257C20.5254 28.1333 21.0074 27.6514 21.5997 27.6514H23.4933C24.0857 27.6514 24.5676 28.1333 24.5676 28.7257V30.6193C24.5676 31.2116 24.0857 31.6936 23.4933 31.6936ZM21.5997 28.7101C21.5911 28.7101 21.5842 28.7171 21.5842 28.7257V30.6192C21.5842 30.6278 21.5912 30.6347 21.5997 30.6347H23.4933C23.5019 30.6347 23.5088 30.6277 23.5088 30.6192V28.7257C23.5088 28.717 23.5018 28.7101 23.4933 28.7101H21.5997Z"
            fill="#D8EDDD" />
        <path
            d="M23.4933 36.405H21.5997C21.0073 36.405 20.5254 35.9231 20.5254 35.3307V33.4371C20.5254 32.8448 21.0074 32.3628 21.5997 32.3628H23.4933C24.0857 32.3628 24.5676 32.8448 24.5676 33.4371V35.3307C24.5676 35.9231 24.0857 36.405 23.4933 36.405ZM21.5997 33.4215C21.5911 33.4215 21.5842 33.4285 21.5842 33.4371V35.3306C21.5842 35.3392 21.5912 35.3461 21.5997 35.3461H23.4933C23.5019 35.3461 23.5088 35.3391 23.5088 35.3306V33.4371C23.5088 33.4285 23.5018 33.4215 23.4933 33.4215H21.5997Z"
            fill="#D8EDDD" />
        <path
            d="M23.4933 41.1165H21.5997C21.0073 41.1165 20.5254 40.6345 20.5254 40.0421V38.1486C20.5254 37.5561 21.0074 37.0742 21.5997 37.0742H23.4933C24.0857 37.0742 24.5676 37.5562 24.5676 38.1486V40.0421C24.5676 40.6345 24.0857 41.1165 23.4933 41.1165ZM21.5997 38.133C21.5911 38.133 21.5842 38.14 21.5842 38.1486V40.0421C21.5842 40.0507 21.5912 40.0576 21.5997 40.0576H23.4933C23.5019 40.0576 23.5088 40.0506 23.5088 40.0421V38.1486C23.5088 38.14 23.5018 38.133 23.4933 38.133H21.5997Z"
            fill="#D8EDDD" />
        <path
            d="M24.7887 26.4013C23.4711 26.4014 22.3431 25.9604 21.5995 25.1514C20.9545 24.4496 20.6572 23.5415 20.7625 22.5945C20.8772 21.5624 21.4613 20.6845 22.4519 20.0555C23.238 19.5565 24.2665 19.228 25.3482 19.1308C25.6391 19.1049 25.8967 19.3194 25.9228 19.6107C25.949 19.9019 25.7341 20.1592 25.443 20.1853C24.5264 20.2677 23.6657 20.539 23.0195 20.9494C22.2992 21.4066 21.8939 21.9995 21.8149 22.7114C21.744 23.3497 21.9444 23.9617 22.3791 24.4349C22.9421 25.0474 23.8447 25.3693 24.9186 25.3407C27.6819 25.268 30.0719 23.286 30.4886 21.5528C30.6884 20.7219 30.5218 19.9675 30.0068 19.3712C29.1875 18.4223 27.5787 17.9566 25.7034 18.125C25.4123 18.1516 25.1549 17.9363 25.1287 17.6451C25.1025 17.354 25.3174 17.0966 25.6086 17.0705C27.8557 16.8682 29.751 17.4548 30.8082 18.6792C31.5447 19.5322 31.7968 20.6407 31.518 21.8003C30.9375 24.2146 27.9282 26.3206 24.9465 26.3992C24.8936 26.4006 24.8411 26.4013 24.7887 26.4013Z"
            fill="#FF6047" />
        <path
            d="M21.7473 30.7117C21.6076 30.7117 21.4726 30.6566 21.373 30.5569L20.4789 29.6629C20.272 29.4561 20.272 29.121 20.4788 28.9142C20.6856 28.7075 21.0208 28.7074 21.2274 28.9142L21.702 29.3887C22.2366 28.7629 23.3038 27.67 24.7962 26.89C25.0554 26.7545 25.3752 26.8547 25.5106 27.1139C25.6461 27.373 25.5458 27.6929 25.2867 27.8283C23.3627 28.834 22.1916 30.4712 22.18 30.4876C22.09 30.6151 21.948 30.6966 21.7925 30.7099C21.7775 30.711 21.7624 30.7117 21.7473 30.7117Z"
            fill="#FF6047" />
        <path
            d="M23.2297 35.4413C23.09 35.4413 22.955 35.3862 22.8554 35.2865L21.9613 34.3924C21.7545 34.1856 21.7545 33.8504 21.9612 33.6437C22.168 33.4369 22.5033 33.4369 22.7099 33.6437L23.1844 34.1182C23.719 33.4924 24.7862 32.3995 26.2786 31.6194C26.5378 31.484 26.8576 31.5842 26.993 31.8433C27.1285 32.1025 27.0282 32.4224 26.7691 32.5578C24.8451 33.5634 23.674 35.2007 23.6625 35.2171C23.5724 35.3446 23.4304 35.4261 23.2749 35.4394C23.2599 35.4406 23.2448 35.4413 23.2297 35.4413Z"
            fill="#FF6047" />
        <path
            d="M21.783 40.4882C21.6432 40.4882 21.5082 40.433 21.4086 40.3334L20.5145 39.4392C20.3077 39.2325 20.3077 38.8973 20.5144 38.6906C20.7213 38.4838 21.0565 38.4837 21.2631 38.6906L21.7377 39.1651C22.2722 38.5393 23.3394 37.4464 24.8318 36.6663C25.091 36.5309 25.4109 36.6311 25.5462 36.8902C25.6817 37.1493 25.5815 37.4693 25.3223 37.6046C23.3983 38.6103 22.2273 40.2475 22.2157 40.264C22.1256 40.3915 21.9837 40.473 21.8281 40.4863C21.8131 40.4875 21.798 40.4882 21.783 40.4882Z"
            fill="#FF6047" />
        <path
            d="M23.8721 24.5463C23.8721 24.5194 23.881 24.4836 23.8899 24.4478L25.5557 18.9847C25.6543 18.6712 26.0573 18.519 26.4692 18.519C26.8812 18.519 27.2842 18.6713 27.3827 18.9847L29.0575 24.4478C29.0664 24.4835 29.0753 24.5194 29.0753 24.5463C29.0753 24.8776 28.5649 25.1195 28.1798 25.1195C27.9559 25.1195 27.7768 25.0478 27.723 24.8598L27.4186 23.7403H25.5288L25.2243 24.8598C25.1706 25.0478 24.9915 25.1195 24.7676 25.1195C24.3825 25.1195 23.8721 24.8777 23.8721 24.5463ZM27.123 22.6656L26.4692 20.2655L25.8154 22.6656H27.123Z"
            fill="#FF6047" />
    </g>
    <path
        d="M29.9351 57.0002C44.811 57.0002 56.8703 44.9409 56.8703 30.065C56.8703 15.1892 44.811 3.12988 29.9351 3.12988C15.0593 3.12988 3 15.1892 3 30.065C3 44.9409 15.0593 57.0002 29.9351 57.0002Z"
        fill="white" fill-opacity="0.1" />
    <path
        d="M25.9287 8.96667C40.8205 8.96667 52.893 21.0576 52.893 35.9726C52.893 40.3511 51.846 44.4824 49.9994 48.1399C54.2704 43.3618 56.8705 37.0539 56.8705 30.1359C56.8705 15.2211 44.7982 3.12988 29.9061 3.12988C19.3861 3.12988 10.2795 9.16805 5.83545 17.9688C10.7728 12.4454 17.9438 8.96667 25.9287 8.96667Z"
        fill="white" fill-opacity="0.1" />
    <g style="mix-blend-mode:plus-lighter">
        <path
            d="M36.7928 43.788C21.8748 43.788 9.78167 31.7194 9.78167 16.8318C9.78167 15.0537 9.959 13.3176 10.288 11.6357C5.77032 16.4542 3 22.9247 3 30.044C3 44.9315 15.0935 57.0002 30.0114 57.0002C43.1473 57.0002 54.0887 47.6406 56.5159 35.24C51.5868 40.4977 44.5768 43.788 36.7928 43.788Z"
            fill="url(#paint2_radial_775_45976)" fill-opacity="0.6" />
    </g>
    <path opacity="0.6"
        d="M29.9442 5.85476C27.9087 6.19036 26.8144 8.55426 27.8521 10.3661C31.0777 15.9997 37.0779 19.7872 43.9512 19.7872C44.968 19.7872 45.9652 19.7036 46.9376 19.5433C48.9728 19.2077 50.0671 16.8438 49.0297 15.0319C45.804 9.3984 39.8039 5.61084 32.9304 5.61084C31.9138 5.61084 30.9163 5.69432 29.9442 5.85476Z"
        fill="white" />
    <path opacity="0.1"
        d="M31.8058 54.2715C16.8995 54.2715 4.81566 42.1983 4.81566 27.305C4.81566 22.3671 6.15046 17.743 8.46952 13.7622C5.03856 18.2854 3 23.9208 3 30.0336C3 44.9269 15.0841 57.0002 29.9904 57.0002C39.954 57.0002 48.6506 51.6018 53.3262 43.5767C48.398 50.0731 40.5938 54.2715 31.8058 54.2715Z"
        fill="#BFE6FF" />
    <path
        d="M29.9352 3C29.2152 3 28.5018 3.0288 27.7959 3.08403C41.7433 4.17481 52.7214 15.8375 52.7214 30.0649C52.7214 44.2922 41.7432 55.9551 27.7959 57.0457C28.5018 57.1009 29.2152 57.1297 29.9352 57.1297C44.8827 57.1297 57.0001 45.0124 57.0001 30.0649C57.0001 15.1174 44.8827 3 29.9352 3Z"
        fill="black" fill-opacity="0.05" />
    <defs>
        <filter id="filter0_b_775_45976" x="-56.8584" y="-56.7285" width="173.587" height="173.587"
            filterUnits="userSpaceOnUse" color-interpolation-filters="sRGB">
            <feFlood flood-opacity="0" result="BackgroundImageFix" />
            <feGaussianBlur in="BackgroundImageFix" stdDeviation="30" />
            <feComposite in2="SourceAlpha" operator="in" result="effect1_backgroundBlur_775_45976" />
            <feBlend mode="normal" in="SourceGraphic" in2="effect1_backgroundBlur_775_45976"
                result="shape" />
        </filter>
        <linearGradient id="paint0_linear_775_45976" x1="46.783" y1="30.3547" x2="41.1309"
            y2="30.3547" gradientUnits="userSpaceOnUse">
            <stop stop-color="#7BACDF" stop-opacity="0" />
            <stop offset="1" stop-color="#017297" />
        </linearGradient>
        <linearGradient id="paint1_linear_775_45976" x1="29.9006" y1="37.2686" x2="29.9006"
            y2="48.0654" gradientUnits="userSpaceOnUse">
            <stop stop-color="#666666" stop-opacity="0" />
            <stop offset="1" />
        </linearGradient>
        <radialGradient id="paint2_radial_775_45976" cx="0" cy="0" r="1"
            gradientUnits="userSpaceOnUse"
            gradientTransform="translate(43.35 6.30018) rotate(115.294) scale(54.4169 136.019)">
            <stop offset="0.590503" stop-color="white" stop-opacity="0.1" />
            <stop offset="1" stop-color="white" stop-opacity="0.4" />
        </radialGradient>
        <clipPath id="clip0_775_45976">
            <rect width="36" height="36" fill="white" transform="translate(11.9351 12.0649)" />
        </clipPath>
    </defs>
</svg>
    