<svg width="20" height="21" viewBox="0 0 20 21" fill="none" xmlns="http://www.w3.org/2000/svg">
    <g clip-path="url(#clip0_1940_15712)">
        <path
            d="M19.3923 8.34907C18.0998 6.24407 15.1598 2.7124 9.9998 2.7124C4.8398 2.7124 1.8998 6.24407 0.607299 8.34907C0.207739 8.99532 -0.00390625 9.7401 -0.00390625 10.4999C-0.00390625 11.2597 0.207739 12.0045 0.607299 12.6507C1.8998 14.7557 4.8398 18.2874 9.9998 18.2874C15.1598 18.2874 18.0998 14.7557 19.3923 12.6507C19.7919 12.0045 20.0035 11.2597 20.0035 10.4999C20.0035 9.7401 19.7919 8.99532 19.3923 8.34907V8.34907ZM17.9715 11.7782C16.8615 13.5832 14.349 16.6207 9.9998 16.6207C5.65063 16.6207 3.13813 13.5832 2.02813 11.7782C1.79074 11.3941 1.66501 10.9515 1.66501 10.4999C1.66501 10.0483 1.79074 9.6057 2.02813 9.22157C3.13813 7.41657 5.65063 4.37907 9.9998 4.37907C14.349 4.37907 16.8615 7.41324 17.9715 9.22157C18.2089 9.6057 18.3346 10.0483 18.3346 10.4999C18.3346 10.9515 18.2089 11.3941 17.9715 11.7782V11.7782Z"
            fill="white" />
        <path
            d="M9.99992 6.33325C9.17583 6.33325 8.37025 6.57762 7.68504 7.03546C6.99984 7.4933 6.46579 8.14405 6.15042 8.9054C5.83506 9.66676 5.75254 10.5045 5.91332 11.3128C6.07409 12.121 6.47092 12.8635 7.05364 13.4462C7.63636 14.0289 8.37879 14.4258 9.18704 14.5865C9.9953 14.7473 10.8331 14.6648 11.5944 14.3494C12.3558 14.0341 13.0065 13.5 13.4644 12.8148C13.9222 12.1296 14.1666 11.324 14.1666 10.4999C14.1653 9.39526 13.7259 8.33622 12.9447 7.5551C12.1636 6.77399 11.1046 6.33458 9.99992 6.33325V6.33325ZM9.99992 12.9999C9.50547 12.9999 9.02212 12.8533 8.61099 12.5786C8.19987 12.3039 7.87944 11.9134 7.69022 11.4566C7.501 10.9998 7.45149 10.4971 7.54796 10.0122C7.64442 9.52724 7.88252 9.08178 8.23215 8.73215C8.58178 8.38252 9.02724 8.14442 9.51219 8.04796C9.99715 7.95149 10.4998 8.001 10.9566 8.19022C11.4134 8.37944 11.8039 8.69987 12.0786 9.11099C12.3533 9.52212 12.4999 10.0055 12.4999 10.4999C12.4999 11.163 12.2365 11.7988 11.7677 12.2677C11.2988 12.7365 10.663 12.9999 9.99992 12.9999Z"
            fill="white" />
    </g>
    <defs>
        <clipPath id="clip0_1940_15712">
            <rect width="20" height="20" fill="white" transform="translate(0 0.5)" />
        </clipPath>
    </defs>
</svg>
    