<svg width="40" height="40" viewBox="0 0 40 40" fill="none" xmlns="http://www.w3.org/2000/svg">
    <path d="M7 22.4465V34.4453H32.9974V15.9471L19.9987 4.94824L7 15.4472V22.4465Z" fill="white"/>
    <path opacity="0.1" d="M19.9997 4.94824L18.4648 6.18812L29.9987 15.9471V34.4453H32.9984V15.9471L19.9997 4.94824Z" fill="black"/>
    <path d="M16.9998 20.9473H22.9992C23.5296 20.9473 24.0382 21.158 24.4133 21.533C24.7883 21.908 24.999 22.4167 24.999 22.9471V34.9459H15V22.9471C15 22.4167 15.2107 21.908 15.5857 21.533C15.9608 21.158 16.4694 20.9473 16.9998 20.9473Z" fill="#FF9800"/>
    <path d="M22.9997 20.9473H20C20.5304 20.9473 21.039 21.158 21.4141 21.533C21.7891 21.908 21.9998 22.4167 21.9998 22.9471V34.9459H24.9995V22.9471C24.9995 22.4167 24.7888 21.908 24.4138 21.533C24.0387 21.158 23.5301 20.9473 22.9997 20.9473Z" fill="#F26722"/>
    <path d="M18.9999 28.9461C19.5521 28.9461 19.9998 28.4984 19.9998 27.9462C19.9998 27.394 19.5521 26.9463 18.9999 26.9463C18.4477 26.9463 18 27.394 18 27.9462C18 28.4984 18.4477 28.9461 18.9999 28.9461Z" fill="white"/>
    <path d="M35.6381 16.1774L30.4986 11.8978V8.44814C30.4986 8.18295 30.3932 7.92863 30.2057 7.74111C30.0182 7.55359 29.7639 7.44825 29.4987 7.44825C29.2335 7.44825 28.9792 7.55359 28.7917 7.74111C28.6041 7.92863 28.4988 8.18295 28.4988 8.44814V10.228L21.9195 4.74852C21.3804 4.29956 20.7011 4.05371 19.9996 4.05371C19.2982 4.05371 18.6188 4.29956 18.0798 4.74852L4.36122 16.1774C4.15702 16.3471 4.02861 16.591 4.00423 16.8554C3.97985 17.1198 4.06151 17.383 4.23123 17.5872C4.40095 17.7914 4.64484 17.9198 4.90924 17.9442C5.17364 17.9686 5.43689 17.8869 5.64109 17.7172L19.3597 6.28336C19.5394 6.13371 19.7658 6.05176 19.9996 6.05176C20.2335 6.05176 20.4599 6.13371 20.6396 6.28336L31.9984 15.7474V32.9457C31.9984 33.2109 31.8931 33.4652 31.7056 33.6527C31.5181 33.8402 31.2637 33.9456 30.9985 33.9456H25.999V22.9467C25.999 22.1511 25.683 21.3881 25.1205 20.8256C24.5579 20.263 23.7949 19.947 22.9993 19.947H16.9999C16.2044 19.947 15.4414 20.263 14.8788 20.8256C14.3163 21.3881 14.0002 22.1511 14.0002 22.9467V33.9456H9.00075C8.73556 33.9456 8.48123 33.8402 8.29371 33.6527C8.1062 33.4652 8.00085 33.2109 8.00085 32.9457V20.9469C8.00085 20.6817 7.8955 20.4274 7.70799 20.2399C7.52047 20.0523 7.26614 19.947 7.00095 19.947C6.73576 19.947 6.48143 20.0523 6.29392 20.2399C6.1064 20.4274 6.00105 20.6817 6.00105 20.9469V32.9457C6.00105 33.7413 6.31709 34.5042 6.87964 35.0668C7.4422 35.6293 8.20518 35.9454 9.00075 35.9454H30.9985C31.7941 35.9454 32.5571 35.6293 33.1196 35.0668C33.6822 34.5042 33.9982 33.7413 33.9982 32.9457V17.4172L34.3582 17.7172C34.5381 17.8663 34.7645 17.9476 34.9981 17.9472C35.204 17.9476 35.405 17.8844 35.5737 17.7663C35.7423 17.6482 35.8704 17.4809 35.9404 17.2873C36.0104 17.0937 36.019 16.8832 35.9648 16.6845C35.9107 16.4858 35.7966 16.3087 35.6381 16.1774ZM16 33.9456V22.9467C16 22.6815 16.1054 22.4272 16.2929 22.2397C16.4804 22.0521 16.7348 21.9468 16.9999 21.9468H22.9993C23.2645 21.9468 23.5189 22.0521 23.7064 22.2397C23.8939 22.4272 23.9992 22.6815 23.9992 22.9467V33.9456H16Z" fill="black"/>
    </svg>
    