<svg width="60" height="60" viewBox="0 0 60 60" fill="none" xmlns="http://www.w3.org/2000/svg">
    <g clip-path="url(#clip0_1307_1444)">
        <path
            d="M42.8333 8H17.1667C14.7364 8.00291 12.4065 8.96962 10.6881 10.6881C8.96962 12.4065 8.00291 14.7364 8 17.1667L8 42.8333C8.00291 45.2636 8.96962 47.5935 10.6881 49.3119C12.4065 51.0304 14.7364 51.9971 17.1667 52H42.8333C45.2636 51.9971 47.5935 51.0304 49.3119 49.3119C51.0304 47.5935 51.9971 45.2636 52 42.8333V17.1667C51.9971 14.7364 51.0304 12.4065 49.3119 10.6881C47.5935 8.96962 45.2636 8.00291 42.8333 8V8ZM17.1667 11.6667H42.8333C44.292 11.6667 45.691 12.2461 46.7224 13.2776C47.7539 14.309 48.3333 15.708 48.3333 17.1667V42.8333C48.3302 43.6501 48.1421 44.4555 47.7833 45.1892L30.9845 28.3903C30.1333 27.5389 29.1226 26.8634 28.0103 26.4026C26.898 25.9418 25.7058 25.7046 24.5018 25.7046C23.2978 25.7046 22.1057 25.9418 20.9933 26.4026C19.881 26.8634 18.8704 27.5389 18.0192 28.3903L11.6667 34.741V17.1667C11.6667 15.708 12.2461 14.309 13.2776 13.2776C14.309 12.2461 15.708 11.6667 17.1667 11.6667ZM17.1667 48.3333C15.708 48.3333 14.309 47.7539 13.2776 46.7224C12.2461 45.691 11.6667 44.292 11.6667 42.8333V39.9257L20.6097 30.9827C21.1204 30.4716 21.7269 30.0661 22.3944 29.7895C23.0619 29.5129 23.7774 29.3705 24.5 29.3705C25.2226 29.3705 25.9381 29.5129 26.6056 29.7895C27.2731 30.0661 27.8796 30.4716 28.3903 30.9827L45.1892 47.7833C44.4555 48.1421 43.6501 48.3302 42.8333 48.3333H17.1667Z"
            fill="black" fill-opacity="0.2" />
        <path
            d="M37.3337 27.2494C38.6028 27.2494 39.8434 26.873 40.8986 26.1679C41.9538 25.4629 42.7762 24.4607 43.2619 23.2882C43.7475 22.1157 43.8746 20.8256 43.627 19.5809C43.3794 18.3361 42.7683 17.1928 41.8709 16.2954C40.9735 15.398 39.8302 14.7869 38.5855 14.5393C37.3408 14.2917 36.0506 14.4188 34.8781 14.9045C33.7056 15.3901 32.7035 16.2126 31.9984 17.2678C31.2933 18.323 30.917 19.5636 30.917 20.8327C30.917 22.5345 31.593 24.1666 32.7964 25.37C33.9997 26.5733 35.6319 27.2494 37.3337 27.2494ZM37.3337 18.0827C37.8776 18.0827 38.4092 18.244 38.8615 18.5461C39.3137 18.8483 39.6662 19.2778 39.8743 19.7803C40.0825 20.2828 40.1369 20.8357 40.0308 21.3692C39.9247 21.9026 39.6628 22.3926 39.2782 22.7772C38.8936 23.1618 38.4036 23.4237 37.8702 23.5298C37.3367 23.636 36.7838 23.5815 36.2813 23.3734C35.7788 23.1652 35.3493 22.8127 35.0471 22.3605C34.7449 21.9083 34.5837 21.3766 34.5837 20.8327C34.5837 20.1033 34.8734 19.4039 35.3891 18.8881C35.9048 18.3724 36.6043 18.0827 37.3337 18.0827Z"
            fill="black" fill-opacity="0.2" />
    </g>
    <defs>
        <clipPath id="clip0_1307_1444">
            <rect width="44" height="44" fill="white" transform="translate(8 8)" />
        </clipPath>
    </defs>
</svg>
    