<svg width="25" height="24" viewBox="0 0 25 24" fill="none" xmlns="http://www.w3.org/2000/svg">
    <g clip-path="url(#clip0_2808_13240)">
    <path d="M20 0H5C3.80693 0.00132343 2.66311 0.475854 1.81948 1.31948C0.975854 2.16311 0.501323 3.30693 0.5 4.5L0.5 19.5C0.501323 20.6931 0.975854 21.8369 1.81948 22.6805C2.66311 23.5241 3.80693 23.9987 5 24H20C21.1931 23.9987 22.3369 23.5241 23.1805 22.6805C24.0241 21.8369 24.4987 20.6931 24.5 19.5V4.5C24.4987 3.30693 24.0241 2.16311 23.1805 1.31948C22.3369 0.475854 21.1931 0.00132343 20 0V0ZM5 3H20C20.3978 3 20.7794 3.15804 21.0607 3.43934C21.342 3.72064 21.5 4.10218 21.5 4.5V19.5C21.5003 19.697 21.4615 19.8921 21.386 20.074C21.3105 20.2559 21.1997 20.4211 21.06 20.56L12.328 11.828C11.5779 11.0781 10.5607 10.6569 9.5 10.6569C8.43934 10.6569 7.42211 11.0781 6.672 11.828L3.5 15V4.5C3.5 4.10218 3.65804 3.72064 3.93934 3.43934C4.22064 3.15804 4.60218 3 5 3Z" fill="#00B26B"/>
    <path d="M16 10C17.3807 10 18.5 8.88071 18.5 7.5C18.5 6.11929 17.3807 5 16 5C14.6193 5 13.5 6.11929 13.5 7.5C13.5 8.88071 14.6193 10 16 10Z" fill="#00B26B"/>
    </g>
    <defs>
    <clipPath id="clip0_2808_13240">
    <rect width="24" height="24" fill="white" transform="translate(0.5)"/>
    </clipPath>
    </defs>
    </svg>
    