<svg width="41" height="40" viewBox="0 0 41 40" fill="none" xmlns="http://www.w3.org/2000/svg">
    <g clip-path="url(#clip0_1717_30793)">
        <path
            d="M37.5124 8.3818C36.0187 5.89219 33.363 4.23242 30.3755 4.23242H10.4585C7.47094 4.23242 4.81539 5.89219 3.32156 8.3818C1.49586 11.7013 0.5 15.3528 0.5 19.1702C0.5 28.2988 4.15148 35.7677 8.79875 35.7677C11.2884 35.7677 13.2801 33.4441 14.7738 28.6308C14.9398 27.9669 15.6037 27.469 16.4336 27.469H24.5664C25.2303 27.469 25.8942 27.9669 26.2262 28.6308C27.7199 33.4441 29.7116 35.7677 32.2013 35.7677C36.8485 35.7677 40.5 28.2988 40.5 19.1702C40.3341 15.3528 39.3382 11.7013 37.5124 8.3818ZM32.0352 32.4482C31.5373 32.4482 30.3755 31.1204 29.2137 27.6349C28.5498 25.4773 26.558 24.1495 24.4004 24.1495H16.4336C14.2759 24.1495 12.2842 25.6432 11.6203 27.6349C10.4585 31.1204 9.29664 32.4482 8.79875 32.4482C7.13898 32.4482 3.81953 27.303 3.81953 19.1702C3.81953 16.0167 4.64937 12.8632 6.1432 10.0416C7.13906 8.54789 8.79883 7.55203 10.4586 7.55203H30.3756C32.0354 7.55203 33.6952 8.54789 34.691 10.0416C36.1848 12.8632 37.0147 16.0167 37.0147 19.1702C37.0145 27.303 33.695 32.4482 32.0352 32.4482Z"
            fill="#D8EDDD" />
        <path
            d="M15.5002 14.9998H13.8336V13.3331C13.8336 12.3331 13.1669 11.6665 12.1669 11.6665C11.1669 11.6665 10.5003 12.3331 10.5003 13.3331V14.9998H8.83364C7.83363 14.9998 7.16699 15.6664 7.16699 16.6664C7.16699 17.6664 7.83363 18.333 8.83364 18.333H10.5002V19.9998C10.5002 20.9998 11.1668 21.6664 12.1668 21.6664C13.1668 21.6664 13.8335 20.9998 13.8335 19.9998V18.3331H15.5002C16.5002 18.3331 17.1668 17.6665 17.1668 16.6665C17.1668 15.6664 16.5002 14.9998 15.5002 14.9998Z"
            fill="#D8EDDD" />
        <path
            d="M31.3335 16.6665C32.7142 16.6665 33.8335 15.5472 33.8335 14.1665C33.8335 12.7858 32.7142 11.6665 31.3335 11.6665C29.9528 11.6665 28.8335 12.7858 28.8335 14.1665C28.8335 15.5472 29.9528 16.6665 31.3335 16.6665Z"
            fill="#D8EDDD" />
        <path
            d="M26.3335 21.6665C27.7142 21.6665 28.8335 20.5472 28.8335 19.1665C28.8335 17.7858 27.7142 16.6665 26.3335 16.6665C24.9528 16.6665 23.8335 17.7858 23.8335 19.1665C23.8335 20.5472 24.9528 21.6665 26.3335 21.6665Z"
            fill="#D8EDDD" />
    </g>
    <defs>
        <clipPath id="clip0_1717_30793">
            <rect width="40" height="40" fill="white" transform="translate(0.5)" />
        </clipPath>
    </defs>
</svg>
    