<svg width="200" height="200" viewBox="0 0 200 200" fill="none" xmlns="http://www.w3.org/2000/svg">
    <g filter="url(#filter0_b_1940_4328)">
        <path
            d="M99.7834 189.527C149.109 189.527 189.095 149.541 189.095 100.216C189.095 50.8906 149.109 10.9045 99.7834 10.9045C50.4582 10.9045 10.4722 50.8906 10.4722 100.216C10.4722 149.541 50.4582 189.527 99.7834 189.527Z"
            fill="white" fill-opacity="0.1" />
    </g>
    <path opacity="0.4"
        d="M100.484 187.697C51.1585 187.697 11.1729 147.711 11.1729 98.3863C11.1729 87.7408 13.0432 77.5351 16.4601 68.0677C12.607 78.046 10.4727 88.8789 10.4727 100.216C10.4727 149.541 50.4583 189.527 99.7843 189.527C138.464 189.527 171.393 164.934 183.808 130.534C170.899 163.969 138.472 187.697 100.484 187.697Z"
        fill="#BFE6FF" />
    <path
        d="M63.0062 58.2912C64.599 57.5637 66.1289 56.7788 67.4614 55.8091C72.3049 52.2842 75.6357 45.4106 81.4546 43.5213C87.069 41.6984 93.7779 45.2419 100 45.2419C106.222 45.2419 112.931 41.6984 118.545 43.5213C124.364 45.4106 127.695 52.2842 132.539 55.8091C137.431 59.3693 144.984 60.4374 148.544 65.3294C152.069 70.1729 150.774 77.6689 152.663 83.4878C154.486 89.1022 160 94.3774 160 100.6C160 106.822 154.486 112.097 152.663 117.711C150.774 123.53 152.069 131.026 148.544 135.87C144.984 140.762 137.43 141.83 132.539 145.39C127.695 148.915 124.364 155.788 118.545 157.678C112.931 159.501 106.222 155.957 100 155.957C93.7779 155.957 87.069 159.501 81.4546 157.678C75.6357 155.788 72.3049 148.915 67.4614 145.39C62.5694 141.83 55.0164 140.762 51.4563 135.87C47.9313 131.026 49.2265 123.53 47.3371 117.711C45.514 112.097 40 106.822 40 100.6C40 94.3774 45.514 89.1022 47.3369 83.4878C49.2262 77.6689 47.9313 70.1729 51.4563 65.3294C52.5795 63.7861 54.1001 62.6235 55.8091 61.643"
        fill="#00B26B" />
    <path
        d="M148.639 100.6C148.639 105.643 144.169 109.92 142.691 114.471C141.159 119.188 142.21 125.265 139.352 129.191C136.466 133.157 130.343 134.023 126.378 136.909C122.451 139.767 119.751 145.339 115.034 146.87C110.483 148.348 105.044 145.476 100 145.476C94.9563 145.476 89.5177 148.348 84.9664 146.87C80.2492 145.339 77.5493 139.767 73.6229 136.909C69.6573 134.023 63.5344 133.157 60.6482 129.191C57.7906 125.265 58.8404 119.188 57.3089 114.471C55.831 109.92 51.3613 105.644 51.3613 100.6C51.3613 95.5559 55.8313 91.2794 57.3089 86.7281C58.8404 82.0109 57.7906 75.9343 60.6482 72.0082C63.5342 68.0426 69.6571 67.1768 73.6229 64.2905C77.5493 61.4329 80.2492 55.861 84.9664 54.3293C89.5177 52.8514 94.9563 55.7239 100 55.7239C105.044 55.7239 110.483 52.8514 115.034 54.329C119.751 55.8605 122.451 61.4327 126.378 64.2902C130.343 67.1763 136.466 68.0421 139.352 72.0079C142.21 75.9343 141.16 82.0109 142.691 86.7278C144.169 91.2791 148.639 95.5557 148.639 100.6Z"
        fill="white" />
    <path
        d="M152.663 83.4878C150.774 77.6689 152.069 70.1728 148.544 65.3294C144.984 60.4374 137.43 59.3692 132.539 55.8091C127.695 52.2841 124.364 45.4106 118.545 43.5212C116.168 42.7496 113.595 42.9406 110.946 43.4167C111.065 43.4503 111.184 43.4829 111.302 43.5212C117.121 45.4106 120.452 52.2841 125.295 55.8091C130.187 59.3692 137.74 60.4374 141.3 65.3294C144.825 70.1728 143.53 77.6689 145.42 83.4878C147.243 89.1019 152.757 94.3773 152.757 100.599C152.757 106.822 147.243 112.097 145.42 117.711C143.53 123.53 144.825 131.026 141.3 135.87C137.74 140.762 130.187 141.83 125.295 145.39C120.452 148.915 117.121 155.788 111.302 157.678C111.184 157.716 111.065 157.749 110.945 157.782C113.595 158.258 116.168 158.45 118.545 157.678C124.364 155.788 127.695 148.915 132.539 145.39C137.431 141.83 144.984 140.762 148.544 135.87C152.069 131.026 150.774 123.53 152.663 117.711C154.486 112.097 160 106.822 160 100.599C160 94.3773 154.486 89.1019 152.663 83.4878Z"
        fill="#006638" />
    <path
        d="M142.691 86.7278C141.16 82.0107 142.21 75.9341 139.352 72.0079C136.466 68.0424 130.343 67.1763 126.377 64.2905C122.451 61.433 119.751 55.8608 115.034 54.3293C112.851 53.6204 110.464 53.913 108.014 54.4087C112.593 56.0414 115.27 61.4786 119.134 64.2905C123.099 67.1765 129.223 68.0424 132.109 72.0079C134.966 75.9344 133.916 82.0109 135.448 86.7278C136.926 91.2792 141.395 95.5555 141.395 100.6C141.395 105.643 136.925 109.92 135.448 114.471C133.916 119.188 134.966 125.265 132.109 129.191C129.223 133.157 123.1 134.023 119.134 136.909C115.271 139.721 112.593 145.158 108.014 146.79C110.464 147.286 112.851 147.579 115.034 146.87C119.751 145.338 122.451 139.766 126.378 136.909C130.343 134.023 136.466 133.157 139.352 129.191C142.21 125.265 141.16 119.188 142.691 114.471C144.169 109.92 148.639 105.644 148.639 100.6C148.639 95.5555 144.169 91.2792 142.691 86.7278Z"
        fill="black" fill-opacity="0.1" />
    <path
        d="M86.0383 121.814L76.1001 109.857C74.6003 108.052 74.8475 105.373 76.6521 103.873L79.4382 101.558C81.2429 100.058 83.9217 100.305 85.4217 102.11L90.4286 108.134C91.6249 109.573 93.8094 109.648 95.1005 108.292L120.697 83.3183C122.315 81.6191 125.005 81.554 126.704 83.1726L129.327 85.6715C131.026 87.29 131.091 89.9795 129.473 91.6785L98.5552 122.238C95.0962 125.869 89.2437 125.671 86.0383 121.814Z"
        fill="#00B26B" />
    <path
        d="M129.327 85.6715L126.704 83.1726C125.005 81.554 122.315 81.6194 120.697 83.3183L119.784 84.2088L121.32 85.6715C123.019 87.2901 123.084 89.9795 121.465 91.6785L90.5476 122.238C89.9259 122.891 89.2263 123.417 88.4795 123.824C91.6985 125.573 95.8555 125.072 98.5551 122.238L129.473 91.6785C131.091 89.9793 131.026 87.2898 129.327 85.6715Z"
        fill="#006638" />
    <path
        d="M99.7838 190C149.37 190 189.568 149.802 189.568 100.216C189.568 50.63 149.37 10.4324 99.7838 10.4324C50.1976 10.4324 10 50.63 10 100.216C10 149.802 50.1976 190 99.7838 190Z"
        fill="white" fill-opacity="0.1" />
    <path
        d="M86.4284 29.8883C136.068 29.8883 176.31 70.1914 176.31 119.908C176.31 134.503 172.82 148.274 166.664 160.466C180.901 144.539 189.568 123.513 189.568 100.452C189.568 50.7363 149.327 10.4324 99.6865 10.4324C64.6196 10.4324 34.2643 30.5596 19.4509 59.8955C35.9087 41.484 59.8121 29.8883 86.4284 29.8883Z"
        fill="white" fill-opacity="0.1" />
    <g style="mix-blend-mode:plus-lighter">
        <path
            d="M122.643 145.959C72.9159 145.959 32.6056 105.731 32.6056 56.1053C32.6056 50.1784 33.1967 44.3912 34.2934 38.7852C19.2344 54.8467 10 76.415 10 100.146C10 149.771 50.3116 190 100.038 190C143.824 190 180.296 158.801 188.386 117.466C171.956 134.992 148.589 145.959 122.643 145.959Z"
            fill="url(#paint0_radial_1940_4328)" fill-opacity="0.6" />
    </g>
    <path opacity="0.6"
        d="M99.8144 19.515C93.0295 20.6336 89.3819 28.5133 92.8408 34.5529C103.593 53.3313 123.593 65.9565 146.505 65.9565C149.894 65.9565 153.218 65.6779 156.459 65.1435C163.243 64.0248 166.891 56.1451 163.433 50.1056C152.681 31.3271 132.68 18.7019 109.768 18.7019C106.38 18.7019 103.055 18.9802 99.8144 19.515Z"
        fill="white" />
    <path opacity="0.1"
        d="M106.019 180.904C56.3317 180.904 16.0522 140.66 16.0522 91.0158C16.0522 74.5563 20.5015 59.1427 28.2317 45.8733C16.7952 60.9505 10 79.7351 10 100.111C10 149.756 50.2803 190 99.968 190C133.18 190 162.169 172.005 177.754 145.255C161.327 166.91 135.313 180.904 106.019 180.904Z"
        fill="#BFE6FF" />
    <path
        d="M99.7837 10C97.3836 10 95.0056 10.096 92.6526 10.2801C139.144 13.916 175.738 52.7918 175.738 100.216C175.738 147.641 139.143 186.517 92.6526 190.152C95.0056 190.336 97.3836 190.432 99.7837 190.432C149.609 190.432 190 150.041 190 100.216C190 50.3912 149.609 10 99.7837 10Z"
        fill="black" fill-opacity="0.05" />
    <defs>
        <filter id="filter0_b_1940_4328" x="-49.5278" y="-49.0955" width="298.623" height="298.623"
            filterUnits="userSpaceOnUse" color-interpolation-filters="sRGB">
            <feFlood flood-opacity="0" result="BackgroundImageFix" />
            <feGaussianBlur in="BackgroundImageFix" stdDeviation="30" />
            <feComposite in2="SourceAlpha" operator="in" result="effect1_backgroundBlur_1940_4328" />
            <feBlend mode="normal" in="SourceGraphic" in2="effect1_backgroundBlur_1940_4328"
                result="shape" />
        </filter>
        <radialGradient id="paint0_radial_1940_4328" cx="0" cy="0" r="1"
            gradientUnits="userSpaceOnUse"
            gradientTransform="translate(144.5 20.9999) rotate(115.294) scale(181.39 453.396)">
            <stop offset="0.590503" stop-color="white" stop-opacity="0.1" />
            <stop offset="1" stop-color="white" stop-opacity="0.4" />
        </radialGradient>
    </defs>
</svg>
    