<svg width="200" height="200" viewBox="0 0 200 200" fill="none" xmlns="http://www.w3.org/2000/svg">
    <path
        d="M154.079 92.562C153.865 91.8987 153.865 91.1841 154.079 90.5212L160.321 71.1037C161.013 68.952 159.408 66.7499 157.147 66.7499H128.913L132.188 49.0216C132.567 46.9728 130.995 45.0833 128.912 45.0833H77.8625V94.6666H106.667V116.333H157.147C159.407 116.333 161.013 114.131 160.321 111.979L154.079 92.562Z"
        fill="#FF8C95" />
    <path d="M123.75 94.6667L106.667 116.333V94.6667H123.75Z" fill="#FE4F60" />
    <path
        d="M153.75 16.3333C157.432 16.3333 160.417 13.3486 160.417 9.66667C160.417 5.98477 157.432 3 153.75 3C150.068 3 147.083 5.98477 147.083 9.66667C147.083 13.3486 150.068 16.3333 153.75 16.3333Z"
        fill="#FF9800" />
    <path
        d="M15 51.7501H12.5V49.2501C12.5 47.4092 11.0075 45.9167 9.16667 45.9167C7.32583 45.9167 5.83333 47.4092 5.83333 49.2501V51.7501H3.33333C1.4925 51.7501 0 53.2426 0 55.0834C0 56.9242 1.4925 58.4167 3.33333 58.4167H5.83333V60.9167C5.83333 62.7576 7.32583 64.2501 9.16667 64.2501C11.0075 64.2501 12.5 62.7576 12.5 60.9167V58.4167H15C16.8408 58.4167 18.3333 56.9242 18.3333 55.0834C18.3333 53.2426 16.8408 51.7501 15 51.7501Z"
        fill="#FFE773" />
    <path
        d="M57.9167 8.83333H55.4167V6.33333C55.4167 4.4925 53.9242 3 52.0834 3C50.2426 3 48.7501 4.4925 48.7501 6.33333V8.83333H46.2501C44.4092 8.83333 42.9167 10.3258 42.9167 12.1667C42.9167 14.0075 44.4092 15.5 46.2501 15.5H48.7501V18C48.7501 19.8408 50.2426 21.3333 52.0834 21.3333C53.9242 21.3333 55.4167 19.8408 55.4167 18V15.5H57.9167C59.7576 15.5 61.2501 14.0075 61.2501 12.1667C61.2501 10.3258 59.7576 8.83333 57.9167 8.83333Z"
        fill="#FFE773" />
    <path
        d="M196.667 111.333H194.167V108.833C194.167 106.992 192.674 105.5 190.833 105.5C188.993 105.5 187.5 106.992 187.5 108.833V111.333H185C183.159 111.333 181.667 112.826 181.667 114.667C181.667 116.508 183.159 118 185 118H187.5V120.5C187.5 122.341 188.993 123.833 190.833 123.833C192.674 123.833 194.167 122.341 194.167 120.5V118H196.667C198.508 118 200 116.508 200 114.667C200 112.826 198.508 111.333 196.667 111.333Z"
        fill="#FFE773" />
    <path
        d="M77.8626 151.333C76.0218 151.333 74.5293 149.841 74.5293 148V42.1666C74.5293 40.3258 76.0218 38.8333 77.8626 38.8333C79.7035 38.8333 81.196 40.3258 81.196 42.1666V148C81.196 149.841 79.7039 151.333 77.8626 151.333Z"
        fill="#B5D5F5" />
    <path
        d="M160.321 111.98C161.013 114.134 159.409 116.333 157.147 116.333H135.421C132.506 116.333 130.993 112.852 132.988 110.726C142.617 100.473 146.893 86.2271 143.526 70.8163C143.071 68.7292 144.64 66.75 146.776 66.75H157.147C159.409 66.75 161.013 68.9496 160.321 71.1038L154.078 90.5212C153.866 91.1837 153.866 91.9 154.078 92.5621L160.321 111.98Z"
        fill="#FF6D7A" />
    <path
        d="M132.188 49.0216L123.75 94.6666H101.553C97.8859 94.6666 95.9596 90.2512 98.5092 87.6158C107.976 77.8287 111.688 63.8808 108.095 50.272C107.403 47.6462 109.418 45.0833 112.134 45.0833H128.912C130.995 45.0833 132.567 46.9758 132.188 49.0216Z"
        fill="#FF6D7A" />
    <path
        d="M153.567 156.092C103.028 126.748 37.6172 143.635 7.62507 194.637C6.31674 196.862 7.9159 199.667 10.4967 199.667H189.503C192.083 199.667 193.683 196.861 192.375 194.636C182.992 178.68 169.594 165.366 153.567 156.092Z"
        fill="#CBE3FA" />
    <path
        d="M128.958 145.723C137.504 148.118 134.93 160.816 126.126 159.696C88.6199 154.92 51.6782 170.087 28.3707 199.667H10.4965C7.91734 199.667 6.31651 196.862 7.62484 194.637C32.4594 152.4 82.3457 132.654 128.958 145.723Z"
        fill="#EEF7FF" />
    <path
        d="M55.8709 151.238C66.9697 165.669 66.1551 186.15 53.6126 199.667H10.4967C7.9159 199.667 6.31674 196.862 7.62507 194.637C18.7292 175.754 35.4997 160.478 55.8709 151.238Z"
        fill="#B5D5F5" />
    <path
        d="M115.267 199.233V199.667H84.8291C82.5325 189.915 89.9271 180.508 100 180.508C109.895 180.508 117.243 189.589 115.267 199.233Z"
        fill="#B5D5F5" />
    <path
        d="M189.503 199.667H140.825C136.197 184.479 139.288 167.23 150.429 154.346C167.481 163.409 182.25 177.418 192.375 194.636C193.683 196.861 192.083 199.667 189.503 199.667Z"
        fill="#B5D5F5" />
    <path
        d="M63.4873 170.683C50.6365 177.335 39.449 186.347 30.3344 197.248C29.0598 198.772 27.1857 199.667 25.1986 199.667H10.4965C7.91734 199.667 6.31651 196.862 7.62484 194.637C18.7465 175.722 35.5369 160.461 55.8707 151.238C60.0873 156.721 62.8248 163.4 63.4873 170.683Z"
        fill="#CBE3FA" />
</svg>
    