<svg width="200" height="200" viewBox="0 0 200 200" fill="none" xmlns="http://www.w3.org/2000/svg">
    <g filter="url(#filter0_b_1940_15679)">
        <path
            d="M99.7834 189.527C149.109 189.527 189.095 149.541 189.095 100.216C189.095 50.8906 149.109 10.9045 99.7834 10.9045C50.4582 10.9045 10.4722 50.8906 10.4722 100.216C10.4722 149.541 50.4582 189.527 99.7834 189.527Z"
            fill="white" fill-opacity="0.1" />
    </g>
    <path opacity="0.4"
        d="M100.484 187.697C51.1585 187.697 11.1729 147.711 11.1729 98.3862C11.1729 87.7407 13.0432 77.535 16.4601 68.0676C12.607 78.0459 10.4727 88.8787 10.4727 100.216C10.4727 149.541 50.4583 189.527 99.7843 189.527C138.464 189.527 171.393 164.934 183.808 130.534C170.899 163.969 138.472 187.697 100.484 187.697Z"
        fill="#BFE6FF" />
    <path
        d="M66.2908 74.1687V107.646H132.632V74.1687C132.632 55.8805 117.751 41 99.4595 41C81.1676 41 66.2908 55.8805 66.2908 74.1687ZM71.871 74.1687C71.871 58.931 84.2218 46.5765 99.4595 46.5765C114.697 46.5765 127.048 58.931 127.048 74.1687V102.066H71.871V74.1687Z"
        fill="black" />
    <path
        d="M71.8708 74.1687V102.066H127.052V74.1687C127.052 58.931 114.701 46.5764 99.4631 46.5764C84.2254 46.5764 71.8708 58.931 71.8708 74.1687ZM77.4511 74.1687C77.4511 62.0336 87.3243 52.1603 99.4631 52.1603C111.602 52.1603 121.475 62.0336 121.475 74.1687V96.4857H77.4511V74.1687Z"
        fill="#252525" />
    <path
        d="M62.4403 159.137H136.49C140.597 159.137 143.93 155.807 143.93 151.696V97.9217C143.93 93.8147 140.597 90.4814 136.49 90.4814H62.4403C58.3295 90.4814 55 93.8147 55 97.9217V151.696C55 155.807 58.3295 159.137 62.4403 159.137Z"
        fill="#FFCC5B" />
    <g filter="url(#filter1_i_1940_15679)">
        <path
            d="M112.417 129.569H115.233C117.621 129.569 119.556 127.623 119.541 125.235V124.937V124.874C119.556 122.359 117.509 120.302 114.998 120.302H111.356C108.574 120.302 106.077 118.219 105.932 115.44C105.776 112.475 108.135 110.023 111.066 110.023H124.206C126.691 110.023 128.543 107.936 128.514 105.451C128.514 105.433 128.514 105.41 128.514 105.388C128.514 105.366 128.514 105.347 128.514 105.325C128.543 102.84 126.691 100.757 124.206 100.757H119.957C117.175 100.757 114.678 98.6732 114.533 95.8943C114.377 92.9293 116.736 90.4778 119.667 90.4778H136.49C140.597 90.4778 143.93 93.8073 143.93 97.9181V151.693C143.93 155.803 140.597 159.133 136.49 159.133H114.701C111.862 159.133 109.56 156.83 109.56 153.992C109.56 151.153 111.862 148.85 114.701 148.85H121.576C123.953 148.85 125.887 146.905 125.876 144.528V144.472C125.876 144.368 125.88 144.263 125.887 144.159C126.029 141.816 124.168 139.84 121.821 139.84H112.707C109.924 139.84 107.428 137.757 107.283 134.978C107.13 132.021 109.489 129.569 112.417 129.569Z"
            fill="#FDBC4B" />
    </g>
    <g filter="url(#filter2_i_1940_15679)">
        <path
            d="M88.2842 118.472C88.2842 112.296 93.2915 107.293 99.4632 107.293C105.639 107.293 110.642 112.3 110.642 118.472C110.642 122.594 108.384 126.158 105.062 128.096L106.595 142.325H92.328L93.8607 128.096C90.5386 126.158 88.2842 122.597 88.2842 118.472Z"
            fill="#464646" />
    </g>
    <path
        d="M66.2907 118.1C68.3442 118.1 70.0108 119.763 70.0108 121.82V143.226C70.0108 145.283 68.3442 146.946 66.2907 146.946C64.2372 146.946 62.5706 145.283 62.5706 143.226V121.82C62.5706 119.766 64.2372 118.1 66.2907 118.1Z"
        fill="#FFD769" />
    <path
        d="M66.2907 102.672C68.3442 102.672 70.0108 104.335 70.0108 106.392V110.749C70.0108 112.806 68.3442 114.469 66.2907 114.469C64.2372 114.469 62.5706 112.806 62.5706 110.749V106.392C62.5706 104.335 64.2372 102.672 66.2907 102.672Z"
        fill="#FFD769" />
    <path
        d="M99.7838 190C149.37 190 189.568 149.802 189.568 100.216C189.568 50.63 149.37 10.4324 99.7838 10.4324C50.1976 10.4324 10 50.63 10 100.216C10 149.802 50.1976 190 99.7838 190Z"
        fill="white" fill-opacity="0.1" />
    <path
        d="M86.4284 29.8883C136.068 29.8883 176.31 70.1914 176.31 119.908C176.31 134.503 172.82 148.274 166.664 160.466C180.901 144.539 189.568 123.513 189.568 100.452C189.568 50.7363 149.327 10.4324 99.6865 10.4324C64.6196 10.4324 34.2643 30.5596 19.4509 59.8955C35.9087 41.484 59.8121 29.8883 86.4284 29.8883Z"
        fill="white" fill-opacity="0.1" />
    <g style="mix-blend-mode:plus-lighter">
        <path
            d="M122.643 145.959C72.9159 145.959 32.6056 105.731 32.6056 56.1053C32.6056 50.1784 33.1967 44.3912 34.2934 38.7852C19.2344 54.8467 10 76.415 10 100.146C10 149.771 50.3116 190 100.038 190C143.824 190 180.296 158.801 188.386 117.466C171.956 134.992 148.589 145.959 122.643 145.959Z"
            fill="url(#paint0_radial_1940_15679)" fill-opacity="0.6" />
    </g>
    <path opacity="0.6"
        d="M99.8144 19.515C93.0295 20.6336 89.3819 28.5133 92.8408 34.5529C103.593 53.3313 123.593 65.9565 146.505 65.9565C149.894 65.9565 153.218 65.6779 156.459 65.1435C163.243 64.0248 166.891 56.1451 163.433 50.1056C152.681 31.3271 132.68 18.7019 109.768 18.7019C106.38 18.7019 103.055 18.9802 99.8144 19.515Z"
        fill="white" />
    <path opacity="0.1"
        d="M106.019 180.904C56.3317 180.904 16.0522 140.66 16.0522 91.0158C16.0522 74.5563 20.5015 59.1427 28.2317 45.8733C16.7952 60.9505 10 79.7351 10 100.111C10 149.756 50.2803 190 99.968 190C133.18 190 162.169 172.005 177.754 145.255C161.327 166.91 135.313 180.904 106.019 180.904Z"
        fill="#BFE6FF" />
    <path
        d="M99.7837 10C97.3836 10 95.0056 10.096 92.6526 10.2801C139.144 13.916 175.738 52.7918 175.738 100.216C175.738 147.641 139.143 186.517 92.6526 190.152C95.0056 190.336 97.3836 190.432 99.7837 190.432C149.609 190.432 190 150.041 190 100.216C190 50.3912 149.609 10 99.7837 10Z"
        fill="black" fill-opacity="0.05" />
    <defs>
        <filter id="filter0_b_1940_15679" x="-49.5278" y="-49.0955" width="298.623" height="298.623"
            filterUnits="userSpaceOnUse" color-interpolation-filters="sRGB">
            <feFlood flood-opacity="0" result="BackgroundImageFix" />
            <feGaussianBlur in="BackgroundImageFix" stdDeviation="30" />
            <feComposite in2="SourceAlpha" operator="in" result="effect1_backgroundBlur_1940_15679" />
            <feBlend mode="normal" in="SourceGraphic" in2="effect1_backgroundBlur_1940_15679"
                result="shape" />
        </filter>
        <filter id="filter1_i_1940_15679" x="105.925" y="90.4778" width="38.0049" height="68.655"
            filterUnits="userSpaceOnUse" color-interpolation-filters="sRGB">
            <feFlood flood-opacity="0" result="BackgroundImageFix" />
            <feBlend mode="normal" in="SourceGraphic" in2="BackgroundImageFix" result="shape" />
            <feColorMatrix in="SourceAlpha" type="matrix"
                values="0 0 0 0 0 0 0 0 0 0 0 0 0 0 0 0 0 0 127 0" result="hardAlpha" />
            <feOffset dx="-6" />
            <feComposite in2="hardAlpha" operator="arithmetic" k2="-1" k3="1" />
            <feColorMatrix type="matrix" values="0 0 0 0 0 0 0 0 0 0 0 0 0 0 0 0 0 0 0.1 0" />
            <feBlend mode="normal" in2="shape" result="effect1_innerShadow_1940_15679" />
        </filter>
        <filter id="filter2_i_1940_15679" x="88.2842" y="107.293" width="22.3579" height="35.0325"
            filterUnits="userSpaceOnUse" color-interpolation-filters="sRGB">
            <feFlood flood-opacity="0" result="BackgroundImageFix" />
            <feBlend mode="normal" in="SourceGraphic" in2="BackgroundImageFix" result="shape" />
            <feColorMatrix in="SourceAlpha" type="matrix"
                values="0 0 0 0 0 0 0 0 0 0 0 0 0 0 0 0 0 0 127 0" result="hardAlpha" />
            <feOffset dx="-4" />
            <feComposite in2="hardAlpha" operator="arithmetic" k2="-1" k3="1" />
            <feColorMatrix type="matrix" values="0 0 0 0 0 0 0 0 0 0 0 0 0 0 0 0 0 0 0.1 0" />
            <feBlend mode="normal" in2="shape" result="effect1_innerShadow_1940_15679" />
        </filter>
        <radialGradient id="paint0_radial_1940_15679" cx="0" cy="0" r="1"
            gradientUnits="userSpaceOnUse"
            gradientTransform="translate(144.5 20.9999) rotate(115.294) scale(181.39 453.396)">
            <stop offset="0.590503" stop-color="white" stop-opacity="0.1" />
            <stop offset="1" stop-color="white" stop-opacity="0.4" />
        </radialGradient>
    </defs>
</svg>
    