<svg width="200" height="200" viewBox="0 0 200 200" fill="none" xmlns="http://www.w3.org/2000/svg">
    <g filter="url(#filter0_b_1940_4395)">
        <path
            d="M99.7834 189.527C149.109 189.527 189.095 149.541 189.095 100.216C189.095 50.8906 149.109 10.9045 99.7834 10.9045C50.4582 10.9045 10.4722 50.8906 10.4722 100.216C10.4722 149.541 50.4582 189.527 99.7834 189.527Z"
            fill="white" fill-opacity="0.1" />
    </g>
    <path opacity="0.4"
        d="M100.484 187.697C51.1585 187.697 11.1729 147.711 11.1729 98.3862C11.1729 87.7407 13.0432 77.535 16.4601 68.0676C12.607 78.0459 10.4727 88.8787 10.4727 100.216C10.4727 149.541 50.4583 189.527 99.7843 189.527C138.464 189.527 171.393 164.934 183.808 130.534C170.899 163.969 138.472 187.697 100.484 187.697Z"
        fill="#BFE6FF" />
    <g clip-path="url(#clip0_1940_4395)">
        <path
            d="M65.6917 138.978C61.7934 138.978 58.3429 138.624 55.3743 137.917C49.8614 136.605 46.3211 134.144 44.8516 130.602C41.0831 121.519 52.7978 109.57 63.2887 101.146C69.3538 96.2754 73.5852 92.1439 75.8652 88.8661C77.4353 86.6089 78.0208 84.8129 77.4709 83.9393C75.9236 81.4807 65.5284 82.3334 56.6074 86.6086C53.4084 88.1417 50.1907 88.5385 47.3027 87.7571C44.5057 87.0003 42.2526 85.1806 40.9586 82.6334C39.1064 78.9882 39.4568 74.3143 41.9203 69.8103C44.71 64.7089 50.1025 59.9056 57.5142 55.9192C66.1928 51.2516 76.0258 48.6882 85.2346 48.6882C85.326 48.6882 85.4167 48.6885 85.5081 48.6889C94.408 48.7382 101.946 51.0929 106.735 55.3201C111.823 59.8116 113.214 65.9356 110.65 72.5647C107.013 81.9722 106.521 88.7452 109.267 91.636C110.634 93.076 113.655 94.3362 120.276 92.1605C121.199 91.8572 122.192 92.3597 122.495 93.282C122.798 94.2042 122.296 95.1975 121.374 95.5006C113.004 98.2498 108.784 96.233 106.718 94.057C102.875 90.0117 103.096 82.354 107.371 71.2967C109.394 66.0657 108.37 61.4525 104.408 57.9559C100.317 54.3444 93.421 52.2484 85.4884 52.2046C85.4036 52.2041 85.318 52.2039 85.2329 52.2039C76.596 52.2039 67.3548 54.6184 59.1794 59.0155C50.5746 63.6432 46.7219 68.3572 45.0044 71.4969C43.1064 74.9675 42.7739 78.4458 44.0925 81.0406C45.9368 84.6704 50.4585 85.6564 55.0877 83.4378C63.5336 79.3906 77.0446 76.6622 80.4461 82.0667C83.2061 86.4516 78.3135 93.5892 65.4897 103.887C52.1824 114.573 45.8435 123.82 48.0986 129.255C49.3607 132.297 53.1944 133.785 56.1883 134.497C60.7834 135.591 67.0028 135.751 74.1744 134.958C85.7657 133.679 92.4418 129.764 98.3319 126.311C106.929 121.269 113.721 117.287 129.645 125.867C130.5 126.328 130.819 127.394 130.359 128.249C129.898 129.103 128.832 129.423 127.977 128.962C113.794 121.32 108.35 124.512 100.11 129.343C94.2235 132.795 86.897 137.09 74.5605 138.453C71.3924 138.803 68.4313 138.977 65.6917 138.978Z"
            fill="#404B58" />
        <path
            d="M73.5122 119.826L64.791 144.222L65.14 150.214C64.6023 151.718 71.5116 150.943 71.5116 150.943L95.908 142.222C102.111 136.019 79.715 113.623 73.5122 119.826Z"
            fill="url(#paint0_linear_1940_4395)" />
        <path
            d="M149.984 88.1496L95.9077 142.222C95.2947 141.159 94.3627 140.219 93.1691 139.553C91.5381 138.65 88.9878 139.144 87.222 139.68C86.8378 139.794 86.4861 139.594 86.3431 139.287C86.253 139.103 86.2368 138.878 86.335 138.658C86.3392 138.658 86.3392 138.654 86.3392 138.654C86.4374 138.429 86.523 138.2 86.5966 137.971C86.6293 137.861 86.6621 137.75 86.6948 137.64C86.699 137.632 86.699 137.628 86.699 137.619C86.793 137.264 86.8585 136.908 86.8951 136.544C86.9074 136.426 86.9156 136.303 86.9237 136.185C86.9338 135.987 86.9357 135.79 86.9293 135.592C86.8845 134.21 86.4332 132.838 85.5748 131.672C85.3663 131.386 85.1333 131.116 84.8758 130.859C84.6182 130.601 84.3484 130.368 84.0625 130.16C82.7301 129.179 81.1277 128.729 79.5499 128.811C79.4313 128.819 79.3087 128.827 79.1901 128.839C78.8263 128.876 78.4665 128.941 78.1151 129.035C78.107 129.035 78.1028 129.035 78.0947 129.04C77.9844 129.072 77.8739 129.105 77.7637 129.138C77.645 129.175 77.5308 129.216 77.4164 129.26C77.3061 129.301 77.1956 129.346 77.0854 129.395C77.0812 129.395 77.0812 129.395 77.0773 129.399C76.8565 129.498 76.6318 129.481 76.4477 129.391C76.1411 129.248 75.941 128.897 76.0554 128.513C76.591 126.747 77.0854 124.2 76.1822 122.569C75.516 121.372 74.5798 120.44 73.5132 119.827L127.585 65.7506C129.277 64.0626 132.015 64.0626 133.704 65.7506L136.896 68.9429L146.792 78.8385L149.984 82.0307C151.672 83.7188 151.672 86.4574 149.984 88.1496Z"
            fill="url(#paint1_linear_1940_4395)" />
        <path
            d="M146.791 78.8385L86.3429 139.287C86.2528 139.103 86.2366 138.878 86.3348 138.657C86.3389 138.657 86.3389 138.653 86.3389 138.653C86.4371 138.428 86.8622 136.904 86.8949 136.544C86.9111 136.422 86.9195 136.303 86.9234 136.184C87.0052 134.607 86.5555 133.004 85.5745 131.672C85.3661 131.386 85.133 131.116 84.8756 130.858C84.6179 130.601 84.3482 130.368 84.0622 130.159C82.7298 129.178 81.1274 128.729 79.5497 128.811C79.431 128.815 79.3127 128.823 79.1899 128.839C78.8301 128.872 78.4705 128.937 78.1149 129.035C78.1067 129.035 78.1026 129.035 78.0944 129.039C77.9842 129.068 77.1952 129.346 77.0849 129.395C77.0807 129.395 77.0807 129.395 77.0768 129.399C76.856 129.497 76.6314 129.481 76.4473 129.391L136.896 68.9426L146.791 78.8385Z"
            fill="url(#paint2_linear_1940_4395)" />
        <path
            d="M68.6739 147.06C67.4973 145.884 66.1823 144.94 64.7911 144.222L62.398 150.917C61.8602 152.421 63.313 153.874 64.8172 153.336L71.5117 150.943C70.7946 149.552 69.8505 148.237 68.6739 147.06Z"
            fill="url(#paint3_linear_1940_4395)" />
        <path
            d="M157.297 68.8278L146.905 58.4352C143.59 55.1202 138.215 55.1202 134.9 58.4352L121.858 71.4775L144.255 93.8748L157.297 80.8325C160.613 77.5175 160.613 72.1428 157.297 68.8278Z"
            fill="url(#paint4_linear_1940_4395)" />
        <path
            d="M141.16 90.8542L137.967 87.662L128.072 77.7664L124.88 74.5741C123.192 72.8861 120.453 72.8861 118.761 74.5741L116.656 76.6791V121.475L141.16 96.9731C142.848 95.2809 142.848 92.5422 141.16 90.8542Z"
            fill="url(#paint5_linear_1940_4395)" />
        <path
            d="M137.623 97.9064L117.597 77.8806C116.335 76.6188 116.335 74.5734 117.597 73.3116L120.511 70.3975C121.773 69.1357 123.818 69.1357 125.08 70.3975L145.106 90.4233C146.367 91.6851 146.367 93.7304 145.106 94.9922L142.191 97.9064C140.93 99.1679 138.884 99.1679 137.623 97.9064Z"
            fill="url(#paint6_linear_1940_4395)" />
    </g>
    <path
        d="M99.7838 190C149.37 190 189.568 149.802 189.568 100.216C189.568 50.63 149.37 10.4324 99.7838 10.4324C50.1976 10.4324 10 50.63 10 100.216C10 149.802 50.1976 190 99.7838 190Z"
        fill="white" fill-opacity="0.1" />
    <path
        d="M86.4287 29.8883C136.068 29.8883 176.31 70.1914 176.31 119.908C176.31 134.503 172.82 148.274 166.664 160.466C180.901 144.539 189.568 123.513 189.568 100.452C189.568 50.7363 149.327 10.4324 99.6867 10.4324C64.6198 10.4324 34.2645 30.5596 19.4512 59.8955C35.9089 41.484 59.8124 29.8883 86.4287 29.8883Z"
        fill="white" fill-opacity="0.1" />
    <g style="mix-blend-mode:plus-lighter">
        <path
            d="M122.643 145.959C72.9159 145.959 32.6056 105.731 32.6056 56.1053C32.6056 50.1784 33.1967 44.3912 34.2934 38.7852C19.2344 54.8467 10 76.415 10 100.146C10 149.771 50.3116 190 100.038 190C143.824 190 180.296 158.801 188.386 117.466C171.956 134.992 148.589 145.959 122.643 145.959Z"
            fill="url(#paint7_radial_1940_4395)" fill-opacity="0.6" />
    </g>
    <path opacity="0.6"
        d="M99.8144 19.515C93.0295 20.6336 89.3819 28.5133 92.8408 34.5529C103.593 53.3313 123.593 65.9565 146.505 65.9565C149.894 65.9565 153.218 65.6779 156.459 65.1435C163.243 64.0248 166.891 56.1451 163.433 50.1056C152.681 31.3271 132.68 18.7019 109.768 18.7019C106.38 18.7019 103.055 18.9802 99.8144 19.515Z"
        fill="white" />
    <path opacity="0.1"
        d="M106.019 180.904C56.3317 180.904 16.0522 140.66 16.0522 91.0158C16.0522 74.5563 20.5015 59.1427 28.2317 45.8733C16.7952 60.9505 10 79.7351 10 100.111C10 149.756 50.2803 190 99.968 190C133.18 190 162.169 172.005 177.754 145.255C161.327 166.91 135.313 180.904 106.019 180.904Z"
        fill="#BFE6FF" />
    <path
        d="M99.7839 10C97.3838 10 95.0059 10.096 92.6528 10.2801C139.144 13.916 175.738 52.7918 175.738 100.216C175.738 147.641 139.144 186.517 92.6528 190.152C95.0059 190.336 97.3838 190.432 99.7839 190.432C149.609 190.432 190 150.041 190 100.216C190 50.3912 149.609 10 99.7839 10Z"
        fill="black" fill-opacity="0.05" />
    <defs>
        <filter id="filter0_b_1940_4395" x="-49.5278" y="-49.0955" width="298.623" height="298.623"
            filterUnits="userSpaceOnUse" color-interpolation-filters="sRGB">
            <feFlood flood-opacity="0" result="BackgroundImageFix" />
            <feGaussianBlur in="BackgroundImageFix" stdDeviation="30" />
            <feComposite in2="SourceAlpha" operator="in" result="effect1_backgroundBlur_1940_4395" />
            <feBlend mode="normal" in="SourceGraphic" in2="effect1_backgroundBlur_1940_4395"
                result="shape" />
        </filter>
        <linearGradient id="paint0_linear_1940_4395" x1="65.9998" y1="127.251" x2="88.3924"
            y2="149.644" gradientUnits="userSpaceOnUse">
            <stop stop-color="#FFE0EA" />
            <stop offset="1" stop-color="#FFC0D5" />
        </linearGradient>
        <linearGradient id="paint1_linear_1940_4395" x1="73.5127" y1="103.353" x2="151.25"
            y2="103.353" gradientUnits="userSpaceOnUse">
            <stop stop-color="#FFCE47" />
            <stop offset="1" stop-color="#FF9356" />
        </linearGradient>
        <linearGradient id="paint2_linear_1940_4395" x1="120.912" y1="113.408" x2="98.3033"
            y2="90.7989" gradientUnits="userSpaceOnUse">
            <stop stop-color="#FFCE47" />
            <stop offset="1" stop-color="#FF9356" />
        </linearGradient>
        <linearGradient id="paint3_linear_1940_4395" x1="65.0198" y1="149.272" x2="70.7333"
            y2="154.985" gradientUnits="userSpaceOnUse">
            <stop stop-color="#2F73A0" />
            <stop offset="1" stop-color="#174461" />
        </linearGradient>
        <linearGradient id="paint4_linear_1940_4395" x1="147.122" y1="66.3886" x2="143.157"
            y2="73.5261" gradientUnits="userSpaceOnUse">
            <stop stop-color="#FF755C" />
            <stop offset="1" stop-color="#FF4181" />
        </linearGradient>
        <linearGradient id="paint5_linear_1940_4395" x1="118.495" y1="108.385" x2="129.159"
            y2="86.5326" gradientUnits="userSpaceOnUse">
            <stop stop-color="#FF9356" stop-opacity="0" />
            <stop offset="1" stop-color="#FF755C" />
        </linearGradient>
        <linearGradient id="paint6_linear_1940_4395" x1="132.681" y1="81.7199" x2="129.184"
            y2="88.0133" gradientUnits="userSpaceOnUse">
            <stop stop-color="#EDF5FF" />
            <stop offset="1" stop-color="#C7E9FF" />
        </linearGradient>
        <radialGradient id="paint7_radial_1940_4395" cx="0" cy="0" r="1"
            gradientUnits="userSpaceOnUse"
            gradientTransform="translate(144.5 20.9999) rotate(115.294) scale(181.39 453.396)">
            <stop offset="0.590503" stop-color="white" stop-opacity="0.1" />
            <stop offset="1" stop-color="white" stop-opacity="0.4" />
        </radialGradient>
        <clipPath id="clip0_1940_4395">
            <rect width="120" height="120" fill="white" transform="translate(39.7837 40.2163)" />
        </clipPath>
    </defs>
</svg>
    