<svg width="60" height="60" viewBox="0 0 60 60" fill="none" xmlns="http://www.w3.org/2000/svg">
    <path
        d="M36.1433 46.3881H32.1354V40.1664H27.2965V46.3881H23.2886C21.6843 46.3881 20.3848 47.6877 20.3848 49.292C20.3848 50.8963 21.6843 52.1959 23.2886 52.1959H36.1461C37.7504 52.1959 39.05 50.8963 39.05 49.292C39.05 47.6877 37.7476 46.3881 36.1433 46.3881Z"
        fill="#FF9800" />
    <path
        d="M29.7145 42.4808V46.1207C29.7145 46.8769 30.3269 47.4893 31.0831 47.4893H35.7925C35.7925 47.4893 36.7787 47.7365 36.7787 49.0188C36.7787 50.1229 35.4906 50.189 33.5355 50.189H23.9844C22.7194 50.189 21.4629 49.9619 20.3848 49.292C21.0115 51.0947 21.6786 52.0147 28.668 52.0147C35.6574 52.0147 39.1909 52.0003 39.0471 49.292C38.9034 46.5836 31.9427 45.9655 31.9427 45.9655L31.6926 41.9087L29.7145 42.4808Z"
        fill="#F26722" />
    <path
        d="M36.1429 53.343H23.2883C21.0543 53.343 19.2344 51.526 19.2344 49.2891C19.2344 47.0552 21.0514 45.2352 23.2883 45.2352H26.1461V40.1635C26.1461 39.5281 26.6608 39.0135 27.2962 39.0135H32.135C32.7704 39.0135 33.285 39.5281 33.285 40.1635V45.2352H36.1429C38.3769 45.2352 40.1968 47.0523 40.1968 49.2891C40.1968 51.526 38.3797 53.343 36.1429 53.343ZM23.2883 47.5382C22.3222 47.5382 21.5345 48.326 21.5345 49.292C21.5345 50.258 22.3222 51.0458 23.2883 51.0458H36.1458C37.1118 51.0458 37.8996 50.258 37.8996 49.292C37.8996 48.326 37.1118 47.5382 36.1458 47.5382H32.1379C31.5025 47.5382 30.9878 47.0235 30.9878 46.3881V41.3164H28.4491V46.3881C28.4491 47.0235 27.9345 47.5382 27.2991 47.5382H23.2883Z"
        fill="black" />
    <path
        d="M14.6333 29.2352H16.5452V14.1668H10.8899C8.82267 14.1668 7.14648 15.843 7.14648 17.9102V21.7484C7.14648 25.8828 10.4989 29.2352 14.6333 29.2352ZM45.3625 29.2352H43.4505V14.1668H49.1059C51.1731 14.1668 52.8493 15.843 52.8493 17.9102V21.7484C52.8493 25.8828 49.4969 29.2352 45.3625 29.2352Z"
        fill="#FF9800" />
    <path
        d="M10.6542 14.6153V25.4775C10.6542 25.4775 9.00393 25.0778 7.71875 22.9847C8.58991 25.9404 10.0447 28.4532 13.285 28.6746C13.0032 23.3154 13.0032 14.6182 13.0032 14.6182H10.6542V14.6153ZM50.1899 14.6527V21.7024C50.1899 23.6805 49.0427 26.4349 47.1653 27.0962C46.872 28.6113 46.7628 29.1059 46.7628 29.1059C46.7628 29.1059 52.4469 26.7914 52.4469 21.8778V15.9666L50.1899 14.6527Z"
        fill="#F26722" />
    <path
        d="M16.5488 30.3853H14.6368C9.87278 30.3853 6 26.5096 6 21.7485V17.9102C6 15.2104 8.19659 13.0167 10.8934 13.0167H16.5488C17.1842 13.0167 17.6988 13.5314 17.6988 14.1668V29.2352C17.6988 29.8706 17.1813 30.3853 16.5488 30.3853ZM10.8906 15.3168C9.46164 15.3168 8.29721 16.4812 8.29721 17.9102V21.7485C8.29721 25.2417 11.1407 28.0852 14.634 28.0852H15.3959V15.3168H10.8906ZM45.3632 30.3853H43.4512C42.8158 30.3853 42.3012 29.8706 42.3012 29.2352V14.1668C42.3012 13.5314 42.8158 13.0167 43.4512 13.0167H49.1066C51.8063 13.0167 54 15.2133 54 17.9102V21.7485C54 26.5096 50.1272 30.3853 45.3632 30.3853ZM44.6013 28.0852H45.3632C48.8564 28.0852 51.6999 25.2417 51.6999 21.7485V17.9102C51.6999 16.4812 50.5355 15.3168 49.1066 15.3168H44.6013V28.0852Z"
        fill="black" />
    <path
        d="M29.7144 41.9547C20.5514 41.9547 13.125 34.5283 13.125 25.3653V10.34C13.125 8.94266 14.2578 7.80699 15.658 7.80699H43.7708C45.1681 7.80699 46.3038 8.93979 46.3038 10.34V25.3653C46.3038 34.5254 38.8774 41.9547 29.7144 41.9547Z"
        fill="white" />
    <path
        d="M42.704 8.8047V26.0554C42.704 29.3589 40.2573 38.1366 30.5797 38.7778C20.902 39.416 18.1592 35.7646 16.7188 34.0626C18.8751 37.6996 22.5466 42.1531 30.5797 42.1531C38.6127 42.1531 47.1691 34.8302 47.1691 25.6902V9.06346L42.704 8.8047Z"
        fill="black" fill-opacity="0.2" />
    <path
        d="M29.7141 43.1048C19.9329 43.1048 11.9746 35.1465 11.9746 25.3653V10.34C11.9746 8.31016 13.6278 6.65697 15.6576 6.65697H43.7705C45.8003 6.65697 47.4535 8.31016 47.4535 10.34V25.3625C47.4535 35.1465 39.4952 43.1048 29.7141 43.1048ZM15.6576 8.95706C14.8957 8.95706 14.2747 9.57808 14.2747 10.34V25.3625C14.2747 33.8757 21.2008 40.8018 29.7141 40.8018C38.2273 40.8018 45.1534 33.8757 45.1534 25.3625V10.34C45.1534 9.57808 44.5324 8.95706 43.7705 8.95706H15.6576Z"
        fill="black" />
    <path
        d="M31.2496 16.0672L32.3795 18.3529C32.5021 18.6016 32.6834 18.8166 32.9079 18.9795C33.1323 19.1423 33.3931 19.2479 33.6675 19.2873L36.1919 19.6553C37.5949 19.8594 38.1556 21.5845 37.1407 22.5735L35.315 24.3532C35.1166 24.5472 34.9683 24.7864 34.8827 25.0503C34.797 25.3142 34.7767 25.5949 34.8233 25.8684L35.2546 28.3813C35.4932 29.7786 34.0269 30.8452 32.7734 30.184L30.5164 28.9965C30.019 28.7349 29.4239 28.7349 28.9236 28.9965L26.6666 30.184C25.4102 30.8424 23.9439 29.7786 24.1854 28.3813L24.6167 25.8684C24.7115 25.3135 24.5275 24.7471 24.125 24.3532L22.2993 22.5735C21.2844 21.5845 21.8451 19.8594 23.2481 19.6553L25.7725 19.2873C26.3302 19.2068 26.8104 18.856 27.0605 18.3529L28.1904 16.0672C28.8086 14.7935 30.6228 14.7935 31.2496 16.0672Z"
        fill="#FF9800" />
    <path
        d="M28.9373 16.1189L30.7458 19.822C30.9231 20.1859 31.186 20.5012 31.512 20.7411C31.838 20.981 32.2174 21.1382 32.6175 21.1992L35.0268 21.5701L32.3645 24.6177L33.043 27.8465L30.6796 26.8804C30.4473 26.7854 30.1978 26.7396 29.9469 26.7461C29.6959 26.7525 29.4491 26.811 29.222 26.9178L26.0708 28.3956L25.2083 26.8718L24.4004 29.3502L25.9616 30.0661L30.165 28.5624L34.331 30.3852L35.1188 25.3681L37.6518 20.8715L32.3788 18.3529L29.7193 15.1126L28.9373 16.1189Z"
        fill="#F26722" />
    <path
        d="M33.5674 31.5353C33.1131 31.5353 32.656 31.4261 32.2333 31.2047L29.9764 30.0173C29.8125 29.931 29.617 29.931 29.456 30.0173L27.199 31.2047C26.2272 31.7165 25.0743 31.6331 24.1859 30.9862C23.2975 30.3393 22.8633 29.2698 23.0473 28.1887L23.4786 25.6759C23.5102 25.4947 23.4498 25.3078 23.3176 25.1785L21.4919 23.3988C21.1078 23.0274 20.8361 22.5553 20.708 22.0366C20.5799 21.518 20.6004 20.9737 20.7674 20.4662C20.9306 19.9577 21.2338 19.5054 21.6421 19.1612C22.0504 18.817 22.5473 18.5947 23.0761 18.5197L25.6004 18.1517C25.6905 18.1384 25.776 18.1034 25.8496 18.0498C25.9232 17.9963 25.9827 17.9257 26.0231 17.8441L27.153 15.5555C27.6389 14.5722 28.6222 13.9598 29.7176 13.9598C30.813 13.9598 31.7963 14.5722 32.2822 15.5555L33.4121 17.8412C33.4926 18.0079 33.6507 18.1201 33.8348 18.1488L36.3591 18.5168C37.4459 18.675 38.3286 19.4196 38.6678 20.4633C38.8348 20.9708 38.8553 21.5151 38.7272 22.0338C38.599 22.5524 38.3274 23.0245 37.9433 23.3959L36.1176 25.1756C35.9853 25.305 35.925 25.489 35.9566 25.673L36.3879 28.1858C36.5719 29.2669 36.1377 30.3393 35.2493 30.9833C34.7619 31.342 34.1725 31.5354 33.5674 31.5353ZM29.7147 27.6511C30.1719 27.6511 30.629 27.7603 31.0459 27.9788L33.3029 29.1662C33.5817 29.3129 33.8089 29.1864 33.8923 29.1231C33.9756 29.0627 34.1683 28.8845 34.1165 28.574L33.6853 26.0611C33.6074 25.6039 33.6415 25.1346 33.7847 24.6935C33.9279 24.2523 34.176 23.8525 34.5075 23.5282L36.3332 21.7485C36.5575 21.5299 36.5086 21.2741 36.4741 21.1734C36.4425 21.0728 36.3332 20.837 36.0227 20.791L33.4984 20.423C33.0394 20.3567 32.6035 20.1796 32.2284 19.9071C31.8532 19.6346 31.55 19.2749 31.3449 18.859L30.215 16.5733C30.077 16.2915 29.8182 16.2599 29.7118 16.2599C29.6055 16.2599 29.3496 16.2915 29.2087 16.5733L28.0788 18.859C27.8737 19.2749 27.5705 19.6346 27.1953 19.9071C26.8201 20.1796 26.3843 20.3567 25.9253 20.423L23.401 20.7882C23.0905 20.8342 22.9812 21.0699 22.9496 21.1706C22.918 21.2712 22.8662 21.5271 23.0905 21.7456L24.9162 23.5253C25.2488 23.8488 25.4976 24.2486 25.6409 24.69C25.7842 25.1313 25.8177 25.601 25.7384 26.0583L25.3072 28.5711C25.2554 28.8816 25.4452 29.057 25.5314 29.1202C25.6148 29.1806 25.8448 29.31 26.1208 29.1634L28.3778 27.976C28.8004 27.7603 29.2576 27.6511 29.7147 27.6511Z"
        fill="black" />
</svg>
    