<svg width="40" height="40" viewBox="0 0 40 40" fill="none" xmlns="http://www.w3.org/2000/svg">
    <g clip-path="url(#clip0_1717_30051)">
        <path
            d="M18.396 29.9056L11.9483 27.6758L10.5257 27.8207L7.45127 36.654C7.3533 36.9353 7.58127 37.223 7.8776 37.192L12.1872 36.7407C12.3076 36.7281 12.4273 36.7698 12.5138 36.8544L15.6119 39.884C15.8249 40.0923 16.1822 40.0083 16.2801 39.727L19.3747 30.8359L18.396 29.9056Z"
            fill="#98DB7C" />
        <path
            d="M19.3748 30.8356L20.0001 29.0391L11.1493 26.0293L10.5259 27.8205C13.0392 29.6138 16.0823 30.7116 19.3748 30.8356Z"
            fill="#82D361" />
        <path
            d="M21.6041 29.9056L28.0517 27.6758L29.4743 27.8207L32.5488 36.654C32.6467 36.9353 32.4188 37.223 32.1225 37.192L27.8129 36.7407C27.6925 36.7281 27.5728 36.7698 27.4863 36.8544L24.3883 39.884C24.1753 40.0923 23.818 40.0083 23.7201 39.727L20.6255 30.8359L21.6041 29.9056Z"
            fill="#98DB7C" />
        <path
            d="M20.6253 30.8356L20 29.0391L28.8508 26.0293L29.4742 27.8205C26.9609 29.6138 23.9178 30.7116 20.6253 30.8356Z"
            fill="#82D361" />
        <path
            d="M20.0002 28.0811C5.49868 28.0811 5.48665 14.0303 5.49868 13.7879C5.87986 6.10891 12.2267 0 20.0002 0C27.7687 0 34.1122 6.10078 34.501 13.7725C34.5136 14.02 34.501 28.0811 20.0002 28.0811Z"
            fill="#E0E0E0" />
        <path
            d="M20.0002 27.5755C12.2266 27.5755 5.88 21.4666 5.49875 13.7876C5.48672 14.03 5.48047 14.274 5.48047 14.5194C5.48047 22.5384 11.9812 29.0391 20.0002 29.0391C28.0191 29.0391 34.5198 22.5384 34.5198 14.5194C34.5198 14.2739 34.5136 14.03 34.5016 13.7876C34.1203 21.4666 27.7738 27.5755 20.0002 27.5755Z"
            fill="#CECECE" />
        <path
            d="M20 25.049C8.56154 25.049 8.56927 14.0296 8.58459 13.7876C8.96201 7.81137 13.9286 3.08105 20 3.08105C26.0714 3.08105 31.0379 7.81137 31.4154 13.7876C31.4307 14.0296 31.4154 25.049 20 25.049Z"
            fill="#9E9E9E" />
        <path
            d="M20 24.4946C13.9286 24.4946 8.96293 19.7642 8.58551 13.7881C8.5702 14.0301 8.56152 14.274 8.56152 14.5199C8.56152 20.8371 13.6827 25.9583 20 25.9583C26.3172 25.9583 31.4384 20.8371 31.4384 14.5199C31.4384 14.2739 31.4297 14.0301 31.4144 13.7881C31.037 19.7642 26.0713 24.4946 20 24.4946Z"
            fill="#898989" />
        <path
            d="M23.2928 21.3138H16.7364C15.9422 21.3138 15.329 19.9314 15.3888 19.6155C15.5546 18.7381 15.945 17.9114 16.5279 17.2224L21.1411 11.7703C21.5728 11.2601 21.3802 10.7104 21.3108 10.554C21.2265 10.3639 20.9644 9.91947 20.3538 9.89885C20.3361 9.89822 20.3178 9.89791 20.2994 9.89791C19.4417 9.89791 18.7439 10.5957 18.7439 11.4535C18.7439 12.2476 18.1001 12.8914 17.306 12.8914C16.5118 12.8914 15.868 12.2477 15.868 11.4535C15.868 9.01002 17.8559 7.02197 20.2994 7.02197C20.35 7.02197 20.4003 7.02283 20.4504 7.02455C21.9793 7.07611 23.3161 7.98189 23.9398 9.38822C24.5728 10.8156 24.3416 12.4401 23.3365 13.6279L18.7234 19.0801C18.7064 19.1002 18.6898 19.1205 18.6736 19.1411H23.2929C23.8194 19.1411 24.2799 19.4242 24.5304 19.8464C24.6576 20.061 24.0869 21.3138 23.2928 21.3138Z"
            fill="#E0E0E0" />
        <path
            d="M23.2927 20.5534H16.7363C16.1183 20.5534 15.5929 20.1628 15.3896 19.6157C15.3298 19.9317 15.2983 20.2541 15.2983 20.5791C15.2983 21.3733 15.9422 22.0171 16.7363 22.0171H23.2927C24.0869 22.0171 24.7307 21.3733 24.7307 20.5791C24.7307 20.3115 24.6562 20.0618 24.529 19.8473C24.2784 20.2695 23.8193 20.5534 23.2927 20.5534Z"
            fill="#CECECE" />
    </g>
    <defs>
        <clipPath id="clip0_1717_30051">
            <rect width="40" height="40" fill="white" />
        </clipPath>
    </defs>
</svg>
    