<svg width="40" height="40" viewBox="0 0 40 40" fill="none" xmlns="http://www.w3.org/2000/svg">
    <g clip-path="url(#clip0_1717_30135)">
        <path
            d="M18.2792 29.8292L12.2834 27.8306L10.5257 27.8208L7.45127 36.654C7.3533 36.9353 7.58127 37.2231 7.8776 37.192L12.1872 36.7407C12.3076 36.7281 12.4273 36.7698 12.5138 36.8544L15.6119 39.884C15.8249 40.0923 16.1822 40.0083 16.2801 39.727L19.3747 30.836L18.2792 29.8292Z"
            fill="#0083FD" />
        <path
            d="M19.3748 30.8356L20.0001 29.0391L11.1493 26.0293L10.5259 27.8205C13.0392 29.6138 16.0823 30.7116 19.3748 30.8356Z"
            fill="#0072FC" />
        <path
            d="M21.7209 29.8292L27.7167 27.8306L29.4743 27.8208L32.5488 36.6541C32.6468 36.9354 32.4188 37.2231 32.1225 37.1921L27.8129 36.7408C27.6925 36.7282 27.5728 36.7699 27.4863 36.8545L24.3883 39.8841C24.1753 40.0924 23.818 40.0084 23.7201 39.7271L20.6255 30.836L21.7209 29.8292Z"
            fill="#0083FD" />
        <path
            d="M20.6253 30.8356L20 29.0391L28.8508 26.0293L29.4742 27.8205C26.9609 29.6138 23.9178 30.7116 20.6253 30.8356Z"
            fill="#0072FC" />
        <path
            d="M20.0002 27.8207C5.49868 27.8207 5.48665 14.0303 5.49868 13.7879C5.87986 6.10891 12.2267 0 20.0002 0C27.7738 0 34.1206 6.10891 34.5018 13.7879C34.5138 14.0303 34.5018 27.8207 20.0002 27.8207Z"
            fill="#FF9838" />
        <path
            d="M20.0002 27.5759C12.2266 27.5759 5.88 21.467 5.49875 13.7881C5.48672 14.0305 5.48047 14.2745 5.48047 14.5199C5.48047 22.5389 11.9812 29.0396 20.0002 29.0396C28.0191 29.0396 34.5198 22.5389 34.5198 14.5199C34.5198 14.2745 34.5136 14.0305 34.5016 13.7881C34.1203 21.467 27.7738 27.5759 20.0002 27.5759Z"
            fill="#FF8709" />
        <path
            d="M31.4384 14.5195C31.4384 19.4175 26.3172 25.2548 20 25.2548C13.6827 25.2548 8.56152 19.0963 8.56152 14.5195C8.56152 14.2736 8.56926 14.0296 8.58457 13.7876C8.96191 7.81137 13.9286 3.08105 20 3.08105C26.0714 3.08105 31.038 7.81137 31.4154 13.7876C31.4307 14.0296 31.4384 14.2736 31.4384 14.5195Z"
            fill="#CE7430" />
        <path
            d="M20 24.4946C13.9286 24.4946 8.96293 19.7642 8.58551 13.7881C8.5702 14.0301 8.56152 14.2739 8.56152 14.5199C8.56152 20.8371 13.6827 25.9583 20 25.9583C26.3172 25.9583 31.4384 20.8371 31.4384 14.5199C31.4384 14.2739 31.4297 14.0301 31.4144 13.7881C31.037 19.7642 26.0713 24.4946 20 24.4946Z"
            fill="#BC672E" />
        <path
            d="M20.0145 21.3142C17.551 21.3142 15.9835 19.616 15.6818 17.6011C15.6544 17.4179 15.6457 17.0245 15.6457 17.0245C15.8555 16.49 16.3759 16.1116 16.9848 16.1116C17.7789 16.1116 18.4227 16.7554 18.4227 17.5496C18.4227 18.4273 19.1368 19.1414 20.0145 19.1414C20.8923 19.1414 21.6064 18.4273 21.6064 17.5496C21.6064 17.2857 21.5419 17.0366 21.4277 16.8172C21.4277 16.8172 21.3198 15.4613 20.0916 15.4613C18.8595 15.4613 18.777 13.7872 18.777 13.7872C19.0276 13.365 19.488 13.0819 20.0146 13.0819C20.8923 13.0819 21.6065 12.3679 21.6065 11.4901C21.6065 10.6124 20.8923 9.89832 20.0146 9.89832C19.1369 9.89832 18.4228 10.6124 18.4228 11.4901C18.4228 12.2843 17.779 12.9281 16.9848 12.9281C16.1907 12.9281 15.5469 12.2843 15.5469 11.4901C15.5469 9.02668 17.5511 7.02246 20.0145 7.02246C22.478 7.02246 24.4823 9.02668 24.4823 11.4901C24.4823 12.6582 24.0318 13.7229 23.2952 14.5199C23.8748 15.1469 24.2772 15.9397 24.4225 16.8182C24.4225 16.8182 24.427 17.3004 24.3852 17.546C24.0287 19.6414 22.478 21.3142 20.0145 21.3142Z"
            fill="#FFAA5C" />
        <path
            d="M20.0146 14.4942C19.488 14.4942 19.0288 14.2103 18.7784 13.7881C18.651 14.0026 18.5767 14.2523 18.5767 14.5199C18.5767 15.3141 19.2204 15.9579 20.0146 15.9579C20.6285 15.9579 21.1613 16.3077 21.4267 16.8179C21.5409 16.5986 21.6065 16.35 21.6065 16.0861C21.6064 15.2082 20.8923 14.4942 20.0146 14.4942Z"
            fill="#EA9957" />
        <path
            d="M20.0146 20.5536C17.8733 20.5536 16.0797 19.039 15.647 17.025C15.5832 17.1877 15.5469 17.3642 15.5469 17.5496C15.5469 20.0131 17.5511 22.0173 20.0146 22.0173C22.4781 22.0173 24.4823 20.0131 24.4823 17.5496C24.4823 17.3005 24.4607 17.0565 24.4213 16.8184C24.0707 18.9345 22.2287 20.5536 20.0146 20.5536Z"
            fill="#EA9957" />
    </g>
    <defs>
        <clipPath id="clip0_1717_30135">
            <rect width="40" height="40" fill="white" />
        </clipPath>
    </defs>
</svg>
    