<svg width="40" height="40" viewBox="0 0 40 40" fill="none" xmlns="http://www.w3.org/2000/svg">
    <g clip-path="url(#clip0_1717_29972)">
        <path
            d="M12.1116 27.7432L10.5258 27.8205L7.45127 36.6538C7.3533 36.9351 7.58127 37.2229 7.8776 37.1918L12.1872 36.7405C12.3076 36.7279 12.4273 36.7696 12.5138 36.8542L15.6119 39.8838C15.8249 40.0921 16.1822 40.0081 16.2801 39.7268L19.3747 30.8357L18.4622 29.9501L12.1116 27.7432Z"
            fill="#FF4755" />
        <path
            d="M19.3748 30.8356L20.0001 29.0391L11.1493 26.0293L10.5259 27.8205C13.0392 29.6138 16.0823 30.7116 19.3748 30.8356Z"
            fill="#FC2B3A" />
        <path
            d="M27.8885 27.7432L29.4743 27.8205L32.5488 36.6538C32.6468 36.9351 32.4188 37.2229 32.1225 37.1918L27.8129 36.7405C27.6925 36.7279 27.5728 36.7696 27.4863 36.8542L24.3883 39.8838C24.1753 40.0921 23.818 40.0081 23.7201 39.7268L20.6255 30.8357L21.538 29.9501L27.8885 27.7432Z"
            fill="#FF4755" />
        <path
            d="M20.6253 30.8356L20 29.0391L28.8508 26.0293L29.4742 27.8205C26.9609 29.6138 23.9178 30.7116 20.6253 30.8356Z"
            fill="#FC2B3A" />
        <path
            d="M20.0003 28.1341C5.4806 28.1341 5.48669 14.0302 5.49872 13.7878C5.8799 6.10891 12.2267 0 20.0003 0C27.7739 0 34.1207 6.10891 34.5019 13.7879C34.5139 14.0303 34.52 28.1341 20.0003 28.1341Z"
            fill="#FFE27A" />
        <path
            d="M20.0002 27.5755C12.2266 27.5755 5.88 21.4666 5.49875 13.7876C5.48672 14.03 5.48047 14.274 5.48047 14.5194C5.48047 22.5384 11.9812 29.0391 20.0002 29.0391C28.0191 29.0391 34.5198 22.5384 34.5198 14.5194C34.5198 14.2739 34.5136 14.03 34.5016 13.7876C34.1203 21.4666 27.7738 27.5755 20.0002 27.5755Z"
            fill="#F9CF58" />
        <path
            d="M20.0004 25.0097C8.58499 25.0097 8.56968 13.7845 8.58499 13.5425C8.96242 7.56625 13.929 2.83594 20.0004 2.83594C26.0718 2.83594 31.0384 7.56625 31.4158 13.5425C31.4311 13.7845 31.4158 25.0097 20.0004 25.0097Z"
            fill="#FFBA57" />
        <path
            d="M20 24.4942C13.9286 24.4942 8.96293 19.7638 8.58551 13.7876C8.5702 14.0296 8.56152 14.2735 8.56152 14.5194C8.56152 20.8367 13.6827 25.9578 20 25.9578C26.3172 25.9578 31.4384 20.8367 31.4384 14.5194C31.4384 14.2735 31.4297 14.0296 31.4144 13.7876C31.037 19.7638 26.0713 24.4942 20 24.4942Z"
            fill="#FFAC3E" />
        <path
            d="M20.6524 21.3138C19.8583 21.3138 19.2145 20.6701 19.2145 19.8759V19.1153V11.8172C19.2145 11.8172 18.3541 12.6801 17.3246 12.1624C16.522 11.7587 16.522 10.7197 16.522 10.7197L18.2949 7.72705C18.5538 7.29002 19.0241 7.02197 19.5321 7.02197H20.6524C21.4466 7.02197 22.0904 7.66572 22.0904 8.45994V19.1153V19.8759C22.0904 20.6701 21.4466 21.3138 20.6524 21.3138Z"
            fill="#FFE27A" />
        <path
            d="M19.0171 10.6876C18.6354 11.3319 17.8239 11.6112 17.1472 11.2905C16.8732 11.1608 16.6621 10.9591 16.5217 10.721C16.1224 11.3965 16.3386 12.2654 17.0034 12.676C17.689 13.0994 18.6052 12.8466 19.0158 12.1533L19.2147 11.8174V10.7415C19.2147 10.6336 19.0722 10.5946 19.0171 10.6876Z"
            fill="#F9CF58" />
        <path
            d="M20.6528 20.5537C19.8587 20.5537 19.2148 19.9099 19.2148 19.1157V20.5794C19.2148 21.3736 19.8587 22.0174 20.6528 22.0174C21.447 22.0174 22.0908 21.3736 22.0908 20.5794V19.1157C22.0908 19.9099 21.447 20.5537 20.6528 20.5537Z"
            fill="#F9CF58" />
    </g>
    <defs>
        <clipPath id="clip0_1717_29972">
            <rect width="40" height="40" fill="white" />
        </clipPath>
    </defs>
</svg>
    