<svg width="33" height="32" viewBox="0 0 33 32" fill="none" xmlns="http://www.w3.org/2000/svg">
    <g clip-path="url(#clip0_2808_13412)">
    <path d="M27.1667 0H5.83333C4.41885 0 3.06229 0.561903 2.0621 1.5621C1.0619 2.56229 0.5 3.91885 0.5 5.33333L0.5 21.3333C0.5 22.7478 1.0619 24.1044 2.0621 25.1046C3.06229 26.1048 4.41885 26.6667 5.83333 26.6667H9.7L15.6347 31.684C15.8754 31.8877 16.1806 31.9995 16.496 31.9995C16.8114 31.9995 17.1166 31.8877 17.3573 31.684L23.3 26.6667H27.1667C28.5812 26.6667 29.9377 26.1048 30.9379 25.1046C31.9381 24.1044 32.5 22.7478 32.5 21.3333V5.33333C32.5 3.91885 31.9381 2.56229 30.9379 1.5621C29.9377 0.561903 28.5812 0 27.1667 0V0ZM29.8333 21.3333C29.8333 22.0406 29.5524 22.7189 29.0523 23.219C28.5522 23.719 27.8739 24 27.1667 24H23.3C22.6697 24.0002 22.0599 24.2236 21.5787 24.6307L16.5 28.92L11.424 24.6307C10.9421 24.223 10.3312 23.9996 9.7 24H5.83333C5.12609 24 4.44781 23.719 3.94772 23.219C3.44762 22.7189 3.16667 22.0406 3.16667 21.3333V5.33333C3.16667 4.62609 3.44762 3.94781 3.94772 3.44772C4.44781 2.94762 5.12609 2.66667 5.83333 2.66667H27.1667C27.8739 2.66667 28.5522 2.94762 29.0523 3.44772C29.5524 3.94781 29.8333 4.62609 29.8333 5.33333V21.3333Z" fill="#D8EDDD"/>
    <path d="M9.83333 9.33365H16.5C16.8536 9.33365 17.1928 9.19318 17.4428 8.94313C17.6929 8.69308 17.8333 8.35394 17.8333 8.00032C17.8333 7.6467 17.6929 7.30756 17.4428 7.05752C17.1928 6.80747 16.8536 6.66699 16.5 6.66699H9.83333C9.47971 6.66699 9.14057 6.80747 8.89052 7.05752C8.64048 7.30756 8.5 7.6467 8.5 8.00032C8.5 8.35394 8.64048 8.69308 8.89052 8.94313C9.14057 9.19318 9.47971 9.33365 9.83333 9.33365Z" fill="#D8EDDD"/>
    <path d="M23.1667 12H9.83333C9.47971 12 9.14057 12.1405 8.89052 12.3905C8.64048 12.6406 8.5 12.9797 8.5 13.3333C8.5 13.687 8.64048 14.0261 8.89052 14.2761C9.14057 14.5262 9.47971 14.6667 9.83333 14.6667H23.1667C23.5203 14.6667 23.8594 14.5262 24.1095 14.2761C24.3595 14.0261 24.5 13.687 24.5 13.3333C24.5 12.9797 24.3595 12.6406 24.1095 12.3905C23.8594 12.1405 23.5203 12 23.1667 12Z" fill="#D8EDDD"/>
    <path d="M23.1667 17.333H9.83333C9.47971 17.333 9.14057 17.4735 8.89052 17.7235C8.64048 17.9736 8.5 18.3127 8.5 18.6663C8.5 19.02 8.64048 19.3591 8.89052 19.6092C9.14057 19.8592 9.47971 19.9997 9.83333 19.9997H23.1667C23.5203 19.9997 23.8594 19.8592 24.1095 19.6092C24.3595 19.3591 24.5 19.02 24.5 18.6663C24.5 18.3127 24.3595 17.9736 24.1095 17.7235C23.8594 17.4735 23.5203 17.333 23.1667 17.333Z" fill="#D8EDDD"/>
    </g>
    <defs>
    <clipPath id="clip0_2808_13412">
    <rect width="32" height="32" fill="white" transform="translate(0.5)"/>
    </clipPath>
    </defs>
    </svg>
    