<svg width="24" height="24" viewBox="0 0 24 24" fill="none" xmlns="http://www.w3.org/2000/svg">
    <path d="M9.36547 8.12197H21.0435C22.0134 8.12197 22.7996 8.90822 22.7996 9.87807V16.6233C22.7996 17.5931 22.0134 18.3794 21.0435 18.3794H18.7811L17.268 21L15.755 18.3794H9.36547C8.39562 18.3794 7.60938 17.5931 7.60938 16.6233V9.87807C7.60938 8.90822 8.39562 8.12197 9.36547 8.12197Z" fill="#FF9800"/>
    <path fill-rule="evenodd" clip-rule="evenodd" d="M17.2703 21.5996C17.4847 21.5996 17.6828 21.4853 17.79 21.2996L19.1298 18.979H21.0459C22.3471 18.979 23.402 17.9241 23.402 16.6229V9.87768C23.402 8.57646 22.3471 7.52158 21.0459 7.52158H16.48C16.1486 7.52158 15.88 7.79021 15.88 8.12158C15.88 8.45295 16.1486 8.72158 16.48 8.72158H21.0459C21.6844 8.72158 22.202 9.23919 22.202 9.87768V16.6229C22.202 17.2614 21.6844 17.779 21.0459 17.779H18.7834C18.569 17.779 18.371 17.8933 18.2638 18.079L17.2703 19.7996L16.2769 18.079C16.1698 17.8933 15.9717 17.779 15.7573 17.779H9.36782C8.72934 17.779 8.21172 17.2614 8.21172 16.6229V13.2435C8.21172 12.9121 7.94309 12.6435 7.61172 12.6435C7.28035 12.6435 7.01172 12.9121 7.01172 13.2435V16.6229C7.01172 17.9241 8.0666 18.979 9.36782 18.979H15.4109L16.7507 21.2996C16.8579 21.4852 17.056 21.5996 17.2703 21.5996Z" fill="black"/>
    <path d="M14.6373 2.91201H2.95922C1.98937 2.91201 1.20312 3.69826 1.20312 4.66811V11.4133C1.20312 12.3832 1.98937 13.1694 2.95922 13.1694H3.57386L5.08691 15.79L6.59992 13.1694H14.6373C15.6071 13.1694 16.3934 12.3832 16.3934 11.4133V4.66811C16.3934 3.69826 15.6071 2.91201 14.6373 2.91201Z" fill="white"/>
    <path fill-rule="evenodd" clip-rule="evenodd" d="M5.08535 16.3896C5.29971 16.3896 5.49778 16.2753 5.60496 16.0896L6.94477 13.769H14.6357C15.937 13.769 16.9918 12.7141 16.9918 11.4129V4.66772C16.9918 3.36651 15.937 2.31162 14.6357 2.31162H2.95766C1.65644 2.31162 0.601562 3.3665 0.601562 4.66772V11.4129C0.601562 12.7141 1.65644 13.769 2.95766 13.769H3.22589L4.56573 16.0897C4.67292 16.2753 4.87099 16.3896 5.08535 16.3896ZM5.08534 14.5897L4.09191 12.869C3.98473 12.6834 3.78665 12.569 3.57229 12.569H2.95766C2.31918 12.569 1.80156 12.0514 1.80156 11.4129V4.66772C1.80156 4.02924 2.31918 3.51162 2.95766 3.51162H14.6357C15.2742 3.51162 15.7918 4.02923 15.7918 4.66772V11.4129C15.7918 12.0514 15.2742 12.569 14.6357 12.569H6.59836C6.384 12.569 6.18592 12.6834 6.07874 12.869L5.08534 14.5897Z" fill="black"/>
    <path d="M11.957 8.04009C11.957 7.45817 12.4288 6.98643 13.0107 6.98643C13.5926 6.98643 14.0643 7.45817 14.0643 8.04009C14.0643 8.62202 13.5926 9.09375 13.0107 9.09375C12.4288 9.09375 11.957 8.62202 11.957 8.04009Z" fill="white"/>
    <path d="M7.74219 8.04009C7.74219 7.45817 8.21392 6.98643 8.79585 6.98643C9.37777 6.98643 9.8495 7.45817 9.8495 8.04009C9.8495 8.62202 9.37777 9.09375 8.79585 9.09375C8.21392 9.09375 7.74219 8.62202 7.74219 8.04009Z" fill="white"/>
    <path d="M3.52734 8.04009C3.52734 7.45817 3.99908 6.98643 4.581 6.98643C5.16293 6.98643 5.63466 7.45817 5.63466 8.04009C5.63466 8.62202 5.16293 9.09375 4.581 9.09375C3.99908 9.09375 3.52734 8.62202 3.52734 8.04009Z" fill="white"/>
    <path fill-rule="evenodd" clip-rule="evenodd" d="M11.3594 8.04068C11.3594 8.95398 12.0997 9.69434 13.013 9.69434C13.9263 9.69434 14.6667 8.95398 14.6667 8.04068C14.6667 7.12738 13.9263 6.38702 13.013 6.38702C12.0997 6.38702 11.3594 7.12738 11.3594 8.04068ZM13.013 8.49434C12.7625 8.49434 12.5594 8.29123 12.5594 8.04068C12.5594 7.79012 12.7625 7.58702 13.013 7.58702C13.2636 7.58702 13.4667 7.79012 13.4667 8.04068C13.4667 8.29123 13.2636 8.49434 13.013 8.49434Z" fill="black"/>
    <path fill-rule="evenodd" clip-rule="evenodd" d="M7.14453 8.04068C7.14453 8.95398 7.88489 9.69434 8.79819 9.69434C9.71149 9.69434 10.4518 8.95398 10.4518 8.04068C10.4518 7.12738 9.71149 6.38702 8.79819 6.38702C7.88489 6.38702 7.14453 7.12738 7.14453 8.04068ZM8.79819 8.49434C8.54763 8.49434 8.34453 8.29123 8.34453 8.04068C8.34453 7.79012 8.54763 7.58702 8.79819 7.58702C9.04875 7.58702 9.25185 7.79012 9.25185 8.04068C9.25185 8.29123 9.04875 8.49434 8.79819 8.49434Z" fill="black"/>
    <path fill-rule="evenodd" clip-rule="evenodd" d="M2.92969 8.04068C2.92969 8.95398 3.67005 9.69434 4.58335 9.69434C5.49664 9.69434 6.237 8.95398 6.237 8.04068C6.237 7.12738 5.49664 6.38702 4.58335 6.38702C3.67005 6.38702 2.92969 7.12738 2.92969 8.04068ZM4.58335 8.49434C4.33279 8.49434 4.12969 8.29123 4.12969 8.04068C4.12969 7.79012 4.33279 7.58702 4.58335 7.58702C4.8339 7.58702 5.037 7.79012 5.037 8.04068C5.037 8.29123 4.8339 8.49434 4.58335 8.49434Z" fill="black"/>
    </svg>
    