<svg width="60" height="60" viewBox="0 0 60 60" fill="none" xmlns="http://www.w3.org/2000/svg">
    <g clip-path="url(#clip0_3341_22052)">
        <path d="M40.1348 27.3171H45.7191V31.2196H40.1348V27.3171Z" fill="black" fill-opacity="0.4" />
        <path d="M19.8887 31.2196H13.8835V27.3171H19.8887V31.2196Z" fill="#3A3335" />
        <path d="M28.0488 48.0487H31.9513V58.0487H28.0488V48.0487Z" fill="#3A3335" />
        <path
            d="M40.4767 29.2569H30.0011H19.5254V10.9755C19.5254 5.19006 24.2155 0.5 30.0011 0.5C35.7866 0.5 40.4766 5.19005 40.4766 10.9755L40.4767 29.2569Z"
            fill="#D8EDDD" stroke="#3A3335" />
        <path
            d="M30.0003 0C29.4195 0 28.8494 0.0454688 28.293 0.132422C33.5437 0.952617 37.5612 5.4948 37.5612 10.9757V23.9025L39.2893 25.0421L40.9758 23.9025V10.9755C40.9759 4.91391 36.0619 0 30.0003 0Z"
            fill="black" fill-opacity="0.1" />
        <path
            d="M38.696 27.3171L37.5619 23.9025H19.0254V31.2195C19.0254 37.2812 23.9393 42.1951 30.0009 42.1951C33.5411 42.1951 36.6891 40.5186 38.696 37.9168V27.3171Z"
            fill="#3A3335" />
        <path
            d="M30.0003 42.1951C29.4195 42.1951 28.8494 42.1496 28.293 42.0627C33.5437 41.2425 37.5612 36.7003 37.5612 31.2194V23.9023H40.9758V31.2194C40.9759 37.2812 36.0619 42.1951 30.0003 42.1951Z"
            fill="#252525" />
        <path
            d="M30 33.9023C31.0776 33.9023 31.9512 33.0288 31.9512 31.9512C31.9512 30.8736 31.0776 30 30 30C28.9224 30 28.0488 30.8736 28.0488 31.9512C28.0488 33.0288 28.9224 33.9023 30 33.9023Z"
            fill="#FE646F" />
        <path
            d="M47.8058 23.9023H45.8546C45.3158 23.9023 44.8791 24.3391 44.8791 24.8779V31.2194C44.8791 39.4364 38.2179 46.0974 30.0011 46.0974C21.7841 46.0974 15.123 39.4363 15.123 31.2194V24.8779C15.123 24.3391 14.6863 23.9023 14.1475 23.9023H12.1963C11.6575 23.9023 11.2207 24.3391 11.2207 24.8779V31.2194C11.2207 40.9327 18.5947 48.9233 28.05 49.8993L28.4101 49.8998L29.7217 49.7995L32.2954 49.4586L32.5883 49.8218C41.7361 48.5612 48.7819 40.7138 48.7819 31.2194V24.8779C48.7814 24.3392 48.3446 23.9023 47.8058 23.9023Z"
            fill="#3A3335" />
        <path
            d="M47.8049 23.9023H45.8537C45.3149 23.9023 44.8781 24.3391 44.8781 24.8779V31.2194C44.8781 40.9326 37.5041 48.9233 28.0488 49.8993C28.6902 49.9655 29.3411 49.9999 30 49.9999C40.3721 49.9999 48.7805 41.5916 48.7805 31.2194V24.8779C48.7805 24.3392 48.3437 23.9023 47.8049 23.9023Z"
            fill="#252525" />
        <path
            d="M43.9035 60H16.0986C15.5598 60 15.123 59.5632 15.123 59.0244V57.0732C15.123 56.5344 15.5598 56.0977 16.0986 56.0977H43.9035C44.4423 56.0977 44.8791 56.5344 44.8791 57.0732V59.0244C44.8791 59.5632 44.4423 60 43.9035 60Z"
            fill="#3A3335" />
        <path
            d="M43.9029 56.0975H40.4883C41.0271 56.0975 41.4639 56.5343 41.4639 57.0731V59.0243C41.4639 59.5631 41.0271 59.9999 40.4883 59.9999H43.9029C44.4417 59.9999 44.8785 59.5631 44.8785 59.0243V57.0731C44.8785 56.5344 44.4417 56.0975 43.9029 56.0975Z"
            fill="#252525" />
        <path
            d="M24.1465 20.8789C24.6319 20.8789 25.0254 20.4854 25.0254 20C25.0254 19.5146 24.6319 19.1211 24.1465 19.1211C23.6611 19.1211 23.2676 19.5146 23.2676 20C23.2676 20.4854 23.6611 20.8789 24.1465 20.8789Z"
            fill="#3A3335" />
        <path
            d="M28.0488 20.8789C28.5342 20.8789 28.9277 20.4854 28.9277 20C28.9277 19.5146 28.5342 19.1211 28.0488 19.1211C27.5634 19.1211 27.1699 19.5146 27.1699 20C27.1699 20.4854 27.5634 20.8789 28.0488 20.8789Z"
            fill="#3A3335" />
        <path
            d="M31.9512 20.8789C32.4366 20.8789 32.8301 20.4854 32.8301 20C32.8301 19.5146 32.4366 19.1211 31.9512 19.1211C31.4658 19.1211 31.0723 19.5146 31.0723 20C31.0723 20.4854 31.4658 20.8789 31.9512 20.8789Z"
            fill="#3A3335" />
        <path
            d="M35.8535 20.8789C36.3389 20.8789 36.7324 20.4854 36.7324 20C36.7324 19.5146 36.3389 19.1211 35.8535 19.1211C35.3681 19.1211 34.9746 19.5146 34.9746 20C34.9746 20.4854 35.3681 20.8789 35.8535 20.8789Z"
            fill="#3A3335" />
    </g>
    <defs>
        <clipPath id="clip0_3341_22052">
            <rect width="60" height="60" fill="white" />
        </clipPath>
    </defs>
</svg>