<svg width="60" height="60" viewBox="0 0 60 60" fill="none" xmlns="http://www.w3.org/2000/svg">
    <path
        d="M14.4533 45.2162C14.4533 45.2162 12.1782 45.8942 11.3976 45.1136C10.6171 44.333 11.3976 42.3307 11.3976 42.3307L15.5164 41.5164"
        fill="white" />
    <path
        d="M31.668 42.3307C31.668 42.3307 32.4485 44.3331 31.668 45.1136C30.8874 45.8941 28.6123 45.2162 28.6123 45.2162L25.9864 40.9383H30.4828L31.668 42.3307Z"
        fill="white" />
    <path
        d="M17.7518 47.9717L18.7176 51.7402L21.5329 52.875L22.7903 52.368L24.3482 51.7402L25.314 47.9717L23.4142 46.9527L21.361 45.8517L17.7518 47.9717Z"
        fill="white" />
    <path d="M22.7903 52.3677L24.3482 51.7399L25.314 47.9714L23.4142 46.9525L22.7903 52.3677Z"
        fill="black" fill-opacity="0.2" />
    <path d="M20.2267 46.2265H21.533V52.0503H20.2267V46.2265Z" fill="black" fill-opacity="0.2" />
    <path
        d="M6.09595 29.6651C6.09595 29.6651 8.79342 32.6398 15.5231 31.9782H27.5424C34.273 32.6398 36.9705 29.6651 36.9705 29.6651C35.3808 28.0754 35.4291 24.6556 35.4291 18.5856C35.4291 12.5155 33.0204 6.0003 21.5332 6.0003C10.046 6.0003 7.63736 12.5155 7.63736 18.5856C7.63736 24.6556 7.68565 28.0754 6.09595 29.6651Z"
        fill="#FF9800" />
    <path
        d="M26.1709 18.4136V31.9782H27.5424C34.273 32.6398 36.9705 29.6651 36.9705 29.6651C35.3808 28.0755 35.4291 24.6556 35.4291 18.5856C35.4291 12.5155 33.0204 6.0003 21.5332 6.0003C26.8538 6.0003 26.1709 13.039 26.1709 18.4136Z"
        fill="#F26722" />
    <path
        d="M14.4942 42.3305C14.4942 42.3305 14.2586 45.0125 14.6458 47.9717H28.42C28.8063 45.0125 28.5707 42.3305 28.5707 42.3305H31.668C31.668 33.6712 28.1515 30.8105 27.5421 30.3797H15.5228C14.9134 30.8105 11.3979 33.6712 11.3979 42.3305H14.4942Z"
        fill="#FF9800" />
    <path
        d="M23.8663 32.9092C26.0509 36.6352 25.7293 43.9569 25.314 47.9717H28.42C28.8063 45.0125 28.5707 42.3305 28.5707 42.3305H31.668C31.668 33.6712 28.1515 30.8105 27.5421 30.3797H23.5794C23.3351 31.2007 23.3679 32.0593 23.8663 32.9092Z"
        fill="#F26722" />
    <path
        d="M16.6195 30.7281C16.6195 28.7576 18.8194 27.1601 21.533 27.1601C24.2467 27.1601 26.4465 28.7576 26.4465 30.7281C26.4465 32.6986 24.2467 34.2959 21.533 34.2959C18.8194 34.2959 16.6195 32.6986 16.6195 30.7281Z"
        fill="white" />
    <path
        d="M16.623 30.5979C16.6201 30.6413 16.6191 30.6848 16.6191 30.7283C16.6191 32.6985 18.8192 34.2959 21.5331 34.2959C24.2469 34.2959 26.447 32.6985 26.447 30.7283C26.447 30.6848 26.4461 30.6413 26.4432 30.5979"
        stroke="black" stroke-width="2" stroke-miterlimit="10" stroke-linecap="round"
        stroke-linejoin="round" />
    <path
        d="M11.595 25.3335C11.7408 28.2009 14.0355 30.4841 16.9049 30.6193C19.162 30.7255 21.419 30.7545 23.677 30.7052C23.6799 30.7052 23.6838 30.7052 23.6867 30.7043C24.5115 30.6869 25.3363 30.6579 26.1611 30.6193C29.0295 30.4841 31.3242 28.2009 31.471 25.3335C31.5763 23.2899 31.5869 21.2472 31.5058 19.2036H31.5048C31.5048 19.2036 29.1473 19.0838 26.1707 18.4136C23.5254 17.8186 20.3914 16.7881 17.9895 15.0207C17.9895 15.0207 15.4842 19.2036 11.5602 19.2036C11.4781 21.2472 11.4897 23.2899 11.595 25.3335Z"
        fill="white" />
    <path
        d="M23.6869 30.7041C24.5117 30.6867 25.3365 30.6577 26.1613 30.6191C29.0297 30.4839 31.3244 28.2008 31.4712 25.3333C31.5765 23.2897 31.5871 21.247 31.506 19.2034H31.5051C31.5051 19.2034 29.1475 19.0837 26.171 18.4134V18.4144C26.8354 24.1126 26.1632 30.6017 23.6869 30.7041Z"
        fill="black" fill-opacity="0.1" />
    <path
        d="M23.5708 24.4963C23.209 25.2586 22.4319 25.7852 21.5329 25.7852C20.6338 25.7852 19.8567 25.2586 19.495 24.4963"
        stroke="black" stroke-width="2" stroke-miterlimit="10" stroke-linecap="round"
        stroke-linejoin="round" />
    <path
        d="M25.2845 21.0993C25.2845 21.8333 25.6811 22.4282 26.1704 22.4282C26.6597 22.4282 27.0564 21.8333 27.0564 21.0993C27.0564 20.3654 26.6597 19.7704 26.1704 19.7704C25.6811 19.7704 25.2845 20.3654 25.2845 21.0993Z"
        fill="black" />
    <path
        d="M16.0091 21.0993C16.0091 21.8333 16.4057 22.4282 16.895 22.4282C17.3844 22.4282 17.781 21.8333 17.781 21.0993C17.781 20.3654 17.3844 19.7704 16.895 19.7704C16.4057 19.7704 16.0091 20.3654 16.0091 21.0993Z"
        fill="black" />
    <path
        d="M30.7314 19.1426C28.5371 18.9359 22.161 18.0899 17.9897 15.0206C17.9897 15.0206 15.4844 19.2035 11.5604 19.2035C11.4783 21.2471 11.4899 23.2897 11.5952 25.3333C11.741 28.2008 14.0357 30.4839 16.9051 30.6191C19.9899 30.765 23.0756 30.765 26.1613 30.6191C29.0297 30.4839 31.3244 28.2008 31.4712 25.3333C31.5021 24.7375 31.5243 24.1416 31.5388 23.5457"
        stroke="black" stroke-width="2" stroke-miterlimit="10" stroke-linecap="round"
        stroke-linejoin="round" />
    <path
        d="M15.5228 30.3797C14.9134 30.8105 11.3979 33.6712 11.3979 42.3305H14.4942C14.4942 42.3305 14.2586 45.0125 14.6458 47.9717H28.42C28.8063 45.0125 28.5707 42.3305 28.5707 42.3305H31.668C31.668 33.6712 28.1515 30.8105 27.5421 30.3797"
        stroke="black" stroke-width="2" stroke-miterlimit="10" stroke-linecap="round"
        stroke-linejoin="round" />
    <path d="M31.668 45.1137C30.8876 45.8941 28.6122 45.2161 28.6122 45.2161" stroke="black"
        stroke-width="2" stroke-miterlimit="10" stroke-linejoin="round" />
    <path
        d="M11.3974 42.3307C11.3974 42.3307 10.6169 44.3331 11.3974 45.1136C12.178 45.8941 14.4531 45.2162 14.4531 45.2162"
        fill="black" fill-opacity="0.1" />
    <path
        d="M11.3974 42.3307C11.3974 42.3307 10.6169 44.3331 11.3974 45.1136C12.178 45.8941 14.4531 45.2162 14.4531 45.2162"
        stroke="black" stroke-width="2" stroke-miterlimit="10" stroke-linejoin="round" />
    <path d="M28.5708 42.3306C28.5708 40.2174 27.8028 38.1693 27.8028 38.1693" stroke="black"
        stroke-width="2" stroke-miterlimit="10" stroke-linecap="round" stroke-linejoin="round" />
    <path d="M14.4947 42.3306C14.4947 40.2174 15.2627 38.1693 15.2627 38.1693" stroke="black"
        stroke-width="2" stroke-miterlimit="10" stroke-linecap="round" stroke-linejoin="round" />
    <path d="M26.8074 54H21.5331V51.7398H24.5473C25.7955 51.7398 26.8074 52.7518 26.8074 54Z"
        fill="#FF9800" />
    <path
        d="M23.1064 51.7396C24.3544 51.7396 25.3668 52.7519 25.3668 54H26.8074C26.8074 52.7519 25.796 51.7396 24.5479 51.7396H23.1064Z"
        fill="#F26722" />
    <path d="M16.2587 54H21.533V51.7398H18.5187C17.2705 51.7398 16.2587 52.7518 16.2587 54Z"
        fill="#70C6DA" />
    <path d="M26.8074 54H21.5331V51.7398H24.5473C25.7955 51.7398 26.8074 52.7518 26.8074 54Z"
        fill="black" stroke="black" stroke-width="2" stroke-miterlimit="10" stroke-linejoin="round" />
    <path d="M16.2587 54H21.533V51.7398H18.5187C17.2705 51.7398 16.2587 52.7518 16.2587 54Z"
        fill="black" stroke="black" stroke-width="2" stroke-miterlimit="10" stroke-linejoin="round" />
    <path d="M25.3142 47.9714H21.533V51.7397H24.3484L25.3142 47.9714Z" stroke="black"
        stroke-width="2" stroke-miterlimit="10" stroke-linejoin="round" />
    <path d="M17.7519 47.9714H21.533V51.7397H18.7177L17.7519 47.9714Z" stroke="black"
        stroke-width="2" stroke-miterlimit="10" stroke-linejoin="round" />
    <path d="M13.948 32.0708C12.8171 32.0911 11.8223 32.0051 10.955 31.8535" stroke="black"
        stroke-width="2" stroke-miterlimit="10" stroke-linecap="round" stroke-linejoin="round" />
    <path
        d="M31.1963 8.5383C29.0831 6.98144 25.9926 6.00019 21.5335 6.00019C10.0464 6.00019 7.63767 12.5154 7.63767 18.5855C7.63767 24.6555 7.68596 28.0753 6.09626 29.665C6.09626 29.665 6.73948 30.3739 8.18141 31.0229"
        stroke="black" stroke-width="2" stroke-miterlimit="10" stroke-linecap="round"
        stroke-linejoin="round" />
    <path d="M35.2258 30.8616C33.9645 31.4904 31.974 32.122 29.1181 32.0708" stroke="black"
        stroke-width="2" stroke-miterlimit="10" stroke-linecap="round" stroke-linejoin="round" />
    <path
        d="M13.857 23.8845C13.857 24.3989 14.5185 24.8159 15.3344 24.8159C16.1503 24.8159 16.8118 24.3989 16.8118 23.8845C16.8118 23.3701 16.1503 22.9531 15.3344 22.9531C14.5185 22.9531 13.857 23.3701 13.857 23.8845Z"
        fill="#EAAC9D" />
    <path
        d="M26.254 23.8845C26.254 24.3989 26.9155 24.8159 27.7314 24.8159C28.5473 24.8159 29.2087 24.3989 29.2087 23.8845C29.2087 23.3701 28.5473 22.9531 27.7314 22.9531C26.9155 22.9531 26.254 23.3701 26.254 23.8845Z"
        fill="#EAAC9D" />
    <path
        d="M48.8826 45.2162C48.8826 45.2162 51.1577 45.8942 51.9382 45.1136C52.7188 44.333 51.9382 42.3307 51.9382 42.3307L48.0731 40.749L48.8826 45.2162Z"
        fill="white" />
    <path
        d="M31.668 42.3307C31.668 42.3307 30.8874 44.3331 31.668 45.1136C32.4485 45.8941 34.7237 45.2162 34.7237 45.2162L35.7209 41.0496L31.668 42.3307Z"
        fill="white" />
    <path
        d="M34.7652 42.3303C34.7652 42.3303 34.285 47.8038 35.8208 51.7397H40.6208C40.6208 51.7397 39.417 46.1603 41.8026 43.7738C44.189 46.1603 42.9852 51.7397 42.9852 51.7397H47.7852C49.321 47.8038 48.8408 42.3303 48.8408 42.3303H51.9385C51.9385 33.6705 48.4222 30.8105 47.8131 30.3795H35.7929C35.1838 30.8105 31.6675 33.6705 31.6675 42.3303H34.7652Z"
        fill="white" />
    <path
        d="M33.3747 42.3301H34.7653C34.7653 40.2178 35.5332 38.169 35.5332 38.169C35.5332 38.169 33.6076 38.8475 33.3747 42.3301Z"
        fill="black" fill-opacity="0.1" />
    <path
        d="M46.1704 30.3792C47.6013 32.3106 50.2083 36.6227 50.1399 42.3301H51.9385C51.9385 33.6703 48.4222 30.8104 47.8131 30.3792H46.1704Z"
        fill="black" fill-opacity="0.1" />
    <path
        d="M35.822 51.7397H40.622C40.622 51.7397 39.4181 46.1603 41.8037 43.7738C44.1892 46.1603 42.9854 51.7397 42.9854 51.7397H47.7863C49.3221 47.8039 48.842 42.3303 48.842 42.3303C48.842 41.7885 48.7909 41.2497 48.7159 40.7492H34.8914C34.8164 41.2497 34.7654 41.7885 34.7654 42.3303C34.7654 42.3303 34.2862 47.8039 35.822 51.7397Z"
        fill="#FF9800" />
    <path
        d="M46.365 51.7397H47.7863C49.3222 47.8039 48.842 42.3303 48.842 42.3303C48.842 41.7885 48.791 41.2497 48.716 40.7492H46.4381C46.9212 42.5565 47.5188 46.3085 46.365 51.7397Z"
        fill="#F26722" />
    <path
        d="M39.3689 51.7397H40.6218C40.6218 51.7397 39.418 46.1603 41.8035 43.7738C39.3689 43.7738 38.1169 47.9656 39.3689 51.7397Z"
        fill="#F26722" />
    <path d="M40.2567 33.2969H43.3497L43.8972 29.5828H39.7091L40.2567 33.2969Z" fill="#FF9800" />
    <path
        d="M31.7981 23.5596H31.7841C30.581 23.5596 29.6062 22.5838 29.6062 21.3816C29.6062 20.1784 30.581 19.2028 31.7841 19.2028C31.7998 19.2028 31.8154 19.2028 31.8311 19.2035H51.7751C51.7907 19.2028 51.8064 19.2028 51.822 19.2028C53.0252 19.2028 54 20.1784 54 21.3816C54 22.5838 53.0252 23.5596 51.822 23.5596H51.808"
        fill="#F1B986" />
    <path
        d="M30.8193 19.4287L45.6125 19.492L52.9584 19.5229C53.5185 14.4099 55.1438 7.76982 49.1722 6.58643C47.7386 6.302 46.4474 6.13337 45.287 6.05408C37.5141 5.52656 35.5806 9.03636 35.5806 9.03636C35.5806 9.03636 34.1738 7.80072 32.6443 7.92666C32.0914 7.97176 31.5218 8.19592 30.9975 8.72035C28.2316 11.4863 30.8193 19.4287 30.8193 19.4287Z"
        fill="#FF9800" />
    <path
        d="M32.6443 7.92648C34.4614 9.17486 35.6503 12.9104 36.2008 15.0396C36.7395 12.8708 36.0812 10.4834 35.5806 9.03617C35.5806 9.03617 34.1738 7.80054 32.6443 7.92648Z"
        fill="#F26722" />
    <path
        d="M46.4315 13.9814L45.6126 19.492L52.9585 19.5229C53.5184 14.4099 55.1438 7.76982 49.1722 6.58643C47.7386 6.302 46.4474 6.13338 45.287 6.05408C45.287 6.05486 45.2878 6.05486 45.2878 6.05486C48.278 7.89412 47.3544 11.1703 46.4315 13.9814Z"
        fill="#F26722" />
    <path
        d="M31.7771 21.8922C31.7771 23.0391 31.8064 24.1869 31.865 25.3338C32.0116 28.2012 34.3063 30.4841 37.1753 30.6196C39.1809 30.7146 41.1872 30.747 43.1928 30.7185H43.1936C44.2733 30.7035 45.3521 30.6702 46.4317 30.6196C49.2999 30.4841 51.5946 28.2012 51.7419 25.3338C51.8465 23.2902 51.8576 21.2474 51.776 19.2038H51.7753C50.6568 18.7895 49.9914 17.5016 49.5961 16.0695C49.1906 14.6001 47.783 13.7969 46.4317 13.9814C45.905 14.0536 45.3861 14.2761 44.9395 14.6674C44.0419 15.4532 42.9228 15.8461 41.8035 15.8461C40.6843 15.8461 39.5642 15.4532 38.6668 14.6674C38.1107 14.1803 37.4446 13.9554 36.7887 13.9554C35.565 13.9554 34.3776 14.7395 34.01 16.0695C33.6156 17.5016 32.9502 18.7895 31.831 19.2038C31.7945 20.1004 31.7771 20.9963 31.7771 21.8922Z"
        fill="white" />
    <path
        d="M43.1936 30.7183C44.2733 30.7032 45.3521 30.67 46.4317 30.6193C49.3 30.4838 51.5946 28.201 51.742 25.3336C51.8466 23.29 51.8576 21.2471 51.7761 19.2035H51.7752C50.6568 18.7893 49.9915 17.5013 49.5962 16.0692C49.1906 14.5998 47.7831 13.7967 46.4317 13.9812C47.4575 23.1403 46.4317 30.6176 43.1936 30.7183Z"
        fill="black" fill-opacity="0.1" />
    <path
        d="M51.808 23.5596H51.822C53.0252 23.5596 54 22.5838 54 21.3816C54 20.1784 53.0252 19.2028 51.822 19.2028C51.8064 19.2028 51.7907 19.2028 51.7751 19.2035"
        stroke="black" stroke-width="2" stroke-miterlimit="10" stroke-linejoin="round" />
    <path
        d="M31.7981 23.5596H31.7841C30.581 23.5596 29.6062 22.5838 29.6062 21.3816C29.6062 20.1784 30.581 19.2028 31.7841 19.2028C31.7998 19.2028 31.8154 19.2028 31.8311 19.2035"
        stroke="black" stroke-width="2" stroke-miterlimit="10" stroke-linejoin="round" />
    <path
        d="M45.5547 20.6164C45.5547 21.3504 45.9514 21.9453 46.4406 21.9453C46.93 21.9453 47.3267 21.3504 47.3267 20.6164C47.3267 19.8825 46.93 19.2874 46.4406 19.2874C45.9514 19.2874 45.5547 19.8825 45.5547 20.6164Z"
        fill="black" />
    <path
        d="M36.2796 20.6164C36.2796 21.3504 36.6762 21.9453 37.1655 21.9453C37.6549 21.9453 38.0515 21.3504 38.0515 20.6164C38.0515 19.8825 37.6549 19.2874 37.1655 19.2874C36.6762 19.2874 36.2796 19.8825 36.2796 20.6164Z"
        fill="black" />
    <path
        d="M43.7177 15.4455C43.1083 15.7131 42.4554 15.8464 41.8035 15.8464C40.6832 15.8464 39.5648 15.4533 38.6666 14.6671C38.1113 14.1804 37.4449 13.9553 36.7891 13.9553C35.5654 13.9553 34.3775 14.7396 34.0105 16.0695C33.6155 17.5008 32.9501 18.7901 31.8307 19.2035C31.795 20.1007 31.7766 20.9979 31.7766 21.8951C31.7766 23.0415 31.8056 24.187 31.8645 25.3333C32.0113 28.2008 34.306 30.4839 37.1754 30.6191C40.2601 30.765 43.3459 30.765 46.4316 30.6191C49.3 30.4839 51.5947 28.2008 51.7415 25.3333C51.8458 23.2897 51.8574 21.2471 51.7753 19.2035C50.656 18.7901 49.9905 17.5008 49.5965 16.0695C49.1706 14.529 47.6427 13.7197 46.2336 14.0162"
        stroke="black" stroke-width="2" stroke-miterlimit="10" stroke-linecap="round"
        stroke-linejoin="round" />
    <path
        d="M52.9581 19.5225C53.5184 14.4097 55.1441 7.76961 49.1722 6.58661C38.1355 4.40034 35.5805 9.03635 35.5805 9.03635C35.5805 9.03635 32.9728 6.74471 30.9972 8.72025C28.2316 11.486 30.8193 19.4282 30.8193 19.4282"
        stroke="black" stroke-width="2" stroke-miterlimit="10" stroke-linecap="round"
        stroke-linejoin="round" />
    <path
        d="M35.7931 30.3793C35.184 30.8102 31.668 33.6704 31.668 42.3305H34.765C34.765 42.3305 34.285 47.8037 35.8211 51.7397H40.6212C40.6212 51.7397 39.4174 46.1596 41.8031 43.7739C44.1887 46.1596 42.985 51.7397 42.985 51.7397H47.7851C49.3211 47.8037 48.8411 42.3305 48.8411 42.3305H51.9382C51.9382 33.6704 48.4221 30.8102 47.813 30.3793"
        stroke="black" stroke-width="2" stroke-miterlimit="10" stroke-linecap="round"
        stroke-linejoin="round" />
    <path
        d="M51.9382 42.3307C51.9382 42.3307 52.7188 44.3331 51.9382 45.1136C51.1577 45.8941 48.8826 45.2162 48.8826 45.2162"
        fill="black" fill-opacity="0.1" />
    <path
        d="M51.9382 42.3307C51.9382 42.3307 52.7188 44.3331 51.9382 45.1136C51.1577 45.8941 48.8826 45.2162 48.8826 45.2162"
        stroke="black" stroke-width="2" stroke-miterlimit="10" stroke-linejoin="round" />
    <path
        d="M31.668 42.3307C31.668 42.3307 30.8874 44.3331 31.668 45.1136C32.4485 45.8941 34.7236 45.2162 34.7236 45.2162"
        fill="black" fill-opacity="0.1" />
    <path
        d="M31.668 42.3307C31.668 42.3307 30.8874 44.3331 31.668 45.1136C32.4485 45.8941 34.7236 45.2162 34.7236 45.2162"
        stroke="black" stroke-width="2" stroke-miterlimit="10" stroke-linejoin="round" />
    <path d="M48.8411 42.3306C48.8411 40.2174 48.0731 38.1693 48.0731 38.1693" stroke="black"
        stroke-width="2" stroke-miterlimit="10" stroke-linecap="round" stroke-linejoin="round" />
    <path d="M34.765 42.3306C34.765 40.2174 35.533 38.1693 35.533 38.1693" stroke="black"
        stroke-width="2" stroke-miterlimit="10" stroke-linecap="round" stroke-linejoin="round" />
    <path d="M34.8911 40.749H41.803H48.7148" stroke="black" stroke-width="2" stroke-miterlimit="10"
        stroke-linecap="round" stroke-linejoin="round" />
    <path d="M39.8753 30.7099L40.2563 33.2969H43.3495L43.7305 30.7099" stroke="black"
        stroke-width="2" stroke-miterlimit="10" stroke-linejoin="round" />
    <path
        d="M43.3495 33.2968H40.2564L39.7089 37.0109L41.8029 38.5122L43.897 37.0109L43.3495 33.2968Z"
        fill="#FF9800" />
    <path
        d="M43.3495 33.2968H40.2564L39.7089 37.0109L41.8029 38.5122L43.897 37.0109L43.3495 33.2968Z"
        stroke="black" stroke-width="2" stroke-miterlimit="10" stroke-linejoin="round" />
    <path d="M41.8027 40.749V38.5126" stroke="black" stroke-width="2" stroke-miterlimit="10"
        stroke-linejoin="round" />
    <path d="M49.2253 54H42.9852V51.7398H46.9653C48.2135 51.7398 49.2253 52.7518 49.2253 54Z"
        fill="#AA593D" />
    <path
        d="M45.5243 51.7396C46.7724 51.7396 47.7848 52.7519 47.7848 54H49.2253C49.2253 52.7519 48.214 51.7396 46.9659 51.7396H45.5243Z"
        fill="#934D36" />
    <path d="M34.381 54H40.6211V51.7398H36.6411C35.3929 51.7398 34.381 52.7518 34.381 54Z"
        fill="#AA593D" />
    <path d="M49.2253 54H42.9852V51.7398H46.9653C48.2135 51.7398 49.2253 52.7518 49.2253 54Z"
        fill="black" stroke="black" stroke-width="2" stroke-miterlimit="10" stroke-linejoin="round" />
    <path d="M34.381 54H40.6211V51.7398H36.6411C35.3929 51.7398 34.381 52.7518 34.381 54Z"
        fill="black" stroke="black" stroke-width="2" stroke-miterlimit="10" stroke-linejoin="round" />
    <path
        d="M46.6851 27.1279H44.2607C42.9036 27.1279 41.8034 26.0277 41.8034 24.6705V23.7236H44.2276C45.5848 23.7236 46.6851 24.8238 46.6851 26.181V27.1279Z"
        fill="black" />
    <path
        d="M36.9218 27.1279H39.3461C40.7032 27.1279 41.8035 26.0277 41.8035 24.6705V23.7236H39.3791C38.022 23.7236 36.9218 24.8238 36.9218 26.181V27.1279Z"
        fill="black" />
    <path
        d="M46.6851 27.1279H44.2607C42.9036 27.1279 41.8034 26.0277 41.8034 24.6705V23.7236H44.2276C45.5848 23.7236 46.6851 24.8238 46.6851 26.181V27.1279Z"
        stroke="black" stroke-width="2" stroke-miterlimit="10" stroke-linecap="round"
        stroke-linejoin="round" />
    <path
        d="M36.9218 27.1279H39.3461C40.7032 27.1279 41.8035 26.0277 41.8035 24.6705V23.7236H39.3791C38.022 23.7236 36.9218 24.8238 36.9218 26.181V27.1279Z"
        stroke="black" stroke-width="2" stroke-miterlimit="10" stroke-linecap="round"
        stroke-linejoin="round" />
</svg>
    