<svg width="60" height="60" viewBox="0 0 60 60" fill="none" xmlns="http://www.w3.org/2000/svg">
    <path
        d="M50.4513 25.0157L41.5381 16.1025L46.3506 11.29C47.6105 10.0301 49.6529 10.0301 50.9127 11.29L55.2638 15.6411C56.5236 16.9009 56.5236 18.9433 55.2638 20.2031L50.4513 25.0157Z"
        fill="#F26722" />
    <path d="M27.2559 48.2111L46.8584 28.6086L37.9454 19.6956L18.3429 39.2981L27.2559 48.2111Z"
        fill="#FF9800" />
    <path
        d="M27.2024 44.5013L25.3473 44.971C24.8681 45.0923 24.4332 44.6574 24.5545 44.1782L25.0242 42.3231C25.1454 41.8438 24.7106 41.409 24.2313 41.5303L22.3762 41.9999C21.8969 42.1212 21.4621 41.6864 21.5833 41.2071L22.053 39.352C22.1743 38.8728 21.7394 38.4379 21.2602 38.5592L18.3435 39.2976C17.3261 40.3151 16.5565 41.5533 16.0946 42.9161L13.4602 50.6888C12.9557 52.1776 14.3769 53.5988 15.8657 53.0942L23.6382 50.4598C25.0011 49.998 26.2392 49.2284 27.2567 48.2109L27.9951 45.2943C28.1166 44.8149 27.6817 44.3801 27.2024 44.5013Z"
        fill="white" />
    <path
        d="M55.2644 15.6411L53.6074 13.9839C54.8671 15.2438 54.8671 17.2862 53.6074 18.5459L48.7948 23.3585L45.2021 26.9511L25.5996 46.5538C24.5821 47.5713 23.3439 48.3409 21.981 48.8027L14.2084 51.4371C13.922 51.5342 13.6383 51.5594 13.3701 51.5272C13.5054 52.653 14.6633 53.5018 15.8655 53.0944L23.6382 50.46C25.001 49.9981 26.2391 49.2285 27.2567 48.211L46.8594 28.6084L50.4521 25.0157L55.2646 20.2031C56.5242 18.9433 56.5242 16.9009 55.2644 15.6411Z"
        fill="black" fill-opacity="0.2" />
    <path
        d="M15.0222 46.0805L13.4602 50.689C12.9557 52.1778 14.3769 53.599 15.8657 53.0944L20.474 51.5324L15.0222 46.0805Z"
        fill="black" />
    <path
        d="M55.8236 15.0817L51.4725 10.7306C50.7139 9.97198 49.7051 9.55411 48.6321 9.55411C47.5592 9.55411 46.5505 9.97188 45.7917 10.7306L40.9794 15.5429L33.0748 23.4474C33.1725 21.999 33.6318 20.1879 34.439 18.1007C35.5772 15.157 34.9596 12.4375 32.7 10.4428C30.575 8.56703 27.2304 7.52215 23.2821 7.50032C23.2416 7.50011 23.2014 7.5 23.1609 7.5C19.0766 7.5 14.7155 8.63685 10.8665 10.7069C7.57876 12.4752 5.18652 14.6062 3.94863 16.8696C2.8547 18.87 2.69914 20.9459 3.52222 22.5653C4.09744 23.6974 5.09898 24.5062 6.34203 24.8427C7.62517 25.1899 9.05427 25.0136 10.4752 24.3328C14.4248 22.44 19.0255 22.0589 19.7092 23.1453C19.819 23.3197 20.5754 25.0154 13.4245 30.7577C9.59069 33.744 9.11851 34.7562 8.41461 35.3883C8.08955 35.6802 8.06266 36.1803 8.35449 36.5053C8.51069 36.6793 8.72658 36.7678 8.94343 36.7678C9.13158 36.7678 9.32048 36.7011 9.47161 36.5654C10.1541 35.9527 11.5273 34.3103 14.4153 31.9912C20.1057 27.4215 22.2754 24.2524 21.0483 22.3025C19.5366 19.9008 13.5398 21.1098 9.7915 22.906C7.7454 23.8864 5.7473 23.4517 4.93276 21.8485C4.35015 20.7019 4.49738 19.1637 5.33681 17.6287C6.09724 16.2382 7.80405 14.1504 11.616 12.1003C15.2743 10.1327 19.4163 9.05946 23.2734 9.08246C26.7872 9.10186 29.8415 10.03 31.653 11.629C33.4051 13.1755 33.8581 15.2161 32.9635 17.5301C31.7742 20.6053 31.2945 23.111 31.5319 24.9905L17.784 38.7385C16.6867 39.8357 15.8433 41.1926 15.3451 42.6625L14.2264 45.9636C10.2053 45.9197 7.49049 44.9575 6.73934 43.2932C6.01614 41.6909 7.00206 39.3234 9.59069 36.4465C9.88284 36.1217 9.85647 35.6216 9.53173 35.3294C9.2072 35.0372 8.70686 35.0636 8.41461 35.3883C5.33059 38.8157 4.2817 41.6945 5.29726 43.9443C6.30354 46.1737 9.19676 47.4061 13.6935 47.5361L12.7108 50.435C12.3799 51.4109 12.6271 52.4698 13.3557 53.1985C13.8706 53.7134 14.5505 53.9879 15.2493 53.9879C15.5395 53.9879 15.8329 53.9405 16.1191 53.8435L23.8916 51.2091C25.3615 50.711 26.7182 49.8676 27.8157 48.7703L35.5076 41.0785C37.3441 41.0303 39.4503 41.6793 42.1034 43.1088C42.2228 43.1732 42.3512 43.2037 42.4779 43.2037C42.7595 43.2037 43.0322 43.0529 43.175 42.7877C43.3822 42.4032 43.2385 41.9234 42.8538 41.7161C40.6285 40.5172 38.7243 39.8221 36.9999 39.5862L47.4178 29.1683L52.4546 24.1314C52.7636 23.8225 52.7636 23.3216 52.4546 23.0128C52.1456 22.7039 51.6449 22.7039 51.3359 23.0128L50.4515 23.8973L42.6571 16.1029L46.9104 11.8496C47.3701 11.3898 47.9815 11.1366 48.6319 11.1366C49.2823 11.1366 49.8939 11.3898 50.3536 11.8496L54.7047 16.2008C55.1646 16.6606 55.4179 17.272 55.4179 17.9224C55.4179 18.5727 55.1647 19.1842 54.7047 19.6441L51.3359 23.0128C51.027 23.3217 51.0269 23.8226 51.3359 24.1315C51.6446 24.4403 52.1455 24.4404 52.4546 24.1314L55.8234 20.7627C56.5822 20.0041 57 18.9953 57 17.9224C57.0001 16.8492 56.5824 15.8404 55.8236 15.0817ZM15.6114 52.3451C15.2034 52.4831 14.7787 52.384 14.4745 52.0797C14.1703 51.7754 14.071 51.3504 14.2092 50.9429L15.3625 47.5399L19.0144 51.1918L15.6114 52.3451ZM26.5446 47.7998C25.6461 48.654 24.5578 49.313 23.3841 49.7107L20.6856 50.6253L15.929 45.8688L16.8435 43.1702C17.2413 41.9964 17.9004 40.9081 18.7547 40.0097L21.229 39.3833L20.8164 41.0132C20.6903 41.5111 20.8318 42.0252 21.195 42.3884C21.5581 42.7516 22.0724 42.8934 22.5702 42.767L24.2001 42.3544L23.7875 43.9843C23.6615 44.4823 23.8029 44.9963 24.1662 45.3596C24.5293 45.7227 25.0437 45.8644 25.5414 45.7382L27.1712 45.3255L26.5446 47.7998ZM28.7283 45.6204L28.7618 45.4883C28.8878 44.9904 28.7464 44.4764 28.3831 44.1131C28.02 43.75 27.506 43.6085 27.0079 43.7345L25.3781 44.1472L25.7907 42.5173C25.9168 42.0194 25.7753 41.5053 25.4121 41.1421C25.0491 40.7789 24.5353 40.6373 24.0369 40.7634L22.407 41.176L22.8196 39.5461C22.9456 39.0482 22.8042 38.5341 22.4409 38.1709C22.0779 37.8079 21.5636 37.6662 21.0657 37.7923L20.9339 37.8256L37.9458 20.8137L45.7402 28.608L28.7283 45.6204ZM49.333 25.0155L46.8591 27.4894L39.0647 19.6951L41.5386 17.2212L49.333 25.0155Z"
        fill="black" />
    <path
        d="M8.41461 35.3883C9.11851 34.7562 9.59069 33.744 13.4245 30.7577C20.5754 25.0154 19.819 23.3197 19.7092 23.1453C19.0255 22.0589 14.4248 22.44 10.4752 24.3328C9.05427 25.0136 7.62517 25.1899 6.34203 24.8427C5.09898 24.5062 4.09744 23.6974 3.52222 22.5653C2.69914 20.9459 2.8547 18.87 3.94863 16.8696C5.18652 14.6062 7.57876 12.4752 10.8665 10.7069C14.7155 8.63685 19.0766 7.5 23.1609 7.5C23.2014 7.5 23.2416 7.50011 23.2821 7.50032C27.2304 7.52215 30.575 8.56703 32.7 10.4428C34.9596 12.4375 35.5772 15.157 34.439 18.1007C33.6318 20.1879 33.1725 21.999 33.0748 23.4474L40.9794 15.5429L45.7917 10.7306C46.5505 9.97188 47.5592 9.55411 48.6321 9.55411C49.7051 9.55411 50.7139 9.97198 51.4725 10.7306L55.8236 15.0817C56.5824 15.8404 57.0001 16.8492 57 17.9224C57 18.9953 56.5822 20.0041 55.8234 20.7627L52.4546 24.1314M8.41461 35.3883C8.08955 35.6802 8.06266 36.1803 8.35449 36.5053C8.51069 36.6793 8.72658 36.7678 8.94343 36.7678C9.13158 36.7678 9.32048 36.7011 9.47161 36.5654C10.1541 35.9527 11.5273 34.3103 14.4153 31.9912C20.1057 27.4215 22.2754 24.2524 21.0483 22.3025C19.5366 19.9008 13.5398 21.1098 9.7915 22.906C7.7454 23.8864 5.7473 23.4517 4.93276 21.8485C4.35015 20.7019 4.49738 19.1637 5.33681 17.6287C6.09724 16.2382 7.80405 14.1504 11.616 12.1003C15.2743 10.1327 19.4163 9.05946 23.2734 9.08246C26.7872 9.10186 29.8415 10.03 31.653 11.629C33.4051 13.1755 33.8581 15.2161 32.9635 17.5301C31.7742 20.6053 31.2945 23.111 31.5319 24.9905L17.784 38.7385C16.6867 39.8357 15.8433 41.1926 15.3451 42.6625L14.2264 45.9636C10.2053 45.9197 7.49049 44.9575 6.73934 43.2932C6.01614 41.6909 7.00206 39.3234 9.59069 36.4465C9.88284 36.1217 9.85647 35.6216 9.53173 35.3294C9.2072 35.0372 8.70686 35.0636 8.41461 35.3883ZM8.41461 35.3883C5.33059 38.8157 4.2817 41.6945 5.29726 43.9443C6.30354 46.1737 9.19676 47.4061 13.6935 47.5361L12.7108 50.435C12.3799 51.4109 12.6271 52.4698 13.3557 53.1985C13.8706 53.7134 14.5505 53.9879 15.2493 53.9879C15.5395 53.9879 15.8329 53.9405 16.1191 53.8435L23.8916 51.2091C25.3615 50.711 26.7182 49.8676 27.8157 48.7703L35.5076 41.0785C37.3441 41.0303 39.4503 41.6793 42.1034 43.1088C42.2228 43.1732 42.3512 43.2037 42.4779 43.2037C42.7595 43.2037 43.0322 43.0529 43.175 42.7877C43.3822 42.4032 43.2385 41.9234 42.8538 41.7161C40.6285 40.5172 38.7243 39.8221 36.9999 39.5862L47.4178 29.1683L52.4546 24.1314M52.4546 24.1314C52.7636 23.8225 52.7636 23.3216 52.4546 23.0128C52.1456 22.7039 51.6449 22.7039 51.3359 23.0128M52.4546 24.1314C52.1455 24.4404 51.6446 24.4403 51.3359 24.1315C51.0269 23.8226 51.027 23.3217 51.3359 23.0128M51.3359 23.0128L50.4515 23.8973L42.6571 16.1029L46.9104 11.8496C47.3701 11.3898 47.9815 11.1366 48.6319 11.1366C49.2823 11.1366 49.8939 11.3898 50.3536 11.8496L54.7047 16.2008C55.1646 16.6606 55.4179 17.272 55.4179 17.9224C55.4179 18.5727 55.1647 19.1842 54.7047 19.6441L51.3359 23.0128ZM15.6114 52.3451C15.2034 52.4831 14.7787 52.384 14.4745 52.0797C14.1703 51.7754 14.071 51.3504 14.2092 50.9429L15.3625 47.5399L19.0144 51.1918L15.6114 52.3451ZM26.5446 47.7998C25.6461 48.654 24.5578 49.313 23.3841 49.7107L20.6856 50.6253L15.929 45.8688L16.8435 43.1702C17.2413 41.9964 17.9004 40.9081 18.7547 40.0097L21.229 39.3833L20.8164 41.0132C20.6903 41.5111 20.8318 42.0252 21.195 42.3884C21.5581 42.7516 22.0724 42.8934 22.5702 42.767L24.2001 42.3544L23.7875 43.9843C23.6615 44.4823 23.8029 44.9963 24.1662 45.3596C24.5293 45.7227 25.0437 45.8644 25.5414 45.7382L27.1712 45.3255L26.5446 47.7998ZM28.7283 45.6204L28.7618 45.4883C28.8878 44.9904 28.7464 44.4764 28.3831 44.1131C28.02 43.75 27.506 43.6085 27.0079 43.7345L25.3781 44.1472L25.7907 42.5173C25.9168 42.0194 25.7753 41.5053 25.4121 41.1421C25.0491 40.7789 24.5353 40.6373 24.0369 40.7634L22.407 41.176L22.8196 39.5461C22.9456 39.0482 22.8042 38.5341 22.4409 38.1709C22.0779 37.8079 21.5636 37.6662 21.0657 37.7923L20.9339 37.8256L37.9458 20.8137L45.7402 28.608L28.7283 45.6204ZM49.333 25.0155L46.8591 27.4894L39.0647 19.6951L41.5386 17.2212L49.333 25.0155Z"
        stroke="black" stroke-width="0.5" />
    <path d="M37.9464 19.6947L46.8594 28.6077L50.4519 25.0151L41.5389 16.1021L37.9464 19.6947Z"
        fill="black" />
</svg>
    