<svg width="24" height="24" viewBox="0 0 24 24" fill="none" xmlns="http://www.w3.org/2000/svg">
    <path fill-rule="evenodd" clip-rule="evenodd" d="M20.7098 20.4472C20.2391 20.9131 19.7294 21.3603 19.1006 21.5684C17.7328 22.0212 15.9946 21.8741 14.1325 21.2022C11.9077 20.3995 9.49167 18.8467 7.32285 16.6779C5.15403 14.5091 3.60124 12.0931 2.79854 9.86831C2.1267 8.00621 1.97963 6.26806 2.43231 4.90024C2.64043 4.2714 3.08769 3.76167 3.55363 3.29088L4.24877 2.58852C4.52654 2.3108 4.8923 2.17188 5.25773 2.17188C5.6232 2.17188 5.98892 2.31076 6.26669 2.58852L9.57267 5.8945C9.85043 6.17226 9.98931 6.53803 9.98931 6.90346C9.98931 7.26893 9.85043 7.63465 9.57271 7.91241L8.25688 9.22828C8.02941 9.69441 8.09454 10.3903 8.40458 11.1735C8.73955 12.0196 9.35755 12.9467 10.2058 13.795C11.0541 14.6432 11.9812 15.2612 12.8273 15.5962C13.6105 15.9062 14.3064 15.9714 14.7725 15.7439L16.0883 14.4281C16.3661 14.1504 16.7318 14.0115 17.0973 14.0115C17.4627 14.0115 17.8285 14.1503 18.1062 14.4281L21.4122 17.7341C21.69 18.0118 21.8289 18.3776 21.8289 18.7431C21.8289 19.1086 21.69 19.4743 21.4122 19.752L20.7098 20.4472Z" fill="#FF9800"/>
    <path fill-rule="evenodd" clip-rule="evenodd" d="M3.58984 3.24643L4.24776 2.58852C4.52552 2.3108 4.89129 2.17188 5.25671 2.17188C5.62218 2.17188 5.98791 2.31076 6.26567 2.58852L9.57165 5.8945C9.84941 6.17226 9.9883 6.53803 9.9883 6.90346C9.9883 7.26893 9.84941 7.63465 9.57169 7.91241L8.25587 9.22828C8.02839 9.69441 8.09353 10.3903 8.40356 11.1735C8.73853 12.0196 9.35654 12.9467 10.2048 13.795C11.0531 14.6432 11.9801 15.2612 12.8262 15.5962C13.6095 15.9062 14.3053 15.9714 14.7714 15.7439L14.1135 16.4018C13.6474 16.6293 12.9515 16.5642 12.1683 16.2541C11.3222 15.9191 10.3951 15.3011 9.54685 14.4529C8.69858 13.6046 8.08058 12.6775 7.74561 11.8314C7.43557 11.0482 7.37043 10.3523 7.59791 9.8862L8.91374 8.57033C9.19146 8.29261 9.33034 7.92684 9.33034 7.56137C9.33034 7.1959 9.19146 6.83018 8.9137 6.55241L5.60771 3.24643C5.32995 2.96871 4.96423 2.82979 4.59876 2.82979C4.23337 2.82979 3.86761 2.96871 3.58984 3.24643ZM15.4298 15.0855L16.0873 14.4281C16.3651 14.1503 16.7308 14.0114 17.0963 14.0114C17.4617 14.0114 17.8274 14.1503 18.1052 14.4281L21.4112 17.734C21.689 18.0118 21.8278 18.3775 21.8278 18.743C21.8278 19.1085 21.689 19.4742 21.4112 19.752L20.7533 20.4099C21.031 20.1321 21.1699 19.7664 21.1699 19.401C21.1699 19.0355 21.031 18.6698 20.7533 18.392L17.4473 15.086C17.1695 14.8083 16.8038 14.6693 16.4383 14.6693C16.0731 14.6693 15.7076 14.8081 15.4298 15.0855Z" fill="#FF9800"/>
    <path fill-rule="evenodd" clip-rule="evenodd" d="M8.17138 15.8294C10.2355 17.8935 12.5055 19.3395 14.5397 20.0735C16.2585 20.6936 17.703 20.767 18.7236 20.4292C19.066 20.3159 19.4057 20.0496 19.8657 19.5943L20.5637 18.9035C20.5641 18.9031 20.5645 18.9027 20.5649 18.9023C20.6064 18.8602 20.6289 18.8048 20.6289 18.7431C20.6289 18.6807 20.6059 18.6248 20.5637 18.5826L17.2577 15.2766C17.2155 15.2344 17.1596 15.2115 17.0973 15.2115C17.035 15.2115 16.9791 15.2344 16.9368 15.2766C16.9368 15.2767 16.9369 15.2766 16.9368 15.2766L15.4791 16.7344L15.2987 16.8224C14.3682 17.2764 13.2634 17.0594 12.3856 16.712C11.362 16.3067 10.3008 15.587 9.35729 14.6435C8.41378 13.7 7.69406 12.6388 7.28883 11.6152C6.94137 10.7374 6.72433 9.63254 7.17844 8.702L7.26645 8.52166L8.72412 7.06395C8.72413 7.06393 8.7241 7.06397 8.72412 7.06395C8.76633 7.0217 8.78931 6.96579 8.78931 6.90346C8.78931 6.84113 8.76636 6.78525 8.72414 6.74303L5.41816 3.43705C5.37592 3.39481 5.32008 3.37188 5.25773 3.37188C5.19611 3.37188 5.14066 3.39436 5.09851 3.43585L4.40654 4.13501C3.95122 4.59506 3.68488 4.93481 3.57154 5.27728C3.23379 6.29782 3.3072 7.74231 3.92731 9.46105C4.66124 11.4952 6.10725 13.7653 8.17138 15.8294ZM4.24877 2.58852C4.52654 2.3108 4.8923 2.17188 5.25773 2.17188C5.6232 2.17188 5.98892 2.31076 6.26669 2.58852L9.57267 5.8945C9.85043 6.17226 9.98931 6.53803 9.98931 6.90346C9.98931 7.26893 9.85043 7.63465 9.57271 7.91241L8.25688 9.22828C8.02941 9.69441 8.09454 10.3903 8.40458 11.1735C8.73955 12.0196 9.35755 12.9467 10.2058 13.795C11.0541 14.6432 11.9812 15.2612 12.8273 15.5962C13.6105 15.9062 14.3064 15.9714 14.7725 15.7439L16.0883 14.4281C16.3661 14.1504 16.7318 14.0115 17.0973 14.0115C17.4627 14.0115 17.8285 14.1503 18.1062 14.4281L21.4122 17.7341C21.69 18.0118 21.8289 18.3776 21.8289 18.7431C21.8289 19.1086 21.69 19.4743 21.4122 19.752L20.7098 20.4472C20.2391 20.9131 19.7294 21.3603 19.1006 21.5684C17.7328 22.0212 15.9946 21.8741 14.1325 21.2022C11.9077 20.3995 9.49167 18.8467 7.32285 16.6779C5.15403 14.5091 3.60124 12.0931 2.79854 9.86831C2.1267 8.00621 1.97963 6.26806 2.43231 4.90024C2.64043 4.27141 3.08769 3.76167 3.55363 3.29088L4.24877 2.58852Z" fill="black"/>
    </svg>
    