<svg width="400" height="401" viewBox="0 0 400 401" fill="none" xmlns="http://www.w3.org/2000/svg">
    <g clip-path="url(#clip0_1345_30803)">
        <path
            d="M330 330.012C401.797 258.215 401.797 141.809 330 70.0122C258.203 -1.78481 141.797 -1.78482 70 70.0122C-1.79702 141.809 -1.79702 258.215 70 330.012C141.797 401.809 258.203 401.809 330 330.012Z"
            fill="url(#paint0_radial_1345_30803)" />
        <path fill-rule="evenodd" clip-rule="evenodd"
            d="M335.595 204.893C337.905 242.916 321.254 271.519 316.353 279.352C290.743 320.408 243.199 343.607 198.146 342.342C131.882 340.474 60.6973 285.398 60.6973 204.893C60.6973 128.988 122.241 67.4441 198.146 67.4441C282.026 67.4441 331.98 145.258 335.595 204.893Z"
            fill="url(#paint1_radial_1345_30803)" />
        <path style="mix-blend-mode:multiply" opacity="0.74" fill-rule="evenodd" clip-rule="evenodd"
            d="M73.7932 167.352C63.2882 203.809 78.5335 209.794 137.366 214.153C196.198 218.512 209.957 143.349 195.455 118.824C180.952 94.3194 134.413 123.826 121.739 136.842C109.064 149.857 141.865 173.217 155.423 177.074C168.981 180.931 176.754 164.741 181.294 161.387C185.853 158.032 181.495 184.084 152.089 188.222C122.683 192.359 83.6756 177.918 115.974 133.387C148.272 88.856 202.786 107.416 212.046 114.867C221.305 122.319 201.119 134.07 206.281 152.589C211.463 171.108 318.642 154.216 323.343 142.506C328.023 130.796 273.83 47.6193 171.03 74.856C83.0127 98.1558 73.8133 167.332 73.8133 167.332L73.7932 167.352Z"
            fill="url(#paint2_linear_1345_30803)" />
        <path style="mix-blend-mode:multiply" opacity="0.5" fill-rule="evenodd" clip-rule="evenodd"
            d="M89.1591 131.097C59.6928 174.322 71.5838 205.556 89.1591 221.685C106.734 237.834 134.493 187.117 207.767 191.777C281.041 196.437 223.495 161.507 150.622 183.903C77.7502 206.299 132.404 173.057 162.051 168.337C191.698 163.616 207.024 144.535 194.671 123.444C182.318 102.354 135.819 112.497 121.457 144.012C117.922 151.766 98.2982 146.865 119.549 125.493C140.8 104.121 179.828 99.602 215.179 109.203C250.551 118.804 246.192 92.6723 240.729 75.4987C235.285 58.3452 136.12 62.1817 89.1591 131.077V131.097Z"
            fill="url(#paint3_linear_1345_30803)" />
        <path style="mix-blend-mode:screen" opacity="0.84" fill-rule="evenodd" clip-rule="evenodd"
            d="M216.505 230.583C252.358 183.341 290.723 196.176 306.229 237.452C321.756 278.709 248.582 330.391 168.74 317.415C88.898 304.46 184.387 280.115 205.879 272.884C227.391 265.633 218.674 290.078 220.02 296.385C221.366 302.692 175.891 304.6 175.891 298.474C175.891 292.348 192.502 280.879 202.304 280.879C212.106 280.879 197.403 284.976 201.762 288.391C206.12 291.785 206.341 284.956 208.952 280.879C211.564 276.801 176.714 280.899 161.188 298.474C145.661 316.029 222.249 315.145 247.518 293.975C288.091 259.949 238.881 280.497 210.459 265.412C174.746 246.451 216.465 230.603 216.465 230.603L216.505 230.583Z"
            fill="url(#paint4_linear_1345_30803)" />
        <path style="mix-blend-mode:screen" fill-rule="evenodd" clip-rule="evenodd"
            d="M200.255 304.359C214.577 316.27 267.062 312.434 291.747 274.612C316.433 236.79 299.661 243.298 293.475 236.75C287.288 230.222 292.109 200.052 275.558 225.722C268.689 236.388 281.905 203.387 241.572 196.919C201.24 190.451 138.551 193.364 112.017 224.457C85.4835 255.55 113.263 275.596 160.927 281.782C208.591 287.969 214.657 279.995 215.159 257.157C215.661 234.319 192.964 231.869 179.125 241.389C165.285 250.93 177.98 265.352 179.125 270.394C180.27 275.435 188.244 271.077 189.971 270.394C191.699 269.711 186.597 265.091 189.971 262.359C193.346 259.628 199.05 272.302 197.142 277.544C195.234 282.787 154.118 279.914 134.232 273.527C114.347 267.14 117.22 237.312 151.466 219.335C185.713 201.358 216.304 207.866 232.875 226.666C249.446 245.467 244.485 247.395 244.204 259.929C243.922 272.463 271.561 277.404 278.591 240.204C280.158 231.909 290.884 238.356 295.845 248.821C300.806 259.286 283.01 291.846 260.895 300.342C238.78 308.838 216.766 313.277 213.773 304.841C210.78 296.405 200.255 304.359 200.255 304.359Z"
            fill="url(#paint5_linear_1345_30803)" />
        <path style="mix-blend-mode:screen" opacity="0.5" fill-rule="evenodd" clip-rule="evenodd"
            d="M101.733 233.938C99.1218 202.985 91.3485 187.298 188.726 182.397C286.103 177.496 322.137 203.728 319.386 240.204C316.634 276.681 340.737 213.41 329.69 164.902C318.642 116.374 238.579 104.945 207.787 112.296C177.016 119.648 195.676 126.156 191.518 129.992C187.36 133.808 167.756 118.563 122.542 142.265C77.3284 165.966 99.2624 233.938 99.2624 233.938H101.753H101.733Z"
            fill="url(#paint6_linear_1345_30803)" />
        <path style="mix-blend-mode:screen"
            d="M302.445 231.904C304.341 197.667 276.678 168.295 240.658 166.3C204.638 164.306 173.901 190.443 172.005 224.679C170.109 258.916 197.772 288.288 233.792 290.283C269.812 292.277 300.549 266.14 302.445 231.904Z"
            fill="url(#paint7_radial_1345_30803)" />
        <path style="mix-blend-mode:multiply" opacity="0.5" fill-rule="evenodd" clip-rule="evenodd"
            d="M160.023 78.1299C130.416 86.4857 117.099 111.734 116.536 122.56C115.974 133.387 132.324 102.032 184.889 105.387C237.455 108.741 280.258 140.115 295.825 147.166C311.391 154.216 288.132 41.9348 160.023 78.1299Z"
            fill="url(#paint8_linear_1345_30803)" />
        <g style="mix-blend-mode:soft-light" opacity="0.8">
            <path fill-rule="evenodd" clip-rule="evenodd"
                d="M115.713 158.153C110.37 155.562 104.164 167.473 108.623 171.751C113.062 176.029 123.567 161.949 115.713 158.153Z"
                fill="#EBFBFC" />
        </g>
        <path style="mix-blend-mode:screen" fill-rule="evenodd" clip-rule="evenodd"
            d="M63.5696 176.732C63.5696 176.732 86.2869 96.3681 162.031 76.965C162.031 76.965 87.9139 79.4356 63.5696 176.732Z"
            fill="url(#paint9_linear_1345_30803)" />
        <path style="mix-blend-mode:multiply" opacity="0.74" fill-rule="evenodd" clip-rule="evenodd"
            d="M150.622 308.336C134.252 309.2 155.062 337.521 203.268 336.979C251.475 336.437 269.592 321.232 270.416 319.444C271.239 317.656 231.469 346.239 150.622 308.356V308.336Z"
            fill="url(#paint10_linear_1345_30803)" />
        <path style="mix-blend-mode:screen" opacity="0.5" fill-rule="evenodd" clip-rule="evenodd"
            d="M129.572 322.658C129.572 322.658 153.214 340.514 194.651 342.282C236.089 344.05 268.447 323.622 268.447 323.622C268.447 323.622 212.528 356.182 136.542 320.77L129.572 322.658Z"
            fill="url(#paint11_linear_1345_30803)" />
        <path fill-rule="evenodd" clip-rule="evenodd"
            d="M56.0572 166.087C56.017 166.248 55.9769 166.368 55.9568 166.509C55.9769 166.448 55.997 166.288 56.0572 166.087Z"
            fill="url(#paint12_radial_1345_30803)" />
        <path fill-rule="evenodd" clip-rule="evenodd"
            d="M345.397 204.893C345.397 248.078 326.817 286.925 297.17 313.84C296.869 314.101 296.628 314.342 296.407 314.523C296.246 314.684 296.086 314.824 295.925 314.925C289.538 320.609 282.668 325.751 275.377 330.25C275.377 330.25 265.153 331.013 256.476 329.366C253.885 328.864 251.434 328.181 249.426 327.157C240.708 322.798 255.411 293.372 261.417 292.83C263.466 292.629 264.892 294.517 266.117 296.968V297.008C268.206 301.186 269.773 307.111 273.047 307.995H273.067C273.489 308.115 273.971 308.156 274.493 308.055C279.013 307.312 298.637 302.351 310.046 282.807C310.046 282.807 314.685 281.642 316.614 276.641C318.401 272.061 316.995 266.397 316.734 265.432C316.734 265.372 316.714 265.352 316.714 265.352V265.312C317.859 259.828 318.462 253.682 318.341 246.793C318.02 229.699 293.093 184.265 275.558 186.775C275.558 186.775 275.551 186.775 275.538 186.775C274.694 186.876 273.891 187.117 273.107 187.458C273.067 187.478 273.047 187.478 273.047 187.478C269.612 188.965 266.559 192.661 264.149 199.148C253.041 229.117 232.975 241.148 227.753 245.025C226.046 246.27 225.945 246.672 228.215 246.532C248.944 245.306 234.201 289.014 230.384 295.541C226.568 302.09 241.833 307.533 218.393 320.046C214.998 321.854 210.961 323.541 206.361 325.048C204.594 325.63 202.746 326.193 200.817 326.695C173.259 334.127 131.3 334.729 100.427 314.985C90.9869 306.629 82.611 297.028 75.5608 286.503C75.5608 286.503 75.5608 286.483 75.5407 286.463L73.0299 282.566C58.9697 260.009 50.875 233.375 50.875 204.853C50.875 191.616 52.6225 178.761 55.9166 166.569L61.9023 174.503C62.0027 174.684 62.1433 174.844 62.2638 175.005C63.0472 175.989 63.5493 176.712 63.5493 176.712C63.5493 176.712 58.2265 219.034 70.2179 222.85C70.8004 223.051 71.3829 223.191 71.9654 223.332C72.5479 223.453 73.1103 223.573 73.6526 223.653H73.6727C74.2351 223.714 74.7774 223.774 75.3197 223.834C76.1433 223.895 76.9668 223.895 77.7502 223.874C78.0514 223.874 78.3126 223.854 78.5938 223.834C79.1763 223.794 79.7186 223.734 80.2609 223.653C80.9639 223.553 81.6669 223.433 82.3097 223.312C82.4704 223.272 82.6311 223.232 82.7918 223.232C82.7918 223.232 82.8052 223.225 82.8319 223.212C82.9524 223.192 83.093 223.171 83.2136 223.131C83.2337 223.131 83.2537 223.111 83.2537 223.111C83.314 223.111 83.3542 223.091 83.4345 223.091C83.6956 223.031 83.9367 222.991 84.1174 222.91C84.1375 222.91 84.1576 222.89 84.1576 222.89C84.238 222.87 84.3384 222.85 84.4187 222.85C84.4991 222.83 84.5995 222.79 84.6798 222.77C84.7401 222.75 84.8004 222.75 84.8606 222.73C84.9611 222.709 85.0414 222.689 85.0414 222.689C88.7573 221.725 90.9467 220.962 90.9467 223.694C90.9467 226.265 89.6009 230.161 90.4847 233.938C90.7458 235.062 91.1877 236.167 91.9309 237.191C93.2164 240.064 95.0041 243.84 95.5464 244.242C96.149 244.704 97.5952 243.659 98.4991 242.896C98.5191 242.876 98.5392 242.876 98.5392 242.856C98.7602 242.595 98.961 242.394 99.2222 242.253H99.2422C99.2422 242.253 99.2623 242.233 99.2824 242.253C101.311 242.976 103.742 243.639 106.694 244.101C115.853 245.587 135.739 244.342 155.785 239.702L156.287 239.582C157.914 239.22 159.521 238.798 161.148 238.377L162.011 238.156C172.617 235.303 182.961 231.507 191.538 226.666H191.558C193.546 225.542 195.394 224.356 197.142 223.131C206.04 216.864 211.985 209.091 212.387 199.711C214.034 163.777 208.028 149.054 208.591 144.153C208.671 143.43 208.952 142.586 209.414 141.702V141.662C211.885 136.661 218.935 129.992 218.935 129.992C218.935 129.992 214.376 124.991 215.279 122.058C215.279 122.058 215.279 122.038 215.3 122.018C215.34 121.757 215.48 121.516 215.661 121.275C215.922 120.953 216.505 120.491 217.288 119.889C217.288 119.889 217.308 119.889 217.328 119.869C222.069 116.253 233.698 107.877 222.571 98.1357L223.033 92.6723L215.942 93.6364H215.922C215.922 93.6364 215.601 93.4556 215.159 93.2748C213.271 92.2304 211.081 91.206 208.611 90.2218C172.978 75.6393 151.807 75.579 151.426 75.579V65.2146C166.109 60.2734 181.796 57.6221 198.146 57.6221C226.789 57.6221 253.503 65.7971 276.08 79.9377C276.1 79.9578 276.12 79.9779 276.14 79.9779H276.16L276.2 79.9979C317.779 106.05 345.397 152.227 345.397 204.873V204.893Z"
            fill="url(#paint13_radial_1345_30803)" />
        <g style="mix-blend-mode:multiply" opacity="0.8">
            <path fill-rule="evenodd" clip-rule="evenodd"
                d="M218.955 129.972C239.102 117.458 258.846 122.701 297.934 139.232C337.021 155.783 302.011 177.496 277.506 181.995C253.001 186.494 243.199 187.298 232.152 202.824C221.105 218.351 196.519 223.533 196.519 223.533L191.498 226.666C191.498 226.666 215.601 221.625 233.377 204.049C251.153 186.474 266.057 182.397 286.083 183.019C306.109 183.642 333.064 199.148 337.765 203.045C342.465 206.922 344.333 222.83 344.333 222.83L345.417 210.196C345.417 210.196 340.617 207.123 337.162 196.919C333.687 186.715 324.488 190.592 306.732 186.293C288.955 181.995 298.978 178.741 315.509 162.813C332.06 146.884 335.274 151.062 335.274 151.062L334.249 148.532C334.249 148.532 328.063 149.998 316.534 160.463C316.534 160.463 315.409 147.587 314.183 143.108C312.958 138.609 276.703 125.794 253.202 123.062C229.722 120.331 218.955 129.992 218.955 129.992V129.972Z"
                fill="#B3DBE0" />
        </g>
        <g style="mix-blend-mode:multiply" opacity="0.8">
            <path fill-rule="evenodd" clip-rule="evenodd"
                d="M276.14 79.9778C274.895 79.5761 252.037 72.1442 238.82 78.5115C225.202 85.0395 222.571 98.1356 222.571 98.1356L223.033 92.6722L215.942 93.6363C215.942 93.6363 212.146 89.3982 213.09 86.4857C214.034 83.5933 219.759 79.8573 238.559 75.9405C256.416 72.2045 274.332 79.2145 276.1 79.9376C276.12 79.9577 276.14 79.9778 276.16 79.9778H276.14Z"
                fill="#B3DBE0" />
        </g>
        <path fill-rule="evenodd" clip-rule="evenodd"
            d="M99.2423 242.253C99.2423 242.253 98.9008 242.575 98.5593 242.856C98.7803 242.595 98.9811 242.394 99.2423 242.253Z"
            fill="#D2F0F6" />
        <g style="mix-blend-mode:multiply" opacity="0.8">
            <path fill-rule="evenodd" clip-rule="evenodd"
                d="M206.361 325.088L200.818 326.735C200.818 326.735 135.879 330.973 150.864 306.75C150.864 306.75 140.841 309.28 118.786 290.078C96.7317 270.876 79.5581 272.282 76.1033 273.527C72.769 274.712 75.3802 285.639 75.5609 286.503L73.0502 282.606C73.0502 282.606 72.8292 273.527 74.0545 269.651C75.2597 265.774 101.01 276.279 105.891 278.991C110.812 281.702 95.1449 255.57 92.2926 246.993C89.4203 238.417 90.4849 233.958 90.4849 233.958C90.4849 233.958 91.1076 235.404 91.9311 237.212C93.2166 240.084 95.0043 243.86 95.5466 244.262C96.1492 244.724 97.5954 243.679 98.4992 242.916C94.9239 247.556 97.8364 268.927 121.699 290.158C150.602 315.889 187.059 293.432 198.769 271.9C210.479 250.388 179.707 252.577 166.912 251.754C154.097 250.93 155.805 239.722 155.805 239.722L156.307 239.602L161.168 238.397L162.031 238.176C162.031 238.176 156.166 249.424 166.511 251.071C176.855 252.718 227.753 245.085 227.753 245.085L228.215 246.592C228.215 246.592 197.142 250.207 191.518 251.352C185.914 252.497 197.041 253.662 200.858 259.527C204.654 265.372 198.267 288.531 165.848 302.411C133.449 316.29 165.727 331.937 206.381 325.108L206.361 325.088Z"
                fill="#B3DBE0" />
        </g>
        <g style="mix-blend-mode:multiply" opacity="0.8">
            <path fill-rule="evenodd" clip-rule="evenodd"
                d="M232.875 289.877C232.875 289.877 227.532 295.863 204.092 304.56C180.671 313.278 163.377 312.996 163.377 312.996C163.377 312.996 176.172 314.463 190.373 314.463C204.574 314.463 201.4 307.613 210.178 303.636C218.955 299.659 225.584 299.82 228.195 297.309C230.786 294.798 232.875 289.877 232.875 289.877Z"
                fill="#D2F0F6" />
        </g>
        <g style="mix-blend-mode:multiply" opacity="0.8">
            <path fill-rule="evenodd" clip-rule="evenodd"
                d="M317.739 288.933C311.592 299.739 300.947 310.265 297.17 313.84C296.869 314.101 296.628 314.342 296.407 314.523C296.106 314.804 295.905 315.005 295.825 315.065C295.865 315.025 295.885 314.985 295.925 314.945C311.612 297.55 310.026 282.867 310.026 282.867C310.026 282.867 314.665 281.702 316.594 276.701C318.442 271.94 316.855 265.995 316.694 265.412C317.317 266.176 324.949 276.219 317.698 288.953L317.739 288.933Z"
                fill="#D2F0F6" />
        </g>
        <g style="mix-blend-mode:soft-light">
            <path fill-rule="evenodd" clip-rule="evenodd"
                d="M151.426 75.5789V65.2145C151.426 65.2145 187.36 68.4885 199.873 74.8558C212.407 81.2231 215.922 93.6363 215.922 93.6363C215.922 93.6363 185.612 78.7726 151.406 75.5588L151.426 75.5789Z"
                fill="#D7F2F7" />
        </g>
        <g style="mix-blend-mode:soft-light">
            <path fill-rule="evenodd" clip-rule="evenodd"
                d="M233.658 105.608C233.779 112.618 218.313 119.447 217.328 119.869C222.069 116.253 233.698 107.878 222.571 98.1358C222.571 98.1358 225.604 90.9048 227.371 90.9048C229.139 90.9048 233.498 98.3768 233.638 105.608H233.658Z"
                fill="#D7F2F7" />
        </g>
        <g style="mix-blend-mode:soft-light">
            <path fill-rule="evenodd" clip-rule="evenodd"
                d="M226.347 126.196L218.955 129.992C218.955 129.992 214.396 124.991 215.3 122.058C215.3 122.058 215.3 122.038 215.32 122.018C215.661 121.837 219.377 119.989 222.491 121.415C225.745 122.922 226.347 126.196 226.347 126.196Z"
                fill="#D7F2F7" />
        </g>
        <g style="mix-blend-mode:soft-light">
            <path fill-rule="evenodd" clip-rule="evenodd"
                d="M205.598 220.841C203.851 221.444 197.142 223.131 197.142 223.131C206.04 216.864 211.985 209.091 212.387 199.711C214.034 163.777 208.028 149.054 208.591 144.153C208.671 143.43 208.952 142.586 209.414 141.702V141.662C209.414 141.662 216.987 180.79 218.835 197.14C220.663 213.49 207.346 220.239 205.598 220.861V220.841Z"
                fill="#D7F2F7" />
        </g>
        <g style="mix-blend-mode:soft-light">
            <path fill-rule="evenodd" clip-rule="evenodd"
                d="M194.029 229.117C191.859 231.286 163.739 250.207 161.168 248.741C158.597 247.254 161.168 238.376 161.168 238.376L162.032 238.155C172.637 235.303 182.981 231.507 191.558 226.666H192.12C192.12 226.666 196.218 226.947 194.049 229.117H194.029Z"
                fill="#D7F2F7" />
        </g>
        <g style="mix-blend-mode:soft-light">
            <path fill-rule="evenodd" clip-rule="evenodd"
                d="M155.825 239.702C155.825 239.702 153.455 251.171 141.865 252.397C130.275 253.622 100.468 253.763 98.9008 251.453C97.3341 249.143 99.2423 242.253 99.2423 242.253H99.3025C101.331 242.976 103.762 243.639 106.714 244.101C115.874 245.587 135.759 244.342 155.805 239.702H155.825Z"
                fill="#D7F2F7" />
        </g>
        <g style="mix-blend-mode:soft-light">
            <path fill-rule="evenodd" clip-rule="evenodd"
                d="M85.0414 222.669C85.0414 222.669 62.4245 229.398 57.7244 216.744C53.0242 204.07 54.832 170.968 56.0572 169.542C56.941 168.537 60.3757 172.575 62.2839 175.025C63.0673 176.009 63.5694 176.732 63.5694 176.732C63.5694 176.732 58.2466 219.054 70.238 222.87C76.2035 224.758 81.3657 223.633 85.0213 222.669H85.0414Z"
                fill="#D7F2F7" />
        </g>
        <g style="mix-blend-mode:soft-light">
            <path fill-rule="evenodd" clip-rule="evenodd"
                d="M322.86 262.62C322.86 262.62 321.695 269.289 320.852 270.655C320.048 271.92 317.136 266.196 316.754 265.453C316.754 265.392 316.734 265.372 316.734 265.372V265.332C317.879 259.849 318.482 253.702 318.361 246.813C318.04 229.719 293.113 184.285 275.578 186.796C279.374 185.892 286.665 184.747 292.069 187.499C299.701 191.395 322.7 231.286 323.945 243.157C325.17 254.988 322.86 262.62 322.86 262.62Z"
                fill="#D7F2F7" />
        </g>
        <g style="mix-blend-mode:soft-light">
            <path fill-rule="evenodd" clip-rule="evenodd"
                d="M266.117 297.028C266.117 297.028 242.556 318.038 256.476 329.366C253.885 328.864 251.434 328.181 249.426 327.157C240.708 322.798 255.411 293.372 261.417 292.83C263.466 292.629 264.892 294.517 266.117 296.968V297.008V297.028Z"
                fill="#D7F2F7" />
        </g>
        <g style="mix-blend-mode:soft-light">
            <path fill-rule="evenodd" clip-rule="evenodd"
                d="M307.796 295.803C303.779 301.949 292.089 309.461 285.139 310.285C278.49 311.068 273.529 308.396 273.047 308.035C273.469 308.155 273.951 308.196 274.473 308.095C278.993 307.352 298.617 302.391 310.026 282.847C310.026 282.847 311.793 289.656 307.776 295.803H307.796Z"
                fill="#D7F2F7" />
        </g>
        <g style="mix-blend-mode:soft-light">
            <path fill-rule="evenodd" clip-rule="evenodd"
                d="M226.347 126.196C226.347 126.196 254.126 127.08 259.931 127.08C265.736 127.08 286.163 134.411 286.163 134.411C286.163 134.411 265.555 125.754 254.106 123.705C242.677 121.656 226.347 126.196 226.347 126.196Z"
                fill="#D7F2F7" />
        </g>
        <g style="mix-blend-mode:soft-light">
            <path fill-rule="evenodd" clip-rule="evenodd"
                d="M237.254 200.414C237.254 200.414 247.216 192.138 250.852 190.391C258.505 186.695 268.588 184.887 272.123 184.044C275.658 183.2 276.422 183.16 276.422 183.16C276.422 183.16 265.716 183.501 254.588 188.543C243.46 193.585 237.254 200.414 237.254 200.414Z"
                fill="#D7F2F7" />
        </g>
        <g style="mix-blend-mode:soft-light">
            <path fill-rule="evenodd" clip-rule="evenodd"
                d="M226.347 89.5387C226.347 89.5387 236.651 79.6965 245.328 77.8285C254.005 75.9605 263.064 76.8644 263.064 76.8644C263.064 76.8644 254.508 73.9519 242.777 77.0652C231.047 80.1786 226.367 89.5186 226.367 89.5186L226.347 89.5387Z"
                fill="#D7F2F7" />
        </g>
        <g style="mix-blend-mode:soft-light">
            <path fill-rule="evenodd" clip-rule="evenodd"
                d="M189.971 251.955C189.971 251.955 198.528 250.167 208.872 248.902C219.216 247.636 225.584 246.873 225.584 246.873C225.584 246.873 219.136 250.067 211.925 251.031C204.714 251.975 189.971 251.975 189.971 251.975V251.955Z"
                fill="#D7F2F7" />
        </g>
        <g style="mix-blend-mode:soft-light">
            <path fill-rule="evenodd" clip-rule="evenodd"
                d="M107.699 281.782C107.699 281.782 119.489 291.906 127.765 299.458C136.04 307.011 143.994 308.135 147.469 307.935C150.944 307.734 151.446 306.508 151.446 306.508C151.446 306.508 149.518 306.488 140.921 304.781C132.324 303.074 115.954 286.262 107.678 281.782H107.699Z"
                fill="#D7F2F7" />
        </g>
        <g style="mix-blend-mode:soft-light">
            <path fill-rule="evenodd" clip-rule="evenodd"
                d="M157.994 306.569C157.994 306.569 170.749 302.431 174.846 299.358C178.924 296.285 180.832 294.557 188.686 288.632C196.539 282.707 200.255 271.258 200.255 271.258C200.255 271.258 198.186 280.819 184.347 291.303C170.508 301.788 157.994 306.589 157.994 306.589V306.569Z"
                fill="#D7F2F7" />
        </g>
        <g style="mix-blend-mode:soft-light">
            <path fill-rule="evenodd" clip-rule="evenodd"
                d="M305.245 186.916C305.245 186.916 328.465 196.658 332.442 200.414C336.419 204.17 340.998 208.388 340.998 208.388C340.998 208.388 339.391 203.607 333.928 200.414C328.465 197.22 311.853 190.471 305.245 186.916Z"
                fill="#D7F2F7" />
        </g>
        <g style="mix-blend-mode:soft-light">
            <path fill-rule="evenodd" clip-rule="evenodd"
                d="M300.264 176.592C300.264 176.592 307.113 171.088 314.766 165.163C322.419 159.237 327.119 153.212 327.119 153.212C327.119 153.212 322.157 157.852 316.835 161.527C311.512 165.203 300.264 176.592 300.264 176.592Z"
                fill="#D7F2F7" />
        </g>
        <g style="mix-blend-mode:multiply" opacity="0.3">
            <path fill-rule="evenodd" clip-rule="evenodd"
                d="M260.533 130.936C249.506 131.217 234.542 164.64 233.638 179.343C232.734 194.046 264.189 184.526 288.513 174.603C312.838 164.68 311.793 154.015 306.089 145.639C300.364 137.263 268.307 130.735 260.533 130.936Z"
                fill="#D2F0F6" />
        </g>
        <g style="mix-blend-mode:multiply" opacity="0.3">
            <path fill-rule="evenodd" clip-rule="evenodd"
                d="M278.973 82.9707C272.103 78.9937 266.539 107.817 264.993 116.916C263.446 126.015 297.532 129.37 308.137 138.167C318.763 146.945 321.816 139.393 322.037 135.918C322.238 132.443 300.786 95.5848 278.993 82.9707H278.973Z"
                fill="#D2F0F6" />
        </g>
        <g style="mix-blend-mode:multiply" opacity="0.3">
            <path fill-rule="evenodd" clip-rule="evenodd"
                d="M170.247 306.569C164.763 304.158 194.35 292.509 203.549 277.203C212.749 261.877 204.373 260.451 209.876 258.001C215.4 255.55 231.328 258.202 234.602 267.602C237.876 277.002 223.615 296.968 200.255 304.359C176.895 311.751 170.247 306.569 170.247 306.569Z"
                fill="#D2F0F6" />
        </g>
        <g style="mix-blend-mode:multiply" opacity="0.3">
            <path fill-rule="evenodd" clip-rule="evenodd"
                d="M112.037 275.556C110.611 265.352 168.901 272.282 177.337 278.83C185.773 285.358 163.839 302.732 144.677 300.081C125.515 297.41 112.037 275.576 112.037 275.576V275.556Z"
                fill="#D2F0F6" />
        </g>
        <g style="mix-blend-mode:multiply" opacity="0.3">
            <path fill-rule="evenodd" clip-rule="evenodd"
                d="M78.1319 288.029C72.2065 277.765 113.423 289.375 129.572 302.19C145.742 315.005 157.994 327.036 157.994 327.036C157.994 327.036 106.112 336.457 78.1319 288.049V288.029Z"
                fill="#D2F0F6" />
        </g>
        <g style="mix-blend-mode:soft-light">
            <path fill-rule="evenodd" clip-rule="evenodd"
                d="M338.608 160.563C335.916 153.613 340.074 180.71 338.608 188.824C337.142 196.939 345.357 208.388 345.357 208.388C345.357 208.388 345.196 177.636 338.608 160.563Z"
                fill="#D6F3F7" />
        </g>
        <g style="mix-blend-mode:soft-light">
            <path fill-rule="evenodd" clip-rule="evenodd"
                d="M344.312 222.85C344.312 222.85 341.661 207.344 335.595 204.893C329.509 202.443 327.842 235.846 327.32 251.975C326.797 268.084 327.32 275.656 327.32 275.656C327.32 275.656 343.75 249.002 344.312 222.85Z"
                fill="#D6F3F7" />
        </g>
        <g style="mix-blend-mode:soft-light">
            <path fill-rule="evenodd" clip-rule="evenodd"
                d="M305.245 103.82C305.245 103.82 322.459 129.45 323.122 139.533C323.805 149.616 333.526 146.844 333.526 146.844C333.526 146.844 324.889 124.931 305.245 103.82Z"
                fill="#D6F3F7" />
        </g>
        <g style="mix-blend-mode:soft-light">
            <path fill-rule="evenodd" clip-rule="evenodd"
                d="M230.103 125.433C230.103 125.433 240.588 127.903 245.891 126.778C251.193 125.654 254.749 124.428 254.749 124.428C254.749 124.428 246.172 121.697 230.103 125.453V125.433Z"
                fill="#D7F2F7" />
        </g>
        <g style="mix-blend-mode:multiply" opacity="0.3">
            <path fill-rule="evenodd" clip-rule="evenodd"
                d="M188.987 248.821C185.452 246.009 218.513 220.882 235.064 208.388C251.615 195.895 263.044 194.569 263.044 194.569C263.044 194.569 247.598 223.714 235.064 236.207C222.531 248.701 188.987 248.841 188.987 248.841V248.821Z"
                fill="#D2F0F6" />
        </g>
        <g style="mix-blend-mode:soft-light">
            <path fill-rule="evenodd" clip-rule="evenodd"
                d="M309.483 168.337C309.483 168.337 313.36 166.408 316.031 164.159C318.703 161.909 321.093 158.936 321.093 158.936C321.093 158.936 313.32 164.38 309.483 168.337Z"
                fill="#D7F2F7" />
        </g>
        <g style="mix-blend-mode:soft-light">
            <path fill-rule="evenodd" clip-rule="evenodd"
                d="M172.998 59.7712C172.998 59.7712 203.067 68.7296 219.015 72.7267C234.964 76.7238 264.229 74.8558 264.229 74.8558C264.229 74.8558 230.886 52.0983 172.998 59.7511V59.7712Z"
                fill="#D6F3F7" />
        </g>
        <g style="mix-blend-mode:soft-light">
            <path fill-rule="evenodd" clip-rule="evenodd"
                d="M51.3772 216.945C51.3772 216.945 65.4776 244.724 68.9525 254.928C72.4274 265.131 70.7402 277.605 70.7402 277.605C70.7402 277.605 54.0286 256.173 51.3973 216.945H51.3772Z"
                fill="#D6F3F7" />
        </g>
        <path style="mix-blend-mode:screen" fill-rule="evenodd" clip-rule="evenodd"
            d="M272.665 242.856C272.665 249.364 267.403 254.626 260.895 254.626C254.387 254.626 249.125 249.364 249.125 242.856C249.125 236.348 254.387 231.085 260.895 231.085C267.403 231.085 272.665 236.348 272.665 242.856Z"
            fill="url(#paint14_radial_1345_30803)" />
        <path style="mix-blend-mode:screen"
            d="M260.915 247.717C263.6 247.717 265.776 245.54 265.776 242.856C265.776 240.171 263.6 237.995 260.915 237.995C258.23 237.995 256.054 240.171 256.054 242.856C256.054 245.54 258.23 247.717 260.915 247.717Z"
            fill="url(#paint15_radial_1345_30803)" />
        <path style="mix-blend-mode:screen" fill-rule="evenodd" clip-rule="evenodd"
            d="M263.486 242.856C263.486 244.282 262.341 245.427 260.915 245.427C259.489 245.427 258.344 244.282 258.344 242.856C258.344 241.43 259.489 240.285 260.915 240.285C262.341 240.285 263.486 241.43 263.486 242.856Z"
            fill="url(#paint16_radial_1345_30803)" />
        <path style="mix-blend-mode:screen" fill-rule="evenodd" clip-rule="evenodd"
            d="M279.696 226.225C279.696 232.733 274.433 237.995 267.925 237.995C261.417 237.995 256.155 232.733 256.155 226.225C256.155 219.717 261.417 214.454 267.925 214.454C274.433 214.454 279.696 219.717 279.696 226.225Z"
            fill="url(#paint17_radial_1345_30803)" />
        <path style="mix-blend-mode:screen"
            d="M267.925 231.085C270.61 231.085 272.786 228.909 272.786 226.225C272.786 223.54 270.61 221.364 267.925 221.364C265.241 221.364 263.064 223.54 263.064 226.225C263.064 228.909 265.241 231.085 267.925 231.085Z"
            fill="url(#paint18_radial_1345_30803)" />
        <path style="mix-blend-mode:screen" fill-rule="evenodd" clip-rule="evenodd"
            d="M270.496 226.225C270.496 227.651 269.351 228.796 267.925 228.796C266.499 228.796 265.354 227.651 265.354 226.225C265.354 224.799 266.499 223.654 267.925 223.654C269.351 223.654 270.496 224.799 270.496 226.225Z"
            fill="url(#paint19_radial_1345_30803)" />
        <path style="mix-blend-mode:screen"
            d="M269.231 242.856C273.823 242.856 277.546 239.133 277.546 234.54C277.546 229.948 273.823 226.225 269.231 226.225C264.638 226.225 260.915 229.948 260.915 234.54C260.915 239.133 264.638 242.856 269.231 242.856Z"
            fill="url(#paint20_radial_1345_30803)" />
        <path style="mix-blend-mode:screen"
            d="M269.231 237.975C271.128 237.975 272.665 236.437 272.665 234.54C272.665 232.643 271.128 231.105 269.231 231.105C267.334 231.105 265.796 232.643 265.796 234.54C265.796 236.437 267.334 237.975 269.231 237.975Z"
            fill="url(#paint21_radial_1345_30803)" />
        <path style="mix-blend-mode:screen" fill-rule="evenodd" clip-rule="evenodd"
            d="M271.038 234.54C271.038 235.545 270.215 236.368 269.21 236.368C268.206 236.368 267.383 235.545 267.383 234.54C267.383 233.536 268.206 232.712 269.21 232.712C270.215 232.712 271.038 233.536 271.038 234.54Z"
            fill="url(#paint22_radial_1345_30803)" />
        <path style="mix-blend-mode:screen"
            d="M256.255 253.059C257.365 253.059 258.264 252.16 258.264 251.051C258.264 249.942 257.365 249.042 256.255 249.042C255.146 249.042 254.247 249.942 254.247 251.051C254.247 252.16 255.146 253.059 256.255 253.059Z"
            fill="url(#paint23_radial_1345_30803)" />
        <path style="mix-blend-mode:screen" fill-rule="evenodd" clip-rule="evenodd"
            d="M257.079 251.051C257.079 251.513 256.717 251.874 256.255 251.874C255.793 251.874 255.432 251.513 255.432 251.051C255.432 250.589 255.793 250.227 256.255 250.227C256.717 250.227 257.079 250.589 257.079 251.051Z"
            fill="url(#paint24_radial_1345_30803)" />
        <path style="mix-blend-mode:screen" fill-rule="evenodd" clip-rule="evenodd"
            d="M256.697 251.051C256.697 251.292 256.496 251.493 256.255 251.493C256.014 251.493 255.813 251.292 255.813 251.051C255.813 250.81 256.014 250.609 256.255 250.609C256.496 250.609 256.697 250.81 256.697 251.051Z"
            fill="url(#paint25_radial_1345_30803)" />
        <path style="mix-blend-mode:screen"
            d="M275.558 277.645C276.667 277.645 277.567 276.745 277.567 275.636C277.567 274.527 276.667 273.628 275.558 273.628C274.449 273.628 273.549 274.527 273.549 275.636C273.549 276.745 274.449 277.645 275.558 277.645Z"
            fill="url(#paint26_radial_1345_30803)" />
        <path style="mix-blend-mode:screen" fill-rule="evenodd" clip-rule="evenodd"
            d="M276.401 275.636C276.401 276.098 276.04 276.46 275.578 276.46C275.116 276.46 274.754 276.098 274.754 275.636C274.754 275.174 275.116 274.813 275.578 274.813C276.04 274.813 276.401 275.174 276.401 275.636Z"
            fill="url(#paint27_radial_1345_30803)" />
        <path style="mix-blend-mode:screen"
            d="M275.558 276.078C275.802 276.078 276 275.88 276 275.636C276 275.392 275.802 275.194 275.558 275.194C275.314 275.194 275.116 275.392 275.116 275.636C275.116 275.88 275.314 276.078 275.558 276.078Z"
            fill="url(#paint28_radial_1345_30803)" />
        <path fill-rule="evenodd" clip-rule="evenodd"
            d="M113.544 131.258C105.63 127.421 96.4503 145.057 103.039 151.384C109.627 157.731 125.153 136.882 113.544 131.258Z"
            fill="white" />
        <g style="mix-blend-mode:screen">
            <path
                d="M240.367 333.363C302.356 333.363 352.608 285.602 352.608 226.686C352.608 167.77 302.356 120.009 240.367 120.009C178.378 120.009 128.126 167.77 128.126 226.686C128.126 285.602 178.378 333.363 240.367 333.363Z"
                fill="url(#paint29_radial_1345_30803)" />
        </g>
        <g style="mix-blend-mode:screen">
            <path fill-rule="evenodd" clip-rule="evenodd"
                d="M184.769 188.362C184.769 194.87 179.506 200.133 172.998 200.133C166.491 200.133 161.228 194.87 161.228 188.362C161.228 181.855 166.491 176.592 172.998 176.592C179.506 176.592 184.769 181.855 184.769 188.362Z"
                fill="url(#paint30_radial_1345_30803)" />
        </g>
        <path style="mix-blend-mode:screen" fill-rule="evenodd" clip-rule="evenodd"
            d="M177.859 188.362C177.859 191.054 175.69 193.223 172.998 193.223C170.307 193.223 168.137 191.054 168.137 188.362C168.137 185.671 170.307 183.501 172.998 183.501C175.69 183.501 177.859 185.671 177.859 188.362Z"
            fill="url(#paint31_radial_1345_30803)" />
        <path style="mix-blend-mode:screen" fill-rule="evenodd" clip-rule="evenodd"
            d="M175.57 188.362C175.57 189.789 174.425 190.933 172.999 190.933C171.572 190.933 170.427 189.789 170.427 188.362C170.427 186.936 171.572 185.791 172.999 185.791C174.425 185.791 175.57 186.936 175.57 188.362Z"
            fill="url(#paint32_radial_1345_30803)" />
        <path style="mix-blend-mode:screen" fill-rule="evenodd" clip-rule="evenodd"
            d="M183.684 146.965C183.684 150.862 180.531 154.015 176.634 154.015C172.737 154.015 169.584 150.862 169.584 146.965C169.584 143.068 172.737 139.915 176.634 139.915C180.531 139.915 183.684 143.068 183.684 146.965Z"
            fill="url(#paint33_radial_1345_30803)" />
        <path style="mix-blend-mode:screen" fill-rule="evenodd" clip-rule="evenodd"
            d="M179.546 146.965C179.546 148.572 178.241 149.878 176.634 149.878C175.027 149.878 173.721 148.572 173.721 146.965C173.721 145.358 175.027 144.053 176.634 144.053C178.241 144.053 179.546 145.358 179.546 146.965Z"
            fill="url(#paint34_radial_1345_30803)" />
        <path style="mix-blend-mode:screen"
            d="M176.634 148.512C177.488 148.512 178.181 147.819 178.181 146.965C178.181 146.111 177.488 145.418 176.634 145.418C175.78 145.418 175.087 146.111 175.087 146.965C175.087 147.819 175.78 148.512 176.634 148.512Z"
            fill="url(#paint35_radial_1345_30803)" />
        <g style="mix-blend-mode:screen">
            <path fill-rule="evenodd" clip-rule="evenodd"
                d="M132.003 231.105C132.003 233.837 129.773 236.067 127.041 236.067C124.31 236.067 122.08 233.837 122.08 231.105C122.08 228.374 124.31 226.144 127.041 226.144C129.773 226.144 132.003 228.374 132.003 231.105Z"
                fill="url(#paint36_radial_1345_30803)" />
        </g>
        <path style="mix-blend-mode:screen"
            d="M127.041 233.154C128.173 233.154 129.09 232.237 129.09 231.105C129.09 229.974 128.173 229.057 127.041 229.057C125.91 229.057 124.993 229.974 124.993 231.105C124.993 232.237 125.91 233.154 127.041 233.154Z"
            fill="url(#paint37_radial_1345_30803)" />
        <path style="mix-blend-mode:screen" fill-rule="evenodd" clip-rule="evenodd"
            d="M128.126 231.105C128.126 231.708 127.644 232.19 127.041 232.19C126.439 232.19 125.957 231.708 125.957 231.105C125.957 230.503 126.439 230.021 127.041 230.021C127.644 230.021 128.126 230.503 128.126 231.105Z"
            fill="url(#paint38_radial_1345_30803)" />
        <g style="mix-blend-mode:screen">
            <path fill-rule="evenodd" clip-rule="evenodd"
                d="M160.023 209.091C160.023 211.3 158.235 213.088 156.026 213.088C153.816 213.088 152.029 211.3 152.029 209.091C152.029 206.881 153.816 205.094 156.026 205.094C158.235 205.094 160.023 206.881 160.023 209.091Z"
                fill="url(#paint39_radial_1345_30803)" />
        </g>
        <path style="mix-blend-mode:screen" fill-rule="evenodd" clip-rule="evenodd"
            d="M157.693 209.091C157.693 209.995 156.95 210.738 156.046 210.738C155.142 210.738 154.399 209.995 154.399 209.091C154.399 208.187 155.142 207.444 156.046 207.444C156.95 207.444 157.693 208.187 157.693 209.091Z"
            fill="url(#paint40_radial_1345_30803)" />
        <path style="mix-blend-mode:screen" fill-rule="evenodd" clip-rule="evenodd"
            d="M156.909 209.091C156.909 209.573 156.528 209.975 156.026 209.975C155.523 209.975 155.142 209.593 155.142 209.091C155.142 208.589 155.544 208.207 156.026 208.207C156.508 208.207 156.909 208.589 156.909 209.091Z"
            fill="url(#paint41_radial_1345_30803)" />
        <g style="mix-blend-mode:screen">
            <path
                d="M162.032 151.183C163.141 151.183 164.04 150.283 164.04 149.174C164.04 148.065 163.141 147.166 162.032 147.166C160.922 147.166 160.023 148.065 160.023 149.174C160.023 150.283 160.922 151.183 162.032 151.183Z"
                fill="url(#paint42_radial_1345_30803)" />
        </g>
        <path style="mix-blend-mode:screen" fill-rule="evenodd" clip-rule="evenodd"
            d="M162.855 149.174C162.855 149.636 162.494 149.998 162.032 149.998C161.57 149.998 161.208 149.636 161.208 149.174C161.208 148.712 161.57 148.351 162.032 148.351C162.494 148.351 162.855 148.712 162.855 149.174Z"
            fill="url(#paint43_radial_1345_30803)" />
        <path style="mix-blend-mode:screen" fill-rule="evenodd" clip-rule="evenodd"
            d="M162.453 149.174C162.453 149.415 162.253 149.616 162.011 149.616C161.77 149.616 161.57 149.415 161.57 149.174C161.57 148.933 161.77 148.732 162.011 148.732C162.253 148.732 162.453 148.933 162.453 149.174Z"
            fill="url(#paint44_radial_1345_30803)" />
        <g style="mix-blend-mode:screen">
            <path fill-rule="evenodd" clip-rule="evenodd"
                d="M100.488 207.444C100.488 209.252 99.0215 210.718 97.2137 210.718C95.406 210.718 93.9397 209.252 93.9397 207.444C93.9397 205.636 95.406 204.17 97.2137 204.17C99.0215 204.17 100.488 205.636 100.488 207.444Z"
                fill="url(#paint45_radial_1345_30803)" />
        </g>
        <path style="mix-blend-mode:screen" fill-rule="evenodd" clip-rule="evenodd"
            d="M98.5593 207.444C98.5593 208.187 97.9568 208.81 97.1935 208.81C96.4302 208.81 95.8276 208.207 95.8276 207.444C95.8276 206.681 96.4302 206.078 97.1935 206.078C97.9568 206.078 98.5593 206.681 98.5593 207.444Z"
            fill="url(#paint46_radial_1345_30803)" />
        <path style="mix-blend-mode:screen" fill-rule="evenodd" clip-rule="evenodd"
            d="M97.9166 207.444C97.9166 207.846 97.5953 208.167 97.1936 208.167C96.7918 208.167 96.4705 207.846 96.4705 207.444C96.4705 207.042 96.7918 206.721 97.1936 206.721C97.5953 206.721 97.9166 207.042 97.9166 207.444Z"
            fill="url(#paint47_radial_1345_30803)" />
    </g>
    <defs>
        <radialGradient id="paint0_radial_1345_30803" cx="0" cy="0" r="1"
            gradientUnits="userSpaceOnUse"
            gradientTransform="translate(200.004 200.016) scale(183.848)">
            <stop stop-color="#00A0DE" />
            <stop offset="1" stop-color="#00A0DE" stop-opacity="0" />
        </radialGradient>
        <radialGradient id="paint1_radial_1345_30803" cx="0" cy="0" r="1"
            gradientUnits="userSpaceOnUse"
            gradientTransform="translate(192.361 233.857) scale(137.529 137.529)">
            <stop stop-color="#D7F1F7" />
            <stop offset="1" stop-color="#D5F0F7" />
        </radialGradient>
        <linearGradient id="paint2_linear_1345_30803" x1="197.162" y1="214.334" x2="197.162"
            y2="69.4127" gradientUnits="userSpaceOnUse">
            <stop stop-color="#D8F3F7" />
            <stop offset="0.77" stop-color="#D4F1F7" />
            <stop offset="1" stop-color="#D2F0F7" />
        </linearGradient>
        <linearGradient id="paint3_linear_1345_30803" x1="71.2423" y1="145.9" x2="244.384"
            y2="145.9" gradientUnits="userSpaceOnUse">
            <stop stop-color="#D8F0F7" />
            <stop offset="1" stop-color="#D8F3F7" />
        </linearGradient>
        <linearGradient id="paint4_linear_1345_30803" x1="137.446" y1="259.929" x2="308.338"
            y2="259.929" gradientUnits="userSpaceOnUse">
            <stop stop-color="#D2F0F6" />
            <stop offset="0.99" stop-color="#D2F2F7" />
        </linearGradient>
        <linearGradient id="paint5_linear_1345_30803" x1="101.733" y1="252.236" x2="304.803"
            y2="252.236" gradientUnits="userSpaceOnUse">
            <stop stop-color="#D2F0F6" />
            <stop offset="0.99" stop-color="#D2F2F7" />
        </linearGradient>
        <linearGradient id="paint6_linear_1345_30803" x1="93.9195" y1="180.649" x2="332.602"
            y2="180.649" gradientUnits="userSpaceOnUse">
            <stop stop-color="#D2F0F6" />
            <stop offset="0.99" stop-color="#D2F2F7" />
        </linearGradient>
        <radialGradient id="paint7_radial_1345_30803" cx="0" cy="0" r="1"
            gradientUnits="userSpaceOnUse"
            gradientTransform="translate(237.768 227.952) rotate(3.17) scale(65.397 62.031)">
            <stop offset="0.01" stop-color="#D2F4F7" />
            <stop offset="1" stop-color="#D2F0F6" />
        </radialGradient>
        <linearGradient id="paint8_linear_1345_30803" x1="208.31" y1="147.507" x2="208.31"
            y2="70.939" gradientUnits="userSpaceOnUse">
            <stop stop-color="#D8F3F7" />
            <stop offset="0.77" stop-color="#D4F1F7" />
            <stop offset="1" stop-color="#D2F0F7" />
        </linearGradient>
        <linearGradient id="paint9_linear_1345_30803" x1="112.821" y1="176.732" x2="112.821"
            y2="76.9449" gradientUnits="userSpaceOnUse">
            <stop stop-color="#D2F0F6" />
            <stop offset="0.99" stop-color="#D2F4F7" />
        </linearGradient>
        <linearGradient id="paint10_linear_1345_30803" x1="145.099" y1="322.658" x2="270.436"
            y2="322.658" gradientUnits="userSpaceOnUse">
            <stop stop-color="#D2F0F7" />
            <stop offset="1" stop-color="#D8F3F7" />
        </linearGradient>
        <linearGradient id="paint11_linear_1345_30803" x1="129.572" y1="331.596" x2="268.447"
            y2="331.596" gradientUnits="userSpaceOnUse">
            <stop offset="0.01" stop-color="#D2F4F7" />
            <stop offset="1" stop-color="#D2F0F6" />
        </linearGradient>
        <radialGradient id="paint12_radial_1345_30803" cx="0" cy="0" r="1"
            gradientUnits="userSpaceOnUse"
            gradientTransform="translate(55.997 166.268) scale(0.160693 0.160685)">
            <stop stop-color="#D3F0F6" />
            <stop offset="1" stop-color="#D2F0F6" />
        </radialGradient>
        <radialGradient id="paint13_radial_1345_30803" cx="0" cy="0" r="1"
            gradientUnits="userSpaceOnUse"
            gradientTransform="translate(174.344 170.204) scale(142.129 142.129)">
            <stop stop-color="#D3F0F6" />
            <stop offset="1" stop-color="#D2F0F6" />
        </radialGradient>
        <radialGradient id="paint14_radial_1345_30803" cx="0" cy="0" r="1"
            gradientUnits="userSpaceOnUse"
            gradientTransform="translate(260.915 242.856) scale(11.7704 11.7704)">
            <stop stop-color="#D2F2F7" />
            <stop offset="1" stop-color="#D2F0F6" />
        </radialGradient>
        <radialGradient id="paint15_radial_1345_30803" cx="0" cy="0" r="1"
            gradientUnits="userSpaceOnUse"
            gradientTransform="translate(260.915 242.856) scale(4.86082)">
            <stop offset="0.59" stop-color="#D5F2F7" />
            <stop offset="1" stop-color="#D2F0F6" />
        </radialGradient>
        <radialGradient id="paint16_radial_1345_30803" cx="0" cy="0" r="1"
            gradientUnits="userSpaceOnUse"
            gradientTransform="translate(260.915 242.856) scale(2.57101)">
            <stop offset="0.59" stop-color="#D8F3F7" />
            <stop offset="0.66" stop-color="#D6F2F6" />
            <stop offset="1" stop-color="#D2F0F6" />
        </radialGradient>
        <radialGradient id="paint17_radial_1345_30803" cx="0" cy="0" r="1"
            gradientUnits="userSpaceOnUse"
            gradientTransform="translate(267.925 226.225) scale(11.7704 11.7704)">
            <stop stop-color="#D2F2F7" />
            <stop offset="1" stop-color="#D2F0F6" />
        </radialGradient>
        <radialGradient id="paint18_radial_1345_30803" cx="0" cy="0" r="1"
            gradientUnits="userSpaceOnUse"
            gradientTransform="translate(267.925 226.225) scale(1.0043)">
            <stop offset="0.59" stop-color="#D5F2F7" />
            <stop offset="1" stop-color="#D2F0F6" />
        </radialGradient>
        <radialGradient id="paint19_radial_1345_30803" cx="0" cy="0" r="1"
            gradientUnits="userSpaceOnUse"
            gradientTransform="translate(267.925 226.225) scale(2.57101)">
            <stop offset="0.59" stop-color="#D8F3F7" />
            <stop offset="0.66" stop-color="#D6F2F6" />
            <stop offset="1" stop-color="#D2F0F6" />
        </radialGradient>
        <radialGradient id="paint20_radial_1345_30803" cx="0" cy="0" r="1"
            gradientUnits="userSpaceOnUse"
            gradientTransform="translate(269.231 234.54) scale(8.31563)">
            <stop stop-color="#D2F2F7" />
            <stop offset="1" stop-color="#D2F0F6" />
        </radialGradient>
        <radialGradient id="paint21_radial_1345_30803" cx="0" cy="0" r="1"
            gradientUnits="userSpaceOnUse"
            gradientTransform="translate(269.231 234.54) scale(3.43471 3.43472)">
            <stop offset="0.59" stop-color="#D5F2F7" />
            <stop offset="1" stop-color="#D2F0F6" />
        </radialGradient>
        <radialGradient id="paint22_radial_1345_30803" cx="0" cy="0" r="1"
            gradientUnits="userSpaceOnUse"
            gradientTransform="translate(269.23 234.54) scale(1.82784)">
            <stop offset="0.59" stop-color="#D8F3F7" />
            <stop offset="0.66" stop-color="#D6F2F6" />
            <stop offset="1" stop-color="#D2F0F6" />
        </radialGradient>
        <radialGradient id="paint23_radial_1345_30803" cx="0" cy="0" r="1"
            gradientUnits="userSpaceOnUse"
            gradientTransform="translate(256.255 251.051) scale(2.00861)">
            <stop stop-color="#D2F2F7" />
            <stop offset="1" stop-color="#D2F0F6" />
        </radialGradient>
        <radialGradient id="paint24_radial_1345_30803" cx="0" cy="0" r="1"
            gradientUnits="userSpaceOnUse"
            gradientTransform="translate(256.255 251.051) scale(0.823532)">
            <stop offset="0.59" stop-color="#D5F2F7" />
            <stop offset="1" stop-color="#D2F0F6" />
        </radialGradient>
        <radialGradient id="paint25_radial_1345_30803" cx="0" cy="0" r="1"
            gradientUnits="userSpaceOnUse"
            gradientTransform="translate(256.255 251.051) scale(0.441895)">
            <stop offset="0.59" stop-color="#D8F3F7" />
            <stop offset="0.66" stop-color="#D6F2F6" />
            <stop offset="1" stop-color="#D2F0F6" />
        </radialGradient>
        <radialGradient id="paint26_radial_1345_30803" cx="0" cy="0" r="1"
            gradientUnits="userSpaceOnUse"
            gradientTransform="translate(275.558 275.636) scale(2.00861)">
            <stop stop-color="#D2F2F7" />
            <stop offset="1" stop-color="#D2F0F6" />
        </radialGradient>
        <radialGradient id="paint27_radial_1345_30803" cx="0" cy="0" r="1"
            gradientUnits="userSpaceOnUse"
            gradientTransform="translate(275.578 275.636) scale(0.823547 0.823517)">
            <stop offset="0.59" stop-color="#D5F2F7" />
            <stop offset="1" stop-color="#D2F0F6" />
        </radialGradient>
        <radialGradient id="paint28_radial_1345_30803" cx="0" cy="0" r="1"
            gradientUnits="userSpaceOnUse"
            gradientTransform="translate(275.558 275.636) scale(0.441895 0.441879)">
            <stop offset="0.59" stop-color="#D8F3F7" />
            <stop offset="0.66" stop-color="#D6F2F6" />
            <stop offset="1" stop-color="#D2F0F6" />
        </radialGradient>
        <radialGradient id="paint29_radial_1345_30803" cx="0" cy="0" r="1"
            gradientUnits="userSpaceOnUse"
            gradientTransform="translate(240.878 226.315) scale(112.355 106.572)">
            <stop offset="0.01" stop-color="#8EB0D9" />
            <stop offset="1" stop-color="white" stop-opacity="0" />
        </radialGradient>
        <radialGradient id="paint30_radial_1345_30803" cx="0" cy="0" r="1"
            gradientUnits="userSpaceOnUse"
            gradientTransform="translate(172.998 188.362) scale(11.7704 11.7704)">
            <stop stop-color="#0086FF" />
            <stop offset="1" stop-color="white" stop-opacity="0" />
        </radialGradient>
        <radialGradient id="paint31_radial_1345_30803" cx="0" cy="0" r="1"
            gradientUnits="userSpaceOnUse"
            gradientTransform="translate(172.998 188.362) scale(4.86083)">
            <stop offset="0.59" stop-color="#5793FF" />
            <stop offset="1" stop-color="white" stop-opacity="0" />
        </radialGradient>
        <radialGradient id="paint32_radial_1345_30803" cx="0" cy="0" r="1"
            gradientUnits="userSpaceOnUse"
            gradientTransform="translate(172.999 188.362) scale(2.57102)">
            <stop offset="0.84" stop-color="white" />
            <stop offset="0.86" stop-color="#CBCBCB" />
            <stop offset="0.88" stop-color="#959595" />
            <stop offset="0.9" stop-color="#686868" />
            <stop offset="0.92" stop-color="#424242" />
            <stop offset="0.94" stop-color="#252525" />
            <stop offset="0.96" stop-color="#101010" />
            <stop offset="0.98" stop-color="#040404" />
            <stop offset="1" />
        </radialGradient>
        <radialGradient id="paint33_radial_1345_30803" cx="0" cy="0" r="1"
            gradientUnits="userSpaceOnUse"
            gradientTransform="translate(176.634 146.965) scale(7.05022 7.0502)">
            <stop stop-color="#0086FF" />
            <stop offset="0.11" stop-color="#006ACB" />
            <stop offset="0.24" stop-color="#004E95" />
            <stop offset="0.37" stop-color="#003668" />
            <stop offset="0.5" stop-color="#002242" />
            <stop offset="0.63" stop-color="#001325" />
            <stop offset="0.75" stop-color="#000810" />
            <stop offset="0.88" stop-color="#000204" />
            <stop offset="1" />
        </radialGradient>
        <radialGradient id="paint34_radial_1345_30803" cx="0" cy="0" r="1"
            gradientUnits="userSpaceOnUse"
            gradientTransform="translate(176.634 146.965) scale(2.91248)">
            <stop offset="0.59" stop-color="#5793FF" />
            <stop offset="0.63" stop-color="#4575CB" />
            <stop offset="0.69" stop-color="#335695" />
            <stop offset="0.74" stop-color="#233B68" />
            <stop offset="0.79" stop-color="#162642" />
            <stop offset="0.85" stop-color="#0C1525" />
            <stop offset="0.9" stop-color="#050910" />
            <stop offset="0.95" stop-color="#010204" />
            <stop offset="1" />
        </radialGradient>
        <radialGradient id="paint35_radial_1345_30803" cx="0" cy="0" r="1"
            gradientUnits="userSpaceOnUse"
            gradientTransform="translate(176.634 146.965) scale(1.54663 1.54662)">
            <stop offset="0.84" stop-color="white" />
            <stop offset="0.86" stop-color="#CBCBCB" />
            <stop offset="0.88" stop-color="#959595" />
            <stop offset="0.9" stop-color="#686868" />
            <stop offset="0.92" stop-color="#424242" />
            <stop offset="0.94" stop-color="#252525" />
            <stop offset="0.96" stop-color="#101010" />
            <stop offset="0.98" stop-color="#040404" />
            <stop offset="1" />
        </radialGradient>
        <radialGradient id="paint36_radial_1345_30803" cx="0" cy="0" r="1"
            gradientUnits="userSpaceOnUse"
            gradientTransform="translate(127.041 231.105) scale(4.96126 4.96127)">
            <stop stop-color="#0086FF" />
            <stop offset="1" stop-color="white" stop-opacity="0" />
        </radialGradient>
        <radialGradient id="paint37_radial_1345_30803" cx="0" cy="0" r="1"
            gradientUnits="userSpaceOnUse"
            gradientTransform="translate(127.041 231.105) scale(2.04878 2.04878)">
            <stop offset="0.59" stop-color="#5793FF" />
            <stop offset="1" stop-color="white" stop-opacity="0" />
        </radialGradient>
        <radialGradient id="paint38_radial_1345_30803" cx="0" cy="0" r="1"
            gradientUnits="userSpaceOnUse"
            gradientTransform="translate(127.041 231.105) scale(1.08465 1.08466)">
            <stop offset="0.59" stop-color="#FFFFA2" />
            <stop offset="1" />
        </radialGradient>
        <radialGradient id="paint39_radial_1345_30803" cx="0" cy="0" r="1"
            gradientUnits="userSpaceOnUse"
            gradientTransform="translate(156.026 209.091) scale(3.99712 3.99713)">
            <stop stop-color="#0086FF" />
            <stop offset="1" stop-color="white" stop-opacity="0" />
        </radialGradient>
        <radialGradient id="paint40_radial_1345_30803" cx="0" cy="0" r="1"
            gradientUnits="userSpaceOnUse"
            gradientTransform="translate(156.026 209.091) scale(1.64706)">
            <stop offset="0.59" stop-color="#5793FF" />
            <stop offset="0.63" stop-color="#4575CB" />
            <stop offset="0.69" stop-color="#335695" />
            <stop offset="0.74" stop-color="#233B68" />
            <stop offset="0.79" stop-color="#162642" />
            <stop offset="0.85" stop-color="#0C1525" />
            <stop offset="0.9" stop-color="#050910" />
            <stop offset="0.95" stop-color="#010204" />
            <stop offset="1" />
        </radialGradient>
        <radialGradient id="paint41_radial_1345_30803" cx="0" cy="0" r="1"
            gradientUnits="userSpaceOnUse"
            gradientTransform="translate(156.026 209.091) scale(0.883797 0.883781)">
            <stop offset="0.59" stop-color="#FFFFA2" />
            <stop offset="1" />
        </radialGradient>
        <radialGradient id="paint42_radial_1345_30803" cx="0" cy="0" r="1"
            gradientUnits="userSpaceOnUse"
            gradientTransform="translate(162.032 149.174) scale(2.00861 2.00861)">
            <stop stop-color="#0086FF" />
            <stop offset="1" stop-color="white" stop-opacity="0" />
        </radialGradient>
        <radialGradient id="paint43_radial_1345_30803" cx="0" cy="0" r="1"
            gradientUnits="userSpaceOnUse"
            gradientTransform="translate(162.032 149.174) scale(0.823532)">
            <stop offset="0.59" stop-color="#5793FF" />
            <stop offset="0.63" stop-color="#4575CB" />
            <stop offset="0.69" stop-color="#335695" />
            <stop offset="0.74" stop-color="#233B68" />
            <stop offset="0.79" stop-color="#162642" />
            <stop offset="0.85" stop-color="#0C1525" />
            <stop offset="0.9" stop-color="#050910" />
            <stop offset="0.95" stop-color="#010204" />
            <stop offset="1" />
        </radialGradient>
        <radialGradient id="paint44_radial_1345_30803" cx="0" cy="0" r="1"
            gradientUnits="userSpaceOnUse"
            gradientTransform="translate(162.032 149.174) scale(0.441887 0.441895)">
            <stop offset="0.59" stop-color="#FFFFA2" />
            <stop offset="0.63" stop-color="#CBCB81" />
            <stop offset="0.69" stop-color="#95955F" />
            <stop offset="0.74" stop-color="#686842" />
            <stop offset="0.79" stop-color="#42422A" />
            <stop offset="0.85" stop-color="#252517" />
            <stop offset="0.9" stop-color="#10100A" />
            <stop offset="0.95" stop-color="#040402" />
            <stop offset="1" />
        </radialGradient>
        <radialGradient id="paint45_radial_1345_30803" cx="0" cy="0" r="1"
            gradientUnits="userSpaceOnUse"
            gradientTransform="translate(97.2137 207.444) scale(3.27403)">
            <stop stop-color="#0086FF" />
            <stop offset="1" stop-color="white" stop-opacity="0" />
        </radialGradient>
        <radialGradient id="paint46_radial_1345_30803" cx="0" cy="0" r="1"
            gradientUnits="userSpaceOnUse"
            gradientTransform="translate(97.2136 207.444) scale(1.36585 1.36586)">
            <stop offset="0.59" stop-color="#5793FF" />
            <stop offset="0.63" stop-color="#4575CB" />
            <stop offset="0.69" stop-color="#335695" />
            <stop offset="0.74" stop-color="#233B68" />
            <stop offset="0.79" stop-color="#162642" />
            <stop offset="0.85" stop-color="#0C1525" />
            <stop offset="0.9" stop-color="#050910" />
            <stop offset="0.95" stop-color="#010204" />
            <stop offset="1" />
        </radialGradient>
        <radialGradient id="paint47_radial_1345_30803" cx="0" cy="0" r="1"
            gradientUnits="userSpaceOnUse"
            gradientTransform="translate(97.2136 207.444) scale(0.723095 0.723099)">
            <stop offset="0.59" stop-color="#FFFFA2" />
            <stop offset="0.63" stop-color="#CBCB81" />
            <stop offset="0.69" stop-color="#95955F" />
            <stop offset="0.74" stop-color="#686842" />
            <stop offset="0.79" stop-color="#42422A" />
            <stop offset="0.85" stop-color="#252517" />
            <stop offset="0.9" stop-color="#10100A" />
            <stop offset="0.95" stop-color="#040402" />
            <stop offset="1" />
        </radialGradient>
        <clipPath id="clip0_1345_30803">
            <rect width="400" height="400" fill="white" transform="translate(0 0.012207)" />
        </clipPath>
    </defs>
</svg>
    