<svg width="100" height="100" viewBox="0 0 100 100" fill="none" xmlns="http://www.w3.org/2000/svg">
    <circle cx="50" cy="50" r="50" fill="url(#paint0_linear_1940_14952)" />
    <g clip-path="url(#clip0_1940_14952)">
        <path
            d="M82.5 82.5C100.449 64.5507 100.449 35.4493 82.5 17.5C64.5507 -0.449254 35.4493 -0.449256 17.5 17.5C-0.449255 35.4493 -0.449255 64.5507 17.5 82.5C35.4493 100.449 64.5507 100.449 82.5 82.5Z"
            fill="url(#paint1_radial_1940_14952)" />
        <path fill-rule="evenodd" clip-rule="evenodd"
            d="M83.8988 51.2201C84.4763 60.7259 80.3134 67.8765 79.0882 69.8349C72.6857 80.0989 60.7998 85.8987 49.5366 85.5824C32.9706 85.1154 15.1743 71.3464 15.1743 51.2201C15.1743 32.2438 30.5602 16.8579 49.5366 16.8579C70.5064 16.8579 82.9949 36.3113 83.8988 51.2201Z"
            fill="url(#paint2_radial_1940_14952)" />
        <path style="mix-blend-mode:multiply" opacity="0.74" fill-rule="evenodd" clip-rule="evenodd"
            d="M18.4484 41.835C15.8222 50.9491 19.6335 52.4455 34.3415 53.5352C49.0495 54.6248 52.4893 35.8343 48.8638 29.703C45.2382 23.5768 33.6034 30.9534 30.4348 34.2073C27.2662 37.4613 35.4663 43.3013 38.8559 44.2654C42.2454 45.2296 44.1887 41.1822 45.3236 40.3436C46.4635 39.505 45.3738 46.018 38.0223 47.0524C30.6708 48.0868 20.919 44.4763 28.9936 33.3436C37.0682 22.2109 50.6966 26.8508 53.0115 28.7138C55.3264 30.5768 50.2798 33.5144 51.5704 38.1442C52.8659 42.7741 79.6607 38.551 80.8358 35.6234C82.0058 32.6959 68.4577 11.9018 42.7576 18.7109C20.7533 24.5359 18.4534 41.83 18.4534 41.83L18.4484 41.835Z"
            fill="url(#paint3_linear_1940_14952)" />
        <path style="mix-blend-mode:multiply" opacity="0.5" fill-rule="evenodd" clip-rule="evenodd"
            d="M22.2898 32.7712C14.9232 43.5775 17.8959 51.386 22.2898 55.4183C26.6836 59.4555 33.6233 46.7762 51.9418 47.9412C70.2603 49.1062 55.8737 40.3738 37.6556 45.9728C19.4375 51.5718 33.1011 43.2612 40.5129 42.0811C47.9246 40.9011 51.756 36.1306 48.6678 30.858C45.5796 25.5854 33.9548 28.1213 30.3644 36.0001C29.4806 37.9384 24.5746 36.7131 29.8873 31.3702C35.2001 26.0273 44.9569 24.8975 53.7948 27.2978C62.6377 29.698 61.548 23.1651 60.1821 18.8717C58.8213 14.5833 34.0301 15.5424 22.2898 32.7662V32.7712Z"
            fill="url(#paint4_linear_1940_14952)" />
        <path style="mix-blend-mode:screen" opacity="0.84" fill-rule="evenodd" clip-rule="evenodd"
            d="M54.1261 57.6427C63.0895 45.8321 72.6806 49.0408 76.5572 59.36C80.4389 69.6742 62.1455 82.5946 42.185 79.3507C22.2244 76.1118 46.0967 70.0257 51.4697 68.218C56.8478 66.4052 54.6684 72.5164 55.0049 74.0932C55.3413 75.6699 43.9726 76.147 43.9726 74.6154C43.9726 73.0838 48.1254 70.2166 50.5759 70.2166C53.0264 70.2166 49.3507 71.2409 50.4403 72.0946C51.53 72.9432 51.5852 71.2359 52.238 70.2166C52.8908 69.1972 44.1785 70.2216 40.2969 74.6154C36.4152 79.0042 55.5623 78.7833 61.8793 73.4906C72.0228 64.9841 59.7201 70.1211 52.6146 66.35C43.6864 61.6097 54.1161 57.6477 54.1161 57.6477L54.1261 57.6427Z"
            fill="url(#paint5_linear_1940_14952)" />
        <path style="mix-blend-mode:screen" fill-rule="evenodd" clip-rule="evenodd"
            d="M50.0637 76.0868C53.644 79.0645 66.7653 78.1054 72.9367 68.6499C79.1082 59.1944 74.9152 60.8214 73.3686 59.1844C71.8219 57.5524 73.0271 50.01 68.8894 56.4275C67.172 59.094 70.4762 50.8436 60.393 49.2267C50.3098 47.6098 34.6376 48.3379 28.0042 56.1112C21.3708 63.8845 28.3155 68.896 40.2316 70.4426C52.1476 71.9892 53.6641 69.9957 53.7897 64.2862C53.9152 58.5768 48.2409 57.9641 44.7811 60.3443C41.3212 62.7295 44.4948 66.335 44.7811 67.5954C45.0673 68.8558 47.0608 67.7661 47.4927 67.5954C47.9245 67.4247 46.6491 66.2697 47.4927 65.5868C48.3363 64.9039 49.7624 68.0724 49.2854 69.3831C48.8083 70.6937 38.5293 69.9756 33.558 68.3788C28.5867 66.7819 29.3048 59.325 37.8664 54.8307C46.4281 50.3364 54.0759 51.9634 58.2186 56.6636C62.3614 61.3637 61.1211 61.8458 61.0508 64.9792C60.9805 68.1126 67.8901 69.3479 69.6476 60.0481C70.0393 57.9742 72.7208 59.5861 73.9611 62.2023C75.2014 64.8185 70.7524 72.9584 65.2237 75.0825C59.695 77.2066 54.1914 78.3163 53.4432 76.2073C52.695 74.0983 50.0637 76.0868 50.0637 76.0868Z"
            fill="url(#paint6_linear_1940_14952)" />
        <path style="mix-blend-mode:screen" opacity="0.5" fill-rule="evenodd" clip-rule="evenodd"
            d="M25.4333 58.4813C24.7805 50.7432 22.8371 46.8214 47.1814 45.5961C71.5258 44.3709 80.5344 50.929 79.8464 60.048C79.1585 69.1671 85.1843 53.3493 82.4224 41.2224C79.6606 29.0904 59.6448 26.2331 51.9469 28.071C44.2539 29.9089 48.9189 31.5359 47.8794 32.495C46.84 33.4491 41.939 29.6377 30.6355 35.5631C19.3321 41.4885 24.8156 58.4813 24.8156 58.4813H25.4383H25.4333Z"
            fill="url(#paint7_linear_1940_14952)" />
        <path style="mix-blend-mode:screen"
            d="M75.6111 57.9728C76.0851 49.4137 69.1694 42.0708 60.1644 41.5721C51.1595 41.0733 43.4752 47.6076 43.0011 56.1668C42.5271 64.726 49.4428 72.0688 58.4478 72.5676C67.4528 73.0663 75.1371 66.532 75.6111 57.9728Z"
            fill="url(#paint8_radial_1940_14952)" />
        <path style="mix-blend-mode:multiply" opacity="0.5" fill-rule="evenodd" clip-rule="evenodd"
            d="M40.0057 19.5294C32.604 21.6184 29.2747 27.9304 29.1341 30.637C28.9935 33.3436 33.081 25.505 46.2223 26.3436C59.3636 27.1822 70.0645 35.0258 73.9562 36.7884C77.8478 38.5509 72.0329 10.4806 40.0057 19.5294Z"
            fill="url(#paint9_linear_1940_14952)" />
        <g style="mix-blend-mode:soft-light" opacity="0.8">
            <path fill-rule="evenodd" clip-rule="evenodd"
                d="M28.9282 39.5352C27.5925 38.8874 26.0409 41.8652 27.1557 42.9348C28.2654 44.0043 30.8917 40.4843 28.9282 39.5352Z"
                fill="#EBFBFC" />
        </g>
        <path style="mix-blend-mode:screen" fill-rule="evenodd" clip-rule="evenodd"
            d="M15.8923 44.18C15.8923 44.18 21.5717 24.0889 40.5078 19.2382C40.5078 19.2382 21.9784 19.8558 15.8923 44.18Z"
            fill="url(#paint10_linear_1940_14952)" />
        <path style="mix-blend-mode:multiply" opacity="0.74" fill-rule="evenodd" clip-rule="evenodd"
            d="M37.6556 77.0811C33.5631 77.297 38.7654 84.3773 50.817 84.2417C62.8687 84.1062 67.3981 80.3049 67.6039 79.858C67.8098 79.411 57.8672 86.5567 37.6556 77.0861V77.0811Z"
            fill="url(#paint11_linear_1940_14952)" />
        <path style="mix-blend-mode:screen" opacity="0.5" fill-rule="evenodd" clip-rule="evenodd"
            d="M32.3931 80.6614C32.3931 80.6614 38.3034 85.1255 48.6628 85.5674C59.0222 86.0093 67.1118 80.9024 67.1118 80.9024C67.1118 80.9024 53.1319 89.0423 34.1355 80.1893L32.3931 80.6614Z"
            fill="url(#paint12_linear_1940_14952)" />
        <path fill-rule="evenodd" clip-rule="evenodd"
            d="M14.0144 41.5187C14.0043 41.5588 13.9943 41.589 13.9893 41.6241C13.9943 41.6091 13.9993 41.5689 14.0144 41.5187Z"
            fill="url(#paint13_radial_1940_14952)" />
        <path fill-rule="evenodd" clip-rule="evenodd"
            d="M86.3493 51.2202C86.3493 62.0165 81.7043 71.7281 74.2926 78.4569C74.2173 78.5222 74.157 78.5825 74.1018 78.6277C74.0616 78.6678 74.0214 78.703 73.9813 78.7281C72.3844 80.1492 70.667 81.4347 68.8442 82.5595C68.8442 82.5595 66.2883 82.7503 64.119 82.3386C63.4712 82.213 62.8586 82.0423 62.3564 81.7862C60.1771 80.6965 63.8529 73.34 65.3543 73.2044C65.8665 73.1542 66.223 73.6262 66.5293 74.2389V74.2489C67.0516 75.2934 67.4432 76.7747 68.2617 76.9957H68.2668C68.3722 77.0258 68.4927 77.0358 68.6233 77.0107C69.7531 76.8249 74.6592 75.5846 77.5114 70.6987C77.5114 70.6987 78.6713 70.4074 79.1534 69.1571C79.6003 68.0122 79.2488 66.5961 79.1835 66.3551C79.1835 66.34 79.1785 66.335 79.1785 66.335V66.3249C79.4648 64.9541 79.6154 63.4175 79.5853 61.6951C79.5049 57.4218 73.2732 46.0631 68.8894 46.6908C68.8894 46.6908 68.8878 46.6908 68.8844 46.6908C68.6735 46.7159 68.4726 46.7762 68.2768 46.8615C68.2668 46.8666 68.2617 46.8666 68.2617 46.8666C67.4031 47.2382 66.6398 48.1621 66.0372 49.7841C63.2603 57.2762 58.2438 60.2841 56.9382 61.2532C56.5114 61.5645 56.4863 61.665 57.0537 61.6298C62.2359 61.3235 58.5501 72.2503 57.596 73.8823C56.642 75.5193 60.4583 76.8802 54.5982 80.0086C53.7496 80.4605 52.7402 80.8823 51.5903 81.2589C51.1484 81.4046 50.6864 81.5452 50.2044 81.6707C43.3149 83.5287 32.8249 83.6793 25.1068 78.7432C22.7467 76.6542 20.6527 74.2539 18.8902 71.6226C18.8902 71.6226 18.8902 71.6176 18.8852 71.6126L18.2575 70.6384C14.7424 64.9993 12.7188 58.3407 12.7188 51.2102C12.7188 47.901 13.1556 44.6872 13.9791 41.6392L15.4756 43.6227C15.5007 43.6679 15.5358 43.708 15.5659 43.7482C15.7618 43.9943 15.8873 44.175 15.8873 44.175C15.8873 44.175 14.5566 54.7554 17.5545 55.7095C17.7001 55.7597 17.8457 55.7948 17.9913 55.83C18.137 55.8601 18.2776 55.8902 18.4131 55.9103H18.4182C18.5588 55.9254 18.6944 55.9404 18.8299 55.9555C19.0358 55.9706 19.2417 55.9706 19.4375 55.9656C19.5129 55.9656 19.5781 55.9605 19.6484 55.9555C19.7941 55.9455 19.9296 55.9304 20.0652 55.9103C20.241 55.8852 20.4167 55.8551 20.5774 55.825C20.6176 55.8149 20.6578 55.8049 20.6979 55.8049C20.6979 55.8049 20.7013 55.8032 20.708 55.7998C20.7381 55.7948 20.7733 55.7898 20.8034 55.7798C20.8084 55.7798 20.8134 55.7747 20.8134 55.7747C20.8285 55.7747 20.8385 55.7697 20.8586 55.7697C20.9239 55.7547 20.9842 55.7446 21.0294 55.7245C21.0344 55.7245 21.0394 55.7195 21.0394 55.7195C21.0595 55.7145 21.0846 55.7095 21.1047 55.7095C21.1248 55.7044 21.1499 55.6944 21.17 55.6894C21.185 55.6843 21.2001 55.6843 21.2152 55.6793C21.2403 55.6743 21.2603 55.6693 21.2603 55.6693C22.1893 55.4283 22.7367 55.2374 22.7367 55.9204C22.7367 56.5631 22.4002 57.5373 22.6212 58.4813C22.6865 58.7625 22.7969 59.0387 22.9827 59.2948C23.3041 60.0129 23.751 60.9569 23.8866 61.0574C24.0372 61.1729 24.3988 60.9117 24.6248 60.7209C24.6298 60.7159 24.6348 60.7159 24.6348 60.7109C24.69 60.6456 24.7403 60.5954 24.8055 60.5602H24.8106C24.8106 60.5602 24.8156 60.5552 24.8206 60.5602C25.3278 60.741 25.9354 60.9067 26.6735 61.0222C28.9634 61.3938 33.9347 61.0825 38.9461 59.9225L39.0717 59.8924C39.4784 59.802 39.8801 59.6965 40.2869 59.5911L40.5028 59.5359C43.1542 58.8228 45.7402 57.8737 47.8844 56.6635H47.8895C48.3866 56.3823 48.8486 56.0861 49.2854 55.7798C51.51 54.213 52.9963 52.2697 53.0968 49.9247C53.5085 40.9412 52.0071 37.2604 52.1477 36.0352C52.1678 35.8544 52.2381 35.6435 52.3536 35.4225V35.4125C52.9712 34.1621 54.7338 32.495 54.7338 32.495C54.7338 32.495 53.5939 31.2446 53.8199 30.5115C53.8199 30.5115 53.8199 30.5065 53.8249 30.5014C53.8349 30.4362 53.8701 30.3759 53.9153 30.3157C53.9806 30.2353 54.1262 30.1198 54.322 29.9692C54.322 29.9692 54.327 29.9692 54.3321 29.9641C55.5171 29.0603 58.4246 26.9663 55.6427 24.5309L55.7582 23.165L53.9856 23.406H53.9806C53.9806 23.406 53.9002 23.3609 53.7897 23.3157C53.3177 23.0545 52.7704 22.7984 52.1527 22.5524C43.2445 18.9068 37.9519 18.8917 37.8565 18.8917V16.3006C41.5272 15.0653 45.449 14.4025 49.5365 14.4025C56.6972 14.4025 63.3758 16.4462 69.02 19.9814C69.025 19.9864 69.03 19.9914 69.0351 19.9914H69.0401L69.0501 19.9964C79.4447 26.5093 86.3493 38.0538 86.3493 51.2152V51.2202Z"
            fill="url(#paint14_radial_1940_14952)" />
        <g style="mix-blend-mode:multiply" opacity="0.8">
            <path fill-rule="evenodd" clip-rule="evenodd"
                d="M54.7389 32.4899C59.7755 29.3615 64.7117 30.6721 74.4835 34.8048C84.2554 38.9426 75.5029 44.3708 69.3766 45.4956C63.2504 46.6205 60.7999 46.8213 58.0381 50.703C55.2762 54.5846 49.1299 55.8801 49.1299 55.8801L47.8745 56.6635C47.8745 56.6635 53.9003 55.4031 58.3444 51.0093C62.7884 46.6154 66.5144 45.5961 71.5208 45.7517C76.5273 45.9074 83.2662 49.784 84.4412 50.7582C85.6162 51.7273 86.0832 55.7044 86.0832 55.7044L86.3544 52.5459C86.3544 52.5459 85.1543 51.7776 84.2906 49.2266C83.4218 46.6757 81.122 47.6448 76.6829 46.5702C72.2389 45.4956 74.7446 44.6822 78.8773 40.7001C83.0151 36.718 83.8185 37.7625 83.8185 37.7625L83.5624 37.1298C83.5624 37.1298 82.0158 37.4964 79.1334 40.1126C79.1334 40.1126 78.8522 36.8938 78.5459 35.774C78.2396 34.6492 69.1758 31.4454 63.3006 30.7625C57.4305 30.0796 54.7389 32.4949 54.7389 32.4949V32.4899Z"
                fill="#B3DBE0" />
        </g>
        <g style="mix-blend-mode:multiply" opacity="0.8">
            <path fill-rule="evenodd" clip-rule="evenodd"
                d="M69.0351 19.9914C68.7238 19.8909 63.0093 18.033 59.7051 19.6248C56.3005 21.2568 55.6427 24.5308 55.6427 24.5308L55.7582 23.165L53.9856 23.406C53.9856 23.406 53.0366 22.3465 53.2726 21.6183C53.5086 20.8952 54.9397 19.9612 59.6399 18.982C64.104 18.048 68.5832 19.8006 69.0251 19.9813C69.0301 19.9863 69.0351 19.9914 69.0401 19.9914H69.0351Z"
                fill="#B3DBE0" />
        </g>
        <path fill-rule="evenodd" clip-rule="evenodd"
            d="M24.8106 60.5603C24.8106 60.5603 24.7253 60.6406 24.6399 60.7109C24.6951 60.6457 24.7453 60.5955 24.8106 60.5603Z"
            fill="#D2F0F6" />
        <g style="mix-blend-mode:multiply" opacity="0.8">
            <path fill-rule="evenodd" clip-rule="evenodd"
                d="M51.5902 81.2689L50.2043 81.6807C50.2043 81.6807 33.9697 82.7402 37.7158 76.6843C37.7158 76.6843 35.21 77.317 29.6964 72.5164C24.1828 67.7159 19.8894 68.0674 19.0257 68.3787C18.1921 68.675 18.8449 71.4067 18.8901 71.6226L18.2624 70.6484C18.2624 70.6484 18.2072 68.3787 18.5135 67.4096C18.8148 66.4404 25.2524 69.0667 26.4726 69.7446C27.7029 70.4225 23.7861 63.8895 23.073 61.7453C22.355 59.6011 22.6211 58.4863 22.6211 58.4863C22.6211 58.4863 22.7768 58.8479 22.9827 59.2998C23.304 60.0179 23.7509 60.9619 23.8865 61.0624C24.0372 61.1779 24.3987 60.9167 24.6247 60.7259C23.7309 61.8859 24.459 67.2288 30.4245 72.5365C37.6505 78.9691 46.7646 73.355 49.6921 67.972C52.6196 62.5939 44.9267 63.1413 41.728 62.9354C38.5242 62.7295 38.9511 59.9275 38.9511 59.9275L39.0766 59.8974L40.2918 59.5961L40.5077 59.5408C40.5077 59.5408 39.0415 62.3529 41.6275 62.7647C44.2136 63.1764 56.9381 61.2682 56.9381 61.2682L57.0536 61.6449C57.0536 61.6449 49.2854 62.5487 47.8793 62.835C46.4783 63.1212 49.2602 63.4124 50.2143 64.8787C51.1634 66.34 49.5666 72.1298 41.4618 75.5996C33.3621 79.0695 41.4317 82.9813 51.5953 81.274L51.5902 81.2689Z"
                fill="#B3DBE0" />
        </g>
        <g style="mix-blend-mode:multiply" opacity="0.8">
            <path fill-rule="evenodd" clip-rule="evenodd"
                d="M58.2187 72.4663C58.2187 72.4663 56.883 73.9627 51.0228 76.137C45.1678 78.3164 40.8442 78.2461 40.8442 78.2461C40.8442 78.2461 44.0429 78.6126 47.5932 78.6126C51.1434 78.6126 50.35 76.9003 52.5444 75.906C54.7388 74.9118 56.3959 74.952 57.0487 74.3243C57.6964 73.6966 58.2187 72.4663 58.2187 72.4663Z"
                fill="#D2F0F6" />
        </g>
        <g style="mix-blend-mode:multiply" opacity="0.8">
            <path fill-rule="evenodd" clip-rule="evenodd"
                d="M79.4345 72.2303C77.8979 74.9319 75.2365 77.5631 74.2925 78.457C74.2172 78.5223 74.1569 78.5825 74.1017 78.6277C74.0264 78.698 73.9761 78.7482 73.9561 78.7633C73.9661 78.7532 73.9711 78.7432 73.9812 78.7332C77.903 74.3845 77.5063 70.7138 77.5063 70.7138C77.5063 70.7138 78.6662 70.4226 79.1483 69.1722C79.6103 67.9821 79.2136 66.4957 79.1734 66.3501C79.3291 66.5409 81.2372 69.0517 79.4245 72.2353L79.4345 72.2303Z"
                fill="#D2F0F6" />
        </g>
        <g style="mix-blend-mode:soft-light">
            <path fill-rule="evenodd" clip-rule="evenodd"
                d="M37.8566 18.8916V16.3005C37.8566 16.3005 46.8401 17.119 49.9685 18.7109C53.1019 20.3027 53.9807 23.406 53.9807 23.406C53.9807 23.406 46.4032 19.6901 37.8516 18.8866L37.8566 18.8916Z"
                fill="#D7F2F7" />
        </g>
        <g style="mix-blend-mode:soft-light">
            <path fill-rule="evenodd" clip-rule="evenodd"
                d="M58.4145 26.3989C58.4446 28.1514 54.5781 29.8587 54.332 29.9642C55.5171 29.0603 58.4246 26.9663 55.6426 24.5309C55.6426 24.5309 56.4009 22.7231 56.8428 22.7231C57.2847 22.7231 58.3743 24.5911 58.4095 26.3989H58.4145Z"
                fill="#D7F2F7" />
        </g>
        <g style="mix-blend-mode:soft-light">
            <path fill-rule="evenodd" clip-rule="evenodd"
                d="M56.5867 31.5459L54.7387 32.495C54.7387 32.495 53.5988 31.2446 53.8248 30.5115C53.8248 30.5115 53.8248 30.5065 53.8298 30.5014C53.9152 30.4563 54.8442 29.9943 55.6225 30.3508C56.436 30.7274 56.5867 31.5459 56.5867 31.5459Z"
                fill="#D7F2F7" />
        </g>
        <g style="mix-blend-mode:soft-light">
            <path fill-rule="evenodd" clip-rule="evenodd"
                d="M51.3995 55.2073C50.9626 55.3579 49.2854 55.7798 49.2854 55.7798C51.5099 54.213 52.9963 52.2697 53.0967 49.9247C53.5085 40.9412 52.0071 37.2604 52.1477 36.0351C52.1677 35.8544 52.2381 35.6435 52.3535 35.4225V35.4125C52.3535 35.4125 54.2467 45.1944 54.7086 49.2819C55.1656 53.3694 51.8363 55.0567 51.3995 55.2123V55.2073Z"
                fill="#D7F2F7" />
        </g>
        <g style="mix-blend-mode:soft-light">
            <path fill-rule="evenodd" clip-rule="evenodd"
                d="M48.5072 57.2762C47.9649 57.8185 40.9348 62.5488 40.292 62.1822C39.6493 61.8106 40.292 59.5911 40.292 59.5911L40.5079 59.5359C43.1593 58.8228 45.7454 57.8738 47.8896 56.6636H48.0302C48.0302 56.6636 49.0546 56.7339 48.5122 57.2762H48.5072Z"
                fill="#D7F2F7" />
        </g>
        <g style="mix-blend-mode:soft-light">
            <path fill-rule="evenodd" clip-rule="evenodd"
                d="M38.9562 59.9225C38.9562 59.9225 38.3636 62.7898 35.4662 63.0961C32.5688 63.4024 25.1169 63.4375 24.7252 62.8601C24.3335 62.2826 24.8106 60.5602 24.8106 60.5602H24.8256C25.3328 60.741 25.9404 60.9067 26.6786 61.0222C28.9684 61.3938 33.9397 61.0825 38.9512 59.9225H38.9562Z"
                fill="#D7F2F7" />
        </g>
        <g style="mix-blend-mode:soft-light">
            <path fill-rule="evenodd" clip-rule="evenodd"
                d="M21.2605 55.6643C21.2605 55.6643 15.6062 57.3465 14.4312 54.1829C13.2562 51.0143 13.7081 42.7389 14.0144 42.3824C14.2354 42.1313 15.0941 43.1406 15.5711 43.7532C15.7669 43.9993 15.8925 44.1801 15.8925 44.1801C15.8925 44.1801 14.5618 54.7604 17.5596 55.7145C19.051 56.1865 20.3415 55.9053 21.2555 55.6643H21.2605Z"
                fill="#D7F2F7" />
        </g>
        <g style="mix-blend-mode:soft-light">
            <path fill-rule="evenodd" clip-rule="evenodd"
                d="M80.7152 65.652C80.7152 65.652 80.4239 67.3191 80.213 67.6606C80.0122 67.977 79.284 66.5458 79.1886 66.36C79.1886 66.345 79.1836 66.3399 79.1836 66.3399V66.3299C79.4698 64.959 79.6205 63.4224 79.5904 61.7001C79.51 57.4267 73.2783 46.0681 68.8945 46.6958C69.8436 46.4698 71.6664 46.1836 73.0172 46.8715C74.9254 47.8457 80.675 57.8184 80.9863 60.7861C81.2927 63.7438 80.7152 65.652 80.7152 65.652Z"
                fill="#D7F2F7" />
        </g>
        <g style="mix-blend-mode:soft-light">
            <path fill-rule="evenodd" clip-rule="evenodd"
                d="M66.5292 74.254C66.5292 74.254 60.639 79.5065 64.1189 82.3386C63.4711 82.2131 62.8585 82.0423 62.3563 81.7862C60.177 80.6966 63.8527 73.3401 65.3542 73.2045C65.8664 73.1543 66.2229 73.6263 66.5292 74.2389V74.2489V74.254Z"
                fill="#D7F2F7" />
        </g>
        <g style="mix-blend-mode:soft-light">
            <path fill-rule="evenodd" clip-rule="evenodd"
                d="M76.9489 73.9476C75.9446 75.4842 73.0221 77.3622 71.2847 77.5681C69.6225 77.764 68.3822 77.0961 68.2617 77.0057C68.3672 77.0358 68.4877 77.0459 68.6182 77.0208C69.7481 76.835 74.6541 75.5947 77.5063 70.7087C77.5063 70.7087 77.9482 72.411 76.9439 73.9476H76.9489Z"
                fill="#D7F2F7" />
        </g>
        <g style="mix-blend-mode:soft-light">
            <path fill-rule="evenodd" clip-rule="evenodd"
                d="M56.5867 31.546C56.5867 31.546 63.5314 31.7669 64.9826 31.7669C66.4339 31.7669 71.5407 33.5998 71.5407 33.5998C71.5407 33.5998 66.3887 31.4355 63.5264 30.9233C60.6692 30.4111 56.5867 31.546 56.5867 31.546Z"
                fill="#D7F2F7" />
        </g>
        <g style="mix-blend-mode:soft-light">
            <path fill-rule="evenodd" clip-rule="evenodd"
                d="M59.3135 50.1005C59.3135 50.1005 61.8041 48.0316 62.713 47.5947C64.6262 46.6708 67.147 46.2188 68.0308 46.0079C68.9146 45.797 69.1054 45.787 69.1054 45.787C69.1054 45.787 66.429 45.8724 63.647 47.1328C60.8651 48.3932 59.3135 50.1005 59.3135 50.1005Z"
                fill="#D7F2F7" />
        </g>
        <g style="mix-blend-mode:soft-light">
            <path fill-rule="evenodd" clip-rule="evenodd"
                d="M56.5867 22.3816C56.5867 22.3816 59.1627 19.9211 61.332 19.4541C63.5013 18.9871 65.766 19.213 65.766 19.213C65.766 19.213 63.6268 18.4849 60.6943 19.2633C57.7617 20.0416 56.5917 22.3766 56.5917 22.3766L56.5867 22.3816Z"
                fill="#D7F2F7" />
        </g>
        <g style="mix-blend-mode:soft-light">
            <path fill-rule="evenodd" clip-rule="evenodd"
                d="M47.4927 62.9857C47.4927 62.9857 49.6318 62.5387 52.2179 62.2224C54.804 61.906 56.3958 61.7152 56.3958 61.7152C56.3958 61.7152 54.7839 62.5136 52.9812 62.7547C51.1785 62.9907 47.4927 62.9907 47.4927 62.9907V62.9857Z"
                fill="#D7F2F7" />
        </g>
        <g style="mix-blend-mode:soft-light">
            <path fill-rule="evenodd" clip-rule="evenodd"
                d="M26.9247 70.4425C26.9247 70.4425 29.8723 72.9733 31.9412 74.8614C34.0101 76.7495 35.9986 77.0307 36.8673 76.9805C37.736 76.9303 37.8616 76.624 37.8616 76.624C37.8616 76.624 37.3795 76.619 35.2303 76.1921C33.0811 75.7653 28.9885 71.5623 26.9197 70.4425H26.9247Z"
                fill="#D7F2F7" />
        </g>
        <g style="mix-blend-mode:soft-light">
            <path fill-rule="evenodd" clip-rule="evenodd"
                d="M39.4985 76.6391C39.4985 76.6391 42.6872 75.6047 43.7116 74.8364C44.731 74.0681 45.208 73.6362 47.1714 72.1549C49.1348 70.6735 50.0638 67.8113 50.0638 67.8113C50.0638 67.8113 49.5466 70.2015 46.0868 72.8227C42.6269 75.444 39.4985 76.6441 39.4985 76.6441V76.6391Z"
                fill="#D7F2F7" />
        </g>
        <g style="mix-blend-mode:soft-light">
            <path fill-rule="evenodd" clip-rule="evenodd"
                d="M76.3113 46.726C76.3113 46.726 82.1162 49.1614 83.1104 50.1004C84.1047 51.0394 85.2496 52.094 85.2496 52.094C85.2496 52.094 84.8479 50.8988 83.482 50.1004C82.1162 49.302 77.9634 47.6148 76.3113 46.726Z"
                fill="#D7F2F7" />
        </g>
        <g style="mix-blend-mode:soft-light">
            <path fill-rule="evenodd" clip-rule="evenodd"
                d="M75.0659 44.145C75.0659 44.145 76.7783 42.7691 78.6915 41.2877C80.6047 39.8064 81.7797 38.2999 81.7797 38.2999C81.7797 38.2999 80.5394 39.4599 79.2087 40.3788C77.878 41.2978 75.0659 44.145 75.0659 44.145Z"
                fill="#D7F2F7" />
        </g>
        <g style="mix-blend-mode:multiply" opacity="0.3">
            <path fill-rule="evenodd" clip-rule="evenodd"
                d="M65.1334 32.731C62.3765 32.8013 58.6355 41.1571 58.4095 44.8328C58.1836 48.5086 66.0473 46.1284 72.1283 43.6478C78.2094 41.1671 77.9483 38.5007 76.5222 36.4067C75.091 34.3128 67.0767 32.6808 65.1334 32.731Z"
                fill="#D2F0F6" />
        </g>
        <g style="mix-blend-mode:multiply" opacity="0.3">
            <path fill-rule="evenodd" clip-rule="evenodd"
                d="M69.7431 20.7396C68.0257 19.7453 66.6348 26.9512 66.2481 29.2259C65.8614 31.5007 74.383 32.3393 77.0343 34.5387C79.6907 36.7331 80.454 34.845 80.5092 33.9763C80.5594 33.1076 75.1964 23.8931 69.7481 20.7396H69.7431Z"
                fill="#D2F0F6" />
        </g>
        <g style="mix-blend-mode:multiply" opacity="0.3">
            <path fill-rule="evenodd" clip-rule="evenodd"
                d="M42.5616 76.6392C41.1908 76.0366 48.5875 73.1241 50.8873 69.2977C53.1872 65.4663 51.0932 65.1098 52.4691 64.4972C53.85 63.8845 57.8321 64.5474 58.6506 66.8974C59.4691 69.2475 55.9038 74.2389 50.0638 76.0868C44.2238 77.9347 42.5616 76.6392 42.5616 76.6392Z"
                fill="#D2F0F6" />
        </g>
        <g style="mix-blend-mode:multiply" opacity="0.3">
            <path fill-rule="evenodd" clip-rule="evenodd"
                d="M28.0094 68.8859C27.6528 66.335 42.2253 68.0674 44.3343 69.7044C46.4433 71.3364 40.9599 75.68 36.1693 75.0172C31.3788 74.3493 28.0094 68.891 28.0094 68.891V68.8859Z"
                fill="#D2F0F6" />
        </g>
        <g style="mix-blend-mode:multiply" opacity="0.3">
            <path fill-rule="evenodd" clip-rule="evenodd"
                d="M19.5329 72.0043C18.0516 69.4383 28.3557 72.3407 32.393 75.5444C36.4353 78.7481 39.4985 81.756 39.4985 81.756C39.4985 81.756 26.5279 84.1111 19.5329 72.0093V72.0043Z"
                fill="#D2F0F6" />
        </g>
        <g style="mix-blend-mode:soft-light">
            <path fill-rule="evenodd" clip-rule="evenodd"
                d="M84.6521 40.1378C83.9792 38.4004 85.0187 45.1744 84.6521 47.2031C84.2855 49.2318 86.3393 52.094 86.3393 52.094C86.3393 52.094 86.2992 44.4061 84.6521 40.1378Z"
                fill="#D6F3F7" />
        </g>
        <g style="mix-blend-mode:soft-light">
            <path fill-rule="evenodd" clip-rule="evenodd"
                d="M86.0782 55.7094C86.0782 55.7094 85.4154 51.8328 83.8989 51.2202C82.3773 50.6076 81.9606 58.9583 81.83 62.9906C81.6994 67.0179 81.83 68.911 81.83 68.911C81.83 68.911 85.9376 62.2474 86.0782 55.7094Z"
                fill="#D6F3F7" />
        </g>
        <g style="mix-blend-mode:soft-light">
            <path fill-rule="evenodd" clip-rule="evenodd"
                d="M76.3113 25.952C76.3113 25.952 80.6147 32.3595 80.7804 34.8803C80.9512 37.4011 83.3816 36.7081 83.3816 36.7081C83.3816 36.7081 81.2223 31.2296 76.3113 25.952Z"
                fill="#D6F3F7" />
        </g>
        <g style="mix-blend-mode:soft-light">
            <path fill-rule="evenodd" clip-rule="evenodd"
                d="M57.5259 31.3552C57.5259 31.3552 60.1471 31.9728 61.4728 31.6916C62.7985 31.4104 63.6873 31.1041 63.6873 31.1041C63.6873 31.1041 61.5431 30.4212 57.5259 31.3602V31.3552Z"
                fill="#D7F2F7" />
        </g>
        <g style="mix-blend-mode:multiply" opacity="0.3">
            <path fill-rule="evenodd" clip-rule="evenodd"
                d="M47.2468 62.2023C46.363 61.4993 54.6284 55.2173 58.7661 52.094C62.9038 48.9706 65.7611 48.6392 65.7611 48.6392C65.7611 48.6392 61.8995 55.9254 58.7661 59.0488C55.6327 62.1722 47.2468 62.2073 47.2468 62.2073V62.2023Z"
                fill="#D2F0F6" />
        </g>
        <g style="mix-blend-mode:soft-light">
            <path fill-rule="evenodd" clip-rule="evenodd"
                d="M77.3708 42.081C77.3708 42.081 78.34 41.599 79.0079 41.0365C79.6757 40.4741 80.2733 39.731 80.2733 39.731C80.2733 39.731 78.33 41.0918 77.3708 42.081Z"
                fill="#D7F2F7" />
        </g>
        <g style="mix-blend-mode:soft-light">
            <path fill-rule="evenodd" clip-rule="evenodd"
                d="M43.2495 14.9398C43.2495 14.9398 50.7667 17.1794 54.7538 18.1787C58.7409 19.1779 66.0572 18.7109 66.0572 18.7109C66.0572 18.7109 57.7215 13.0216 43.2495 14.9348V14.9398Z"
                fill="#D6F3F7" />
        </g>
        <g style="mix-blend-mode:soft-light">
            <path fill-rule="evenodd" clip-rule="evenodd"
                d="M12.8442 54.2332C12.8442 54.2332 16.3693 61.1779 17.2381 63.7288C18.1068 66.2798 17.685 69.3981 17.685 69.3981C17.685 69.3981 13.5071 64.0402 12.8493 54.2332H12.8442Z"
                fill="#D6F3F7" />
        </g>
        <path style="mix-blend-mode:screen" fill-rule="evenodd" clip-rule="evenodd"
            d="M68.1665 60.7109C68.1665 62.3379 66.8508 63.6535 65.2239 63.6535C63.5969 63.6535 62.2812 62.3379 62.2812 60.7109C62.2812 59.0839 63.5969 57.7683 65.2239 57.7683C66.8508 57.7683 68.1665 59.0839 68.1665 60.7109Z"
            fill="url(#paint15_radial_1940_14952)" />
        <path style="mix-blend-mode:screen"
            d="M65.2289 61.9261C65.9 61.9261 66.4441 61.3821 66.4441 60.7109C66.4441 60.0398 65.9 59.4957 65.2289 59.4957C64.5577 59.4957 64.0137 60.0398 64.0137 60.7109C64.0137 61.3821 64.5577 61.9261 65.2289 61.9261Z"
            fill="url(#paint16_radial_1940_14952)" />
        <path style="mix-blend-mode:screen" fill-rule="evenodd" clip-rule="evenodd"
            d="M65.8717 60.7109C65.8717 61.0674 65.5855 61.3536 65.2289 61.3536C64.8724 61.3536 64.5862 61.0674 64.5862 60.7109C64.5862 60.3543 64.8724 60.0681 65.2289 60.0681C65.5855 60.0681 65.8717 60.3543 65.8717 60.7109Z"
            fill="url(#paint17_radial_1940_14952)" />
        <path style="mix-blend-mode:screen" fill-rule="evenodd" clip-rule="evenodd"
            d="M69.9238 56.5531C69.9238 58.1801 68.6082 59.4957 66.9812 59.4957C65.3542 59.4957 64.0386 58.1801 64.0386 56.5531C64.0386 54.9261 65.3542 53.6105 66.9812 53.6105C68.6082 53.6105 69.9238 54.9261 69.9238 56.5531Z"
            fill="url(#paint18_radial_1940_14952)" />
        <path style="mix-blend-mode:screen"
            d="M66.9811 57.7683C67.6522 57.7683 68.1963 57.2242 68.1963 56.5531C68.1963 55.882 67.6522 55.3379 66.9811 55.3379C66.3099 55.3379 65.7659 55.882 65.7659 56.5531C65.7659 57.2242 66.3099 57.7683 66.9811 57.7683Z"
            fill="url(#paint19_radial_1940_14952)" />
        <path style="mix-blend-mode:screen" fill-rule="evenodd" clip-rule="evenodd"
            d="M67.6239 56.553C67.6239 56.9096 67.3377 57.1958 66.9811 57.1958C66.6246 57.1958 66.3384 56.9096 66.3384 56.553C66.3384 56.1965 66.6246 55.9103 66.9811 55.9103C67.3377 55.9103 67.6239 56.1965 67.6239 56.553Z"
            fill="url(#paint20_radial_1940_14952)" />
        <path style="mix-blend-mode:screen"
            d="M67.3077 60.7109C68.4558 60.7109 69.3866 59.7802 69.3866 58.632C69.3866 57.4839 68.4558 56.5531 67.3077 56.5531C66.1595 56.5531 65.2288 57.4839 65.2288 58.632C65.2288 59.7802 66.1595 60.7109 67.3077 60.7109Z"
            fill="url(#paint21_radial_1940_14952)" />
        <path style="mix-blend-mode:screen"
            d="M67.3077 59.4907C67.7819 59.4907 68.1663 59.1062 68.1663 58.632C68.1663 58.1578 67.7819 57.7733 67.3077 57.7733C66.8334 57.7733 66.449 58.1578 66.449 58.632C66.449 59.1062 66.8334 59.4907 67.3077 59.4907Z"
            fill="url(#paint22_radial_1940_14952)" />
        <path style="mix-blend-mode:screen" fill-rule="evenodd" clip-rule="evenodd"
            d="M67.7596 58.632C67.7596 58.8831 67.5537 59.089 67.3027 59.089C67.0516 59.089 66.8457 58.8831 66.8457 58.632C66.8457 58.3809 67.0516 58.175 67.3027 58.175C67.5537 58.175 67.7596 58.3809 67.7596 58.632Z"
            fill="url(#paint23_radial_1940_14952)" />
        <path style="mix-blend-mode:screen"
            d="M64.0637 63.2619C64.341 63.2619 64.5658 63.0371 64.5658 62.7597C64.5658 62.4824 64.341 62.2576 64.0637 62.2576C63.7863 62.2576 63.5615 62.4824 63.5615 62.7597C63.5615 63.0371 63.7863 63.2619 64.0637 63.2619Z"
            fill="url(#paint24_radial_1940_14952)" />
        <path style="mix-blend-mode:screen" fill-rule="evenodd" clip-rule="evenodd"
            d="M64.2694 62.7597C64.2694 62.8752 64.179 62.9656 64.0636 62.9656C63.9481 62.9656 63.8577 62.8752 63.8577 62.7597C63.8577 62.6442 63.9481 62.5538 64.0636 62.5538C64.179 62.5538 64.2694 62.6442 64.2694 62.7597Z"
            fill="url(#paint25_radial_1940_14952)" />
        <path style="mix-blend-mode:screen" fill-rule="evenodd" clip-rule="evenodd"
            d="M64.1741 62.7598C64.1741 62.82 64.1239 62.8702 64.0636 62.8702C64.0033 62.8702 63.9531 62.82 63.9531 62.7598C63.9531 62.6995 64.0033 62.6493 64.0636 62.6493C64.1239 62.6493 64.1741 62.6995 64.1741 62.7598Z"
            fill="url(#paint26_radial_1940_14952)" />
        <path style="mix-blend-mode:screen"
            d="M68.8894 69.4081C69.1667 69.4081 69.3915 69.1833 69.3915 68.906C69.3915 68.6286 69.1667 68.4038 68.8894 68.4038C68.612 68.4038 68.3872 68.6286 68.3872 68.906C68.3872 69.1833 68.612 69.4081 68.8894 69.4081Z"
            fill="url(#paint27_radial_1940_14952)" />
        <path style="mix-blend-mode:screen" fill-rule="evenodd" clip-rule="evenodd"
            d="M69.1003 68.9059C69.1003 69.0214 69.0099 69.1118 68.8944 69.1118C68.7789 69.1118 68.6885 69.0214 68.6885 68.9059C68.6885 68.7905 68.7789 68.7001 68.8944 68.7001C69.0099 68.7001 69.1003 68.7905 69.1003 68.9059Z"
            fill="url(#paint28_radial_1940_14952)" />
        <path style="mix-blend-mode:screen"
            d="M68.8893 69.0165C68.9503 69.0165 68.9998 68.967 68.9998 68.906C68.9998 68.845 68.9503 68.7955 68.8893 68.7955C68.8283 68.7955 68.7788 68.845 68.7788 68.906C68.7788 68.967 68.8283 69.0165 68.8893 69.0165Z"
            fill="url(#paint29_radial_1940_14952)" />
        <path fill-rule="evenodd" clip-rule="evenodd"
            d="M28.3859 32.8113C26.4074 31.8522 24.1126 36.2611 25.7596 37.8429C27.4067 39.4297 31.2883 34.2174 28.3859 32.8113Z"
            fill="white" />
        <g style="mix-blend-mode:screen">
            <path
                d="M60.0917 83.3378C75.589 83.3378 88.152 71.3976 88.152 56.6685C88.152 41.9395 75.589 29.9993 60.0917 29.9993C44.5945 29.9993 32.0315 41.9395 32.0315 56.6685C32.0315 71.3976 44.5945 83.3378 60.0917 83.3378Z"
                fill="url(#paint30_radial_1940_14952)" />
        </g>
        <g style="mix-blend-mode:screen">
            <path fill-rule="evenodd" clip-rule="evenodd"
                d="M46.1921 47.0875C46.1921 48.7145 44.8765 50.0301 43.2495 50.0301C41.6225 50.0301 40.3069 48.7145 40.3069 47.0875C40.3069 45.4605 41.6225 44.1449 43.2495 44.1449C44.8765 44.1449 46.1921 45.4605 46.1921 47.0875Z"
                fill="url(#paint31_radial_1940_14952)" />
        </g>
        <path style="mix-blend-mode:screen" fill-rule="evenodd" clip-rule="evenodd"
            d="M44.4646 47.0874C44.4646 47.7603 43.9223 48.3026 43.2494 48.3026C42.5765 48.3026 42.0342 47.7603 42.0342 47.0874C42.0342 46.4145 42.5765 45.8722 43.2494 45.8722C43.9223 45.8722 44.4646 46.4145 44.4646 47.0874Z"
            fill="url(#paint32_radial_1940_14952)" />
        <path style="mix-blend-mode:screen" fill-rule="evenodd" clip-rule="evenodd"
            d="M43.8922 47.0875C43.8922 47.444 43.606 47.7302 43.2494 47.7302C42.8929 47.7302 42.6067 47.444 42.6067 47.0875C42.6067 46.7309 42.8929 46.4447 43.2494 46.4447C43.606 46.4447 43.8922 46.7309 43.8922 47.0875Z"
            fill="url(#paint33_radial_1940_14952)" />
        <path style="mix-blend-mode:screen" fill-rule="evenodd" clip-rule="evenodd"
            d="M45.9211 36.7381C45.9211 37.7123 45.1327 38.5007 44.1586 38.5007C43.1844 38.5007 42.396 37.7123 42.396 36.7381C42.396 35.764 43.1844 34.9756 44.1586 34.9756C45.1327 34.9756 45.9211 35.764 45.9211 36.7381Z"
            fill="url(#paint34_radial_1940_14952)" />
        <path style="mix-blend-mode:screen" fill-rule="evenodd" clip-rule="evenodd"
            d="M44.8867 36.7381C44.8867 37.1399 44.5603 37.4663 44.1585 37.4663C43.7568 37.4663 43.4304 37.1399 43.4304 36.7381C43.4304 36.3364 43.7568 36.01 44.1585 36.01C44.5603 36.01 44.8867 36.3364 44.8867 36.7381Z"
            fill="url(#paint35_radial_1940_14952)" />
        <path style="mix-blend-mode:screen"
            d="M44.1586 37.1248C44.3722 37.1248 44.5453 36.9516 44.5453 36.7381C44.5453 36.5246 44.3722 36.3514 44.1586 36.3514C43.9451 36.3514 43.772 36.5246 43.772 36.7381C43.772 36.9516 43.9451 37.1248 44.1586 37.1248Z"
            fill="url(#paint36_radial_1940_14952)" />
        <g style="mix-blend-mode:screen">
            <path fill-rule="evenodd" clip-rule="evenodd"
                d="M33.0006 57.7733C33.0006 58.4562 32.4433 59.0136 31.7603 59.0136C31.0774 59.0136 30.52 58.4562 30.52 57.7733C30.52 57.0903 31.0774 56.533 31.7603 56.533C32.4433 56.533 33.0006 57.0903 33.0006 57.7733Z"
                fill="url(#paint37_radial_1940_14952)" />
        </g>
        <path style="mix-blend-mode:screen"
            d="M31.7602 58.2855C32.0431 58.2855 32.2724 58.0562 32.2724 57.7733C32.2724 57.4904 32.0431 57.2611 31.7602 57.2611C31.4774 57.2611 31.248 57.4904 31.248 57.7733C31.248 58.0562 31.4774 58.2855 31.7602 58.2855Z"
            fill="url(#paint38_radial_1940_14952)" />
        <path style="mix-blend-mode:screen" fill-rule="evenodd" clip-rule="evenodd"
            d="M32.0316 57.7732C32.0316 57.9239 31.9111 58.0444 31.7604 58.0444C31.6098 58.0444 31.4893 57.9239 31.4893 57.7732C31.4893 57.6226 31.6098 57.5021 31.7604 57.5021C31.9111 57.5021 32.0316 57.6226 32.0316 57.7732Z"
            fill="url(#paint39_radial_1940_14952)" />
        <g style="mix-blend-mode:screen">
            <path fill-rule="evenodd" clip-rule="evenodd"
                d="M40.0056 52.2697C40.0056 52.822 39.5587 53.269 39.0064 53.269C38.454 53.269 38.0071 52.822 38.0071 52.2697C38.0071 51.7173 38.454 51.2704 39.0064 51.2704C39.5587 51.2704 40.0056 51.7173 40.0056 52.2697Z"
                fill="url(#paint40_radial_1940_14952)" />
        </g>
        <path style="mix-blend-mode:screen" fill-rule="evenodd" clip-rule="evenodd"
            d="M39.4231 52.2697C39.4231 52.4956 39.2373 52.6814 39.0114 52.6814C38.7854 52.6814 38.5996 52.4956 38.5996 52.2697C38.5996 52.0437 38.7854 51.8579 39.0114 51.8579C39.2373 51.8579 39.4231 52.0437 39.4231 52.2697Z"
            fill="url(#paint41_radial_1940_14952)" />
        <path style="mix-blend-mode:screen" fill-rule="evenodd" clip-rule="evenodd"
            d="M39.2273 52.2698C39.2273 52.3903 39.1319 52.4907 39.0063 52.4907C38.8808 52.4907 38.7854 52.3953 38.7854 52.2698C38.7854 52.1442 38.8858 52.0488 39.0063 52.0488C39.1269 52.0488 39.2273 52.1442 39.2273 52.2698Z"
            fill="url(#paint42_radial_1940_14952)" />
        <g style="mix-blend-mode:screen">
            <path
                d="M40.5078 37.7926C40.7851 37.7926 41.0099 37.5678 41.0099 37.2905C41.0099 37.0132 40.7851 36.7883 40.5078 36.7883C40.2304 36.7883 40.0056 37.0132 40.0056 37.2905C40.0056 37.5678 40.2304 37.7926 40.5078 37.7926Z"
                fill="url(#paint43_radial_1940_14952)" />
        </g>
        <path style="mix-blend-mode:screen" fill-rule="evenodd" clip-rule="evenodd"
            d="M40.7135 37.2905C40.7135 37.406 40.6231 37.4964 40.5076 37.4964C40.3921 37.4964 40.3018 37.406 40.3018 37.2905C40.3018 37.175 40.3921 37.0846 40.5076 37.0846C40.6231 37.0846 40.7135 37.175 40.7135 37.2905Z"
            fill="url(#paint44_radial_1940_14952)" />
        <path style="mix-blend-mode:screen" fill-rule="evenodd" clip-rule="evenodd"
            d="M40.6133 37.2905C40.6133 37.3508 40.5631 37.401 40.5028 37.401C40.4425 37.401 40.3923 37.3508 40.3923 37.2905C40.3923 37.2303 40.4425 37.1801 40.5028 37.1801C40.5631 37.1801 40.6133 37.2303 40.6133 37.2905Z"
            fill="url(#paint45_radial_1940_14952)" />
        <g style="mix-blend-mode:screen">
            <path fill-rule="evenodd" clip-rule="evenodd"
                d="M25.1219 51.8579C25.1219 52.3099 24.7553 52.6764 24.3034 52.6764C23.8514 52.6764 23.4849 52.3099 23.4849 51.8579C23.4849 51.406 23.8514 51.0394 24.3034 51.0394C24.7553 51.0394 25.1219 51.406 25.1219 51.8579Z"
                fill="url(#paint46_radial_1940_14952)" />
        </g>
        <path style="mix-blend-mode:screen" fill-rule="evenodd" clip-rule="evenodd"
            d="M24.6397 51.8579C24.6397 52.0437 24.4891 52.1994 24.2983 52.1994C24.1074 52.1994 23.9568 52.0488 23.9568 51.8579C23.9568 51.6671 24.1074 51.5165 24.2983 51.5165C24.4891 51.5165 24.6397 51.6671 24.6397 51.8579Z"
            fill="url(#paint47_radial_1940_14952)" />
        <path style="mix-blend-mode:screen" fill-rule="evenodd" clip-rule="evenodd"
            d="M24.479 51.8579C24.479 51.9583 24.3986 52.0387 24.2982 52.0387C24.1978 52.0387 24.1174 51.9583 24.1174 51.8579C24.1174 51.7575 24.1978 51.6771 24.2982 51.6771C24.3986 51.6771 24.479 51.7575 24.479 51.8579Z"
            fill="url(#paint48_radial_1940_14952)" />
    </g>
    <defs>
        <linearGradient id="paint0_linear_1940_14952" x1="49.9883" y1="102.832" x2="49.9883"
            y2="-73.5494" gradientUnits="userSpaceOnUse">
            <stop stop-color="#717BFF" />
            <stop offset="0.23" stop-color="#6D99E2" />
            <stop offset="0.56" stop-color="#6ABEBF" />
            <stop offset="0.83" stop-color="#67D4AA" />
            <stop offset="1" stop-color="#67DDA3" />
        </linearGradient>
        <radialGradient id="paint1_radial_1940_14952" cx="0" cy="0" r="1"
            gradientUnits="userSpaceOnUse"
            gradientTransform="translate(50.0011 50.0011) scale(45.9619)">
            <stop stop-color="#00A0DE" />
            <stop offset="1" stop-color="#00A0DE" stop-opacity="0" />
        </radialGradient>
        <radialGradient id="paint2_radial_1940_14952" cx="0" cy="0" r="1"
            gradientUnits="userSpaceOnUse"
            gradientTransform="translate(48.0904 58.4612) scale(34.3823 34.3823)">
            <stop stop-color="#D7F1F7" />
            <stop offset="1" stop-color="#D5F0F7" />
        </radialGradient>
        <linearGradient id="paint3_linear_1940_14952" x1="49.2906" y1="53.5804" x2="49.2906"
            y2="17.3501" gradientUnits="userSpaceOnUse">
            <stop stop-color="#D8F3F7" />
            <stop offset="0.77" stop-color="#D4F1F7" />
            <stop offset="1" stop-color="#D2F0F7" />
        </linearGradient>
        <linearGradient id="paint4_linear_1940_14952" x1="17.8106" y1="36.4721" x2="61.0961"
            y2="36.4721" gradientUnits="userSpaceOnUse">
            <stop stop-color="#D8F0F7" />
            <stop offset="1" stop-color="#D8F3F7" />
        </linearGradient>
        <linearGradient id="paint5_linear_1940_14952" x1="34.3614" y1="64.9791" x2="77.0845"
            y2="64.9791" gradientUnits="userSpaceOnUse">
            <stop stop-color="#D2F0F6" />
            <stop offset="0.99" stop-color="#D2F2F7" />
        </linearGradient>
        <linearGradient id="paint6_linear_1940_14952" x1="25.4332" y1="63.0559" x2="76.2007"
            y2="63.0559" gradientUnits="userSpaceOnUse">
            <stop stop-color="#D2F0F6" />
            <stop offset="0.99" stop-color="#D2F2F7" />
        </linearGradient>
        <linearGradient id="paint7_linear_1940_14952" x1="23.4799" y1="45.1592" x2="83.1506"
            y2="45.1592" gradientUnits="userSpaceOnUse">
            <stop stop-color="#D2F0F6" />
            <stop offset="0.99" stop-color="#D2F2F7" />
        </linearGradient>
        <radialGradient id="paint8_radial_1940_14952" cx="0" cy="0" r="1"
            gradientUnits="userSpaceOnUse"
            gradientTransform="translate(59.442 56.985) rotate(3.17) scale(16.3493 15.5077)">
            <stop offset="0.01" stop-color="#D2F4F7" />
            <stop offset="1" stop-color="#D2F0F6" />
        </radialGradient>
        <linearGradient id="paint9_linear_1940_14952" x1="52.0774" y1="36.8737" x2="52.0774"
            y2="17.7317" gradientUnits="userSpaceOnUse">
            <stop stop-color="#D8F3F7" />
            <stop offset="0.77" stop-color="#D4F1F7" />
            <stop offset="1" stop-color="#D2F0F7" />
        </linearGradient>
        <linearGradient id="paint10_linear_1940_14952" x1="28.2051" y1="44.18" x2="28.2051"
            y2="19.2331" gradientUnits="userSpaceOnUse">
            <stop stop-color="#D2F0F6" />
            <stop offset="0.99" stop-color="#D2F4F7" />
        </linearGradient>
        <linearGradient id="paint11_linear_1940_14952" x1="36.2747" y1="80.6614" x2="67.609"
            y2="80.6614" gradientUnits="userSpaceOnUse">
            <stop stop-color="#D2F0F7" />
            <stop offset="1" stop-color="#D8F3F7" />
        </linearGradient>
        <linearGradient id="paint12_linear_1940_14952" x1="32.3931" y1="82.8959" x2="67.1118"
            y2="82.8959" gradientUnits="userSpaceOnUse">
            <stop offset="0.01" stop-color="#D2F4F7" />
            <stop offset="1" stop-color="#D2F0F6" />
        </linearGradient>
        <radialGradient id="paint13_radial_1940_14952" cx="0" cy="0" r="1"
            gradientUnits="userSpaceOnUse"
            gradientTransform="translate(13.9993 41.5639) scale(0.0401733 0.0401713)">
            <stop stop-color="#D3F0F6" />
            <stop offset="1" stop-color="#D2F0F6" />
        </radialGradient>
        <radialGradient id="paint14_radial_1940_14952" cx="0" cy="0" r="1"
            gradientUnits="userSpaceOnUse"
            gradientTransform="translate(43.586 42.5481) scale(35.5323 35.5323)">
            <stop stop-color="#D3F0F6" />
            <stop offset="1" stop-color="#D2F0F6" />
        </radialGradient>
        <radialGradient id="paint15_radial_1940_14952" cx="0" cy="0" r="1"
            gradientUnits="userSpaceOnUse"
            gradientTransform="translate(65.2289 60.7109) scale(2.94261 2.94261)">
            <stop stop-color="#D2F2F7" />
            <stop offset="1" stop-color="#D2F0F6" />
        </radialGradient>
        <radialGradient id="paint16_radial_1940_14952" cx="0" cy="0" r="1"
            gradientUnits="userSpaceOnUse"
            gradientTransform="translate(65.2289 60.7109) scale(1.21521)">
            <stop offset="0.59" stop-color="#D5F2F7" />
            <stop offset="1" stop-color="#D2F0F6" />
        </radialGradient>
        <radialGradient id="paint17_radial_1940_14952" cx="0" cy="0" r="1"
            gradientUnits="userSpaceOnUse"
            gradientTransform="translate(65.2289 60.7109) scale(0.642754)">
            <stop offset="0.59" stop-color="#D8F3F7" />
            <stop offset="0.66" stop-color="#D6F2F6" />
            <stop offset="1" stop-color="#D2F0F6" />
        </radialGradient>
        <radialGradient id="paint18_radial_1940_14952" cx="0" cy="0" r="1"
            gradientUnits="userSpaceOnUse"
            gradientTransform="translate(66.9812 56.5531) scale(2.94261 2.94261)">
            <stop stop-color="#D2F2F7" />
            <stop offset="1" stop-color="#D2F0F6" />
        </radialGradient>
        <radialGradient id="paint19_radial_1940_14952" cx="0" cy="0" r="1"
            gradientUnits="userSpaceOnUse"
            gradientTransform="translate(66.9811 56.5531) scale(0.251076)">
            <stop offset="0.59" stop-color="#D5F2F7" />
            <stop offset="1" stop-color="#D2F0F6" />
        </radialGradient>
        <radialGradient id="paint20_radial_1940_14952" cx="0" cy="0" r="1"
            gradientUnits="userSpaceOnUse"
            gradientTransform="translate(66.9811 56.553) scale(0.642754)">
            <stop offset="0.59" stop-color="#D8F3F7" />
            <stop offset="0.66" stop-color="#D6F2F6" />
            <stop offset="1" stop-color="#D2F0F6" />
        </radialGradient>
        <radialGradient id="paint21_radial_1940_14952" cx="0" cy="0" r="1"
            gradientUnits="userSpaceOnUse"
            gradientTransform="translate(67.3077 58.632) scale(2.07891)">
            <stop stop-color="#D2F2F7" />
            <stop offset="1" stop-color="#D2F0F6" />
        </radialGradient>
        <radialGradient id="paint22_radial_1940_14952" cx="0" cy="0" r="1"
            gradientUnits="userSpaceOnUse"
            gradientTransform="translate(67.3077 58.632) scale(0.858677 0.858679)">
            <stop offset="0.59" stop-color="#D5F2F7" />
            <stop offset="1" stop-color="#D2F0F6" />
        </radialGradient>
        <radialGradient id="paint23_radial_1940_14952" cx="0" cy="0" r="1"
            gradientUnits="userSpaceOnUse"
            gradientTransform="translate(67.3077 58.632) scale(0.456959)">
            <stop offset="0.59" stop-color="#D8F3F7" />
            <stop offset="0.66" stop-color="#D6F2F6" />
            <stop offset="1" stop-color="#D2F0F6" />
        </radialGradient>
        <radialGradient id="paint24_radial_1940_14952" cx="0" cy="0" r="1"
            gradientUnits="userSpaceOnUse"
            gradientTransform="translate(64.0637 62.7597) scale(0.502151)">
            <stop stop-color="#D2F2F7" />
            <stop offset="1" stop-color="#D2F0F6" />
        </radialGradient>
        <radialGradient id="paint25_radial_1940_14952" cx="0" cy="0" r="1"
            gradientUnits="userSpaceOnUse"
            gradientTransform="translate(64.0635 62.7597) scale(0.205883)">
            <stop offset="0.59" stop-color="#D5F2F7" />
            <stop offset="1" stop-color="#D2F0F6" />
        </radialGradient>
        <radialGradient id="paint26_radial_1940_14952" cx="0" cy="0" r="1"
            gradientUnits="userSpaceOnUse"
            gradientTransform="translate(64.0636 62.7598) scale(0.110474)">
            <stop offset="0.59" stop-color="#D8F3F7" />
            <stop offset="0.66" stop-color="#D6F2F6" />
            <stop offset="1" stop-color="#D2F0F6" />
        </radialGradient>
        <radialGradient id="paint27_radial_1940_14952" cx="0" cy="0" r="1"
            gradientUnits="userSpaceOnUse"
            gradientTransform="translate(68.8894 68.906) scale(0.502151)">
            <stop stop-color="#D2F2F7" />
            <stop offset="1" stop-color="#D2F0F6" />
        </radialGradient>
        <radialGradient id="paint28_radial_1940_14952" cx="0" cy="0" r="1"
            gradientUnits="userSpaceOnUse"
            gradientTransform="translate(68.8944 68.906) scale(0.205887 0.205879)">
            <stop offset="0.59" stop-color="#D5F2F7" />
            <stop offset="1" stop-color="#D2F0F6" />
        </radialGradient>
        <radialGradient id="paint29_radial_1940_14952" cx="0" cy="0" r="1"
            gradientUnits="userSpaceOnUse"
            gradientTransform="translate(68.8893 68.906) scale(0.110474 0.11047)">
            <stop offset="0.59" stop-color="#D8F3F7" />
            <stop offset="0.66" stop-color="#D6F2F6" />
            <stop offset="1" stop-color="#D2F0F6" />
        </radialGradient>
        <radialGradient id="paint30_radial_1940_14952" cx="0" cy="0" r="1"
            gradientUnits="userSpaceOnUse"
            gradientTransform="translate(60.2195 56.5757) scale(28.0888 26.643)">
            <stop offset="0.01" stop-color="#8EB0D9" />
            <stop offset="1" stop-color="white" stop-opacity="0" />
        </radialGradient>
        <radialGradient id="paint31_radial_1940_14952" cx="0" cy="0" r="1"
            gradientUnits="userSpaceOnUse"
            gradientTransform="translate(43.2495 47.0875) scale(2.94261 2.94261)">
            <stop stop-color="#0086FF" />
            <stop offset="1" stop-color="white" stop-opacity="0" />
        </radialGradient>
        <radialGradient id="paint32_radial_1940_14952" cx="0" cy="0" r="1"
            gradientUnits="userSpaceOnUse"
            gradientTransform="translate(43.2494 47.0874) scale(1.21521)">
            <stop offset="0.59" stop-color="#5793FF" />
            <stop offset="1" stop-color="white" stop-opacity="0" />
        </radialGradient>
        <radialGradient id="paint33_radial_1940_14952" cx="0" cy="0" r="1"
            gradientUnits="userSpaceOnUse"
            gradientTransform="translate(43.2494 47.0875) scale(0.642756)">
            <stop offset="0.84" stop-color="white" />
            <stop offset="0.86" stop-color="#CBCBCB" />
            <stop offset="0.88" stop-color="#959595" />
            <stop offset="0.9" stop-color="#686868" />
            <stop offset="0.92" stop-color="#424242" />
            <stop offset="0.94" stop-color="#252525" />
            <stop offset="0.96" stop-color="#101010" />
            <stop offset="0.98" stop-color="#040404" />
            <stop offset="1" />
        </radialGradient>
        <radialGradient id="paint34_radial_1940_14952" cx="0" cy="0" r="1"
            gradientUnits="userSpaceOnUse"
            gradientTransform="translate(44.1586 36.7381) scale(1.76255 1.76255)">
            <stop stop-color="#0086FF" />
            <stop offset="0.11" stop-color="#006ACB" />
            <stop offset="0.24" stop-color="#004E95" />
            <stop offset="0.37" stop-color="#003668" />
            <stop offset="0.5" stop-color="#002242" />
            <stop offset="0.63" stop-color="#001325" />
            <stop offset="0.75" stop-color="#000810" />
            <stop offset="0.88" stop-color="#000204" />
            <stop offset="1" />
        </radialGradient>
        <radialGradient id="paint35_radial_1940_14952" cx="0" cy="0" r="1"
            gradientUnits="userSpaceOnUse"
            gradientTransform="translate(44.1585 36.7381) scale(0.728121)">
            <stop offset="0.59" stop-color="#5793FF" />
            <stop offset="0.63" stop-color="#4575CB" />
            <stop offset="0.69" stop-color="#335695" />
            <stop offset="0.74" stop-color="#233B68" />
            <stop offset="0.79" stop-color="#162642" />
            <stop offset="0.85" stop-color="#0C1525" />
            <stop offset="0.9" stop-color="#050910" />
            <stop offset="0.95" stop-color="#010204" />
            <stop offset="1" />
        </radialGradient>
        <radialGradient id="paint36_radial_1940_14952" cx="0" cy="0" r="1"
            gradientUnits="userSpaceOnUse"
            gradientTransform="translate(44.1586 36.7381) scale(0.386658 0.386656)">
            <stop offset="0.84" stop-color="white" />
            <stop offset="0.86" stop-color="#CBCBCB" />
            <stop offset="0.88" stop-color="#959595" />
            <stop offset="0.9" stop-color="#686868" />
            <stop offset="0.92" stop-color="#424242" />
            <stop offset="0.94" stop-color="#252525" />
            <stop offset="0.96" stop-color="#101010" />
            <stop offset="0.98" stop-color="#040404" />
            <stop offset="1" />
        </radialGradient>
        <radialGradient id="paint37_radial_1940_14952" cx="0" cy="0" r="1"
            gradientUnits="userSpaceOnUse"
            gradientTransform="translate(31.7603 57.7733) scale(1.24031 1.24032)">
            <stop stop-color="#0086FF" />
            <stop offset="1" stop-color="white" stop-opacity="0" />
        </radialGradient>
        <radialGradient id="paint38_radial_1940_14952" cx="0" cy="0" r="1"
            gradientUnits="userSpaceOnUse"
            gradientTransform="translate(31.7602 57.7733) scale(0.512195)">
            <stop offset="0.59" stop-color="#5793FF" />
            <stop offset="1" stop-color="white" stop-opacity="0" />
        </radialGradient>
        <radialGradient id="paint39_radial_1940_14952" cx="0" cy="0" r="1"
            gradientUnits="userSpaceOnUse"
            gradientTransform="translate(31.7604 57.7732) scale(0.271163)">
            <stop offset="0.59" stop-color="#FFFFA2" />
            <stop offset="1" />
        </radialGradient>
        <radialGradient id="paint40_radial_1940_14952" cx="0" cy="0" r="1"
            gradientUnits="userSpaceOnUse"
            gradientTransform="translate(39.0064 52.2697) scale(0.999281 0.999283)">
            <stop stop-color="#0086FF" />
            <stop offset="1" stop-color="white" stop-opacity="0" />
        </radialGradient>
        <radialGradient id="paint41_radial_1940_14952" cx="0" cy="0" r="1"
            gradientUnits="userSpaceOnUse"
            gradientTransform="translate(39.0064 52.2697) scale(0.411764)">
            <stop offset="0.59" stop-color="#5793FF" />
            <stop offset="0.63" stop-color="#4575CB" />
            <stop offset="0.69" stop-color="#335695" />
            <stop offset="0.74" stop-color="#233B68" />
            <stop offset="0.79" stop-color="#162642" />
            <stop offset="0.85" stop-color="#0C1525" />
            <stop offset="0.9" stop-color="#050910" />
            <stop offset="0.95" stop-color="#010204" />
            <stop offset="1" />
        </radialGradient>
        <radialGradient id="paint42_radial_1940_14952" cx="0" cy="0" r="1"
            gradientUnits="userSpaceOnUse"
            gradientTransform="translate(39.0063 52.2698) scale(0.220949 0.220945)">
            <stop offset="0.59" stop-color="#FFFFA2" />
            <stop offset="1" />
        </radialGradient>
        <radialGradient id="paint43_radial_1940_14952" cx="0" cy="0" r="1"
            gradientUnits="userSpaceOnUse"
            gradientTransform="translate(40.5078 37.2905) scale(0.502151 0.502153)">
            <stop stop-color="#0086FF" />
            <stop offset="1" stop-color="white" stop-opacity="0" />
        </radialGradient>
        <radialGradient id="paint44_radial_1940_14952" cx="0" cy="0" r="1"
            gradientUnits="userSpaceOnUse"
            gradientTransform="translate(40.5076 37.2905) scale(0.205883)">
            <stop offset="0.59" stop-color="#5793FF" />
            <stop offset="0.63" stop-color="#4575CB" />
            <stop offset="0.69" stop-color="#335695" />
            <stop offset="0.74" stop-color="#233B68" />
            <stop offset="0.79" stop-color="#162642" />
            <stop offset="0.85" stop-color="#0C1525" />
            <stop offset="0.9" stop-color="#050910" />
            <stop offset="0.95" stop-color="#010204" />
            <stop offset="1" />
        </radialGradient>
        <radialGradient id="paint45_radial_1940_14952" cx="0" cy="0" r="1"
            gradientUnits="userSpaceOnUse"
            gradientTransform="translate(40.5078 37.2905) scale(0.110472 0.110474)">
            <stop offset="0.59" stop-color="#FFFFA2" />
            <stop offset="0.63" stop-color="#CBCB81" />
            <stop offset="0.69" stop-color="#95955F" />
            <stop offset="0.74" stop-color="#686842" />
            <stop offset="0.79" stop-color="#42422A" />
            <stop offset="0.85" stop-color="#252517" />
            <stop offset="0.9" stop-color="#10100A" />
            <stop offset="0.95" stop-color="#040402" />
            <stop offset="1" />
        </radialGradient>
        <radialGradient id="paint46_radial_1940_14952" cx="0" cy="0" r="1"
            gradientUnits="userSpaceOnUse"
            gradientTransform="translate(24.3034 51.8579) scale(0.818508)">
            <stop stop-color="#0086FF" />
            <stop offset="1" stop-color="white" stop-opacity="0" />
        </radialGradient>
        <radialGradient id="paint47_radial_1940_14952" cx="0" cy="0" r="1"
            gradientUnits="userSpaceOnUse"
            gradientTransform="translate(24.3033 51.8579) scale(0.341463 0.341465)">
            <stop offset="0.59" stop-color="#5793FF" />
            <stop offset="0.63" stop-color="#4575CB" />
            <stop offset="0.69" stop-color="#335695" />
            <stop offset="0.74" stop-color="#233B68" />
            <stop offset="0.79" stop-color="#162642" />
            <stop offset="0.85" stop-color="#0C1525" />
            <stop offset="0.9" stop-color="#050910" />
            <stop offset="0.95" stop-color="#010204" />
            <stop offset="1" />
        </radialGradient>
        <radialGradient id="paint48_radial_1940_14952" cx="0" cy="0" r="1"
            gradientUnits="userSpaceOnUse"
            gradientTransform="translate(24.3032 51.8579) scale(0.180774)">
            <stop offset="0.59" stop-color="#FFFFA2" />
            <stop offset="0.63" stop-color="#CBCB81" />
            <stop offset="0.69" stop-color="#95955F" />
            <stop offset="0.74" stop-color="#686842" />
            <stop offset="0.79" stop-color="#42422A" />
            <stop offset="0.85" stop-color="#252517" />
            <stop offset="0.9" stop-color="#10100A" />
            <stop offset="0.95" stop-color="#040402" />
            <stop offset="1" />
        </radialGradient>
        <clipPath id="clip0_1940_14952">
            <rect width="100" height="100" fill="white" />
        </clipPath>
    </defs>
</svg>
    