<svg width="400" height="401" viewBox="0 0 400 401" fill="none" xmlns="http://www.w3.org/2000/svg">
    <g clip-path="url(#clip0_360_2242)">
        <path
            d="M200 280.343C244.183 280.343 280 244.526 280 200.343C280 156.16 244.183 120.343 200 120.343C155.817 120.343 120 156.16 120 200.343C120 244.526 155.817 280.343 200 280.343Z"
            fill="url(#paint0_radial_360_2242)" style="mix-blend-mode:screen" />
        <path
            d="M307.411 313.48C369.895 250.996 369.895 149.69 307.411 87.2059C244.927 24.722 143.621 24.7221 81.1371 87.2059C18.6532 149.69 18.6532 250.996 81.1371 313.48C143.621 375.964 244.927 375.964 307.411 313.48Z"
            fill="url(#paint1_radial_360_2242)" />
        <g opacity="0.92">
            <path fill-rule="evenodd" clip-rule="evenodd"
                d="M342.349 200.357C342.349 241.521 324.892 278.571 296.948 304.56C283.607 316.998 267.86 326.854 250.523 333.464C234.807 339.444 217.8 342.687 199.985 342.687C193.674 342.687 187.426 342.267 181.326 341.485C175.707 340.766 170.178 339.681 164.77 338.301C151.939 335.027 139.831 330.008 128.653 323.518C121.561 319.401 114.862 314.716 108.61 309.455C93.8851 297.137 81.688 281.872 72.9124 264.593C67.4146 253.714 63.2659 242.058 60.7114 229.857C60.6803 229.826 60.6803 229.767 60.6803 229.736C58.6974 220.241 57.6437 210.416 57.6437 200.35C57.6437 172.254 65.7855 146.055 79.8489 123.971C85.7978 114.596 92.8275 106.004 100.763 98.2818C126.394 73.3432 161.399 57.9889 199.981 57.9889C203.107 57.9889 206.171 58.0783 209.235 58.2883C225.402 59.3381 240.814 63.0668 255.057 69.0468C257.549 70.0966 259.983 71.2086 262.417 72.3828C272.752 77.4296 282.367 83.6818 291.111 91.0109C294.055 93.4449 296.909 96.0305 299.646 98.7017C300.637 99.6621 301.598 100.654 302.562 101.645C327.201 127.217 342.346 162.009 342.346 200.35L342.349 200.357Z"
                fill="url(#paint2_radial_360_2242)" style="mix-blend-mode:screen" />
        </g>
        <path fill-rule="evenodd" clip-rule="evenodd"
            d="M332.648 200.358C332.648 238.718 316.38 273.241 290.342 297.46C277.911 309.051 263.237 318.235 247.082 324.397C232.439 329.969 216.591 332.994 199.985 332.994C194.106 332.994 188.282 332.601 182.597 331.874C177.36 331.202 172.208 330.195 167.169 328.908C155.213 325.855 143.929 321.178 133.513 315.132C126.903 311.294 120.663 306.928 114.838 302.029C101.117 290.547 89.752 276.324 81.5752 260.223C76.4506 250.087 72.5858 239.224 70.2063 227.855C70.179 227.827 70.179 227.769 70.179 227.742C68.3322 218.892 67.3524 209.74 67.3524 200.358C67.3524 174.179 74.9381 149.761 88.0451 129.181C93.5896 120.444 100.141 112.439 107.532 105.242C131.417 82.0024 164.035 67.694 199.989 67.694C202.901 67.694 205.755 67.7795 208.613 67.9739C223.675 68.9537 238.042 72.4258 251.312 77.9976C253.637 78.9774 255.904 80.0116 258.171 81.1042C267.802 85.8089 276.764 91.6333 284.91 98.4648C287.655 100.732 290.314 103.142 292.861 105.635C293.786 106.529 294.681 107.454 295.579 108.38C318.538 132.206 332.652 164.629 332.652 200.358H332.648Z"
            fill="url(#paint3_radial_360_2242)" />
        <path style="mix-blend-mode:multiply" opacity="0.3" fill-rule="evenodd" clip-rule="evenodd"
            d="M111.572 240.491C110.799 243.403 110.34 246.358 110.196 249.352C110.958 249.165 112.109 250.942 112.957 251.312C114.523 252 116.055 251.802 117.506 252.836C118.781 253.746 120.336 255.561 121.837 256.024C122.797 256.32 124.143 256.055 125.158 256.051C127.339 256.051 129.236 256.152 131.386 256.584C133.56 257.023 136.433 257.762 138.665 257.533C140.193 257.377 142.561 256.557 143.731 255.596C144.944 254.601 145.477 251.588 145.563 250.036C145.827 245.196 142.258 240.639 138.63 237.769C136.748 236.28 134.598 236.28 132.502 235.203C129.998 233.912 127.813 233.17 125.053 232.415C123.435 231.972 121.196 231.175 119.516 231.222C117.879 231.268 115.985 232.299 114.411 232.707C112.785 233.127 111.215 233.384 110.114 234.799C108.917 236.342 109.457 238.613 111.576 240.487L111.572 240.491Z"
            fill="url(#paint4_linear_360_2242)" />
        <path style="mix-blend-mode:multiply" opacity="0.3" fill-rule="evenodd" clip-rule="evenodd"
            d="M149.062 257.467C148.222 258.462 140.383 265.278 144.252 267.972C144.517 268.155 146.099 268.552 146.387 268.626C147.58 268.925 147.79 268.746 148.774 268.108C150.633 266.911 150.882 264.928 150.415 262.832C150.322 262.412 149.902 261.118 149.707 260.709C149.357 259.974 148.537 259.753 148.354 258.882L149.062 257.467Z"
            fill="url(#paint5_linear_360_2242)" />
        <path style="mix-blend-mode:multiply" opacity="0.3" fill-rule="evenodd" clip-rule="evenodd"
            d="M194.331 85.5791C195.766 84.8753 200.269 82.1264 202.796 81.8737C203.609 81.792 204.767 82.0525 205.65 82.0447C207.563 82.0292 209.223 81.6948 210.634 83.2501C211.696 84.4204 212.217 85.6296 211.432 86.9555C210.331 88.814 207.466 90.1865 205.65 91.2363C201.427 93.6781 195.813 96.011 190.747 95.5327C186.73 95.1517 183.079 92.1384 179.638 90.3343C177.049 88.9734 172.34 86.4034 175.486 83.2851C178.056 80.7383 181.959 79.3386 185.498 79.2064C187.1 79.1481 190.984 78.5843 192.244 79.533C193.643 80.5945 192.111 85.1008 195.039 84.8714L194.331 85.5791Z"
            fill="url(#paint6_linear_360_2242)" />
        <path style="mix-blend-mode:screen" fill-rule="evenodd" clip-rule="evenodd"
            d="M65.3345 173.319C67.3524 200.357 130.671 156.573 191.925 137.12C263.84 114.281 318.356 164.162 326.319 161.445C338.788 157.191 287.585 58.2299 205.619 59.5013C113.275 60.9321 62.0801 129.675 65.3345 173.319Z"
            fill="url(#paint7_linear_360_2242)" />
        <path style="mix-blend-mode:screen" opacity="0.5" fill-rule="evenodd" clip-rule="evenodd"
            d="M59.0433 220.261L63.4952 240.887C63.4952 240.887 88.2239 255.363 145.555 250.04C202.889 244.713 216.513 216.68 238.894 200.342C261.274 184.004 304.677 171.169 315.995 158.435C327.314 145.702 317.695 120.304 317.695 120.304L313.34 114.278C313.34 114.278 321.377 135.977 311.75 152.067C302.126 168.156 259.403 175.563 236.063 195.925C212.718 216.287 165.396 232.123 125.041 232.415C84.6857 232.707 59.0394 220.257 59.0394 220.257L59.0433 220.261Z"
            fill="url(#paint8_linear_360_2242)" />
        <path style="mix-blend-mode:screen" opacity="0.5" fill-rule="evenodd" clip-rule="evenodd"
            d="M78.0759 273.886L87.1625 287.137C87.1625 287.137 128.377 299.21 190.276 287.137C252.175 275.064 298.837 240.168 320.591 220.265C342.346 200.361 339.628 172.534 339.628 172.534L337.687 164.163C337.687 164.163 333.803 193.11 309.631 220.265C285.458 247.42 245.208 272.051 187.255 282.23C129.306 292.409 78.072 273.89 78.072 273.89L78.0759 273.886Z"
            fill="url(#paint9_linear_360_2242)" />
        <path style="mix-blend-mode:screen" opacity="0.5" fill-rule="evenodd" clip-rule="evenodd"
            d="M67.3484 148.668C67.3484 148.668 148.21 176.251 210.704 164.163C273.203 152.074 289.929 111.665 291.115 91.0189L279.653 82.3833C279.653 82.3833 279.917 123.85 240.328 148.89C200.739 173.926 99.414 159.054 72.2475 137.525L67.3484 148.668Z"
            fill="url(#paint10_linear_360_2242)" />
        <path fill-rule="evenodd" clip-rule="evenodd"
            d="M76.2253 197.511C77.1312 202.492 88.3913 195.528 96.813 178.638C105.235 161.752 106.864 126.949 102.47 123.916C98.0806 120.883 69.9537 163.011 76.2214 197.511H76.2253Z"
            fill="white" />
        <path fill-rule="evenodd" clip-rule="evenodd"
            d="M230.538 328.321C228.777 330.3 235.274 332.691 244.94 330.72C254.606 328.748 269.462 318.207 269.295 315.42C269.128 312.636 242.72 314.626 230.534 328.321H230.538Z"
            fill="white" />
        <path fill-rule="evenodd" clip-rule="evenodd"
            d="M76.9795 204.77C71.1317 205.863 71.2795 217.255 75.0121 222.142C78.7447 227.03 83.4805 224.709 83.776 214.72C83.9587 208.569 81.8086 203.868 76.9795 204.77Z"
            fill="white" />
        <g opacity="0.92">
            <path fill-rule="evenodd" clip-rule="evenodd"
                d="M240.328 63.8289C240.328 63.8289 277.285 33.9213 307.951 55.1623C342.346 78.985 325.522 133.178 325.522 133.178C325.522 133.178 254.489 95.8401 240.324 63.8289H240.328Z"
                fill="url(#paint11_radial_360_2242)" style="mix-blend-mode:screen" />
        </g>
        <path style="mix-blend-mode:screen" opacity="0.92" fill-rule="evenodd" clip-rule="evenodd"
            d="M104.838 306.185C104.838 306.185 109.484 348.01 140.924 363.216C170.256 377.404 196.583 342.648 196.583 342.648C196.583 342.648 190.272 287.129 104.834 306.181L104.838 306.185Z"
            fill="url(#paint12_radial_360_2242)" />
        <path style="mix-blend-mode:screen" fill-rule="evenodd" clip-rule="evenodd"
            d="M247.385 62.5888C253.295 70.1668 272.495 72.1381 296.193 74.6148C319.892 77.0916 323.173 83.8103 323.173 83.8103C323.173 83.8103 315.646 55.8701 292.655 51.2704C269.665 46.6707 247.385 62.5888 247.385 62.5888Z"
            fill="url(#paint13_linear_360_2242)" />
        <path style="mix-blend-mode:screen" fill-rule="evenodd" clip-rule="evenodd"
            d="M107.451 309.097C107.451 309.097 111.219 334.572 121.476 339.168C131.732 343.768 137.833 320.244 163.211 319.716C177.372 319.42 192.92 335.984 192.92 335.984C192.92 335.984 177.702 290.702 107.455 309.093L107.451 309.097Z"
            fill="url(#paint14_linear_360_2242)" />
        <path fill-rule="evenodd" clip-rule="evenodd"
            d="M146.904 361.805C146.904 361.805 163.398 364.255 179.234 354.379C179.234 354.379 168.833 372.303 146.904 361.805Z"
            fill="#FF9AFF" />
        <path fill-rule="evenodd" clip-rule="evenodd"
            d="M321.513 123.761C321.513 123.761 327.104 109.783 325.199 91.4155C325.199 91.4155 335.071 111.366 321.513 123.761Z"
            fill="#FF9AFF" />
        <path fill-rule="evenodd" clip-rule="evenodd"
            d="M248.575 61.7917C245.982 64.0779 265.598 63.6308 271.788 59.486C277.978 55.3412 280.47 52.9656 278.86 50.4383C277.25 47.911 257.899 53.5682 248.571 61.7917H248.575Z"
            fill="white" />
        <path fill-rule="evenodd" clip-rule="evenodd"
            d="M281.146 50.6755C280.905 49.1397 286.865 49.5596 286.753 51.0371C286.64 52.5146 281.601 53.5527 281.146 50.6755Z"
            fill="white" />
        <path fill-rule="evenodd" clip-rule="evenodd"
            d="M109.85 314.385C105.981 313.242 111.658 331.73 119.932 337.932C119.932 337.932 121.137 317.717 109.85 314.385Z"
            fill="white" />
        <path style="mix-blend-mode:screen" opacity="0.92" fill-rule="evenodd" clip-rule="evenodd"
            d="M323.336 134.978C323.336 134.978 341.346 124.399 350.631 136.876C363.828 154.606 340.53 173.156 340.53 173.156C340.53 173.156 321.214 161.087 323.333 134.978H323.336Z"
            fill="url(#paint15_radial_360_2242)" />
        <path style="mix-blend-mode:screen" fill-rule="evenodd" clip-rule="evenodd"
            d="M324.942 135.095C317.819 137.226 338.384 141.46 345.456 144.998C352.529 148.536 351.821 152.778 351.821 152.778C351.821 152.778 355.713 125.9 324.942 135.095Z"
            fill="url(#paint16_linear_360_2242)" />
        <path fill-rule="evenodd" clip-rule="evenodd"
            d="M338.928 169.209C338.928 169.209 345.262 166.255 349.865 156.052C349.865 156.052 351.599 166.985 338.928 169.209Z"
            fill="#FF9AFF" />
        <path fill-rule="evenodd" clip-rule="evenodd"
            d="M327.781 135.476C325.883 137.918 336.704 137.54 337.66 135.002C338.617 132.463 330.063 132.54 327.781 135.476Z"
            fill="white" />
        <path fill-rule="evenodd" clip-rule="evenodd"
            d="M323.173 141.16C323.173 141.16 323.352 157.837 333.43 167.223C333.43 167.223 324.717 151.258 323.173 141.16Z"
            fill="white" />
        <path fill-rule="evenodd" clip-rule="evenodd"
            d="M335.343 169.209C335.343 169.209 337.699 172.779 339.632 172.53C339.632 172.53 337.202 168.642 335.343 169.209Z"
            fill="white" />
        <path style="mix-blend-mode:screen" opacity="0.92" fill-rule="evenodd" clip-rule="evenodd"
            d="M216.642 59.4858C216.642 59.4858 221.626 50.547 228.94 50.4653C239.333 50.3487 239.951 64.3421 239.951 64.3421C239.951 64.3421 228.905 68.6035 216.642 59.4858Z"
            fill="url(#paint17_radial_360_2242)" />
        <path style="mix-blend-mode:screen" fill-rule="evenodd" clip-rule="evenodd"
            d="M219.97 56.9432C217.917 59.7737 226.809 55.4773 230.464 54.7775C234.119 54.0776 235.068 55.8623 235.068 55.8623C235.068 55.8623 228.835 44.711 219.974 56.9432H219.97Z"
            fill="url(#paint18_linear_360_2242)" />
        <path fill-rule="evenodd" clip-rule="evenodd"
            d="M238.007 63.8601C238.007 63.8601 238.633 60.6329 236.024 56.0604C236.024 56.0604 240.663 58.4244 238.007 63.8601Z"
            fill="#FF9AFF" />
        <path fill-rule="evenodd" clip-rule="evenodd"
            d="M221.137 56.2744C221.125 57.7285 225.06 54.4936 224.69 53.2727C224.321 52.0518 221.148 54.5247 221.137 56.2744Z"
            fill="white" />
        <path fill-rule="evenodd" clip-rule="evenodd"
            d="M221.035 62.2426C221.035 62.2426 229.372 66.64 235.733 65.3997C235.733 65.3997 225.308 64.4471 221.035 62.2426Z"
            fill="white" />
        <path fill-rule="evenodd" clip-rule="evenodd"
            d="M237.016 65.2246C237.016 65.2246 239.026 65.314 239.465 64.5131C239.465 64.5131 237.311 64.3614 237.016 65.2246Z"
            fill="white" />
        <path fill-rule="evenodd" clip-rule="evenodd"
            d="M244.994 71.9238C244.994 71.9238 250.597 73.203 252.25 80.9832C252.25 80.9832 246.491 79.3113 244.994 71.9238Z"
            fill="white" />
        <path fill-rule="evenodd" clip-rule="evenodd"
            d="M104.838 306.185C104.838 306.185 112.039 303.79 124.185 302.203C136.328 300.617 143.187 302.203 143.187 302.203C143.187 302.203 116.499 304.326 104.842 306.185H104.838Z"
            fill="white" />
        <path fill-rule="evenodd" clip-rule="evenodd"
            d="M171.473 309.381C171.473 309.381 186.668 321.209 191.921 329.246C191.921 329.246 190.346 318.853 171.473 309.381Z"
            fill="white" />
        <path fill-rule="evenodd" clip-rule="evenodd"
            d="M141.74 74.3078C141.74 74.3078 145.87 69.2027 154.303 66.9553C161.119 65.1357 164.949 65.435 166.286 65.2756C166.286 65.2756 151.873 75.2682 141.74 74.3078Z"
            fill="white" />
        <path fill-rule="evenodd" clip-rule="evenodd"
            d="M146.904 302.635C146.904 302.635 151.69 300.528 153.397 303.506C153.397 303.506 148.191 305.186 146.904 302.635Z"
            fill="white" />
        <path fill-rule="evenodd" clip-rule="evenodd"
            d="M181.699 353.138C181.699 353.138 181.742 349.297 188.056 347.302C188.056 347.302 188.604 352.341 181.699 353.138Z"
            fill="#FF9AFF" />
        <path style="mix-blend-mode:screen" opacity="0.92"
            d="M94.2017 90.8484C109.778 80.6942 114.174 59.8352 104.02 44.2587C93.8655 28.6821 73.0065 24.2864 57.4299 34.4407C41.8534 44.5949 37.4577 65.4538 47.612 81.0304C57.7662 96.607 78.6251 101.003 94.2017 90.8484Z"
            fill="url(#paint19_radial_360_2242)" />
        <g style="mix-blend-mode:screen">
            <path fill-rule="evenodd" clip-rule="evenodd"
                d="M44.653 63.1643C44.653 63.1643 50.3297 72.803 68.1802 59.9605C86.0307 47.1179 94.2541 40.2203 102.038 43.5797C102.038 43.5797 84.8837 23.5985 62.6901 33.455C40.9943 43.0898 44.653 63.1682 44.653 63.1682V63.1643Z"
                fill="url(#paint20_linear_360_2242)" />
        </g>
        <path fill-rule="evenodd" clip-rule="evenodd"
            d="M87.6251 91.4156C87.6251 91.4156 103.01 84.0281 106.195 67.694C106.195 67.694 109.379 86.3804 87.6251 91.4156Z"
            fill="#FF9AFF" />
        <path fill-rule="evenodd" clip-rule="evenodd"
            d="M44.6026 56.0607C44.6026 56.0607 46.6011 40.4848 62.0721 35.0919C62.0721 35.0919 55.4272 56.2512 44.6026 56.0607Z"
            fill="white" />
        <path fill-rule="evenodd" clip-rule="evenodd"
            d="M62.7133 34.3453C61.092 33.5171 67.8807 31.122 71.6716 31.3087C71.6716 31.3087 64.9724 35.5001 62.7133 34.3453Z"
            fill="white" />
        <path fill-rule="evenodd" clip-rule="evenodd"
            d="M71.7108 94.0671C71.7108 94.0671 79.6699 87.7022 87.625 91.4154C87.625 91.4154 82.586 96.3106 71.7108 94.0671Z"
            fill="white" />
        <path style="mix-blend-mode:screen" opacity="0.92" fill-rule="evenodd" clip-rule="evenodd"
            d="M284.98 356.37C284.98 365.028 277.962 372.05 269.299 372.05C260.636 372.05 253.618 365.032 253.618 356.37C253.618 347.707 260.636 340.689 269.299 340.689C277.962 340.689 284.98 347.707 284.98 356.37Z"
            fill="url(#paint21_radial_360_2242)" />
        <path style="mix-blend-mode:screen" fill-rule="evenodd" clip-rule="evenodd"
            d="M254.789 356.611C254.789 356.611 257.433 361.101 265.745 355.118C274.058 349.138 277.888 345.926 281.512 347.489C281.512 347.489 273.526 338.185 263.187 342.773C253.082 347.26 254.789 356.611 254.789 356.611Z"
            fill="url(#paint22_linear_360_2242)" />
        <path fill-rule="evenodd" clip-rule="evenodd"
            d="M274.801 369.768C274.801 369.768 281.967 366.327 283.448 358.722C283.448 358.722 284.929 367.424 274.801 369.768Z"
            fill="#FF9AFF" />
        <path fill-rule="evenodd" clip-rule="evenodd"
            d="M254.765 353.302C254.765 353.302 255.695 346.051 262.899 343.539C262.899 343.539 259.804 353.392 254.765 353.302Z"
            fill="white" />
        <path fill-rule="evenodd" clip-rule="evenodd"
            d="M263.199 343.189C262.444 342.804 265.606 341.688 267.371 341.774C267.371 341.774 264.252 343.725 263.199 343.189Z"
            fill="white" />
        <path fill-rule="evenodd" clip-rule="evenodd"
            d="M267.39 371.001C267.39 371.001 271.096 368.034 274.801 369.768C274.801 369.768 272.453 372.047 267.39 371.001Z"
            fill="white" />
    </g>
    <defs>
        <radialGradient id="paint0_radial_360_2242" cx="0" cy="0" r="1"
            gradientUnits="userSpaceOnUse" gradientTransform="translate(200 200.343) scale(80)">
            <stop stop-color="#009BFF" />
            <stop offset="1" stop-color="white" stop-opacity="0" />
        </radialGradient>
        <radialGradient id="paint1_radial_360_2242" cx="0" cy="0" r="1"
            gradientUnits="userSpaceOnUse" gradientTransform="translate(194.278 200.343) scale(160)">
            <stop stop-color="#7BE7FF" />
            <stop offset="0.874" stop-color="#7BE7FF" stop-opacity="0.2" />
            <stop offset="1" stop-color="#7BE7FF" stop-opacity="0" />
        </radialGradient>
        <radialGradient id="paint2_radial_360_2242" cx="0" cy="0" r="1"
            gradientUnits="userSpaceOnUse"
            gradientTransform="translate(200 200.342) scale(142.349 142.349)">
            <stop offset="0.969" stop-color="white" stop-opacity="0" />
            <stop offset="1" stop-color="#008BAB" stop-opacity="0.8" />
        </radialGradient>
        <radialGradient id="paint3_radial_360_2242" cx="0" cy="0" r="1"
            gradientUnits="userSpaceOnUse"
            gradientTransform="translate(162.406 162.713) scale(194.578)">
            <stop stop-color="#00CEC0" />
            <stop offset="0.26" stop-color="#00CBC0" />
            <stop offset="0.38" stop-color="#00C4C0" />
            <stop offset="0.48" stop-color="#00B6C2" />
            <stop offset="0.56" stop-color="#00A4C3" />
            <stop offset="0.64" stop-color="#008BC5" />
            <stop offset="0.71" stop-color="#006EC8" />
            <stop offset="0.72" stop-color="#0068C9" />
            <stop offset="0.74" stop-color="#0667CA" />
            <stop offset="0.78" stop-color="#1A65CE" />
            <stop offset="0.83" stop-color="#3963D5" />
            <stop offset="0.88" stop-color="#655FDF" />
            <stop offset="0.93" stop-color="#9E5AEC" />
            <stop offset="0.99" stop-color="#E155FB" />
            <stop offset="1" stop-color="#F154FF" />
        </radialGradient>
        <linearGradient id="paint4_linear_360_2242" x1="109.484" y1="244.403" x2="145.57"
            y2="244.403" gradientUnits="userSpaceOnUse">
            <stop stop-color="#B8C2FF" />
            <stop offset="1" stop-color="#7D72B3" />
        </linearGradient>
        <linearGradient id="paint5_linear_360_2242" x1="143.187" y1="263.12" x2="150.621"
            y2="263.12" gradientUnits="userSpaceOnUse">
            <stop stop-color="#B8C2FF" />
            <stop offset="1" stop-color="#7D72B3" />
        </linearGradient>
        <linearGradient id="paint6_linear_360_2242" x1="174.44" y1="87.2899" x2="211.809"
            y2="87.2899" gradientUnits="userSpaceOnUse">
            <stop stop-color="#B8C2FF" />
            <stop offset="1" stop-color="#7D72B3" />
        </linearGradient>
        <linearGradient id="paint7_linear_360_2242" x1="118.366" y1="80.5547" x2="268.509"
            y2="222.835" gradientUnits="userSpaceOnUse">
            <stop offset="0.02" stop-color="#B3FFE8" />
            <stop offset="1" stop-color="white" stop-opacity="0" />
        </linearGradient>
        <linearGradient id="paint8_linear_360_2242" x1="190.276" y1="251.218" x2="190.276"
            y2="114.281" gradientUnits="userSpaceOnUse">
            <stop stop-color="#BDFFE8" />
            <stop offset="1" stop-color="white" stop-opacity="0" />
        </linearGradient>
        <linearGradient id="paint9_linear_360_2242" x1="208.908" y1="292.499" x2="208.908"
            y2="164.159" gradientUnits="userSpaceOnUse">
            <stop stop-color="#BDFFE8" />
            <stop offset="1" stop-color="white" stop-opacity="0" />
        </linearGradient>
        <linearGradient id="paint10_linear_360_2242" x1="179.234" y1="167.223" x2="179.234"
            y2="82.3833" gradientUnits="userSpaceOnUse">
            <stop stop-color="#BDFFE8" />
            <stop offset="1" stop-color="white" stop-opacity="0" />
        </linearGradient>
        <radialGradient id="paint11_radial_360_2242" cx="0" cy="0" r="1"
            gradientUnits="userSpaceOnUse"
            gradientTransform="translate(284.984 90.3617) scale(43.7456)">
            <stop offset="0.77" stop-color="white" stop-opacity="0" />
            <stop offset="0.79" stop-color="white" stop-opacity="0" />
            <stop offset="0.86" stop-color="#891A87" />
            <stop offset="0.89" stop-color="#C426C2" />
            <stop offset="0.91" stop-color="#FF32FC" />
            <stop offset="0.92" stop-color="#FA33FA" />
            <stop offset="0.93" stop-color="#EE37F6" />
            <stop offset="0.94" stop-color="#D93FF0" />
            <stop offset="0.95" stop-color="#BB49E6" />
            <stop offset="0.97" stop-color="#9556DA" />
            <stop offset="0.98" stop-color="#6766CB" />
            <stop offset="0.99" stop-color="#3179BA" />
            <stop offset="1" stop-color="#008BAB" />
        </radialGradient>
        <radialGradient id="paint12_radial_360_2242" cx="0" cy="0" r="1"
            gradientUnits="userSpaceOnUse"
            gradientTransform="translate(152.911 323.728) scale(41.5954 41.5954)">
            <stop offset="0.77" stop-color="white" stop-opacity="0" />
            <stop offset="0.91" stop-color="#FF32FC" />
            <stop offset="0.92" stop-color="#FA33FA" />
            <stop offset="0.93" stop-color="#EE37F6" />
            <stop offset="0.94" stop-color="#D93FF0" />
            <stop offset="0.95" stop-color="#BB49E6" />
            <stop offset="0.97" stop-color="#9556DA" />
            <stop offset="0.98" stop-color="#6766CB" />
            <stop offset="0.99" stop-color="#3179BA" />
            <stop offset="1" stop-color="#008BAB" />
        </radialGradient>
        <linearGradient id="paint13_linear_360_2242" x1="262.576" y1="46.5579" x2="313.107"
            y2="94.4366" gradientUnits="userSpaceOnUse">
            <stop offset="0.02" stop-color="#54FFE8" />
            <stop offset="1" stop-color="white" stop-opacity="0" />
        </linearGradient>
        <linearGradient id="paint14_linear_360_2242" x1="117.937" y1="298.031" x2="176.396"
            y2="353.422" gradientUnits="userSpaceOnUse">
            <stop offset="0.02" stop-color="#54FFE8" />
            <stop offset="0.21" stop-color="#3DBBAA" />
            <stop offset="1" stop-color="white" stop-opacity="0" />
        </linearGradient>
        <radialGradient id="paint15_radial_360_2242" cx="0" cy="0" r="1"
            gradientUnits="userSpaceOnUse"
            gradientTransform="translate(339.759 151.61) rotate(-12.09) scale(16.3714 19.7246)">
            <stop offset="0.77" stop-color="white" stop-opacity="0" />
            <stop offset="0.91" stop-color="#FF32FC" />
            <stop offset="0.92" stop-color="#FA33FA" />
            <stop offset="0.93" stop-color="#EE37F6" />
            <stop offset="0.94" stop-color="#D93FF0" />
            <stop offset="0.95" stop-color="#BB49E6" />
            <stop offset="0.97" stop-color="#9556DA" />
            <stop offset="0.98" stop-color="#6766CB" />
            <stop offset="0.99" stop-color="#3179BA" />
            <stop offset="1" stop-color="#008BAB" />
        </radialGradient>
        <linearGradient id="paint16_linear_360_2242" x1="328.718" y1="130.383" x2="352.074"
            y2="152.514" gradientUnits="userSpaceOnUse">
            <stop offset="0.02" stop-color="#54FFE8" />
            <stop offset="0.21" stop-color="#3DBBAA" />
            <stop offset="1" stop-color="white" stop-opacity="0" />
        </linearGradient>
        <radialGradient id="paint17_radial_360_2242" cx="0" cy="0" r="1"
            gradientUnits="userSpaceOnUse"
            gradientTransform="translate(226.729 63.3541) rotate(-66.08) scale(8.53585 10.2841)">
            <stop offset="0.42" stop-color="white" stop-opacity="0" />
            <stop offset="1" stop-color="#008BAB" />
        </radialGradient>
        <linearGradient id="paint18_linear_360_2242" x1="220.034" y1="54.1103" x2="235.086"
            y2="55.6974" gradientUnits="userSpaceOnUse">
            <stop offset="0.02" stop-color="#54FFE8" />
            <stop offset="1" stop-color="white" stop-opacity="0" />
        </linearGradient>
        <radialGradient id="paint19_radial_360_2242" cx="0" cy="0" r="1"
            gradientUnits="userSpaceOnUse"
            gradientTransform="translate(73.0072 60.1381) scale(36.0159 36.0159)">
            <stop offset="0.77" stop-color="white" stop-opacity="0" />
            <stop offset="0.87" stop-color="#008BAB" />
            <stop offset="0.98" stop-color="#FF32FC" />
        </radialGradient>
        <linearGradient id="paint20_linear_360_2242" x1="44.4197" y1="48.6771" x2="102.038"
            y2="48.6771" gradientUnits="userSpaceOnUse">
            <stop offset="0.02" stop-color="#54FFE8" />
            <stop offset="0.21" stop-color="#3DBBAA" />
            <stop offset="1" stop-color="white" stop-opacity="0" />
        </linearGradient>
        <radialGradient id="paint21_radial_360_2242" cx="0" cy="0" r="1"
            gradientUnits="userSpaceOnUse"
            gradientTransform="translate(267.993 355.203) scale(16.7735 16.7735)">
            <stop offset="0.77" stop-color="white" stop-opacity="0" />
            <stop offset="0.87" stop-color="#008BAB" />
            <stop offset="0.98" stop-color="#FF32FC" />
        </radialGradient>
        <linearGradient id="paint22_linear_360_2242" x1="254.68" y1="349.865" x2="281.512"
            y2="349.865" gradientUnits="userSpaceOnUse">
            <stop offset="0.02" stop-color="#54FFE8" />
            <stop offset="1" stop-color="white" stop-opacity="0" />
        </linearGradient>
        <clipPath id="clip0_360_2242">
            <rect width="400" height="400" fill="white" transform="translate(0 0.342896)" />
        </clipPath>
    </defs>
</svg>
    