<svg width="400" height="401" viewBox="0 0 400 401" fill="none" xmlns="http://www.w3.org/2000/svg">
    <path
        d="M200 377.704C297.954 377.704 377.362 298.297 377.362 200.343C377.362 102.389 297.954 22.9813 200 22.9813C102.046 22.9813 22.6384 102.389 22.6384 200.343C22.6384 298.297 102.046 377.704 200 377.704Z"
        fill="url(#paint0_radial_360_2240)" />
    <path
        d="M200 342.737C278.642 342.737 342.394 278.985 342.394 200.343C342.394 121.701 278.642 57.9487 200 57.9487C121.358 57.9487 57.606 121.701 57.606 200.343C57.606 278.985 121.358 342.737 200 342.737Z"
        fill="url(#paint1_radial_360_2240)" />
    <path fill-rule="evenodd" clip-rule="evenodd"
        d="M235.708 287.891L277.581 290.288C277.581 290.288 312.245 279.843 329.536 257.825L337.667 211.983L324.232 170.047L251.223 216.737C251.223 216.737 234.657 272.751 235.704 287.891H235.708Z"
        fill="url(#paint2_linear_360_2240)" />
    <path fill-rule="evenodd" clip-rule="evenodd"
        d="M327.489 200.932C327.489 213.982 325.653 226.625 322.185 238.556C315.303 262.556 301.967 283.809 284.159 300.383C271.428 312.253 256.399 321.691 239.853 327.971C224.857 333.677 208.625 336.776 191.618 336.776C189.208 336.776 186.771 336.72 184.39 336.576H184.362C180.806 336.405 177.278 336.059 173.809 335.629C147.571 332.188 123.742 321.289 104.412 305.058C97.1567 299.009 90.5622 292.183 84.7403 284.725C80.3241 279.134 76.338 273.196 72.8416 266.917C72.0094 265.427 71.2089 263.906 70.4045 262.385C70.4045 262.329 70.3767 262.297 70.3488 262.242C69.5165 260.609 68.744 258.972 67.9953 257.308H67.9675C65.618 252.119 63.5513 246.755 61.8867 241.248C60.6244 237.289 59.5651 233.22 58.705 229.09C58.6771 229.062 58.6771 229.002 58.6771 228.975C58.0758 226.08 57.5581 223.153 57.1559 220.198C56.24 213.89 55.7781 207.467 55.7781 200.928C55.7781 197.173 55.9214 193.414 56.2639 189.746C56.4351 187.393 56.694 185.071 57.0086 182.75C58.7567 169.386 62.488 156.655 67.8759 144.812C70.516 138.99 73.5544 133.399 76.9671 128.035C82.6457 119.087 89.3556 110.888 96.9257 103.517C121.388 79.7153 154.794 65.0609 191.618 65.0609C193.051 65.0609 194.485 65.0888 195.89 65.1167C197.412 65.1724 198.929 65.2321 200.45 65.3476C208.251 65.8653 215.877 67.0122 223.248 68.7882C227.549 69.8196 231.766 71.0262 235.895 72.4598C238.707 73.4075 241.458 74.4668 244.182 75.6136C246.217 76.4738 248.196 77.3618 250.175 78.3096C250.518 78.4808 250.864 78.6241 251.207 78.7954C264.399 85.2465 276.354 93.7364 286.735 103.915C288.225 105.348 289.662 106.838 291.096 108.359C292.044 109.39 292.987 110.454 293.907 111.513C295.484 113.289 297.005 115.156 298.495 117.02C303.914 123.901 308.673 131.3 312.659 139.157C317.334 148.276 321.006 157.997 323.499 168.179C326.107 178.676 327.485 189.631 327.485 200.928L327.489 200.932Z"
        fill="url(#paint3_radial_360_2240)" />
    <path style="mix-blend-mode:multiply" opacity="0.71" fill-rule="evenodd" clip-rule="evenodd"
        d="M112.97 190.407C112.97 190.407 136.998 211.887 142.976 220.736C148.953 229.584 169.055 289.997 169.6 302.716C170.142 315.435 158.104 332.618 158.104 332.618C158.104 332.618 137.707 326.872 126.306 320.067L133.195 272.603L112.974 190.411L112.97 190.407Z"
        fill="url(#paint4_linear_360_2240)" />
    <path style="mix-blend-mode:multiply" opacity="0.71" fill-rule="evenodd" clip-rule="evenodd"
        d="M254.806 230.348L292.39 248.977C292.39 248.977 299.845 253.995 308.705 244.597C308.705 244.597 309.597 231.491 304.161 218.856L254.802 230.348H254.806Z"
        fill="url(#paint5_linear_360_2240)" />
    <g style="mix-blend-mode:multiply" opacity="0.3">
        <path fill-rule="evenodd" clip-rule="evenodd"
            d="M116.892 197.528C113.822 210.593 115.773 224.304 120.496 236.752C121.516 239.44 122.611 242.892 124.279 245.313C125.593 247.221 127.82 248.368 129.627 249.742C132.021 251.561 134.195 253.636 136.544 255.5C139.208 257.614 141.916 258.909 145.134 260.055C151.247 262.23 157.387 263.854 163.834 261.943C169.561 260.243 175.136 256.109 178.453 251.187C179.998 248.897 181.786 246.866 183.418 244.648C185.027 242.462 186.035 239.707 187.034 237.202C189.013 232.236 189.643 225.956 189.292 220.644C189.125 218.107 188.822 215.527 188.201 213.062C187.552 210.485 186.373 208.096 185.879 205.472C185.071 201.175 183.152 197.36 181.431 193.334C177.158 183.351 166.056 177.382 155.822 175.896C151.016 175.2 146.257 176.311 141.534 177.039C136.544 177.808 132.917 180.125 128.477 182.3C125.86 183.582 123.296 185.016 121.428 187.289C117.012 192.677 116.371 200.243 116.9 197.516L116.892 197.528Z"
            fill="#7D72B3" />
        <path fill-rule="evenodd" clip-rule="evenodd"
            d="M157.881 269.844C160.187 267.769 163.324 265.403 166.295 264.36C168.33 263.643 170.23 264.42 171.89 265.607C175.239 268 174.598 273.571 171.95 276.398C167.115 281.555 158.024 277.438 158.048 270.851L157.885 269.84L157.881 269.844Z"
            fill="#7D72B3" />
        <path fill-rule="evenodd" clip-rule="evenodd"
            d="M204.755 226.49C203.421 224.686 202.493 224.085 202.564 222.285C202.616 220.931 204.141 218.35 204.854 217.052C206.997 213.142 210.405 210.354 214.614 209.024C217.581 208.084 220.349 207.65 223.451 207.626C226.234 207.606 228.536 208.423 231.156 209.271C235.907 210.804 241.156 213.337 244.652 217.052C247.941 220.544 247.463 226.856 244.58 230.42C242.374 233.144 239.172 234.793 236.261 236.66C233.076 238.703 229.583 241.311 225.892 242.323C223.503 242.98 221.79 243.318 219.437 242.63C217.159 241.96 215.323 241.295 213.249 240.24C211.349 239.273 209.908 238.878 208.358 237.357C206.989 236.019 205.854 234.649 204.898 232.977C203.548 230.607 204.026 227.708 204.751 226.498L204.755 226.49Z"
            fill="#7D72B3" />
        <path fill-rule="evenodd" clip-rule="evenodd"
            d="M194.409 201.872C193.86 203.636 192.657 207.192 195.843 206.997C197.292 206.91 199.455 205.683 200.223 204.787C203.405 201.084 195.807 198.583 195.134 201.872H194.409Z"
            fill="#7D72B3" />
        <path fill-rule="evenodd" clip-rule="evenodd"
            d="M241.805 290.698C240.284 287.505 239.945 286.286 240.977 282.885C242.518 277.808 245.074 272.209 247.758 267.614C249.463 264.691 251.569 260.717 254.791 259.319C257.375 258.2 260.39 257.515 263.197 257.34C269.318 256.961 274.044 259.852 278.397 263.886C281.085 266.379 283.323 268.45 284.88 271.855C286.23 274.805 287.034 278.7 286.72 281.933C285.824 291.144 277.804 297.663 271.87 303.951C267.187 308.913 259.37 315.145 252.075 312.493C247.029 310.661 244.019 305.309 241.952 300.658C240.582 297.575 241.084 293.987 241.809 290.694L241.805 290.698Z"
            fill="#7D72B3" />
        <path fill-rule="evenodd" clip-rule="evenodd"
            d="M233.84 266.59C232.056 268.044 231.463 269.824 231.029 272.113C230.711 273.774 230.03 277.465 231.654 278.815C233.084 280.002 235.712 277.999 236.855 277.262C237.839 276.625 238.555 275.956 239.312 275.052C239.706 274.582 240.232 274.172 240.463 273.595C240.833 272.671 240.698 271.381 240.654 270.401C240.602 269.183 239.909 268.195 239.065 267.387C238.348 266.698 237.743 266.526 236.771 266.319C235.72 266.096 234.418 265.658 233.844 266.59H233.84Z"
            fill="#7D72B3" />
        <path fill-rule="evenodd" clip-rule="evenodd"
            d="M182.092 326.299C181.897 326.832 181.706 327.167 181.985 327.681C182.263 328.198 183.183 328.947 183.558 329.293C184.94 330.576 186.421 330.958 188.229 331.34C190.005 331.714 191.845 331.949 193.645 331.587C194.791 331.356 196.249 331.101 197.005 330.126C198.403 328.314 197.244 325.59 196.317 323.858C195.604 322.532 194.6 321.341 193.784 320.075C192.908 318.713 191.649 317.578 190.411 316.542C188.878 315.26 186.504 313.512 184.525 314.934C182.658 316.276 181.622 318.697 181.129 320.859C180.854 322.07 180.914 323.507 181.336 324.682C181.638 325.526 182.248 326.1 182.092 326.307V326.299Z"
            fill="#7D72B3" />
        <path fill-rule="evenodd" clip-rule="evenodd"
            d="M292.31 273.595C291.235 272.695 290.829 272.643 290.945 271.417C291.068 270.114 291.171 268.848 291.661 267.618C292.721 264.946 294.931 262.739 297.045 260.868C298.264 259.793 299.725 259.14 301.246 258.626C302.039 258.359 302.688 258.04 303.516 258.156C304.918 258.351 305.858 259.223 306.292 260.549C306.977 262.64 305.949 264.961 304.814 266.67C303.365 268.856 302.23 271.329 299.932 272.766C298.869 273.431 297.754 274.085 296.627 274.642C295.946 274.981 295.189 275.335 294.405 275.239C293.859 275.172 292.155 274.73 292.31 273.591V273.595Z"
            fill="#7D72B3" />
        <path fill-rule="evenodd" clip-rule="evenodd"
            d="M70.5241 179.417C70.8068 180.619 70.8626 181.866 71.2528 183.036C72.0453 185.438 73.7775 187.496 75.5576 189.237C78.9424 192.546 83.7648 193.904 88.2845 194.824C90.63 195.302 93.1587 195.704 95.556 195.732C97.5112 195.755 99.5779 196.174 101.517 196.022C104.775 195.767 107.873 194.844 110.668 193.187C114.81 190.734 118.203 186.919 116.837 181.878C116.092 179.118 114.264 176.757 112.269 174.793C110.091 172.651 108.335 170.425 105.483 169.119C104.237 168.545 102.963 167.968 101.685 167.462C100.151 166.849 98.6979 166.009 97.0572 165.726C95.6953 165.491 94.2936 164.965 92.9198 164.902C91.5738 164.838 90.1243 164.834 88.7783 164.942C83.8843 165.344 78.8309 168.203 75.4381 171.687C74.0961 173.069 72.9492 174.614 71.6073 175.98C70.3728 177.238 70.5201 178.756 70.5201 179.417H70.5241Z"
            fill="#7D72B3" />
        <path fill-rule="evenodd" clip-rule="evenodd"
            d="M171.169 145.25C169.815 147.372 169.314 147.846 169.114 150.327C168.864 153.477 169.083 156.452 169.863 159.53C171.643 166.554 177.15 172.217 181.849 177.509C189.563 186.194 198.252 194.103 208.856 199.081C213.03 201.04 217.45 203.27 222.22 202.641C226.848 202.031 231.049 200.295 235.457 198.893C239.332 197.663 243.493 196.516 247.515 195.967C249.403 195.708 251.286 195.457 253.182 195.246C255.933 194.943 258.259 193.84 260.887 193.068C264.686 191.953 268.641 191.276 272.404 190.065C274.144 189.507 275.777 188.811 277.397 187.97C280.029 186.605 282.849 185.796 285.465 184.355C295.15 179.014 301.76 168.326 302.278 157.192C302.541 151.518 300.47 145.58 297.615 140.762C295.998 138.026 293.951 135.569 292.163 132.941C289.85 129.544 287.106 126.494 284.139 123.651C278.636 118.378 272.436 114.977 265.184 112.739C261.202 111.513 257.518 110.979 253.309 110.995C246.902 111.015 240.371 111.895 234.087 113.166C227.8 114.436 221.432 115.778 215.256 117.522C208.745 119.358 202.19 122.133 196.074 124.993C189.762 127.943 184.259 131.858 180.221 137.58C179.313 138.866 178.261 140.105 177.397 141.403C176.716 142.426 176.346 143.227 175.346 143.968C173.531 145.317 171.846 145.616 171.169 145.242V145.25Z"
            fill="#7D72B3" />
    </g>
    <path style="mix-blend-mode:multiply" opacity="0.71" fill-rule="evenodd" clip-rule="evenodd"
        d="M307.654 169.875L327.489 200.932C327.489 200.932 328.118 180.165 325.199 175.988C322.28 171.807 307.658 169.875 307.658 169.875H307.654Z"
        fill="url(#paint6_linear_360_2240)" />
    <path style="mix-blend-mode:multiply" opacity="0.71" fill-rule="evenodd" clip-rule="evenodd"
        d="M71.2488 146.44C71.2488 146.44 110.047 171.484 216.164 166.757L258.888 170.047C258.888 170.047 299.486 156.233 308.709 131.961C308.709 131.961 296.719 114.671 293.907 111.517C291.096 108.363 241.136 119.147 241.136 119.147L71.2488 146.44Z"
        fill="url(#paint7_linear_360_2240)" />
    <path fill-rule="evenodd" clip-rule="evenodd"
        d="M76.9672 120.194V112.309C76.9672 112.309 98.4151 84.5775 133.733 54.1179C133.733 54.1179 225.557 46.0023 251.641 54.1179L261.962 77.7321L292.39 89.2764L293.903 111.521C293.903 111.521 273.913 143.286 237.512 154.381L219.098 150.012C219.098 150.012 198.933 158.363 145.687 158.363C92.4418 158.363 71.2488 146.444 71.2488 146.444V128.19L76.9672 120.198V120.194Z"
        fill="url(#paint8_linear_360_2240)" />
    <path fill-rule="evenodd" clip-rule="evenodd"
        d="M153.835 292.355L144.915 315.638L117.414 322.177L89.5987 320.915C89.5987 320.915 60.0909 302.191 45.9543 272.595L49.0245 245.668L38.5873 236.031C38.5873 236.031 36.0626 210.88 56.9968 187.911C56.9968 187.911 80.0814 181.487 112.974 190.403L133.247 212.887C133.247 212.887 149.853 244.545 153.839 292.351L153.835 292.355Z"
        fill="url(#paint9_linear_360_2240)" />
    <path style="mix-blend-mode:multiply" opacity="0.71" fill-rule="evenodd" clip-rule="evenodd"
        d="M189.981 308.267C189.981 308.267 196.221 316.518 200.024 318.147C203.827 319.776 225.02 324.666 227.461 324.395C229.906 324.124 229.906 301.749 228.548 298.129C227.19 294.509 224.745 291.638 224.745 291.638L189.977 308.263L189.981 308.267Z"
        fill="url(#paint10_linear_360_2240)" />
    <path fill-rule="evenodd" clip-rule="evenodd"
        d="M343.159 139.766L342.1 148.627L326.641 177.418C317.98 177.649 308.745 170.736 307.658 169.875C307.63 169.848 307.57 169.82 307.542 169.788C301.35 159.693 299.168 137.496 299.168 137.496L306.396 128.576L318.239 126.426L321.221 128.174L331.718 125.219L339.949 130.468L342.386 132.045L343.159 139.758V139.766Z"
        fill="url(#paint11_linear_360_2240)" />
    <path fill-rule="evenodd" clip-rule="evenodd"
        d="M310.82 182.989C310.82 182.989 293.553 173.543 285.127 173.862L263.583 188.619C263.583 188.619 254.826 212.373 254.811 230.356C254.811 230.356 275.577 237.847 290.188 235.788C290.188 235.788 306.873 228.365 312.639 216.172C312.639 216.172 314.905 195.25 310.824 182.993L310.82 182.989Z"
        fill="url(#paint12_linear_360_2240)" />
    <path fill-rule="evenodd" clip-rule="evenodd"
        d="M76.9673 112.305C76.9673 112.305 116.888 113.615 160.903 102.322C160.903 102.322 205.46 86.688 214.153 80.7068C222.846 74.7256 251.645 54.114 251.645 54.114C251.645 54.114 206.005 42.7369 133.737 54.114C133.737 54.114 95.7312 82.5068 76.9713 112.305H76.9673Z"
        fill="url(#paint13_linear_360_2240)" />
    <path fill-rule="evenodd" clip-rule="evenodd"
        d="M261.966 77.7283C261.966 77.7283 234.255 109.677 230.997 112.305C227.736 114.934 182.582 133.124 182.582 133.124L157.104 139.667C157.104 139.667 188.981 139.404 194.413 139.667L204.556 129.787L239.694 131.237C239.694 131.237 271.934 111.784 292.398 89.2726L261.97 77.7283H261.966Z"
        fill="url(#paint14_linear_360_2240)" />
    <path fill-rule="evenodd" clip-rule="evenodd"
        d="M71.2488 128.186L99.5022 130.874C99.5022 130.874 118.338 131.69 129.205 128.023C129.205 128.023 91.3786 126.175 76.9672 120.194L71.2488 128.186Z"
        fill="url(#paint15_linear_360_2240)" />
    <path fill-rule="evenodd" clip-rule="evenodd"
        d="M263.583 188.615C263.583 188.615 275.924 193.243 284.036 192.701C292.151 192.156 310.82 182.989 310.82 182.989C310.82 182.989 302.262 175.506 285.127 173.862L263.583 188.619V188.615Z"
        fill="url(#paint16_linear_360_2240)" />
    <path fill-rule="evenodd" clip-rule="evenodd"
        d="M38.5751 236.043C38.5751 236.043 75.876 227.891 86.1181 223.774C96.3603 219.656 112.958 190.419 112.958 190.419C112.958 190.419 92.4657 180.91 56.9886 187.915C56.9886 187.915 34.8837 208.482 38.5712 236.047L38.5751 236.043Z"
        fill="url(#paint17_linear_360_2240)" />
    <path fill-rule="evenodd" clip-rule="evenodd"
        d="M49.0246 245.676C49.0246 245.676 75.1515 242.243 84.3702 239.71C93.5929 237.178 108.036 228.246 108.036 228.246C108.036 228.246 96.9698 253.437 92.9757 259.139C92.9757 259.139 61.9307 270.835 45.9464 272.603C45.9464 272.603 45.1181 258.578 49.0206 245.68L49.0246 245.676Z"
        fill="url(#paint18_linear_360_2240)" />
    <path fill-rule="evenodd" clip-rule="evenodd"
        d="M188.615 302.055C188.615 302.055 194.592 288.966 201.657 286.17C201.657 286.17 218.501 286.326 224.749 291.642L220.675 316.443L197.312 314.846C197.312 314.846 188.619 310.41 188.619 302.055H188.615Z"
        fill="url(#paint19_linear_360_2240)" />
    <path fill-rule="evenodd" clip-rule="evenodd"
        d="M188.615 302.055C188.615 302.055 195.95 304.162 202.744 302.055C209.537 299.949 217.956 288.986 217.956 288.986C217.956 288.986 212.524 285.434 201.657 286.17C201.657 286.17 190.518 290.849 188.615 302.055Z"
        fill="url(#paint20_linear_360_2240)" />
    <path style="mix-blend-mode:multiply" opacity="0.5" fill-rule="evenodd" clip-rule="evenodd"
        d="M153.835 292.355L144.915 315.638L117.414 322.177L89.5987 320.915C89.5987 320.915 117.155 319.222 117.988 315.153C118.792 311.079 120.683 299.407 120.683 299.407C113.914 279.046 92.9836 259.144 92.9836 259.144C101.728 246.811 108.04 228.23 108.04 228.23L96.1693 234.856L88.428 222.496C101.274 211.055 112.974 190.407 112.974 190.407L133.247 212.891C133.247 212.891 149.853 244.549 153.839 292.355H153.835Z"
        fill="url(#paint21_linear_360_2240)" />
    <path style="mix-blend-mode:multiply" opacity="0.5" fill-rule="evenodd" clip-rule="evenodd"
        d="M207.582 299.415L220.671 316.443L224.745 291.642L217.956 288.986L207.582 299.415Z"
        fill="url(#paint22_linear_360_2240)" />
    <path style="mix-blend-mode:multiply" opacity="0.71" fill-rule="evenodd" clip-rule="evenodd"
        d="M284.036 192.697C284.036 192.697 288.591 208.399 289.133 214.918C289.674 221.432 290.184 235.784 290.184 235.784C290.184 235.784 302.72 231.547 312.636 216.168C312.636 216.168 315.252 198.26 310.82 182.989C310.82 182.989 294.421 191.403 284.036 192.701V192.697Z"
        fill="url(#paint23_linear_360_2240)" />
    <path style="mix-blend-mode:multiply" opacity="0.5" fill-rule="evenodd" clip-rule="evenodd"
        d="M309.959 140.045L313.265 142.637C313.265 142.637 320.48 139.703 320.719 135.979C320.954 132.256 321.213 128.178 321.213 128.178L318.254 126.426L309.963 140.045H309.959Z"
        fill="url(#paint24_linear_360_2240)" />
    <path style="mix-blend-mode:multiply" opacity="0.71" fill-rule="evenodd" clip-rule="evenodd"
        d="M343.159 139.766L342.099 148.627L326.641 177.418C317.979 177.649 308.745 170.736 307.658 169.875C315.431 174.953 323.63 174.55 323.63 174.55C323.63 174.55 324.176 165.459 323.63 159.753C323.085 154.046 318.983 142.633 318.983 142.633L339.945 130.476L342.382 132.053L343.155 139.766H343.159Z"
        fill="url(#paint25_linear_360_2240)" />
    <path fill-rule="evenodd" clip-rule="evenodd"
        d="M318.25 126.43L309.96 140.049C309.96 140.049 304.978 141.359 299.168 137.512L306.392 128.584L318.25 126.43Z"
        fill="url(#paint26_linear_360_2240)" />
    <path fill-rule="evenodd" clip-rule="evenodd"
        d="M321.209 128.178L320.715 135.979C320.715 135.979 316.474 141.491 310.871 143.88C310.871 143.88 321.627 142.709 326.601 140.531C326.601 140.531 339.527 135.37 342.394 132.041L331.722 125.215L321.209 128.178Z"
        fill="url(#paint27_linear_360_2240)" />
    <path style="mix-blend-mode:multiply" opacity="0.5" fill-rule="evenodd" clip-rule="evenodd"
        d="M164.304 100.701L191.63 129.448L230.993 112.309C230.993 112.309 259.792 80.7307 261.962 77.7321L251.641 54.1179C251.641 54.1179 223.387 73.6504 214.149 80.7108C204.91 87.7712 164.304 100.701 164.304 100.701Z"
        fill="url(#paint28_linear_360_2240)" />
    <path style="mix-blend-mode:multiply" opacity="0.5" fill-rule="evenodd" clip-rule="evenodd"
        d="M204.552 129.787L219.103 150.008C219.103 150.008 208.012 153.74 196.225 155.173L194.409 139.663L204.552 129.783V129.787Z"
        fill="url(#paint29_linear_360_2240)" />
    <path style="mix-blend-mode:multiply" opacity="0.5" fill-rule="evenodd" clip-rule="evenodd"
        d="M239.69 131.236L237.516 154.377C237.516 154.377 275.681 140.702 293.907 111.517L292.394 89.2725C292.394 89.2725 263.297 116.662 239.69 131.236Z"
        fill="url(#paint30_linear_360_2240)" />
    <path style="mix-blend-mode:multiply" opacity="0.2" fill-rule="evenodd" clip-rule="evenodd"
        d="M81.71 129.182L108.04 156.878H121.125L123.507 129.448C123.507 129.448 93.979 132.196 81.71 129.182Z"
        fill="url(#paint31_linear_360_2240)" />
    <g style="mix-blend-mode:soft-light">
        <path fill-rule="evenodd" clip-rule="evenodd"
            d="M87.5519 103.345C87.0024 101.832 87.3728 101.283 88.201 99.8849C89.5072 97.6867 91.3071 95.839 92.888 93.8479C95.9662 89.9733 99.2515 86.3654 103.401 83.5779C107.686 80.6988 111.887 77.5768 116.415 75.088C119.509 73.3876 122.635 71.6434 125.96 70.4328C128.301 69.5806 130.727 68.9037 133.112 68.1829C137.779 66.7652 144.142 66.144 148.65 68.5333C151.398 69.9908 152.469 72.6867 153.497 75.4663C154.002 76.8361 154.444 78.0148 154.173 79.5082C153.939 80.8103 153.281 82.1603 152.704 83.331C150.817 87.1778 147.316 90.706 144.039 93.3979C137.349 98.8893 129.759 102.852 121.591 105.623C119.405 106.368 117.215 107.192 114.965 107.726C113.508 108.072 112.01 108.231 110.557 108.594C107.184 109.43 103.739 110.187 100.271 110.565C99.3232 110.669 98.252 110.999 97.3162 110.995C96.464 110.991 95.6357 110.461 94.7955 110.314C93.3938 110.071 91.4027 110.127 90.1523 109.434C86.8152 107.598 86.421 103.971 87.5519 103.349V103.345Z"
            fill="#FFA989" />
        <path fill-rule="evenodd" clip-rule="evenodd"
            d="M143.334 99.3592C143.637 97.9495 143.553 97.8898 144.441 97.0894C144.943 96.3646 145.516 95.6996 146.165 95.0983C146.982 94.3935 147.87 93.7842 148.821 93.2785C151.565 91.7533 154.914 90.0489 158.128 90.9967C160.29 91.6338 161.512 92.6772 161.011 95.0426C160.728 96.3766 159.617 97.7226 158.574 98.5469C156.702 100.028 154.568 100.912 152.381 101.836C150.725 102.533 148.3 102.951 146.496 102.553C144.851 102.191 143.103 100.403 143.334 99.3632V99.3592Z"
            fill="#FFA989" />
        <path fill-rule="evenodd" clip-rule="evenodd"
            d="M190.786 60.2385C188.285 61.019 186.955 61.5128 184.876 62.9305C181.782 65.037 178.465 67.1515 175.637 69.6046C173.857 71.1496 172.093 73.0451 170.883 75.084C169.923 76.7008 169.612 78.6162 169.469 80.4719C169.322 82.3793 169.927 85.792 171.998 86.6482C172.794 86.9747 174.228 86.684 175.016 86.692C176.884 86.7079 178.385 86.3973 180.193 85.9513C181.945 85.5173 183.713 85.4018 185.453 84.8841C187.221 84.3624 188.99 83.8726 190.778 83.4266C194.636 82.4669 198.379 81.5431 201.987 79.8228C205.4 78.1981 208.936 76.8481 212.285 75.088C214.702 73.8137 217.06 72.5155 219.549 71.3925C222.989 69.8355 226.434 68.3143 229.743 66.5025C231.157 65.7299 232.096 64.8299 233.211 63.695C234.299 62.588 235.589 61.6522 236.401 60.3022C236.764 59.7009 237.612 58.562 237.584 57.8094C237.552 56.8537 236.178 55.675 235.465 55.229C234.223 54.4524 232.467 53.9666 231.029 53.7914C228.935 53.5326 226.521 53.2777 224.423 53.4091C221.842 53.5764 219.031 53.9587 216.486 54.4405C214.794 54.7591 213.293 55.1772 211.556 55.2011C208.438 55.2489 205.48 55.4719 202.382 55.9736C200.625 56.2564 198.929 56.8656 197.221 57.3515C195.668 57.7935 194.015 58.116 192.55 58.8089C191.821 59.1554 189.145 59.7487 190.789 60.2505L190.786 60.2385Z"
            fill="#FFA989" />
        <path fill-rule="evenodd" clip-rule="evenodd"
            d="M183.542 55.1692C181.881 55.9497 179.412 56.8099 178.401 58.5461C177.74 59.681 178.66 59.904 179.667 59.912C181.443 59.9239 183.267 59.0757 184.972 58.6098C186.286 58.2514 187.679 57.5824 188.778 56.786C189.3 56.4077 190.347 56.0254 189.997 55.2409C189.79 54.779 188.711 54.2932 188.261 54.1538C186.56 53.6401 184.47 54.0303 183.18 55.1692H183.542Z"
            fill="#FFA989" />
        <path fill-rule="evenodd" clip-rule="evenodd"
            d="M242.948 107.694C241.439 108.184 239.937 108.447 238.46 108.904C236.959 109.366 235.589 110.314 234.314 111.214C232.12 112.771 229.743 114.762 228.417 117.14C227.306 119.131 226.107 122.742 228.441 124.375C231.65 126.617 236.66 124.339 239.866 123.276C244.895 121.608 250.43 119.668 254.695 116.403C256.499 115.021 258.255 113.337 259.908 111.772C261.282 110.469 262.739 108.857 263.89 107.355C264.738 106.244 264.866 104.711 264.714 103.353C264.571 102.055 263.289 101 262.098 100.53C259.721 99.5902 257.698 100.713 255.36 101.091C252.923 101.486 250.084 102.198 247.906 103.433C244.588 105.313 241.084 106.921 242.948 107.702V107.694Z"
            fill="#FFA989" />
        <path fill-rule="evenodd" clip-rule="evenodd"
            d="M251.278 94.29C250.872 93.7484 250.625 93.1551 250.538 92.502C251.27 92.3108 251.684 91.4666 252.186 91.0007C252.62 90.5945 253.15 90.3237 253.676 90.0649C254.544 89.6388 256.113 88.8981 257.092 89.2725C258.964 89.9893 259.418 91.8131 258.45 93.5732C257.487 95.3333 255.667 96.4961 253.715 96.747C252.274 96.9341 249.16 94.8953 250.916 93.1989L251.278 94.286V94.29Z"
            fill="#FFA989" />
        <path fill-rule="evenodd" clip-rule="evenodd"
            d="M272.651 89.2167C271.408 89.4516 269.704 89.4636 268.549 90.041C268.302 90.1644 267.98 90.5547 267.725 90.7259C266.478 91.5662 265.061 92.2431 263.93 93.2307C262.699 94.3059 261.329 96.2571 261.974 97.9496C264.208 103.819 272.38 100.546 276.107 98.4712C277.362 97.7743 278.182 96.7629 279.325 95.9346C280.181 95.3134 280.886 94.8475 281.511 93.9554C282.427 92.6533 282.614 91.7772 281.977 90.2839C281.503 89.1729 280.344 88.476 279.177 88.2092C278.19 87.9822 277.091 87.7035 276.079 87.7473C273.594 87.8548 271.468 89.4715 269.389 90.6662L272.651 89.2167Z"
            fill="#FFA989" />
        <path fill-rule="evenodd" clip-rule="evenodd"
            d="M58.9361 194.628C53.3093 197.269 48.3197 201.553 45.1538 206.949C43.7362 209.366 42.5814 211.827 41.6217 214.464C41.1239 215.829 40.9168 217.275 40.3832 218.629C39.9213 219.808 39.4275 220.915 39.2085 222.177C38.7027 225.052 37.3488 230.898 41.9681 231.276C44.0388 231.448 46.46 230.942 48.4789 230.524C52.4611 229.699 56.6105 228.091 60.286 226.362C64.3717 224.439 68.5052 222.285 72.0255 219.457C75.3466 216.789 79.0619 214.615 82.0724 211.565C85.6683 207.925 90.8611 201.956 86.8072 196.771C82.9764 191.873 74.7054 192.992 69.3455 193.637C66.8128 193.94 63.9895 193.967 61.5245 194.712C60.9551 194.883 60.2502 195.158 59.7405 195.445C59.3622 195.656 59.0356 196.078 58.9401 194.632L58.9361 194.628Z"
            fill="#FFA989" />
        <path fill-rule="evenodd" clip-rule="evenodd"
            d="M78.8589 218.9C79.2292 217.653 79.3527 217.1 80.2447 216.24C81.1765 215.344 82.0167 214.364 82.9167 213.44C84.3224 211.991 87.309 210.302 89.3797 210.183C90.3195 210.127 91.5938 210.155 92.2867 210.916C93.0075 211.708 92.665 213.277 92.2947 214.165C91.9164 215.065 91.4983 215.714 90.7576 216.363C89.9173 217.1 88.9258 218.147 87.9422 218.673C86.6599 219.358 85.0551 219.852 83.6494 220.266C82.5026 220.604 80.7305 221.193 79.6473 220.274C79.0102 219.732 78.3969 218.454 78.8589 218.9Z"
            fill="#FFA989" />
        <path fill-rule="evenodd" clip-rule="evenodd"
            d="M63.2807 248.603C62.0741 248.877 60.322 249.029 59.2349 249.785C58.2871 250.442 57.5146 251.446 56.8257 252.35C55.404 254.222 54.1775 256.237 52.7599 258.116C51.5971 259.653 50.506 261.366 49.5303 263.03C48.8653 264.165 48.495 265.228 49.1361 266.455C50.7329 269.521 55.6868 268.776 58.3508 268.139C61.222 267.45 63.7944 266.061 66.4824 264.882C68.8996 263.823 71.4203 262.911 73.7459 261.652C77.7479 259.49 82.6261 257.288 84.7884 253.027C85.6326 251.366 85.9552 250.02 85.2264 248.268C84.5495 246.64 83.3269 245.429 81.7739 244.581C80.1571 243.697 78.397 243.896 76.625 243.884C74.152 243.868 71.4203 244.242 69.035 244.959C67.5138 245.417 65.9289 246.162 64.4595 246.763C62.1936 247.695 61.0308 249.542 63.2847 248.599L63.2807 248.603Z"
            fill="#FFA989" />
        <path fill-rule="evenodd" clip-rule="evenodd"
            d="M49.1559 251.135C49.0683 250.526 49.0882 249.921 49.2116 249.323C50.2788 248.997 50.7408 247.81 52.0708 248.22C53.0464 248.519 53.2017 249.642 52.9628 250.411C52.477 251.948 48.7218 255.133 48.7935 251.86L49.1559 251.135Z"
            fill="#FFA989" />
        <path fill-rule="evenodd" clip-rule="evenodd"
            d="M286.417 178.692C284.609 178.767 282.805 178.907 281.005 179.11C280.527 179.5 280.006 179.831 279.448 180.098C277.585 181.081 275.892 181.786 274.275 183.184C272.969 184.311 269.891 186.294 270.074 188.388C270.241 190.312 273.033 190.682 274.51 190.69C276.024 190.698 277.557 190.36 279.074 190.28C281.176 190.172 283.251 189.906 285.346 189.655C288.018 189.332 290.869 188.834 293.23 187.484C294.636 186.68 295.6 185.824 296.603 184.554C297.065 183.968 297.774 183.383 297.627 182.566C297.531 182.029 296.536 180.942 296.145 180.579C295.568 180.05 294.756 179.715 294.043 179.397C290.59 177.856 286.644 179.066 286.421 178.688L286.417 178.692Z"
            fill="#FFA989" />
        <path fill-rule="evenodd" clip-rule="evenodd"
            d="M197.671 294.605C196.209 295.25 195.301 295.397 194.648 296.755C194.409 297.257 193.625 298.328 193.645 298.993C193.673 299.897 194.588 299.857 195.353 299.65C196.341 299.383 197.328 298.487 198.168 297.946C198.861 297.5 199.339 297.042 199.865 296.408C200.175 296.034 200.446 295.843 200.55 295.329C200.641 294.863 200.398 294.449 200.868 294.151C200.566 292.052 196.603 294.939 195.859 294.971L197.671 294.609V294.605Z"
            fill="#FFA989" />
        <path fill-rule="evenodd" clip-rule="evenodd"
            d="M207.813 290.618C205.559 291.618 204.042 292.394 202.887 294.628C202.525 295.333 202.178 296.066 202.545 296.779C203.719 299.061 206.232 297.03 207.53 296.05C208.426 295.377 209.402 294.903 210.171 294.071C210.521 293.697 210.752 293.263 211.071 292.868C211.357 292.514 211.919 292.132 212.102 291.702C212.464 290.853 211.879 290.212 211.094 289.965C209.605 289.499 208.478 290.479 207.088 290.614H207.813V290.618Z"
            fill="#FFA989" />
        <path fill-rule="evenodd" clip-rule="evenodd"
            d="M89.3637 240.993C88.6947 242.434 86.2815 247.866 89.4832 247.834C92.2786 247.806 96.8382 244.792 96.9895 241.717C97.0891 239.663 95.4445 238.663 93.529 238.444C91.0959 238.165 89.6783 240.101 88.6389 242.08L89.3637 240.993Z"
            fill="#FFA989" />
        <path fill-rule="evenodd" clip-rule="evenodd"
            d="M97.6945 194.266C97.0693 195.122 96.1853 195.851 97.0693 196.727C97.5033 197.157 97.9573 197.428 98.5865 197.515C99.813 197.687 101.629 196.584 101.689 195.353C101.732 194.429 101.29 193.681 100.594 193.171C99.6019 192.45 98.921 192.904 98.0608 193.541L97.6985 194.266H97.6945Z"
            fill="#FFA989" />
    </g>
    <path fill-rule="evenodd" clip-rule="evenodd"
        d="M131.2 108.697C131.2 108.697 147.384 103.716 150.956 102.31C154.524 100.904 172.579 97.9696 172.579 97.9696C172.579 97.9696 188.073 91.3154 192.422 89.2685C196.77 87.2217 207.817 81.79 207.817 81.79L220.683 75.8925C220.683 75.8925 211.982 84.8205 204.376 87.7434C196.77 90.6663 177.389 98.4514 177.389 98.4514C177.389 98.4514 171.595 100.064 163.444 102.7C155.292 105.333 131.204 108.694 131.204 108.694L131.2 108.697Z"
        fill="#FFBD4A" />
    <path fill-rule="evenodd" clip-rule="evenodd"
        d="M231.945 130.954L239.38 134.534C239.38 134.534 247.065 129.962 248.268 125.574C248.268 125.574 233.713 129.58 231.949 130.954H231.945Z"
        fill="#FFAB4A" />
    <path fill-rule="evenodd" clip-rule="evenodd"
        d="M190.925 139.667L194.66 141.825L197.36 136.792L190.925 139.667Z" fill="#FFAB4A" />
    <path style="mix-blend-mode:multiply" opacity="0.71" fill-rule="evenodd" clip-rule="evenodd"
        d="M131.2 188.062C131.2 188.062 139.985 196.839 159.274 202.752C159.274 202.752 160.632 201.338 162.261 193.048C163.89 184.757 162.261 181.854 162.261 181.854C162.261 181.854 138.579 184.844 131.2 188.062Z"
        fill="url(#paint32_linear_360_2240)" />
    <path style="mix-blend-mode:multiply" opacity="0.71" fill-rule="evenodd" clip-rule="evenodd"
        d="M144.162 214.288C144.162 214.288 144.421 217.219 145.508 219.234C146.595 221.249 158.773 224.288 160.385 223.611C163.372 222.356 159.995 215.089 158.729 212.915C157.463 210.74 155.392 208.598 155.392 208.598L144.166 214.284L144.162 214.288Z"
        fill="url(#paint33_linear_360_2240)" />
    <path fill-rule="evenodd" clip-rule="evenodd"
        d="M68.5371 267.359C68.5371 267.359 85.0153 260 90.1762 256.292C95.337 252.585 103.09 239.213 103.09 239.213L94.7955 259.828L89.2722 261.911L83.3866 263.177L68.5371 267.355V267.359Z"
        fill="#FFAB4A" />
    <path fill-rule="evenodd" clip-rule="evenodd"
        d="M78.6956 226.211L92.7049 218.314C92.7049 218.314 91.3868 222.814 89.3758 224.025C87.3648 225.235 78.6917 226.211 78.6917 226.211H78.6956Z"
        fill="#FFAB4A" />
    <path fill-rule="evenodd" clip-rule="evenodd"
        d="M279.166 192.526L285.378 197.531C285.378 197.531 286.903 193.434 287.202 192.128C287.504 190.822 279.166 192.522 279.166 192.522V192.526Z"
        fill="#FF864A" />
    <path fill-rule="evenodd" clip-rule="evenodd"
        d="M314.726 143.366L323.638 140.495L331.447 138.452C331.447 138.452 322.726 143.063 321.209 143.88C319.696 144.696 314.722 143.366 314.722 143.366H314.726Z"
        fill="#FFAB4A" />
    <path fill-rule="evenodd" clip-rule="evenodd"
        d="M307.654 140.26L310.875 137.759V140.762L307.654 140.26Z" fill="#FFAB4A" />
    <path fill-rule="evenodd" clip-rule="evenodd"
        d="M200.339 302.629L210.991 296.576L209.721 302.199L200.339 302.629Z" fill="#FF864A" />
    <path fill-rule="evenodd" clip-rule="evenodd"
        d="M80.9414 129.182C80.9414 129.182 89.065 128.521 93.8317 128.521C98.5983 128.521 108.016 129.448 108.016 129.448L117.143 130.344C117.143 130.344 111.911 130.771 100.864 130.954C89.8176 131.137 80.9414 129.182 80.9414 129.182Z"
        fill="#FFB14A" />
    <path fill-rule="evenodd" clip-rule="evenodd"
        d="M126.673 180.468C126.673 180.468 135.003 171.205 138.627 169.875C142.251 168.545 159.247 176.311 162.237 177.41C165.228 178.509 156.479 195.728 154.253 197.531C152.027 199.335 127.035 190.208 126.673 180.464V180.468Z"
        fill="url(#paint34_linear_360_2240)" />
    <path fill-rule="evenodd" clip-rule="evenodd"
        d="M157.877 219.23C157.104 221.44 149.502 220.29 146.779 219.23L146.579 219.115L146.006 218.713C145.95 218.685 145.89 218.625 145.863 218.569C143.911 216.562 143.453 211.083 144.772 208.188C144.772 208.188 151.398 206.153 153.835 207.013C155.412 207.559 156.989 211.628 157.678 215.013V215.041C158.02 216.849 158.136 218.482 157.877 219.226V219.23Z"
        fill="url(#paint35_linear_360_2240)" />
    <path style="mix-blend-mode:multiply" opacity="0.5" fill-rule="evenodd" clip-rule="evenodd"
        d="M147.937 185.677L154.253 197.535C154.253 197.535 162.341 188.731 162.846 178.596L147.941 185.681L147.937 185.677Z"
        fill="url(#paint36_linear_360_2240)" />
    <path fill-rule="evenodd" clip-rule="evenodd"
        d="M66.2315 148.591L50.924 152.302C50.924 152.302 48.4272 161.154 48.7896 164.85L58.2751 174.897C58.2751 174.897 61.214 156.886 66.2315 148.591Z"
        fill="url(#paint37_linear_360_2240)" />
    <path fill-rule="evenodd" clip-rule="evenodd"
        d="M126.673 180.468C126.673 180.468 134.147 184.151 143.314 185.677C152.481 187.202 162.843 178.592 162.843 178.592C162.843 178.592 153.023 169.816 138.898 168.187C138.898 168.187 129.659 173.459 126.673 180.468Z"
        fill="url(#paint38_linear_360_2240)" />
    <path style="mix-blend-mode:multiply" opacity="0.5" fill-rule="evenodd" clip-rule="evenodd"
        d="M157.877 219.23C157.104 221.44 149.502 220.289 146.778 219.23L146.579 219.115L146.006 218.713L145.835 218.597L145.863 218.569L147.925 215.702L156.415 213.639L157.678 215.017V215.045C158.02 216.853 158.136 218.486 157.877 219.23Z"
        fill="url(#paint39_linear_360_2240)" />
    <path fill-rule="evenodd" clip-rule="evenodd"
        d="M144.764 208.176C144.764 208.176 144.604 214.249 147.185 215.463C149.765 216.678 155.647 214.233 156.423 213.647C157.2 213.062 154.627 207.515 152.401 206.798C150.175 206.081 144.768 208.172 144.768 208.172L144.764 208.176Z"
        fill="url(#paint40_linear_360_2240)" />
    <path style="mix-blend-mode:multiply" opacity="0.71" fill-rule="evenodd" clip-rule="evenodd"
        d="M276.688 289.089C276.688 289.089 273.793 288.556 271.563 289.062C269.329 289.571 265.714 301.239 265.714 302.991C265.714 309.876 273.718 307.925 276.151 307.284C278.584 306.643 279.169 301.43 279.169 301.43L276.688 289.093V289.089Z"
        fill="url(#paint41_linear_360_2240)" />
    <path fill-rule="evenodd" clip-rule="evenodd"
        d="M268.266 300.984C266.347 299.646 269.481 292.633 271.233 290.288L271.396 290.125L271.938 289.679C271.982 289.631 272.053 289.591 272.113 289.579C274.57 288.237 279.97 289.257 282.407 291.303C282.407 291.303 282.598 298.232 281.117 300.351C280.169 301.725 275.824 302.155 272.38 301.916L272.352 301.908C270.52 301.757 268.911 301.43 268.262 300.984H268.266Z"
        fill="url(#paint42_linear_360_2240)" />
    <path style="mix-blend-mode:multiply" opacity="0.5" fill-rule="evenodd" clip-rule="evenodd"
        d="M268.266 300.984C266.347 299.646 269.481 292.633 271.233 290.288L271.396 290.125L271.938 289.679L272.093 289.543L272.113 289.579L274.323 292.335L274.044 301.068L272.38 301.916L272.352 301.908C270.52 301.756 268.911 301.43 268.262 300.984H268.266Z"
        fill="url(#paint43_linear_360_2240)" />
    <path fill-rule="evenodd" clip-rule="evenodd"
        d="M282.423 291.303C282.423 291.303 276.613 289.527 274.753 291.69C272.889 293.852 273.678 300.172 274.032 301.076C274.391 301.98 280.42 300.98 281.706 299.029C282.992 297.078 282.423 291.303 282.423 291.303Z"
        fill="url(#paint44_linear_360_2240)" />
    <path fill-rule="evenodd" clip-rule="evenodd"
        d="M96.1614 278.724L110.354 279.719L132.303 278.724L139.396 281.205L131.79 280.114L117.143 286.999L116.08 288.986L108.04 286.816L96.1614 278.724Z"
        fill="url(#paint45_linear_360_2240)" />
    <path fill-rule="evenodd" clip-rule="evenodd"
        d="M96.1614 278.724L108.04 286.071L112.273 285.414L118.657 284.868L131.79 280.114L117.143 286.999L116.08 288.986L106.977 287.313L96.1614 278.724Z"
        fill="url(#paint46_linear_360_2240)" />
    <path fill-rule="evenodd" clip-rule="evenodd"
        d="M123.507 109.438L135.051 116.284L147.937 115.276L163.44 102.704L143.473 101.275L131.2 104.433L123.507 109.438Z"
        fill="url(#paint47_linear_360_2240)" />
    <path fill-rule="evenodd" clip-rule="evenodd"
        d="M123.507 109.438H127.349L134.414 111.003H142.02L150.307 107.738L159.398 102.704H163.436C163.436 102.704 155.209 111.131 147.933 115.276L135.043 116.287L123.503 109.442L123.507 109.438Z"
        fill="url(#paint48_linear_360_2240)" />
    <path fill-rule="evenodd" clip-rule="evenodd"
        d="M52.031 271.62L57.4945 266.495L63.4558 267.359C63.4558 267.359 64.2164 271.15 63.4558 274.136C62.6952 277.123 57.4945 275.259 57.4945 275.259L52.031 271.62Z"
        fill="url(#paint49_linear_360_2240)" />
    <path fill-rule="evenodd" clip-rule="evenodd"
        d="M52.031 271.62C52.031 271.62 57.5343 273.416 58.4383 273.416C59.3423 273.416 61.5165 273.328 62.4244 272.603C63.3284 271.878 63.4558 267.363 63.4558 267.363C63.4558 267.363 64.2164 271.608 63.4558 274.14C63.4558 274.14 63.3284 276.315 59.4816 276.179L56.945 275.411L52.031 271.624V271.62Z"
        fill="url(#paint50_linear_360_2240)" />
    <path fill-rule="evenodd" clip-rule="evenodd"
        d="M293.282 190.407C293.282 190.407 294.704 187.226 296.603 185.856C298.507 184.486 304.074 184.641 304.074 184.641L304.771 185.856C304.771 185.856 302.851 190.774 301.354 191.638C299.861 192.502 296.735 191.638 296.735 191.638L293.278 190.407H293.282Z"
        fill="url(#paint51_linear_360_2240)" />
    <path fill-rule="evenodd" clip-rule="evenodd"
        d="M304.078 184.641C304.078 184.641 302.107 187.95 300.749 188.834C299.391 189.718 297.643 190.395 297.643 190.395C297.643 190.395 295.46 190.762 293.282 190.407C293.282 190.407 296.492 191.948 299.028 192.02C299.028 192.02 301.884 192.064 302.302 191.638C302.72 191.212 304.775 185.856 304.775 185.856L304.078 184.641Z"
        fill="url(#paint52_linear_360_2240)" />
    <defs>
        <radialGradient id="paint0_radial_360_2240" cx="0" cy="0" r="1"
            gradientUnits="userSpaceOnUse" gradientTransform="translate(200 200.343) scale(177.362)">
            <stop stop-color="#FF9A78" />
            <stop offset="1" stop-color="#FF9A78" stop-opacity="0" />
        </radialGradient>
        <radialGradient id="paint1_radial_360_2240" cx="0" cy="0" r="1"
            gradientUnits="userSpaceOnUse" gradientTransform="translate(200 200.343) scale(142.394)">
            <stop offset="0.644" stop-color="#FF9A78" />
            <stop offset="1" stop-color="#FF9A78" stop-opacity="0" />
        </radialGradient>
        <linearGradient id="paint2_linear_360_2240" x1="297.536" y1="283.929" x2="266.949"
            y2="188.433" gradientUnits="userSpaceOnUse">
            <stop stop-color="#5B006F" />
            <stop offset="0.02" stop-color="#5C0270" />
            <stop offset="0.23" stop-color="#691A7B" />
            <stop offset="0.46" stop-color="#732B84" />
            <stop offset="0.7" stop-color="#793589" />
            <stop offset="0.99" stop-color="#7B398B" />
        </linearGradient>
        <radialGradient id="paint3_radial_360_2240" cx="0" cy="0" r="1"
            gradientUnits="userSpaceOnUse"
            gradientTransform="translate(121.981 146.078) scale(218.234 218.234)">
            <stop stop-color="#9D4863" />
            <stop offset="0.24" stop-color="#994562" />
            <stop offset="0.42" stop-color="#903C61" />
            <stop offset="0.58" stop-color="#7F2D5E" />
            <stop offset="0.73" stop-color="#68195B" />
            <stop offset="0.87" stop-color="#4C0057" />
            <stop offset="0.98" stop-color="#4C0086" />
        </radialGradient>
        <linearGradient id="paint4_linear_360_2240" x1="112.97" y1="261.513" x2="169.616"
            y2="261.513" gradientUnits="userSpaceOnUse">
            <stop stop-color="#CA528D" />
            <stop offset="1" stop-color="#8E7090" />
        </linearGradient>
        <linearGradient id="paint5_linear_360_2240" x1="254.806" y1="234.585" x2="308.765"
            y2="234.585" gradientUnits="userSpaceOnUse">
            <stop stop-color="#CA528D" />
            <stop offset="1" stop-color="#8E7090" />
        </linearGradient>
        <linearGradient id="paint6_linear_360_2240" x1="307.654" y1="185.406" x2="327.545"
            y2="185.406" gradientUnits="userSpaceOnUse">
            <stop stop-color="#CA528D" />
            <stop offset="1" stop-color="#8E7090" />
        </linearGradient>
        <linearGradient id="paint7_linear_360_2240" x1="71.2488" y1="140.495" x2="308.709"
            y2="140.495" gradientUnits="userSpaceOnUse">
            <stop stop-color="#CA528D" />
            <stop offset="1" stop-color="#8E7090" />
        </linearGradient>
        <linearGradient id="paint8_linear_360_2240" x1="71.2488" y1="104.433" x2="293.907"
            y2="104.433" gradientUnits="userSpaceOnUse">
            <stop stop-color="#DE6863" />
            <stop offset="0.25" stop-color="#DB6462" />
            <stop offset="0.43" stop-color="#D35B61" />
            <stop offset="0.6" stop-color="#C54A5F" />
            <stop offset="0.76" stop-color="#B1335C" />
            <stop offset="0.91" stop-color="#981559" />
            <stop offset="1" stop-color="#860057" />
        </linearGradient>
        <linearGradient id="paint9_linear_360_2240" x1="96.1614" y1="322.177" x2="96.1614"
            y2="185.677" gradientUnits="userSpaceOnUse">
            <stop stop-color="#860057" />
            <stop offset="0.03" stop-color="#8C0656" />
            <stop offset="0.19" stop-color="#A92455" />
            <stop offset="0.36" stop-color="#C03B54" />
            <stop offset="0.54" stop-color="#D14C54" />
            <stop offset="0.74" stop-color="#DA5554" />
            <stop offset="0.99" stop-color="#DE5954" />
        </linearGradient>
        <linearGradient id="paint10_linear_360_2240" x1="189.981" y1="308.025" x2="229.464"
            y2="308.025" gradientUnits="userSpaceOnUse">
            <stop stop-color="#CA528D" />
            <stop offset="1" stop-color="#8E7090" />
        </linearGradient>
        <linearGradient id="paint11_linear_360_2240" x1="321.161" y1="177.422" x2="321.161"
            y2="125.227" gradientUnits="userSpaceOnUse">
            <stop stop-color="#860057" />
            <stop offset="0.03" stop-color="#880456" />
            <stop offset="0.23" stop-color="#951B55" />
            <stop offset="0.45" stop-color="#9D2C54" />
            <stop offset="0.69" stop-color="#A33554" />
            <stop offset="0.99" stop-color="#A53954" />
        </linearGradient>
        <linearGradient id="paint12_linear_360_2240" x1="284.036" y1="236.143" x2="284.036"
            y2="173.85" gradientUnits="userSpaceOnUse">
            <stop stop-color="#860057" />
            <stop offset="0.03" stop-color="#880456" />
            <stop offset="0.23" stop-color="#951B55" />
            <stop offset="0.45" stop-color="#9D2C54" />
            <stop offset="0.69" stop-color="#A33554" />
            <stop offset="0.99" stop-color="#A53954" />
        </linearGradient>
        <linearGradient id="paint13_linear_360_2240" x1="164.304" y1="112.353" x2="164.304"
            y2="49.0606" gradientUnits="userSpaceOnUse">
            <stop stop-color="#F49F57" />
            <stop offset="0.1" stop-color="#F69656" />
            <stop offset="0.35" stop-color="#FB8555" />
            <stop offset="0.63" stop-color="#FE7C54" />
            <stop offset="0.99" stop-color="#FF7954" />
        </linearGradient>
        <linearGradient id="paint14_linear_360_2240" x1="224.745" y1="139.667" x2="224.745"
            y2="77.7283" gradientUnits="userSpaceOnUse">
            <stop stop-color="#F47D57" />
            <stop offset="0.4" stop-color="#FB7A54" />
            <stop offset="0.99" stop-color="#FF7954" />
        </linearGradient>
        <linearGradient id="paint15_linear_360_2240" x1="71.2488" y1="125.574" x2="129.209"
            y2="125.574" gradientUnits="userSpaceOnUse">
            <stop stop-color="#F49F57" />
            <stop offset="0.1" stop-color="#F69656" />
            <stop offset="0.35" stop-color="#FB8555" />
            <stop offset="0.63" stop-color="#FE7C54" />
            <stop offset="0.99" stop-color="#FF7954" />
        </linearGradient>
        <linearGradient id="paint16_linear_360_2240" x1="263.583" y1="183.299" x2="310.82"
            y2="183.299" gradientUnits="userSpaceOnUse">
            <stop stop-color="#C75357" />
            <stop offset="0.13" stop-color="#D25856" />
            <stop offset="0.37" stop-color="#E35F54" />
            <stop offset="0.65" stop-color="#EC6354" />
            <stop offset="0.99" stop-color="#F06554" />
        </linearGradient>
        <linearGradient id="paint17_linear_360_2240" x1="38.161" y1="210.693" x2="112.958"
            y2="210.693" gradientUnits="userSpaceOnUse">
            <stop stop-color="#F49F57" />
            <stop offset="0.1" stop-color="#F69656" />
            <stop offset="0.35" stop-color="#FB8555" />
            <stop offset="0.63" stop-color="#FE7C54" />
            <stop offset="0.99" stop-color="#FF7954" />
        </linearGradient>
        <linearGradient id="paint18_linear_360_2240" x1="45.8787" y1="250.423" x2="108.04"
            y2="250.423" gradientUnits="userSpaceOnUse">
            <stop stop-color="#F49F57" />
            <stop offset="0.1" stop-color="#F69656" />
            <stop offset="0.35" stop-color="#FB8555" />
            <stop offset="0.63" stop-color="#FE7C54" />
            <stop offset="0.99" stop-color="#FF7954" />
        </linearGradient>
        <linearGradient id="paint19_linear_360_2240" x1="206.682" y1="316.443" x2="206.682"
            y2="286.17" gradientUnits="userSpaceOnUse">
            <stop stop-color="#860057" />
            <stop offset="0.03" stop-color="#880456" />
            <stop offset="0.23" stop-color="#951B55" />
            <stop offset="0.45" stop-color="#9D2C54" />
            <stop offset="0.69" stop-color="#A33554" />
            <stop offset="0.99" stop-color="#A53954" />
        </linearGradient>
        <linearGradient id="paint20_linear_360_2240" x1="188.615" y1="294.533" x2="217.956"
            y2="294.533" gradientUnits="userSpaceOnUse">
            <stop stop-color="#C75357" />
            <stop offset="0.26" stop-color="#D15048" />
            <stop offset="0.58" stop-color="#D84F3F" />
            <stop offset="0.99" stop-color="#DB4F3C" />
        </linearGradient>
        <linearGradient id="paint21_linear_360_2240" x1="88.42" y1="256.292" x2="153.835"
            y2="256.292" gradientUnits="userSpaceOnUse">
            <stop stop-color="#CA528D" />
            <stop offset="1" stop-color="#8E7090" />
        </linearGradient>
        <linearGradient id="paint22_linear_360_2240" x1="207.582" y1="302.712" x2="224.745"
            y2="302.712" gradientUnits="userSpaceOnUse">
            <stop stop-color="#CA528D" />
            <stop offset="1" stop-color="#8E7090" />
        </linearGradient>
        <linearGradient id="paint23_linear_360_2240" x1="284.036" y1="209.386" x2="313.404"
            y2="209.386" gradientUnits="userSpaceOnUse">
            <stop stop-color="#CA528D" />
            <stop offset="1" stop-color="#8E7090" />
        </linearGradient>
        <linearGradient id="paint24_linear_360_2240" x1="309.959" y1="134.534" x2="321.209"
            y2="134.534" gradientUnits="userSpaceOnUse">
            <stop stop-color="#CA528D" />
            <stop offset="1" stop-color="#8E7090" />
        </linearGradient>
        <linearGradient id="paint25_linear_360_2240" x1="307.654" y1="153.947" x2="343.159"
            y2="153.947" gradientUnits="userSpaceOnUse">
            <stop stop-color="#CA528D" />
            <stop offset="1" stop-color="#8E7090" />
        </linearGradient>
        <linearGradient id="paint26_linear_360_2240" x1="298.888" y1="136.003" x2="319.312"
            y2="132.291" gradientUnits="userSpaceOnUse">
            <stop stop-color="#F47D57" />
            <stop offset="0.4" stop-color="#FB7A54" />
            <stop offset="0.99" stop-color="#FF7954" />
        </linearGradient>
        <linearGradient id="paint27_linear_360_2240" x1="309.578" y1="136.792" x2="342.18"
            y2="130.867" gradientUnits="userSpaceOnUse">
            <stop stop-color="#F47D57" />
            <stop offset="0.4" stop-color="#FB7A54" />
            <stop offset="0.99" stop-color="#FF7954" />
        </linearGradient>
        <linearGradient id="paint28_linear_360_2240" x1="164.304" y1="91.7812" x2="261.966"
            y2="91.7812" gradientUnits="userSpaceOnUse">
            <stop stop-color="#CA528D" />
            <stop offset="1" stop-color="#8E7090" />
        </linearGradient>
        <linearGradient id="paint29_linear_360_2240" x1="194.409" y1="142.482" x2="219.103"
            y2="142.482" gradientUnits="userSpaceOnUse">
            <stop stop-color="#CA528D" />
            <stop offset="1" stop-color="#8E7090" />
        </linearGradient>
        <linearGradient id="paint30_linear_360_2240" x1="237.516" y1="121.827" x2="293.907"
            y2="121.827" gradientUnits="userSpaceOnUse">
            <stop stop-color="#CA528D" />
            <stop offset="1" stop-color="#8E7090" />
        </linearGradient>
        <linearGradient id="paint31_linear_360_2240" x1="81.71" y1="143.028" x2="123.507"
            y2="143.028" gradientUnits="userSpaceOnUse">
            <stop stop-color="#CA528D" />
            <stop offset="1" stop-color="#8E7090" />
        </linearGradient>
        <linearGradient id="paint32_linear_360_2240" x1="131.2" y1="192.303" x2="162.986"
            y2="192.303" gradientUnits="userSpaceOnUse">
            <stop stop-color="#CA528D" />
            <stop offset="1" stop-color="#8E7090" />
        </linearGradient>
        <linearGradient id="paint33_linear_360_2240" x1="144.162" y1="216.156" x2="161.588"
            y2="216.156" gradientUnits="userSpaceOnUse">
            <stop stop-color="#CA528D" />
            <stop offset="1" stop-color="#8E7090" />
        </linearGradient>
        <linearGradient id="paint34_linear_360_2240" x1="144.764" y1="197.762" x2="144.764"
            y2="169.724" gradientUnits="userSpaceOnUse">
            <stop stop-color="#A20057" />
            <stop offset="0.28" stop-color="#BA2355" />
            <stop offset="0.57" stop-color="#CD4054" />
            <stop offset="0.82" stop-color="#D95254" />
            <stop offset="0.99" stop-color="#DE5954" />
        </linearGradient>
        <linearGradient id="paint35_linear_360_2240" x1="151.02" y1="220.489" x2="151.02"
            y2="206.802" gradientUnits="userSpaceOnUse">
            <stop stop-color="#A20057" />
            <stop offset="0.28" stop-color="#BA2355" />
            <stop offset="0.57" stop-color="#CD4054" />
            <stop offset="0.82" stop-color="#D95254" />
            <stop offset="0.99" stop-color="#DE5954" />
        </linearGradient>
        <linearGradient id="paint36_linear_360_2240" x1="147.937" y1="188.062" x2="162.842"
            y2="188.062" gradientUnits="userSpaceOnUse">
            <stop stop-color="#CA528D" />
            <stop offset="1" stop-color="#8E7090" />
        </linearGradient>
        <linearGradient id="paint37_linear_360_2240" x1="57.4946" y1="174.901" x2="57.4946"
            y2="148.591" gradientUnits="userSpaceOnUse">
            <stop stop-color="#A20057" />
            <stop offset="0.28" stop-color="#BA2355" />
            <stop offset="0.57" stop-color="#CD4054" />
            <stop offset="0.82" stop-color="#D95254" />
            <stop offset="0.99" stop-color="#DE5954" />
        </linearGradient>
        <linearGradient id="paint38_linear_360_2240" x1="144.76" y1="185.856" x2="144.76"
            y2="168.187" gradientUnits="userSpaceOnUse">
            <stop stop-color="#F49F57" />
            <stop offset="0.1" stop-color="#F69656" />
            <stop offset="0.35" stop-color="#FB8555" />
            <stop offset="0.63" stop-color="#FE7C54" />
            <stop offset="0.99" stop-color="#FF7954" />
        </linearGradient>
        <linearGradient id="paint39_linear_360_2240" x1="145.831" y1="217.064" x2="158.016"
            y2="217.064" gradientUnits="userSpaceOnUse">
            <stop stop-color="#CA528D" />
            <stop offset="1" stop-color="#8E7090" />
        </linearGradient>
        <linearGradient id="paint40_linear_360_2240" x1="150.661" y1="215.798" x2="150.661"
            y2="206.651" gradientUnits="userSpaceOnUse">
            <stop stop-color="#F47D57" />
            <stop offset="0.4" stop-color="#FB7A54" />
            <stop offset="0.99" stop-color="#FF7954" />
        </linearGradient>
        <linearGradient id="paint41_linear_360_2240" x1="276.055" y1="288.87" x2="270.699"
            y2="308.184" gradientUnits="userSpaceOnUse">
            <stop stop-color="#CA528D" />
            <stop offset="1" stop-color="#8E7090" />
        </linearGradient>
        <linearGradient id="paint42_linear_360_2240" x1="268.824" y1="293.981" x2="282.016"
            y2="297.64" gradientUnits="userSpaceOnUse">
            <stop stop-color="#A20057" />
            <stop offset="0.28" stop-color="#BA2355" />
            <stop offset="0.57" stop-color="#CD4054" />
            <stop offset="0.82" stop-color="#D95254" />
            <stop offset="0.99" stop-color="#DE5954" />
        </linearGradient>
        <linearGradient id="paint43_linear_360_2240" x1="273.514" y1="289.897" x2="270.258"
            y2="301.639" gradientUnits="userSpaceOnUse">
            <stop stop-color="#CA528D" />
            <stop offset="1" stop-color="#8E7090" />
        </linearGradient>
        <linearGradient id="paint44_linear_360_2240" x1="273.445" y1="294.886" x2="282.259"
            y2="297.331" gradientUnits="userSpaceOnUse">
            <stop stop-color="#F47D57" />
            <stop offset="0.4" stop-color="#FB7A54" />
            <stop offset="0.99" stop-color="#FF7954" />
        </linearGradient>
        <linearGradient id="paint45_linear_360_2240" x1="96.1614" y1="283.857" x2="139.396"
            y2="283.857" gradientUnits="userSpaceOnUse">
            <stop stop-color="#860057" />
            <stop offset="0.21" stop-color="#89094C" />
            <stop offset="0.55" stop-color="#8D1343" />
            <stop offset="0.99" stop-color="#8F1640" />
        </linearGradient>
        <linearGradient id="paint46_linear_360_2240" x1="96.1614" y1="283.857" x2="131.79"
            y2="283.857" gradientUnits="userSpaceOnUse">
            <stop stop-color="#F49F57" />
            <stop offset="0.1" stop-color="#F69656" />
            <stop offset="0.35" stop-color="#FB8555" />
            <stop offset="0.63" stop-color="#FE7C54" />
            <stop offset="0.99" stop-color="#FF7954" />
        </linearGradient>
        <linearGradient id="paint47_linear_360_2240" x1="143.473" y1="116.284" x2="143.473"
            y2="101.275" gradientUnits="userSpaceOnUse">
            <stop stop-color="#860057" />
            <stop offset="0.03" stop-color="#880456" />
            <stop offset="0.23" stop-color="#951B55" />
            <stop offset="0.45" stop-color="#9D2C54" />
            <stop offset="0.69" stop-color="#A33554" />
            <stop offset="0.99" stop-color="#A53954" />
        </linearGradient>
        <linearGradient id="paint48_linear_360_2240" x1="123.507" y1="109.494" x2="163.44"
            y2="109.494" gradientUnits="userSpaceOnUse">
            <stop stop-color="#F49F57" />
            <stop offset="0.1" stop-color="#F69656" />
            <stop offset="0.35" stop-color="#FB8555" />
            <stop offset="0.63" stop-color="#FE7C54" />
            <stop offset="0.99" stop-color="#FF7954" />
        </linearGradient>
        <linearGradient id="paint49_linear_360_2240" x1="57.9127" y1="275.837" x2="57.9127"
            y2="266.495" gradientUnits="userSpaceOnUse">
            <stop stop-color="#860057" />
            <stop offset="0.03" stop-color="#880456" />
            <stop offset="0.23" stop-color="#951B55" />
            <stop offset="0.45" stop-color="#9D2C54" />
            <stop offset="0.69" stop-color="#A33554" />
            <stop offset="0.99" stop-color="#A53954" />
        </linearGradient>
        <linearGradient id="paint50_linear_360_2240" x1="52.031" y1="271.771" x2="63.7943"
            y2="271.771" gradientUnits="userSpaceOnUse">
            <stop stop-color="#F49F57" />
            <stop offset="0.1" stop-color="#F69656" />
            <stop offset="0.35" stop-color="#FB8555" />
            <stop offset="0.63" stop-color="#FE7C54" />
            <stop offset="0.99" stop-color="#FF7954" />
        </linearGradient>
        <linearGradient id="paint51_linear_360_2240" x1="293.282" y1="188.329" x2="304.775"
            y2="188.329" gradientUnits="userSpaceOnUse">
            <stop stop-color="#860057" />
            <stop offset="0.21" stop-color="#89094C" />
            <stop offset="0.55" stop-color="#8D1343" />
            <stop offset="0.99" stop-color="#8F1640" />
        </linearGradient>
        <linearGradient id="paint52_linear_360_2240" x1="293.282" y1="188.333" x2="304.775"
            y2="188.333" gradientUnits="userSpaceOnUse">
            <stop stop-color="#C75357" />
            <stop offset="0.13" stop-color="#D25856" />
            <stop offset="0.37" stop-color="#E35F54" />
            <stop offset="0.65" stop-color="#EC6354" />
            <stop offset="0.99" stop-color="#F06554" />
        </linearGradient>
    </defs>
</svg>
    