<svg width="400" height="400" viewBox="0 0 400 400" fill="none" xmlns="http://www.w3.org/2000/svg">
    <path fill-rule="evenodd" clip-rule="evenodd"
        d="M335.595 204.881C337.905 242.904 321.254 271.506 316.353 279.34C290.743 320.396 243.199 343.595 198.146 342.33C131.882 340.462 60.6973 285.386 60.6973 204.881C60.6973 128.976 122.241 67.4319 198.146 67.4319C282.026 67.4319 331.98 145.245 335.595 204.881Z"
        fill="url(#paint0_radial_2055_19183)" />
    <path style="mix-blend-mode:multiply" opacity="0.74" fill-rule="evenodd" clip-rule="evenodd"
        d="M73.7932 167.34C63.2882 203.796 78.5335 209.782 137.366 214.141C196.198 218.499 209.957 143.337 195.455 118.812C180.952 94.3072 134.413 123.814 121.739 136.829C109.064 149.845 141.865 173.205 155.423 177.062C168.981 180.918 176.754 164.729 181.294 161.375C185.853 158.02 181.495 184.072 152.089 188.21C122.683 192.347 83.6756 177.905 115.974 133.375C148.272 88.8438 202.786 107.403 212.046 114.855C221.305 122.307 201.119 134.057 206.281 152.577C211.463 171.096 318.642 154.204 323.343 142.494C328.023 130.783 273.83 47.6071 171.03 74.8438C83.0127 98.1436 73.8133 167.32 73.8133 167.32L73.7932 167.34Z"
        fill="url(#paint1_linear_2055_19183)" />
    <path style="mix-blend-mode:multiply" opacity="0.5" fill-rule="evenodd" clip-rule="evenodd"
        d="M89.1591 131.085C59.6928 174.31 71.5838 205.544 89.1591 221.673C106.734 237.822 134.493 187.105 207.767 191.765C281.041 196.425 223.495 161.495 150.622 183.891C77.7502 206.287 132.404 173.045 162.051 168.324C191.698 163.604 207.024 144.522 194.671 123.432C182.318 102.342 135.819 112.485 121.457 144C117.922 151.753 98.2982 146.852 119.549 125.481C140.8 104.109 179.828 99.5899 215.179 109.191C250.551 118.792 246.192 92.6602 240.729 75.4866C235.285 58.3331 136.12 62.1696 89.1591 131.065V131.085Z"
        fill="url(#paint2_linear_2055_19183)" />
    <path style="mix-blend-mode:screen" opacity="0.84" fill-rule="evenodd" clip-rule="evenodd"
        d="M216.505 230.571C252.358 183.329 290.723 196.164 306.229 237.44C321.756 278.697 248.582 330.379 168.74 317.403C88.898 304.448 184.387 280.103 205.879 272.872C227.391 265.621 218.674 290.066 220.02 296.373C221.366 302.68 175.891 304.588 175.891 298.462C175.891 292.336 192.502 280.866 202.304 280.866C212.106 280.866 197.403 284.964 201.762 288.379C206.12 291.773 206.341 284.944 208.952 280.866C211.564 276.789 176.714 280.887 161.188 298.462C145.661 316.017 222.249 315.133 247.518 293.963C288.091 259.937 238.881 280.485 210.459 265.4C174.746 246.439 216.465 230.591 216.465 230.591L216.505 230.571Z"
        fill="url(#paint3_linear_2055_19183)" />
    <path style="mix-blend-mode:screen" fill-rule="evenodd" clip-rule="evenodd"
        d="M200.255 304.347C214.577 316.258 267.061 312.422 291.747 274.6C316.433 236.778 299.661 243.285 293.475 236.737C287.288 230.209 292.109 200.04 275.558 225.71C268.688 236.376 281.905 203.374 241.572 196.907C201.239 190.439 138.551 193.352 112.017 224.445C85.4834 255.538 113.262 275.584 160.927 281.77C208.591 287.957 214.657 279.983 215.159 257.145C215.661 234.307 192.964 231.857 179.125 241.377C165.285 250.918 177.98 265.34 179.125 270.382C180.27 275.423 188.244 271.065 189.971 270.382C191.699 269.699 186.597 265.079 189.971 262.347C193.346 259.615 199.05 272.29 197.142 277.532C195.234 282.775 154.117 279.902 134.232 273.515C114.347 267.128 117.219 237.3 151.466 219.323C185.713 201.346 216.304 207.854 232.875 226.654C249.446 245.455 244.485 247.383 244.203 259.917C243.922 272.45 271.561 277.392 278.591 240.192C280.158 231.897 290.884 238.344 295.845 248.809C300.806 259.274 283.01 291.833 260.895 300.33C238.78 308.826 216.766 313.265 213.773 304.829C210.78 296.393 200.255 304.347 200.255 304.347Z"
        fill="url(#paint4_linear_2055_19183)" />
    <path style="mix-blend-mode:screen" opacity="0.5" fill-rule="evenodd" clip-rule="evenodd"
        d="M101.733 233.925C99.1218 202.973 91.3485 187.285 188.726 182.384C286.103 177.483 322.137 203.716 319.386 240.192C316.634 276.668 340.737 213.397 329.69 164.89C318.642 116.362 238.579 104.933 207.787 112.284C177.016 119.636 195.676 126.143 191.518 129.98C187.36 133.796 167.756 118.551 122.542 142.253C77.3284 165.954 99.2624 233.925 99.2624 233.925H101.753H101.733Z"
        fill="url(#paint5_linear_2055_19183)" />
    <path style="mix-blend-mode:screen"
        d="M302.445 231.891C304.341 197.655 276.678 168.283 240.658 166.288C204.638 164.293 173.901 190.43 172.005 224.667C170.109 258.904 197.772 288.275 233.792 290.27C269.812 292.265 300.549 266.128 302.445 231.891Z"
        fill="url(#paint6_radial_2055_19183)" />
    <path style="mix-blend-mode:multiply" opacity="0.5" fill-rule="evenodd" clip-rule="evenodd"
        d="M160.023 78.1176C130.416 86.4734 117.099 111.722 116.536 122.548C115.974 133.374 132.324 102.02 184.889 105.374C237.455 108.729 280.258 140.103 295.825 147.153C311.391 154.204 288.132 41.9226 160.023 78.1176Z"
        fill="url(#paint7_linear_2055_19183)" />
    <g style="mix-blend-mode:soft-light" opacity="0.8">
        <path fill-rule="evenodd" clip-rule="evenodd"
            d="M115.713 158.141C110.37 155.549 104.164 167.46 108.623 171.739C113.062 176.017 123.567 161.937 115.713 158.141Z"
            fill="#EBFBFC" />
    </g>
    <path style="mix-blend-mode:screen" fill-rule="evenodd" clip-rule="evenodd"
        d="M63.5696 176.72C63.5696 176.72 86.2869 96.356 162.031 76.9529C162.031 76.9529 87.9139 79.4235 63.5696 176.72Z"
        fill="url(#paint8_linear_2055_19183)" />
    <path style="mix-blend-mode:multiply" opacity="0.74" fill-rule="evenodd" clip-rule="evenodd"
        d="M150.622 308.324C134.252 309.188 155.062 337.509 203.268 336.967C251.475 336.424 269.592 321.219 270.416 319.432C271.239 317.644 231.469 346.226 150.622 308.344V308.324Z"
        fill="url(#paint9_linear_2055_19183)" />
    <path style="mix-blend-mode:screen" opacity="0.5" fill-rule="evenodd" clip-rule="evenodd"
        d="M129.572 322.646C129.572 322.646 153.214 340.502 194.651 342.27C236.089 344.037 268.447 323.61 268.447 323.61C268.447 323.61 212.528 356.169 136.542 320.758L129.572 322.646Z"
        fill="url(#paint10_linear_2055_19183)" />
    <path fill-rule="evenodd" clip-rule="evenodd"
        d="M56.0573 166.075C56.0172 166.235 55.977 166.356 55.9569 166.497C55.977 166.436 55.9971 166.276 56.0573 166.075Z"
        fill="url(#paint11_radial_2055_19183)" />
    <path fill-rule="evenodd" clip-rule="evenodd"
        d="M345.397 204.881C345.397 248.066 326.817 286.912 297.17 313.828C296.869 314.089 296.628 314.33 296.407 314.511C296.246 314.671 296.086 314.812 295.925 314.912C289.538 320.597 282.668 325.739 275.377 330.238C275.377 330.238 265.153 331.001 256.476 329.354C253.885 328.852 251.434 328.169 249.426 327.145C240.708 322.786 255.411 293.36 261.417 292.818C263.466 292.617 264.892 294.505 266.117 296.955V296.996C268.206 301.173 269.773 307.099 273.047 307.983H273.067C273.489 308.103 273.971 308.143 274.493 308.043C279.013 307.3 298.637 302.338 310.046 282.795C310.046 282.795 314.685 281.63 316.614 276.628C318.401 272.049 316.995 266.384 316.734 265.42C316.734 265.36 316.714 265.34 316.714 265.34V265.3C317.859 259.816 318.462 253.67 318.341 246.78C318.02 229.687 293.093 184.253 275.558 186.763C275.558 186.763 275.551 186.763 275.538 186.763C274.694 186.864 273.891 187.105 273.107 187.446C273.067 187.466 273.047 187.466 273.047 187.466C269.612 188.953 266.559 192.648 264.149 199.136C253.041 229.105 232.975 241.136 227.753 245.013C226.046 246.258 225.945 246.66 228.215 246.519C248.944 245.294 234.201 289.001 230.384 295.529C226.568 302.077 241.833 307.521 218.393 320.034C214.998 321.842 210.961 323.529 206.361 325.036C204.594 325.618 202.746 326.181 200.817 326.683C173.259 334.115 131.3 334.717 100.427 314.973C90.9869 306.617 82.611 297.016 75.5608 286.491C75.5608 286.491 75.5608 286.47 75.5407 286.45L73.0299 282.554C58.9697 259.997 50.875 233.363 50.875 204.841C50.875 191.604 52.6225 178.749 55.9166 166.557L61.9023 174.491C62.0027 174.671 62.1433 174.832 62.2638 174.993C63.0472 175.977 63.5493 176.7 63.5493 176.7C63.5493 176.7 58.2265 219.021 70.2179 222.838C70.8004 223.039 71.3829 223.179 71.9654 223.32C72.5479 223.44 73.1103 223.561 73.6526 223.641H73.6727C74.2351 223.702 74.7774 223.762 75.3197 223.822C76.1433 223.882 76.9668 223.882 77.7502 223.862C78.0514 223.862 78.3126 223.842 78.5938 223.822C79.1763 223.782 79.7186 223.722 80.2609 223.641C80.9639 223.541 81.6669 223.42 82.3097 223.3C82.4704 223.26 82.6311 223.219 82.7918 223.219C82.7918 223.219 82.8052 223.213 82.8319 223.199C82.9524 223.179 83.093 223.159 83.2136 223.119C83.2337 223.119 83.2537 223.099 83.2537 223.099C83.314 223.099 83.3542 223.079 83.4345 223.079C83.6956 223.019 83.9367 222.978 84.1174 222.898C84.1375 222.898 84.1576 222.878 84.1576 222.878C84.238 222.858 84.3384 222.838 84.4187 222.838C84.4991 222.818 84.5995 222.778 84.6798 222.757C84.7401 222.737 84.8004 222.737 84.8606 222.717C84.9611 222.697 85.0414 222.677 85.0414 222.677C88.7573 221.713 90.9467 220.95 90.9467 223.681C90.9467 226.252 89.6009 230.149 90.4847 233.925C90.7458 235.05 91.1877 236.155 91.9309 237.179C93.2164 240.052 95.0041 243.828 95.5464 244.229C96.149 244.691 97.5952 243.647 98.4991 242.884C98.5191 242.864 98.5392 242.864 98.5392 242.844C98.7602 242.582 98.961 242.382 99.2222 242.241H99.2422C99.2422 242.241 99.2623 242.221 99.2824 242.241C101.311 242.964 103.742 243.627 106.694 244.089C115.853 245.575 135.739 244.33 155.785 239.69L156.287 239.57C157.914 239.208 159.521 238.786 161.148 238.364L162.011 238.143C172.617 235.291 182.961 231.495 191.538 226.654H191.558C193.546 225.529 195.394 224.344 197.142 223.119C206.04 216.852 211.985 209.079 212.387 199.699C214.034 163.765 208.028 149.042 208.591 144.141C208.671 143.418 208.952 142.574 209.414 141.69V141.65C211.885 136.649 218.935 129.98 218.935 129.98C218.935 129.98 214.376 124.979 215.279 122.046C215.279 122.046 215.279 122.026 215.3 122.006C215.34 121.745 215.48 121.504 215.661 121.263C215.922 120.941 216.505 120.479 217.288 119.877C217.288 119.877 217.308 119.877 217.328 119.857C222.069 116.241 233.698 107.865 222.571 98.1235L223.033 92.66L215.942 93.6242H215.922C215.922 93.6242 215.601 93.4434 215.159 93.2626C213.271 92.2182 211.081 91.1938 208.611 90.2095C172.978 75.6271 151.807 75.5668 151.426 75.5668V65.2024C166.109 60.2612 181.796 57.6099 198.146 57.6099C226.789 57.6099 253.503 65.7849 276.08 79.9255C276.1 79.9456 276.12 79.9657 276.14 79.9657H276.16L276.2 79.9857C317.779 106.037 345.397 152.215 345.397 204.861V204.881Z"
        fill="url(#paint12_radial_2055_19183)" />
    <g style="mix-blend-mode:multiply" opacity="0.8">
        <path fill-rule="evenodd" clip-rule="evenodd"
            d="M218.955 129.96C239.102 117.446 258.846 122.689 297.934 139.22C337.021 155.77 302.011 177.484 277.506 181.983C253.001 186.482 243.199 187.286 232.152 202.812C221.105 218.339 196.519 223.521 196.519 223.521L191.498 226.654C191.498 226.654 215.601 221.613 233.377 204.037C251.153 186.462 266.057 182.385 286.083 183.007C306.109 183.63 333.064 199.136 337.765 203.033C342.465 206.91 344.333 222.818 344.333 222.818L345.417 210.184C345.417 210.184 340.617 207.11 337.162 196.907C333.687 186.703 324.488 190.58 306.732 186.281C288.955 181.983 298.978 178.729 315.509 162.801C332.06 146.872 335.274 151.05 335.274 151.05L334.249 148.519C334.249 148.519 328.063 149.986 316.534 160.451C316.534 160.451 315.409 147.575 314.183 143.096C312.958 138.597 276.703 125.782 253.202 123.05C229.722 120.319 218.955 129.98 218.955 129.98V129.96Z"
            fill="#B3DBE0" />
    </g>
    <g style="mix-blend-mode:multiply" opacity="0.8">
        <path fill-rule="evenodd" clip-rule="evenodd"
            d="M276.14 79.9655C274.895 79.5638 252.037 72.1319 238.82 78.4992C225.202 85.0272 222.571 98.1233 222.571 98.1233L223.033 92.6599L215.942 93.624C215.942 93.624 212.146 89.3858 213.09 86.4734C214.034 83.581 219.759 79.845 238.559 75.9282C256.416 72.1922 274.332 79.2022 276.1 79.9253C276.12 79.9454 276.14 79.9655 276.16 79.9655H276.14Z"
            fill="#B3DBE0" />
    </g>
    <path fill-rule="evenodd" clip-rule="evenodd"
        d="M99.2424 242.241C99.2424 242.241 98.9009 242.562 98.5594 242.844C98.7804 242.582 98.9813 242.382 99.2424 242.241Z"
        fill="#D2F0F6" />
    <g style="mix-blend-mode:multiply" opacity="0.8">
        <path fill-rule="evenodd" clip-rule="evenodd"
            d="M206.361 325.076L200.818 326.723C200.818 326.723 135.879 330.961 150.863 306.737C150.863 306.737 140.841 309.268 118.786 290.066C96.7315 270.863 79.558 272.27 76.1032 273.515C72.7689 274.7 75.3801 285.627 75.5608 286.49L73.0501 282.594C73.0501 282.594 72.8291 273.515 74.0544 269.638C75.2595 265.762 101.01 276.267 105.891 278.978C110.812 281.69 95.1447 255.558 92.2925 246.981C89.4202 238.404 90.4848 233.945 90.4848 233.945C90.4848 233.945 91.1074 235.392 91.931 237.199C93.2165 240.072 95.0041 243.848 95.5465 244.249C96.149 244.711 97.5952 243.667 98.4991 242.904C94.9238 247.544 97.8363 268.915 121.699 290.146C150.602 315.876 187.059 293.42 198.769 271.888C210.479 250.376 179.707 252.565 166.912 251.742C154.097 250.918 155.805 239.71 155.805 239.71L156.307 239.589L161.168 238.384L162.031 238.163C162.031 238.163 156.166 249.412 166.511 251.059C176.855 252.706 227.753 245.073 227.753 245.073L228.215 246.579C228.215 246.579 197.142 250.195 191.518 251.34C185.914 252.485 197.041 253.65 200.858 259.515C204.654 265.36 198.267 288.519 165.848 302.399C133.449 316.278 165.727 331.925 206.381 325.096L206.361 325.076Z"
            fill="#B3DBE0" />
    </g>
    <g style="mix-blend-mode:multiply" opacity="0.8">
        <path fill-rule="evenodd" clip-rule="evenodd"
            d="M232.875 289.865C232.875 289.865 227.532 295.851 204.092 304.548C180.671 313.265 163.377 312.984 163.377 312.984C163.377 312.984 176.172 314.45 190.373 314.45C204.574 314.45 201.4 307.601 210.178 303.624C218.955 299.647 225.584 299.808 228.195 297.297C230.786 294.786 232.875 289.865 232.875 289.865Z"
            fill="#D2F0F6" />
    </g>
    <g style="mix-blend-mode:multiply" opacity="0.8">
        <path fill-rule="evenodd" clip-rule="evenodd"
            d="M317.739 288.921C311.592 299.727 300.947 310.252 297.17 313.828C296.869 314.089 296.628 314.33 296.407 314.511C296.106 314.792 295.905 314.993 295.825 315.053C295.865 315.013 295.885 314.973 295.925 314.932C311.612 297.538 310.026 282.855 310.026 282.855C310.026 282.855 314.665 281.69 316.594 276.689C318.442 271.928 316.855 265.983 316.694 265.4C317.317 266.163 324.949 276.206 317.698 288.941L317.739 288.921Z"
            fill="#D2F0F6" />
    </g>
    <g style="mix-blend-mode:soft-light">
        <path fill-rule="evenodd" clip-rule="evenodd"
            d="M151.426 75.5666V65.2021C151.426 65.2021 187.36 68.4762 199.873 74.8435C212.407 81.2107 215.922 93.6239 215.922 93.6239C215.922 93.6239 185.612 78.7602 151.406 75.5465L151.426 75.5666Z"
            fill="#D7F2F7" />
    </g>
    <g style="mix-blend-mode:soft-light">
        <path fill-rule="evenodd" clip-rule="evenodd"
            d="M233.658 105.596C233.779 112.606 218.313 119.435 217.328 119.857C222.069 116.241 233.698 107.865 222.571 98.1236C222.571 98.1236 225.604 90.8926 227.371 90.8926C229.139 90.8926 233.498 98.3646 233.638 105.596H233.658Z"
            fill="#D7F2F7" />
    </g>
    <g style="mix-blend-mode:soft-light">
        <path fill-rule="evenodd" clip-rule="evenodd"
            d="M226.347 126.184L218.955 129.98C218.955 129.98 214.396 124.979 215.3 122.046C215.3 122.046 215.3 122.026 215.32 122.006C215.661 121.825 219.377 119.977 222.491 121.403C225.745 122.91 226.347 126.184 226.347 126.184Z"
            fill="#D7F2F7" />
    </g>
    <g style="mix-blend-mode:soft-light">
        <path fill-rule="evenodd" clip-rule="evenodd"
            d="M205.598 220.829C203.851 221.432 197.142 223.119 197.142 223.119C206.04 216.852 211.985 209.079 212.387 199.699C214.034 163.765 208.028 149.042 208.591 144.141C208.671 143.417 208.952 142.574 209.414 141.69V141.65C209.414 141.65 216.987 180.778 218.835 197.128C220.663 213.478 207.346 220.227 205.598 220.849V220.829Z"
            fill="#D7F2F7" />
    </g>
    <g style="mix-blend-mode:soft-light">
        <path fill-rule="evenodd" clip-rule="evenodd"
            d="M194.029 229.105C191.859 231.274 163.739 250.195 161.168 248.729C158.597 247.242 161.168 238.364 161.168 238.364L162.032 238.143C172.637 235.291 182.981 231.495 191.558 226.654H192.12C192.12 226.654 196.218 226.935 194.049 229.105H194.029Z"
            fill="#D7F2F7" />
    </g>
    <g style="mix-blend-mode:soft-light">
        <path fill-rule="evenodd" clip-rule="evenodd"
            d="M155.825 239.69C155.825 239.69 153.455 251.159 141.865 252.384C130.275 253.61 100.468 253.75 98.9008 251.44C97.3341 249.13 99.2423 242.241 99.2423 242.241H99.3025C101.331 242.964 103.762 243.627 106.714 244.089C115.874 245.575 135.759 244.33 155.805 239.69H155.825Z"
            fill="#D7F2F7" />
    </g>
    <g style="mix-blend-mode:soft-light">
        <path fill-rule="evenodd" clip-rule="evenodd"
            d="M85.0415 222.657C85.0415 222.657 62.4246 229.386 57.7245 216.732C53.0243 204.057 54.8321 170.956 56.0573 169.529C56.9411 168.525 60.3758 172.562 62.284 175.013C63.0674 175.997 63.5695 176.72 63.5695 176.72C63.5695 176.72 58.2467 219.042 70.2381 222.858C76.2037 224.746 81.3658 223.621 85.0214 222.657H85.0415Z"
            fill="#D7F2F7" />
    </g>
    <g style="mix-blend-mode:soft-light">
        <path fill-rule="evenodd" clip-rule="evenodd"
            d="M322.86 262.608C322.86 262.608 321.695 269.277 320.852 270.643C320.048 271.908 317.136 266.184 316.754 265.44C316.754 265.38 316.734 265.36 316.734 265.36V265.32C317.879 259.836 318.482 253.69 318.361 246.8C318.04 229.707 293.113 184.273 275.578 186.783C279.374 185.879 286.665 184.735 292.069 187.486C299.701 191.383 322.7 231.274 323.945 243.145C325.17 254.975 322.86 262.608 322.86 262.608Z"
            fill="#D7F2F7" />
    </g>
    <g style="mix-blend-mode:soft-light">
        <path fill-rule="evenodd" clip-rule="evenodd"
            d="M266.117 297.016C266.117 297.016 242.556 318.026 256.476 329.354C253.885 328.852 251.434 328.169 249.426 327.145C240.708 322.786 255.411 293.36 261.417 292.818C263.466 292.617 264.892 294.505 266.117 296.955V296.996V297.016Z"
            fill="#D7F2F7" />
    </g>
    <g style="mix-blend-mode:soft-light">
        <path fill-rule="evenodd" clip-rule="evenodd"
            d="M307.796 295.79C303.779 301.937 292.089 309.449 285.139 310.272C278.49 311.056 273.529 308.384 273.047 308.023C273.469 308.143 273.951 308.183 274.473 308.083C278.993 307.34 298.617 302.378 310.026 282.835C310.026 282.835 311.793 289.644 307.776 295.79H307.796Z"
            fill="#D7F2F7" />
    </g>
    <g style="mix-blend-mode:soft-light">
        <path fill-rule="evenodd" clip-rule="evenodd"
            d="M226.347 126.184C226.347 126.184 254.126 127.067 259.931 127.067C265.736 127.067 286.163 134.399 286.163 134.399C286.163 134.399 265.555 125.742 254.106 123.693C242.677 121.644 226.347 126.184 226.347 126.184Z"
            fill="#D7F2F7" />
    </g>
    <g style="mix-blend-mode:soft-light">
        <path fill-rule="evenodd" clip-rule="evenodd"
            d="M237.254 200.402C237.254 200.402 247.216 192.126 250.852 190.379C258.505 186.683 268.588 184.875 272.123 184.031C275.658 183.188 276.422 183.148 276.422 183.148C276.422 183.148 265.716 183.489 254.588 188.531C243.46 193.572 237.254 200.402 237.254 200.402Z"
            fill="#D7F2F7" />
    </g>
    <g style="mix-blend-mode:soft-light">
        <path fill-rule="evenodd" clip-rule="evenodd"
            d="M226.347 89.5265C226.347 89.5265 236.651 79.6843 245.328 77.8163C254.005 75.9483 263.064 76.8521 263.064 76.8521C263.064 76.8521 254.508 73.9397 242.777 77.053C231.047 80.1663 226.367 89.5064 226.367 89.5064L226.347 89.5265Z"
            fill="#D7F2F7" />
    </g>
    <g style="mix-blend-mode:soft-light">
        <path fill-rule="evenodd" clip-rule="evenodd"
            d="M189.971 251.943C189.971 251.943 198.528 250.155 208.872 248.89C219.216 247.624 225.584 246.861 225.584 246.861C225.584 246.861 219.136 250.055 211.925 251.019C204.714 251.963 189.971 251.963 189.971 251.963V251.943Z"
            fill="#D7F2F7" />
    </g>
    <g style="mix-blend-mode:soft-light">
        <path fill-rule="evenodd" clip-rule="evenodd"
            d="M107.699 281.77C107.699 281.77 119.489 291.894 127.765 299.446C136.04 306.998 143.994 308.123 147.469 307.922C150.944 307.721 151.446 306.496 151.446 306.496C151.446 306.496 149.518 306.476 140.921 304.769C132.324 303.061 115.954 286.249 107.678 281.77H107.699Z"
            fill="#D7F2F7" />
    </g>
    <g style="mix-blend-mode:soft-light">
        <path fill-rule="evenodd" clip-rule="evenodd"
            d="M157.994 306.557C157.994 306.557 170.749 302.419 174.846 299.346C178.924 296.273 180.832 294.545 188.686 288.62C196.539 282.694 200.255 271.245 200.255 271.245C200.255 271.245 198.186 280.806 184.347 291.291C170.508 301.776 157.994 306.577 157.994 306.577V306.557Z"
            fill="#D7F2F7" />
    </g>
    <g style="mix-blend-mode:soft-light">
        <path fill-rule="evenodd" clip-rule="evenodd"
            d="M305.245 186.904C305.245 186.904 328.465 196.646 332.442 200.402C336.419 204.158 340.998 208.376 340.998 208.376C340.998 208.376 339.391 203.595 333.928 200.402C328.465 197.208 311.853 190.459 305.245 186.904Z"
            fill="#D7F2F7" />
    </g>
    <g style="mix-blend-mode:soft-light">
        <path fill-rule="evenodd" clip-rule="evenodd"
            d="M300.264 176.58C300.264 176.58 307.113 171.076 314.766 165.151C322.419 159.225 327.119 153.199 327.119 153.199C327.119 153.199 322.157 157.839 316.835 161.515C311.512 165.191 300.264 176.58 300.264 176.58Z"
            fill="#D7F2F7" />
    </g>
    <g style="mix-blend-mode:multiply" opacity="0.3">
        <path fill-rule="evenodd" clip-rule="evenodd"
            d="M260.533 130.924C249.506 131.205 234.542 164.628 233.638 179.331C232.734 194.034 264.189 184.513 288.513 174.591C312.838 164.668 311.793 154.003 306.089 145.627C300.364 137.251 268.307 130.723 260.533 130.924Z"
            fill="#D2F0F6" />
    </g>
    <g style="mix-blend-mode:multiply" opacity="0.3">
        <path fill-rule="evenodd" clip-rule="evenodd"
            d="M278.973 82.9585C272.103 78.9815 266.539 107.805 264.993 116.904C263.446 126.003 297.532 129.357 308.137 138.155C318.763 146.933 321.816 139.38 322.037 135.905C322.238 132.431 300.786 95.5726 278.993 82.9585H278.973Z"
            fill="#D2F0F6" />
    </g>
    <g style="mix-blend-mode:multiply" opacity="0.3">
        <path fill-rule="evenodd" clip-rule="evenodd"
            d="M170.247 306.557C164.763 304.146 194.35 292.496 203.549 277.191C212.749 261.865 204.373 260.439 209.876 257.989C215.4 255.538 231.328 258.189 234.602 267.59C237.876 276.99 223.615 296.956 200.255 304.347C176.895 311.739 170.247 306.557 170.247 306.557Z"
            fill="#D2F0F6" />
    </g>
    <g style="mix-blend-mode:multiply" opacity="0.3">
        <path fill-rule="evenodd" clip-rule="evenodd"
            d="M112.037 275.544C110.611 265.34 168.901 272.27 177.337 278.818C185.773 285.346 163.839 302.72 144.677 300.069C125.515 297.397 112.037 275.564 112.037 275.564V275.544Z"
            fill="#D2F0F6" />
    </g>
    <g style="mix-blend-mode:multiply" opacity="0.3">
        <path fill-rule="evenodd" clip-rule="evenodd"
            d="M78.1318 288.017C72.2064 277.753 113.423 289.363 129.572 302.178C145.741 314.993 157.994 327.024 157.994 327.024C157.994 327.024 106.112 336.444 78.1318 288.037V288.017Z"
            fill="#D2F0F6" />
    </g>
    <g style="mix-blend-mode:soft-light">
        <path fill-rule="evenodd" clip-rule="evenodd"
            d="M338.608 160.551C335.916 153.601 340.074 180.697 338.608 188.812C337.142 196.927 345.357 208.376 345.357 208.376C345.357 208.376 345.196 177.624 338.608 160.551Z"
            fill="#D6F3F7" />
    </g>
    <g style="mix-blend-mode:soft-light">
        <path fill-rule="evenodd" clip-rule="evenodd"
            d="M344.312 222.838C344.312 222.838 341.661 207.331 335.595 204.881C329.509 202.43 327.842 235.834 327.32 251.963C326.797 268.072 327.32 275.644 327.32 275.644C327.32 275.644 343.75 248.99 344.312 222.838Z"
            fill="#D6F3F7" />
    </g>
    <g style="mix-blend-mode:soft-light">
        <path fill-rule="evenodd" clip-rule="evenodd"
            d="M305.245 103.808C305.245 103.808 322.459 129.438 323.122 139.521C323.805 149.604 333.526 146.832 333.526 146.832C333.526 146.832 324.889 124.918 305.245 103.808Z"
            fill="#D6F3F7" />
    </g>
    <g style="mix-blend-mode:soft-light">
        <path fill-rule="evenodd" clip-rule="evenodd"
            d="M230.103 125.42C230.103 125.42 240.588 127.891 245.891 126.766C251.193 125.641 254.749 124.416 254.749 124.416C254.749 124.416 246.172 121.684 230.103 125.44V125.42Z"
            fill="#D7F2F7" />
    </g>
    <g style="mix-blend-mode:multiply" opacity="0.3">
        <path fill-rule="evenodd" clip-rule="evenodd"
            d="M188.987 248.809C185.452 245.997 218.513 220.869 235.064 208.376C251.615 195.882 263.044 194.557 263.044 194.557C263.044 194.557 247.598 223.702 235.064 236.195C222.531 248.689 188.987 248.829 188.987 248.829V248.809Z"
            fill="#D2F0F6" />
    </g>
    <g style="mix-blend-mode:soft-light">
        <path fill-rule="evenodd" clip-rule="evenodd"
            d="M309.483 168.324C309.483 168.324 313.36 166.396 316.031 164.146C318.703 161.897 321.093 158.924 321.093 158.924C321.093 158.924 313.32 164.367 309.483 168.324Z"
            fill="#D7F2F7" />
    </g>
    <g style="mix-blend-mode:soft-light">
        <path fill-rule="evenodd" clip-rule="evenodd"
            d="M172.998 59.7589C172.998 59.7589 203.067 68.7172 219.015 72.7144C234.964 76.7115 264.229 74.8435 264.229 74.8435C264.229 74.8435 230.886 52.086 172.998 59.7388V59.7589Z"
            fill="#D6F3F7" />
    </g>
    <g style="mix-blend-mode:soft-light">
        <path fill-rule="evenodd" clip-rule="evenodd"
            d="M51.3773 216.933C51.3773 216.933 65.4777 244.712 68.9526 254.915C72.4275 265.119 70.7403 277.593 70.7403 277.593C70.7403 277.593 54.0287 256.161 51.3974 216.933H51.3773Z"
            fill="#D6F3F7" />
    </g>
    <path fill-rule="evenodd" clip-rule="evenodd"
        d="M113.543 131.246C105.63 127.409 96.4502 145.045 103.038 151.372C109.627 157.719 125.153 136.87 113.543 131.246Z"
        fill="white" />
    <g style="mix-blend-mode:screen">
        <path
            d="M240.367 333.351C302.356 333.351 352.608 285.59 352.608 226.674C352.608 167.758 302.356 119.997 240.367 119.997C178.378 119.997 128.126 167.758 128.126 226.674C128.126 285.59 178.378 333.351 240.367 333.351Z"
            fill="url(#paint13_radial_2055_19183)" />
    </g>
    <path fill-rule="evenodd" clip-rule="evenodd"
        d="M184.769 188.35C184.769 194.858 179.506 200.121 172.998 200.121C166.491 200.121 161.228 194.858 161.228 188.35C161.228 181.842 166.491 176.58 172.998 176.58C179.506 176.58 184.769 181.842 184.769 188.35Z"
        fill="url(#paint14_radial_2055_19183)" />
    <path fill-rule="evenodd" clip-rule="evenodd"
        d="M177.859 188.35C177.859 191.042 175.69 193.211 172.998 193.211C170.307 193.211 168.137 191.042 168.137 188.35C168.137 185.659 170.307 183.489 172.998 183.489C175.69 183.489 177.859 185.659 177.859 188.35Z"
        fill="url(#paint15_radial_2055_19183)" />
    <path fill-rule="evenodd" clip-rule="evenodd"
        d="M175.57 188.35C175.57 189.776 174.425 190.921 172.999 190.921C171.572 190.921 170.427 189.776 170.427 188.35C170.427 186.924 171.572 185.779 172.999 185.779C174.425 185.779 175.57 186.924 175.57 188.35Z"
        fill="url(#paint16_radial_2055_19183)" style="mix-blend-mode:screen" />
    <path style="mix-blend-mode:screen" fill-rule="evenodd" clip-rule="evenodd"
        d="M183.684 146.953C183.684 150.849 180.531 154.003 176.634 154.003C172.737 154.003 169.584 150.849 169.584 146.953C169.584 143.056 172.737 139.903 176.634 139.903C180.531 139.903 183.684 143.056 183.684 146.953Z"
        fill="url(#paint17_radial_2055_19183)" />
    <path style="mix-blend-mode:screen" fill-rule="evenodd" clip-rule="evenodd"
        d="M179.546 146.953C179.546 148.56 178.241 149.865 176.634 149.865C175.027 149.865 173.721 148.56 173.721 146.953C173.721 145.346 175.027 144.04 176.634 144.04C178.241 144.04 179.546 145.346 179.546 146.953Z"
        fill="url(#paint18_radial_2055_19183)" />
    <path
        d="M176.634 148.499C177.488 148.499 178.181 147.807 178.181 146.953C178.181 146.099 177.488 145.406 176.634 145.406C175.78 145.406 175.087 146.099 175.087 146.953C175.087 147.807 175.78 148.499 176.634 148.499Z"
        fill="url(#paint19_radial_2055_19183)" style="mix-blend-mode:screen" />
    <path fill-rule="evenodd" clip-rule="evenodd"
        d="M132.003 231.093C132.003 233.825 129.773 236.054 127.041 236.054C124.31 236.054 122.08 233.825 122.08 231.093C122.08 228.361 124.31 226.132 127.041 226.132C129.773 226.132 132.003 228.361 132.003 231.093Z"
        fill="url(#paint20_radial_2055_19183)" />
    <path
        d="M127.041 233.142C128.173 233.142 129.09 232.224 129.09 231.093C129.09 229.961 128.173 229.044 127.041 229.044C125.91 229.044 124.993 229.961 124.993 231.093C124.993 232.224 125.91 233.142 127.041 233.142Z"
        fill="url(#paint21_radial_2055_19183)" />
    <path style="mix-blend-mode:screen" fill-rule="evenodd" clip-rule="evenodd"
        d="M128.126 231.093C128.126 231.696 127.644 232.178 127.041 232.178C126.439 232.178 125.957 231.696 125.957 231.093C125.957 230.49 126.439 230.008 127.041 230.008C127.644 230.008 128.126 230.49 128.126 231.093Z"
        fill="url(#paint22_radial_2055_19183)" />
    <path fill-rule="evenodd" clip-rule="evenodd"
        d="M160.023 209.079C160.023 211.288 158.235 213.076 156.026 213.076C153.816 213.076 152.028 211.288 152.028 209.079C152.028 206.869 153.816 205.082 156.026 205.082C158.235 205.082 160.023 206.869 160.023 209.079Z"
        fill="url(#paint23_radial_2055_19183)" />
    <path style="mix-blend-mode:screen" fill-rule="evenodd" clip-rule="evenodd"
        d="M157.693 209.079C157.693 209.983 156.949 210.726 156.046 210.726C155.142 210.726 154.399 209.983 154.399 209.079C154.399 208.175 155.142 207.432 156.046 207.432C156.949 207.432 157.693 208.175 157.693 209.079Z"
        fill="url(#paint24_radial_2055_19183)" />
    <path style="mix-blend-mode:screen" fill-rule="evenodd" clip-rule="evenodd"
        d="M156.909 209.079C156.909 209.561 156.528 209.963 156.025 209.963C155.523 209.963 155.142 209.581 155.142 209.079C155.142 208.577 155.543 208.195 156.025 208.195C156.507 208.195 156.909 208.577 156.909 209.079Z"
        fill="url(#paint25_radial_2055_19183)" />
    <path
        d="M162.031 151.171C163.141 151.171 164.04 150.271 164.04 149.162C164.04 148.053 163.141 147.153 162.031 147.153C160.922 147.153 160.023 148.053 160.023 149.162C160.023 150.271 160.922 151.171 162.031 151.171Z"
        fill="url(#paint26_radial_2055_19183)" />
    <path style="mix-blend-mode:screen" fill-rule="evenodd" clip-rule="evenodd"
        d="M162.855 149.162C162.855 149.624 162.493 149.986 162.031 149.986C161.569 149.986 161.208 149.624 161.208 149.162C161.208 148.7 161.569 148.339 162.031 148.339C162.493 148.339 162.855 148.7 162.855 149.162Z"
        fill="url(#paint27_radial_2055_19183)" />
    <path fill-rule="evenodd" clip-rule="evenodd"
        d="M162.453 149.162C162.453 149.403 162.252 149.604 162.011 149.604C161.77 149.604 161.569 149.403 161.569 149.162C161.569 148.921 161.77 148.72 162.011 148.72C162.252 148.72 162.453 148.921 162.453 149.162Z"
        fill="url(#paint28_radial_2055_19183)" style="mix-blend-mode:screen" />
    <path fill-rule="evenodd" clip-rule="evenodd"
        d="M100.488 207.432C100.488 209.24 99.0214 210.706 97.2136 210.706C95.4059 210.706 93.9396 209.24 93.9396 207.432C93.9396 205.624 95.4059 204.158 97.2136 204.158C99.0214 204.158 100.488 205.624 100.488 207.432Z"
        fill="url(#paint29_radial_2055_19183)" />
    <path style="mix-blend-mode:screen" fill-rule="evenodd" clip-rule="evenodd"
        d="M98.5592 207.432C98.5592 208.175 97.9566 208.798 97.1934 208.798C96.4301 208.798 95.8275 208.195 95.8275 207.432C95.8275 206.669 96.4301 206.066 97.1934 206.066C97.9566 206.066 98.5592 206.669 98.5592 207.432Z"
        fill="url(#paint30_radial_2055_19183)" />
    <path style="mix-blend-mode:screen" fill-rule="evenodd" clip-rule="evenodd"
        d="M97.9164 207.432C97.9164 207.834 97.595 208.155 97.1933 208.155C96.7916 208.155 96.4702 207.834 96.4702 207.432C96.4702 207.03 96.7916 206.709 97.1933 206.709C97.595 206.709 97.9164 207.03 97.9164 207.432Z"
        fill="url(#paint31_radial_2055_19183)" />
    <defs>
        <radialGradient id="paint0_radial_2055_19183" cx="0" cy="0" r="1"
            gradientUnits="userSpaceOnUse"
            gradientTransform="translate(192.361 233.845) scale(137.529 137.529)">
            <stop stop-color="#D7F1F7" />
            <stop offset="1" stop-color="#D5F0F7" />
        </radialGradient>
        <linearGradient id="paint1_linear_2055_19183" x1="197.162" y1="214.321" x2="197.162"
            y2="69.4004" gradientUnits="userSpaceOnUse">
            <stop stop-color="#D8F3F7" />
            <stop offset="0.77" stop-color="#D4F1F7" />
            <stop offset="1" stop-color="#D2F0F7" />
        </linearGradient>
        <linearGradient id="paint2_linear_2055_19183" x1="71.2423" y1="145.888" x2="244.384"
            y2="145.888" gradientUnits="userSpaceOnUse">
            <stop stop-color="#D8F0F7" />
            <stop offset="1" stop-color="#D8F3F7" />
        </linearGradient>
        <linearGradient id="paint3_linear_2055_19183" x1="137.446" y1="259.917" x2="308.338"
            y2="259.917" gradientUnits="userSpaceOnUse">
            <stop stop-color="#D2F0F6" />
            <stop offset="0.99" stop-color="#D2F2F7" />
        </linearGradient>
        <linearGradient id="paint4_linear_2055_19183" x1="101.733" y1="252.224" x2="304.803"
            y2="252.224" gradientUnits="userSpaceOnUse">
            <stop stop-color="#D2F0F6" />
            <stop offset="0.99" stop-color="#D2F2F7" />
        </linearGradient>
        <linearGradient id="paint5_linear_2055_19183" x1="93.9195" y1="180.637" x2="332.602"
            y2="180.637" gradientUnits="userSpaceOnUse">
            <stop stop-color="#D2F0F6" />
            <stop offset="0.99" stop-color="#D2F2F7" />
        </linearGradient>
        <radialGradient id="paint6_radial_2055_19183" cx="0" cy="0" r="1"
            gradientUnits="userSpaceOnUse"
            gradientTransform="translate(237.768 227.94) rotate(3.17) scale(65.397 62.031)">
            <stop offset="0.01" stop-color="#D2F4F7" />
            <stop offset="1" stop-color="#D2F0F6" />
        </radialGradient>
        <linearGradient id="paint7_linear_2055_19183" x1="208.31" y1="147.495" x2="208.31"
            y2="70.9268" gradientUnits="userSpaceOnUse">
            <stop stop-color="#D8F3F7" />
            <stop offset="0.77" stop-color="#D4F1F7" />
            <stop offset="1" stop-color="#D2F0F7" />
        </linearGradient>
        <linearGradient id="paint8_linear_2055_19183" x1="112.821" y1="176.72" x2="112.821"
            y2="76.9328" gradientUnits="userSpaceOnUse">
            <stop stop-color="#D2F0F6" />
            <stop offset="0.99" stop-color="#D2F4F7" />
        </linearGradient>
        <linearGradient id="paint9_linear_2055_19183" x1="145.099" y1="322.645" x2="270.436"
            y2="322.645" gradientUnits="userSpaceOnUse">
            <stop stop-color="#D2F0F7" />
            <stop offset="1" stop-color="#D8F3F7" />
        </linearGradient>
        <linearGradient id="paint10_linear_2055_19183" x1="129.572" y1="331.584" x2="268.447"
            y2="331.584" gradientUnits="userSpaceOnUse">
            <stop offset="0.01" stop-color="#D2F4F7" />
            <stop offset="1" stop-color="#D2F0F6" />
        </linearGradient>
        <radialGradient id="paint11_radial_2055_19183" cx="0" cy="0" r="1"
            gradientUnits="userSpaceOnUse"
            gradientTransform="translate(55.9971 166.255) scale(0.160693 0.160685)">
            <stop stop-color="#D3F0F6" />
            <stop offset="1" stop-color="#D2F0F6" />
        </radialGradient>
        <radialGradient id="paint12_radial_2055_19183" cx="0" cy="0" r="1"
            gradientUnits="userSpaceOnUse"
            gradientTransform="translate(174.344 170.192) scale(142.129 142.129)">
            <stop stop-color="#D3F0F6" />
            <stop offset="1" stop-color="#D2F0F6" />
        </radialGradient>
        <radialGradient id="paint13_radial_2055_19183" cx="0" cy="0" r="1"
            gradientUnits="userSpaceOnUse"
            gradientTransform="translate(240.878 226.303) scale(112.355 106.572)">
            <stop offset="0.01" stop-color="#8EB0D9" />
            <stop offset="1" stop-color="white" stop-opacity="0" />
        </radialGradient>
        <radialGradient id="paint14_radial_2055_19183" cx="0" cy="0" r="1"
            gradientUnits="userSpaceOnUse"
            gradientTransform="translate(172.998 188.35) scale(11.7704 11.7704)">
            <stop stop-color="white" />
            <stop offset="1" stop-color="white" stop-opacity="0" />
        </radialGradient>
        <radialGradient id="paint15_radial_2055_19183" cx="0" cy="0" r="1"
            gradientUnits="userSpaceOnUse"
            gradientTransform="translate(172.998 188.35) scale(4.86083)">
            <stop offset="0.59" stop-color="white" />
            <stop offset="1" stop-color="white" stop-opacity="0" />
        </radialGradient>
        <radialGradient id="paint16_radial_2055_19183" cx="0" cy="0" r="1"
            gradientUnits="userSpaceOnUse"
            gradientTransform="translate(172.999 188.35) scale(2.57102)">
            <stop offset="0.84" stop-color="white" />
            <stop offset="1" stop-color="white" stop-opacity="0" />
        </radialGradient>
        <radialGradient id="paint17_radial_2055_19183" cx="0" cy="0" r="1"
            gradientUnits="userSpaceOnUse"
            gradientTransform="translate(176.634 146.953) scale(7.05022 7.0502)">
            <stop stop-color="#0086FF" />
            <stop offset="1" stop-color="#0086FF" stop-opacity="0" />
        </radialGradient>
        <radialGradient id="paint18_radial_2055_19183" cx="0" cy="0" r="1"
            gradientUnits="userSpaceOnUse"
            gradientTransform="translate(176.634 146.953) scale(2.91248)">
            <stop offset="0.59" stop-color="#5793FF" />
            <stop offset="1" stop-color="#5793FF" stop-opacity="0" />
        </radialGradient>
        <radialGradient id="paint19_radial_2055_19183" cx="0" cy="0" r="1"
            gradientUnits="userSpaceOnUse"
            gradientTransform="translate(176.634 146.953) scale(1.54663 1.54662)">
            <stop offset="0.84" stop-color="white" />
            <stop offset="1" stop-color="white" stop-opacity="0" />
        </radialGradient>
        <radialGradient id="paint20_radial_2055_19183" cx="0" cy="0" r="1"
            gradientUnits="userSpaceOnUse"
            gradientTransform="translate(127.041 231.093) scale(4.96126 4.96127)">
            <stop stop-color="white" />
            <stop offset="1" stop-color="white" stop-opacity="0" />
        </radialGradient>
        <radialGradient id="paint21_radial_2055_19183" cx="0" cy="0" r="1"
            gradientUnits="userSpaceOnUse"
            gradientTransform="translate(127.041 231.093) scale(2.04878 2.04878)">
            <stop offset="0.59" stop-color="white" />
            <stop offset="1" stop-color="white" stop-opacity="0" />
        </radialGradient>
        <radialGradient id="paint22_radial_2055_19183" cx="0" cy="0" r="1"
            gradientUnits="userSpaceOnUse"
            gradientTransform="translate(127.041 231.093) scale(1.08465 1.08466)">
            <stop offset="0.59" stop-color="#FFFFA2" />
            <stop offset="1" stop-color="#FFFFA2" stop-opacity="0" />
        </radialGradient>
        <radialGradient id="paint23_radial_2055_19183" cx="0" cy="0" r="1"
            gradientUnits="userSpaceOnUse"
            gradientTransform="translate(156.026 209.079) scale(3.99712 3.99713)">
            <stop stop-color="white" />
            <stop offset="1" stop-color="white" stop-opacity="0" />
        </radialGradient>
        <radialGradient id="paint24_radial_2055_19183" cx="0" cy="0" r="1"
            gradientUnits="userSpaceOnUse"
            gradientTransform="translate(156.026 209.079) scale(1.64706)">
            <stop offset="0.59" stop-color="#5793FF" />
            <stop offset="1" stop-color="#5793FF" stop-opacity="0" />
        </radialGradient>
        <radialGradient id="paint25_radial_2055_19183" cx="0" cy="0" r="1"
            gradientUnits="userSpaceOnUse"
            gradientTransform="translate(156.025 209.079) scale(0.883797 0.883781)">
            <stop offset="0.59" stop-color="#FFFFA2" />
            <stop offset="1" stop-color="#FFFFA2" stop-opacity="0" />
        </radialGradient>
        <radialGradient id="paint26_radial_2055_19183" cx="0" cy="0" r="1"
            gradientUnits="userSpaceOnUse"
            gradientTransform="translate(162.031 149.162) scale(2.00861 2.00861)">
            <stop stop-color="white" />
            <stop offset="1" stop-color="white" stop-opacity="0" />
        </radialGradient>
        <radialGradient id="paint27_radial_2055_19183" cx="0" cy="0" r="1"
            gradientUnits="userSpaceOnUse"
            gradientTransform="translate(162.031 149.162) scale(0.823532)">
            <stop offset="0.59" stop-color="#5793FF" />
            <stop offset="1" stop-color="#5793FF" stop-opacity="0" />
        </radialGradient>
        <radialGradient id="paint28_radial_2055_19183" cx="0" cy="0" r="1"
            gradientUnits="userSpaceOnUse"
            gradientTransform="translate(162.031 149.162) scale(0.441887 0.441895)">
            <stop offset="0.59" stop-color="#FFFFA2" />
            <stop offset="1" stop-color="#FFFFA2" stop-opacity="0" />
        </radialGradient>
        <radialGradient id="paint29_radial_2055_19183" cx="0" cy="0" r="1"
            gradientUnits="userSpaceOnUse"
            gradientTransform="translate(97.2136 207.432) scale(3.27403)">
            <stop stop-color="white" />
            <stop offset="1" stop-color="white" stop-opacity="0" />
        </radialGradient>
        <radialGradient id="paint30_radial_2055_19183" cx="0" cy="0" r="1"
            gradientUnits="userSpaceOnUse"
            gradientTransform="translate(97.2135 207.432) scale(1.36585 1.36586)">
            <stop offset="0.59" stop-color="#5793FF" />
            <stop offset="1" stop-color="#5793FF" stop-opacity="0" />
        </radialGradient>
        <radialGradient id="paint31_radial_2055_19183" cx="0" cy="0" r="1"
            gradientUnits="userSpaceOnUse"
            gradientTransform="translate(97.2134 207.432) scale(0.723095 0.723099)">
            <stop offset="0.59" stop-color="#FFFFA2" />
            <stop offset="1" stop-color="#FFFFA2" stop-opacity="0" />
        </radialGradient>
    </defs>
</svg>
    