<svg width="400" height="401" viewBox="0 0 400 401" fill="none" xmlns="http://www.w3.org/2000/svg">
    <path
        d="M198.126 360.748C286.492 360.748 358.126 289.113 358.126 200.748C358.126 112.382 286.492 40.7479 198.126 40.7479C109.76 40.7479 38.126 112.382 38.126 200.748C38.126 289.113 109.76 360.748 198.126 360.748Z"
        fill="url(#paint0_radial_478_26168)" />
    <path fill-rule="evenodd" clip-rule="evenodd"
        d="M335.575 205.634C337.885 243.657 321.234 272.26 316.333 280.093C290.723 321.149 243.179 344.349 198.126 343.083C131.862 341.215 60.6772 286.139 60.6772 205.634C60.6772 129.729 122.221 68.1854 198.126 68.1854C282.006 68.1854 331.96 145.999 335.575 205.634Z"
        fill="url(#paint1_radial_478_26168)" />
    <path style="mix-blend-mode:multiply" opacity="0.74" fill-rule="evenodd" clip-rule="evenodd"
        d="M73.7732 168.094C63.2682 204.55 78.5135 210.536 137.346 214.894C196.178 219.253 209.937 144.091 195.434 119.566C180.932 95.0607 134.393 124.567 121.719 137.583C109.044 150.599 141.845 173.959 155.403 177.815C168.961 181.672 176.734 165.482 181.274 162.128C185.833 158.774 181.475 184.825 152.069 188.963C122.663 193.101 83.6555 178.659 115.954 134.128C148.252 89.5973 202.766 108.157 212.026 115.609C221.285 123.061 201.099 134.811 206.261 153.33C211.443 171.85 318.622 154.957 323.322 143.247C328.003 131.537 273.81 48.3606 171.01 75.5973C82.9927 98.8972 73.7933 168.074 73.7933 168.074L73.7732 168.094Z"
        fill="url(#paint2_linear_478_26168)" />
    <path style="mix-blend-mode:multiply" opacity="0.5" fill-rule="evenodd" clip-rule="evenodd"
        d="M89.1391 131.838C59.6728 175.064 71.5638 206.297 89.1391 222.426C106.714 238.576 134.473 187.858 207.747 192.518C281.021 197.178 223.475 162.249 150.602 184.645C77.7302 207.041 132.384 173.798 162.031 169.078C191.678 164.358 207.004 145.276 194.651 124.186C182.298 103.095 135.799 113.239 121.437 144.754C117.902 152.507 98.2782 147.606 119.529 126.234C140.78 104.863 179.808 100.343 215.159 109.944C250.531 119.546 246.172 93.4137 240.709 76.2401C235.265 59.0866 136.1 62.923 89.1391 131.818V131.838Z"
        fill="url(#paint3_linear_478_26168)" />
    <path style="mix-blend-mode:screen" opacity="0.84" fill-rule="evenodd" clip-rule="evenodd"
        d="M216.485 231.324C252.339 184.082 290.703 196.917 306.209 238.194C321.736 279.451 248.562 331.132 168.72 318.156C88.8782 305.201 184.367 280.857 205.859 273.626C227.372 266.375 218.654 290.819 220 297.126C221.346 303.433 175.871 305.342 175.871 299.215C175.871 293.089 192.482 281.62 202.284 281.62C212.086 281.62 197.383 285.717 201.742 289.132C206.1 292.527 206.321 285.697 208.933 281.62C211.544 277.542 176.694 281.64 161.168 299.215C145.641 316.771 222.23 315.887 247.498 294.716C288.072 260.69 238.861 281.238 210.439 266.154C174.726 247.192 216.445 231.344 216.445 231.344L216.485 231.324Z"
        fill="url(#paint4_linear_478_26168)" />
    <path style="mix-blend-mode:screen" fill-rule="evenodd" clip-rule="evenodd"
        d="M200.235 305.101C214.557 317.012 267.042 313.175 291.727 275.353C316.413 237.531 299.641 244.039 293.455 237.491C287.268 230.963 292.089 200.794 275.538 226.464C268.669 237.129 281.885 204.128 241.552 197.66C201.22 191.192 138.531 194.105 111.997 225.198C85.4635 256.291 113.243 276.337 160.907 282.524C208.571 288.71 214.637 280.736 215.139 257.898C215.641 235.06 192.944 232.61 179.105 242.131C165.265 251.672 177.96 266.093 179.105 271.135C180.25 276.177 188.224 271.818 189.951 271.135C191.679 270.452 186.577 265.832 189.951 263.101C193.326 260.369 199.03 273.043 197.122 278.286C195.214 283.528 154.098 280.656 134.212 274.268C114.327 267.881 117.199 238.053 151.446 220.076C185.693 202.099 216.284 208.607 232.855 227.408C249.426 246.208 244.465 248.136 244.184 260.67C243.902 273.204 271.541 278.145 278.571 240.946C280.138 232.65 290.864 239.098 295.825 249.563C300.786 260.027 282.99 292.587 260.875 301.083C238.76 309.58 216.746 314.019 213.753 305.583C210.76 297.146 200.235 305.101 200.235 305.101Z"
        fill="url(#paint5_linear_478_26168)" />
    <path style="mix-blend-mode:screen" opacity="0.5" fill-rule="evenodd" clip-rule="evenodd"
        d="M101.713 234.679C99.1018 203.726 91.3285 188.039 188.706 183.138C286.083 178.237 322.117 204.469 319.366 240.946C316.614 277.422 340.717 214.151 329.67 165.643C318.622 117.115 238.559 105.686 207.767 113.038C176.996 120.389 195.656 126.897 191.498 130.733C187.34 134.55 167.736 119.304 122.522 143.006C77.3084 166.707 99.2424 234.679 99.2424 234.679H101.733H101.713Z"
        fill="url(#paint6_linear_478_26168)" />
    <path style="mix-blend-mode:screen"
        d="M302.425 232.645C304.321 198.408 276.658 169.037 240.638 167.042C204.618 165.047 173.881 191.184 171.985 225.421C170.089 259.657 197.752 289.029 233.772 291.024C269.792 293.019 300.529 266.882 302.425 232.645Z"
        fill="url(#paint7_radial_478_26168)" />
    <path style="mix-blend-mode:multiply" opacity="0.5" fill-rule="evenodd" clip-rule="evenodd"
        d="M160.003 78.8712C130.396 87.227 117.079 112.475 116.516 123.302C115.954 134.128 132.304 102.774 184.869 106.128C237.435 109.482 280.238 140.857 295.805 147.907C311.371 154.957 288.112 42.6761 160.003 78.8712Z"
        fill="url(#paint8_linear_478_26168)" />
    <g style="mix-blend-mode:soft-light" opacity="0.8">
        <path fill-rule="evenodd" clip-rule="evenodd"
            d="M115.693 158.894C110.35 156.303 104.143 168.214 108.603 172.492C113.042 176.771 123.547 162.69 115.693 158.894Z"
            fill="#EBFBFC" />
    </g>
    <path style="mix-blend-mode:screen" fill-rule="evenodd" clip-rule="evenodd"
        d="M63.5493 177.474C63.5493 177.474 86.2667 97.1094 162.011 77.7063C162.011 77.7063 87.8936 80.1769 63.5493 177.474Z"
        fill="url(#paint9_linear_478_26168)" />
    <path style="mix-blend-mode:multiply" opacity="0.74" fill-rule="evenodd" clip-rule="evenodd"
        d="M150.602 309.078C134.232 309.941 155.041 338.263 203.248 337.72C251.455 337.178 269.572 321.973 270.396 320.185C271.219 318.398 231.449 346.98 150.602 309.098V309.078Z"
        fill="url(#paint10_linear_478_26168)" />
    <path style="mix-blend-mode:screen" opacity="0.5" fill-rule="evenodd" clip-rule="evenodd"
        d="M129.552 323.399C129.552 323.399 153.194 341.256 194.631 343.023C236.069 344.791 268.427 324.363 268.427 324.363C268.427 324.363 212.508 356.923 136.522 321.511L129.552 323.399Z"
        fill="url(#paint11_linear_478_26168)" />
    <path fill-rule="evenodd" clip-rule="evenodd"
        d="M56.0374 166.828C55.9973 166.989 55.9571 167.109 55.937 167.25C55.9571 167.19 55.9772 167.029 56.0374 166.828Z"
        fill="url(#paint12_radial_478_26168)" />
    <path fill-rule="evenodd" clip-rule="evenodd"
        d="M345.377 205.634C345.377 248.819 326.797 287.666 297.15 314.581C296.849 314.842 296.608 315.083 296.387 315.264C296.226 315.425 296.066 315.565 295.905 315.666C289.518 321.35 282.648 326.492 275.357 330.992C275.357 330.992 265.133 331.755 256.456 330.108C253.865 329.606 251.414 328.923 249.406 327.898C240.688 323.54 255.391 294.114 261.397 293.571C263.446 293.37 264.872 295.258 266.097 297.709V297.749C268.186 301.927 269.753 307.852 273.027 308.736H273.047C273.469 308.857 273.951 308.897 274.473 308.796C278.993 308.053 298.617 303.092 310.025 283.548C310.025 283.548 314.665 282.383 316.594 277.382C318.381 272.802 316.975 267.138 316.714 266.174C316.714 266.114 316.694 266.094 316.694 266.094V266.053C317.839 260.57 318.442 254.424 318.321 247.534C318 230.441 293.073 185.006 275.538 187.517C275.538 187.517 275.531 187.517 275.518 187.517C274.674 187.617 273.871 187.858 273.087 188.2C273.047 188.22 273.027 188.22 273.027 188.22C269.592 189.706 266.539 193.402 264.129 199.89C253.021 229.858 232.955 241.89 227.733 245.766C226.026 247.012 225.925 247.413 228.195 247.273C248.924 246.048 234.181 289.755 230.364 296.283C226.548 302.831 241.813 308.274 218.373 320.788C214.978 322.596 210.941 324.283 206.341 325.789C204.574 326.372 202.726 326.934 200.797 327.436C173.239 334.868 131.28 335.471 100.407 315.726C90.9669 307.37 82.591 297.769 75.5408 287.244C75.5408 287.244 75.5408 287.224 75.5207 287.204L73.0099 283.307C58.9497 260.751 50.855 234.116 50.855 205.594C50.855 192.358 52.6025 179.502 55.8966 167.31L61.8822 175.244C61.9827 175.425 62.1233 175.586 62.2438 175.746C63.0271 176.731 63.5293 177.454 63.5293 177.454C63.5293 177.454 58.2065 219.775 70.1979 223.591C70.7804 223.792 71.3629 223.933 71.9454 224.073C72.5278 224.194 73.0903 224.314 73.6326 224.395H73.6527C74.2151 224.455 74.7574 224.515 75.2997 224.576C76.1232 224.636 76.9468 224.636 77.7301 224.616C78.0314 224.616 78.2925 224.596 78.5738 224.576C79.1562 224.535 79.6986 224.475 80.2409 224.395C80.9439 224.294 81.6469 224.174 82.2897 224.053C82.4504 224.013 82.6111 223.973 82.7717 223.973C82.7717 223.973 82.7851 223.966 82.8119 223.953C82.9324 223.933 83.073 223.913 83.1935 223.873C83.2136 223.873 83.2337 223.853 83.2337 223.853C83.294 223.853 83.3341 223.832 83.4145 223.832C83.6756 223.772 83.9166 223.732 84.0974 223.652C84.1175 223.652 84.1376 223.632 84.1376 223.632C84.2179 223.611 84.3184 223.591 84.3987 223.591C84.4791 223.571 84.5795 223.531 84.6598 223.511C84.7201 223.491 84.7803 223.491 84.8406 223.471C84.941 223.451 85.0214 223.431 85.0214 223.431C88.7373 222.467 90.9267 221.703 90.9267 224.435C90.9267 227.006 89.5809 230.903 90.4647 234.679C90.7258 235.804 91.1677 236.908 91.9109 237.933C93.1964 240.805 94.9841 244.581 95.5264 244.983C96.129 245.445 97.5752 244.401 98.479 243.637C98.4991 243.617 98.5192 243.617 98.5192 243.597C98.7402 243.336 98.941 243.135 99.2021 242.995H99.2222C99.2222 242.995 99.2423 242.974 99.2624 242.995C101.291 243.718 103.722 244.38 106.674 244.842C115.833 246.329 135.719 245.083 155.764 240.444L156.267 240.323C157.894 239.962 159.501 239.54 161.127 239.118L161.991 238.897C172.597 236.045 182.941 232.248 191.518 227.408H191.538C193.526 226.283 195.374 225.098 197.122 223.873C206.02 217.606 211.965 209.832 212.367 200.452C214.014 164.518 208.008 149.795 208.571 144.894C208.651 144.171 208.932 143.327 209.394 142.444V142.404C211.865 137.402 218.915 130.733 218.915 130.733C218.915 130.733 214.356 125.732 215.259 122.8C215.259 122.8 215.259 122.779 215.28 122.759C215.32 122.498 215.46 122.257 215.641 122.016C215.902 121.695 216.485 121.233 217.268 120.63C217.268 120.63 217.288 120.63 217.308 120.61C222.049 116.995 233.678 108.619 222.551 98.877L223.013 93.4136L215.922 94.3777H215.902C215.902 94.3777 215.581 94.1969 215.139 94.0162C213.251 92.9717 211.061 91.9473 208.591 90.9631C172.958 76.3806 151.787 76.3203 151.406 76.3203V65.9559C166.089 61.0148 181.776 58.3634 198.126 58.3634C226.769 58.3634 253.483 66.5384 276.06 80.679C276.08 80.6991 276.1 80.7192 276.12 80.7192H276.14L276.18 80.7393C317.759 106.791 345.377 152.969 345.377 205.614V205.634Z"
        fill="url(#paint13_radial_478_26168)" />
    <g style="mix-blend-mode:multiply" opacity="0.8">
        <path fill-rule="evenodd" clip-rule="evenodd"
            d="M218.935 130.713C239.082 118.2 258.826 123.442 297.914 139.973C337.001 156.524 301.991 178.237 277.486 182.736C252.981 187.235 243.179 188.039 232.132 203.565C221.084 219.092 196.499 224.274 196.499 224.274L191.478 227.408C191.478 227.408 215.581 222.366 233.357 204.791C251.133 187.215 266.037 183.138 286.063 183.761C306.089 184.383 333.044 199.89 337.744 203.786C342.444 207.663 344.312 223.571 344.312 223.571L345.397 210.937C345.397 210.937 340.597 207.864 337.142 197.66C333.667 187.456 324.467 191.333 306.711 187.035C288.935 182.736 298.958 179.482 315.489 163.554C332.04 147.626 335.254 151.804 335.254 151.804L334.229 149.273C334.229 149.273 328.043 150.739 316.513 161.204C316.513 161.204 315.388 148.329 314.163 143.85C312.938 139.35 276.683 126.535 253.182 123.804C229.701 121.072 218.935 130.733 218.935 130.733V130.713Z"
            fill="#B3DBE0" />
    </g>
    <g style="mix-blend-mode:multiply" opacity="0.8">
        <path fill-rule="evenodd" clip-rule="evenodd"
            d="M276.12 80.7191C274.875 80.3174 252.017 72.8856 238.801 79.2529C225.182 85.7808 222.551 98.8769 222.551 98.8769L223.013 93.4135L215.922 94.3777C215.922 94.3777 212.126 90.1395 213.07 87.227C214.014 84.3346 219.739 80.5986 238.539 76.6818C256.396 72.9458 274.313 79.9559 276.08 80.679C276.1 80.6991 276.12 80.7191 276.14 80.7191H276.12Z"
            fill="#B3DBE0" />
    </g>
    <path fill-rule="evenodd" clip-rule="evenodd"
        d="M99.2225 242.995C99.2225 242.995 98.881 243.316 98.5396 243.597C98.7605 243.336 98.9614 243.135 99.2225 242.995Z"
        fill="#D2F0F6" />
    <g style="mix-blend-mode:multiply" opacity="0.8">
        <path fill-rule="evenodd" clip-rule="evenodd"
            d="M206.341 325.829L200.798 327.477C200.798 327.477 135.859 331.715 150.844 307.491C150.844 307.491 140.821 310.022 118.766 290.819C96.7116 271.617 79.5381 273.023 76.0833 274.269C72.749 275.454 75.3602 286.38 75.5409 287.244L73.0302 283.347C73.0302 283.347 72.8092 274.269 74.0345 270.392C75.2396 266.515 100.99 277.02 105.871 279.732C110.792 282.444 95.1248 256.312 92.2726 247.735C89.4003 239.158 90.4649 234.699 90.4649 234.699C90.4649 234.699 91.0875 236.145 91.9111 237.953C93.1966 240.825 94.9842 244.601 95.5266 245.003C96.1291 245.465 97.5753 244.421 98.4792 243.657C94.9039 248.297 97.8164 269.669 121.679 290.9C150.582 316.63 187.039 294.174 198.749 272.642C210.459 251.129 179.687 253.319 166.892 252.495C154.077 251.672 155.785 240.464 155.785 240.464L156.287 240.343L161.148 239.138L162.011 238.917C162.011 238.917 156.146 250.165 166.491 251.812C176.835 253.459 227.733 245.827 227.733 245.827L228.195 247.333C228.195 247.333 197.122 250.949 191.498 252.094C185.894 253.238 197.021 254.403 200.838 260.269C204.634 266.114 198.247 289.273 165.828 303.152C133.429 317.032 165.707 332.679 206.361 325.85L206.341 325.829Z"
            fill="#B3DBE0" />
    </g>
    <g style="mix-blend-mode:multiply" opacity="0.8">
        <path fill-rule="evenodd" clip-rule="evenodd"
            d="M232.855 290.619C232.855 290.619 227.512 296.604 204.072 305.302C180.652 314.019 163.357 313.738 163.357 313.738C163.357 313.738 176.152 315.204 190.353 315.204C204.554 315.204 201.38 308.355 210.158 304.378C218.936 300.401 225.564 300.561 228.175 298.05C230.766 295.54 232.855 290.619 232.855 290.619Z"
            fill="#D2F0F6" />
    </g>
    <g style="mix-blend-mode:multiply" opacity="0.8">
        <path fill-rule="evenodd" clip-rule="evenodd"
            d="M317.719 289.674C311.572 300.481 300.927 311.006 297.15 314.581C296.849 314.842 296.608 315.083 296.387 315.264C296.086 315.545 295.885 315.746 295.805 315.806C295.845 315.766 295.865 315.726 295.905 315.686C311.592 298.291 310.006 283.608 310.006 283.608C310.006 283.608 314.645 282.444 316.574 277.442C318.422 272.682 316.835 266.736 316.674 266.154C317.297 266.917 324.929 276.96 317.678 289.695L317.719 289.674Z"
            fill="#D2F0F6" />
    </g>
    <g style="mix-blend-mode:soft-light">
        <path fill-rule="evenodd" clip-rule="evenodd"
            d="M151.406 76.3202V65.9558C151.406 65.9558 187.34 69.2298 199.853 75.5971C212.387 81.9644 215.902 94.3776 215.902 94.3776C215.902 94.3776 185.592 79.5139 151.386 76.3001L151.406 76.3202Z"
            fill="#D7F2F7" />
    </g>
    <g style="mix-blend-mode:soft-light">
        <path fill-rule="evenodd" clip-rule="evenodd"
            d="M233.638 106.349C233.759 113.359 218.292 120.188 217.308 120.61C222.048 116.995 233.678 108.619 222.551 98.877C222.551 98.877 225.584 91.646 227.351 91.646C229.119 91.646 233.477 99.118 233.618 106.349H233.638Z"
            fill="#D7F2F7" />
    </g>
    <g style="mix-blend-mode:soft-light">
        <path fill-rule="evenodd" clip-rule="evenodd"
            d="M226.327 126.937L218.935 130.733C218.935 130.733 214.376 125.732 215.28 122.8C215.28 122.8 215.28 122.779 215.3 122.759C215.641 122.579 219.357 120.731 222.471 122.157C225.724 123.663 226.327 126.937 226.327 126.937Z"
            fill="#D7F2F7" />
    </g>
    <g style="mix-blend-mode:soft-light">
        <path fill-rule="evenodd" clip-rule="evenodd"
            d="M205.578 221.583C203.83 222.185 197.122 223.873 197.122 223.873C206.02 217.606 211.965 209.832 212.367 200.452C214.014 164.518 208.008 149.795 208.571 144.894C208.651 144.171 208.932 143.328 209.394 142.444V142.404C209.394 142.404 216.967 181.531 218.815 197.881C220.642 214.231 207.325 220.98 205.578 221.603V221.583Z"
            fill="#D7F2F7" />
    </g>
    <g style="mix-blend-mode:soft-light">
        <path fill-rule="evenodd" clip-rule="evenodd"
            d="M194.008 229.858C191.839 232.027 163.719 250.948 161.148 249.482C158.577 247.996 161.148 239.118 161.148 239.118L162.011 238.897C172.617 236.045 182.961 232.248 191.538 227.408H192.1C192.1 227.408 196.198 227.689 194.028 229.858H194.008Z"
            fill="#D7F2F7" />
    </g>
    <g style="mix-blend-mode:soft-light">
        <path fill-rule="evenodd" clip-rule="evenodd"
            d="M155.805 240.444C155.805 240.444 153.435 251.913 141.845 253.138C130.255 254.363 100.448 254.504 98.8808 252.194C97.3141 249.884 99.2223 242.995 99.2223 242.995H99.2825C101.311 243.718 103.742 244.38 106.694 244.842C115.854 246.329 135.739 245.083 155.785 240.444H155.805Z"
            fill="#D7F2F7" />
    </g>
    <g style="mix-blend-mode:soft-light">
        <path fill-rule="evenodd" clip-rule="evenodd"
            d="M85.0214 223.411C85.0214 223.411 62.4045 230.139 57.7043 217.485C53.0042 204.811 54.8119 171.709 56.0372 170.283C56.921 169.279 60.3557 173.316 62.2639 175.766C63.0472 176.751 63.5494 177.474 63.5494 177.474C63.5494 177.474 58.2266 219.795 70.218 223.611C76.1835 225.5 81.3456 224.375 85.0013 223.411H85.0214Z"
            fill="#D7F2F7" />
    </g>
    <g style="mix-blend-mode:soft-light">
        <path fill-rule="evenodd" clip-rule="evenodd"
            d="M322.841 263.362C322.841 263.362 321.676 270.03 320.832 271.396C320.029 272.662 317.116 266.937 316.735 266.194C316.735 266.134 316.714 266.114 316.714 266.114V266.073C317.859 260.59 318.462 254.444 318.341 247.554C318.02 230.461 293.093 185.026 275.558 187.537C279.354 186.633 286.646 185.488 292.049 188.24C299.681 192.137 322.68 232.027 323.925 243.898C325.151 255.729 322.841 263.362 322.841 263.362Z"
            fill="#D7F2F7" />
    </g>
    <g style="mix-blend-mode:soft-light">
        <path fill-rule="evenodd" clip-rule="evenodd"
            d="M266.097 297.769C266.097 297.769 242.536 318.779 256.456 330.108C253.865 329.606 251.414 328.923 249.406 327.898C240.688 323.54 255.391 294.114 261.397 293.571C263.446 293.37 264.872 295.258 266.097 297.709V297.749V297.769Z"
            fill="#D7F2F7" />
    </g>
    <g style="mix-blend-mode:soft-light">
        <path fill-rule="evenodd" clip-rule="evenodd"
            d="M307.776 296.544C303.759 302.69 292.068 310.202 285.119 311.026C278.47 311.809 273.509 309.138 273.027 308.776C273.449 308.897 273.931 308.937 274.453 308.837C278.972 308.093 298.596 303.132 310.005 283.588C310.005 283.588 311.773 290.398 307.756 296.544H307.776Z"
            fill="#D7F2F7" />
    </g>
    <g style="mix-blend-mode:soft-light">
        <path fill-rule="evenodd" clip-rule="evenodd"
            d="M226.327 126.937C226.327 126.937 254.106 127.821 259.911 127.821C265.715 127.821 286.143 135.152 286.143 135.152C286.143 135.152 265.535 126.495 254.086 124.446C242.657 122.398 226.327 126.937 226.327 126.937Z"
            fill="#D7F2F7" />
    </g>
    <g style="mix-blend-mode:soft-light">
        <path fill-rule="evenodd" clip-rule="evenodd"
            d="M237.234 201.155C237.234 201.155 247.197 192.88 250.832 191.132C258.485 187.437 268.568 185.629 272.103 184.785C275.638 183.942 276.402 183.901 276.402 183.901C276.402 183.901 265.696 184.243 254.568 189.284C243.44 194.326 237.234 201.155 237.234 201.155Z"
            fill="#D7F2F7" />
    </g>
    <g style="mix-blend-mode:soft-light">
        <path fill-rule="evenodd" clip-rule="evenodd"
            d="M226.327 90.2801C226.327 90.2801 236.631 80.4379 245.308 78.5699C253.985 76.7019 263.044 77.6058 263.044 77.6058C263.044 77.6058 254.487 74.6933 242.757 77.8067C231.027 80.92 226.347 90.26 226.347 90.26L226.327 90.2801Z"
            fill="#D7F2F7" />
    </g>
    <g style="mix-blend-mode:soft-light">
        <path fill-rule="evenodd" clip-rule="evenodd"
            d="M189.951 252.696C189.951 252.696 198.508 250.908 208.852 249.643C219.196 248.378 225.564 247.614 225.564 247.614C225.564 247.614 219.116 250.808 211.905 251.772C204.694 252.716 189.951 252.716 189.951 252.716V252.696Z"
            fill="#D7F2F7" />
    </g>
    <g style="mix-blend-mode:soft-light">
        <path fill-rule="evenodd" clip-rule="evenodd"
            d="M107.679 282.524C107.679 282.524 119.469 292.647 127.745 300.2C136.02 307.752 143.974 308.877 147.449 308.676C150.924 308.475 151.426 307.25 151.426 307.25C151.426 307.25 149.498 307.23 140.901 305.522C132.304 303.815 115.934 287.003 107.659 282.524H107.679Z"
            fill="#D7F2F7" />
    </g>
    <g style="mix-blend-mode:soft-light">
        <path fill-rule="evenodd" clip-rule="evenodd"
            d="M157.974 307.31C157.974 307.31 170.729 303.172 174.826 300.099C178.904 297.026 180.812 295.299 188.666 289.373C196.519 283.448 200.235 271.999 200.235 271.999C200.235 271.999 198.166 281.56 184.327 292.045C170.488 302.53 157.974 307.33 157.974 307.33V307.31Z"
            fill="#D7F2F7" />
    </g>
    <g style="mix-blend-mode:soft-light">
        <path fill-rule="evenodd" clip-rule="evenodd"
            d="M305.225 187.657C305.225 187.657 328.445 197.399 332.422 201.155C336.399 204.911 340.978 209.129 340.978 209.129C340.978 209.129 339.371 204.349 333.908 201.155C328.445 197.961 311.833 191.212 305.225 187.657Z"
            fill="#D7F2F7" />
    </g>
    <g style="mix-blend-mode:soft-light">
        <path fill-rule="evenodd" clip-rule="evenodd"
            d="M300.244 177.333C300.244 177.333 307.093 171.83 314.746 165.904C322.399 159.979 327.099 153.953 327.099 153.953C327.099 153.953 322.137 158.593 316.815 162.269C311.492 165.945 300.244 177.333 300.244 177.333Z"
            fill="#D7F2F7" />
    </g>
    <g style="mix-blend-mode:multiply" opacity="0.3">
        <path fill-rule="evenodd" clip-rule="evenodd"
            d="M260.513 131.677C249.486 131.959 234.522 165.382 233.618 180.085C232.714 194.788 264.169 185.267 288.493 175.344C312.818 165.422 311.773 154.756 306.069 146.38C300.344 138.004 268.287 131.477 260.513 131.677Z"
            fill="#D2F0F6" />
    </g>
    <g style="mix-blend-mode:multiply" opacity="0.3">
        <path fill-rule="evenodd" clip-rule="evenodd"
            d="M278.952 83.7121C272.083 79.735 266.519 108.559 264.972 117.658C263.426 126.757 297.512 130.111 308.117 138.909C318.743 147.686 321.796 140.134 322.017 136.659C322.218 133.184 300.766 96.3261 278.972 83.7121H278.952Z"
            fill="#D2F0F6" />
    </g>
    <g style="mix-blend-mode:multiply" opacity="0.3">
        <path fill-rule="evenodd" clip-rule="evenodd"
            d="M170.227 307.31C164.743 304.9 194.33 293.25 203.529 277.944C212.729 262.619 204.353 261.193 209.856 258.742C215.38 256.292 231.308 258.943 234.582 268.343C237.856 277.743 223.595 297.709 200.235 305.101C176.875 312.492 170.227 307.31 170.227 307.31Z"
            fill="#D2F0F6" />
    </g>
    <g style="mix-blend-mode:multiply" opacity="0.3">
        <path fill-rule="evenodd" clip-rule="evenodd"
            d="M112.017 276.297C110.591 266.094 168.881 273.023 177.317 279.571C185.753 286.099 163.819 303.474 144.657 300.822C125.495 298.151 112.017 276.317 112.017 276.317V276.297Z"
            fill="#D2F0F6" />
    </g>
    <g style="mix-blend-mode:multiply" opacity="0.3">
        <path fill-rule="evenodd" clip-rule="evenodd"
            d="M78.1116 288.77C72.1862 278.506 113.403 290.116 129.552 302.931C145.721 315.746 157.974 327.778 157.974 327.778C157.974 327.778 106.092 337.198 78.1116 288.791V288.77Z"
            fill="#D2F0F6" />
    </g>
    <g style="mix-blend-mode:soft-light">
        <path fill-rule="evenodd" clip-rule="evenodd"
            d="M338.588 161.305C335.896 154.355 340.054 181.451 338.588 189.566C337.122 197.68 345.337 209.129 345.337 209.129C345.337 209.129 345.176 178.378 338.588 161.305Z"
            fill="#D6F3F7" />
    </g>
    <g style="mix-blend-mode:soft-light">
        <path fill-rule="evenodd" clip-rule="evenodd"
            d="M344.292 223.591C344.292 223.591 341.641 208.085 335.575 205.634C329.489 203.184 327.822 236.587 327.299 252.716C326.777 268.825 327.299 276.398 327.299 276.398C327.299 276.398 343.73 249.743 344.292 223.591Z"
            fill="#D6F3F7" />
    </g>
    <g style="mix-blend-mode:soft-light">
        <path fill-rule="evenodd" clip-rule="evenodd"
            d="M305.225 104.561C305.225 104.561 322.439 130.191 323.102 140.274C323.785 150.358 333.506 147.586 333.506 147.586C333.506 147.586 324.869 125.672 305.225 104.561Z"
            fill="#D6F3F7" />
    </g>
    <g style="mix-blend-mode:soft-light">
        <path fill-rule="evenodd" clip-rule="evenodd"
            d="M230.083 126.174C230.083 126.174 240.568 128.644 245.871 127.52C251.173 126.395 254.729 125.17 254.729 125.17C254.729 125.17 246.152 122.438 230.083 126.194V126.174Z"
            fill="#D7F2F7" />
    </g>
    <g style="mix-blend-mode:multiply" opacity="0.3">
        <path fill-rule="evenodd" clip-rule="evenodd"
            d="M188.967 249.563C185.432 246.751 218.494 221.623 235.044 209.129C251.595 196.636 263.024 195.31 263.024 195.31C263.024 195.31 247.578 224.455 235.044 236.949C222.511 249.442 188.967 249.583 188.967 249.583V249.563Z"
            fill="#D2F0F6" />
    </g>
    <g style="mix-blend-mode:soft-light">
        <path fill-rule="evenodd" clip-rule="evenodd"
            d="M309.463 169.078C309.463 169.078 313.34 167.15 316.011 164.9C318.683 162.65 321.073 159.678 321.073 159.678C321.073 159.678 313.3 165.121 309.463 169.078Z"
            fill="#D7F2F7" />
    </g>
    <g style="mix-blend-mode:soft-light">
        <path fill-rule="evenodd" clip-rule="evenodd"
            d="M172.978 60.5125C172.978 60.5125 203.047 69.4709 218.995 73.468C234.944 77.4652 264.209 75.5972 264.209 75.5972C264.209 75.5972 230.866 52.8396 172.978 60.4924V60.5125Z"
            fill="#D6F3F7" />
    </g>
    <g style="mix-blend-mode:soft-light">
        <path fill-rule="evenodd" clip-rule="evenodd"
            d="M51.3574 217.686C51.3574 217.686 65.4578 245.465 68.9327 255.669C72.4076 265.873 70.7204 278.346 70.7204 278.346C70.7204 278.346 54.0088 256.914 51.3775 217.686H51.3574Z"
            fill="#D6F3F7" />
    </g>
    <path fill-rule="evenodd" clip-rule="evenodd"
        d="M113.544 131.588C105.63 127.752 96.4503 145.388 103.039 151.715C109.627 158.062 125.153 137.213 113.544 131.588Z"
        fill="white" />
    <g style="mix-blend-mode:screen">
        <path
            d="M240.367 333.694C302.356 333.694 352.608 285.933 352.608 227.017C352.608 168.101 302.356 120.34 240.367 120.34C178.378 120.34 128.126 168.101 128.126 227.017C128.126 285.933 178.378 333.694 240.367 333.694Z"
            fill="url(#paint14_radial_478_26168)" />
    </g>
    <path fill-rule="evenodd" clip-rule="evenodd"
        d="M184.769 188.693C184.769 195.201 179.506 200.464 172.998 200.464C166.491 200.464 161.228 195.201 161.228 188.693C161.228 182.185 166.491 176.923 172.998 176.923C179.506 176.923 184.769 182.185 184.769 188.693Z"
        fill="url(#paint15_radial_478_26168)" />
    <path fill-rule="evenodd" clip-rule="evenodd"
        d="M177.859 188.693C177.859 191.385 175.69 193.554 172.999 193.554C170.307 193.554 168.138 191.385 168.138 188.693C168.138 186.001 170.307 183.832 172.999 183.832C175.69 183.832 177.859 186.001 177.859 188.693Z"
        fill="url(#paint16_radial_478_26168)" />
    <path fill-rule="evenodd" clip-rule="evenodd"
        d="M175.569 188.693C175.569 190.119 174.424 191.264 172.998 191.264C171.572 191.264 170.427 190.119 170.427 188.693C170.427 187.267 171.572 186.122 172.998 186.122C174.424 186.122 175.569 187.267 175.569 188.693Z"
        fill="url(#paint17_radial_478_26168)" />
    <path style="mix-blend-mode:screen" fill-rule="evenodd" clip-rule="evenodd"
        d="M183.684 147.296C183.684 151.192 180.53 154.346 176.634 154.346C172.737 154.346 169.583 151.192 169.583 147.296C169.583 143.399 172.737 140.245 176.634 140.245C180.53 140.245 183.684 143.399 183.684 147.296Z"
        fill="url(#paint18_radial_478_26168)" />
    <path style="mix-blend-mode:screen" fill-rule="evenodd" clip-rule="evenodd"
        d="M179.546 147.296C179.546 148.903 178.241 150.208 176.634 150.208C175.027 150.208 173.721 148.903 173.721 147.296C173.721 145.689 175.027 144.383 176.634 144.383C178.241 144.383 179.546 145.689 179.546 147.296Z"
        fill="url(#paint19_radial_478_26168)" />
    <path
        d="M176.634 148.842C177.488 148.842 178.18 148.15 178.18 147.296C178.18 146.441 177.488 145.749 176.634 145.749C175.779 145.749 175.087 146.441 175.087 147.296C175.087 148.15 175.779 148.842 176.634 148.842Z"
        fill="url(#paint20_radial_478_26168)" />
    <path fill-rule="evenodd" clip-rule="evenodd"
        d="M132.003 231.436C132.003 234.168 129.773 236.397 127.041 236.397C124.31 236.397 122.08 234.168 122.08 231.436C122.08 228.705 124.31 226.475 127.041 226.475C129.773 226.475 132.003 228.705 132.003 231.436Z"
        fill="url(#paint21_radial_478_26168)" />
    <path
        d="M127.041 233.485C128.173 233.485 129.09 232.568 129.09 231.436C129.09 230.305 128.173 229.387 127.041 229.387C125.91 229.387 124.993 230.305 124.993 231.436C124.993 232.568 125.91 233.485 127.041 233.485Z"
        fill="url(#paint22_radial_478_26168)" />
    <g style="mix-blend-mode:screen">
        <path fill-rule="evenodd" clip-rule="evenodd"
            d="M128.126 231.436C128.126 232.039 127.644 232.521 127.042 232.521C126.439 232.521 125.957 232.039 125.957 231.436C125.957 230.834 126.439 230.351 127.042 230.351C127.644 230.351 128.126 230.834 128.126 231.436Z"
            fill="url(#paint23_radial_478_26168)" />
    </g>
    <path fill-rule="evenodd" clip-rule="evenodd"
        d="M160.023 209.422C160.023 211.631 158.235 213.419 156.025 213.419C153.816 213.419 152.028 211.631 152.028 209.422C152.028 207.212 153.816 205.425 156.025 205.425C158.235 205.425 160.023 207.212 160.023 209.422Z"
        fill="url(#paint24_radial_478_26168)" />
    <path style="mix-blend-mode:screen" fill-rule="evenodd" clip-rule="evenodd"
        d="M157.693 209.422C157.693 210.326 156.949 211.069 156.045 211.069C155.142 211.069 154.398 210.326 154.398 209.422C154.398 208.518 155.142 207.775 156.045 207.775C156.949 207.775 157.693 208.518 157.693 209.422Z"
        fill="url(#paint25_radial_478_26168)" />
    <g style="mix-blend-mode:screen">
        <path fill-rule="evenodd" clip-rule="evenodd"
            d="M156.909 209.422C156.909 209.904 156.528 210.306 156.025 210.306C155.523 210.306 155.142 209.924 155.142 209.422C155.142 208.92 155.543 208.538 156.025 208.538C156.507 208.538 156.909 208.92 156.909 209.422Z"
            fill="url(#paint26_radial_478_26168)" />
    </g>
    <path
        d="M162.032 151.514C163.141 151.514 164.04 150.614 164.04 149.505C164.04 148.396 163.141 147.496 162.032 147.496C160.922 147.496 160.023 148.396 160.023 149.505C160.023 150.614 160.922 151.514 162.032 151.514Z"
        fill="url(#paint27_radial_478_26168)" />
    <path style="mix-blend-mode:screen" fill-rule="evenodd" clip-rule="evenodd"
        d="M162.855 149.505C162.855 149.967 162.494 150.329 162.032 150.329C161.57 150.329 161.208 149.967 161.208 149.505C161.208 149.043 161.57 148.682 162.032 148.682C162.494 148.682 162.855 149.043 162.855 149.505Z"
        fill="url(#paint28_radial_478_26168)" />
    <path style="mix-blend-mode:screen" fill-rule="evenodd" clip-rule="evenodd"
        d="M162.453 149.505C162.453 149.746 162.252 149.947 162.011 149.947C161.77 149.947 161.569 149.746 161.569 149.505C161.569 149.264 161.77 149.063 162.011 149.063C162.252 149.063 162.453 149.264 162.453 149.505Z"
        fill="url(#paint29_radial_478_26168)" />
    <path fill-rule="evenodd" clip-rule="evenodd"
        d="M100.488 207.775C100.488 209.583 99.0212 211.049 97.2135 211.049C95.4057 211.049 93.9395 209.583 93.9395 207.775C93.9395 205.967 95.4057 204.501 97.2135 204.501C99.0212 204.501 100.488 205.967 100.488 207.775Z"
        fill="url(#paint30_radial_478_26168)" />
    <path style="mix-blend-mode:screen" fill-rule="evenodd" clip-rule="evenodd"
        d="M98.5593 207.775C98.5593 208.518 97.9568 209.141 97.1935 209.141C96.4302 209.141 95.8276 208.538 95.8276 207.775C95.8276 207.012 96.4302 206.409 97.1935 206.409C97.9568 206.409 98.5593 207.012 98.5593 207.775Z"
        fill="url(#paint31_radial_478_26168)" />
    <path style="mix-blend-mode:screen" fill-rule="evenodd" clip-rule="evenodd"
        d="M97.9164 207.775C97.9164 208.176 97.595 208.498 97.1933 208.498C96.7916 208.498 96.4702 208.176 96.4702 207.775C96.4702 207.373 96.7916 207.052 97.1933 207.052C97.595 207.052 97.9164 207.373 97.9164 207.775Z"
        fill="url(#paint32_radial_478_26168)" />
    <g filter="url(#filter0_b_478_26168)">
        <path fill-rule="evenodd" clip-rule="evenodd"
            d="M335.595 205.224C337.905 243.247 321.254 271.849 316.353 279.683C290.743 320.739 243.199 343.938 198.146 342.673C131.882 340.805 60.6973 285.729 60.6973 205.224C60.6973 129.318 122.241 67.7748 198.146 67.7748C282.026 67.7748 331.98 145.588 335.595 205.224Z"
            fill="white" fill-opacity="0.1" />
        <g style="mix-blend-mode:multiply" opacity="0.74">
            <path fill-rule="evenodd" clip-rule="evenodd"
                d="M73.7932 167.683C63.2882 204.139 78.5335 210.125 137.366 214.484C196.198 218.842 209.957 143.68 195.455 119.155C180.952 94.6501 134.413 124.157 121.739 137.172C109.064 150.188 141.865 173.548 155.423 177.405C168.981 181.261 176.754 165.072 181.294 161.717C185.853 158.363 181.495 184.415 152.089 188.552C122.683 192.69 83.6756 178.248 115.974 133.717C148.272 89.1867 202.786 107.746 212.046 115.198C221.305 122.65 201.119 134.4 206.281 152.92C211.463 171.439 318.642 154.547 323.343 142.837C328.023 131.126 273.83 47.95 171.03 75.1867C83.0127 98.4865 73.8133 167.663 73.8133 167.663L73.7932 167.683Z"
                fill="white" fill-opacity="0.1" />
        </g>
        <g style="mix-blend-mode:multiply" opacity="0.5">
            <path fill-rule="evenodd" clip-rule="evenodd"
                d="M89.1591 131.428C59.6928 174.653 71.5838 205.887 89.1591 222.016C106.734 238.165 134.493 187.448 207.767 192.108C281.041 196.768 223.495 161.838 150.622 184.234C77.7502 206.63 132.404 173.387 162.051 168.667C191.698 163.947 207.024 144.865 194.671 123.775C182.318 102.684 135.819 112.828 121.457 144.343C117.922 152.096 98.2982 147.195 119.549 125.824C140.8 104.452 179.828 99.9327 215.179 109.534C250.551 119.135 246.192 93.003 240.729 75.8294C235.285 58.6759 136.12 62.5124 89.1591 131.408V131.428Z"
                fill="white" fill-opacity="0.1" />
        </g>
        <g style="mix-blend-mode:screen" opacity="0.84">
            <path fill-rule="evenodd" clip-rule="evenodd"
                d="M216.505 230.914C252.359 183.671 290.723 196.506 306.229 237.783C321.756 279.04 248.582 330.721 168.74 317.746C88.8982 304.79 184.387 280.446 205.879 273.215C227.392 265.964 218.674 290.409 220.02 296.716C221.366 303.023 175.891 304.931 175.891 298.805C175.891 292.678 192.502 281.209 202.304 281.209C212.106 281.209 197.403 285.307 201.762 288.721C206.12 292.116 206.341 285.287 208.953 281.209C211.564 277.132 176.714 281.229 161.188 298.805C145.661 316.36 222.25 315.476 247.518 294.305C288.092 260.28 238.881 280.828 210.459 265.743C174.746 246.782 216.465 230.934 216.465 230.934L216.505 230.914Z"
                fill="white" fill-opacity="0.1" />
        </g>
        <g style="mix-blend-mode:screen">
            <path fill-rule="evenodd" clip-rule="evenodd"
                d="M200.255 304.69C214.577 316.601 267.062 312.765 291.747 274.942C316.433 237.12 299.661 243.628 293.475 237.08C287.288 230.552 292.109 200.383 275.558 226.053C268.689 236.719 281.905 203.717 241.572 197.25C201.24 190.782 138.551 193.694 112.017 224.788C85.4835 255.881 113.263 275.927 160.927 282.113C208.591 288.3 214.657 280.326 215.159 257.488C215.661 234.65 192.964 232.199 179.125 241.72C165.285 251.261 177.98 265.683 179.125 270.724C180.27 275.766 188.244 271.407 189.971 270.724C191.699 270.041 186.597 265.422 189.971 262.69C193.346 259.958 199.05 272.633 197.142 277.875C195.234 283.117 154.118 280.245 134.232 273.858C114.347 267.47 117.22 237.643 151.466 219.666C185.713 201.689 216.304 208.196 232.875 226.997C249.446 245.798 244.485 247.726 244.204 260.26C243.922 272.793 271.561 277.734 278.591 240.535C280.158 232.239 290.884 238.687 295.845 249.152C300.806 259.617 283.01 292.176 260.895 300.673C238.78 309.169 216.766 313.608 213.773 305.172C210.78 296.736 200.255 304.69 200.255 304.69Z"
                fill="white" fill-opacity="0.1" />
        </g>
        <g style="mix-blend-mode:screen" opacity="0.5">
            <path fill-rule="evenodd" clip-rule="evenodd"
                d="M101.733 234.268C99.1218 203.315 91.3485 187.628 188.726 182.727C286.103 177.826 322.137 204.059 319.386 240.535C316.634 277.011 340.737 213.74 329.69 165.232C318.642 116.704 238.579 105.275 207.787 112.627C177.016 119.978 195.676 126.486 191.518 130.323C187.36 134.139 167.756 118.894 122.542 142.595C77.3284 166.297 99.2624 234.268 99.2624 234.268H101.753H101.733Z"
                fill="white" fill-opacity="0.1" />
        </g>
        <g style="mix-blend-mode:screen">
            <path
                d="M302.445 232.234C304.341 197.998 276.678 168.626 240.658 166.631C204.638 164.636 173.901 190.773 172.005 225.01C170.109 259.247 197.772 288.618 233.792 290.613C269.812 292.608 300.549 266.471 302.445 232.234Z"
                fill="white" fill-opacity="0.1" />
        </g>
        <g style="mix-blend-mode:multiply" opacity="0.5">
            <path fill-rule="evenodd" clip-rule="evenodd"
                d="M160.023 78.4605C130.416 86.8163 117.099 112.065 116.536 122.891C115.974 133.717 132.324 102.363 184.889 105.717C237.455 109.072 280.258 140.446 295.825 147.496C311.391 154.547 288.132 42.2654 160.023 78.4605Z"
                fill="white" fill-opacity="0.1" />
        </g>
        <g style="mix-blend-mode:soft-light" opacity="0.8">
            <path fill-rule="evenodd" clip-rule="evenodd"
                d="M115.713 158.483C110.37 155.892 104.164 167.803 108.623 172.082C113.062 176.36 123.567 162.28 115.713 158.483Z"
                fill="white" fill-opacity="0.1" />
        </g>
        <g style="mix-blend-mode:screen">
            <path fill-rule="evenodd" clip-rule="evenodd"
                d="M63.5693 177.063C63.5693 177.063 86.2867 96.6988 162.031 77.2957C162.031 77.2957 87.9136 79.7662 63.5693 177.063Z"
                fill="white" fill-opacity="0.1" />
        </g>
        <g style="mix-blend-mode:multiply" opacity="0.74">
            <path fill-rule="evenodd" clip-rule="evenodd"
                d="M150.622 308.667C134.252 309.531 155.062 337.852 203.268 337.31C251.475 336.767 269.592 321.562 270.416 319.775C271.239 317.987 231.469 346.569 150.622 308.687V308.667Z"
                fill="white" fill-opacity="0.1" />
        </g>
        <g style="mix-blend-mode:screen" opacity="0.5">
            <path fill-rule="evenodd" clip-rule="evenodd"
                d="M129.572 322.989C129.572 322.989 153.214 340.845 194.651 342.613C236.089 344.38 268.447 323.953 268.447 323.953C268.447 323.953 212.528 356.512 136.542 321.1L129.572 322.989Z"
                fill="white" fill-opacity="0.1" />
        </g>
        <path fill-rule="evenodd" clip-rule="evenodd"
            d="M56.0575 166.418C56.0173 166.578 55.9771 166.699 55.957 166.839C55.9771 166.779 55.9972 166.618 56.0575 166.418Z"
            fill="white" fill-opacity="0.1" />
        <path fill-rule="evenodd" clip-rule="evenodd"
            d="M345.397 205.224C345.397 248.409 326.817 287.255 297.17 314.171C296.869 314.432 296.628 314.673 296.407 314.854C296.246 315.014 296.086 315.155 295.925 315.255C289.538 320.94 282.668 326.082 275.377 330.581C275.377 330.581 265.153 331.344 256.476 329.697C253.885 329.195 251.434 328.512 249.426 327.488C240.708 323.129 255.411 293.703 261.417 293.161C263.466 292.96 264.892 294.848 266.117 297.298V297.339C268.206 301.516 269.773 307.442 273.047 308.326H273.067C273.489 308.446 273.971 308.486 274.493 308.386C279.013 307.643 298.637 302.681 310.046 283.138C310.046 283.138 314.685 281.973 316.614 276.971C318.401 272.392 316.995 266.727 316.734 265.763C316.734 265.703 316.714 265.683 316.714 265.683V265.643C317.859 260.159 318.462 254.013 318.341 247.123C318.02 230.03 293.093 184.595 275.558 187.106C275.558 187.106 275.551 187.106 275.538 187.106C274.694 187.207 273.891 187.448 273.107 187.789C273.067 187.809 273.047 187.809 273.047 187.809C269.612 189.296 266.559 192.991 264.149 199.479C253.041 229.448 232.975 241.479 227.753 245.356C226.046 246.601 225.945 247.003 228.215 246.862C248.944 245.637 234.201 289.344 230.384 295.872C226.568 302.42 241.833 307.864 218.393 320.377C214.998 322.185 210.961 323.872 206.361 325.379C204.594 325.961 202.746 326.524 200.817 327.026C173.259 334.458 131.3 335.06 100.427 315.316C90.9869 306.96 82.611 297.359 75.5608 286.833C75.5608 286.833 75.5608 286.813 75.5407 286.793L73.0299 282.897C58.9697 260.34 50.875 233.706 50.875 205.184C50.875 191.947 52.6225 179.092 55.9166 166.9L61.9023 174.834C62.0027 175.014 62.1433 175.175 62.2638 175.336C63.0472 176.32 63.5493 177.043 63.5493 177.043C63.5493 177.043 58.2265 219.364 70.2179 223.181C70.8004 223.382 71.3829 223.522 71.9654 223.663C72.5479 223.783 73.1103 223.904 73.6526 223.984H73.6727C74.2351 224.044 74.7774 224.105 75.3197 224.165C76.1433 224.225 76.9668 224.225 77.7502 224.205C78.0514 224.205 78.3126 224.185 78.5938 224.165C79.1763 224.125 79.7186 224.065 80.2609 223.984C80.9639 223.884 81.6669 223.763 82.3097 223.643C82.4704 223.603 82.6311 223.562 82.7918 223.562C82.7918 223.562 82.8052 223.556 82.8319 223.542C82.9524 223.522 83.093 223.502 83.2136 223.462C83.2337 223.462 83.2537 223.442 83.2537 223.442C83.314 223.442 83.3542 223.422 83.4345 223.422C83.6956 223.362 83.9367 223.321 84.1174 223.241C84.1375 223.241 84.1576 223.221 84.1576 223.221C84.238 223.201 84.3384 223.181 84.4187 223.181C84.4991 223.161 84.5995 223.12 84.6798 223.1C84.7401 223.08 84.8004 223.08 84.8606 223.06C84.9611 223.04 85.0414 223.02 85.0414 223.02C88.7573 222.056 90.9467 221.293 90.9467 224.024C90.9467 226.595 89.6009 230.492 90.4847 234.268C90.7458 235.393 91.1877 236.498 91.9309 237.522C93.2164 240.395 95.0041 244.171 95.5464 244.572C96.149 245.034 97.5952 243.99 98.4991 243.227C98.5191 243.207 98.5392 243.207 98.5392 243.186C98.7602 242.925 98.961 242.724 99.2222 242.584H99.2422C99.2422 242.584 99.2623 242.564 99.2824 242.584C101.311 243.307 103.742 243.97 106.694 244.432C115.853 245.918 135.739 244.673 155.785 240.033L156.287 239.912C157.914 239.551 159.521 239.129 161.148 238.707L162.011 238.486C172.617 235.634 182.961 231.838 191.538 226.997H191.558C193.546 225.872 195.394 224.687 197.142 223.462C206.04 217.195 211.985 209.422 212.387 200.042C214.034 164.108 208.028 149.385 208.591 144.484C208.671 143.76 208.952 142.917 209.414 142.033V141.993C211.885 136.991 218.935 130.323 218.935 130.323C218.935 130.323 214.376 125.321 215.279 122.389C215.279 122.389 215.279 122.369 215.3 122.349C215.34 122.088 215.48 121.847 215.661 121.606C215.922 121.284 216.505 120.822 217.288 120.22C217.288 120.22 217.308 120.22 217.328 120.199C222.069 116.584 233.698 108.208 222.571 98.4664L223.033 93.0029L215.942 93.9671H215.922C215.922 93.9671 215.601 93.7863 215.159 93.6055C213.271 92.5611 211.081 91.5367 208.611 90.5524C172.978 75.97 151.807 75.9097 151.426 75.9097V65.5453C166.109 60.6041 181.796 57.9528 198.146 57.9528C226.789 57.9528 253.503 66.1278 276.08 80.2684C276.1 80.2885 276.12 80.3086 276.14 80.3086H276.16L276.201 80.3286C317.779 106.38 345.397 152.558 345.397 205.204V205.224Z"
            fill="white" fill-opacity="0.1" />
        <g style="mix-blend-mode:multiply" opacity="0.8">
            <path fill-rule="evenodd" clip-rule="evenodd"
                d="M218.955 130.303C239.102 117.789 258.846 123.032 297.934 139.562C337.021 156.113 302.011 177.826 277.506 182.326C253.001 186.825 243.199 187.628 232.152 203.155C221.104 218.681 196.519 223.864 196.519 223.864L191.498 226.997C191.498 226.997 215.601 221.955 233.377 204.38C251.153 186.805 266.057 182.727 286.083 183.35C306.109 183.973 333.064 199.479 337.764 203.376C342.464 207.252 344.332 223.161 344.332 223.161L345.417 210.526C345.417 210.526 340.617 207.453 337.162 197.25C333.687 187.046 324.487 190.922 306.731 186.624C288.955 182.326 298.978 179.072 315.509 163.143C332.06 147.215 335.274 151.393 335.274 151.393L334.249 148.862C334.249 148.862 328.063 150.328 316.533 160.793C316.533 160.793 315.409 147.918 314.183 143.439C312.958 138.94 276.703 126.125 253.202 123.393C229.721 120.661 218.955 130.323 218.955 130.323V130.303Z"
                fill="white" fill-opacity="0.1" />
        </g>
        <g style="mix-blend-mode:multiply" opacity="0.8">
            <path fill-rule="evenodd" clip-rule="evenodd"
                d="M276.14 80.3085C274.895 79.9068 252.037 72.4749 238.821 78.8422C225.202 85.3702 222.571 98.4663 222.571 98.4663L223.033 93.0029L215.942 93.967C215.942 93.967 212.146 89.7289 213.09 86.8164C214.034 83.924 219.759 80.188 238.559 76.2712C256.416 72.5352 274.333 79.5452 276.1 80.2683C276.12 80.2884 276.14 80.3085 276.161 80.3085H276.14Z"
                fill="white" fill-opacity="0.1" />
        </g>
        <path fill-rule="evenodd" clip-rule="evenodd"
            d="M99.2425 242.584C99.2425 242.584 98.901 242.905 98.5596 243.186C98.7805 242.925 98.9814 242.724 99.2425 242.584Z"
            fill="white" fill-opacity="0.1" />
        <g style="mix-blend-mode:multiply" opacity="0.8">
            <path fill-rule="evenodd" clip-rule="evenodd"
                d="M206.361 325.419L200.818 327.066C200.818 327.066 135.879 331.304 150.864 307.08C150.864 307.08 140.841 309.611 118.786 290.409C96.7317 271.207 79.5581 272.613 76.1033 273.858C72.769 275.043 75.3802 285.97 75.5609 286.833L73.0502 282.937C73.0502 282.937 72.8292 273.858 74.0545 269.981C75.2597 266.105 101.01 276.61 105.891 279.321C110.812 282.033 95.1449 255.901 92.2926 247.324C89.4203 238.747 90.4849 234.288 90.4849 234.288C90.4849 234.288 91.1076 235.735 91.9311 237.542C93.2166 240.415 95.0043 244.191 95.5466 244.592C96.1492 245.054 97.5954 244.01 98.4992 243.247C94.9239 247.887 97.8364 269.258 121.699 290.489C150.602 316.219 187.059 293.763 198.769 272.231C210.479 250.719 179.707 252.908 166.912 252.085C154.097 251.261 155.805 240.053 155.805 240.053L156.307 239.933L161.168 238.727L162.031 238.506C162.031 238.506 156.166 249.755 166.511 251.402C176.855 253.049 227.753 245.416 227.753 245.416L228.215 246.922C228.215 246.922 197.142 250.538 191.518 251.683C185.914 252.828 197.041 253.993 200.858 259.858C204.654 265.703 198.267 288.862 165.848 302.742C133.449 316.621 165.727 332.268 206.382 325.439L206.361 325.419Z"
                fill="white" fill-opacity="0.1" />
        </g>
        <g style="mix-blend-mode:multiply" opacity="0.8">
            <path fill-rule="evenodd" clip-rule="evenodd"
                d="M232.875 290.208C232.875 290.208 227.532 296.194 204.091 304.891C180.671 313.608 163.377 313.327 163.377 313.327C163.377 313.327 176.172 314.793 190.373 314.793C204.573 314.793 201.4 307.944 210.177 303.967C218.955 299.99 225.583 300.151 228.195 297.64C230.786 295.129 232.875 290.208 232.875 290.208Z"
                fill="white" fill-opacity="0.1" />
        </g>
        <g style="mix-blend-mode:multiply" opacity="0.8">
            <path fill-rule="evenodd" clip-rule="evenodd"
                d="M317.739 289.264C311.592 300.07 300.947 310.595 297.17 314.171C296.869 314.432 296.628 314.673 296.407 314.853C296.106 315.135 295.905 315.336 295.825 315.396C295.865 315.356 295.885 315.315 295.925 315.275C311.612 297.881 310.026 283.198 310.026 283.198C310.026 283.198 314.665 282.033 316.594 277.031C318.442 272.271 316.855 266.326 316.694 265.743C317.317 266.506 324.949 276.549 317.698 289.284L317.739 289.264Z"
                fill="white" fill-opacity="0.1" />
        </g>
        <g style="mix-blend-mode:soft-light">
            <path fill-rule="evenodd" clip-rule="evenodd"
                d="M151.426 75.9096V65.5452C151.426 65.5452 187.36 68.8192 199.873 75.1865C212.407 81.5538 215.922 93.9669 215.922 93.9669C215.922 93.9669 185.612 79.1033 151.406 75.8895L151.426 75.9096Z"
                fill="white" fill-opacity="0.1" />
        </g>
        <g style="mix-blend-mode:soft-light">
            <path fill-rule="evenodd" clip-rule="evenodd"
                d="M233.658 105.938C233.779 112.948 218.312 119.778 217.328 120.199C222.068 116.584 233.698 108.208 222.571 98.4663C222.571 98.4663 225.604 91.2354 227.371 91.2354C229.139 91.2354 233.497 98.7074 233.638 105.938H233.658Z"
                fill="white" fill-opacity="0.1" />
        </g>
        <g style="mix-blend-mode:soft-light">
            <path fill-rule="evenodd" clip-rule="evenodd"
                d="M226.347 126.527L218.955 130.323C218.955 130.323 214.396 125.321 215.3 122.389C215.3 122.389 215.3 122.369 215.32 122.349C215.661 122.168 219.377 120.32 222.491 121.746C225.745 123.253 226.347 126.527 226.347 126.527Z"
                fill="white" fill-opacity="0.1" />
        </g>
        <g style="mix-blend-mode:soft-light">
            <path fill-rule="evenodd" clip-rule="evenodd"
                d="M205.598 221.172C203.85 221.775 197.142 223.462 197.142 223.462C206.04 217.195 211.985 209.422 212.387 200.042C214.034 164.108 208.028 149.385 208.591 144.484C208.671 143.76 208.952 142.917 209.414 142.033V141.993C209.414 141.993 216.987 181.121 218.835 197.471C220.662 213.821 207.345 220.57 205.598 221.192V221.172Z"
                fill="white" fill-opacity="0.1" />
        </g>
        <g style="mix-blend-mode:soft-light">
            <path fill-rule="evenodd" clip-rule="evenodd"
                d="M194.028 229.447C191.859 231.617 163.739 250.538 161.168 249.072C158.597 247.585 161.168 238.707 161.168 238.707L162.031 238.486C172.637 235.634 182.981 231.838 191.558 226.997H192.12C192.12 226.997 196.218 227.278 194.048 229.447H194.028Z"
                fill="white" fill-opacity="0.1" />
        </g>
        <g style="mix-blend-mode:soft-light">
            <path fill-rule="evenodd" clip-rule="evenodd"
                d="M155.825 240.033C155.825 240.033 153.455 251.502 141.865 252.727C130.275 253.953 100.468 254.093 98.9008 251.783C97.3341 249.473 99.2423 242.584 99.2423 242.584H99.3025C101.331 243.307 103.762 243.97 106.714 244.432C115.874 245.918 135.759 244.673 155.805 240.033H155.825Z"
                fill="white" fill-opacity="0.1" />
        </g>
        <g style="mix-blend-mode:soft-light">
            <path fill-rule="evenodd" clip-rule="evenodd"
                d="M85.0414 223C85.0414 223 62.4245 229.729 57.7244 217.075C53.0242 204.4 54.832 171.298 56.0572 169.872C56.941 168.868 60.3757 172.905 62.2839 175.356C63.0673 176.34 63.5694 177.063 63.5694 177.063C63.5694 177.063 58.2466 219.384 70.238 223.201C76.2035 225.089 81.3657 223.964 85.0213 223H85.0414Z"
                fill="white" fill-opacity="0.1" />
        </g>
        <g style="mix-blend-mode:soft-light">
            <path fill-rule="evenodd" clip-rule="evenodd"
                d="M322.861 262.951C322.861 262.951 321.696 269.62 320.852 270.986C320.049 272.251 317.136 266.526 316.755 265.783C316.755 265.723 316.734 265.703 316.734 265.703V265.663C317.879 260.179 318.482 254.033 318.361 247.143C318.04 230.05 293.113 184.615 275.578 187.126C279.374 186.222 286.666 185.077 292.069 187.829C299.701 191.726 322.7 231.617 323.945 243.488C325.171 255.318 322.861 262.951 322.861 262.951Z"
                fill="white" fill-opacity="0.1" />
        </g>
        <g style="mix-blend-mode:soft-light">
            <path fill-rule="evenodd" clip-rule="evenodd"
                d="M266.117 297.359C266.117 297.359 242.556 318.369 256.476 329.697C253.885 329.195 251.434 328.512 249.426 327.488C240.708 323.129 255.411 293.703 261.417 293.161C263.466 292.96 264.892 294.848 266.117 297.298V297.338V297.359Z"
                fill="white" fill-opacity="0.1" />
        </g>
        <g style="mix-blend-mode:soft-light">
            <path fill-rule="evenodd" clip-rule="evenodd"
                d="M307.796 296.133C303.779 302.28 292.088 309.792 285.139 310.615C278.49 311.399 273.529 308.727 273.047 308.366C273.469 308.486 273.951 308.526 274.473 308.426C278.992 307.683 298.616 302.721 310.025 283.178C310.025 283.178 311.793 289.987 307.776 296.133H307.796Z"
                fill="white" fill-opacity="0.1" />
        </g>
        <g style="mix-blend-mode:soft-light">
            <path fill-rule="evenodd" clip-rule="evenodd"
                d="M226.347 126.527C226.347 126.527 254.126 127.41 259.931 127.41C265.735 127.41 286.163 134.742 286.163 134.742C286.163 134.742 265.555 126.085 254.106 124.036C242.677 121.987 226.347 126.527 226.347 126.527Z"
                fill="white" fill-opacity="0.1" />
        </g>
        <g style="mix-blend-mode:soft-light">
            <path fill-rule="evenodd" clip-rule="evenodd"
                d="M237.254 200.745C237.254 200.745 247.217 192.469 250.852 190.722C258.505 187.026 268.588 185.218 272.123 184.375C275.658 183.531 276.422 183.491 276.422 183.491C276.422 183.491 265.716 183.832 254.588 188.874C243.46 193.915 237.254 200.745 237.254 200.745Z"
                fill="white" fill-opacity="0.1" />
        </g>
        <g style="mix-blend-mode:soft-light">
            <path fill-rule="evenodd" clip-rule="evenodd"
                d="M226.347 89.8695C226.347 89.8695 236.651 80.0273 245.328 78.1593C254.005 76.2913 263.064 77.1952 263.064 77.1952C263.064 77.1952 254.507 74.2827 242.777 77.396C231.047 80.5094 226.367 89.8494 226.367 89.8494L226.347 89.8695Z"
                fill="white" fill-opacity="0.1" />
        </g>
        <g style="mix-blend-mode:soft-light">
            <path fill-rule="evenodd" clip-rule="evenodd"
                d="M189.971 252.285C189.971 252.285 198.528 250.498 208.872 249.232C219.216 247.967 225.584 247.204 225.584 247.204C225.584 247.204 219.136 250.397 211.925 251.361C204.714 252.305 189.971 252.305 189.971 252.305V252.285Z"
                fill="white" fill-opacity="0.1" />
        </g>
        <g style="mix-blend-mode:soft-light">
            <path fill-rule="evenodd" clip-rule="evenodd"
                d="M107.699 282.113C107.699 282.113 119.489 292.237 127.765 299.789C136.04 307.341 143.994 308.466 147.469 308.265C150.944 308.064 151.446 306.839 151.446 306.839C151.446 306.839 149.518 306.819 140.921 305.112C132.324 303.404 115.954 286.592 107.679 282.113H107.699Z"
                fill="white" fill-opacity="0.1" />
        </g>
        <g style="mix-blend-mode:soft-light">
            <path fill-rule="evenodd" clip-rule="evenodd"
                d="M157.994 306.899C157.994 306.899 170.749 302.762 174.846 299.689C178.924 296.615 180.832 294.888 188.686 288.963C196.539 283.037 200.255 271.588 200.255 271.588C200.255 271.588 198.186 281.149 184.347 291.634C170.508 302.119 157.994 306.92 157.994 306.92V306.899Z"
                fill="white" fill-opacity="0.1" />
        </g>
        <g style="mix-blend-mode:soft-light">
            <path fill-rule="evenodd" clip-rule="evenodd"
                d="M305.245 187.247C305.245 187.247 328.465 196.988 332.442 200.744C336.419 204.501 340.998 208.719 340.998 208.719C340.998 208.719 339.391 203.938 333.928 200.744C328.465 197.551 311.853 190.802 305.245 187.247Z"
                fill="white" fill-opacity="0.1" />
        </g>
        <g style="mix-blend-mode:soft-light">
            <path fill-rule="evenodd" clip-rule="evenodd"
                d="M300.264 176.923C300.264 176.923 307.113 171.419 314.766 165.494C322.419 159.568 327.119 153.542 327.119 153.542C327.119 153.542 322.157 158.182 316.835 161.858C311.512 165.534 300.264 176.923 300.264 176.923Z"
                fill="white" fill-opacity="0.1" />
        </g>
        <g style="mix-blend-mode:multiply" opacity="0.3">
            <path fill-rule="evenodd" clip-rule="evenodd"
                d="M260.533 131.267C249.506 131.548 234.542 164.971 233.638 179.674C232.734 194.377 264.189 184.856 288.513 174.934C312.838 165.011 311.793 154.346 306.089 145.97C300.364 137.594 268.307 131.066 260.533 131.267Z"
                fill="white" fill-opacity="0.1" />
        </g>
        <g style="mix-blend-mode:multiply" opacity="0.3">
            <path fill-rule="evenodd" clip-rule="evenodd"
                d="M278.972 83.3014C272.103 79.3244 266.539 108.148 264.992 117.247C263.446 126.346 297.532 129.7 308.137 138.498C318.763 147.276 321.816 139.723 322.037 136.248C322.238 132.773 300.786 95.9155 278.992 83.3014H278.972Z"
                fill="white" fill-opacity="0.1" />
        </g>
        <g style="mix-blend-mode:multiply" opacity="0.3">
            <path fill-rule="evenodd" clip-rule="evenodd"
                d="M170.247 306.9C164.763 304.489 194.35 292.839 203.549 277.534C212.749 262.208 204.373 260.782 209.876 258.331C215.4 255.881 231.328 258.532 234.602 267.933C237.876 277.333 223.615 297.298 200.255 304.69C176.895 312.082 170.247 306.9 170.247 306.9Z"
                fill="white" fill-opacity="0.1" />
        </g>
        <g style="mix-blend-mode:multiply" opacity="0.3">
            <path fill-rule="evenodd" clip-rule="evenodd"
                d="M112.037 275.887C110.611 265.683 168.901 272.613 177.337 279.161C185.773 285.689 163.839 303.063 144.677 300.412C125.515 297.74 112.037 275.907 112.037 275.907V275.887Z"
                fill="white" fill-opacity="0.1" />
        </g>
        <g style="mix-blend-mode:multiply" opacity="0.3">
            <path fill-rule="evenodd" clip-rule="evenodd"
                d="M78.1317 288.36C72.2063 278.096 113.423 289.706 129.572 302.52C145.741 315.335 157.994 327.367 157.994 327.367C157.994 327.367 106.112 336.787 78.1317 288.38V288.36Z"
                fill="white" fill-opacity="0.1" />
        </g>
        <g style="mix-blend-mode:soft-light">
            <path fill-rule="evenodd" clip-rule="evenodd"
                d="M338.608 160.894C335.916 153.944 340.074 181.04 338.608 189.155C337.142 197.27 345.357 208.719 345.357 208.719C345.357 208.719 345.196 177.967 338.608 160.894Z"
                fill="white" fill-opacity="0.1" />
        </g>
        <g style="mix-blend-mode:soft-light">
            <path fill-rule="evenodd" clip-rule="evenodd"
                d="M344.312 223.181C344.312 223.181 341.661 207.674 335.595 205.224C329.509 202.773 327.842 236.176 327.32 252.306C326.797 268.415 327.32 275.987 327.32 275.987C327.32 275.987 343.75 249.333 344.312 223.181Z"
                fill="white" fill-opacity="0.1" />
        </g>
        <g style="mix-blend-mode:soft-light">
            <path fill-rule="evenodd" clip-rule="evenodd"
                d="M305.245 104.151C305.245 104.151 322.459 129.781 323.122 139.864C323.805 149.947 333.526 147.175 333.526 147.175C333.526 147.175 324.889 125.261 305.245 104.151Z"
                fill="white" fill-opacity="0.1" />
        </g>
        <g style="mix-blend-mode:soft-light">
            <path fill-rule="evenodd" clip-rule="evenodd"
                d="M230.103 125.763C230.103 125.763 240.588 128.234 245.891 127.109C251.193 125.984 254.749 124.759 254.749 124.759C254.749 124.759 246.172 122.027 230.103 125.783V125.763Z"
                fill="white" fill-opacity="0.1" />
        </g>
        <g style="mix-blend-mode:multiply" opacity="0.3">
            <path fill-rule="evenodd" clip-rule="evenodd"
                d="M188.987 249.152C185.452 246.34 218.514 221.212 235.064 208.719C251.615 196.225 263.044 194.9 263.044 194.9C263.044 194.9 247.598 224.044 235.064 236.538C222.531 249.031 188.987 249.172 188.987 249.172V249.152Z"
                fill="white" fill-opacity="0.1" />
        </g>
        <g style="mix-blend-mode:soft-light">
            <path fill-rule="evenodd" clip-rule="evenodd"
                d="M309.483 168.667C309.483 168.667 313.36 166.739 316.031 164.489C318.703 162.24 321.093 159.267 321.093 159.267C321.093 159.267 313.32 164.71 309.483 168.667Z"
                fill="white" fill-opacity="0.1" />
        </g>
        <g style="mix-blend-mode:soft-light">
            <path fill-rule="evenodd" clip-rule="evenodd"
                d="M172.998 60.1019C172.998 60.1019 203.067 69.0603 219.015 73.0574C234.964 77.0545 264.229 75.1865 264.229 75.1865C264.229 75.1865 230.886 52.429 172.998 60.0818V60.1019Z"
                fill="white" fill-opacity="0.1" />
        </g>
        <g style="mix-blend-mode:soft-light">
            <path fill-rule="evenodd" clip-rule="evenodd"
                d="M51.3774 217.276C51.3774 217.276 65.4779 245.055 68.9528 255.258C72.4276 265.462 70.7404 277.935 70.7404 277.935C70.7404 277.935 54.0288 256.504 51.3975 217.276H51.3774Z"
                fill="white" fill-opacity="0.1" />
        </g>
        <g style="mix-blend-mode:screen">
            <path fill-rule="evenodd" clip-rule="evenodd"
                d="M272.665 243.186C272.665 249.694 267.403 254.957 260.895 254.957C254.387 254.957 249.125 249.694 249.125 243.186C249.125 236.679 254.387 231.416 260.895 231.416C267.403 231.416 272.665 236.679 272.665 243.186Z"
                fill="white" fill-opacity="0.1" />
        </g>
        <g style="mix-blend-mode:screen">
            <path
                d="M260.915 248.047C263.6 248.047 265.776 245.871 265.776 243.186C265.776 240.502 263.6 238.326 260.915 238.326C258.23 238.326 256.054 240.502 256.054 243.186C256.054 245.871 258.23 248.047 260.915 248.047Z"
                fill="white" fill-opacity="0.1" />
        </g>
        <g style="mix-blend-mode:screen">
            <path fill-rule="evenodd" clip-rule="evenodd"
                d="M263.486 243.186C263.486 244.613 262.341 245.758 260.915 245.758C259.489 245.758 258.344 244.613 258.344 243.186C258.344 241.76 259.489 240.615 260.915 240.615C262.341 240.615 263.486 241.76 263.486 243.186Z"
                fill="white" fill-opacity="0.1" />
        </g>
        <g style="mix-blend-mode:screen">
            <path fill-rule="evenodd" clip-rule="evenodd"
                d="M279.696 226.555C279.696 233.063 274.433 238.326 267.925 238.326C261.417 238.326 256.155 233.063 256.155 226.555C256.155 220.047 261.417 214.785 267.925 214.785C274.433 214.785 279.696 220.047 279.696 226.555Z"
                fill="white" fill-opacity="0.1" />
        </g>
        <g style="mix-blend-mode:screen">
            <path
                d="M267.925 231.416C270.61 231.416 272.786 229.24 272.786 226.555C272.786 223.871 270.61 221.694 267.925 221.694C265.241 221.694 263.064 223.871 263.064 226.555C263.064 229.24 265.241 231.416 267.925 231.416Z"
                fill="white" fill-opacity="0.1" />
        </g>
        <g style="mix-blend-mode:screen">
            <path fill-rule="evenodd" clip-rule="evenodd"
                d="M270.497 226.555C270.497 227.981 269.352 229.126 267.926 229.126C266.499 229.126 265.354 227.981 265.354 226.555C265.354 225.129 266.499 223.984 267.926 223.984C269.352 223.984 270.497 225.129 270.497 226.555Z"
                fill="white" fill-opacity="0.1" />
        </g>
        <g style="mix-blend-mode:screen">
            <path
                d="M269.231 243.187C273.823 243.187 277.546 239.464 277.546 234.871C277.546 230.278 273.823 226.555 269.231 226.555C264.638 226.555 260.915 230.278 260.915 234.871C260.915 239.464 264.638 243.187 269.231 243.187Z"
                fill="white" fill-opacity="0.1" />
        </g>
        <g style="mix-blend-mode:screen">
            <path
                d="M269.231 238.305C271.128 238.305 272.665 236.768 272.665 234.871C272.665 232.974 271.128 231.436 269.231 231.436C267.334 231.436 265.796 232.974 265.796 234.871C265.796 236.768 267.334 238.305 269.231 238.305Z"
                fill="white" fill-opacity="0.1" />
        </g>
        <g style="mix-blend-mode:screen">
            <path fill-rule="evenodd" clip-rule="evenodd"
                d="M271.038 234.871C271.038 235.875 270.215 236.699 269.211 236.699C268.206 236.699 267.383 235.875 267.383 234.871C267.383 233.867 268.206 233.043 269.211 233.043C270.215 233.043 271.038 233.867 271.038 234.871Z"
                fill="white" fill-opacity="0.1" />
        </g>
        <g style="mix-blend-mode:screen">
            <path
                d="M256.255 253.39C257.365 253.39 258.264 252.491 258.264 251.382C258.264 250.272 257.365 249.373 256.255 249.373C255.146 249.373 254.247 250.272 254.247 251.382C254.247 252.491 255.146 253.39 256.255 253.39Z"
                fill="white" fill-opacity="0.1" />
        </g>
        <g style="mix-blend-mode:screen">
            <path fill-rule="evenodd" clip-rule="evenodd"
                d="M257.079 251.382C257.079 251.843 256.717 252.205 256.255 252.205C255.793 252.205 255.432 251.843 255.432 251.382C255.432 250.92 255.793 250.558 256.255 250.558C256.717 250.558 257.079 250.92 257.079 251.382Z"
                fill="white" fill-opacity="0.1" />
        </g>
        <g style="mix-blend-mode:screen">
            <path fill-rule="evenodd" clip-rule="evenodd"
                d="M256.697 251.382C256.697 251.623 256.496 251.824 256.255 251.824C256.014 251.824 255.813 251.623 255.813 251.382C255.813 251.141 256.014 250.94 256.255 250.94C256.496 250.94 256.697 251.141 256.697 251.382Z"
                fill="white" fill-opacity="0.1" />
        </g>
        <g style="mix-blend-mode:screen">
            <path
                d="M275.558 277.975C276.667 277.975 277.567 277.076 277.567 275.967C277.567 274.858 276.667 273.958 275.558 273.958C274.449 273.958 273.549 274.858 273.549 275.967C273.549 277.076 274.449 277.975 275.558 277.975Z"
                fill="white" fill-opacity="0.1" />
        </g>
        <g style="mix-blend-mode:screen">
            <path fill-rule="evenodd" clip-rule="evenodd"
                d="M276.401 275.967C276.401 276.429 276.04 276.791 275.578 276.791C275.116 276.791 274.754 276.429 274.754 275.967C274.754 275.505 275.116 275.144 275.578 275.144C276.04 275.144 276.401 275.505 276.401 275.967Z"
                fill="white" fill-opacity="0.1" />
        </g>
        <g style="mix-blend-mode:screen">
            <path
                d="M275.558 276.409C275.802 276.409 276 276.211 276 275.967C276 275.723 275.802 275.525 275.558 275.525C275.314 275.525 275.116 275.723 275.116 275.967C275.116 276.211 275.314 276.409 275.558 276.409Z"
                fill="white" fill-opacity="0.1" />
        </g>
        <path fill-rule="evenodd" clip-rule="evenodd"
            d="M113.544 131.588C105.63 127.752 96.4503 145.388 103.039 151.715C109.627 158.062 125.153 137.213 113.544 131.588Z"
            fill="white" fill-opacity="0.1" />
        <g style="mix-blend-mode:screen">
            <path
                d="M240.367 333.694C302.356 333.694 352.608 285.933 352.608 227.017C352.608 168.101 302.356 120.34 240.367 120.34C178.378 120.34 128.126 168.101 128.126 227.017C128.126 285.933 178.378 333.694 240.367 333.694Z"
                fill="white" fill-opacity="0.1" />
        </g>
        <g style="mix-blend-mode:screen">
            <path fill-rule="evenodd" clip-rule="evenodd"
                d="M184.769 188.693C184.769 195.201 179.506 200.464 172.998 200.464C166.491 200.464 161.228 195.201 161.228 188.693C161.228 182.185 166.491 176.923 172.998 176.923C179.506 176.923 184.769 182.185 184.769 188.693Z"
                fill="white" fill-opacity="0.1" />
        </g>
        <g style="mix-blend-mode:screen">
            <path fill-rule="evenodd" clip-rule="evenodd"
                d="M177.859 188.693C177.859 191.385 175.69 193.554 172.999 193.554C170.307 193.554 168.138 191.385 168.138 188.693C168.138 186.001 170.307 183.832 172.999 183.832C175.69 183.832 177.859 186.001 177.859 188.693Z"
                fill="white" fill-opacity="0.1" />
        </g>
        <g style="mix-blend-mode:screen">
            <path fill-rule="evenodd" clip-rule="evenodd"
                d="M175.569 188.693C175.569 190.119 174.424 191.264 172.998 191.264C171.572 191.264 170.427 190.119 170.427 188.693C170.427 187.267 171.572 186.122 172.998 186.122C174.424 186.122 175.569 187.267 175.569 188.693Z"
                fill="white" fill-opacity="0.1" />
        </g>
        <g style="mix-blend-mode:screen">
            <path fill-rule="evenodd" clip-rule="evenodd"
                d="M183.684 147.296C183.684 151.192 180.531 154.346 176.634 154.346C172.738 154.346 169.584 151.192 169.584 147.296C169.584 143.399 172.738 140.245 176.634 140.245C180.531 140.245 183.684 143.399 183.684 147.296Z"
                fill="white" fill-opacity="0.1" />
        </g>
        <g style="mix-blend-mode:screen">
            <path fill-rule="evenodd" clip-rule="evenodd"
                d="M179.547 147.296C179.547 148.903 178.241 150.208 176.634 150.208C175.027 150.208 173.722 148.903 173.722 147.296C173.722 145.689 175.027 144.383 176.634 144.383C178.241 144.383 179.547 145.689 179.547 147.296Z"
                fill="white" fill-opacity="0.1" />
        </g>
        <g style="mix-blend-mode:screen">
            <path
                d="M176.634 148.842C177.488 148.842 178.181 148.15 178.181 147.296C178.181 146.441 177.488 145.749 176.634 145.749C175.78 145.749 175.087 146.441 175.087 147.296C175.087 148.15 175.78 148.842 176.634 148.842Z"
                fill="white" fill-opacity="0.1" />
        </g>
        <g style="mix-blend-mode:screen">
            <path fill-rule="evenodd" clip-rule="evenodd"
                d="M132.003 231.436C132.003 234.168 129.773 236.397 127.041 236.397C124.31 236.397 122.08 234.168 122.08 231.436C122.08 228.705 124.31 226.475 127.041 226.475C129.773 226.475 132.003 228.705 132.003 231.436Z"
                fill="white" fill-opacity="0.1" />
        </g>
        <g style="mix-blend-mode:screen">
            <path
                d="M127.041 233.485C128.173 233.485 129.09 232.568 129.09 231.436C129.09 230.305 128.173 229.387 127.041 229.387C125.91 229.387 124.993 230.305 124.993 231.436C124.993 232.568 125.91 233.485 127.041 233.485Z"
                fill="white" fill-opacity="0.1" />
        </g>
        <g style="mix-blend-mode:screen">
            <path fill-rule="evenodd" clip-rule="evenodd"
                d="M128.126 231.436C128.126 232.039 127.644 232.521 127.042 232.521C126.439 232.521 125.957 232.039 125.957 231.436C125.957 230.834 126.439 230.351 127.042 230.351C127.644 230.351 128.126 230.834 128.126 231.436Z"
                fill="white" fill-opacity="0.1" />
        </g>
        <g style="mix-blend-mode:screen">
            <path fill-rule="evenodd" clip-rule="evenodd"
                d="M160.023 209.422C160.023 211.631 158.235 213.419 156.025 213.419C153.816 213.419 152.028 211.631 152.028 209.422C152.028 207.212 153.816 205.424 156.025 205.424C158.235 205.424 160.023 207.212 160.023 209.422Z"
                fill="white" fill-opacity="0.1" />
        </g>
        <g style="mix-blend-mode:screen">
            <path fill-rule="evenodd" clip-rule="evenodd"
                d="M157.693 209.422C157.693 210.326 156.949 211.069 156.045 211.069C155.142 211.069 154.398 210.326 154.398 209.422C154.398 208.518 155.142 207.775 156.045 207.775C156.949 207.775 157.693 208.518 157.693 209.422Z"
                fill="white" fill-opacity="0.1" />
        </g>
        <g style="mix-blend-mode:screen">
            <path fill-rule="evenodd" clip-rule="evenodd"
                d="M156.909 209.422C156.909 209.904 156.528 210.306 156.025 210.306C155.523 210.306 155.142 209.924 155.142 209.422C155.142 208.92 155.543 208.538 156.025 208.538C156.507 208.538 156.909 208.92 156.909 209.422Z"
                fill="white" fill-opacity="0.1" />
        </g>
        <g style="mix-blend-mode:screen">
            <path
                d="M162.032 151.513C163.141 151.513 164.04 150.614 164.04 149.505C164.04 148.395 163.141 147.496 162.032 147.496C160.922 147.496 160.023 148.395 160.023 149.505C160.023 150.614 160.922 151.513 162.032 151.513Z"
                fill="white" fill-opacity="0.1" />
        </g>
        <g style="mix-blend-mode:screen">
            <path fill-rule="evenodd" clip-rule="evenodd"
                d="M162.855 149.505C162.855 149.967 162.494 150.328 162.032 150.328C161.57 150.328 161.208 149.967 161.208 149.505C161.208 149.043 161.57 148.681 162.032 148.681C162.494 148.681 162.855 149.043 162.855 149.505Z"
                fill="white" fill-opacity="0.1" />
        </g>
        <g style="mix-blend-mode:screen">
            <path fill-rule="evenodd" clip-rule="evenodd"
                d="M162.453 149.505C162.453 149.746 162.252 149.947 162.011 149.947C161.77 149.947 161.569 149.746 161.569 149.505C161.569 149.264 161.77 149.063 162.011 149.063C162.252 149.063 162.453 149.264 162.453 149.505Z"
                fill="white" fill-opacity="0.1" />
        </g>
        <g style="mix-blend-mode:screen">
            <path fill-rule="evenodd" clip-rule="evenodd"
                d="M100.488 207.775C100.488 209.582 99.0212 211.049 97.2135 211.049C95.4057 211.049 93.9395 209.582 93.9395 207.775C93.9395 205.967 95.4057 204.501 97.2135 204.501C99.0212 204.501 100.488 205.967 100.488 207.775Z"
                fill="white" fill-opacity="0.1" />
        </g>
        <g style="mix-blend-mode:screen">
            <path fill-rule="evenodd" clip-rule="evenodd"
                d="M98.5593 207.775C98.5593 208.518 97.9568 209.141 97.1935 209.141C96.4302 209.141 95.8276 208.538 95.8276 207.775C95.8276 207.012 96.4302 206.409 97.1935 206.409C97.9568 206.409 98.5593 207.012 98.5593 207.775Z"
                fill="white" fill-opacity="0.1" />
        </g>
        <g style="mix-blend-mode:screen">
            <path fill-rule="evenodd" clip-rule="evenodd"
                d="M97.9164 207.775C97.9164 208.176 97.595 208.498 97.1933 208.498C96.7916 208.498 96.4702 208.176 96.4702 207.775C96.4702 207.373 96.7916 207.052 97.1933 207.052C97.595 207.052 97.9164 207.373 97.9164 207.775Z"
                fill="white" fill-opacity="0.1" />
        </g>
    </g>
    <defs>
        <filter id="filter0_b_478_26168" x="-9.125" y="-2.04724" width="421.733" height="404.769"
            filterUnits="userSpaceOnUse" color-interpolation-filters="sRGB">
            <feFlood flood-opacity="0" result="BackgroundImageFix" />
            <feGaussianBlur in="BackgroundImageFix" stdDeviation="30" />
            <feComposite in2="SourceAlpha" operator="in" result="effect1_backgroundBlur_478_26168" />
            <feBlend mode="normal" in="SourceGraphic" in2="effect1_backgroundBlur_478_26168"
                result="shape" />
        </filter>
        <radialGradient id="paint0_radial_478_26168" cx="0" cy="0" r="1"
            gradientUnits="userSpaceOnUse"
            gradientTransform="translate(198.126 200.753) rotate(45) scale(160)">
            <stop stop-color="#A2F9FF" />
            <stop offset="1" stop-color="#A1F9FF" stop-opacity="0" />
        </radialGradient>
        <radialGradient id="paint1_radial_478_26168" cx="0" cy="0" r="1"
            gradientUnits="userSpaceOnUse"
            gradientTransform="translate(192.341 234.598) scale(137.529 137.529)">
            <stop stop-color="#D7F1F7" />
            <stop offset="1" stop-color="#D5F0F7" />
        </radialGradient>
        <linearGradient id="paint2_linear_478_26168" x1="197.142" y1="215.075" x2="197.142"
            y2="70.154" gradientUnits="userSpaceOnUse">
            <stop stop-color="#D8F3F7" />
            <stop offset="0.77" stop-color="#D4F1F7" />
            <stop offset="1" stop-color="#D2F0F7" />
        </linearGradient>
        <linearGradient id="paint3_linear_478_26168" x1="71.2223" y1="146.642" x2="244.364"
            y2="146.642" gradientUnits="userSpaceOnUse">
            <stop stop-color="#D8F0F7" />
            <stop offset="1" stop-color="#D8F3F7" />
        </linearGradient>
        <linearGradient id="paint4_linear_478_26168" x1="137.426" y1="260.67" x2="308.318"
            y2="260.67" gradientUnits="userSpaceOnUse">
            <stop stop-color="#D2F0F6" />
            <stop offset="0.99" stop-color="#D2F2F7" />
        </linearGradient>
        <linearGradient id="paint5_linear_478_26168" x1="101.713" y1="252.977" x2="304.783"
            y2="252.977" gradientUnits="userSpaceOnUse">
            <stop stop-color="#D2F0F6" />
            <stop offset="0.99" stop-color="#D2F2F7" />
        </linearGradient>
        <linearGradient id="paint6_linear_478_26168" x1="93.8995" y1="181.39" x2="332.582"
            y2="181.39" gradientUnits="userSpaceOnUse">
            <stop stop-color="#D2F0F6" />
            <stop offset="0.99" stop-color="#D2F2F7" />
        </linearGradient>
        <radialGradient id="paint7_radial_478_26168" cx="0" cy="0" r="1"
            gradientUnits="userSpaceOnUse"
            gradientTransform="translate(237.748 228.694) rotate(3.17) scale(65.397 62.031)">
            <stop offset="0.01" stop-color="#D2F4F7" />
            <stop offset="1" stop-color="#D2F0F6" />
        </radialGradient>
        <linearGradient id="paint8_linear_478_26168" x1="208.29" y1="148.248" x2="208.29"
            y2="71.6804" gradientUnits="userSpaceOnUse">
            <stop stop-color="#D8F3F7" />
            <stop offset="0.77" stop-color="#D4F1F7" />
            <stop offset="1" stop-color="#D2F0F7" />
        </linearGradient>
        <linearGradient id="paint9_linear_478_26168" x1="112.8" y1="177.474" x2="112.8" y2="77.6862"
            gradientUnits="userSpaceOnUse">
            <stop stop-color="#D2F0F6" />
            <stop offset="0.99" stop-color="#D2F4F7" />
        </linearGradient>
        <linearGradient id="paint10_linear_478_26168" x1="145.079" y1="323.399" x2="270.416"
            y2="323.399" gradientUnits="userSpaceOnUse">
            <stop stop-color="#D2F0F7" />
            <stop offset="1" stop-color="#D8F3F7" />
        </linearGradient>
        <linearGradient id="paint11_linear_478_26168" x1="129.552" y1="332.338" x2="268.427"
            y2="332.338" gradientUnits="userSpaceOnUse">
            <stop offset="0.01" stop-color="#D2F4F7" />
            <stop offset="1" stop-color="#D2F0F6" />
        </linearGradient>
        <radialGradient id="paint12_radial_478_26168" cx="0" cy="0" r="1"
            gradientUnits="userSpaceOnUse"
            gradientTransform="translate(55.9772 167.009) scale(0.160692 0.160688)">
            <stop stop-color="#D3F0F6" />
            <stop offset="1" stop-color="#D2F0F6" />
        </radialGradient>
        <radialGradient id="paint13_radial_478_26168" cx="0" cy="0" r="1"
            gradientUnits="userSpaceOnUse"
            gradientTransform="translate(174.324 170.946) scale(142.129 142.129)">
            <stop stop-color="#D3F0F6" />
            <stop offset="1" stop-color="#D2F0F6" />
        </radialGradient>
        <radialGradient id="paint14_radial_478_26168" cx="0" cy="0" r="1"
            gradientUnits="userSpaceOnUse"
            gradientTransform="translate(240.878 226.646) scale(112.355 106.572)">
            <stop offset="0.01" stop-color="#8EB0D9" />
            <stop offset="1" stop-color="white" stop-opacity="0" />
        </radialGradient>
        <radialGradient id="paint15_radial_478_26168" cx="0" cy="0" r="1"
            gradientUnits="userSpaceOnUse"
            gradientTransform="translate(172.998 188.693) scale(11.7704)">
            <stop stop-color="white" />
            <stop offset="1" stop-color="white" stop-opacity="0" />
        </radialGradient>
        <radialGradient id="paint16_radial_478_26168" cx="0" cy="0" r="1"
            gradientUnits="userSpaceOnUse"
            gradientTransform="translate(172.999 188.693) scale(4.86083)">
            <stop offset="0.59" stop-color="white" />
            <stop offset="1" stop-color="white" stop-opacity="0" />
        </radialGradient>
        <radialGradient id="paint17_radial_478_26168" cx="0" cy="0" r="1"
            gradientUnits="userSpaceOnUse"
            gradientTransform="translate(172.998 188.693) scale(2.57102)">
            <stop offset="0.84" stop-color="white" />
            <stop offset="1" stop-color="white" stop-opacity="0" />
        </radialGradient>
        <radialGradient id="paint18_radial_478_26168" cx="0" cy="0" r="1"
            gradientUnits="userSpaceOnUse"
            gradientTransform="translate(176.634 147.296) scale(7.05021 7.05021)">
            <stop stop-color="white" />
            <stop offset="1" stop-color="white" stop-opacity="0" />
        </radialGradient>
        <radialGradient id="paint19_radial_478_26168" cx="0" cy="0" r="1"
            gradientUnits="userSpaceOnUse"
            gradientTransform="translate(176.634 147.296) scale(2.91248)">
            <stop offset="0.59" stop-color="white" />
            <stop offset="1" stop-color="white" stop-opacity="0" />
        </radialGradient>
        <radialGradient id="paint20_radial_478_26168" cx="0" cy="0" r="1"
            gradientUnits="userSpaceOnUse"
            gradientTransform="translate(176.634 147.296) scale(1.54663)">
            <stop offset="0.84" stop-color="white" />
            <stop offset="1" stop-color="white" stop-opacity="0" />
        </radialGradient>
        <radialGradient id="paint21_radial_478_26168" cx="0" cy="0" r="1"
            gradientUnits="userSpaceOnUse"
            gradientTransform="translate(127.041 231.436) scale(4.96126 4.96126)">
            <stop stop-color="white" />
            <stop offset="1" stop-color="white" stop-opacity="0" />
        </radialGradient>
        <radialGradient id="paint22_radial_478_26168" cx="0" cy="0" r="1"
            gradientUnits="userSpaceOnUse"
            gradientTransform="translate(127.041 231.436) scale(2.04878)">
            <stop offset="0.59" stop-color="white" />
            <stop offset="1" stop-color="white" stop-opacity="0" />
        </radialGradient>
        <radialGradient id="paint23_radial_478_26168" cx="0" cy="0" r="1"
            gradientUnits="userSpaceOnUse"
            gradientTransform="translate(127.042 231.436) scale(1.08465)">
            <stop offset="0.59" stop-color="#FFFFA2" />
            <stop offset="1" stop-color="#FFFFA2" stop-opacity="0" />
        </radialGradient>
        <radialGradient id="paint24_radial_478_26168" cx="0" cy="0" r="1"
            gradientUnits="userSpaceOnUse"
            gradientTransform="translate(156.025 209.422) scale(3.99712 3.99713)">
            <stop stop-color="white" />
            <stop offset="1" stop-color="white" stop-opacity="0" />
        </radialGradient>
        <radialGradient id="paint25_radial_478_26168" cx="0" cy="0" r="1"
            gradientUnits="userSpaceOnUse"
            gradientTransform="translate(156.025 209.422) scale(1.64706)">
            <stop offset="0.59" stop-color="white" />
            <stop offset="1" stop-color="white" stop-opacity="0" />
        </radialGradient>
        <radialGradient id="paint26_radial_478_26168" cx="0" cy="0" r="1"
            gradientUnits="userSpaceOnUse"
            gradientTransform="translate(156.025 209.422) scale(0.883792 0.883784)">
            <stop offset="0.59" stop-color="#FFFFA2" />
            <stop offset="1" stop-color="#FFFFA2" stop-opacity="0" />
        </radialGradient>
        <radialGradient id="paint27_radial_478_26168" cx="0" cy="0" r="1"
            gradientUnits="userSpaceOnUse"
            gradientTransform="translate(162.032 149.505) scale(2.00861)">
            <stop stop-color="white" />
            <stop offset="1" stop-color="white" stop-opacity="0" />
        </radialGradient>
        <radialGradient id="paint28_radial_478_26168" cx="0" cy="0" r="1"
            gradientUnits="userSpaceOnUse"
            gradientTransform="translate(162.032 149.505) scale(0.823528)">
            <stop offset="0.59" stop-color="white" />
            <stop offset="1" stop-color="white" stop-opacity="0" />
        </radialGradient>
        <radialGradient id="paint29_radial_478_26168" cx="0" cy="0" r="1"
            gradientUnits="userSpaceOnUse"
            gradientTransform="translate(162.031 149.505) scale(0.441888 0.441896)">
            <stop offset="0.59" stop-color="#FFFFA2" />
            <stop offset="1" stop-color="#FFFFA2" stop-opacity="0" />
        </radialGradient>
        <radialGradient id="paint30_radial_478_26168" cx="0" cy="0" r="1"
            gradientUnits="userSpaceOnUse"
            gradientTransform="translate(97.2135 207.775) scale(3.27403)">
            <stop stop-color="white" />
            <stop offset="1" stop-color="white" stop-opacity="0" />
        </radialGradient>
        <radialGradient id="paint31_radial_478_26168" cx="0" cy="0" r="1"
            gradientUnits="userSpaceOnUse"
            gradientTransform="translate(97.2136 207.775) scale(1.36585)">
            <stop offset="0.59" stop-color="white" />
            <stop offset="1" stop-color="white" stop-opacity="0" />
        </radialGradient>
        <radialGradient id="paint32_radial_478_26168" cx="0" cy="0" r="1"
            gradientUnits="userSpaceOnUse"
            gradientTransform="translate(97.2134 207.775) scale(0.723096 0.723092)">
            <stop offset="0.59" stop-color="#FFFFA2" />
            <stop offset="1" stop-color="#FFFFA2" stop-opacity="0" />
        </radialGradient>
    </defs>
</svg>
    