<svg width="400" height="401" viewBox="0 0 400 401" fill="none" xmlns="http://www.w3.org/2000/svg">
    <path
        d="M198.126 360.748C286.492 360.748 358.126 289.113 358.126 200.748C358.126 112.382 286.492 40.7479 198.126 40.7479C109.76 40.7479 38.126 112.382 38.126 200.748C38.126 289.113 109.76 360.748 198.126 360.748Z"
        fill="url(#paint0_radial_360_2241)" />
    <path fill-rule="evenodd" clip-rule="evenodd"
        d="M335.575 205.634C337.885 243.657 321.234 272.26 316.333 280.093C290.723 321.149 243.179 344.349 198.126 343.083C131.862 341.215 60.6771 286.139 60.6771 205.634C60.6771 129.729 122.221 68.1854 198.126 68.1854C282.005 68.1854 331.96 145.999 335.575 205.634Z"
        fill="url(#paint1_radial_360_2241)" />
    <path style="mix-blend-mode:multiply" opacity="0.74" fill-rule="evenodd" clip-rule="evenodd"
        d="M73.7731 168.094C63.2681 204.55 78.5134 210.536 137.345 214.894C196.178 219.253 209.937 144.091 195.434 119.566C180.932 95.0607 134.393 124.567 121.719 137.583C109.044 150.599 141.845 173.959 155.403 177.815C168.961 181.672 176.734 165.482 181.274 162.128C185.833 158.774 181.475 184.825 152.069 188.963C122.663 193.101 83.6554 178.659 115.954 134.128C148.252 89.5973 202.766 108.157 212.025 115.609C221.285 123.061 201.099 134.811 206.261 153.33C211.443 171.85 318.622 154.957 323.322 143.247C328.002 131.537 273.81 48.3606 171.01 75.5973C82.9926 98.8972 73.7932 168.074 73.7932 168.074L73.7731 168.094Z"
        fill="url(#paint2_linear_360_2241)" />
    <path style="mix-blend-mode:multiply" opacity="0.5" fill-rule="evenodd" clip-rule="evenodd"
        d="M89.1389 131.838C59.6727 175.064 71.5636 206.297 89.1389 222.426C106.714 238.576 134.473 187.858 207.747 192.518C281.021 197.178 223.475 162.249 150.602 184.645C77.7301 207.041 132.384 173.798 162.031 169.078C191.678 164.358 207.004 145.276 194.651 124.186C182.298 103.095 135.799 113.239 121.437 144.754C117.902 152.507 98.2781 147.606 119.529 126.234C140.78 104.863 179.807 100.343 215.159 109.944C250.53 119.546 246.172 93.4137 240.708 76.2401C235.265 59.0866 136.1 62.923 89.1389 131.818V131.838Z"
        fill="url(#paint3_linear_360_2241)" />
    <path style="mix-blend-mode:screen" opacity="0.84" fill-rule="evenodd" clip-rule="evenodd"
        d="M216.485 231.324C252.338 184.082 290.703 196.917 306.209 238.194C321.736 279.451 248.562 331.132 168.72 318.156C88.8778 305.201 184.367 280.857 205.859 273.626C227.371 266.375 218.654 290.819 220 297.126C221.345 303.433 175.871 305.342 175.871 299.215C175.871 293.089 192.482 281.62 202.284 281.62C212.086 281.62 197.383 285.717 201.741 289.132C206.1 292.527 206.321 285.697 208.932 281.62C211.543 277.542 176.694 281.64 161.168 299.215C145.641 316.771 222.229 315.887 247.497 294.716C288.071 260.69 238.86 281.238 210.439 266.154C174.726 247.192 216.444 231.344 216.444 231.344L216.485 231.324Z"
        fill="url(#paint4_linear_360_2241)" />
    <path style="mix-blend-mode:screen" fill-rule="evenodd" clip-rule="evenodd"
        d="M200.235 305.101C214.556 317.012 267.041 313.175 291.727 275.353C316.413 237.531 299.641 244.039 293.454 237.491C287.268 230.963 292.089 200.794 275.538 226.464C268.668 237.129 281.885 204.128 241.552 197.66C201.219 191.192 138.531 194.105 111.997 225.198C85.4633 256.291 113.242 276.337 160.907 282.524C208.571 288.71 214.637 280.736 215.139 257.898C215.641 235.06 192.944 232.61 179.104 242.131C165.265 251.672 177.96 266.093 179.104 271.135C180.249 276.177 188.224 271.818 189.951 271.135C191.678 270.452 186.577 265.832 189.951 263.101C193.325 260.369 199.03 273.043 197.122 278.286C195.214 283.528 154.097 280.656 134.212 274.268C114.327 267.881 117.199 238.053 151.446 220.076C185.693 202.099 216.284 208.607 232.855 227.408C249.426 246.208 244.465 248.136 244.183 260.67C243.902 273.204 271.541 278.145 278.571 240.946C280.137 232.65 290.863 239.098 295.825 249.563C300.786 260.027 282.99 292.587 260.875 301.083C238.76 309.58 216.746 314.019 213.753 305.583C210.76 297.146 200.235 305.101 200.235 305.101Z"
        fill="url(#paint5_linear_360_2241)" />
    <path style="mix-blend-mode:screen" opacity="0.5" fill-rule="evenodd" clip-rule="evenodd"
        d="M101.713 234.679C99.1017 203.726 91.3284 188.039 188.706 183.138C286.083 178.237 322.117 204.469 319.365 240.946C316.614 277.422 340.717 214.151 329.67 165.643C318.622 117.115 238.559 105.686 207.767 113.038C176.995 120.389 195.655 126.897 191.498 130.733C187.34 134.55 167.736 119.304 122.522 143.006C77.3083 166.707 99.2423 234.679 99.2423 234.679H101.733H101.713Z"
        fill="url(#paint6_linear_360_2241)" />
    <path style="mix-blend-mode:screen"
        d="M302.425 232.645C304.321 198.408 276.658 169.037 240.638 167.042C204.618 165.047 173.881 191.184 171.985 225.421C170.089 259.657 197.751 289.029 233.771 291.024C269.791 293.019 300.529 266.882 302.425 232.645Z"
        fill="url(#paint7_radial_360_2241)" />
    <path style="mix-blend-mode:multiply" opacity="0.5" fill-rule="evenodd" clip-rule="evenodd"
        d="M160.003 78.8712C130.396 87.227 117.079 112.475 116.516 123.302C115.954 134.128 132.304 102.774 184.869 106.128C237.434 109.482 280.238 140.857 295.805 147.907C311.371 154.957 288.112 42.6761 160.003 78.8712Z"
        fill="url(#paint8_linear_360_2241)" />
    <g style="mix-blend-mode:soft-light" opacity="0.8">
        <path fill-rule="evenodd" clip-rule="evenodd"
            d="M115.693 158.894C110.35 156.303 104.143 168.214 108.602 172.492C113.041 176.771 123.547 162.69 115.693 158.894Z"
            fill="#EBFBFC" />
    </g>
    <path style="mix-blend-mode:screen" fill-rule="evenodd" clip-rule="evenodd"
        d="M63.5494 177.474C63.5494 177.474 86.2668 97.1094 162.011 77.7063C162.011 77.7063 87.8938 80.1769 63.5494 177.474Z"
        fill="url(#paint9_linear_360_2241)" />
    <path style="mix-blend-mode:multiply" opacity="0.74" fill-rule="evenodd" clip-rule="evenodd"
        d="M150.602 309.078C134.232 309.941 155.041 338.263 203.248 337.72C251.454 337.178 269.572 321.973 270.396 320.185C271.219 318.398 231.449 346.98 150.602 309.098V309.078Z"
        fill="url(#paint10_linear_360_2241)" />
    <path style="mix-blend-mode:screen" opacity="0.5" fill-rule="evenodd" clip-rule="evenodd"
        d="M129.552 323.399C129.552 323.399 153.194 341.256 194.631 343.023C236.069 344.791 268.427 324.363 268.427 324.363C268.427 324.363 212.508 356.923 136.522 321.511L129.552 323.399Z"
        fill="url(#paint11_linear_360_2241)" />
    <path fill-rule="evenodd" clip-rule="evenodd"
        d="M56.0372 166.828C55.997 166.989 55.9569 167.109 55.9368 167.25C55.9569 167.19 55.9769 167.029 56.0372 166.828Z"
        fill="url(#paint12_radial_360_2241)" />
    <path fill-rule="evenodd" clip-rule="evenodd"
        d="M345.377 205.634C345.377 248.819 326.797 287.666 297.15 314.581C296.849 314.842 296.608 315.083 296.387 315.264C296.226 315.425 296.066 315.565 295.905 315.666C289.517 321.35 282.648 326.492 275.357 330.992C275.357 330.992 265.133 331.755 256.456 330.108C253.865 329.606 251.414 328.923 249.406 327.898C240.688 323.54 255.391 294.114 261.397 293.571C263.446 293.37 264.872 295.258 266.097 297.709V297.749C268.186 301.927 269.753 307.852 273.027 308.736H273.047C273.469 308.857 273.951 308.897 274.473 308.796C278.992 308.053 298.616 303.092 310.025 283.548C310.025 283.548 314.665 282.383 316.594 277.382C318.381 272.802 316.975 267.138 316.714 266.174C316.714 266.114 316.694 266.094 316.694 266.094V266.053C317.839 260.57 318.441 254.424 318.321 247.534C318 230.441 293.073 185.006 275.538 187.517C275.538 187.517 275.531 187.517 275.518 187.517C274.674 187.617 273.87 187.858 273.087 188.2C273.047 188.22 273.027 188.22 273.027 188.22C269.592 189.706 266.539 193.402 264.129 199.89C253.021 229.858 232.955 241.89 227.733 245.766C226.025 247.012 225.925 247.413 228.195 247.273C248.924 246.048 234.18 289.755 230.364 296.283C226.548 302.831 241.813 308.274 218.373 320.788C214.978 322.596 210.941 324.283 206.341 325.789C204.574 326.372 202.726 326.934 200.797 327.436C173.239 334.868 131.279 335.471 100.407 315.726C90.9667 307.37 82.5908 297.769 75.5406 287.244C75.5406 287.244 75.5406 287.224 75.5205 287.204L73.0098 283.307C58.9495 260.751 50.8549 234.116 50.8549 205.594C50.8549 192.358 52.6023 179.502 55.8965 167.31L61.8821 175.244C61.9825 175.425 62.1231 175.586 62.2437 175.746C63.027 176.731 63.5292 177.454 63.5292 177.454C63.5292 177.454 58.2064 219.775 70.1977 223.591C70.7802 223.792 71.3627 223.933 71.9452 224.073C72.5277 224.194 73.0901 224.314 73.6325 224.395H73.6525C74.215 224.455 74.7573 224.515 75.2996 224.576C76.1231 224.636 76.9467 224.636 77.73 224.616C78.0313 224.616 78.2924 224.596 78.5736 224.576C79.1561 224.535 79.6984 224.475 80.2408 224.395C80.9438 224.294 81.6468 224.174 82.2895 224.053C82.4502 224.013 82.6109 223.973 82.7716 223.973C82.7716 223.973 82.785 223.966 82.8118 223.953C82.9323 223.933 83.0729 223.913 83.1934 223.873C83.2135 223.873 83.2336 223.853 83.2336 223.853C83.2939 223.853 83.334 223.832 83.4144 223.832C83.6755 223.772 83.9165 223.732 84.0973 223.652C84.1174 223.652 84.1375 223.632 84.1375 223.632C84.2178 223.611 84.3182 223.591 84.3986 223.591C84.4789 223.571 84.5794 223.531 84.6597 223.511C84.72 223.491 84.7802 223.491 84.8405 223.471C84.9409 223.451 85.0213 223.431 85.0213 223.431C88.7372 222.467 90.9266 221.703 90.9266 224.435C90.9266 227.006 89.5808 230.903 90.4646 234.679C90.7257 235.804 91.1676 236.908 91.9108 237.933C93.1963 240.805 94.9839 244.581 95.5263 244.983C96.1288 245.445 97.575 244.401 98.4789 243.637C98.499 243.617 98.5191 243.617 98.5191 243.597C98.74 243.336 98.9409 243.135 99.202 242.995H99.2221C99.2221 242.995 99.2422 242.974 99.2623 242.995C101.291 243.718 103.721 244.38 106.674 244.842C115.833 246.329 135.718 245.083 155.764 240.444L156.267 240.323C157.894 239.962 159.5 239.54 161.127 239.118L161.991 238.897C172.597 236.045 182.941 232.248 191.518 227.408H191.538C193.526 226.283 195.374 225.098 197.122 223.873C206.02 217.606 211.965 209.832 212.367 200.452C214.014 164.518 208.008 149.795 208.571 144.894C208.651 144.171 208.932 143.327 209.394 142.444V142.404C211.865 137.402 218.915 130.733 218.915 130.733C218.915 130.733 214.355 125.732 215.259 122.8C215.259 122.8 215.259 122.779 215.279 122.759C215.32 122.498 215.46 122.257 215.641 122.016C215.902 121.695 216.485 121.233 217.268 120.63C217.268 120.63 217.288 120.63 217.308 120.61C222.048 116.995 233.678 108.619 222.551 98.877L223.013 93.4136L215.922 94.3777H215.902C215.902 94.3777 215.581 94.1969 215.139 94.0162C213.251 92.9717 211.061 91.9473 208.591 90.9631C172.958 76.3806 151.787 76.3203 151.406 76.3203V65.9559C166.089 61.0148 181.776 58.3634 198.126 58.3634C226.769 58.3634 253.483 66.5384 276.06 80.679C276.08 80.6991 276.1 80.7192 276.12 80.7192H276.14L276.18 80.7393C317.759 106.791 345.377 152.969 345.377 205.614V205.634Z"
        fill="url(#paint13_radial_360_2241)" />
    <g style="mix-blend-mode:multiply" opacity="0.8">
        <path fill-rule="evenodd" clip-rule="evenodd"
            d="M218.935 130.713C239.082 118.2 258.826 123.442 297.914 139.973C337.001 156.524 301.991 178.237 277.486 182.736C252.981 187.235 243.179 188.039 232.132 203.565C221.084 219.092 196.499 224.274 196.499 224.274L191.478 227.408C191.478 227.408 215.581 222.366 233.357 204.791C251.133 187.215 266.037 183.138 286.063 183.761C306.089 184.383 333.044 199.89 337.744 203.786C342.444 207.663 344.312 223.571 344.312 223.571L345.397 210.937C345.397 210.937 340.597 207.864 337.142 197.66C333.667 187.456 324.467 191.333 306.711 187.035C288.935 182.736 298.958 179.482 315.489 163.554C332.04 147.626 335.254 151.804 335.254 151.804L334.229 149.273C334.229 149.273 328.043 150.739 316.513 161.204C316.513 161.204 315.388 148.329 314.163 143.85C312.938 139.35 276.683 126.535 253.182 123.804C229.701 121.072 218.935 130.733 218.935 130.733V130.713Z"
            fill="#B3DBE0" />
    </g>
    <g style="mix-blend-mode:multiply" opacity="0.8">
        <path fill-rule="evenodd" clip-rule="evenodd"
            d="M276.12 80.7191C274.875 80.3174 252.017 72.8856 238.8 79.2529C225.182 85.7808 222.551 98.8769 222.551 98.8769L223.013 93.4135L215.922 94.3777C215.922 94.3777 212.126 90.1395 213.07 87.227C214.014 84.3346 219.739 80.5986 238.539 76.6818C256.396 72.9458 274.312 79.9559 276.08 80.679C276.1 80.6991 276.12 80.7191 276.14 80.7191H276.12Z"
            fill="#B3DBE0" />
    </g>
    <path fill-rule="evenodd" clip-rule="evenodd"
        d="M99.2222 242.995C99.2222 242.995 98.8808 243.316 98.5393 243.597C98.7603 243.336 98.9611 243.135 99.2222 242.995Z"
        fill="#D2F0F6" />
    <g style="mix-blend-mode:multiply" opacity="0.8">
        <path fill-rule="evenodd" clip-rule="evenodd"
            d="M206.341 325.829L200.797 327.477C200.797 327.477 135.859 331.715 150.843 307.491C150.843 307.491 140.82 310.022 118.766 290.819C96.7114 271.617 79.5378 273.023 76.083 274.269C72.7487 275.454 75.3599 286.38 75.5407 287.244L73.0299 283.347C73.0299 283.347 72.809 274.269 74.0342 270.392C75.2394 266.515 100.99 277.02 105.871 279.732C110.792 282.444 95.1246 256.312 92.2724 247.735C89.4001 239.158 90.4646 234.699 90.4646 234.699C90.4646 234.699 91.0873 236.145 91.9108 237.953C93.1963 240.825 94.984 244.601 95.5263 245.003C96.1289 245.465 97.5751 244.421 98.479 243.657C94.9037 248.297 97.8161 269.669 121.678 290.9C150.582 316.63 187.038 294.174 198.749 272.642C210.459 251.129 179.687 253.319 166.892 252.495C154.077 251.672 155.785 240.464 155.785 240.464L156.287 240.343L161.147 239.138L162.011 238.917C162.011 238.917 156.146 250.165 166.49 251.812C176.835 253.459 227.733 245.827 227.733 245.827L228.195 247.333C228.195 247.333 197.122 250.949 191.498 252.094C185.894 253.238 197.021 254.403 200.838 260.269C204.634 266.114 198.246 289.273 165.828 303.152C133.429 317.032 165.707 332.679 206.361 325.85L206.341 325.829Z"
            fill="#B3DBE0" />
    </g>
    <g style="mix-blend-mode:multiply" opacity="0.8">
        <path fill-rule="evenodd" clip-rule="evenodd"
            d="M232.855 290.619C232.855 290.619 227.512 296.604 204.072 305.302C180.651 314.019 163.357 313.738 163.357 313.738C163.357 313.738 176.152 315.204 190.353 315.204C204.554 315.204 201.38 308.355 210.158 304.378C218.935 300.401 225.564 300.561 228.175 298.05C230.766 295.54 232.855 290.619 232.855 290.619Z"
            fill="#D2F0F6" />
    </g>
    <g style="mix-blend-mode:multiply" opacity="0.8">
        <path fill-rule="evenodd" clip-rule="evenodd"
            d="M317.718 289.674C311.572 300.481 300.926 311.006 297.15 314.581C296.849 314.842 296.608 315.083 296.387 315.264C296.086 315.545 295.885 315.746 295.804 315.806C295.845 315.766 295.865 315.726 295.905 315.686C311.592 298.291 310.005 283.608 310.005 283.608C310.005 283.608 314.645 282.444 316.573 277.442C318.421 272.682 316.835 266.736 316.674 266.154C317.297 266.917 324.929 276.96 317.678 289.695L317.718 289.674Z"
            fill="#D2F0F6" />
    </g>
    <g style="mix-blend-mode:soft-light">
        <path fill-rule="evenodd" clip-rule="evenodd"
            d="M151.406 76.3202V65.9558C151.406 65.9558 187.34 69.2298 199.853 75.5971C212.387 81.9644 215.902 94.3776 215.902 94.3776C215.902 94.3776 185.592 79.5139 151.386 76.3001L151.406 76.3202Z"
            fill="#D7F2F7" />
    </g>
    <g style="mix-blend-mode:soft-light">
        <path fill-rule="evenodd" clip-rule="evenodd"
            d="M233.638 106.349C233.759 113.359 218.292 120.188 217.308 120.61C222.048 116.995 233.678 108.619 222.551 98.877C222.551 98.877 225.584 91.646 227.351 91.646C229.119 91.646 233.477 99.118 233.618 106.349H233.638Z"
            fill="#D7F2F7" />
    </g>
    <g style="mix-blend-mode:soft-light">
        <path fill-rule="evenodd" clip-rule="evenodd"
            d="M226.327 126.937L218.935 130.733C218.935 130.733 214.376 125.732 215.279 122.8C215.279 122.8 215.279 122.779 215.3 122.759C215.641 122.579 219.357 120.731 222.47 122.157C225.724 123.663 226.327 126.937 226.327 126.937Z"
            fill="#D7F2F7" />
    </g>
    <g style="mix-blend-mode:soft-light">
        <path fill-rule="evenodd" clip-rule="evenodd"
            d="M205.578 221.583C203.83 222.185 197.122 223.873 197.122 223.873C206.02 217.606 211.965 209.832 212.367 200.452C214.014 164.518 208.008 149.795 208.571 144.894C208.651 144.171 208.932 143.328 209.394 142.444V142.404C209.394 142.404 216.967 181.531 218.815 197.881C220.642 214.231 207.325 220.98 205.578 221.603V221.583Z"
            fill="#D7F2F7" />
    </g>
    <g style="mix-blend-mode:soft-light">
        <path fill-rule="evenodd" clip-rule="evenodd"
            d="M194.008 229.858C191.839 232.027 163.719 250.948 161.148 249.482C158.577 247.996 161.148 239.118 161.148 239.118L162.011 238.897C172.617 236.045 182.961 232.248 191.538 227.408H192.1C192.1 227.408 196.198 227.689 194.029 229.858H194.008Z"
            fill="#D7F2F7" />
    </g>
    <g style="mix-blend-mode:soft-light">
        <path fill-rule="evenodd" clip-rule="evenodd"
            d="M155.805 240.444C155.805 240.444 153.434 251.913 141.845 253.138C130.255 254.363 100.447 254.504 98.8807 252.194C97.314 249.884 99.2221 242.995 99.2221 242.995H99.2824C101.311 243.718 103.742 244.38 106.694 244.842C115.853 246.329 135.739 245.083 155.785 240.444H155.805Z"
            fill="#D7F2F7" />
    </g>
    <g style="mix-blend-mode:soft-light">
        <path fill-rule="evenodd" clip-rule="evenodd"
            d="M85.0214 223.411C85.0214 223.411 62.4045 230.139 57.7043 217.485C53.0042 204.811 54.8119 171.709 56.0372 170.283C56.921 169.279 60.3557 173.316 62.2639 175.766C63.0472 176.751 63.5494 177.474 63.5494 177.474C63.5494 177.474 58.2266 219.795 70.218 223.611C76.1835 225.5 81.3456 224.375 85.0013 223.411H85.0214Z"
            fill="#D7F2F7" />
    </g>
    <g style="mix-blend-mode:soft-light">
        <path fill-rule="evenodd" clip-rule="evenodd"
            d="M322.84 263.362C322.84 263.362 321.675 270.03 320.832 271.396C320.028 272.662 317.116 266.937 316.734 266.194C316.734 266.134 316.714 266.114 316.714 266.114V266.073C317.859 260.59 318.462 254.444 318.341 247.554C318.02 230.461 293.093 185.026 275.558 187.537C279.354 186.633 286.645 185.488 292.049 188.24C299.681 192.137 322.68 232.027 323.925 243.898C325.15 255.729 322.84 263.362 322.84 263.362Z"
            fill="#D7F2F7" />
    </g>
    <g style="mix-blend-mode:soft-light">
        <path fill-rule="evenodd" clip-rule="evenodd"
            d="M266.097 297.769C266.097 297.769 242.536 318.779 256.456 330.108C253.865 329.606 251.414 328.923 249.406 327.898C240.688 323.54 255.391 294.114 261.397 293.571C263.446 293.37 264.872 295.258 266.097 297.709V297.749V297.769Z"
            fill="#D7F2F7" />
    </g>
    <g style="mix-blend-mode:soft-light">
        <path fill-rule="evenodd" clip-rule="evenodd"
            d="M307.776 296.544C303.759 302.69 292.069 310.202 285.119 311.026C278.47 311.809 273.509 309.138 273.027 308.776C273.449 308.897 273.931 308.937 274.453 308.837C278.972 308.093 298.597 303.132 310.005 283.588C310.005 283.588 311.773 290.398 307.756 296.544H307.776Z"
            fill="#D7F2F7" />
    </g>
    <g style="mix-blend-mode:soft-light">
        <path fill-rule="evenodd" clip-rule="evenodd"
            d="M226.327 126.937C226.327 126.937 254.106 127.821 259.911 127.821C265.716 127.821 286.143 135.152 286.143 135.152C286.143 135.152 265.535 126.495 254.086 124.446C242.657 122.398 226.327 126.937 226.327 126.937Z"
            fill="#D7F2F7" />
    </g>
    <g style="mix-blend-mode:soft-light">
        <path fill-rule="evenodd" clip-rule="evenodd"
            d="M237.234 201.155C237.234 201.155 247.196 192.88 250.832 191.132C258.485 187.437 268.568 185.629 272.103 184.785C275.638 183.942 276.401 183.901 276.401 183.901C276.401 183.901 265.696 184.243 254.568 189.284C243.44 194.326 237.234 201.155 237.234 201.155Z"
            fill="#D7F2F7" />
    </g>
    <g style="mix-blend-mode:soft-light">
        <path fill-rule="evenodd" clip-rule="evenodd"
            d="M226.327 90.2801C226.327 90.2801 236.631 80.4379 245.308 78.5699C253.985 76.7019 263.044 77.6058 263.044 77.6058C263.044 77.6058 254.487 74.6933 242.757 77.8067C231.027 80.92 226.347 90.26 226.347 90.26L226.327 90.2801Z"
            fill="#D7F2F7" />
    </g>
    <g style="mix-blend-mode:soft-light">
        <path fill-rule="evenodd" clip-rule="evenodd"
            d="M189.951 252.696C189.951 252.696 198.508 250.908 208.852 249.643C219.196 248.378 225.564 247.614 225.564 247.614C225.564 247.614 219.116 250.808 211.905 251.772C204.694 252.716 189.951 252.716 189.951 252.716V252.696Z"
            fill="#D7F2F7" />
    </g>
    <g style="mix-blend-mode:soft-light">
        <path fill-rule="evenodd" clip-rule="evenodd"
            d="M107.678 282.524C107.678 282.524 119.469 292.647 127.744 300.2C136.02 307.752 143.974 308.877 147.449 308.676C150.924 308.475 151.426 307.25 151.426 307.25C151.426 307.25 149.498 307.23 140.901 305.522C132.304 303.815 115.934 287.003 107.658 282.524H107.678Z"
            fill="#D7F2F7" />
    </g>
    <g style="mix-blend-mode:soft-light">
        <path fill-rule="evenodd" clip-rule="evenodd"
            d="M157.974 307.31C157.974 307.31 170.729 303.172 174.826 300.099C178.904 297.026 180.812 295.299 188.666 289.373C196.519 283.448 200.235 271.999 200.235 271.999C200.235 271.999 198.166 281.56 184.327 292.045C170.488 302.53 157.974 307.33 157.974 307.33V307.31Z"
            fill="#D7F2F7" />
    </g>
    <g style="mix-blend-mode:soft-light">
        <path fill-rule="evenodd" clip-rule="evenodd"
            d="M305.225 187.657C305.225 187.657 328.444 197.399 332.422 201.155C336.399 204.911 340.978 209.129 340.978 209.129C340.978 209.129 339.371 204.349 333.908 201.155C328.444 197.961 311.833 191.212 305.225 187.657Z"
            fill="#D7F2F7" />
    </g>
    <g style="mix-blend-mode:soft-light">
        <path fill-rule="evenodd" clip-rule="evenodd"
            d="M300.244 177.333C300.244 177.333 307.093 171.83 314.746 165.904C322.399 159.979 327.099 153.953 327.099 153.953C327.099 153.953 322.137 158.593 316.815 162.269C311.492 165.945 300.244 177.333 300.244 177.333Z"
            fill="#D7F2F7" />
    </g>
    <g style="mix-blend-mode:multiply" opacity="0.3">
        <path fill-rule="evenodd" clip-rule="evenodd"
            d="M260.513 131.677C249.486 131.959 234.522 165.382 233.618 180.085C232.714 194.788 264.169 185.267 288.493 175.344C312.817 165.422 311.773 154.756 306.068 146.38C300.344 138.004 268.287 131.477 260.513 131.677Z"
            fill="#D2F0F6" />
    </g>
    <g style="mix-blend-mode:multiply" opacity="0.3">
        <path fill-rule="evenodd" clip-rule="evenodd"
            d="M278.952 83.7121C272.083 79.735 266.519 108.559 264.972 117.658C263.426 126.757 297.512 130.111 308.117 138.909C318.743 147.686 321.796 140.134 322.017 136.659C322.218 133.184 300.766 96.3261 278.972 83.7121H278.952Z"
            fill="#D2F0F6" />
    </g>
    <g style="mix-blend-mode:multiply" opacity="0.3">
        <path fill-rule="evenodd" clip-rule="evenodd"
            d="M170.226 307.31C164.743 304.9 194.33 293.25 203.529 277.944C212.729 262.619 204.353 261.193 209.856 258.742C215.38 256.292 231.308 258.943 234.582 268.343C237.856 277.743 223.595 297.709 200.235 305.101C176.875 312.492 170.226 307.31 170.226 307.31Z"
            fill="#D2F0F6" />
    </g>
    <g style="mix-blend-mode:multiply" opacity="0.3">
        <path fill-rule="evenodd" clip-rule="evenodd"
            d="M112.017 276.297C110.591 266.094 168.881 273.023 177.317 279.571C185.753 286.099 163.819 303.474 144.657 300.822C125.495 298.151 112.017 276.317 112.017 276.317V276.297Z"
            fill="#D2F0F6" />
    </g>
    <g style="mix-blend-mode:multiply" opacity="0.3">
        <path fill-rule="evenodd" clip-rule="evenodd"
            d="M78.1116 288.77C72.1862 278.506 113.403 290.116 129.552 302.931C145.721 315.746 157.974 327.778 157.974 327.778C157.974 327.778 106.092 337.198 78.1116 288.791V288.77Z"
            fill="#D2F0F6" />
    </g>
    <g style="mix-blend-mode:soft-light">
        <path fill-rule="evenodd" clip-rule="evenodd"
            d="M338.588 161.305C335.896 154.355 340.054 181.451 338.588 189.566C337.122 197.68 345.337 209.129 345.337 209.129C345.337 209.129 345.176 178.378 338.588 161.305Z"
            fill="#D6F3F7" />
    </g>
    <g style="mix-blend-mode:soft-light">
        <path fill-rule="evenodd" clip-rule="evenodd"
            d="M344.292 223.591C344.292 223.591 341.641 208.085 335.575 205.634C329.489 203.184 327.822 236.587 327.299 252.716C326.777 268.825 327.299 276.398 327.299 276.398C327.299 276.398 343.73 249.743 344.292 223.591Z"
            fill="#D6F3F7" />
    </g>
    <g style="mix-blend-mode:soft-light">
        <path fill-rule="evenodd" clip-rule="evenodd"
            d="M305.225 104.561C305.225 104.561 322.439 130.191 323.102 140.274C323.785 150.358 333.506 147.586 333.506 147.586C333.506 147.586 324.869 125.672 305.225 104.561Z"
            fill="#D6F3F7" />
    </g>
    <g style="mix-blend-mode:soft-light">
        <path fill-rule="evenodd" clip-rule="evenodd"
            d="M230.083 126.174C230.083 126.174 240.568 128.644 245.871 127.52C251.173 126.395 254.729 125.17 254.729 125.17C254.729 125.17 246.152 122.438 230.083 126.194V126.174Z"
            fill="#D7F2F7" />
    </g>
    <g style="mix-blend-mode:multiply" opacity="0.3">
        <path fill-rule="evenodd" clip-rule="evenodd"
            d="M188.967 249.563C185.432 246.751 218.493 221.623 235.044 209.129C251.595 196.636 263.024 195.31 263.024 195.31C263.024 195.31 247.578 224.455 235.044 236.949C222.511 249.442 188.967 249.583 188.967 249.583V249.563Z"
            fill="#D2F0F6" />
    </g>
    <g style="mix-blend-mode:soft-light">
        <path fill-rule="evenodd" clip-rule="evenodd"
            d="M309.463 169.078C309.463 169.078 313.34 167.15 316.011 164.9C318.683 162.65 321.073 159.678 321.073 159.678C321.073 159.678 313.299 165.121 309.463 169.078Z"
            fill="#D7F2F7" />
    </g>
    <g style="mix-blend-mode:soft-light">
        <path fill-rule="evenodd" clip-rule="evenodd"
            d="M172.978 60.5125C172.978 60.5125 203.047 69.4709 218.995 73.468C234.944 77.4652 264.209 75.5972 264.209 75.5972C264.209 75.5972 230.866 52.8396 172.978 60.4924V60.5125Z"
            fill="#D6F3F7" />
    </g>
    <g style="mix-blend-mode:soft-light">
        <path fill-rule="evenodd" clip-rule="evenodd"
            d="M51.3572 217.686C51.3572 217.686 65.4576 245.465 68.9325 255.669C72.4074 265.873 70.7201 278.346 70.7201 278.346C70.7201 278.346 54.0085 256.914 51.3773 217.686H51.3572Z"
            fill="#D6F3F7" />
    </g>
    <path fill-rule="evenodd" clip-rule="evenodd"
        d="M113.543 131.588C105.63 127.752 96.4502 145.388 103.038 151.715C109.627 158.062 125.153 137.213 113.543 131.588Z"
        fill="white" />
    <g style="mix-blend-mode:screen">
        <path
            d="M240.367 333.694C302.356 333.694 352.608 285.933 352.608 227.017C352.608 168.101 302.356 120.34 240.367 120.34C178.378 120.34 128.126 168.101 128.126 227.017C128.126 285.933 178.378 333.694 240.367 333.694Z"
            fill="url(#paint14_radial_360_2241)" />
    </g>
    <path fill-rule="evenodd" clip-rule="evenodd"
        d="M184.769 188.693C184.769 195.201 179.506 200.464 172.998 200.464C166.49 200.464 161.228 195.201 161.228 188.693C161.228 182.185 166.49 176.923 172.998 176.923C179.506 176.923 184.769 182.185 184.769 188.693Z"
        fill="url(#paint15_radial_360_2241)" />
    <path fill-rule="evenodd" clip-rule="evenodd"
        d="M177.859 188.693C177.859 191.385 175.69 193.554 172.998 193.554C170.307 193.554 168.137 191.385 168.137 188.693C168.137 186.001 170.307 183.832 172.998 183.832C175.69 183.832 177.859 186.001 177.859 188.693Z"
        fill="url(#paint16_radial_360_2241)" />
    <path fill-rule="evenodd" clip-rule="evenodd"
        d="M175.569 188.693C175.569 190.119 174.424 191.264 172.998 191.264C171.572 191.264 170.427 190.119 170.427 188.693C170.427 187.267 171.572 186.122 172.998 186.122C174.424 186.122 175.569 187.267 175.569 188.693Z"
        fill="url(#paint17_radial_360_2241)" />
    <path style="mix-blend-mode:screen" fill-rule="evenodd" clip-rule="evenodd"
        d="M183.684 147.296C183.684 151.192 180.531 154.346 176.634 154.346C172.737 154.346 169.584 151.192 169.584 147.296C169.584 143.399 172.737 140.245 176.634 140.245C180.531 140.245 183.684 143.399 183.684 147.296Z"
        fill="url(#paint18_radial_360_2241)" />
    <path style="mix-blend-mode:screen" fill-rule="evenodd" clip-rule="evenodd"
        d="M179.546 147.296C179.546 148.903 178.241 150.208 176.634 150.208C175.027 150.208 173.721 148.903 173.721 147.296C173.721 145.689 175.027 144.383 176.634 144.383C178.241 144.383 179.546 145.689 179.546 147.296Z"
        fill="url(#paint19_radial_360_2241)" />
    <path
        d="M176.634 148.842C177.488 148.842 178.18 148.15 178.18 147.296C178.18 146.441 177.488 145.749 176.634 145.749C175.78 145.749 175.087 146.441 175.087 147.296C175.087 148.15 175.78 148.842 176.634 148.842Z"
        fill="url(#paint20_radial_360_2241)" />
    <path fill-rule="evenodd" clip-rule="evenodd"
        d="M132.003 231.436C132.003 234.168 129.773 236.397 127.041 236.397C124.31 236.397 122.08 234.168 122.08 231.436C122.08 228.705 124.31 226.475 127.041 226.475C129.773 226.475 132.003 228.705 132.003 231.436Z"
        fill="url(#paint21_radial_360_2241)" />
    <path
        d="M127.041 233.485C128.173 233.485 129.09 232.568 129.09 231.436C129.09 230.305 128.173 229.387 127.041 229.387C125.91 229.387 124.993 230.305 124.993 231.436C124.993 232.568 125.91 233.485 127.041 233.485Z"
        fill="url(#paint22_radial_360_2241)" />
    <g style="mix-blend-mode:screen">
        <path fill-rule="evenodd" clip-rule="evenodd"
            d="M128.126 231.436C128.126 232.039 127.644 232.521 127.041 232.521C126.439 232.521 125.957 232.039 125.957 231.436C125.957 230.834 126.439 230.351 127.041 230.351C127.644 230.351 128.126 230.834 128.126 231.436Z"
            fill="url(#paint23_radial_360_2241)" />
    </g>
    <path fill-rule="evenodd" clip-rule="evenodd"
        d="M160.023 209.422C160.023 211.631 158.235 213.419 156.026 213.419C153.816 213.419 152.028 211.631 152.028 209.422C152.028 207.212 153.816 205.425 156.026 205.425C158.235 205.425 160.023 207.212 160.023 209.422Z"
        fill="url(#paint24_radial_360_2241)" />
    <path style="mix-blend-mode:screen" fill-rule="evenodd" clip-rule="evenodd"
        d="M157.693 209.422C157.693 210.326 156.949 211.069 156.046 211.069C155.142 211.069 154.399 210.326 154.399 209.422C154.399 208.518 155.142 207.775 156.046 207.775C156.949 207.775 157.693 208.518 157.693 209.422Z"
        fill="url(#paint25_radial_360_2241)" />
    <g style="mix-blend-mode:screen">
        <path fill-rule="evenodd" clip-rule="evenodd"
            d="M156.909 209.422C156.909 209.904 156.528 210.306 156.025 210.306C155.523 210.306 155.142 209.924 155.142 209.422C155.142 208.92 155.543 208.538 156.025 208.538C156.507 208.538 156.909 208.92 156.909 209.422Z"
            fill="url(#paint26_radial_360_2241)" />
    </g>
    <path
        d="M162.031 151.514C163.141 151.514 164.04 150.614 164.04 149.505C164.04 148.396 163.141 147.496 162.031 147.496C160.922 147.496 160.023 148.396 160.023 149.505C160.023 150.614 160.922 151.514 162.031 151.514Z"
        fill="url(#paint27_radial_360_2241)" />
    <path style="mix-blend-mode:screen" fill-rule="evenodd" clip-rule="evenodd"
        d="M162.855 149.505C162.855 149.967 162.493 150.329 162.031 150.329C161.569 150.329 161.208 149.967 161.208 149.505C161.208 149.043 161.569 148.682 162.031 148.682C162.493 148.682 162.855 149.043 162.855 149.505Z"
        fill="url(#paint28_radial_360_2241)" />
    <path style="mix-blend-mode:screen" fill-rule="evenodd" clip-rule="evenodd"
        d="M162.453 149.505C162.453 149.746 162.252 149.947 162.011 149.947C161.77 149.947 161.569 149.746 161.569 149.505C161.569 149.264 161.77 149.063 162.011 149.063C162.252 149.063 162.453 149.264 162.453 149.505Z"
        fill="url(#paint29_radial_360_2241)" />
    <path fill-rule="evenodd" clip-rule="evenodd"
        d="M100.488 207.775C100.488 209.583 99.0214 211.049 97.2136 211.049C95.4059 211.049 93.9396 209.583 93.9396 207.775C93.9396 205.967 95.4059 204.501 97.2136 204.501C99.0214 204.501 100.488 205.967 100.488 207.775Z"
        fill="url(#paint30_radial_360_2241)" />
    <path style="mix-blend-mode:screen" fill-rule="evenodd" clip-rule="evenodd"
        d="M98.5592 207.775C98.5592 208.518 97.9566 209.141 97.1934 209.141C96.4301 209.141 95.8275 208.538 95.8275 207.775C95.8275 207.012 96.4301 206.409 97.1934 206.409C97.9566 206.409 98.5592 207.012 98.5592 207.775Z"
        fill="url(#paint31_radial_360_2241)" />
    <path style="mix-blend-mode:screen" fill-rule="evenodd" clip-rule="evenodd"
        d="M97.9164 207.775C97.9164 208.176 97.595 208.498 97.1933 208.498C96.7916 208.498 96.4702 208.176 96.4702 207.775C96.4702 207.373 96.7916 207.052 97.1933 207.052C97.595 207.052 97.9164 207.373 97.9164 207.775Z"
        fill="url(#paint32_radial_360_2241)" />
    <defs>
        <radialGradient id="paint0_radial_360_2241" cx="0" cy="0" r="1"
            gradientUnits="userSpaceOnUse"
            gradientTransform="translate(198.126 200.753) rotate(45) scale(160)">
            <stop stop-color="#A2F9FF" />
            <stop offset="1" stop-color="#A1F9FF" stop-opacity="0" />
        </radialGradient>
        <radialGradient id="paint1_radial_360_2241" cx="0" cy="0" r="1"
            gradientUnits="userSpaceOnUse"
            gradientTransform="translate(192.341 234.598) scale(137.529 137.529)">
            <stop stop-color="#D7F1F7" />
            <stop offset="1" stop-color="#D5F0F7" />
        </radialGradient>
        <linearGradient id="paint2_linear_360_2241" x1="197.142" y1="215.075" x2="197.142"
            y2="70.154" gradientUnits="userSpaceOnUse">
            <stop stop-color="#D8F3F7" />
            <stop offset="0.77" stop-color="#D4F1F7" />
            <stop offset="1" stop-color="#D2F0F7" />
        </linearGradient>
        <linearGradient id="paint3_linear_360_2241" x1="71.2222" y1="146.642" x2="244.364"
            y2="146.642" gradientUnits="userSpaceOnUse">
            <stop stop-color="#D8F0F7" />
            <stop offset="1" stop-color="#D8F3F7" />
        </linearGradient>
        <linearGradient id="paint4_linear_360_2241" x1="137.426" y1="260.67" x2="308.318"
            y2="260.67" gradientUnits="userSpaceOnUse">
            <stop stop-color="#D2F0F6" />
            <stop offset="0.99" stop-color="#D2F2F7" />
        </linearGradient>
        <linearGradient id="paint5_linear_360_2241" x1="101.713" y1="252.977" x2="304.783"
            y2="252.977" gradientUnits="userSpaceOnUse">
            <stop stop-color="#D2F0F6" />
            <stop offset="0.99" stop-color="#D2F2F7" />
        </linearGradient>
        <linearGradient id="paint6_linear_360_2241" x1="93.8994" y1="181.39" x2="332.582"
            y2="181.39" gradientUnits="userSpaceOnUse">
            <stop stop-color="#D2F0F6" />
            <stop offset="0.99" stop-color="#D2F2F7" />
        </linearGradient>
        <radialGradient id="paint7_radial_360_2241" cx="0" cy="0" r="1"
            gradientUnits="userSpaceOnUse"
            gradientTransform="translate(237.748 228.694) rotate(3.17) scale(65.397 62.031)">
            <stop offset="0.01" stop-color="#D2F4F7" />
            <stop offset="1" stop-color="#D2F0F6" />
        </radialGradient>
        <linearGradient id="paint8_linear_360_2241" x1="208.29" y1="148.248" x2="208.29"
            y2="71.6804" gradientUnits="userSpaceOnUse">
            <stop stop-color="#D8F3F7" />
            <stop offset="0.77" stop-color="#D4F1F7" />
            <stop offset="1" stop-color="#D2F0F7" />
        </linearGradient>
        <linearGradient id="paint9_linear_360_2241" x1="112.8" y1="177.474" x2="112.8" y2="77.6862"
            gradientUnits="userSpaceOnUse">
            <stop stop-color="#D2F0F6" />
            <stop offset="0.99" stop-color="#D2F4F7" />
        </linearGradient>
        <linearGradient id="paint10_linear_360_2241" x1="145.079" y1="323.399" x2="270.416"
            y2="323.399" gradientUnits="userSpaceOnUse">
            <stop stop-color="#D2F0F7" />
            <stop offset="1" stop-color="#D8F3F7" />
        </linearGradient>
        <linearGradient id="paint11_linear_360_2241" x1="129.552" y1="332.338" x2="268.427"
            y2="332.338" gradientUnits="userSpaceOnUse">
            <stop offset="0.01" stop-color="#D2F4F7" />
            <stop offset="1" stop-color="#D2F0F6" />
        </linearGradient>
        <radialGradient id="paint12_radial_360_2241" cx="0" cy="0" r="1"
            gradientUnits="userSpaceOnUse"
            gradientTransform="translate(55.9769 167.009) scale(0.160692 0.160688)">
            <stop stop-color="#D3F0F6" />
            <stop offset="1" stop-color="#D2F0F6" />
        </radialGradient>
        <radialGradient id="paint13_radial_360_2241" cx="0" cy="0" r="1"
            gradientUnits="userSpaceOnUse"
            gradientTransform="translate(174.324 170.946) scale(142.129 142.129)">
            <stop stop-color="#D3F0F6" />
            <stop offset="1" stop-color="#D2F0F6" />
        </radialGradient>
        <radialGradient id="paint14_radial_360_2241" cx="0" cy="0" r="1"
            gradientUnits="userSpaceOnUse"
            gradientTransform="translate(240.878 226.646) scale(112.355 106.572)">
            <stop offset="0.01" stop-color="#8EB0D9" />
            <stop offset="1" stop-color="white" stop-opacity="0" />
        </radialGradient>
        <radialGradient id="paint15_radial_360_2241" cx="0" cy="0" r="1"
            gradientUnits="userSpaceOnUse"
            gradientTransform="translate(172.998 188.693) scale(11.7704)">
            <stop stop-color="white" />
            <stop offset="1" stop-color="white" stop-opacity="0" />
        </radialGradient>
        <radialGradient id="paint16_radial_360_2241" cx="0" cy="0" r="1"
            gradientUnits="userSpaceOnUse"
            gradientTransform="translate(172.998 188.693) scale(4.86083)">
            <stop offset="0.59" stop-color="white" />
            <stop offset="1" stop-color="white" stop-opacity="0" />
        </radialGradient>
        <radialGradient id="paint17_radial_360_2241" cx="0" cy="0" r="1"
            gradientUnits="userSpaceOnUse"
            gradientTransform="translate(172.998 188.693) scale(2.57102)">
            <stop offset="0.84" stop-color="white" />
            <stop offset="1" stop-color="white" stop-opacity="0" />
        </radialGradient>
        <radialGradient id="paint18_radial_360_2241" cx="0" cy="0" r="1"
            gradientUnits="userSpaceOnUse"
            gradientTransform="translate(176.634 147.296) scale(7.05021 7.05021)">
            <stop stop-color="white" />
            <stop offset="1" stop-color="white" stop-opacity="0" />
        </radialGradient>
        <radialGradient id="paint19_radial_360_2241" cx="0" cy="0" r="1"
            gradientUnits="userSpaceOnUse"
            gradientTransform="translate(176.634 147.296) scale(2.91248)">
            <stop offset="0.59" stop-color="white" />
            <stop offset="1" stop-color="white" stop-opacity="0" />
        </radialGradient>
        <radialGradient id="paint20_radial_360_2241" cx="0" cy="0" r="1"
            gradientUnits="userSpaceOnUse"
            gradientTransform="translate(176.634 147.296) scale(1.54663)">
            <stop offset="0.84" stop-color="white" />
            <stop offset="1" stop-color="white" stop-opacity="0" />
        </radialGradient>
        <radialGradient id="paint21_radial_360_2241" cx="0" cy="0" r="1"
            gradientUnits="userSpaceOnUse"
            gradientTransform="translate(127.041 231.436) scale(4.96126 4.96126)">
            <stop stop-color="white" />
            <stop offset="1" stop-color="white" stop-opacity="0" />
        </radialGradient>
        <radialGradient id="paint22_radial_360_2241" cx="0" cy="0" r="1"
            gradientUnits="userSpaceOnUse"
            gradientTransform="translate(127.041 231.436) scale(2.04878)">
            <stop offset="0.59" stop-color="white" />
            <stop offset="1" stop-color="white" stop-opacity="0" />
        </radialGradient>
        <radialGradient id="paint23_radial_360_2241" cx="0" cy="0" r="1"
            gradientUnits="userSpaceOnUse"
            gradientTransform="translate(127.041 231.436) scale(1.08465)">
            <stop offset="0.59" stop-color="#FFFFA2" />
            <stop offset="1" stop-color="#FFFFA2" stop-opacity="0" />
        </radialGradient>
        <radialGradient id="paint24_radial_360_2241" cx="0" cy="0" r="1"
            gradientUnits="userSpaceOnUse"
            gradientTransform="translate(156.026 209.422) scale(3.99712 3.99713)">
            <stop stop-color="white" />
            <stop offset="1" stop-color="white" stop-opacity="0" />
        </radialGradient>
        <radialGradient id="paint25_radial_360_2241" cx="0" cy="0" r="1"
            gradientUnits="userSpaceOnUse"
            gradientTransform="translate(156.026 209.422) scale(1.64706)">
            <stop offset="0.59" stop-color="white" />
            <stop offset="1" stop-color="white" stop-opacity="0" />
        </radialGradient>
        <radialGradient id="paint26_radial_360_2241" cx="0" cy="0" r="1"
            gradientUnits="userSpaceOnUse"
            gradientTransform="translate(156.025 209.422) scale(0.883792 0.883784)">
            <stop offset="0.59" stop-color="#FFFFA2" />
            <stop offset="1" stop-color="#FFFFA2" stop-opacity="0" />
        </radialGradient>
        <radialGradient id="paint27_radial_360_2241" cx="0" cy="0" r="1"
            gradientUnits="userSpaceOnUse"
            gradientTransform="translate(162.031 149.505) scale(2.00861)">
            <stop stop-color="white" />
            <stop offset="1" stop-color="white" stop-opacity="0" />
        </radialGradient>
        <radialGradient id="paint28_radial_360_2241" cx="0" cy="0" r="1"
            gradientUnits="userSpaceOnUse"
            gradientTransform="translate(162.031 149.505) scale(0.823528)">
            <stop offset="0.59" stop-color="white" />
            <stop offset="1" stop-color="white" stop-opacity="0" />
        </radialGradient>
        <radialGradient id="paint29_radial_360_2241" cx="0" cy="0" r="1"
            gradientUnits="userSpaceOnUse"
            gradientTransform="translate(162.031 149.505) scale(0.441888 0.441896)">
            <stop offset="0.59" stop-color="#FFFFA2" />
            <stop offset="1" stop-color="#FFFFA2" stop-opacity="0" />
        </radialGradient>
        <radialGradient id="paint30_radial_360_2241" cx="0" cy="0" r="1"
            gradientUnits="userSpaceOnUse"
            gradientTransform="translate(97.2136 207.775) scale(3.27403)">
            <stop stop-color="white" />
            <stop offset="1" stop-color="white" stop-opacity="0" />
        </radialGradient>
        <radialGradient id="paint31_radial_360_2241" cx="0" cy="0" r="1"
            gradientUnits="userSpaceOnUse"
            gradientTransform="translate(97.2135 207.775) scale(1.36585)">
            <stop offset="0.59" stop-color="white" />
            <stop offset="1" stop-color="white" stop-opacity="0" />
        </radialGradient>
        <radialGradient id="paint32_radial_360_2241" cx="0" cy="0" r="1"
            gradientUnits="userSpaceOnUse"
            gradientTransform="translate(97.2134 207.775) scale(0.723096 0.723092)">
            <stop offset="0.59" stop-color="#FFFFA2" />
            <stop offset="1" stop-color="#FFFFA2" stop-opacity="0" />
        </radialGradient>
    </defs>
</svg>
    