<svg width="440" height="440" viewBox="0 0 440 440" fill="none" xmlns="http://www.w3.org/2000/svg">
    <circle cx="220" cy="220" r="160" fill="url(#paint0_radial_2164_295449)" />
    <path
        d="M219.125 392.865C316.327 392.865 395.125 314.067 395.125 216.865C395.125 119.663 316.327 40.8649 219.125 40.8649C121.923 40.8649 43.125 119.663 43.125 216.865C43.125 314.067 121.923 392.865 219.125 392.865Z"
        fill="url(#paint1_radial_2164_295449)" style="mix-blend-mode:screen" />
    <path
        d="M220.001 395.171C316.744 395.171 395.17 316.745 395.17 220.002C395.17 123.259 316.744 44.8334 220.001 44.8334C123.258 44.8334 44.8318 123.259 44.8318 220.002C44.8318 316.745 123.258 395.171 220.001 395.171Z"
        fill="url(#paint2_radial_2164_295449)" />
    <path fill-rule="evenodd" clip-rule="evenodd"
        d="M378.932 225.001C378.932 270.957 359.441 312.338 328.261 341.338C313.345 355.234 295.787 366.261 276.408 373.621C258.873 380.292 239.88 383.93 220.002 383.93C212.945 383.93 205.971 383.46 199.16 382.579C168.475 378.554 140.58 365.79 117.972 346.825C101.541 333.069 87.9246 316.033 78.1371 296.732C71.9879 284.602 67.3573 271.591 64.4923 257.946C64.4644 257.918 64.4644 257.862 64.4644 257.806C62.2609 247.217 61.073 236.246 61.073 225.001C61.073 193.626 70.171 164.38 85.8562 139.732C92.5272 129.255 100.358 119.663 109.205 111.059C137.85 83.2148 176.911 66.0668 220.002 66.0668C223.478 66.0668 226.897 66.1786 230.312 66.3976C248.368 67.5575 265.6 71.7176 281.481 78.4165C284.266 79.5765 286.996 80.8156 289.698 82.1387C305.136 89.6668 319.14 99.6173 331.271 111.524C360.684 140.333 378.936 180.526 378.936 224.996L378.932 225.001Z"
        fill="url(#paint3_radial_2164_295449)" />
    <path fill-rule="evenodd" clip-rule="evenodd"
        d="M136.084 330.367C122.761 330.367 98.2384 310.96 86.5829 285.934C71.9971 254.703 71.8853 221.875 78.9336 215.824C80.9601 214.058 83.6899 213.159 87.0208 213.159C89.1823 213.159 91.6047 213.546 94.2275 214.305C111.119 219.192 134.416 242.503 144.493 265.833C154.364 288.683 151.434 306.841 148.653 317.943C146.137 328.168 140.435 330.344 136.093 330.367H136.079H136.084Z"
        fill="url(#paint4_linear_2164_295449)" />
    <path fill-rule="evenodd" clip-rule="evenodd"
        d="M145.979 317.272C144.409 323.668 141.264 327.581 136.08 327.609C124.582 327.609 100.545 309.385 89.0753 284.769C74.4383 253.422 75.2628 222.602 80.7226 217.915C83.4804 215.516 88.0271 215.381 93.4589 216.951C110.523 221.884 136.243 243.886 141.814 266.489C146.557 285.734 148.9 305.607 145.979 317.272Z"
        fill="url(#paint5_linear_2164_295449)" />
    <path fill-rule="evenodd" clip-rule="evenodd"
        d="M91.1576 202.715C89.3921 202.771 87.8781 202.132 86.774 200.865C82.4369 195.746 88.7725 178.183 91.5769 171.843C96.0724 161.683 100.512 156.456 104.774 156.307C106.354 156.255 107.914 156.824 109.279 157.918H109.344L110.174 158.715C115.032 163.565 117.283 174.587 112.885 183.265C109.698 189.55 99.72 200.604 92.9884 202.421C92.3688 202.593 91.7446 202.696 91.153 202.715H91.1576Z"
        fill="url(#paint6_linear_2164_295449)" />
    <path fill-rule="evenodd" clip-rule="evenodd"
        d="M111.105 182.222C107.989 188.362 98.0196 199.323 91.8937 200.982C90.3331 201.42 89.0334 201.21 88.1436 200.19C83.6155 194.846 96.6873 158.133 105.115 157.839C106.382 157.797 107.644 158.422 108.73 159.572H108.757C112.801 163.606 115.307 173.925 111.101 182.227L111.105 182.222Z"
        fill="url(#paint7_linear_2164_295449)" />
    <path fill-rule="evenodd" clip-rule="evenodd"
        d="M315.893 326.272C310.545 326.272 306.595 324.176 304.768 320.37C301.251 312.967 303.054 285.953 313.783 262.083C329.701 226.617 351.544 217.244 360.875 217.244C361.537 217.244 362.147 217.286 362.702 217.366C363.06 217.421 363.368 217.487 363.68 217.589C366.098 218.181 368.213 220.142 369.759 223.352C376.043 236.41 372.428 268.651 362.17 290.993C352.602 311.784 330.106 326.272 315.898 326.272H315.893Z"
        fill="url(#paint8_linear_2164_295449)" />
    <path fill-rule="evenodd" clip-rule="evenodd"
        d="M359.664 289.843C347.068 317.216 313.019 331.196 307.256 319.177C304.335 313.028 305.518 287.197 316.298 263.215C332.482 227.153 354.619 218.996 362.31 220.095C362.478 220.123 362.641 220.151 362.809 220.207C373.7 222.909 372.042 262.884 359.664 289.847V289.843Z"
        fill="url(#paint9_linear_2164_295449)" />
    <path fill-rule="evenodd" clip-rule="evenodd"
        d="M357.396 214.706C356.18 214.706 355.076 214.412 354.111 213.83C347.547 209.879 343.168 184.043 347.692 175.961C348.936 173.715 350.603 172.989 351.782 172.774C352.271 172.677 352.816 172.625 353.375 172.625C360.782 172.625 368.245 181.346 370.742 192.908C372.494 200.926 369 207.573 365.143 211.123C362.73 213.392 359.897 214.706 357.396 214.706Z"
        fill="url(#paint10_linear_2164_295449)" />
    <path fill-rule="evenodd" clip-rule="evenodd"
        d="M363.274 209.097C360.573 211.631 357.456 212.623 355.527 211.468C350.263 208.296 346.21 184.258 350.096 177.312C350.645 176.32 351.363 175.658 352.276 175.49C357.68 174.414 365.483 181.612 368.045 193.491C369.508 200.19 366.75 205.896 363.274 209.097Z"
        fill="url(#paint11_linear_2164_295449)" />
    <path fill-rule="evenodd" clip-rule="evenodd"
        d="M229.971 381.913C229.003 381.913 227.996 381.899 226.948 381.867C210.662 381.382 198.182 374.446 195.964 368.292C195.135 365.995 195.69 363.703 197.446 362.156C202.584 357.628 223.752 357.4 227.945 357.4C241.664 357.4 258.332 358.742 259.818 365.143C260.196 366.773 260.107 369.293 257.559 372.051C253.786 376.202 248.596 381.913 229.971 381.913Z"
        fill="url(#paint12_linear_2164_295449)" />
    <path fill-rule="evenodd" clip-rule="evenodd"
        d="M255.537 370.178C251.675 374.422 246.821 379.696 227.032 379.109C207.802 378.54 194.641 368.301 199.272 364.22C205.528 358.704 255.43 358.402 257.14 365.762C257.471 367.197 256.921 368.683 255.542 370.174L255.537 370.178Z"
        fill="url(#paint13_linear_2164_295449)" />
    <path fill-rule="evenodd" clip-rule="evenodd"
        d="M306.949 227.307C296.327 227.307 288.156 222.257 283.936 213.084C273.85 191.101 273.85 148.061 281.201 130.741C283.06 126.362 285.263 123.706 287.942 122.616C290.611 121.512 293.397 120.949 296.211 120.949C305.602 120.949 315.339 127.233 324.371 139.121C339.167 158.594 349.476 190.211 345.591 204.177C344.347 208.682 340.453 213.476 334.62 217.668C326.295 223.701 315.949 227.302 306.953 227.302L306.949 227.307Z"
        fill="url(#paint14_linear_2164_295449)" />
    <path fill-rule="evenodd" clip-rule="evenodd"
        d="M342.926 203.446C341.822 207.443 338.1 211.771 333.004 215.437C319.107 225.499 295.125 230.819 286.442 211.934C276.626 190.542 276.682 148.443 283.74 131.822C285.203 128.374 286.936 126.003 288.976 125.179C318.944 112.773 348.745 182.548 342.926 203.446Z"
        fill="url(#paint15_linear_2164_295449)" />
    <path fill-rule="evenodd" clip-rule="evenodd"
        d="M145.979 317.272C130.457 322.815 106.475 303.403 93.9573 271.758C82.9306 243.97 91.2833 221.889 93.4588 216.951C110.523 221.884 136.242 243.886 141.814 266.489C146.556 285.734 148.9 305.607 145.979 317.272Z"
        fill="#FFFF45" />
    <path fill-rule="evenodd" clip-rule="evenodd"
        d="M255.537 370.178C222.62 380.353 199.272 364.225 199.272 364.225C205.528 358.709 255.43 358.406 257.14 365.767C257.471 367.202 256.921 368.688 255.542 370.178H255.537Z"
        fill="#FFFF45" />
    <path fill-rule="evenodd" clip-rule="evenodd"
        d="M354.423 287.392C331.983 324.031 307.256 319.177 307.256 319.177C304.335 313.028 305.518 287.197 316.298 263.215C332.482 227.153 354.619 218.996 362.31 220.095C362.478 220.123 362.641 220.151 362.809 220.207C367.136 233.577 370.612 260.983 354.428 287.392H354.423Z"
        fill="#FFFF45" />
    <path fill-rule="evenodd" clip-rule="evenodd"
        d="M333.004 215.437C319.107 225.499 295.125 230.819 286.442 211.934C276.626 190.542 276.682 148.443 283.74 131.822C289.945 130.992 301.382 133.061 314.728 152.608C333.059 179.459 339.209 200.083 333.008 215.437H333.004Z"
        fill="#FFFF45" />
    <path fill-rule="evenodd" clip-rule="evenodd"
        d="M363.274 209.097C360.573 211.631 357.456 212.623 355.527 211.468C350.263 208.296 346.21 184.258 350.096 177.312C354.26 179.711 360.433 184.7 362.087 193.659C363.135 199.281 363.382 204.657 363.274 209.097Z"
        fill="#FFFF45" />
    <path fill-rule="evenodd" clip-rule="evenodd"
        d="M111.105 182.222C107.989 188.362 98.0195 199.323 91.8936 200.982C92.2849 198.541 96.9527 170.04 108.729 159.572H108.757C112.801 163.607 115.307 173.925 111.101 182.227L111.105 182.222Z"
        fill="#FFFF45" />
    <path style="mix-blend-mode:soft-light" opacity="0.3" fill-rule="evenodd" clip-rule="evenodd"
        d="M302.211 262.553C300.641 266.331 298.875 269.527 296.448 272.806C294.599 275.289 292.149 277.162 290.686 279.948C285.697 289.377 286.745 299.961 283.819 309.86C282.249 315.264 278.141 319.564 276.543 325.024C275.825 327.507 276.212 329.738 276.128 332.3C276.016 335.277 274.502 337.317 272.709 339.633C270.78 342.167 268.05 344.128 265.073 345.311C262.674 346.276 260.084 345.889 257.517 345.889C251.811 345.889 246.295 345.116 240.784 343.518C235.739 342.055 231.052 339.712 225.951 338.282C222.448 337.317 220.054 337.62 216.55 338.338C213.574 338.943 210.21 338.612 207.178 338.557C201.83 338.445 196.784 341.477 192.042 343.821C188.539 345.558 186.252 347.543 184.901 351.349C183.331 355.676 183.387 359.701 178.174 361.411C175.141 362.403 171.447 361.355 168.47 360.75C165.74 360.172 162.791 360.503 160.006 360.531C154.574 360.559 149.501 358.933 144.707 356.394C139.084 353.417 134.123 348.866 129.6 344.538C127.145 342.195 124.005 340.872 121.466 338.584C117.963 335.496 114.52 332.71 111.236 329.375C106.274 324.329 100.843 319.172 95.3037 314.766C91.3626 311.649 87.9712 307.792 84.6357 304.153C81.85 301.121 80.1962 296.681 78.1278 293.183C74.0749 286.265 70.7674 277.935 68.7829 270.165C66.4676 261.151 63.8495 251.335 63.9567 241.963C64.0685 234.052 62.9365 226.384 62.9365 218.446C62.247 233.526 63.0203 246.043 64.4505 257.815C62.247 247.227 61.0591 236.256 61.0591 225.01C61.0591 193.635 70.1571 164.389 85.8423 139.741C92.5133 129.264 100.344 119.672 109.191 111.068C137.836 83.2241 176.897 66.0762 219.988 66.0762C223.464 66.0762 226.883 66.188 230.298 66.4069C248.354 67.5669 265.586 71.7269 281.467 78.4259C285.548 82.9213 289.628 87.7149 292.577 92.788C293.788 94.8843 294.757 97.1717 295.969 99.268C297.045 101.113 298.2 102.11 297.869 104.397C297.678 105.748 296.737 107.458 296.188 108.725C294.422 112.969 289.489 116.085 285.711 118.428C280.446 121.736 274.297 123.087 268.702 125.984C265.092 127.829 263.876 129.511 261.426 132.544C260.187 134.086 258.533 135.301 257.457 136.955C254.396 141.67 252.77 148.341 252.989 153.884C253.376 164.552 261.645 172.299 263.573 182.418C265.283 191.157 264.044 200.418 266.825 209.022C269.914 218.614 278.35 226.501 286.26 232.068C289.54 234.383 292.768 236.312 295.661 239.098C298.363 241.688 302.169 243.178 304.098 246.402C307.293 251.75 304.289 257.485 302.197 262.558L302.211 262.553Z"
        fill="url(#paint16_linear_2164_295449)" />
    <path fill-rule="evenodd" clip-rule="evenodd"
        d="M289.694 82.1434C289.172 82.1993 288.645 82.2552 288.124 82.3623C286.33 82.6931 284.928 82.53 283.162 82.0315C281.895 81.6728 280.982 81.1511 279.631 80.9275C277.703 80.6247 275.909 79.7955 273.98 79.5486C271.94 79.2737 270.174 78.4725 268.246 77.783C266.732 77.2333 265.931 77.4243 264.468 77.783C263.005 78.1697 261.985 77.564 260.69 77.0097C259.227 76.3761 257.769 76.2643 256.222 75.9615C252.197 75.1323 248.2 73.8372 244.203 72.817C241.72 72.1835 239.433 72.1835 236.899 72.1555C234.914 72.1276 233.121 72.7052 231.136 72.7052C229.813 72.7052 228.681 72.4863 227.358 72.2906C226.007 72.0437 224.628 72.3186 223.277 72.1229C221.265 71.8201 220.189 71.5173 218.148 72.1509C216.63 72.6493 215.446 72.5934 213.932 72.6726C212.251 72.7565 210.35 73.1944 208.696 73.581C205.719 74.2705 202.463 74.8202 199.407 74.7643C197.534 74.7643 194.777 74.2425 192.983 74.8761C191.823 75.2907 191.245 76.5299 190.449 77.3591C188.907 78.9569 187.002 80.3918 185.707 82.1853C184.411 83.9788 182.949 85.8236 183.06 88.0829C183.172 90.0395 184.081 92.3268 184.933 94.1204C185.814 96.021 186.116 97.7587 184.16 99.0258C181.705 100.652 178.868 102.142 176.054 102.939C174.181 103.489 172.5 103.819 170.925 102.468C170.347 101.97 169.989 101.006 169.271 100.619C168.526 100.232 167.753 100.619 166.956 100.866C164.972 101.444 163.043 102.105 161.03 102.436C159.791 102.627 158.715 103.288 157.504 103.512C156.041 103.787 154.993 102.711 153.479 103.069C151.355 103.568 149.235 104.448 147.027 104.56C145.457 104.644 143.473 103.954 142.15 103.153C141.376 102.711 141.185 102.273 140.3 102.52C139.583 102.683 138.507 103.568 138.12 104.117C137.598 104.863 137.403 105.827 136.881 106.6C136.331 107.453 135.805 108.282 135.311 109.191C134.402 110.956 133.326 112.61 132.166 114.18C131.337 115.284 130.76 116.77 129.851 117.79C129.381 118.34 128.36 118.727 127.755 119.141C126.101 120.301 124.363 121.345 122.766 122.588C119.677 125.016 116.756 127.69 113.612 130.033C111.212 131.826 107.849 132.874 105.119 134.002C103.409 134.691 101.644 135.185 99.9342 135.902C99.3845 136.121 98.3643 136.373 97.8938 136.783C97.2882 137.305 96.9574 138.274 96.4031 138.986C94.9124 140.808 93.3424 142.625 92.2151 144.721C91.5256 145.932 91.111 147.176 90.6731 148.499C90.0675 150.293 89.1032 151.946 88.493 153.735C87.2538 157.485 87.0022 161.398 85.628 165.121C84.8267 167.301 83.6714 169.285 82.6791 171.27C80.9695 174.633 80.7226 178.63 80.2241 182.352C79.9493 184.533 80.0564 187.039 80.4431 189.163C80.8577 191.45 80.7459 193.822 80.7179 196.165C80.69 198.648 79.1201 201.07 77.5455 202.948C76.1107 204.685 73.9351 205.347 72.3373 206.889C70.9863 208.212 69.3605 209.73 68.7828 211.603C68.5359 212.432 68.7549 213.369 68.6198 214.249C68.2611 216.206 67.7673 218.055 67.4878 220.04C67.185 222.495 67.1291 224.81 67.1291 227.288C67.1291 228.527 67.0452 229.799 67.1011 231.038C67.157 232.226 67.5949 233.326 67.6788 234.514C67.7347 235.343 67.567 236.167 67.6788 236.997C67.8465 237.933 68.2005 238.897 68.4241 239.81C68.9738 242.014 69.3884 244.166 69.803 246.369C70.1897 248.41 70.991 250.422 71.6245 252.407C72.505 255.109 73.0873 257.895 73.609 260.704C74.0236 262.8 73.9957 264.975 74.2985 267.1C74.5454 268.809 74.9321 270.547 75.0159 272.257C75.0998 274.847 74.4662 277.442 74.4383 280.06C74.4103 284.471 76.1759 288.883 77.1961 293.127C77.4989 294.315 77.8017 295.526 78.1324 296.709C67.2176 275.15 61.0684 250.781 61.0684 224.978C61.0684 193.603 70.1664 164.357 85.8516 139.708C92.5225 129.231 100.353 119.64 109.2 111.035C137.845 83.1915 176.907 66.0436 219.998 66.0436C223.473 66.0436 226.892 66.1554 230.307 66.3743C251.508 67.7253 271.577 73.241 289.689 82.1154L289.694 82.1434Z"
        fill="url(#paint17_linear_2164_295449)" />
    <path style="mix-blend-mode:soft-light" opacity="0.3" fill-rule="evenodd" clip-rule="evenodd"
        d="M275.723 345.884C278.844 344.021 281.877 342.032 285.054 340.289C288.473 338.417 291.855 337.122 295.465 335.715C298.135 334.676 298.414 334.592 300.571 336.311C302.551 337.886 304.945 338.221 307.428 338.24C310.829 338.268 314.528 338.533 314.845 342.856C315.278 348.787 306.32 353.953 302.085 356.347C298.666 358.281 294.948 359.585 291.385 361.22C288.375 362.599 284.965 364.202 281.644 364.658C278.774 365.049 276.864 363.703 275.015 361.574C272.793 359.017 272.942 356.566 272.942 353.375C272.942 349.672 272.76 347.151 275.727 345.889L275.723 345.884Z"
        fill="url(#paint18_linear_2164_295449)" />
    <path style="mix-blend-mode:soft-light" opacity="0.3" fill-rule="evenodd" clip-rule="evenodd"
        d="M323.086 123.711C325.471 128.43 327.171 134.789 330.772 138.716C332.687 140.798 334.168 141.153 336.819 141.12C338.128 141.106 340.546 141.609 341.762 141.171C343.481 140.552 343.378 138.642 343.318 136.96C343.085 130.694 338.832 124.88 334.9 120.366C332.347 117.431 328.08 113.868 323.901 114.664C322.676 117.52 322.387 120.678 323.081 123.706L323.086 123.711Z"
        fill="url(#paint19_linear_2164_295449)" />
    <g style="mix-blend-mode:screen">
        <path fill-rule="evenodd" clip-rule="evenodd"
            d="M125.752 349.131C109.321 335.375 95.7043 318.339 85.9168 299.038C79.7676 286.908 75.137 273.896 72.272 260.252C72.2441 260.224 72.2441 260.168 72.2441 260.112C70.0406 249.523 68.8527 238.552 68.8527 227.307C68.8527 195.932 77.9507 166.686 93.6359 142.038C100.307 131.561 108.138 121.969 116.984 113.365C145.629 85.5207 184.691 68.3728 227.782 68.3728C231.257 68.3728 234.677 68.4846 238.091 68.7035C248.866 69.393 259.343 71.1772 269.42 73.9117C257 69.8402 243.891 67.2687 230.312 66.3976C226.892 66.1786 223.473 66.0668 220.002 66.0668C176.911 66.0668 137.85 83.2148 109.205 111.059C100.353 119.658 92.5272 129.255 85.8562 139.732C70.171 164.38 61.073 193.626 61.073 225.001C61.073 236.251 62.2563 247.222 64.4644 257.806C64.4644 257.862 64.4644 257.918 64.4923 257.946C67.3573 271.591 71.9925 284.606 78.1371 296.732C87.9246 316.028 101.541 333.069 117.972 346.825C135.385 361.434 155.943 372.345 178.49 378.433C158.985 372.07 141.143 362.045 125.752 349.131Z"
            fill="url(#paint20_radial_2164_295449)" />
    </g>
    <path fill-rule="evenodd" clip-rule="evenodd"
        d="M235.59 373.835C235.138 374.464 234.416 375 235.04 375.666C235.357 376.006 235.972 376.276 236.419 376.393C237.16 376.584 238.478 376.472 239.065 376.001C239.652 375.531 239.563 374.911 239.195 374.357C238.464 373.258 237.57 373.095 236.377 373.574L235.594 373.835H235.59Z"
        fill="#FFFF45" />
    <path fill-rule="evenodd" clip-rule="evenodd"
        d="M131.672 107.104C130.005 107.653 129.353 107.812 127.671 109.205C126.334 110.309 124.894 111.329 123.599 112.545C121.871 114.171 121.363 115.885 120.846 117.65C120.338 119.369 119.863 121.303 120.557 122.248C120.925 122.747 122.029 122.719 122.873 122.486C124.102 122.141 125.477 121.27 126.79 120.436C128.463 119.369 129.967 117.781 131.207 115.95C132.059 114.697 132.586 113.262 133.173 112C133.587 111.115 133.759 110.341 134.02 109.503C134.249 108.771 134.267 108.306 134.128 107.798C133.927 107.076 133.489 107.01 131.677 107.099L131.672 107.104Z"
        fill="#FFFF45" />
    <path fill-rule="evenodd" clip-rule="evenodd"
        d="M150.488 104.211C149.808 104.774 148.327 105.832 149.501 106.656C149.818 106.88 150.097 106.763 150.432 106.857C150.693 106.931 150.759 107.136 151.066 107.02C152.021 106.656 151.639 103.945 150.563 104.49L150.488 104.211Z"
        fill="#FFFF45" />
    <path fill-rule="evenodd" clip-rule="evenodd"
        d="M155.422 114.063C155.855 113.821 156.302 113.695 156.759 113.686C156.861 114.273 157.401 115.424 156.563 115.88C155.86 116.262 156.074 115.004 155.738 114.716L155.422 114.063Z"
        fill="#FFFF45" />
    <path fill-rule="evenodd" clip-rule="evenodd"
        d="M165.037 114.338C165.936 114.692 166.826 115.065 167.706 115.452C167.99 115.2 168.424 115.247 168.759 115.023C169.192 114.739 169.579 114.133 169.747 113.63C169.998 112.871 169.611 112.247 169.262 111.669C169.029 111.282 168.806 110.709 168.452 110.448C168.037 110.141 167.226 110.262 166.793 110.467C166.257 110.723 165.866 111.273 165.507 111.762C165.172 112.223 164.781 112.987 164.762 113.565C164.743 114.189 165.242 114.846 165.698 115.163L165.037 114.338Z"
        fill="#FFFF45" />
    <path fill-rule="evenodd" clip-rule="evenodd"
        d="M173.124 298.186C174.023 298.54 174.913 298.913 175.793 299.299C176.077 299.048 176.511 299.094 176.846 298.871C177.279 298.587 177.666 297.981 177.834 297.478C178.085 296.718 177.699 296.094 177.349 295.512C177.116 295.125 176.893 294.552 176.539 294.291C176.124 293.984 175.313 294.105 174.88 294.31C174.344 294.566 173.953 295.116 173.594 295.605C173.259 296.066 172.868 296.83 172.854 297.408C172.835 298.032 173.334 298.689 173.79 299.006L173.129 298.177L173.124 298.186Z"
        fill="#FFFF45" />
    <path fill-rule="evenodd" clip-rule="evenodd"
        d="M139.378 122.961C138.991 123.231 138.679 123.567 138.437 123.972C138.805 124.433 138.986 124.866 139.611 125.048C139.862 125.118 140.128 125.127 140.333 124.932C140.594 124.675 140.454 124.391 140.524 124.14C140.696 123.529 140.864 123.371 140.519 122.812C140.309 122.477 140.165 122.341 139.802 122.341C139.545 122.341 138.991 122.411 138.861 122.7L139.378 122.966V122.961Z"
        fill="#FFFF45" />
    <path fill-rule="evenodd" clip-rule="evenodd"
        d="M141.418 137.198C141.353 137.351 140.659 139.112 141.558 138.604C142.01 138.348 141.847 137.659 141.544 137.458C141.558 137.402 141.577 137.342 141.59 137.286L141.418 137.198Z"
        fill="#FFFF45" />
    <path fill-rule="evenodd" clip-rule="evenodd"
        d="M128.151 161.44C127.55 162.228 127.475 162.544 127.2 163.36C127.457 163.597 127.96 163.732 128.291 163.718C128.817 163.695 128.84 163.527 128.859 163.024C128.873 162.619 129.041 162.297 128.943 161.906C128.84 161.506 128.444 161.096 127.978 161.352L128.151 161.44Z"
        fill="#FFFF45" />
    <path fill-rule="evenodd" clip-rule="evenodd"
        d="M148.471 124.68C148.816 124.997 149.03 125.388 149.119 125.854C148.639 125.975 148.583 125.505 148.513 125.132C148.401 124.536 148.676 124.722 148.956 124.247C149.007 124.256 149.063 124.27 149.114 124.279L148.471 124.685V124.68Z"
        fill="#FFFF45" />
    <path fill-rule="evenodd" clip-rule="evenodd"
        d="M143.771 105.906C143.389 106.172 143.076 106.507 142.834 106.913C143.062 107.192 142.951 107.7 143.477 107.663C143.85 107.635 144.153 107.239 144.334 106.931C144.544 106.573 144.563 106.284 144.586 105.897C144.6 105.701 144.595 104.858 144.236 105.413L143.766 105.906H143.771Z"
        fill="#FFFF45" />
    <path fill-rule="evenodd" clip-rule="evenodd"
        d="M204.629 96.1701C204.746 95.7368 204.811 95.1359 205.039 94.7446C205.105 94.6328 205.268 94.5349 205.347 94.4185C205.612 94.0365 205.528 93.9713 205.962 93.9619C206.456 93.948 206.777 93.9992 207.168 94.3113C208.505 95.3781 205.109 96.2027 204.983 95.1685L204.629 96.1701Z"
        fill="#FFFF45" />
    <path fill-rule="evenodd" clip-rule="evenodd"
        d="M216.029 100.386C215.856 101.159 215.363 102.203 216.075 102.715C216.69 103.158 217.981 102.464 218.47 102.021C219.336 101.229 220.394 99.7292 219.565 98.6251C219.08 97.9776 217.71 97.4838 216.919 97.5583C215.297 97.712 214.827 99.6453 214.603 101.192L216.029 100.391V100.386Z"
        fill="#FFFF45" />
    <path fill-rule="evenodd" clip-rule="evenodd"
        d="M221.018 84.7241C220.846 83.3964 220.603 82.0874 221.782 81.3933C222.425 81.0159 223.599 80.8808 224.204 81.3327C224.642 81.6588 225.029 82.2644 225.299 82.7163C225.704 83.3871 225.597 83.3871 225.388 84.002C224.903 85.4089 224.572 86.336 223.175 86.336C221.325 86.336 221.041 84.9011 221.018 83.1169V84.7241Z"
        fill="#FFFF45" />
    <path fill-rule="evenodd" clip-rule="evenodd"
        d="M238.119 108.012C239.13 107.737 240.001 107.206 240.728 106.428C240.001 105.976 238.408 105.04 238.119 106.405V108.012Z"
        fill="#FFFF45" />
    <path fill-rule="evenodd" clip-rule="evenodd"
        d="M179.338 319.377C180.349 319.103 181.22 318.572 181.947 317.794C181.22 317.342 179.627 316.405 179.338 317.77V319.377Z"
        fill="#FFC445" />
    <path fill-rule="evenodd" clip-rule="evenodd"
        d="M288.389 342.251C289.4 341.976 290.271 341.445 290.998 340.667C290.271 340.215 288.678 339.279 288.389 340.643V342.251Z"
        fill="#FFC445" />
    <path fill-rule="evenodd" clip-rule="evenodd"
        d="M251.298 128.491C252.304 127.252 253.763 124.992 255.589 126.231C256.651 126.953 256.954 128.859 255.938 129.613C254.997 130.317 254.135 130.517 253.073 130.806C252.262 131.03 251.056 130.494 251.298 129.292V128.491Z"
        fill="#FFFF45" />
    <path fill-rule="evenodd" clip-rule="evenodd"
        d="M180.675 157.96C181.682 156.721 183.14 154.462 184.966 155.701C186.028 156.423 186.331 158.328 185.315 159.083C184.374 159.787 183.512 159.987 182.45 160.276C181.64 160.499 180.433 159.964 180.675 158.762V157.96Z"
        fill="#FFC445" />
    <path fill-rule="evenodd" clip-rule="evenodd"
        d="M297.874 105.757C298.88 104.518 300.338 102.259 302.164 103.498C303.226 104.22 303.529 106.125 302.514 106.88C301.573 107.583 300.711 107.784 299.649 108.073C298.838 108.296 297.632 107.76 297.874 106.559V105.757Z"
        fill="#FFC445" />
    <path fill-rule="evenodd" clip-rule="evenodd"
        d="M232.184 214.072C233.191 212.833 234.649 210.574 236.475 211.813C237.537 212.53 237.84 214.44 236.824 215.195C235.883 215.898 235.021 216.099 233.959 216.387C233.149 216.611 231.942 216.075 232.184 214.873V214.072Z"
        fill="#FFC445" />
    <path fill-rule="evenodd" clip-rule="evenodd"
        d="M174.736 113.705C173.445 114.525 171.274 115.54 171.055 117.31C170.925 118.377 171.414 119.006 172.378 119.472C173.198 119.868 174.433 119.9 175.257 119.486C176.441 118.89 177.806 117.907 178.337 116.649C178.719 115.74 178.658 115.121 178.23 114.222C178.001 113.737 177.545 113.16 177.028 112.978C175.379 112.405 174.386 114.021 173.17 114.753L174.736 113.709V113.705Z"
        fill="#FFFF45" />
    <path fill-rule="evenodd" clip-rule="evenodd"
        d="M178.914 109.004C179.618 109.251 180.209 109.647 180.694 110.178C179.995 110.416 179.24 110.97 178.523 110.714C177.591 110.383 177.419 109.498 177.629 108.608C177.745 108.124 178.616 107.267 179.115 107.481C179.366 107.588 179.417 107.933 179.497 108.152C179.669 108.613 179.683 108.515 179.431 109H178.91L178.914 109.004Z"
        fill="#FFFF45" />
    <path fill-rule="evenodd" clip-rule="evenodd"
        d="M108.138 138.516C106.754 139.732 105.45 141.185 104.714 142.923C104.341 143.808 105.003 143.85 105.809 143.696C107.365 143.393 108.934 142.96 110.472 142.569C111.385 142.336 112.689 141.856 113.323 141.083C113.807 140.491 114.008 139.466 113.9 138.721C113.751 137.677 113.011 137.272 112.06 137.006C109.894 136.406 107.113 137.831 106.307 139.83L108.133 138.525L108.138 138.516Z"
        fill="#FFFF45" />
    <path fill-rule="evenodd" clip-rule="evenodd"
        d="M109.181 145.83C110.29 145.858 111.32 146.128 112.27 146.631C111.995 146.957 112.084 147.4 111.939 147.786C111.725 148.355 111.185 148.928 110.677 149.249C109.829 149.785 108.417 149.985 107.476 149.626C104.616 148.541 109.004 145.15 109.969 146.351L109.186 145.83H109.181Z"
        fill="#FFFF45" />
    <path fill-rule="evenodd" clip-rule="evenodd"
        d="M200.073 81.8405C201.14 81.3281 202.1 80.6759 203.255 80.4802C204.583 80.2566 205.813 79.9957 207.164 80.0004C207.844 80.0004 209.362 79.9445 208.92 81.0532C208.44 82.2551 205.854 83.3965 204.83 83.8809C203.069 84.7102 201.415 85.544 199.44 85.749C198.443 85.8515 196.77 85.926 196.207 84.9291C195.732 84.0906 195.96 83.4011 196.421 82.6231C196.906 81.8126 197.418 81.4725 198.308 81.1231C198.718 80.9601 201.005 80.3498 201.121 81.0625L200.078 81.8452L200.073 81.8405Z"
        fill="#FFFF45" />
    <path fill-rule="evenodd" clip-rule="evenodd"
        d="M182.31 82.3623C181.84 82.7024 178.23 84.7055 179.949 85.572C180.871 86.0379 182.688 85.9028 183.624 85.5068C184.458 85.1527 185.301 84.603 184.779 83.6434C183.722 81.7055 181.067 82.8235 179.697 83.6667L182.31 82.3623Z"
        fill="#FFFF45" />
    <path fill-rule="evenodd" clip-rule="evenodd"
        d="M132.427 213.998C132.693 215.484 133 217.105 134.291 218.088C135.628 219.103 137.146 218.693 138.46 217.92C139.434 217.347 140.356 216.732 141.306 216.145C141.861 215.805 142.35 215.717 142.373 214.925C142.401 214.072 141.614 212.926 141.125 212.283C140.538 211.51 139.359 210.588 138.446 210.247C136.452 209.502 132.646 210.247 132.693 212.959L132.432 214.002L132.427 213.998Z"
        fill="#FFD32F" />
    <path fill-rule="evenodd" clip-rule="evenodd"
        d="M246.295 215.581C246.56 217.067 246.868 218.689 248.158 219.672C249.495 220.692 251.014 220.277 252.328 219.504C253.301 218.931 254.224 218.316 255.174 217.729C255.728 217.389 256.218 217.3 256.241 216.508C256.269 215.656 255.481 214.51 254.992 213.867C254.405 213.094 253.227 212.171 252.314 211.831C250.32 211.086 246.514 211.831 246.56 214.538L246.3 215.581H246.295Z"
        fill="#FFBA00" />
    <path style="mix-blend-mode:screen"
        d="M189.831 181.465C236.22 162.05 263.736 122.2 251.288 92.4571C238.84 62.7143 191.143 54.3417 144.753 73.7563C98.3639 93.171 70.8487 133.021 83.2965 162.764C95.7443 192.507 143.441 200.879 189.831 181.465Z"
        fill="url(#paint21_radial_2164_295449)" />
    <path fill-rule="evenodd" clip-rule="evenodd"
        d="M83.8718 273.002C83.8718 273.002 82.5674 278.718 86.5784 285.934C90.5893 293.15 93.4916 292.787 93.4916 292.787C93.4916 292.787 90.0443 279.356 83.8718 273.002Z"
        fill="#FFFF59" />
    <path fill-rule="evenodd" clip-rule="evenodd"
        d="M343.346 194.627C343.346 194.627 338.678 208.081 337.998 209.968C337.998 209.968 345.344 207.895 343.346 194.627Z"
        fill="#FFFF59" />
    <path fill-rule="evenodd" clip-rule="evenodd"
        d="M368.348 198.829C368.348 198.829 365.119 201.294 363.298 207.485C363.298 207.485 367.267 209.348 368.348 198.829Z"
        fill="#FFFF59" />
    <path fill-rule="evenodd" clip-rule="evenodd"
        d="M317.118 323.458C317.118 323.458 332.174 313.689 340.844 312.995C340.844 312.995 331 325.089 317.118 323.458Z"
        fill="#FFFF59" />
    <circle cx="220" cy="220" r="200" fill="url(#paint22_radial_2164_295449)" fill-opacity="0.2" />
    <defs>
        <radialGradient id="paint0_radial_2164_295449" cx="0" cy="0" r="1"
            gradientUnits="userSpaceOnUse"
            gradientTransform="translate(220 220) rotate(90) scale(160)">
            <stop stop-color="white" />
            <stop offset="1" stop-color="white" stop-opacity="0" />
        </radialGradient>
        <radialGradient id="paint1_radial_2164_295449" cx="0" cy="0" r="1"
            gradientUnits="userSpaceOnUse"
            gradientTransform="translate(219.125 216.864) rotate(45.543) scale(177.209)">
            <stop stop-color="#FF9F00" />
            <stop offset="1" stop-color="white" stop-opacity="0" />
        </radialGradient>
        <radialGradient id="paint2_radial_2164_295449" cx="0" cy="0" r="1"
            gradientUnits="userSpaceOnUse"
            gradientTransform="translate(220.001 220.001) rotate(45) scale(175.169)">
            <stop stop-color="#FF7300" />
            <stop offset="1" stop-color="#FF7300" stop-opacity="0" />
        </radialGradient>
        <radialGradient id="paint3_radial_2164_295449" cx="0" cy="0" r="1"
            gradientUnits="userSpaceOnUse"
            gradientTransform="translate(121.568 150.675) scale(255.3 255.3)">
            <stop stop-color="#FFB80B" />
            <stop offset="0.26" stop-color="#FEB50C" />
            <stop offset="0.38" stop-color="#FDAE10" />
            <stop offset="0.48" stop-color="#FCA017" />
            <stop offset="0.57" stop-color="#F98E21" />
            <stop offset="0.64" stop-color="#F7762E" />
            <stop offset="0.66" stop-color="#F66D33" />
            <stop offset="0.72" stop-color="#EF6735" />
            <stop offset="0.81" stop-color="#DB583D" />
            <stop offset="0.91" stop-color="#BC4049" />
            <stop offset="0.98" stop-color="#A02A54" />
        </radialGradient>
        <linearGradient id="paint4_linear_2164_295449" x1="74.3776" y1="271.763" x2="151.331"
            y2="271.763" gradientUnits="userSpaceOnUse">
            <stop offset="0.01" stop-color="#FFA90B" />
            <stop offset="0.37" stop-color="#FFA60D" />
            <stop offset="0.64" stop-color="#FF9C16" />
            <stop offset="0.87" stop-color="#FF8C25" />
            <stop offset="1" stop-color="#FF8031" />
        </linearGradient>
        <linearGradient id="paint5_linear_2164_295449" x1="77.0936" y1="271.763" x2="147.265"
            y2="271.763" gradientUnits="userSpaceOnUse">
            <stop offset="0.01" stop-color="#FFE00B" />
            <stop offset="0.31" stop-color="#FFDD0C" />
            <stop offset="0.52" stop-color="#FFD311" />
            <stop offset="0.71" stop-color="#FFC31A" />
            <stop offset="0.89" stop-color="#FFAD26" />
            <stop offset="1" stop-color="#FF9B31" />
        </linearGradient>
        <linearGradient id="paint6_linear_2164_295449" x1="84.8149" y1="179.922" x2="115.452"
            y2="178.949" gradientUnits="userSpaceOnUse">
            <stop offset="0.01" stop-color="#FFA90B" />
            <stop offset="0.37" stop-color="#FFA60D" />
            <stop offset="0.64" stop-color="#FF9C16" />
            <stop offset="0.87" stop-color="#FF8C25" />
            <stop offset="1" stop-color="#FF8031" />
        </linearGradient>
        <linearGradient id="paint7_linear_2164_295449" x1="86.7007" y1="179.862" x2="113.501"
            y2="179.011" gradientUnits="userSpaceOnUse">
            <stop offset="0.01" stop-color="#FFE00B" />
            <stop offset="0.31" stop-color="#FFDD0C" />
            <stop offset="0.52" stop-color="#FFD311" />
            <stop offset="0.71" stop-color="#FFC31A" />
            <stop offset="0.89" stop-color="#FFAD26" />
            <stop offset="1" stop-color="#FF9B31" />
        </linearGradient>
        <linearGradient id="paint8_linear_2164_295449" x1="337.997" y1="326.272" x2="337.997"
            y2="217.244" gradientUnits="userSpaceOnUse">
            <stop offset="0.01" stop-color="#FF8E0B" />
            <stop offset="0.35" stop-color="#FD8B0D" />
            <stop offset="0.59" stop-color="#F88114" />
            <stop offset="0.81" stop-color="#F07120" />
            <stop offset="1" stop-color="#E65D31" />
        </linearGradient>
        <linearGradient id="paint9_linear_2164_295449" x1="305.882" y1="271.758" x2="370.053"
            y2="271.758" gradientUnits="userSpaceOnUse">
            <stop offset="0.01" stop-color="#FFE00B" />
            <stop offset="0.31" stop-color="#FFDD0C" />
            <stop offset="0.52" stop-color="#FFD311" />
            <stop offset="0.71" stop-color="#FFC31A" />
            <stop offset="0.89" stop-color="#FFAD26" />
            <stop offset="1" stop-color="#FF9B31" />
        </linearGradient>
        <linearGradient id="paint10_linear_2164_295449" x1="358.518" y1="214.706" x2="358.518"
            y2="172.625" gradientUnits="userSpaceOnUse">
            <stop offset="0.01" stop-color="#FFA90B" />
            <stop offset="0.37" stop-color="#FFA60D" />
            <stop offset="0.64" stop-color="#FF9C16" />
            <stop offset="0.87" stop-color="#FF8C25" />
            <stop offset="1" stop-color="#FF8031" />
        </linearGradient>
        <linearGradient id="paint11_linear_2164_295449" x1="358.495" y1="211.948" x2="358.495"
            y2="175.383" gradientUnits="userSpaceOnUse">
            <stop offset="0.01" stop-color="#FFE00B" />
            <stop offset="0.31" stop-color="#FFDD0C" />
            <stop offset="0.52" stop-color="#FFD311" />
            <stop offset="0.71" stop-color="#FFC31A" />
            <stop offset="0.89" stop-color="#FFAD26" />
            <stop offset="1" stop-color="#FF9B31" />
        </linearGradient>
        <linearGradient id="paint12_linear_2164_295449" x1="227.787" y1="381.913" x2="227.787"
            y2="357.4" gradientUnits="userSpaceOnUse">
            <stop offset="0.01" stop-color="#FFA90B" />
            <stop offset="0.37" stop-color="#FFA60D" />
            <stop offset="0.64" stop-color="#FF9C16" />
            <stop offset="0.87" stop-color="#FF8C25" />
            <stop offset="1" stop-color="#FF8031" />
        </linearGradient>
        <linearGradient id="paint13_linear_2164_295449" x1="227.782" y1="379.155" x2="227.782"
            y2="360.158" gradientUnits="userSpaceOnUse">
            <stop offset="0.01" stop-color="#FFE00B" />
            <stop offset="0.31" stop-color="#FFDD0C" />
            <stop offset="0.52" stop-color="#FFD311" />
            <stop offset="0.71" stop-color="#FFC31A" />
            <stop offset="0.89" stop-color="#FFAD26" />
            <stop offset="1" stop-color="#FF9B31" />
        </linearGradient>
        <linearGradient id="paint14_linear_2164_295449" x1="304.633" y1="227.279" x2="318.385"
            y2="123.711" gradientUnits="userSpaceOnUse">
            <stop offset="0.01" stop-color="#FFA90B" />
            <stop offset="0.37" stop-color="#FFA60D" />
            <stop offset="0.64" stop-color="#FF9C16" />
            <stop offset="0.87" stop-color="#FF8C25" />
            <stop offset="1" stop-color="#FF8031" />
        </linearGradient>
        <linearGradient id="paint15_linear_2164_295449" x1="304.987" y1="224.549" x2="318.012"
            y2="126.441" gradientUnits="userSpaceOnUse">
            <stop offset="0.01" stop-color="#FFE00B" />
            <stop offset="0.31" stop-color="#FFDD0C" />
            <stop offset="0.52" stop-color="#FFD311" />
            <stop offset="0.71" stop-color="#FFC31A" />
            <stop offset="0.89" stop-color="#FFAD26" />
            <stop offset="1" stop-color="#FF9B31" />
        </linearGradient>
        <linearGradient id="paint16_linear_2164_295449" x1="61.0684" y1="213.946" x2="305.509"
            y2="213.946" gradientUnits="userSpaceOnUse">
            <stop offset="0.01" stop-color="#FFE00B" />
            <stop offset="0.31" stop-color="#FFDD0C" />
            <stop offset="0.52" stop-color="#FFD311" />
            <stop offset="0.71" stop-color="#FFC31A" />
            <stop offset="0.89" stop-color="#FFAD26" />
            <stop offset="1" stop-color="#FF9B31" />
        </linearGradient>
        <linearGradient id="paint17_linear_2164_295449" x1="61.0684" y1="181.402" x2="289.694"
            y2="181.402" gradientUnits="userSpaceOnUse">
            <stop offset="0.01" stop-color="#FFE00B" />
            <stop offset="0.31" stop-color="#FFDD0C" />
            <stop offset="0.52" stop-color="#FFD311" />
            <stop offset="0.71" stop-color="#FFC31A" />
            <stop offset="0.89" stop-color="#FFAD26" />
            <stop offset="1" stop-color="#FF9B31" />
        </linearGradient>
        <linearGradient id="paint18_linear_2164_295449" x1="272.937" y1="349.849" x2="314.859"
            y2="349.849" gradientUnits="userSpaceOnUse">
            <stop offset="0.01" stop-color="#FFE00B" />
            <stop offset="0.31" stop-color="#FFDD0C" />
            <stop offset="0.52" stop-color="#FFD311" />
            <stop offset="0.71" stop-color="#FFC31A" />
            <stop offset="0.89" stop-color="#FFAD26" />
            <stop offset="1" stop-color="#FF9B31" />
        </linearGradient>
        <linearGradient id="paint19_linear_2164_295449" x1="322.713" y1="127.955" x2="343.346"
            y2="127.955" gradientUnits="userSpaceOnUse">
            <stop offset="0.01" stop-color="#FFE00B" />
            <stop offset="0.31" stop-color="#FFDD0C" />
            <stop offset="0.52" stop-color="#FFD311" />
            <stop offset="0.71" stop-color="#FFC31A" />
            <stop offset="0.89" stop-color="#FFAD26" />
            <stop offset="1" stop-color="#FF9B31" />
        </linearGradient>
        <radialGradient id="paint20_radial_2164_295449" cx="0" cy="0" r="1"
            gradientUnits="userSpaceOnUse"
            gradientTransform="translate(103.857 116.826) scale(209.19 209.19)">
            <stop stop-color="#FFFFD9" />
            <stop offset="1" stop-color="white" stop-opacity="0" />
        </radialGradient>
        <radialGradient id="paint21_radial_2164_295449" cx="0" cy="0" r="1"
            gradientUnits="userSpaceOnUse"
            gradientTransform="translate(168.381 126.975) rotate(-22.71) scale(91.2247 58.4494)">
            <stop stop-color="#FFBB00" />
            <stop offset="1" stop-color="white" stop-opacity="0" />
        </radialGradient>
        <radialGradient id="paint22_radial_2164_295449" cx="0" cy="0" r="1"
            gradientUnits="userSpaceOnUse"
            gradientTransform="translate(220 220) rotate(90) scale(200)">
            <stop stop-color="white" stop-opacity="0.3" />
            <stop offset="0.784" stop-color="white" />
            <stop offset="1" stop-color="white" stop-opacity="0" />
        </radialGradient>
    </defs>
</svg>
    