<svg width="400" height="401" viewBox="0 0 400 401" fill="none" xmlns="http://www.w3.org/2000/svg">
    <g clip-path="url(#clip0_1345_24306)">
        <path
            d="M341.424 341.437C419.529 263.331 419.529 136.697 341.424 58.5914C263.318 -19.5143 136.684 -19.5143 58.5779 58.5914C-19.5278 136.697 -19.5278 263.331 58.5779 341.437C136.684 419.543 263.318 419.543 341.424 341.437Z"
            fill="url(#paint0_radial_1345_24306)" style="mix-blend-mode:screen" />
        <path style="mix-blend-mode:screen"
            d="M312.603 312.617C374.792 250.428 374.792 149.6 312.603 87.4114C250.415 25.2226 149.587 25.2226 87.3978 87.4114C25.2089 149.6 25.2089 250.428 87.3978 312.617C149.587 374.806 250.415 374.806 312.603 312.617Z"
            fill="url(#paint1_radial_1345_24306)" />
        <path style="mix-blend-mode:screen"
            d="M307.453 307.466C366.797 248.122 366.797 151.906 307.453 92.5621C248.109 33.218 151.893 33.218 92.5486 92.5621C33.2044 151.906 33.2044 248.122 92.5486 307.466C151.893 366.811 248.109 366.811 307.453 307.466Z"
            fill="url(#paint2_radial_1345_24306)" />
        <path fill-rule="evenodd" clip-rule="evenodd"
            d="M344.483 204.558C344.483 246.337 326.764 283.956 298.419 310.319C284.859 322.952 268.897 332.976 251.28 339.668C235.339 345.732 218.073 349.04 200.002 349.04C193.586 349.04 187.246 348.612 181.055 347.812C153.159 344.152 127.8 332.549 107.247 315.308C92.3104 302.802 79.9315 287.315 71.0338 269.769C65.4436 258.741 61.234 246.913 58.6295 234.508C58.6041 234.483 58.6041 234.432 58.6041 234.381C56.6009 224.755 55.521 214.782 55.521 204.558C55.521 176.036 63.792 149.448 78.0512 127.041C84.1157 117.516 91.2347 108.797 99.277 100.975C125.318 75.662 160.829 60.0729 200.002 60.0729C203.162 60.0729 206.27 60.1746 209.374 60.3736C225.789 61.4281 241.454 65.21 255.892 71.2999C258.424 72.3544 260.906 73.4809 263.362 74.6837C277.397 81.5274 290.127 90.5734 301.155 101.398C327.895 127.587 344.488 164.127 344.488 204.554L344.483 204.558Z"
            fill="url(#paint3_radial_1345_24306)" />
        <path fill-rule="evenodd" clip-rule="evenodd"
            d="M123.713 300.346C111.601 300.346 89.3077 282.703 78.7117 259.952C65.4519 231.561 65.3503 201.717 71.7578 196.216C73.6001 194.61 76.0818 193.793 79.1098 193.793C81.0748 193.793 83.277 194.145 85.6613 194.835C101.017 199.277 122.197 220.469 131.357 241.678C140.331 262.451 137.667 278.959 135.139 289.051C132.852 298.347 127.668 300.325 123.721 300.346H123.709H123.713Z"
            fill="url(#paint4_linear_1345_24306)" />
        <path fill-rule="evenodd" clip-rule="evenodd"
            d="M132.708 288.441C131.281 294.256 128.422 297.813 123.709 297.839C113.257 297.839 91.4041 281.271 80.9775 258.893C67.6712 230.396 68.4207 202.377 73.3842 198.117C75.8913 195.936 80.0246 195.813 84.9627 197.24C100.475 201.725 123.857 221.727 128.922 242.275C133.233 259.77 135.363 277.837 132.708 288.441Z"
            fill="url(#paint5_linear_1345_24306)" />
        <path fill-rule="evenodd" clip-rule="evenodd"
            d="M82.8706 184.298C81.2656 184.349 79.8892 183.769 78.8855 182.617C74.9427 177.963 80.7023 161.997 83.2518 156.233C87.3386 146.996 91.3745 142.245 95.2496 142.109C96.6852 142.063 98.1039 142.579 99.3448 143.574H99.4041L100.158 144.299C104.575 148.707 106.621 158.727 102.623 166.617C99.726 172.33 90.6546 182.38 84.535 184.031C83.9717 184.188 83.4043 184.281 82.8664 184.298H82.8706Z"
            fill="url(#paint6_linear_1345_24306)" />
        <path fill-rule="evenodd" clip-rule="evenodd"
            d="M101.005 165.668C98.1716 171.25 89.1087 181.215 83.5397 182.723C82.121 183.121 80.9394 182.93 80.1305 182.003C76.0141 177.145 87.8975 143.769 95.5586 143.502C96.7105 143.464 97.8582 144.032 98.845 145.078H98.8704C102.546 148.745 104.825 158.126 101.001 165.673L101.005 165.668Z"
            fill="url(#paint7_linear_1345_24306)" />
        <path fill-rule="evenodd" clip-rule="evenodd"
            d="M287.175 296.623C282.314 296.623 278.722 294.717 277.062 291.257C273.865 284.528 275.504 259.969 285.257 238.269C299.728 206.028 319.586 197.507 328.069 197.507C328.67 197.507 329.225 197.545 329.729 197.617C330.055 197.668 330.334 197.727 330.618 197.821C332.816 198.358 334.739 200.141 336.145 203.059C341.858 214.93 338.571 244.24 329.246 264.551C320.547 283.452 300.096 296.623 287.18 296.623H287.175Z"
            fill="url(#paint8_linear_1345_24306)" />
        <path fill-rule="evenodd" clip-rule="evenodd"
            d="M326.967 263.505C315.516 288.39 284.562 301.099 279.324 290.173C276.668 284.583 277.744 261.1 287.544 239.298C302.256 206.515 322.381 199.099 329.373 200.099C329.525 200.124 329.674 200.15 329.826 200.201C339.727 202.657 338.22 238.997 326.967 263.51V263.505Z"
            fill="url(#paint9_linear_1345_24306)" />
        <path fill-rule="evenodd" clip-rule="evenodd"
            d="M324.905 195.199C323.8 195.199 322.796 194.932 321.919 194.403C315.952 190.812 311.971 167.324 316.084 159.977C317.214 157.935 318.731 157.275 319.802 157.08C320.247 156.991 320.742 156.944 321.25 156.944C327.984 156.944 334.768 164.872 337.038 175.384C338.631 182.672 335.455 188.715 331.948 191.942C329.754 194.005 327.179 195.199 324.905 195.199Z"
            fill="url(#paint10_linear_1345_24306)" />
        <path fill-rule="evenodd" clip-rule="evenodd"
            d="M330.25 190.1C327.793 192.404 324.96 193.306 323.207 192.256C318.421 189.372 314.737 167.519 318.269 161.205C318.769 160.303 319.421 159.701 320.251 159.549C325.163 158.571 332.257 165.114 334.586 175.913C335.916 182.003 333.409 187.191 330.25 190.1Z"
            fill="url(#paint11_linear_1345_24306)" />
        <path fill-rule="evenodd" clip-rule="evenodd"
            d="M209.065 347.206C208.184 347.206 207.269 347.193 206.317 347.164C191.511 346.723 180.165 340.417 178.15 334.823C177.396 332.735 177.9 330.651 179.496 329.245C184.168 325.129 203.411 324.921 207.223 324.921C219.695 324.921 234.848 326.141 236.199 331.96C236.542 333.442 236.461 335.733 234.145 338.24C230.714 342.014 225.997 347.206 209.065 347.206Z"
            fill="url(#paint12_linear_1345_24306)" />
        <path fill-rule="evenodd" clip-rule="evenodd"
            d="M232.307 336.538C228.796 340.396 224.383 345.19 206.393 344.656C188.911 344.14 176.947 334.831 181.156 331.121C186.844 326.107 232.209 325.832 233.764 332.523C234.064 333.828 233.565 335.179 232.311 336.534L232.307 336.538Z"
            fill="url(#paint13_linear_1345_24306)" />
        <path fill-rule="evenodd" clip-rule="evenodd"
            d="M279.044 206.655C269.389 206.655 261.96 202.064 258.123 193.725C248.955 173.74 248.955 134.613 255.637 118.867C257.327 114.887 259.33 112.473 261.766 111.482C264.192 110.478 266.725 109.965 269.283 109.965C277.82 109.965 286.672 115.678 294.883 126.486C308.334 144.188 317.706 172.931 314.174 185.628C313.043 189.723 309.502 194.081 304.2 197.893C296.632 203.377 287.226 206.65 279.049 206.65L279.044 206.655Z"
            fill="url(#paint14_linear_1345_24306)" />
        <path fill-rule="evenodd" clip-rule="evenodd"
            d="M311.751 184.963C310.748 188.597 307.364 192.531 302.731 195.864C290.098 205.012 268.296 209.848 260.402 192.679C251.479 173.232 251.53 134.96 257.946 119.85C259.275 116.716 260.851 114.56 262.706 113.811C289.949 102.533 317.041 165.965 311.751 184.963Z"
            fill="url(#paint15_linear_1345_24306)" />
        <path fill-rule="evenodd" clip-rule="evenodd"
            d="M132.708 288.441C118.597 293.481 96.7952 275.833 85.4158 247.065C75.3915 221.803 82.9849 201.729 84.9626 197.24C100.475 201.725 123.857 221.727 128.922 242.275C133.233 259.77 135.363 277.837 132.708 288.441Z"
            fill="#FFFF45" />
        <path fill-rule="evenodd" clip-rule="evenodd"
            d="M232.307 336.538C202.382 345.787 181.156 331.126 181.156 331.126C186.844 326.111 232.209 325.836 233.764 332.527C234.064 333.832 233.565 335.183 232.311 336.538H232.307Z"
            fill="#FFFF45" />
        <path fill-rule="evenodd" clip-rule="evenodd"
            d="M322.203 261.278C301.803 294.586 279.324 290.173 279.324 290.173C276.668 284.583 277.744 261.1 287.544 239.298C302.256 206.515 322.381 199.099 329.373 200.099C329.525 200.124 329.674 200.15 329.826 200.201C333.76 212.355 336.92 237.27 322.207 261.278H322.203Z"
            fill="#FFFF45" />
        <path fill-rule="evenodd" clip-rule="evenodd"
            d="M302.731 195.864C290.098 205.012 268.296 209.848 260.402 192.679C251.479 173.232 251.53 134.96 257.946 119.85C263.587 119.096 273.983 120.976 286.117 138.747C302.781 163.157 308.372 181.905 302.735 195.864H302.731Z"
            fill="#FFFF45" />
        <path fill-rule="evenodd" clip-rule="evenodd"
            d="M330.25 190.1C327.793 192.404 324.96 193.306 323.207 192.256C318.421 189.372 314.737 167.519 318.269 161.205C322.055 163.386 327.666 167.921 329.17 176.065C330.123 181.177 330.347 186.064 330.25 190.1Z"
            fill="#FFFF45" />
        <path fill-rule="evenodd" clip-rule="evenodd"
            d="M101.005 165.668C98.1717 171.25 89.1088 181.215 83.5398 182.723C83.8955 180.504 88.139 154.594 98.8451 145.078H98.8705C102.546 148.745 104.825 158.126 101.001 165.673L101.005 165.668Z"
            fill="#FFFF45" />
        <path style="mix-blend-mode:soft-light" opacity="0.3" fill-rule="evenodd"
            clip-rule="evenodd"
            d="M274.737 238.697C273.31 242.131 271.705 245.037 269.499 248.018C267.817 250.275 265.59 251.978 264.26 254.51C259.724 263.082 260.677 272.704 258.018 281.703C256.59 286.616 252.855 290.525 251.402 295.488C250.75 297.745 251.102 299.774 251.026 302.103C250.924 304.809 249.548 306.664 247.917 308.769C246.164 311.073 243.682 312.856 240.976 313.932C238.795 314.808 236.44 314.457 234.107 314.457C228.919 314.457 223.905 313.754 218.895 312.301C214.308 310.971 210.048 308.841 205.41 307.541C202.226 306.664 200.049 306.94 196.864 307.592C194.158 308.142 191.1 307.842 188.343 307.791C183.482 307.689 178.895 310.446 174.584 312.576C171.399 314.156 169.32 315.96 168.092 319.42C166.664 323.354 166.715 327.013 161.976 328.568C159.219 329.47 155.861 328.517 153.155 327.966C150.673 327.441 147.992 327.742 145.46 327.767C140.522 327.793 135.91 326.315 131.552 324.007C126.44 321.3 121.93 317.163 117.818 313.229C115.586 311.098 112.732 309.896 110.424 307.816C107.239 305.008 104.109 302.476 101.123 299.444C96.6132 294.857 91.6752 290.169 86.6398 286.163C83.057 283.329 79.9739 279.823 76.9416 276.515C74.4091 273.758 72.9057 269.722 71.0253 266.542C67.3409 260.253 64.334 252.681 62.5299 245.617C60.4251 237.422 58.0451 228.499 58.1425 219.978C58.2441 212.787 57.215 205.816 57.215 198.6C56.5882 212.309 57.2912 223.688 58.5914 234.39C56.5882 224.764 55.5083 214.79 55.5083 204.567C55.5083 176.044 63.7793 149.457 78.0385 127.049C84.103 117.525 91.2221 108.805 99.2643 100.983C125.305 75.6705 160.816 60.0814 199.99 60.0814C203.149 60.0814 206.257 60.1831 209.362 60.3821C225.776 61.4366 241.442 65.2185 255.879 71.3084C259.589 75.3952 263.299 79.753 265.979 84.3649C267.08 86.2707 267.961 88.35 269.062 90.2558C270.041 91.9329 271.091 92.8392 270.79 94.9185C270.617 96.1467 269.761 97.7009 269.261 98.8529C267.656 102.711 263.172 105.544 259.737 107.674C254.951 110.681 249.361 111.909 244.275 114.544C240.993 116.221 239.888 117.749 237.66 120.506C236.533 121.908 235.03 123.014 234.052 124.517C231.269 128.803 229.791 134.867 229.99 139.907C230.342 149.605 237.859 156.648 239.612 165.846C241.166 173.791 240.04 182.21 242.568 190.032C245.376 198.752 253.046 205.922 260.237 210.983C263.218 213.088 266.153 214.841 268.783 217.374C271.239 219.728 274.699 221.083 276.453 224.014C279.358 228.876 276.626 234.089 274.725 238.701L274.737 238.697Z"
            fill="url(#paint16_linear_1345_24306)" />
        <path fill-rule="evenodd" clip-rule="evenodd"
            d="M263.358 74.6879C262.883 74.7387 262.405 74.7896 261.93 74.887C260.3 75.1876 259.025 75.0394 257.42 74.5863C256.268 74.2602 255.438 73.7859 254.21 73.5826C252.457 73.3073 250.826 72.5535 249.073 72.329C247.218 72.0792 245.613 71.3507 243.86 70.724C242.483 70.2242 241.755 70.3979 240.425 70.724C239.095 71.0755 238.168 70.5249 236.991 70.0209C235.661 69.445 234.335 69.3433 232.929 69.0681C229.27 68.3142 225.637 67.1369 222.003 66.2094C219.746 65.6335 217.666 65.6335 215.362 65.6081C213.558 65.5827 211.928 66.1078 210.124 66.1078C208.921 66.1078 207.892 65.9088 206.689 65.7309C205.461 65.5064 204.207 65.7563 202.979 65.5784C201.15 65.3032 200.171 65.0279 198.317 65.6038C196.936 66.057 195.86 66.0062 194.484 66.0782C192.955 66.1544 191.227 66.5525 189.724 66.904C187.018 67.5308 184.057 68.0305 181.279 67.9797C179.577 67.9797 177.07 67.5054 175.439 68.0813C174.385 68.4582 173.859 69.5847 173.135 70.3386C171.733 71.7912 170.001 73.0956 168.824 74.726C167.647 76.3565 166.317 78.0336 166.419 80.0875C166.52 81.8662 167.346 83.9456 168.121 85.5761C168.921 87.304 169.197 88.8836 167.418 90.0356C165.186 91.5136 162.607 92.8688 160.049 93.593C158.347 94.0927 156.818 94.3934 155.386 93.1652C154.861 92.7121 154.535 91.8354 153.883 91.4839C153.205 91.1324 152.502 91.4839 151.778 91.7084C149.974 92.2335 148.221 92.8349 146.391 93.1356C145.265 93.3092 144.286 93.9106 143.185 94.1139C141.856 94.3637 140.903 93.3854 139.526 93.7115C137.595 94.1647 135.668 94.9651 133.661 95.0667C132.234 95.143 130.43 94.5162 129.227 93.7878C128.524 93.3854 128.35 92.9874 127.545 93.2118C126.893 93.36 125.915 94.1647 125.563 94.6644C125.089 95.342 124.911 96.2187 124.437 96.9217C123.937 97.6967 123.459 98.4505 123.01 99.2763C122.184 100.881 121.206 102.385 120.151 103.812C119.397 104.816 118.872 106.167 118.046 107.094C117.619 107.594 116.691 107.945 116.141 108.322C114.637 109.377 113.058 110.325 111.605 111.456C108.797 113.663 106.142 116.094 103.283 118.224C101.102 119.854 98.0445 120.807 95.5628 121.832C94.0085 122.459 92.4035 122.908 90.8492 123.56C90.3495 123.759 89.422 123.988 88.9943 124.36C88.4437 124.835 88.143 125.715 87.6391 126.363C86.2839 128.019 84.8567 129.671 83.8318 131.577C83.205 132.678 82.8281 133.809 82.43 135.011C81.8795 136.642 81.0028 138.145 80.4481 139.771C79.3215 143.181 79.0928 146.738 77.8435 150.122C77.1151 152.104 76.0648 153.908 75.1628 155.712C73.6085 158.77 73.3841 162.403 72.9309 165.787C72.6811 167.769 72.7785 170.047 73.13 171.979C73.5069 174.058 73.4052 176.214 73.3798 178.344C73.3544 180.601 71.9272 182.803 70.4958 184.51C69.1914 186.09 67.2137 186.691 65.7611 188.093C64.5329 189.295 63.0549 190.676 62.5298 192.379C62.3053 193.132 62.5044 193.984 62.3815 194.784C62.0554 196.563 61.6065 198.244 61.3524 200.048C61.0772 202.28 61.0263 204.385 61.0263 206.638C61.0263 207.764 60.9501 208.92 61.0009 210.047C61.0517 211.127 61.4498 212.126 61.5261 213.206C61.5769 213.96 61.4244 214.71 61.5261 215.464C61.6785 216.315 62.0004 217.191 62.2037 218.021C62.7034 220.025 63.0803 221.981 63.4572 223.984C63.8087 225.839 64.5372 227.669 65.1131 229.473C65.9135 231.929 66.4429 234.462 66.9172 237.015C67.2941 238.921 67.2687 240.899 67.544 242.83C67.7685 244.384 68.12 245.964 68.1962 247.518C68.2724 249.873 67.6965 252.232 67.6711 254.612C67.6456 258.622 69.2507 262.633 70.1782 266.491C70.4535 267.571 70.7287 268.672 71.0294 269.748C61.1068 250.148 55.5166 227.995 55.5166 204.537C55.5166 176.015 63.7876 149.427 78.0468 127.02C84.1113 117.495 91.2304 108.775 99.2726 100.953C125.314 75.6408 160.824 60.0518 199.998 60.0518C203.157 60.0518 206.266 60.1534 209.37 60.3524C228.643 61.5806 246.888 66.5948 263.353 74.6625L263.358 74.6879Z"
            fill="url(#paint17_linear_1345_24306)" />
        <path style="mix-blend-mode:soft-light" opacity="0.3" fill-rule="evenodd"
            clip-rule="evenodd"
            d="M250.657 314.452C253.494 312.758 256.251 310.95 259.14 309.366C262.248 307.664 265.323 306.486 268.605 305.207C271.032 304.263 271.286 304.187 273.246 305.75C275.046 307.181 277.223 307.486 279.48 307.503C282.572 307.528 285.934 307.77 286.222 311.7C286.616 317.091 278.472 321.787 274.623 323.964C271.514 325.722 268.135 326.908 264.895 328.394C262.159 329.648 259.059 331.104 256.04 331.52C253.431 331.875 251.695 330.651 250.013 328.716C247.993 326.391 248.129 324.163 248.129 321.262C248.129 317.896 247.964 315.604 250.661 314.457L250.657 314.452Z"
            fill="url(#paint18_linear_1345_24306)" />
        <path style="mix-blend-mode:soft-light" opacity="0.3" fill-rule="evenodd"
            clip-rule="evenodd"
            d="M293.714 112.477C295.883 116.767 297.428 122.548 300.702 126.118C302.443 128.011 303.789 128.333 306.199 128.303C307.389 128.29 309.587 128.748 310.692 128.35C312.255 127.786 312.162 126.05 312.107 124.521C311.895 118.825 308.029 113.54 304.454 109.436C302.134 106.768 298.254 103.528 294.455 104.252C293.342 106.849 293.079 109.72 293.71 112.473L293.714 112.477Z"
            fill="url(#paint19_linear_1345_24306)" />
        <g style="mix-blend-mode:screen">
            <path fill-rule="evenodd" clip-rule="evenodd"
                d="M114.32 317.404C99.3829 304.898 87.004 289.411 78.1062 271.865C72.516 260.837 68.3065 249.009 65.7019 236.605C65.6765 236.579 65.6765 236.528 65.6765 236.478C63.6734 226.851 62.5934 216.878 62.5934 206.655C62.5934 178.132 70.8644 151.545 85.1236 129.137C91.1882 119.613 98.3072 110.893 106.349 103.071C132.39 77.7583 167.901 62.1693 207.075 62.1693C210.234 62.1693 213.343 62.2709 216.447 62.4699C226.242 63.0967 235.767 64.7187 244.927 67.2047C233.637 63.5033 221.719 61.1656 209.374 60.3736C206.266 60.1746 203.157 60.0729 200.002 60.0729C160.829 60.0729 125.318 75.662 99.277 100.975C91.2305 108.792 84.1157 117.516 78.0512 127.041C63.792 149.448 55.521 176.036 55.521 204.558C55.521 214.786 56.5967 224.759 58.6041 234.381C58.6041 234.432 58.6041 234.483 58.6295 234.508C61.234 246.913 65.4478 258.745 71.0338 269.769C79.9315 287.31 92.3104 302.802 107.247 315.308C123.078 328.589 141.767 338.507 162.264 344.042C144.532 338.257 128.312 329.144 114.32 317.404Z"
                fill="url(#paint20_radial_1345_24306)" />
        </g>
        <path fill-rule="evenodd" clip-rule="evenodd"
            d="M214.172 339.862C213.762 340.434 213.105 340.921 213.673 341.527C213.961 341.836 214.52 342.082 214.926 342.187C215.6 342.361 216.798 342.259 217.332 341.832C217.865 341.404 217.785 340.841 217.45 340.337C216.785 339.337 215.972 339.189 214.888 339.625L214.177 339.862H214.172Z"
            fill="#FFFF45" />
        <path fill-rule="evenodd" clip-rule="evenodd"
            d="M119.702 97.3791C118.186 97.8788 117.593 98.0228 116.065 99.2891C114.849 100.293 113.54 101.22 112.363 102.326C110.792 103.804 110.33 105.362 109.86 106.967C109.399 108.53 108.967 110.287 109.598 111.147C109.932 111.6 110.936 111.575 111.702 111.363C112.821 111.05 114.07 110.258 115.264 109.5C116.784 108.53 118.152 107.086 119.279 105.421C120.054 104.282 120.532 102.978 121.066 101.83C121.443 101.025 121.6 100.322 121.837 99.5601C122.044 98.8952 122.061 98.4717 121.934 98.0101C121.752 97.3537 121.354 97.2944 119.707 97.3748L119.702 97.3791Z"
            fill="#FFFF45" />
        <path fill-rule="evenodd" clip-rule="evenodd"
            d="M136.807 94.7491C136.189 95.2615 134.842 96.2229 135.91 96.9725C136.198 97.1757 136.452 97.0699 136.757 97.1546C136.994 97.2223 137.053 97.4087 137.333 97.3028C138.201 96.9725 137.853 94.5077 136.875 95.0032L136.807 94.7491Z"
            fill="#FFFF45" />
        <path fill-rule="evenodd" clip-rule="evenodd"
            d="M141.292 103.706C141.686 103.486 142.093 103.372 142.508 103.363C142.601 103.897 143.092 104.943 142.33 105.358C141.69 105.705 141.885 104.562 141.58 104.299L141.292 103.706Z"
            fill="#FFFF45" />
        <path fill-rule="evenodd" clip-rule="evenodd"
            d="M150.033 103.956C150.851 104.278 151.66 104.617 152.46 104.968C152.718 104.739 153.112 104.782 153.417 104.579C153.811 104.32 154.162 103.77 154.315 103.312C154.544 102.622 154.192 102.054 153.874 101.529C153.663 101.178 153.459 100.657 153.138 100.42C152.761 100.14 152.024 100.25 151.63 100.437C151.143 100.67 150.787 101.169 150.461 101.614C150.156 102.033 149.8 102.728 149.783 103.253C149.766 103.82 150.22 104.418 150.635 104.706L150.033 103.956Z"
            fill="#FFFF45" />
        <path fill-rule="evenodd" clip-rule="evenodd"
            d="M157.385 271.09C158.203 271.412 159.011 271.751 159.812 272.102C160.07 271.874 160.464 271.916 160.769 271.713C161.163 271.454 161.514 270.904 161.667 270.447C161.896 269.756 161.544 269.189 161.226 268.659C161.015 268.308 160.811 267.787 160.49 267.55C160.113 267.27 159.376 267.38 158.982 267.567C158.495 267.8 158.139 268.299 157.813 268.744C157.508 269.163 157.152 269.858 157.14 270.383C157.123 270.951 157.576 271.548 157.991 271.836L157.389 271.082L157.385 271.09Z"
            fill="#FFFF45" />
        <path fill-rule="evenodd" clip-rule="evenodd"
            d="M126.707 111.795C126.356 112.041 126.072 112.345 125.852 112.714C126.186 113.133 126.351 113.527 126.919 113.692C127.147 113.756 127.389 113.764 127.575 113.586C127.812 113.353 127.685 113.095 127.749 112.866C127.906 112.312 128.058 112.168 127.745 111.659C127.554 111.355 127.423 111.232 127.092 111.232C126.859 111.232 126.356 111.295 126.237 111.558L126.707 111.799V111.795Z"
            fill="#FFFF45" />
        <path fill-rule="evenodd" clip-rule="evenodd"
            d="M128.562 124.737C128.503 124.877 127.872 126.478 128.689 126.016C129.1 125.783 128.952 125.156 128.676 124.974C128.689 124.923 128.706 124.868 128.719 124.818L128.562 124.737Z"
            fill="#FFFF45" />
        <path fill-rule="evenodd" clip-rule="evenodd"
            d="M116.501 146.776C115.954 147.492 115.887 147.78 115.637 148.521C115.87 148.737 116.327 148.86 116.628 148.847C117.106 148.826 117.127 148.673 117.144 148.216C117.157 147.848 117.31 147.555 117.221 147.2C117.127 146.835 116.767 146.463 116.344 146.696L116.501 146.776Z"
            fill="#FFFF45" />
        <path fill-rule="evenodd" clip-rule="evenodd"
            d="M134.974 113.358C135.287 113.646 135.482 114.001 135.562 114.425C135.126 114.535 135.075 114.107 135.012 113.769C134.91 113.226 135.16 113.396 135.414 112.964C135.461 112.972 135.511 112.985 135.558 112.994L134.974 113.362V113.358Z"
            fill="#FFFF45" />
        <path fill-rule="evenodd" clip-rule="evenodd"
            d="M130.701 96.2907C130.353 96.5321 130.07 96.837 129.849 97.2054C130.057 97.4595 129.955 97.9211 130.434 97.8873C130.773 97.8618 131.048 97.5019 131.213 97.2224C131.404 96.8963 131.421 96.6337 131.442 96.2822C131.454 96.1043 131.45 95.3378 131.124 95.8417L130.696 96.2907H130.701Z"
            fill="#FFFF45" />
        <path fill-rule="evenodd" clip-rule="evenodd"
            d="M186.027 87.4395C186.132 87.0456 186.192 86.4993 186.399 86.1436C186.459 86.0419 186.607 85.953 186.679 85.8471C186.92 85.4999 186.844 85.4406 187.238 85.4321C187.687 85.4194 187.979 85.466 188.335 85.7497C189.55 86.7195 186.463 87.4691 186.348 86.529L186.027 87.4395Z"
            fill="#FFFF45" />
        <path fill-rule="evenodd" clip-rule="evenodd"
            d="M196.39 91.2722C196.233 91.9752 195.784 92.9238 196.432 93.3897C196.991 93.792 198.164 93.161 198.609 92.7587C199.397 92.0387 200.358 90.6751 199.604 89.6714C199.164 89.0827 197.918 88.6338 197.199 88.7015C195.725 88.8413 195.297 90.5988 195.094 92.0048L196.39 91.2764V91.2722Z"
            fill="#FFFF45" />
        <path fill-rule="evenodd" clip-rule="evenodd"
            d="M200.925 77.0341C200.769 75.8272 200.548 74.6371 201.62 74.0061C202.204 73.6631 203.272 73.5403 203.822 73.951C204.22 74.2475 204.572 74.798 204.817 75.2088C205.186 75.8187 205.088 75.8187 204.898 76.3777C204.457 77.6567 204.157 78.4994 202.886 78.4994C201.205 78.4994 200.947 77.1951 200.925 75.5731V77.0341Z"
            fill="#FFFF45" />
        <path fill-rule="evenodd" clip-rule="evenodd"
            d="M216.472 98.2049C217.391 97.955 218.183 97.4722 218.844 96.765C218.183 96.3542 216.735 95.5029 216.472 96.7438V98.2049Z"
            fill="#FFFF45" />
        <path fill-rule="evenodd" clip-rule="evenodd"
            d="M163.035 290.355C163.954 290.105 164.746 289.623 165.407 288.915C164.746 288.505 163.297 287.653 163.035 288.894V290.355Z"
            fill="#FFC445" />
        <path fill-rule="evenodd" clip-rule="evenodd"
            d="M262.172 311.149C263.091 310.899 263.883 310.417 264.543 309.709C263.883 309.298 262.434 308.447 262.172 309.688V311.149Z"
            fill="#FFC445" />
        <path fill-rule="evenodd" clip-rule="evenodd"
            d="M228.453 116.822C229.368 115.695 230.693 113.641 232.353 114.768C233.319 115.424 233.594 117.157 232.671 117.843C231.815 118.482 231.032 118.664 230.066 118.927C229.329 119.13 228.233 118.643 228.453 117.55V116.822Z"
            fill="#FFFF45" />
        <path fill-rule="evenodd" clip-rule="evenodd"
            d="M164.25 143.613C165.165 142.486 166.491 140.432 168.151 141.559C169.116 142.215 169.392 143.947 168.468 144.633C167.613 145.273 166.829 145.455 165.864 145.717C165.127 145.921 164.03 145.434 164.25 144.341V143.613Z"
            fill="#FFC445" />
        <path fill-rule="evenodd" clip-rule="evenodd"
            d="M270.794 96.1551C271.709 95.0286 273.035 92.9746 274.695 94.1011C275.66 94.7576 275.936 96.4897 275.012 97.1758C274.157 97.8152 273.373 97.9974 272.408 98.2599C271.671 98.4632 270.574 97.9762 270.794 96.8835V96.1551Z"
            fill="#FFC445" />
        <path fill-rule="evenodd" clip-rule="evenodd"
            d="M211.077 194.623C211.992 193.497 213.317 191.443 214.977 192.569C215.943 193.221 216.218 194.958 215.295 195.644C214.439 196.283 213.656 196.465 212.69 196.728C211.953 196.931 210.857 196.444 211.077 195.352V194.623Z"
            fill="#FFC445" />
        <path fill-rule="evenodd" clip-rule="evenodd"
            d="M158.851 103.38C157.678 104.125 155.704 105.049 155.505 106.658C155.386 107.628 155.831 108.199 156.708 108.623C157.453 108.983 158.575 109.013 159.325 108.636C160.401 108.094 161.641 107.2 162.124 106.057C162.472 105.231 162.416 104.667 162.027 103.85C161.819 103.41 161.404 102.885 160.934 102.719C159.435 102.198 158.533 103.668 157.428 104.333L158.851 103.384V103.38Z"
            fill="#FFFF45" />
        <path fill-rule="evenodd" clip-rule="evenodd"
            d="M162.65 99.1069C163.289 99.3314 163.827 99.6914 164.267 100.174C163.632 100.39 162.946 100.894 162.294 100.661C161.447 100.36 161.29 99.5558 161.481 98.747C161.587 98.3065 162.379 97.5273 162.832 97.7221C163.06 97.8195 163.107 98.1329 163.179 98.3319C163.336 98.7512 163.348 98.6623 163.12 99.1027H162.645L162.65 99.1069Z"
            fill="#FFFF45" />
        <path fill-rule="evenodd" clip-rule="evenodd"
            d="M98.3071 125.936C97.0493 127.041 95.8635 128.362 95.1944 129.942C94.8556 130.747 95.4569 130.785 96.1896 130.645C97.6041 130.37 99.0313 129.976 100.429 129.62C101.259 129.408 102.445 128.972 103.021 128.269C103.461 127.731 103.643 126.8 103.546 126.122C103.41 125.173 102.737 124.805 101.873 124.564C99.9037 124.017 97.3754 125.313 96.6427 127.13L98.3029 125.944L98.3071 125.936Z"
            fill="#FFFF45" />
        <path fill-rule="evenodd" clip-rule="evenodd"
            d="M99.2558 132.585C100.264 132.61 101.2 132.856 102.064 133.313C101.814 133.609 101.894 134.012 101.763 134.363C101.568 134.88 101.077 135.401 100.615 135.693C99.8445 136.18 98.5612 136.362 97.7058 136.036C95.1055 135.049 99.0949 131.966 99.9715 133.059L99.26 132.585H99.2558Z"
            fill="#FFFF45" />
        <path fill-rule="evenodd" clip-rule="evenodd"
            d="M181.885 74.4126C182.855 73.9468 183.727 73.3539 184.777 73.176C185.984 72.9727 187.102 72.7356 188.331 72.7398C188.949 72.7398 190.329 72.689 189.927 73.6969C189.491 74.7896 187.141 75.8271 186.209 76.2676C184.608 77.0214 183.105 77.7795 181.309 77.9658C180.403 78.059 178.882 78.1267 178.37 77.2204C177.938 76.4581 178.145 75.8314 178.565 75.1241C179.005 74.3872 179.471 74.0781 180.28 73.7604C180.653 73.6122 182.732 73.0574 182.838 73.7054L181.889 74.4169L181.885 74.4126Z"
            fill="#FFFF45" />
        <path fill-rule="evenodd" clip-rule="evenodd"
            d="M165.737 74.887C165.309 75.1961 162.027 77.0172 163.59 77.8049C164.428 78.2284 166.08 78.1056 166.931 77.7456C167.689 77.4237 168.456 76.924 167.981 76.0516C167.02 74.2898 164.606 75.3062 163.361 76.0728L165.737 74.887Z"
            fill="#FFFF45" />
        <path fill-rule="evenodd" clip-rule="evenodd"
            d="M120.388 194.555C120.63 195.906 120.909 197.38 122.082 198.274C123.298 199.197 124.678 198.824 125.873 198.121C126.758 197.6 127.596 197.041 128.46 196.508C128.964 196.199 129.409 196.118 129.43 195.398C129.456 194.623 128.74 193.581 128.295 192.997C127.762 192.294 126.69 191.455 125.86 191.146C124.047 190.469 120.587 191.146 120.63 193.611L120.393 194.56L120.388 194.555Z"
            fill="#FFD32F" />
        <path fill-rule="evenodd" clip-rule="evenodd"
            d="M223.905 195.995C224.146 197.346 224.425 198.82 225.599 199.714C226.814 200.641 228.195 200.264 229.389 199.561C230.274 199.04 231.113 198.481 231.976 197.948C232.48 197.638 232.925 197.558 232.946 196.838C232.972 196.063 232.256 195.021 231.811 194.437C231.278 193.734 230.206 192.895 229.376 192.586C227.564 191.909 224.104 192.586 224.146 195.047L223.909 195.995H223.905Z"
            fill="#FFBA00" />
        <path style="mix-blend-mode:screen"
            d="M172.574 164.98C214.746 147.33 239.76 111.103 228.443 84.0641C217.127 57.0251 173.766 49.4137 131.594 67.0633C89.4217 84.713 64.4079 120.94 75.7241 147.979C87.0403 175.018 130.401 182.63 172.574 164.98Z"
            fill="url(#paint21_radial_1345_24306)" />
        <path fill-rule="evenodd" clip-rule="evenodd"
            d="M76.2471 248.196C76.2471 248.196 75.0614 253.392 78.7077 259.952C82.354 266.512 84.9924 266.182 84.9924 266.182C84.9924 266.182 81.8585 253.972 76.2471 248.196Z"
            fill="#FFFF59" />
        <path fill-rule="evenodd" clip-rule="evenodd"
            d="M312.132 176.946C312.132 176.946 307.889 189.177 307.271 190.892C307.271 190.892 313.949 189.008 312.132 176.946Z"
            fill="#FFFF59" />
        <path fill-rule="evenodd" clip-rule="evenodd"
            d="M334.861 180.766C334.861 180.766 331.927 183.007 330.271 188.635C330.271 188.635 333.879 190.329 334.861 180.766Z"
            fill="#FFFF59" />
        <path fill-rule="evenodd" clip-rule="evenodd"
            d="M288.289 294.065C288.289 294.065 301.977 285.184 309.858 284.553C309.858 284.553 300.91 295.547 288.289 294.065Z"
            fill="#FFFF59" />
    </g>
    <defs>
        <radialGradient id="paint0_radial_1345_24306" cx="0" cy="0" r="1"
            gradientUnits="userSpaceOnUse" gradientTransform="translate(200 200.013) scale(200.002)">
            <stop stop-color="#FF9F00" />
            <stop offset="0.949" stop-color="#FF9F00" stop-opacity="0" />
        </radialGradient>
        <radialGradient id="paint1_radial_1345_24306" cx="0" cy="0" r="1"
            gradientUnits="userSpaceOnUse"
            gradientTransform="translate(200 200.013) scale(159.244 159.244)">
            <stop stop-color="#FF7300" />
            <stop offset="1" stop-color="white" stop-opacity="0" />
        </radialGradient>
        <radialGradient id="paint2_radial_1345_24306" cx="0" cy="0" r="1"
            gradientUnits="userSpaceOnUse"
            gradientTransform="translate(200 200.013) scale(151.96 151.96)">
            <stop stop-color="#FF7900" />
            <stop offset="1" stop-color="white" stop-opacity="0" />
        </radialGradient>
        <radialGradient id="paint3_radial_1345_24306" cx="0" cy="0" r="1"
            gradientUnits="userSpaceOnUse"
            gradientTransform="translate(110.517 136.989) scale(232.091)">
            <stop stop-color="#FFB80B" />
            <stop offset="0.26" stop-color="#FEB50C" />
            <stop offset="0.38" stop-color="#FDAE10" />
            <stop offset="0.48" stop-color="#FCA017" />
            <stop offset="0.57" stop-color="#F98E21" />
            <stop offset="0.64" stop-color="#F7762E" />
            <stop offset="0.66" stop-color="#F66D33" />
            <stop offset="0.72" stop-color="#EF6735" />
            <stop offset="0.81" stop-color="#DB583D" />
            <stop offset="0.91" stop-color="#BC4049" />
            <stop offset="0.98" stop-color="#A02A54" />
        </radialGradient>
        <linearGradient id="paint4_linear_1345_24306" x1="67.616" y1="247.069" x2="137.574"
            y2="247.069" gradientUnits="userSpaceOnUse">
            <stop offset="0.01" stop-color="#FFA90B" />
            <stop offset="0.37" stop-color="#FFA60D" />
            <stop offset="0.64" stop-color="#FF9C16" />
            <stop offset="0.87" stop-color="#FF8C25" />
            <stop offset="1" stop-color="#FF8031" />
        </linearGradient>
        <linearGradient id="paint5_linear_1345_24306" x1="70.0851" y1="247.069" x2="133.877"
            y2="247.069" gradientUnits="userSpaceOnUse">
            <stop offset="0.01" stop-color="#FFE00B" />
            <stop offset="0.31" stop-color="#FFDD0C" />
            <stop offset="0.52" stop-color="#FFD311" />
            <stop offset="0.71" stop-color="#FFC31A" />
            <stop offset="0.89" stop-color="#FFAD26" />
            <stop offset="1" stop-color="#FF9B31" />
        </linearGradient>
        <linearGradient id="paint6_linear_1345_24306" x1="77.1045" y1="163.578" x2="104.957"
            y2="162.693" gradientUnits="userSpaceOnUse">
            <stop offset="0.01" stop-color="#FFA90B" />
            <stop offset="0.37" stop-color="#FFA60D" />
            <stop offset="0.64" stop-color="#FF9C16" />
            <stop offset="0.87" stop-color="#FF8C25" />
            <stop offset="1" stop-color="#FF8031" />
        </linearGradient>
        <linearGradient id="paint7_linear_1345_24306" x1="78.8188" y1="163.523" x2="103.183"
            y2="162.749" gradientUnits="userSpaceOnUse">
            <stop offset="0.01" stop-color="#FFE00B" />
            <stop offset="0.31" stop-color="#FFDD0C" />
            <stop offset="0.52" stop-color="#FFD311" />
            <stop offset="0.71" stop-color="#FFC31A" />
            <stop offset="0.89" stop-color="#FFAD26" />
            <stop offset="1" stop-color="#FF9B31" />
        </linearGradient>
        <linearGradient id="paint8_linear_1345_24306" x1="307.27" y1="296.623" x2="307.27"
            y2="197.507" gradientUnits="userSpaceOnUse">
            <stop offset="0.01" stop-color="#FF8E0B" />
            <stop offset="0.35" stop-color="#FD8B0D" />
            <stop offset="0.59" stop-color="#F88114" />
            <stop offset="0.81" stop-color="#F07120" />
            <stop offset="1" stop-color="#E65D31" />
        </linearGradient>
        <linearGradient id="paint9_linear_1345_24306" x1="278.074" y1="247.065" x2="336.411"
            y2="247.065" gradientUnits="userSpaceOnUse">
            <stop offset="0.01" stop-color="#FFE00B" />
            <stop offset="0.31" stop-color="#FFDD0C" />
            <stop offset="0.52" stop-color="#FFD311" />
            <stop offset="0.71" stop-color="#FFC31A" />
            <stop offset="0.89" stop-color="#FFAD26" />
            <stop offset="1" stop-color="#FF9B31" />
        </linearGradient>
        <linearGradient id="paint10_linear_1345_24306" x1="325.926" y1="195.199" x2="325.926"
            y2="156.944" gradientUnits="userSpaceOnUse">
            <stop offset="0.01" stop-color="#FFA90B" />
            <stop offset="0.37" stop-color="#FFA60D" />
            <stop offset="0.64" stop-color="#FF9C16" />
            <stop offset="0.87" stop-color="#FF8C25" />
            <stop offset="1" stop-color="#FF8031" />
        </linearGradient>
        <linearGradient id="paint11_linear_1345_24306" x1="325.905" y1="192.692" x2="325.905"
            y2="159.451" gradientUnits="userSpaceOnUse">
            <stop offset="0.01" stop-color="#FFE00B" />
            <stop offset="0.31" stop-color="#FFDD0C" />
            <stop offset="0.52" stop-color="#FFD311" />
            <stop offset="0.71" stop-color="#FFC31A" />
            <stop offset="0.89" stop-color="#FFAD26" />
            <stop offset="1" stop-color="#FF9B31" />
        </linearGradient>
        <linearGradient id="paint12_linear_1345_24306" x1="207.079" y1="347.206" x2="207.079"
            y2="324.921" gradientUnits="userSpaceOnUse">
            <stop offset="0.01" stop-color="#FFA90B" />
            <stop offset="0.37" stop-color="#FFA60D" />
            <stop offset="0.64" stop-color="#FF9C16" />
            <stop offset="0.87" stop-color="#FF8C25" />
            <stop offset="1" stop-color="#FF8031" />
        </linearGradient>
        <linearGradient id="paint13_linear_1345_24306" x1="207.075" y1="344.699" x2="207.075"
            y2="327.429" gradientUnits="userSpaceOnUse">
            <stop offset="0.01" stop-color="#FFE00B" />
            <stop offset="0.31" stop-color="#FFDD0C" />
            <stop offset="0.52" stop-color="#FFD311" />
            <stop offset="0.71" stop-color="#FFC31A" />
            <stop offset="0.89" stop-color="#FFAD26" />
            <stop offset="1" stop-color="#FF9B31" />
        </linearGradient>
        <linearGradient id="paint14_linear_1345_24306" x1="276.94" y1="206.629" x2="289.441"
            y2="112.477" gradientUnits="userSpaceOnUse">
            <stop offset="0.01" stop-color="#FFA90B" />
            <stop offset="0.37" stop-color="#FFA60D" />
            <stop offset="0.64" stop-color="#FF9C16" />
            <stop offset="0.87" stop-color="#FF8C25" />
            <stop offset="1" stop-color="#FF8031" />
        </linearGradient>
        <linearGradient id="paint15_linear_1345_24306" x1="277.261" y1="204.148" x2="289.102"
            y2="114.959" gradientUnits="userSpaceOnUse">
            <stop offset="0.01" stop-color="#FFE00B" />
            <stop offset="0.31" stop-color="#FFDD0C" />
            <stop offset="0.52" stop-color="#FFD311" />
            <stop offset="0.71" stop-color="#FFC31A" />
            <stop offset="0.89" stop-color="#FFAD26" />
            <stop offset="1" stop-color="#FF9B31" />
        </linearGradient>
        <linearGradient id="paint16_linear_1345_24306" x1="55.5168" y1="194.509" x2="277.736"
            y2="194.509" gradientUnits="userSpaceOnUse">
            <stop offset="0.01" stop-color="#FFE00B" />
            <stop offset="0.31" stop-color="#FFDD0C" />
            <stop offset="0.52" stop-color="#FFD311" />
            <stop offset="0.71" stop-color="#FFC31A" />
            <stop offset="0.89" stop-color="#FFAD26" />
            <stop offset="1" stop-color="#FF9B31" />
        </linearGradient>
        <linearGradient id="paint17_linear_1345_24306" x1="55.5166" y1="164.923" x2="263.358"
            y2="164.923" gradientUnits="userSpaceOnUse">
            <stop offset="0.01" stop-color="#FFE00B" />
            <stop offset="0.31" stop-color="#FFDD0C" />
            <stop offset="0.52" stop-color="#FFD311" />
            <stop offset="0.71" stop-color="#FFC31A" />
            <stop offset="0.89" stop-color="#FFAD26" />
            <stop offset="1" stop-color="#FF9B31" />
        </linearGradient>
        <linearGradient id="paint18_linear_1345_24306" x1="248.124" y1="318.056" x2="286.235"
            y2="318.056" gradientUnits="userSpaceOnUse">
            <stop offset="0.01" stop-color="#FFE00B" />
            <stop offset="0.31" stop-color="#FFDD0C" />
            <stop offset="0.52" stop-color="#FFD311" />
            <stop offset="0.71" stop-color="#FFC31A" />
            <stop offset="0.89" stop-color="#FFAD26" />
            <stop offset="1" stop-color="#FF9B31" />
        </linearGradient>
        <linearGradient id="paint19_linear_1345_24306" x1="293.376" y1="116.335" x2="312.132"
            y2="116.335" gradientUnits="userSpaceOnUse">
            <stop offset="0.01" stop-color="#FFE00B" />
            <stop offset="0.31" stop-color="#FFDD0C" />
            <stop offset="0.52" stop-color="#FFD311" />
            <stop offset="0.71" stop-color="#FFC31A" />
            <stop offset="0.89" stop-color="#FFAD26" />
            <stop offset="1" stop-color="#FF9B31" />
        </linearGradient>
        <radialGradient id="paint20_radial_1345_24306" cx="0" cy="0" r="1"
            gradientUnits="userSpaceOnUse"
            gradientTransform="translate(94.4152 106.217) scale(190.173 190.173)">
            <stop stop-color="#FFFFD9" />
            <stop offset="1" stop-color="white" stop-opacity="0" />
        </radialGradient>
        <radialGradient id="paint21_radial_1345_24306" cx="0" cy="0" r="1"
            gradientUnits="userSpaceOnUse"
            gradientTransform="translate(153.074 115.444) rotate(-22.71) scale(82.9316 53.1358)">
            <stop stop-color="#FFBB00" />
            <stop offset="1" stop-color="white" stop-opacity="0" />
        </radialGradient>
        <clipPath id="clip0_1345_24306">
            <rect width="400" height="400" fill="white" transform="translate(0 0.012207)" />
        </clipPath>
    </defs>
</svg>
    