<svg width="440" height="440" viewBox="0 0 440 440" fill="none" xmlns="http://www.w3.org/2000/svg">
    <circle cx="220" cy="220" r="160" fill="url(#paint0_radial_2164_296575)" />
    <path
        d="M220 300C264.183 300 300 264.183 300 220C300 175.817 264.183 140 220 140C175.817 140 140 175.817 140 220C140 264.183 175.817 300 220 300Z"
        fill="url(#paint1_radial_2164_296575)" style="mix-blend-mode:screen" />
    <path
        d="M338.152 344.451C406.885 275.719 406.885 164.282 338.152 95.5493C269.42 26.817 157.983 26.817 89.2508 95.5493C20.5186 164.282 20.5186 275.719 89.2508 344.451C157.983 413.183 269.42 413.183 338.152 344.451Z"
        fill="url(#paint2_radial_2164_296575)" />
    <g opacity="0.92">
        <path fill-rule="evenodd" clip-rule="evenodd"
            d="M376.585 220.016C376.585 265.296 357.381 306.051 326.642 334.638C311.968 348.32 294.647 359.163 275.576 366.433C258.288 373.011 239.581 376.578 219.984 376.578C213.042 376.578 206.169 376.116 199.458 375.257C193.278 374.466 187.196 373.272 181.247 371.754C167.133 368.153 153.815 362.631 141.518 355.493C133.717 350.964 126.348 345.81 119.471 340.023C103.274 326.474 89.8569 309.682 80.2038 290.676C74.1562 278.709 69.5927 265.886 66.7827 252.465C66.7485 252.431 66.7485 252.367 66.7485 252.333C64.5673 241.888 63.4082 231.08 63.4082 220.007C63.4082 189.102 72.3642 160.284 87.8339 135.991C94.3777 125.679 102.11 116.227 110.84 107.733C139.033 80.3002 177.539 63.4105 219.979 63.4105C223.418 63.4105 226.788 63.5089 230.158 63.7398C247.942 64.8946 264.896 68.9962 280.562 75.5742C283.304 76.729 285.981 77.9522 288.659 79.2438C300.027 84.7953 310.604 91.6727 320.223 99.7348C323.46 102.412 326.6 105.256 329.611 108.195C330.701 109.251 331.758 110.342 332.818 111.432C359.922 139.562 376.58 177.832 376.58 220.007L376.585 220.016Z"
            fill="url(#paint3_radial_2164_296575)" style="mix-blend-mode:screen" />
    </g>
    <path fill-rule="evenodd" clip-rule="evenodd"
        d="M365.913 220.016C365.913 262.213 348.019 300.188 319.376 326.829C305.702 339.579 289.561 349.681 271.79 356.46C255.683 362.589 238.25 365.916 219.983 365.916C213.517 365.916 207.11 365.484 200.857 364.684C195.096 363.944 189.429 362.837 183.886 361.421C170.734 358.064 158.322 352.918 146.864 346.268C139.594 342.046 132.729 337.243 126.322 331.854C111.229 319.225 98.7272 303.579 89.7328 285.868C84.0957 274.718 79.8444 262.769 77.2269 250.263C77.197 250.233 77.197 250.169 77.197 250.139C75.1654 240.404 74.0876 230.336 74.0876 220.016C74.0876 191.219 82.432 164.36 96.8496 141.722C102.949 132.112 110.155 123.305 118.286 115.389C144.559 89.8253 180.439 74.0861 219.988 74.0861C223.191 74.0861 226.33 74.1802 229.474 74.3941C246.043 75.4719 261.846 79.2912 276.444 85.4201C279.001 86.4979 281.495 87.6355 283.988 88.8374C294.582 94.0125 304.441 100.419 313.401 107.934C316.42 110.427 319.346 113.079 322.147 115.821C323.165 116.804 324.149 117.822 325.137 118.84C350.392 145.049 365.918 180.715 365.918 220.016H365.913Z"
        fill="url(#paint4_radial_2164_296575)" />
    <path style="mix-blend-mode:multiply" opacity="0.3" fill-rule="evenodd" clip-rule="evenodd"
        d="M122.73 264.163C121.879 267.366 121.374 270.617 121.216 273.91C122.054 273.705 123.32 275.659 124.252 276.066C125.976 276.823 127.661 276.605 129.256 277.742C130.659 278.743 132.37 280.74 134.021 281.249C135.077 281.574 136.557 281.284 137.673 281.279C140.073 281.279 142.16 281.39 144.525 281.865C146.916 282.349 150.077 283.161 152.532 282.909C154.212 282.738 156.817 281.835 158.104 280.779C159.439 279.684 160.025 276.369 160.119 274.663C160.41 269.338 156.484 264.325 152.493 261.169C150.423 259.531 148.058 259.531 145.753 258.346C142.998 256.926 140.595 256.109 137.558 255.28C135.779 254.792 133.315 253.915 131.468 253.967C129.667 254.018 127.584 255.151 125.852 255.6C124.064 256.062 122.336 256.345 121.126 257.901C119.809 259.599 120.403 262.097 122.734 264.159L122.73 264.163Z"
        fill="url(#paint5_linear_2164_296575)" />
    <path style="mix-blend-mode:multiply" opacity="0.3" fill-rule="evenodd" clip-rule="evenodd"
        d="M163.968 282.836C163.044 283.931 154.422 291.428 158.677 294.392C158.968 294.593 160.709 295.03 161.026 295.111C162.339 295.44 162.569 295.243 163.652 294.542C165.696 293.225 165.97 291.043 165.456 288.738C165.354 288.276 164.892 286.852 164.678 286.403C164.293 285.595 163.391 285.351 163.19 284.393L163.968 282.836Z"
        fill="url(#paint6_linear_2164_296575)" />
    <path style="mix-blend-mode:multiply" opacity="0.3" fill-rule="evenodd" clip-rule="evenodd"
        d="M213.765 93.7597C215.343 92.9856 220.296 89.9618 223.076 89.6838C223.969 89.594 225.244 89.8805 226.215 89.872C228.319 89.8549 230.145 89.4871 231.698 91.1979C232.866 92.4852 233.439 93.8154 232.575 95.2738C231.364 97.3182 228.212 98.828 226.215 99.9827C221.57 102.669 215.394 105.235 209.821 104.709C205.403 104.29 201.387 100.975 197.602 98.9905C194.754 97.4935 189.574 94.6665 193.034 91.2363C195.861 88.4349 200.155 86.8952 204.047 86.7498C205.809 86.6857 210.082 86.0655 211.468 87.1091C213.008 88.2767 211.322 93.2337 214.543 92.9813L213.765 93.7597Z"
        fill="url(#paint7_linear_2164_296575)" />
    <path style="mix-blend-mode:screen" fill-rule="evenodd" clip-rule="evenodd"
        d="M71.8679 190.274C74.0876 220.016 143.738 171.853 211.117 150.455C290.224 125.332 350.191 180.201 358.951 177.212C372.667 172.533 316.343 63.6756 226.181 65.0742C124.603 66.6481 68.2881 142.265 71.8679 190.274Z"
        fill="url(#paint8_linear_2164_296575)" />
    <path style="mix-blend-mode:screen" opacity="0.5" fill-rule="evenodd" clip-rule="evenodd"
        d="M64.9476 241.91L69.8448 264.599C69.8448 264.599 97.0463 280.522 160.11 274.667C223.178 268.807 238.165 237.971 262.783 219.999C287.401 202.027 335.145 187.909 347.595 173.902C360.045 159.895 349.464 131.957 349.464 131.957L344.674 125.328C344.674 125.328 353.514 149.198 342.925 166.896C332.339 184.594 285.344 192.742 259.669 215.14C233.99 237.539 181.935 254.959 137.545 255.279C93.1542 255.6 64.9434 241.905 64.9434 241.905L64.9476 241.91Z"
        fill="url(#paint9_linear_2164_296575)" />
    <path style="mix-blend-mode:screen" opacity="0.5" fill-rule="evenodd" clip-rule="evenodd"
        d="M85.8834 300.898L95.8787 315.473C95.8787 315.473 141.215 328.753 209.304 315.473C277.393 302.193 328.721 263.808 352.65 241.914C376.58 220.02 373.59 189.41 373.59 189.41L371.456 180.202C371.456 180.202 367.184 212.044 340.594 241.914C314.004 271.784 269.729 298.879 205.981 310.076C142.237 321.273 85.8792 300.902 85.8792 300.902L85.8834 300.898Z"
        fill="url(#paint10_linear_2164_296575)" />
    <path style="mix-blend-mode:screen" opacity="0.5" fill-rule="evenodd" clip-rule="evenodd"
        d="M74.0833 163.158C74.0833 163.158 163.031 193.499 231.775 180.202C300.523 166.905 318.922 122.454 320.227 99.7435L307.618 90.2444C307.618 90.2444 307.909 135.858 264.361 163.402C220.813 190.941 109.355 174.582 79.4722 150.9L74.0833 163.158Z"
        fill="url(#paint11_linear_2164_296575)" />
    <path fill-rule="evenodd" clip-rule="evenodd"
        d="M83.8478 216.885C84.8443 222.364 97.2304 214.704 106.494 196.125C115.758 177.55 117.55 139.267 112.717 135.931C107.889 132.595 76.949 178.935 83.8435 216.885H83.8478Z"
        fill="white" />
    <path fill-rule="evenodd" clip-rule="evenodd"
        d="M253.592 360.775C251.654 362.952 258.801 365.583 269.434 363.414C280.066 361.246 296.409 349.651 296.225 346.584C296.041 343.522 266.992 345.712 253.588 360.775H253.592Z"
        fill="white" />
    <path fill-rule="evenodd" clip-rule="evenodd"
        d="M84.6776 224.87C78.245 226.072 78.4076 238.603 82.5134 243.979C86.6193 249.356 91.8287 246.802 92.1537 235.815C92.3547 229.049 89.9896 223.878 84.6776 224.87Z"
        fill="white" />
    <g opacity="0.92">
        <path fill-rule="evenodd" clip-rule="evenodd"
            d="M264.361 69.8346C264.361 69.8346 305.014 36.9362 338.746 60.3012C376.58 86.5062 358.074 146.118 358.074 146.118C358.074 146.118 279.938 105.047 264.357 69.8346H264.361Z"
            fill="url(#paint12_radial_2164_296575)" style="mix-blend-mode:screen" />
    </g>
    <path style="mix-blend-mode:screen" opacity="0.92" fill-rule="evenodd" clip-rule="evenodd"
        d="M115.322 336.426C115.322 336.426 120.433 382.434 155.016 399.161C187.282 414.767 216.241 376.536 216.241 376.536C216.241 376.536 209.3 315.465 115.318 336.422L115.322 336.426Z"
        fill="url(#paint13_radial_2164_296575)" />
    <path style="mix-blend-mode:screen" fill-rule="evenodd" clip-rule="evenodd"
        d="M272.124 68.4704C278.625 76.8062 299.745 78.9747 325.813 81.6991C351.881 84.4235 355.491 91.8141 355.491 91.8141C355.491 91.8141 347.21 61.0798 321.921 56.0202C296.631 50.9606 272.124 68.4704 272.124 68.4704Z"
        fill="url(#paint14_linear_2164_296575)" />
    <path style="mix-blend-mode:screen" fill-rule="evenodd" clip-rule="evenodd"
        d="M118.196 339.629C118.196 339.629 122.34 367.652 133.623 372.708C144.906 377.767 151.616 351.892 179.532 351.31C195.109 350.985 212.212 369.205 212.212 369.205C212.212 369.205 195.472 319.395 118.2 339.625L118.196 339.629Z"
        fill="url(#paint15_linear_2164_296575)" />
    <path fill-rule="evenodd" clip-rule="evenodd"
        d="M161.594 397.608C161.594 397.608 179.737 400.303 197.157 389.439C197.157 389.439 185.717 409.156 161.594 397.608Z"
        fill="#FF9AFF" />
    <path fill-rule="evenodd" clip-rule="evenodd"
        d="M353.664 135.76C353.664 135.76 359.814 120.384 357.719 100.18C357.719 100.18 368.578 122.125 353.664 135.76Z"
        fill="#FF9AFF" />
    <path fill-rule="evenodd" clip-rule="evenodd"
        d="M273.433 67.5936C270.58 70.1085 292.157 69.6166 298.966 65.0574C305.775 60.4981 308.517 57.8849 306.746 55.1049C304.975 52.3249 283.689 58.5478 273.429 67.5936H273.433Z"
        fill="white" />
    <path fill-rule="evenodd" clip-rule="evenodd"
        d="M309.261 55.3658C308.996 53.6764 315.552 54.1383 315.428 55.7635C315.304 57.3888 309.761 58.5307 309.261 55.3658Z"
        fill="white" />
    <path fill-rule="evenodd" clip-rule="evenodd"
        d="M120.835 345.446C116.579 344.189 122.824 364.526 131.925 371.348C131.925 371.348 133.251 349.112 120.835 345.446Z"
        fill="white" />
    <path style="mix-blend-mode:screen" opacity="0.92" fill-rule="evenodd" clip-rule="evenodd"
        d="M355.67 148.099C355.67 148.099 375.481 136.461 385.695 150.186C400.211 169.689 374.583 190.095 374.583 190.095C374.583 190.095 353.335 176.819 355.666 148.099H355.67Z"
        fill="url(#paint16_radial_2164_296575)" />
    <path style="mix-blend-mode:screen" fill-rule="evenodd" clip-rule="evenodd"
        d="M357.437 148.227C349.601 150.571 372.222 155.229 380.002 159.121C387.782 163.013 387.003 167.679 387.003 167.679C387.003 167.679 391.284 138.112 357.437 148.227Z"
        fill="url(#paint17_linear_2164_296575)" />
    <path fill-rule="evenodd" clip-rule="evenodd"
        d="M372.821 185.753C372.821 185.753 379.788 182.503 384.852 171.28C384.852 171.28 386.759 183.307 372.821 185.753Z"
        fill="#FF9AFF" />
    <path fill-rule="evenodd" clip-rule="evenodd"
        d="M360.559 148.646C358.472 151.332 370.374 150.917 371.427 148.124C372.479 145.332 363.069 145.417 360.559 148.646Z"
        fill="white" />
    <path fill-rule="evenodd" clip-rule="evenodd"
        d="M355.491 154.899C355.491 154.899 355.687 173.243 366.773 183.568C366.773 183.568 357.189 166.006 355.491 154.899Z"
        fill="white" />
    <path fill-rule="evenodd" clip-rule="evenodd"
        d="M368.877 185.753C368.877 185.753 371.469 189.679 373.595 189.406C373.595 189.406 370.922 185.129 368.877 185.753Z"
        fill="white" />
    <path style="mix-blend-mode:screen" opacity="0.92" fill-rule="evenodd" clip-rule="evenodd"
        d="M238.306 65.0572C238.306 65.0572 243.789 55.2245 251.834 55.1346C263.266 55.0063 263.946 70.3991 263.946 70.3991C263.946 70.3991 251.795 75.0867 238.306 65.0572Z"
        fill="url(#paint18_radial_2164_296575)" />
    <path style="mix-blend-mode:screen" fill-rule="evenodd" clip-rule="evenodd"
        d="M241.967 62.2603C239.709 65.3739 249.49 60.6479 253.51 59.878C257.531 59.1082 258.574 61.0713 258.574 61.0713C258.574 61.0713 251.718 48.8049 241.971 62.2603H241.967Z"
        fill="url(#paint19_linear_2164_296575)" />
    <path fill-rule="evenodd" clip-rule="evenodd"
        d="M261.808 69.8689C261.808 69.8689 262.497 66.319 259.627 61.2893C259.627 61.2893 264.729 63.8897 261.808 69.8689Z"
        fill="#FF9AFF" />
    <path fill-rule="evenodd" clip-rule="evenodd"
        d="M243.25 61.5246C243.237 63.1242 247.566 59.5657 247.159 58.2228C246.753 56.8798 243.263 59.6 243.25 61.5246Z"
        fill="white" />
    <path fill-rule="evenodd" clip-rule="evenodd"
        d="M243.139 68.0896C243.139 68.0896 252.309 72.9268 259.306 71.5625C259.306 71.5625 247.839 70.5146 243.139 68.0896Z"
        fill="white" />
    <path fill-rule="evenodd" clip-rule="evenodd"
        d="M260.717 71.3698C260.717 71.3698 262.928 71.4681 263.412 70.5871C263.412 70.5871 261.042 70.4203 260.717 71.3698Z"
        fill="white" />
    <path fill-rule="evenodd" clip-rule="evenodd"
        d="M269.494 78.739C269.494 78.739 275.657 80.1461 277.475 88.7043C277.475 88.7043 271.141 86.8652 269.494 78.739Z"
        fill="white" />
    <path fill-rule="evenodd" clip-rule="evenodd"
        d="M115.322 336.426C115.322 336.426 123.243 333.791 136.604 332.046C149.961 330.301 157.506 332.046 157.506 332.046C157.506 332.046 128.149 334.382 115.326 336.426H115.322Z"
        fill="white" />
    <path fill-rule="evenodd" clip-rule="evenodd"
        d="M188.621 339.942C188.621 339.942 205.335 352.953 211.113 361.793C211.113 361.793 209.381 350.361 188.621 339.942Z"
        fill="white" />
    <path fill-rule="evenodd" clip-rule="evenodd"
        d="M155.915 81.3614C155.915 81.3614 160.457 75.7458 169.733 73.2737C177.231 71.2721 181.444 71.6014 182.915 71.426C182.915 71.426 167.06 82.4178 155.915 81.3614Z"
        fill="white" />
    <path fill-rule="evenodd" clip-rule="evenodd"
        d="M161.594 332.522C161.594 332.522 166.859 330.203 168.737 333.48C168.737 333.48 163.01 335.327 161.594 332.522Z"
        fill="white" />
    <path fill-rule="evenodd" clip-rule="evenodd"
        d="M199.869 388.075C199.869 388.075 199.916 383.849 206.862 381.655C206.862 381.655 207.465 387.198 199.869 388.075Z"
        fill="#FF9AFF" />
    <path style="mix-blend-mode:screen" opacity="0.92"
        d="M103.622 99.556C120.756 88.3863 125.591 65.4415 114.422 48.3073C103.252 31.173 80.3072 26.3378 63.1729 37.5075C46.0387 48.6771 41.2035 71.622 52.3731 88.7562C63.5428 105.89 86.4876 110.726 103.622 99.556Z"
        fill="url(#paint20_radial_2164_296575)" />
    <g style="mix-blend-mode:screen">
        <path fill-rule="evenodd" clip-rule="evenodd"
            d="M49.1183 69.1035C49.1183 69.1035 55.3627 79.7061 74.9982 65.5792C94.6338 51.4524 103.68 43.8651 112.242 47.5604C112.242 47.5604 93.3721 25.5811 68.9591 36.4232C45.0937 47.0215 49.1183 69.1077 49.1183 69.1077V69.1035Z"
            fill="url(#paint21_linear_2164_296575)" />
    </g>
    <path fill-rule="evenodd" clip-rule="evenodd"
        d="M96.3877 100.18C96.3877 100.18 113.312 92.0537 116.814 74.0862C116.814 74.0862 120.317 94.6413 96.3877 100.18Z"
        fill="#FF9AFF" />
    <path fill-rule="evenodd" clip-rule="evenodd"
        d="M49.063 61.2895C49.063 61.2895 51.2613 44.156 68.2794 38.2238C68.2794 38.2238 60.9701 61.4991 49.063 61.2895Z"
        fill="white" />
    <path fill-rule="evenodd" clip-rule="evenodd"
        d="M68.9847 37.4026C67.2013 36.4916 74.6688 33.857 78.8389 34.0623C78.8389 34.0623 71.4697 38.6729 68.9847 37.4026Z"
        fill="white" />
    <path fill-rule="evenodd" clip-rule="evenodd"
        d="M78.8818 103.097C78.8818 103.097 87.6368 96.0952 96.3875 100.18C96.3875 100.18 90.8445 105.564 78.8818 103.097Z"
        fill="white" />
    <path style="mix-blend-mode:screen" opacity="0.92" fill-rule="evenodd" clip-rule="evenodd"
        d="M313.478 391.629C313.478 401.154 305.758 408.878 296.229 408.878C286.7 408.878 278.98 401.158 278.98 391.629C278.98 382.1 286.7 374.38 296.229 374.38C305.758 374.38 313.478 382.1 313.478 391.629Z"
        fill="url(#paint22_radial_2164_296575)" />
    <path style="mix-blend-mode:screen" fill-rule="evenodd" clip-rule="evenodd"
        d="M280.268 391.894C280.268 391.894 283.176 396.834 292.32 390.252C301.464 383.674 305.677 380.141 309.663 381.861C309.663 381.861 300.878 371.626 289.506 376.673C278.39 381.608 280.268 391.894 280.268 391.894Z"
        fill="url(#paint23_linear_2164_296575)" />
    <path fill-rule="evenodd" clip-rule="evenodd"
        d="M302.281 406.368C302.281 406.368 310.163 402.583 311.793 394.217C311.793 394.217 313.422 403.789 302.281 406.368Z"
        fill="#FF9AFF" />
    <path fill-rule="evenodd" clip-rule="evenodd"
        d="M280.242 388.255C280.242 388.255 281.264 380.279 289.189 377.516C289.189 377.516 285.785 388.354 280.242 388.255Z"
        fill="white" />
    <path fill-rule="evenodd" clip-rule="evenodd"
        d="M289.519 377.13C288.689 376.707 292.166 375.48 294.108 375.574C294.108 375.574 290.678 377.721 289.519 377.13Z"
        fill="white" />
    <path fill-rule="evenodd" clip-rule="evenodd"
        d="M294.129 407.724C294.129 407.724 298.205 404.461 302.281 406.368C302.281 406.368 299.698 408.874 294.129 407.724Z"
        fill="white" />
    <circle cx="220" cy="220" r="200" fill="url(#paint24_radial_2164_296575)" fill-opacity="0.1" />
    <defs>
        <radialGradient id="paint0_radial_2164_296575" cx="0" cy="0" r="1"
            gradientUnits="userSpaceOnUse"
            gradientTransform="translate(220 220) rotate(90) scale(160)">
            <stop stop-color="white" />
            <stop offset="1" stop-color="white" stop-opacity="0" />
        </radialGradient>
        <radialGradient id="paint1_radial_2164_296575" cx="0" cy="0" r="1"
            gradientUnits="userSpaceOnUse" gradientTransform="translate(220 220) scale(80)">
            <stop stop-color="#009BFF" />
            <stop offset="1" stop-color="white" stop-opacity="0" />
        </radialGradient>
        <radialGradient id="paint2_radial_2164_296575" cx="0" cy="0" r="1"
            gradientUnits="userSpaceOnUse"
            gradientTransform="translate(213.706 220.001) scale(176 176)">
            <stop stop-color="#7BE7FF" />
            <stop offset="0.874" stop-color="#7BE7FF" stop-opacity="0.2" />
            <stop offset="1" stop-color="#7BE7FF" stop-opacity="0" />
        </radialGradient>
        <radialGradient id="paint3_radial_2164_296575" cx="0" cy="0" r="1"
            gradientUnits="userSpaceOnUse"
            gradientTransform="translate(220.001 219.999) scale(156.584 156.584)">
            <stop offset="0.969" stop-color="white" stop-opacity="0" />
            <stop offset="1" stop-color="#008BAB" stop-opacity="0.8" />
        </radialGradient>
        <radialGradient id="paint4_radial_2164_296575" cx="0" cy="0" r="1"
            gradientUnits="userSpaceOnUse"
            gradientTransform="translate(178.647 178.607) scale(214.036)">
            <stop stop-color="#00CEC0" />
            <stop offset="0.26" stop-color="#00CBC0" />
            <stop offset="0.38" stop-color="#00C4C0" />
            <stop offset="0.48" stop-color="#00B6C2" />
            <stop offset="0.56" stop-color="#00A4C3" />
            <stop offset="0.64" stop-color="#008BC5" />
            <stop offset="0.71" stop-color="#006EC8" />
            <stop offset="0.72" stop-color="#0068C9" />
            <stop offset="0.74" stop-color="#0667CA" />
            <stop offset="0.78" stop-color="#1A65CE" />
            <stop offset="0.83" stop-color="#3963D5" />
            <stop offset="0.88" stop-color="#655FDF" />
            <stop offset="0.93" stop-color="#9E5AEC" />
            <stop offset="0.99" stop-color="#E155FB" />
            <stop offset="1" stop-color="#F154FF" />
        </radialGradient>
        <linearGradient id="paint5_linear_2164_296575" x1="120.433" y1="268.466" x2="160.127"
            y2="268.466" gradientUnits="userSpaceOnUse">
            <stop stop-color="#B8C2FF" />
            <stop offset="1" stop-color="#7D72B3" />
        </linearGradient>
        <linearGradient id="paint6_linear_2164_296575" x1="157.506" y1="289.055" x2="165.683"
            y2="289.055" gradientUnits="userSpaceOnUse">
            <stop stop-color="#B8C2FF" />
            <stop offset="1" stop-color="#7D72B3" />
        </linearGradient>
        <linearGradient id="paint7_linear_2164_296575" x1="191.884" y1="95.6416" x2="232.99"
            y2="95.6416" gradientUnits="userSpaceOnUse">
            <stop stop-color="#B8C2FF" />
            <stop offset="1" stop-color="#7D72B3" />
        </linearGradient>
        <linearGradient id="paint8_linear_2164_296575" x1="130.202" y1="88.2329" x2="295.36"
            y2="244.741" gradientUnits="userSpaceOnUse">
            <stop offset="0.02" stop-color="#B3FFE8" />
            <stop offset="1" stop-color="white" stop-opacity="0" />
        </linearGradient>
        <linearGradient id="paint9_linear_2164_296575" x1="209.304" y1="275.963" x2="209.304"
            y2="125.332" gradientUnits="userSpaceOnUse">
            <stop stop-color="#BDFFE8" />
            <stop offset="1" stop-color="white" stop-opacity="0" />
        </linearGradient>
        <linearGradient id="paint10_linear_2164_296575" x1="229.799" y1="321.371" x2="229.799"
            y2="180.197" gradientUnits="userSpaceOnUse">
            <stop stop-color="#BDFFE8" />
            <stop offset="1" stop-color="white" stop-opacity="0" />
        </linearGradient>
        <linearGradient id="paint11_linear_2164_296575" x1="197.157" y1="183.568" x2="197.157"
            y2="90.2444" gradientUnits="userSpaceOnUse">
            <stop stop-color="#BDFFE8" />
            <stop offset="1" stop-color="white" stop-opacity="0" />
        </linearGradient>
        <radialGradient id="paint12_radial_2164_296575" cx="0" cy="0" r="1"
            gradientUnits="userSpaceOnUse"
            gradientTransform="translate(313.482 99.0206) scale(48.1201 48.1201)">
            <stop offset="0.77" stop-color="white" stop-opacity="0" />
            <stop offset="0.79" stop-color="white" stop-opacity="0" />
            <stop offset="0.86" stop-color="#891A87" />
            <stop offset="0.89" stop-color="#C426C2" />
            <stop offset="0.91" stop-color="#FF32FC" />
            <stop offset="0.92" stop-color="#FA33FA" />
            <stop offset="0.93" stop-color="#EE37F6" />
            <stop offset="0.94" stop-color="#D93FF0" />
            <stop offset="0.95" stop-color="#BB49E6" />
            <stop offset="0.97" stop-color="#9556DA" />
            <stop offset="0.98" stop-color="#6766CB" />
            <stop offset="0.99" stop-color="#3179BA" />
            <stop offset="1" stop-color="#008BAB" />
        </radialGradient>
        <radialGradient id="paint13_radial_2164_296575" cx="0" cy="0" r="1"
            gradientUnits="userSpaceOnUse"
            gradientTransform="translate(168.202 355.724) scale(45.7549 45.755)">
            <stop offset="0.77" stop-color="white" stop-opacity="0" />
            <stop offset="0.91" stop-color="#FF32FC" />
            <stop offset="0.92" stop-color="#FA33FA" />
            <stop offset="0.93" stop-color="#EE37F6" />
            <stop offset="0.94" stop-color="#D93FF0" />
            <stop offset="0.95" stop-color="#BB49E6" />
            <stop offset="0.97" stop-color="#9556DA" />
            <stop offset="0.98" stop-color="#6766CB" />
            <stop offset="0.99" stop-color="#3179BA" />
            <stop offset="1" stop-color="#008BAB" />
        </radialGradient>
        <linearGradient id="paint14_linear_2164_296575" x1="288.834" y1="50.8365" x2="344.418"
            y2="103.503" gradientUnits="userSpaceOnUse">
            <stop offset="0.02" stop-color="#54FFE8" />
            <stop offset="1" stop-color="white" stop-opacity="0" />
        </linearGradient>
        <linearGradient id="paint15_linear_2164_296575" x1="129.731" y1="327.457" x2="194.035"
            y2="388.387" gradientUnits="userSpaceOnUse">
            <stop offset="0.02" stop-color="#54FFE8" />
            <stop offset="0.21" stop-color="#3DBBAA" />
            <stop offset="1" stop-color="white" stop-opacity="0" />
        </linearGradient>
        <radialGradient id="paint16_radial_2164_296575" cx="0" cy="0" r="1"
            gradientUnits="userSpaceOnUse"
            gradientTransform="translate(373.735 166.394) rotate(-12.09) scale(18.0085 21.697)">
            <stop offset="0.77" stop-color="white" stop-opacity="0" />
            <stop offset="0.91" stop-color="#FF32FC" />
            <stop offset="0.92" stop-color="#FA33FA" />
            <stop offset="0.93" stop-color="#EE37F6" />
            <stop offset="0.94" stop-color="#D93FF0" />
            <stop offset="0.95" stop-color="#BB49E6" />
            <stop offset="0.97" stop-color="#9556DA" />
            <stop offset="0.98" stop-color="#6766CB" />
            <stop offset="0.99" stop-color="#3179BA" />
            <stop offset="1" stop-color="#008BAB" />
        </radialGradient>
        <linearGradient id="paint17_linear_2164_296575" x1="361.589" y1="143.044" x2="387.281"
            y2="167.388" gradientUnits="userSpaceOnUse">
            <stop offset="0.02" stop-color="#54FFE8" />
            <stop offset="0.21" stop-color="#3DBBAA" />
            <stop offset="1" stop-color="white" stop-opacity="0" />
        </linearGradient>
        <radialGradient id="paint18_radial_2164_296575" cx="0" cy="0" r="1"
            gradientUnits="userSpaceOnUse"
            gradientTransform="translate(249.402 69.3123) rotate(-66.08) scale(9.38943 11.3126)">
            <stop offset="0.42" stop-color="white" stop-opacity="0" />
            <stop offset="1" stop-color="#008BAB" />
        </radialGradient>
        <linearGradient id="paint19_linear_2164_296575" x1="242.038" y1="59.1442" x2="258.595"
            y2="60.8899" gradientUnits="userSpaceOnUse">
            <stop offset="0.02" stop-color="#54FFE8" />
            <stop offset="1" stop-color="white" stop-opacity="0" />
        </linearGradient>
        <radialGradient id="paint20_radial_2164_296575" cx="0" cy="0" r="1"
            gradientUnits="userSpaceOnUse"
            gradientTransform="translate(80.3079 65.7747) scale(39.6175 39.6175)">
            <stop offset="0.77" stop-color="white" stop-opacity="0" />
            <stop offset="0.87" stop-color="#008BAB" />
            <stop offset="0.98" stop-color="#FF32FC" />
        </radialGradient>
        <linearGradient id="paint21_linear_2164_296575" x1="48.8617" y1="53.1675" x2="112.242"
            y2="53.1675" gradientUnits="userSpaceOnUse">
            <stop offset="0.02" stop-color="#54FFE8" />
            <stop offset="0.21" stop-color="#3DBBAA" />
            <stop offset="1" stop-color="white" stop-opacity="0" />
        </linearGradient>
        <radialGradient id="paint22_radial_2164_296575" cx="0" cy="0" r="1"
            gradientUnits="userSpaceOnUse"
            gradientTransform="translate(294.792 390.346) scale(18.4508)">
            <stop offset="0.77" stop-color="white" stop-opacity="0" />
            <stop offset="0.87" stop-color="#008BAB" />
            <stop offset="0.98" stop-color="#FF32FC" />
        </radialGradient>
        <linearGradient id="paint23_linear_2164_296575" x1="280.148" y1="384.474" x2="309.663"
            y2="384.474" gradientUnits="userSpaceOnUse">
            <stop offset="0.02" stop-color="#54FFE8" />
            <stop offset="1" stop-color="white" stop-opacity="0" />
        </linearGradient>
        <radialGradient id="paint24_radial_2164_296575" cx="0" cy="0" r="1"
            gradientUnits="userSpaceOnUse"
            gradientTransform="translate(220 220) rotate(90) scale(200)">
            <stop stop-color="white" stop-opacity="0.3" />
            <stop offset="0.784" stop-color="white" />
            <stop offset="1" stop-color="white" stop-opacity="0" />
        </radialGradient>
    </defs>
</svg>
    