<svg width="520" height="520" viewBox="0 0 520 520" fill="none" xmlns="http://www.w3.org/2000/svg">
    <g style="mix-blend-mode:color-dodge" opacity="0.6" filter="url(#filter0_bf_2164_295230)">
        <circle cx="260" cy="260" r="160" fill="white" fill-opacity="0.1" />
    </g>
    <path
        d="M257.939 436.446C355.141 436.446 433.939 357.648 433.939 260.446C433.939 163.243 355.141 84.4456 257.939 84.4456C160.737 84.4456 81.9387 163.243 81.9387 260.446C81.9387 357.648 160.737 436.446 257.939 436.446Z"
        fill="url(#paint0_radial_2164_295230)" />
    <path fill-rule="evenodd" clip-rule="evenodd"
        d="M409.133 265.821C411.673 307.646 393.357 339.109 387.966 347.726C359.795 392.887 307.497 418.406 257.939 417.014C185.048 414.96 106.745 354.376 106.745 265.821C106.745 182.325 174.443 114.627 257.939 114.627C350.206 114.627 405.155 200.222 409.133 265.821Z"
        fill="url(#paint1_radial_2164_295230)" />
    <path style="mix-blend-mode:multiply" opacity="0.74" fill-rule="evenodd" clip-rule="evenodd"
        d="M121.15 224.526C109.595 264.628 126.365 271.212 191.08 276.007C255.795 280.801 270.93 198.123 254.978 171.145C239.026 144.19 187.832 176.647 173.89 190.964C159.949 205.282 196.029 230.978 210.943 235.22C225.857 239.462 234.408 221.654 239.401 217.964C244.417 214.274 239.622 242.931 207.276 247.482C174.929 252.034 132.021 236.148 167.549 187.164C203.078 138.18 263.042 158.595 273.228 166.793C283.414 174.99 261.209 187.915 266.887 208.286C272.587 228.658 390.485 210.076 395.655 197.195C400.803 184.314 341.191 92.8196 228.111 122.78C131.292 148.41 121.173 224.504 121.173 224.504L121.15 224.526Z"
        fill="url(#paint2_linear_2164_295230)" />
    <path style="mix-blend-mode:multiply" opacity="0.5" fill-rule="evenodd" clip-rule="evenodd"
        d="M138.053 184.645C105.64 232.193 118.72 266.55 138.053 284.292C157.386 302.056 187.92 246.267 268.522 251.393C349.123 256.519 285.822 218.096 205.662 242.732C125.503 267.367 185.623 230.801 218.234 225.609C250.846 220.416 267.704 199.426 254.116 176.227C240.528 153.028 189.379 164.185 173.581 198.852C169.692 207.38 148.106 201.989 171.482 178.481C194.858 154.972 237.788 150.001 276.675 160.562C315.583 171.123 310.789 142.378 304.779 123.487C298.791 104.618 189.71 108.838 138.053 184.623V184.645Z"
        fill="url(#paint3_linear_2164_295230)" />
    <path style="mix-blend-mode:screen" opacity="0.84" fill-rule="evenodd" clip-rule="evenodd"
        d="M278.133 294.08C317.572 242.113 359.773 256.232 376.83 301.636C393.909 347.019 313.418 403.868 225.592 389.595C137.766 375.344 242.804 348.565 266.445 340.611C290.109 332.635 280.519 359.524 282 366.462C283.48 373.4 233.458 375.499 233.458 368.76C233.458 362.021 251.73 349.405 262.512 349.405C273.294 349.405 257.121 353.912 261.916 357.668C266.71 361.402 266.953 353.89 269.826 349.405C272.698 344.92 234.364 349.427 217.284 368.76C200.205 388.07 284.452 387.098 312.247 363.811C356.879 326.382 302.747 348.985 271.483 332.392C232.198 311.535 278.089 294.102 278.089 294.102L278.133 294.08Z"
        fill="url(#paint4_linear_2164_295230)" />
    <path style="mix-blend-mode:screen" fill-rule="evenodd" clip-rule="evenodd"
        d="M260.259 375.233C276.012 388.336 333.745 384.116 360.9 342.511C388.054 300.907 369.605 308.066 362.8 300.863C355.995 293.682 361.298 260.496 343.091 288.733C335.535 300.465 350.073 264.164 305.707 257.049C261.341 249.935 192.384 253.138 163.197 287.341C134.01 321.543 164.567 343.594 216.997 350.399C269.428 357.204 276.1 348.433 276.653 323.311C277.205 298.189 252.238 295.494 237.015 305.967C221.792 316.462 235.756 332.326 237.015 337.871C238.274 343.417 247.046 338.623 248.946 337.871C250.846 337.12 245.234 332.038 248.946 329.034C252.658 326.029 258.933 339.97 256.834 345.737C254.735 351.504 209.507 348.344 187.633 341.318C165.76 334.292 168.919 301.481 206.591 281.707C244.262 261.932 277.912 269.091 296.14 289.771C314.368 310.452 308.911 312.573 308.602 326.36C308.292 340.147 338.695 345.582 346.428 304.663C348.151 295.538 359.95 302.63 365.407 314.142C370.865 325.653 351.289 361.469 326.962 370.815C302.636 380.161 278.42 385.044 275.128 375.764C271.836 366.484 260.259 375.233 260.259 375.233Z"
        fill="url(#paint5_linear_2164_295230)" />
    <path style="mix-blend-mode:screen" opacity="0.5" fill-rule="evenodd" clip-rule="evenodd"
        d="M151.884 297.77C149.012 263.722 140.461 246.466 247.576 241.075C354.691 235.684 394.329 264.539 391.302 304.663C388.275 344.787 414.789 275.189 402.637 221.83C390.485 168.449 302.415 155.878 268.544 163.964C234.695 172.051 255.221 179.21 250.647 183.43C246.074 187.628 224.509 170.858 174.774 196.929C125.039 223.001 149.167 297.77 149.167 297.77H151.906H151.884Z"
        fill="url(#paint6_linear_2164_295230)" />
    <path style="mix-blend-mode:screen"
        d="M372.667 295.532C374.753 257.872 344.324 225.563 304.702 223.369C265.08 221.174 231.269 249.925 229.183 287.586C227.098 325.246 257.527 357.555 297.149 359.749C336.771 361.944 370.581 333.193 372.667 295.532Z"
        fill="url(#paint7_radial_2164_295230)" />
    <path style="mix-blend-mode:multiply" opacity="0.5" fill-rule="evenodd" clip-rule="evenodd"
        d="M216.003 126.381C183.435 135.573 168.787 163.346 168.168 175.255C167.549 187.164 185.534 152.674 243.356 156.364C301.178 160.053 348.262 194.565 365.385 202.321C382.508 210.076 356.923 86.5666 216.003 126.381Z"
        fill="url(#paint8_linear_2164_295230)" />
    <g style="mix-blend-mode:soft-light" opacity="0.8">
        <path fill-rule="evenodd" clip-rule="evenodd"
            d="M167.262 214.406C161.385 211.556 154.558 224.658 159.463 229.364C164.346 234.071 175.901 218.582 167.262 214.406Z"
            fill="#EBFBFC" />
    </g>
    <path style="mix-blend-mode:screen" fill-rule="evenodd" clip-rule="evenodd"
        d="M109.905 234.844C109.905 234.844 134.894 146.443 218.213 125.1C218.213 125.1 136.683 127.818 109.905 234.844Z"
        fill="url(#paint9_linear_2164_295230)" />
    <path style="mix-blend-mode:multiply" opacity="0.74" fill-rule="evenodd" clip-rule="evenodd"
        d="M205.663 379.608C187.656 380.558 210.546 411.712 263.573 411.115C316.6 410.519 336.53 393.793 337.435 391.827C338.341 389.86 294.594 421.301 205.663 379.63V379.608Z"
        fill="url(#paint10_linear_2164_295230)" />
    <path style="mix-blend-mode:screen" opacity="0.5" fill-rule="evenodd" clip-rule="evenodd"
        d="M182.508 395.362C182.508 395.362 208.513 415.004 254.094 416.948C299.676 418.893 335.27 396.423 335.27 396.423C335.27 396.423 273.759 432.238 190.174 393.285L182.508 395.362Z"
        fill="url(#paint11_linear_2164_295230)" />
    <path fill-rule="evenodd" clip-rule="evenodd"
        d="M101.641 223.134C101.597 223.311 101.553 223.443 101.531 223.598C101.553 223.532 101.575 223.355 101.641 223.134Z"
        fill="url(#paint12_radial_2164_295230)" />
    <path fill-rule="evenodd" clip-rule="evenodd"
        d="M419.915 265.821C419.915 313.324 399.477 356.055 366.865 385.662C366.534 385.949 366.269 386.215 366.026 386.413C365.849 386.59 365.672 386.745 365.495 386.855C358.469 393.108 350.913 398.764 342.893 403.714C342.893 403.714 331.646 404.553 322.101 402.741C319.251 402.189 316.556 401.438 314.346 400.311C304.757 395.516 320.93 363.148 327.537 362.551C329.79 362.33 331.359 364.407 332.707 367.103V367.147C335.005 371.743 336.728 378.261 340.33 379.233H340.352C340.816 379.365 341.346 379.409 341.92 379.299C346.892 378.482 368.478 373.024 381.028 351.526C381.028 351.526 386.132 350.244 388.253 344.743C390.219 339.705 388.673 333.475 388.385 332.414C388.385 332.348 388.363 332.326 388.363 332.326V332.282C389.623 326.25 390.286 319.489 390.153 311.91C389.8 293.108 362.38 243.13 343.091 245.891C343.091 245.891 343.084 245.891 343.069 245.891C342.141 246.002 341.258 246.267 340.396 246.643C340.352 246.665 340.33 246.665 340.33 246.665C336.551 248.3 333.193 252.365 330.542 259.502C318.323 292.467 296.251 305.702 290.506 309.966C288.628 311.336 288.518 311.778 291.014 311.623C313.816 310.275 297.599 358.353 293.401 365.534C289.203 372.737 305.994 378.725 280.21 392.49C276.476 394.478 272.035 396.334 266.975 397.991C265.031 398.632 262.998 399.25 260.877 399.803C230.563 407.978 184.407 408.641 150.448 386.922C140.063 377.73 130.85 367.169 123.095 355.591C123.095 355.591 123.095 355.569 123.073 355.547L120.311 351.261C104.845 326.449 95.9404 297.151 95.9404 265.777C95.9404 251.216 97.8627 237.076 101.486 223.664L108.07 232.392C108.181 232.59 108.336 232.767 108.468 232.944C109.33 234.027 109.882 234.822 109.882 234.822C109.882 234.822 104.027 281.375 117.218 285.573C117.858 285.794 118.499 285.949 119.14 286.104C119.781 286.236 120.399 286.369 120.996 286.457H121.018C121.637 286.523 122.233 286.59 122.83 286.656C123.736 286.722 124.641 286.722 125.503 286.7C125.835 286.7 126.122 286.678 126.431 286.656C127.072 286.612 127.668 286.546 128.265 286.457C129.038 286.347 129.812 286.214 130.519 286.082C130.695 286.037 130.872 285.993 131.049 285.993C131.049 285.993 131.064 285.986 131.093 285.971C131.226 285.949 131.38 285.927 131.513 285.883C131.535 285.883 131.557 285.861 131.557 285.861C131.623 285.861 131.668 285.839 131.756 285.839C132.043 285.772 132.308 285.728 132.507 285.64C132.529 285.64 132.551 285.618 132.551 285.618C132.64 285.595 132.75 285.573 132.839 285.573C132.927 285.551 133.037 285.507 133.126 285.485C133.192 285.463 133.258 285.463 133.325 285.441C133.435 285.419 133.523 285.397 133.523 285.397C137.611 284.336 140.019 283.497 140.019 286.501C140.019 289.329 138.539 293.616 139.511 297.77C139.798 299.007 140.284 300.222 141.102 301.349C142.516 304.509 144.482 308.662 145.079 309.104C145.742 309.612 147.333 308.463 148.327 307.624C148.349 307.602 148.371 307.602 148.371 307.58C148.614 307.292 148.835 307.072 149.122 306.917H149.144C149.144 306.917 149.166 306.895 149.189 306.917C151.42 307.712 154.094 308.441 157.342 308.95C167.417 310.585 189.29 309.215 211.341 304.111L211.893 303.978C213.683 303.581 215.451 303.117 217.24 302.653L218.19 302.41C229.856 299.272 241.235 295.096 250.669 289.771H250.692C252.879 288.534 254.912 287.23 256.834 285.883C266.622 278.989 273.162 270.439 273.604 260.12C275.415 220.593 268.809 204.398 269.428 199.006C269.516 198.211 269.826 197.283 270.334 196.311V196.267C273.051 190.765 280.807 183.43 280.807 183.43C280.807 183.43 275.791 177.928 276.785 174.702C276.785 174.702 276.785 174.68 276.807 174.658C276.852 174.371 277.006 174.106 277.205 173.841C277.492 173.487 278.133 172.979 278.995 172.316C278.995 172.316 279.017 172.316 279.039 172.294C284.253 168.317 297.046 159.104 284.806 148.388L285.314 142.378L277.514 143.438H277.492C277.492 143.438 277.139 143.24 276.653 143.041C274.576 141.892 272.168 140.765 269.45 139.682C230.254 123.642 206.966 123.575 206.546 123.575V112.174C222.698 106.739 239.953 103.823 257.939 103.823C289.446 103.823 318.831 112.815 343.666 128.37C343.688 128.392 343.71 128.414 343.732 128.414H343.754L343.798 128.436C389.534 157.093 419.915 207.889 419.915 265.799V265.821Z"
        fill="url(#paint13_radial_2164_295230)" />
    <g style="mix-blend-mode:multiply" opacity="0.8">
        <path fill-rule="evenodd" clip-rule="evenodd"
            d="M280.829 183.408C302.99 169.643 324.709 175.409 367.705 193.593C410.701 211.799 372.19 235.684 345.235 240.633C318.279 245.582 307.497 246.466 295.345 263.545C283.193 280.624 256.149 286.325 256.149 286.325L250.625 289.771C250.625 289.771 277.139 284.226 296.693 264.893C316.247 245.56 332.641 241.075 354.669 241.76C376.698 242.445 406.349 259.502 411.519 263.788C416.689 268.052 418.744 285.551 418.744 285.551L419.937 271.654C419.937 271.654 414.656 268.273 410.856 257.049C407.034 245.825 396.914 250.089 377.383 245.361C357.829 240.633 368.854 237.053 387.038 219.532C405.244 202.011 408.779 206.607 408.779 206.607L407.652 203.823C407.652 203.823 400.847 205.436 388.165 216.947C388.165 216.947 386.928 202.785 385.58 197.858C384.232 192.908 344.351 178.812 318.5 175.807C292.672 172.802 280.829 183.43 280.829 183.43V183.408Z"
            fill="#B3DBE0" />
    </g>
    <g style="mix-blend-mode:multiply" opacity="0.8">
        <path fill-rule="evenodd" clip-rule="evenodd"
            d="M343.732 128.414C342.362 127.972 317.219 119.797 302.68 126.801C287.7 133.982 284.806 148.388 284.806 148.388L285.314 142.378L277.515 143.438C277.515 143.438 273.339 138.776 274.377 135.573C275.416 132.391 281.713 128.281 302.393 123.973C322.035 119.863 341.744 127.574 343.688 128.37C343.71 128.392 343.732 128.414 343.754 128.414H343.732Z"
            fill="#B3DBE0" />
    </g>
    <path fill-rule="evenodd" clip-rule="evenodd"
        d="M149.145 306.917C149.145 306.917 148.769 307.27 148.393 307.58C148.636 307.293 148.857 307.072 149.145 306.917Z"
        fill="#D2F0F6" />
    <g style="mix-blend-mode:multiply" opacity="0.8">
        <path fill-rule="evenodd" clip-rule="evenodd"
            d="M266.975 398.035L260.877 399.847C260.877 399.847 189.445 404.509 205.928 377.863C205.928 377.863 194.903 380.647 170.643 359.524C146.383 338.402 127.492 339.948 123.691 341.318C120.024 342.622 122.896 354.641 123.095 355.591L120.333 351.305C120.333 351.305 120.09 341.318 121.438 337.054C122.763 332.79 151.089 344.345 156.458 347.328C161.871 350.311 144.637 321.566 141.5 312.131C138.34 302.697 139.511 297.792 139.511 297.792C139.511 297.792 140.196 299.383 141.102 301.371C142.516 304.531 144.482 308.684 145.079 309.126C145.742 309.634 147.333 308.486 148.327 307.646C144.394 312.75 147.598 336.259 173.846 359.613C205.641 387.916 245.742 363.214 258.624 339.529C271.505 315.865 237.656 318.274 223.581 317.368C209.485 316.462 211.363 304.133 211.363 304.133L211.915 304L217.262 302.675L218.212 302.432C218.212 302.432 211.761 314.805 223.14 316.616C234.518 318.428 290.506 310.032 290.506 310.032L291.014 311.689C291.014 311.689 256.834 315.666 250.647 316.926C244.483 318.185 256.723 319.467 260.921 325.918C265.097 332.348 258.071 357.823 222.41 373.09C186.772 388.358 222.278 405.57 266.997 398.057L266.975 398.035Z"
            fill="#B3DBE0" />
    </g>
    <g style="mix-blend-mode:multiply" opacity="0.8">
        <path fill-rule="evenodd" clip-rule="evenodd"
            d="M296.14 359.303C296.14 359.303 290.263 365.888 264.479 375.455C238.716 385.044 219.693 384.734 219.693 384.734C219.693 384.734 233.767 386.347 249.388 386.347C265.009 386.347 261.518 378.813 271.173 374.438C280.829 370.063 288.12 370.24 290.992 367.478C293.843 364.717 296.14 359.303 296.14 359.303Z"
            fill="#D2F0F6" />
    </g>
    <g style="mix-blend-mode:multiply" opacity="0.8">
        <path fill-rule="evenodd" clip-rule="evenodd"
            d="M389.49 358.265C382.729 370.152 371.019 381.729 366.865 385.662C366.534 385.949 366.269 386.215 366.026 386.413C365.694 386.723 365.473 386.944 365.385 387.01C365.429 386.966 365.451 386.922 365.495 386.877C382.751 367.743 381.006 351.592 381.006 351.592C381.006 351.592 386.11 350.311 388.231 344.809C390.264 339.573 388.518 333.033 388.341 332.392C389.026 333.232 397.422 344.279 389.446 358.287L389.49 358.265Z"
            fill="#D2F0F6" />
    </g>
    <g style="mix-blend-mode:soft-light">
        <path fill-rule="evenodd" clip-rule="evenodd"
            d="M206.547 123.575V112.174C206.547 112.174 246.074 115.776 259.839 122.78C273.626 129.784 277.493 143.438 277.493 143.438C277.493 143.438 244.152 127.088 206.524 123.553L206.547 123.575Z"
            fill="#D7F2F7" />
    </g>
    <g style="mix-blend-mode:soft-light">
        <path fill-rule="evenodd" clip-rule="evenodd"
            d="M297.002 156.607C297.135 164.318 280.122 171.83 279.039 172.294C284.253 168.317 297.046 159.104 284.806 148.388C284.806 148.388 288.142 140.434 290.086 140.434C292.031 140.434 296.825 148.653 296.98 156.607H297.002Z"
            fill="#D7F2F7" />
    </g>
    <g style="mix-blend-mode:soft-light">
        <path fill-rule="evenodd" clip-rule="evenodd"
            d="M288.96 179.254L280.829 183.43C280.829 183.43 275.813 177.928 276.808 174.702C276.808 174.702 276.808 174.68 276.83 174.658C277.205 174.459 281.293 172.427 284.718 173.995C288.297 175.652 288.96 179.254 288.96 179.254Z"
            fill="#D7F2F7" />
    </g>
    <g style="mix-blend-mode:soft-light">
        <path fill-rule="evenodd" clip-rule="evenodd"
            d="M266.136 283.364C264.214 284.027 256.834 285.883 256.834 285.883C266.622 278.989 273.162 270.439 273.604 260.12C275.416 220.593 268.809 204.398 269.428 199.006C269.516 198.211 269.826 197.283 270.334 196.311V196.267C270.334 196.267 278.664 239.307 280.696 257.292C282.707 275.277 268.058 282.701 266.136 283.386V283.364Z"
            fill="#D7F2F7" />
    </g>
    <g style="mix-blend-mode:soft-light">
        <path fill-rule="evenodd" clip-rule="evenodd"
            d="M253.409 292.467C251.023 294.853 220.091 315.666 217.263 314.053C214.434 312.418 217.263 302.652 217.263 302.652L218.213 302.409C229.879 299.272 241.257 295.096 250.692 289.771H251.31C251.31 289.771 255.818 290.081 253.432 292.467H253.409Z"
            fill="#D7F2F7" />
    </g>
    <g style="mix-blend-mode:soft-light">
        <path fill-rule="evenodd" clip-rule="evenodd"
            d="M211.385 304.111C211.385 304.111 208.778 316.727 196.029 318.075C183.281 319.422 150.492 319.577 148.769 317.036C147.045 314.495 149.144 306.917 149.144 306.917H149.211C151.442 307.712 154.116 308.441 157.364 308.95C167.439 310.585 189.312 309.215 211.363 304.111H211.385Z"
            fill="#D7F2F7" />
    </g>
    <g style="mix-blend-mode:soft-light">
        <path fill-rule="evenodd" clip-rule="evenodd"
            d="M133.524 285.375C133.524 285.375 108.645 292.776 103.475 278.857C98.3046 264.915 100.293 228.503 101.641 226.934C102.613 225.829 106.391 230.27 108.49 232.966C109.352 234.049 109.904 234.844 109.904 234.844C109.904 234.844 104.049 281.397 117.24 285.595C123.802 287.672 129.48 286.435 133.501 285.375H133.524Z"
            fill="#D7F2F7" />
    </g>
    <g style="mix-blend-mode:soft-light">
        <path fill-rule="evenodd" clip-rule="evenodd"
            d="M395.125 329.321C395.125 329.321 393.843 336.656 392.915 338.159C392.031 339.551 388.828 333.254 388.408 332.436C388.408 332.37 388.386 332.348 388.386 332.348V332.304C389.645 326.272 390.308 319.511 390.175 311.932C389.822 293.13 362.402 243.152 343.114 245.913C347.29 244.919 355.31 243.66 361.253 246.687C369.649 250.973 394.948 294.853 396.318 307.911C397.666 320.925 395.125 329.321 395.125 329.321Z"
            fill="#D7F2F7" />
    </g>
    <g style="mix-blend-mode:soft-light">
        <path fill-rule="evenodd" clip-rule="evenodd"
            d="M332.707 367.169C332.707 367.169 306.79 390.28 322.101 402.741C319.251 402.189 316.556 401.438 314.346 400.311C304.757 395.516 320.93 363.148 327.537 362.551C329.79 362.33 331.359 364.407 332.707 367.103V367.147V367.169Z"
            fill="#D7F2F7" />
    </g>
    <g style="mix-blend-mode:soft-light">
        <path fill-rule="evenodd" clip-rule="evenodd"
            d="M378.554 365.821C374.135 372.582 361.276 380.845 353.631 381.751C346.317 382.613 340.86 379.674 340.33 379.277C340.794 379.409 341.324 379.454 341.899 379.343C346.87 378.526 368.456 373.068 381.006 351.57C381.006 351.57 382.95 359.06 378.532 365.821H378.554Z"
            fill="#D7F2F7" />
    </g>
    <g style="mix-blend-mode:soft-light">
        <path fill-rule="evenodd" clip-rule="evenodd"
            d="M288.959 179.254C288.959 179.254 319.516 180.226 325.902 180.226C332.287 180.226 354.757 188.291 354.757 188.291C354.757 188.291 332.088 178.768 319.494 176.514C306.922 174.26 288.959 179.254 288.959 179.254Z"
            fill="#D7F2F7" />
    </g>
    <g style="mix-blend-mode:soft-light">
        <path fill-rule="evenodd" clip-rule="evenodd"
            d="M300.957 260.894C300.957 260.894 311.916 251.791 315.915 249.868C324.333 245.803 335.425 243.814 339.313 242.886C343.202 241.959 344.042 241.914 344.042 241.914C344.042 241.914 332.265 242.29 320.025 247.836C307.784 253.381 300.957 260.894 300.957 260.894Z"
            fill="#D7F2F7" />
    </g>
    <g style="mix-blend-mode:soft-light">
        <path fill-rule="evenodd" clip-rule="evenodd"
            d="M288.959 138.931C288.959 138.931 300.294 128.105 309.839 126.05C319.384 123.995 329.349 124.989 329.349 124.989C329.349 124.989 319.936 121.785 307.033 125.21C294.13 128.635 288.982 138.909 288.982 138.909L288.959 138.931Z"
            fill="#D7F2F7" />
    </g>
    <g style="mix-blend-mode:soft-light">
        <path fill-rule="evenodd" clip-rule="evenodd"
            d="M248.946 317.589C248.946 317.589 258.358 315.622 269.737 314.23C281.116 312.838 288.12 311.999 288.12 311.999C288.12 311.999 281.028 315.512 273.096 316.572C265.164 317.611 248.946 317.611 248.946 317.611V317.589Z"
            fill="#D7F2F7" />
    </g>
    <g style="mix-blend-mode:soft-light">
        <path fill-rule="evenodd" clip-rule="evenodd"
            d="M158.446 350.399C158.446 350.399 171.416 361.535 180.519 369.842C189.622 378.15 198.371 379.387 202.194 379.166C206.016 378.945 206.569 377.598 206.569 377.598C206.569 377.598 204.448 377.575 194.991 375.697C185.534 373.819 167.527 355.326 158.424 350.399H158.446Z"
            fill="#D7F2F7" />
    </g>
    <g style="mix-blend-mode:soft-light">
        <path fill-rule="evenodd" clip-rule="evenodd"
            d="M213.771 377.664C213.771 377.664 227.802 373.113 232.309 369.732C236.794 366.352 238.893 364.451 247.532 357.933C256.171 351.416 260.259 338.822 260.259 338.822C260.259 338.822 257.983 349.339 242.76 360.872C227.536 372.405 213.771 377.686 213.771 377.686V377.664Z"
            fill="#D7F2F7" />
    </g>
    <g style="mix-blend-mode:soft-light">
        <path fill-rule="evenodd" clip-rule="evenodd"
            d="M375.748 246.046C375.748 246.046 401.289 256.762 405.664 260.894C410.039 265.025 415.076 269.665 415.076 269.665C415.076 269.665 413.309 264.407 407.299 260.894C401.289 257.38 383.017 249.957 375.748 246.046Z"
            fill="#D7F2F7" />
    </g>
    <g style="mix-blend-mode:soft-light">
        <path fill-rule="evenodd" clip-rule="evenodd"
            d="M370.268 234.689C370.268 234.689 377.802 228.636 386.22 222.118C394.639 215.6 399.809 208.971 399.809 208.971C399.809 208.971 394.351 214.075 388.496 218.118C382.641 222.162 370.268 234.689 370.268 234.689Z"
            fill="#D7F2F7" />
    </g>
    <g style="mix-blend-mode:multiply" opacity="0.3">
        <path fill-rule="evenodd" clip-rule="evenodd"
            d="M326.565 184.468C314.435 184.777 297.974 221.543 296.98 237.716C295.986 253.889 330.586 243.417 357.343 232.502C384.099 221.587 382.95 209.855 376.675 200.641C370.378 191.428 335.115 184.247 326.565 184.468Z"
            fill="#D2F0F6" />
    </g>
    <g style="mix-blend-mode:multiply" opacity="0.3">
        <path fill-rule="evenodd" clip-rule="evenodd"
            d="M346.848 131.706C339.291 127.331 333.171 159.037 331.47 169.046C329.768 179.055 367.263 182.745 378.929 192.422C390.617 202.078 393.975 193.77 394.218 189.948C394.439 186.125 370.842 145.582 346.87 131.706H346.848Z"
            fill="#D2F0F6" />
    </g>
    <g style="mix-blend-mode:multiply" opacity="0.3">
        <path fill-rule="evenodd" clip-rule="evenodd"
            d="M227.249 377.664C221.217 375.013 253.763 362.198 263.882 345.362C274.001 328.503 264.788 326.935 270.842 324.239C276.918 321.544 294.439 324.46 298.04 334.8C301.642 345.141 285.955 367.103 260.259 375.234C234.562 383.364 227.249 377.664 227.249 377.664Z"
            fill="#D2F0F6" />
    </g>
    <g style="mix-blend-mode:multiply" opacity="0.3">
        <path fill-rule="evenodd" clip-rule="evenodd"
            d="M163.219 343.55C161.65 332.326 225.769 339.948 235.049 347.151C244.328 354.332 220.201 373.444 199.123 370.527C178.044 367.589 163.219 343.572 163.219 343.572V343.55Z"
            fill="#D2F0F6" />
    </g>
    <g style="mix-blend-mode:multiply" opacity="0.3">
        <path fill-rule="evenodd" clip-rule="evenodd"
            d="M125.923 357.27C119.405 345.98 164.743 358.751 182.507 372.847C200.294 386.944 213.771 400.178 213.771 400.178C213.771 400.178 156.701 410.541 125.923 357.293V357.27Z"
            fill="#D2F0F6" />
    </g>
    <g style="mix-blend-mode:soft-light">
        <path fill-rule="evenodd" clip-rule="evenodd"
            d="M412.447 217.058C409.486 209.413 414.06 239.219 412.447 248.145C410.834 257.071 419.871 269.665 419.871 269.665C419.871 269.665 419.694 235.838 412.447 217.058Z"
            fill="#D6F3F7" />
    </g>
    <g style="mix-blend-mode:soft-light">
        <path fill-rule="evenodd" clip-rule="evenodd"
            d="M418.722 285.573C418.722 285.573 415.805 268.516 409.132 265.821C402.438 263.125 400.604 299.869 400.029 317.611C399.455 335.331 400.029 343.66 400.029 343.66C400.029 343.66 418.103 314.341 418.722 285.573Z"
            fill="#D6F3F7" />
    </g>
    <g style="mix-blend-mode:soft-light">
        <path fill-rule="evenodd" clip-rule="evenodd"
            d="M375.748 154.64C375.748 154.64 394.683 182.833 395.412 193.925C396.163 205.016 406.857 201.967 406.857 201.967C406.857 201.967 397.356 177.862 375.748 154.64Z"
            fill="#D6F3F7" />
    </g>
    <g style="mix-blend-mode:soft-light">
        <path fill-rule="evenodd" clip-rule="evenodd"
            d="M293.091 178.414C293.091 178.414 304.625 181.132 310.458 179.895C316.291 178.657 320.201 177.309 320.201 177.309C320.201 177.309 310.767 174.305 293.091 178.436V178.414Z"
            fill="#D7F2F7" />
    </g>
    <g style="mix-blend-mode:multiply" opacity="0.3">
        <path fill-rule="evenodd" clip-rule="evenodd"
            d="M247.863 314.142C243.975 311.049 280.343 283.408 298.549 269.665C316.755 255.922 329.326 254.464 329.326 254.464C329.326 254.464 312.336 286.523 298.549 300.266C284.761 314.009 247.863 314.164 247.863 314.164V314.142Z"
            fill="#D2F0F6" />
    </g>
    <g style="mix-blend-mode:soft-light">
        <path fill-rule="evenodd" clip-rule="evenodd"
            d="M380.409 225.609C380.409 225.609 384.674 223.487 387.612 221.013C390.551 218.538 393.18 215.268 393.18 215.268C393.18 215.268 384.63 221.256 380.409 225.609Z"
            fill="#D7F2F7" />
    </g>
    <g style="mix-blend-mode:soft-light">
        <path fill-rule="evenodd" clip-rule="evenodd"
            d="M230.276 106.187C230.276 106.187 263.352 116.041 280.895 120.438C298.438 124.835 330.63 122.78 330.63 122.78C330.63 122.78 293.953 97.7464 230.276 106.165V106.187Z"
            fill="#D6F3F7" />
    </g>
    <g style="mix-blend-mode:soft-light">
        <path fill-rule="evenodd" clip-rule="evenodd"
            d="M96.4929 279.078C96.4929 279.078 112.003 309.635 115.826 320.859C119.648 332.083 117.792 345.804 117.792 345.804C117.792 345.804 99.4094 322.229 96.515 279.078H96.4929Z"
            fill="#D6F3F7" />
    </g>
    <path fill-rule="evenodd" clip-rule="evenodd"
        d="M164.898 184.37C156.193 180.15 146.095 199.549 153.342 206.509C160.589 213.491 177.669 190.557 164.898 184.37Z"
        fill="white" />
    <g style="mix-blend-mode:screen">
        <path
            d="M304.404 406.686C372.592 406.686 427.869 354.149 427.869 289.342C427.869 224.534 372.592 171.997 304.404 171.997C236.216 171.997 180.939 224.534 180.939 289.342C180.939 354.149 236.216 406.686 304.404 406.686Z"
            fill="url(#paint14_radial_2164_295230)" />
    </g>
    <path fill-rule="evenodd" clip-rule="evenodd"
        d="M243.246 247.185C243.246 254.344 237.457 260.133 230.298 260.133C223.14 260.133 217.351 254.344 217.351 247.185C217.351 240.027 223.14 234.238 230.298 234.238C237.457 234.238 243.246 240.027 243.246 247.185Z"
        fill="url(#paint15_radial_2164_295230)" />
    <path fill-rule="evenodd" clip-rule="evenodd"
        d="M235.645 247.185C235.645 250.146 233.259 252.532 230.298 252.532C227.338 252.532 224.951 250.146 224.951 247.185C224.951 244.224 227.338 241.838 230.298 241.838C233.259 241.838 235.645 244.224 235.645 247.185Z"
        fill="url(#paint16_radial_2164_295230)" />
    <path fill-rule="evenodd" clip-rule="evenodd"
        d="M233.126 247.185C233.126 248.754 231.867 250.013 230.298 250.013C228.73 250.013 227.47 248.754 227.47 247.185C227.47 245.617 228.73 244.357 230.298 244.357C231.867 244.357 233.126 245.617 233.126 247.185Z"
        fill="url(#paint17_radial_2164_295230)" style="mix-blend-mode:screen" />
    <path style="mix-blend-mode:screen" fill-rule="evenodd" clip-rule="evenodd"
        d="M242.053 201.648C242.053 205.934 238.584 209.403 234.297 209.403C230.011 209.403 226.542 205.934 226.542 201.648C226.542 197.362 230.011 193.893 234.297 193.893C238.584 193.893 242.053 197.362 242.053 201.648Z"
        fill="url(#paint18_radial_2164_295230)" />
    <path style="mix-blend-mode:screen" fill-rule="evenodd" clip-rule="evenodd"
        d="M237.501 201.648C237.501 203.416 236.065 204.852 234.297 204.852C232.53 204.852 231.094 203.416 231.094 201.648C231.094 199.881 232.53 198.444 234.297 198.444C236.065 198.444 237.501 199.881 237.501 201.648Z"
        fill="url(#paint19_radial_2164_295230)" />
    <path
        d="M234.297 203.349C235.237 203.349 235.999 202.588 235.999 201.648C235.999 200.708 235.237 199.947 234.297 199.947C233.358 199.947 232.596 200.708 232.596 201.648C232.596 202.588 233.358 203.349 234.297 203.349Z"
        fill="url(#paint20_radial_2164_295230)" style="mix-blend-mode:screen" />
    <path fill-rule="evenodd" clip-rule="evenodd"
        d="M185.203 294.203C185.203 297.208 182.75 299.66 179.745 299.66C176.741 299.66 174.288 297.208 174.288 294.203C174.288 291.198 176.741 288.745 179.745 288.745C182.75 288.745 185.203 291.198 185.203 294.203Z"
        fill="url(#paint21_radial_2164_295230)" />
    <path
        d="M179.746 296.456C180.99 296.456 181.999 295.447 181.999 294.203C181.999 292.958 180.99 291.949 179.746 291.949C178.501 291.949 177.492 292.958 177.492 294.203C177.492 295.447 178.501 296.456 179.746 296.456Z"
        fill="url(#paint22_radial_2164_295230)" />
    <path style="mix-blend-mode:screen" fill-rule="evenodd" clip-rule="evenodd"
        d="M180.939 294.203C180.939 294.865 180.408 295.396 179.746 295.396C179.083 295.396 178.552 294.865 178.552 294.203C178.552 293.54 179.083 293.009 179.746 293.009C180.408 293.009 180.939 293.54 180.939 294.203Z"
        fill="url(#paint23_radial_2164_295230)" />
    <path fill-rule="evenodd" clip-rule="evenodd"
        d="M216.025 269.987C216.025 272.417 214.059 274.384 211.628 274.384C209.198 274.384 207.231 272.417 207.231 269.987C207.231 267.556 209.198 265.59 211.628 265.59C214.059 265.59 216.025 267.556 216.025 269.987Z"
        fill="url(#paint24_radial_2164_295230)" />
    <path style="mix-blend-mode:screen" fill-rule="evenodd" clip-rule="evenodd"
        d="M213.462 269.987C213.462 270.981 212.645 271.799 211.65 271.799C210.656 271.799 209.839 270.981 209.839 269.987C209.839 268.993 210.656 268.175 211.65 268.175C212.645 268.175 213.462 268.993 213.462 269.987Z"
        fill="url(#paint25_radial_2164_295230)" />
    <path style="mix-blend-mode:screen" fill-rule="evenodd" clip-rule="evenodd"
        d="M212.6 269.987C212.6 270.517 212.181 270.959 211.628 270.959C211.076 270.959 210.656 270.539 210.656 269.987C210.656 269.435 211.098 269.015 211.628 269.015C212.158 269.015 212.6 269.435 212.6 269.987Z"
        fill="url(#paint26_radial_2164_295230)" />
    <path
        d="M218.235 206.288C219.455 206.288 220.444 205.299 220.444 204.078C220.444 202.858 219.455 201.869 218.235 201.869C217.014 201.869 216.025 202.858 216.025 204.078C216.025 205.299 217.014 206.288 218.235 206.288Z"
        fill="url(#paint27_radial_2164_295230)" />
    <path style="mix-blend-mode:screen" fill-rule="evenodd" clip-rule="evenodd"
        d="M219.14 204.078C219.14 204.587 218.743 204.984 218.234 204.984C217.726 204.984 217.329 204.587 217.329 204.078C217.329 203.57 217.726 203.173 218.234 203.173C218.743 203.173 219.14 203.57 219.14 204.078Z"
        fill="url(#paint28_radial_2164_295230)" />
    <path fill-rule="evenodd" clip-rule="evenodd"
        d="M218.698 204.078C218.698 204.344 218.478 204.565 218.212 204.565C217.947 204.565 217.726 204.344 217.726 204.078C217.726 203.813 217.947 203.592 218.212 203.592C218.478 203.592 218.698 203.813 218.698 204.078Z"
        fill="url(#paint29_radial_2164_295230)" style="mix-blend-mode:screen" />
    <path fill-rule="evenodd" clip-rule="evenodd"
        d="M150.537 268.175C150.537 270.164 148.924 271.776 146.935 271.776C144.947 271.776 143.334 270.164 143.334 268.175C143.334 266.187 144.947 264.574 146.935 264.574C148.924 264.574 150.537 266.187 150.537 268.175Z"
        fill="url(#paint30_radial_2164_295230)" />
    <path style="mix-blend-mode:screen" fill-rule="evenodd" clip-rule="evenodd"
        d="M148.416 268.175C148.416 268.993 147.753 269.678 146.913 269.678C146.073 269.678 145.411 269.015 145.411 268.175C145.411 267.336 146.073 266.673 146.913 266.673C147.753 266.673 148.416 267.336 148.416 268.175Z"
        fill="url(#paint31_radial_2164_295230)" />
    <path style="mix-blend-mode:screen" fill-rule="evenodd" clip-rule="evenodd"
        d="M147.708 268.175C147.708 268.617 147.355 268.97 146.913 268.97C146.471 268.97 146.117 268.617 146.117 268.175C146.117 267.733 146.471 267.38 146.913 267.38C147.355 267.38 147.708 267.733 147.708 268.175Z"
        fill="url(#paint32_radial_2164_295230)" />
    <g filter="url(#filter1_f_2164_295230)">
        <circle cx="260" cy="260" r="160" fill="white" fill-opacity="0.1" />
    </g>
    <defs>
        <filter id="filter0_bf_2164_295230" x="0" y="0" width="520" height="520"
            filterUnits="userSpaceOnUse" color-interpolation-filters="sRGB">
            <feFlood flood-opacity="0" result="BackgroundImageFix" />
            <feGaussianBlur in="BackgroundImageFix" stdDeviation="50" />
            <feComposite in2="SourceAlpha" operator="in" result="effect1_backgroundBlur_2164_295230" />
            <feBlend mode="normal" in="SourceGraphic" in2="effect1_backgroundBlur_2164_295230"
                result="shape" />
            <feGaussianBlur stdDeviation="50" result="effect2_foregroundBlur_2164_295230" />
        </filter>
        <filter id="filter1_f_2164_295230" x="60" y="60" width="400" height="400"
            filterUnits="userSpaceOnUse" color-interpolation-filters="sRGB">
            <feFlood flood-opacity="0" result="BackgroundImageFix" />
            <feBlend mode="normal" in="SourceGraphic" in2="BackgroundImageFix" result="shape" />
            <feGaussianBlur stdDeviation="20" result="effect1_foregroundBlur_2164_295230" />
        </filter>
        <radialGradient id="paint0_radial_2164_295230" cx="0" cy="0" r="1"
            gradientUnits="userSpaceOnUse"
            gradientTransform="translate(257.939 260.451) rotate(45) scale(176)">
            <stop stop-color="#A2F9FF" />
            <stop offset="1" stop-color="#A1F9FF" stop-opacity="0" />
        </radialGradient>
        <radialGradient id="paint1_radial_2164_295230" cx="0" cy="0" r="1"
            gradientUnits="userSpaceOnUse"
            gradientTransform="translate(251.575 297.681) scale(151.282 151.282)">
            <stop stop-color="#D7F1F7" />
            <stop offset="1" stop-color="#D5F0F7" />
        </radialGradient>
        <linearGradient id="paint2_linear_2164_295230" x1="256.856" y1="276.205" x2="256.856"
            y2="116.792" gradientUnits="userSpaceOnUse">
            <stop stop-color="#D8F3F7" />
            <stop offset="0.77" stop-color="#D4F1F7" />
            <stop offset="1" stop-color="#D2F0F7" />
        </linearGradient>
        <linearGradient id="paint3_linear_2164_295230" x1="118.344" y1="200.929" x2="308.8"
            y2="200.929" gradientUnits="userSpaceOnUse">
            <stop stop-color="#D8F0F7" />
            <stop offset="1" stop-color="#D8F3F7" />
        </linearGradient>
        <linearGradient id="paint4_linear_2164_295230" x1="191.169" y1="326.36" x2="379.15"
            y2="326.36" gradientUnits="userSpaceOnUse">
            <stop stop-color="#D2F0F6" />
            <stop offset="0.99" stop-color="#D2F2F7" />
        </linearGradient>
        <linearGradient id="paint5_linear_2164_295230" x1="151.884" y1="317.898" x2="375.261"
            y2="317.898" gradientUnits="userSpaceOnUse">
            <stop stop-color="#D2F0F6" />
            <stop offset="0.99" stop-color="#D2F2F7" />
        </linearGradient>
        <linearGradient id="paint6_linear_2164_295230" x1="143.289" y1="239.152" x2="405.84"
            y2="239.152" gradientUnits="userSpaceOnUse">
            <stop stop-color="#D2F0F6" />
            <stop offset="0.99" stop-color="#D2F2F7" />
        </linearGradient>
        <radialGradient id="paint7_radial_2164_295230" cx="0" cy="0" r="1"
            gradientUnits="userSpaceOnUse"
            gradientTransform="translate(301.523 291.186) rotate(3.17) scale(71.9367 68.2341)">
            <stop offset="0.01" stop-color="#D2F4F7" />
            <stop offset="1" stop-color="#D2F0F6" />
        </radialGradient>
        <linearGradient id="paint8_linear_2164_295230" x1="269.118" y1="202.696" x2="269.118"
            y2="118.471" gradientUnits="userSpaceOnUse">
            <stop stop-color="#D8F3F7" />
            <stop offset="0.77" stop-color="#D4F1F7" />
            <stop offset="1" stop-color="#D2F0F7" />
        </linearGradient>
        <linearGradient id="paint9_linear_2164_295230" x1="164.081" y1="234.844" x2="164.081"
            y2="125.078" gradientUnits="userSpaceOnUse">
            <stop stop-color="#D2F0F6" />
            <stop offset="0.99" stop-color="#D2F4F7" />
        </linearGradient>
        <linearGradient id="paint10_linear_2164_295230" x1="199.587" y1="395.362" x2="337.457"
            y2="395.362" gradientUnits="userSpaceOnUse">
            <stop stop-color="#D2F0F7" />
            <stop offset="1" stop-color="#D8F3F7" />
        </linearGradient>
        <linearGradient id="paint11_linear_2164_295230" x1="182.508" y1="405.194" x2="335.27"
            y2="405.194" gradientUnits="userSpaceOnUse">
            <stop offset="0.01" stop-color="#D2F4F7" />
            <stop offset="1" stop-color="#D2F0F6" />
        </linearGradient>
        <radialGradient id="paint12_radial_2164_295230" cx="0" cy="0" r="1"
            gradientUnits="userSpaceOnUse"
            gradientTransform="translate(101.575 223.333) scale(0.176758)">
            <stop stop-color="#D3F0F6" />
            <stop offset="1" stop-color="#D2F0F6" />
        </radialGradient>
        <radialGradient id="paint13_radial_2164_295230" cx="0" cy="0" r="1"
            gradientUnits="userSpaceOnUse"
            gradientTransform="translate(231.756 227.663) scale(156.342 156.342)">
            <stop stop-color="#D3F0F6" />
            <stop offset="1" stop-color="#D2F0F6" />
        </radialGradient>
        <radialGradient id="paint14_radial_2164_295230" cx="0" cy="0" r="1"
            gradientUnits="userSpaceOnUse"
            gradientTransform="translate(304.966 288.933) scale(123.591 117.229)">
            <stop offset="0.01" stop-color="#8EB0D9" />
            <stop offset="1" stop-color="white" stop-opacity="0" />
        </radialGradient>
        <radialGradient id="paint15_radial_2164_295230" cx="0" cy="0" r="1"
            gradientUnits="userSpaceOnUse"
            gradientTransform="translate(230.298 247.185) scale(12.9475)">
            <stop stop-color="white" />
            <stop offset="1" stop-color="white" stop-opacity="0" />
        </radialGradient>
        <radialGradient id="paint16_radial_2164_295230" cx="0" cy="0" r="1"
            gradientUnits="userSpaceOnUse"
            gradientTransform="translate(230.298 247.185) scale(5.34691 5.34692)">
            <stop offset="0.59" stop-color="white" />
            <stop offset="1" stop-color="white" stop-opacity="0" />
        </radialGradient>
        <radialGradient id="paint17_radial_2164_295230" cx="0" cy="0" r="1"
            gradientUnits="userSpaceOnUse"
            gradientTransform="translate(230.298 247.185) scale(2.82812)">
            <stop offset="0.84" stop-color="white" />
            <stop offset="1" stop-color="white" stop-opacity="0" />
        </radialGradient>
        <radialGradient id="paint18_radial_2164_295230" cx="0" cy="0" r="1"
            gradientUnits="userSpaceOnUse"
            gradientTransform="translate(234.297 201.648) scale(7.75523)">
            <stop stop-color="#0086FF" />
            <stop offset="1" stop-color="#0086FF" stop-opacity="0" />
        </radialGradient>
        <radialGradient id="paint19_radial_2164_295230" cx="0" cy="0" r="1"
            gradientUnits="userSpaceOnUse"
            gradientTransform="translate(234.297 201.648) scale(3.20374)">
            <stop offset="0.59" stop-color="#5793FF" />
            <stop offset="1" stop-color="#5793FF" stop-opacity="0" />
        </radialGradient>
        <radialGradient id="paint20_radial_2164_295230" cx="0" cy="0" r="1"
            gradientUnits="userSpaceOnUse"
            gradientTransform="translate(234.297 201.648) scale(1.70129 1.70129)">
            <stop offset="0.84" stop-color="white" />
            <stop offset="1" stop-color="white" stop-opacity="0" />
        </radialGradient>
        <radialGradient id="paint21_radial_2164_295230" cx="0" cy="0" r="1"
            gradientUnits="userSpaceOnUse"
            gradientTransform="translate(179.745 294.203) scale(5.45738 5.45739)">
            <stop stop-color="white" />
            <stop offset="1" stop-color="white" stop-opacity="0" />
        </radialGradient>
        <radialGradient id="paint22_radial_2164_295230" cx="0" cy="0" r="1"
            gradientUnits="userSpaceOnUse"
            gradientTransform="translate(179.746 294.203) scale(2.25365 2.25366)">
            <stop offset="0.59" stop-color="white" />
            <stop offset="1" stop-color="white" stop-opacity="0" />
        </radialGradient>
        <radialGradient id="paint23_radial_2164_295230" cx="0" cy="0" r="1"
            gradientUnits="userSpaceOnUse"
            gradientTransform="translate(179.746 294.203) scale(1.19312)">
            <stop offset="0.59" stop-color="#FFFFA2" />
            <stop offset="1" stop-color="#FFFFA2" stop-opacity="0" />
        </radialGradient>
        <radialGradient id="paint24_radial_2164_295230" cx="0" cy="0" r="1"
            gradientUnits="userSpaceOnUse"
            gradientTransform="translate(211.628 269.987) scale(4.39684 4.39684)">
            <stop stop-color="white" />
            <stop offset="1" stop-color="white" stop-opacity="0" />
        </radialGradient>
        <radialGradient id="paint25_radial_2164_295230" cx="0" cy="0" r="1"
            gradientUnits="userSpaceOnUse"
            gradientTransform="translate(211.628 269.987) scale(1.81176)">
            <stop offset="0.59" stop-color="#5793FF" />
            <stop offset="1" stop-color="#5793FF" stop-opacity="0" />
        </radialGradient>
        <radialGradient id="paint26_radial_2164_295230" cx="0" cy="0" r="1"
            gradientUnits="userSpaceOnUse"
            gradientTransform="translate(211.628 269.987) scale(0.972168 0.97216)">
            <stop offset="0.59" stop-color="#FFFFA2" />
            <stop offset="1" stop-color="#FFFFA2" stop-opacity="0" />
        </radialGradient>
        <radialGradient id="paint27_radial_2164_295230" cx="0" cy="0" r="1"
            gradientUnits="userSpaceOnUse"
            gradientTransform="translate(218.235 204.078) scale(2.20947 2.20947)">
            <stop stop-color="white" />
            <stop offset="1" stop-color="white" stop-opacity="0" />
        </radialGradient>
        <radialGradient id="paint28_radial_2164_295230" cx="0" cy="0" r="1"
            gradientUnits="userSpaceOnUse"
            gradientTransform="translate(218.234 204.078) scale(0.905884 0.905876)">
            <stop offset="0.59" stop-color="#5793FF" />
            <stop offset="1" stop-color="#5793FF" stop-opacity="0" />
        </radialGradient>
        <radialGradient id="paint29_radial_2164_295230" cx="0" cy="0" r="1"
            gradientUnits="userSpaceOnUse"
            gradientTransform="translate(218.234 204.078) scale(0.486076 0.486084)">
            <stop offset="0.59" stop-color="#FFFFA2" />
            <stop offset="1" stop-color="#FFFFA2" stop-opacity="0" />
        </radialGradient>
        <radialGradient id="paint30_radial_2164_295230" cx="0" cy="0" r="1"
            gradientUnits="userSpaceOnUse"
            gradientTransform="translate(146.935 268.175) scale(3.60144 3.60143)">
            <stop stop-color="white" />
            <stop offset="1" stop-color="white" stop-opacity="0" />
        </radialGradient>
        <radialGradient id="paint31_radial_2164_295230" cx="0" cy="0" r="1"
            gradientUnits="userSpaceOnUse"
            gradientTransform="translate(146.935 268.175) scale(1.50244 1.50244)">
            <stop offset="0.59" stop-color="#5793FF" />
            <stop offset="1" stop-color="#5793FF" stop-opacity="0" />
        </radialGradient>
        <radialGradient id="paint32_radial_2164_295230" cx="0" cy="0" r="1"
            gradientUnits="userSpaceOnUse"
            gradientTransform="translate(146.935 268.175) scale(0.795406 0.795403)">
            <stop offset="0.59" stop-color="#FFFFA2" />
            <stop offset="1" stop-color="#FFFFA2" stop-opacity="0" />
        </radialGradient>
    </defs>
</svg>
    