<svg width="400" height="401" viewBox="0 0 400 401" fill="none" xmlns="http://www.w3.org/2000/svg">
    <g clip-path="url(#clip0_1345_24875)">
        <path
            d="M200 400.012C310.457 400.012 400 310.469 400 200.012C400 89.5553 310.457 0.012207 200 0.012207C89.5431 0.012207 0 89.5553 0 200.012C0 310.469 89.5431 400.012 200 400.012Z"
            fill="url(#paint0_radial_1345_24875)" style="mix-blend-mode:screen" />
        <path
            d="M200 357.092C286.753 357.092 357.081 286.765 357.081 200.012C357.081 113.259 286.753 42.9319 200 42.9319C113.247 42.9319 42.9199 113.259 42.9199 200.012C42.9199 286.765 113.247 357.092 200 357.092Z"
            fill="url(#paint1_radial_1345_24875)" style="mix-blend-mode:screen" />
        <path
            d="M200 349.909C282.785 349.909 349.896 282.798 349.896 200.012C349.896 117.227 282.785 50.1157 200 50.1157C117.214 50.1157 50.1035 117.227 50.1035 200.012C50.1035 282.798 117.214 349.909 200 349.909Z"
            fill="url(#paint2_radial_1345_24875)" style="mix-blend-mode:screen" />
        <path fill-rule="evenodd" clip-rule="evenodd"
            d="M235.708 287.56L277.58 289.957C277.58 289.957 312.245 279.512 329.536 257.495L337.667 211.652L324.231 169.716L251.222 216.407C251.222 216.407 234.657 272.42 235.704 287.56H235.708Z"
            fill="url(#paint3_linear_1345_24875)" />
        <path fill-rule="evenodd" clip-rule="evenodd"
            d="M327.489 200.602C327.489 213.651 325.653 226.294 322.185 238.225C315.304 262.225 301.967 283.478 284.159 300.052C271.428 311.923 256.4 321.36 239.854 327.64C224.857 333.347 208.626 336.445 191.618 336.445C189.209 336.445 186.771 336.389 184.39 336.246H184.362C180.806 336.075 177.278 335.728 173.81 335.298C147.571 331.857 123.742 320.958 104.412 304.727C97.1569 298.678 90.5625 291.853 84.7406 284.394C80.3244 278.803 76.3382 272.866 72.8419 266.586C72.0096 265.097 71.2092 263.575 70.4048 262.054C70.4048 261.998 70.3769 261.967 70.349 261.911C69.5168 260.278 68.7442 258.641 67.9956 256.977H67.9677C65.6182 251.788 63.5515 246.424 61.887 240.917C60.6246 236.959 59.5654 232.889 58.7052 228.759C58.6773 228.731 58.6773 228.672 58.6773 228.644C58.076 225.749 57.5583 222.822 57.1561 219.867C56.2402 213.559 55.7783 207.136 55.7783 200.598C55.7783 196.842 55.9217 193.083 56.2641 189.416C56.4354 187.062 56.6942 184.741 57.0088 182.419C58.757 169.055 62.4883 156.324 67.8761 144.481C70.5163 138.659 73.5547 133.068 76.9674 127.704C82.646 118.756 89.3559 110.557 96.926 103.186C121.388 79.3846 154.795 64.7302 191.618 64.7302C193.051 64.7302 194.485 64.7581 195.891 64.786C197.412 64.8417 198.929 64.9015 200.45 65.0169C208.251 65.5346 215.877 66.6815 223.248 68.4575C227.549 69.4889 231.766 70.6955 235.895 72.1291C238.707 73.0768 241.458 74.1361 244.182 75.2829C246.217 76.1431 248.196 77.0311 250.175 77.9789C250.518 78.1501 250.864 78.2935 251.207 78.4647C264.4 84.9158 276.354 93.4058 286.736 103.584C288.225 105.018 289.663 106.507 291.096 108.028C292.044 109.06 292.988 110.123 293.908 111.182C295.484 112.958 297.006 114.826 298.495 116.689C303.915 123.571 308.673 130.969 312.66 138.826C317.335 147.945 321.006 157.666 323.499 167.848C326.107 178.345 327.485 189.3 327.485 200.598L327.489 200.602Z"
            fill="url(#paint4_radial_1345_24875)" />
        <path style="mix-blend-mode:multiply" opacity="0.71" fill-rule="evenodd" clip-rule="evenodd"
            d="M112.97 190.077C112.97 190.077 136.998 211.556 142.975 220.405C148.953 229.253 169.054 289.666 169.6 302.386C170.142 315.105 158.104 332.288 158.104 332.288C158.104 332.288 137.707 326.541 126.306 319.736L133.195 272.272L112.974 190.081L112.97 190.077Z"
            fill="url(#paint5_linear_1345_24875)" />
        <path style="mix-blend-mode:multiply" opacity="0.71" fill-rule="evenodd" clip-rule="evenodd"
            d="M254.807 230.018L292.39 248.646C292.39 248.646 299.845 253.664 308.705 244.266C308.705 244.266 309.597 231.161 304.162 218.525L254.803 230.018H254.807Z"
            fill="url(#paint6_linear_1345_24875)" />
        <g style="mix-blend-mode:multiply" opacity="0.3">
            <path fill-rule="evenodd" clip-rule="evenodd"
                d="M116.892 197.197C113.822 210.262 115.773 223.973 120.496 236.421C121.516 239.109 122.611 242.562 124.279 244.983C125.593 246.89 127.82 248.037 129.627 249.411C132.021 251.231 134.195 253.305 136.544 255.169C139.208 257.284 141.916 258.578 145.134 259.725C151.247 261.899 157.387 263.524 163.834 261.612C169.561 259.912 175.136 255.778 178.453 250.856C179.998 248.567 181.786 246.536 183.418 244.318C185.027 242.132 186.035 239.376 187.034 236.871C189.013 231.905 189.643 225.625 189.292 220.313C189.125 217.777 188.822 215.196 188.201 212.731C187.552 210.155 186.373 207.765 185.879 205.141C185.071 200.845 183.152 197.03 181.431 193.004C177.158 183.02 166.056 177.051 155.822 175.566C151.016 174.869 146.257 175.98 141.534 176.709C136.544 177.477 132.917 179.795 128.477 181.969C125.86 183.251 123.296 184.685 121.428 186.959C117.012 192.347 116.371 199.913 116.9 197.185L116.892 197.197Z"
                fill="#7D72B3" />
            <path fill-rule="evenodd" clip-rule="evenodd"
                d="M157.881 269.513C160.187 267.438 163.324 265.073 166.295 264.029C168.33 263.313 170.23 264.089 171.89 265.276C175.239 267.669 174.598 273.24 171.95 276.067C167.115 281.224 158.024 277.107 158.048 270.52L157.885 269.509L157.881 269.513Z"
                fill="#7D72B3" />
            <path fill-rule="evenodd" clip-rule="evenodd"
                d="M204.755 226.159C203.421 224.355 202.493 223.754 202.564 221.954C202.616 220.6 204.141 218.02 204.854 216.721C206.997 212.811 210.405 210.023 214.614 208.693C217.581 207.754 220.349 207.32 223.451 207.296C226.234 207.276 228.536 208.092 231.156 208.94C235.907 210.473 241.156 213.006 244.652 216.721C247.941 220.214 247.463 226.525 244.58 230.09C242.374 232.813 239.172 234.462 236.261 236.33C233.076 238.372 229.583 240.981 225.892 241.992C223.503 242.649 221.79 242.988 219.437 242.299C217.159 241.63 215.323 240.965 213.249 239.91C211.349 238.942 209.908 238.548 208.358 237.026C206.989 235.688 205.854 234.319 204.898 232.646C203.548 230.277 204.026 227.378 204.751 226.167L204.755 226.159Z"
                fill="#7D72B3" />
            <path fill-rule="evenodd" clip-rule="evenodd"
                d="M194.409 201.541C193.859 203.305 192.657 206.862 195.843 206.666C197.292 206.579 199.454 205.352 200.223 204.456C203.405 200.753 195.807 198.252 195.134 201.541H194.409Z"
                fill="#7D72B3" />
            <path fill-rule="evenodd" clip-rule="evenodd"
                d="M241.805 290.367C240.284 287.174 239.945 285.955 240.977 282.554C242.518 277.477 245.074 271.878 247.758 267.283C249.463 264.36 251.569 260.386 254.791 258.988C257.375 257.869 260.39 257.184 263.197 257.009C269.318 256.631 274.044 259.522 278.397 263.556C281.085 266.048 283.323 268.119 284.88 271.524C286.23 274.475 287.034 278.369 286.72 281.603C285.824 290.813 277.804 297.332 271.87 303.62C267.187 308.582 259.37 314.814 252.075 312.162C247.029 310.33 244.019 304.978 241.952 300.327C240.582 297.245 241.084 293.657 241.809 290.363L241.805 290.367Z"
                fill="#7D72B3" />
            <path fill-rule="evenodd" clip-rule="evenodd"
                d="M233.84 266.259C232.056 267.713 231.463 269.493 231.029 271.783C230.711 273.443 230.03 277.135 231.654 278.485C233.084 279.671 235.712 277.668 236.855 276.932C237.839 276.294 238.555 275.625 239.312 274.721C239.706 274.252 240.232 273.841 240.463 273.264C240.833 272.34 240.698 271.05 240.654 270.07C240.602 268.852 239.909 267.864 239.065 267.056C238.348 266.367 237.743 266.196 236.771 265.989C235.72 265.766 234.418 265.328 233.844 266.259H233.84Z"
                fill="#7D72B3" />
            <path fill-rule="evenodd" clip-rule="evenodd"
                d="M182.092 325.968C181.897 326.502 181.706 326.836 181.985 327.35C182.264 327.868 183.184 328.616 183.558 328.963C184.94 330.245 186.421 330.627 188.229 331.009C190.005 331.384 191.845 331.619 193.645 331.256C194.792 331.025 196.249 330.771 197.006 329.795C198.403 327.983 197.245 325.259 196.317 323.527C195.604 322.201 194.6 321.01 193.784 319.744C192.908 318.382 191.65 317.247 190.411 316.212C188.878 314.929 186.505 313.181 184.526 314.603C182.658 315.945 181.623 318.366 181.129 320.528C180.854 321.739 180.914 323.177 181.336 324.351C181.639 325.195 182.248 325.769 182.092 325.976V325.968Z"
                fill="#7D72B3" />
            <path fill-rule="evenodd" clip-rule="evenodd"
                d="M292.311 273.264C291.235 272.364 290.829 272.312 290.945 271.086C291.068 269.784 291.172 268.517 291.662 267.287C292.721 264.615 294.931 262.409 297.045 260.537C298.264 259.462 299.725 258.809 301.247 258.295C302.039 258.028 302.688 257.71 303.516 257.825C304.918 258.02 305.858 258.892 306.292 260.219C306.977 262.309 305.95 264.631 304.815 266.339C303.365 268.525 302.23 270.998 299.932 272.436C298.869 273.101 297.754 273.754 296.627 274.311C295.946 274.65 295.19 275.004 294.405 274.909C293.86 274.841 292.155 274.399 292.311 273.26V273.264Z"
                fill="#7D72B3" />
            <path fill-rule="evenodd" clip-rule="evenodd"
                d="M70.5241 179.086C70.8068 180.289 70.8626 181.535 71.2528 182.706C72.0453 185.107 73.7775 187.166 75.5576 188.906C78.9424 192.215 83.7648 193.573 88.2845 194.493C90.63 194.971 93.1587 195.373 95.556 195.401C97.5112 195.425 99.5779 195.843 101.517 195.692C104.775 195.437 107.873 194.513 110.668 192.856C114.81 190.403 118.203 186.588 116.837 181.547C116.092 178.787 114.264 176.426 112.269 174.463C110.091 172.32 108.335 170.094 105.483 168.788C104.237 168.215 102.963 167.637 101.685 167.132C100.151 166.518 98.6979 165.678 97.0572 165.395C95.6953 165.16 94.2936 164.635 92.9198 164.571C91.5738 164.507 90.1243 164.503 88.7783 164.611C83.8843 165.013 78.8309 167.872 75.4381 171.357C74.0961 172.738 72.9492 174.284 71.6073 175.649C70.3728 176.908 70.5201 178.425 70.5201 179.086H70.5241Z"
                fill="#7D72B3" />
            <path fill-rule="evenodd" clip-rule="evenodd"
                d="M171.169 144.919C169.815 147.042 169.314 147.515 169.114 149.996C168.864 153.146 169.083 156.121 169.863 159.199C171.643 166.224 177.15 171.886 181.849 177.179C189.563 185.864 198.252 193.772 208.856 198.75C213.03 200.709 217.45 202.939 222.22 202.31C226.848 201.701 231.049 199.964 235.457 198.563C239.332 197.332 243.493 196.185 247.515 195.636C249.403 195.377 251.286 195.126 253.182 194.915C255.933 194.612 258.259 193.509 260.887 192.737C264.686 191.622 268.641 190.945 272.404 189.734C274.144 189.177 275.777 188.48 277.397 187.64C280.029 186.274 282.849 185.465 285.465 184.024C295.15 178.684 301.76 167.996 302.278 156.862C302.541 151.187 300.47 145.25 297.615 140.431C295.998 137.695 293.951 135.238 292.163 132.61C289.85 129.213 287.106 126.163 284.139 123.32C278.636 118.047 272.436 114.647 265.184 112.409C261.202 111.182 257.518 110.649 253.309 110.665C246.902 110.684 240.371 111.565 234.087 112.835C227.8 114.105 221.432 115.447 215.256 117.191C208.745 119.027 202.19 121.803 196.074 124.662C189.762 127.613 184.259 131.527 180.221 137.249C179.313 138.536 178.261 139.774 177.397 141.072C176.716 142.096 176.346 142.896 175.346 143.637C173.531 144.987 171.846 145.285 171.169 144.911V144.919Z"
                fill="#7D72B3" />
        </g>
        <path style="mix-blend-mode:multiply" opacity="0.71" fill-rule="evenodd" clip-rule="evenodd"
            d="M307.654 169.545L327.489 200.602C327.489 200.602 328.118 179.835 325.199 175.657C322.28 171.476 307.658 169.545 307.658 169.545H307.654Z"
            fill="url(#paint7_linear_1345_24875)" />
        <path style="mix-blend-mode:multiply" opacity="0.71" fill-rule="evenodd" clip-rule="evenodd"
            d="M71.249 146.11C71.249 146.11 110.047 171.154 216.164 166.427L258.888 169.716C258.888 169.716 299.487 155.902 308.709 131.631C308.709 131.631 296.719 114.34 293.908 111.186C291.096 108.032 241.136 118.816 241.136 118.816L71.249 146.11Z"
            fill="url(#paint8_linear_1345_24875)" />
        <path fill-rule="evenodd" clip-rule="evenodd"
            d="M76.9674 119.863V111.979C76.9674 111.979 98.4153 84.2468 133.733 53.7872C133.733 53.7872 225.558 45.6716 251.641 53.7872L261.963 77.4015L292.39 88.9457L293.904 111.19C293.904 111.19 273.913 142.956 237.512 154.05L219.099 149.682C219.099 149.682 198.933 158.032 145.688 158.032C92.4421 158.032 71.249 146.114 71.249 146.114V127.859L76.9674 119.867V119.863Z"
            fill="url(#paint9_linear_1345_24875)" />
        <path fill-rule="evenodd" clip-rule="evenodd"
            d="M153.835 292.024L144.915 315.308L117.414 321.846L89.5985 320.584C89.5985 320.584 60.0907 301.86 45.954 272.265L49.0243 245.337L38.587 235.7C38.587 235.7 36.0624 210.549 56.9966 187.58C56.9966 187.58 80.0811 181.157 112.974 190.073L133.247 212.556C133.247 212.556 149.853 244.214 153.839 292.02L153.835 292.024Z"
            fill="url(#paint10_linear_1345_24875)" />
        <path style="mix-blend-mode:multiply" opacity="0.71" fill-rule="evenodd" clip-rule="evenodd"
            d="M189.981 307.937C189.981 307.937 196.221 316.188 200.024 317.816C203.827 319.445 225.02 324.335 227.461 324.065C229.906 323.794 229.906 301.418 228.548 297.798C227.19 294.178 224.745 291.307 224.745 291.307L189.977 307.933L189.981 307.937Z"
            fill="url(#paint11_linear_1345_24875)" />
        <path fill-rule="evenodd" clip-rule="evenodd"
            d="M343.159 139.436L342.1 148.296L326.641 177.087C317.98 177.318 308.745 170.405 307.658 169.545C307.63 169.517 307.57 169.489 307.542 169.457C301.35 159.362 299.168 137.166 299.168 137.166L306.396 128.246L318.239 126.095L321.221 127.844L331.718 124.889L339.949 130.137L342.386 131.714L343.159 139.428V139.436Z"
            fill="url(#paint12_linear_1345_24875)" />
        <path fill-rule="evenodd" clip-rule="evenodd"
            d="M310.82 182.658C310.82 182.658 293.553 173.212 285.127 173.531L263.583 188.289C263.583 188.289 254.826 212.042 254.811 230.026C254.811 230.026 275.578 237.516 290.188 235.457C290.188 235.457 306.873 228.035 312.639 215.841C312.639 215.841 314.905 194.919 310.824 182.662L310.82 182.658Z"
            fill="url(#paint13_linear_1345_24875)" />
        <path fill-rule="evenodd" clip-rule="evenodd"
            d="M76.9673 111.975C76.9673 111.975 116.888 113.285 160.903 101.991C160.903 101.991 205.46 86.3573 214.153 80.3761C222.846 74.3949 251.645 53.7833 251.645 53.7833C251.645 53.7833 206.005 42.4062 133.737 53.7833C133.737 53.7833 95.7312 82.1761 76.9713 111.975H76.9673Z"
            fill="url(#paint14_linear_1345_24875)" />
        <path fill-rule="evenodd" clip-rule="evenodd"
            d="M261.966 77.3975C261.966 77.3975 234.254 109.346 230.997 111.975C227.736 114.603 182.582 132.793 182.582 132.793L157.104 139.336C157.104 139.336 188.981 139.073 194.413 139.336L204.555 129.456L239.694 130.906C239.694 130.906 271.934 111.453 292.398 88.9417L261.97 77.3975H261.966Z"
            fill="url(#paint15_linear_1345_24875)" />
        <path fill-rule="evenodd" clip-rule="evenodd"
            d="M71.249 127.855L99.5025 130.543C99.5025 130.543 118.338 131.36 129.205 127.692C129.205 127.692 91.3788 125.844 76.9674 119.863L71.249 127.855Z"
            fill="url(#paint16_linear_1345_24875)" />
        <path fill-rule="evenodd" clip-rule="evenodd"
            d="M263.583 188.285C263.583 188.285 275.924 192.912 284.035 192.37C292.151 191.825 310.819 182.658 310.819 182.658C310.819 182.658 302.262 175.176 285.127 173.531L263.583 188.289V188.285Z"
            fill="url(#paint17_linear_1345_24875)" />
        <path fill-rule="evenodd" clip-rule="evenodd"
            d="M38.5751 235.712C38.5751 235.712 75.876 227.561 86.1181 223.443C96.3603 219.326 112.958 190.089 112.958 190.089C112.958 190.089 92.4657 180.579 56.9886 187.584C56.9886 187.584 34.8837 208.152 38.5712 235.716L38.5751 235.712Z"
            fill="url(#paint18_linear_1345_24875)" />
        <path fill-rule="evenodd" clip-rule="evenodd"
            d="M49.0243 245.345C49.0243 245.345 75.1513 241.912 84.37 239.38C93.5927 236.847 108.036 227.915 108.036 227.915C108.036 227.915 96.9695 253.106 92.9754 258.809C92.9754 258.809 61.9305 270.504 45.9461 272.272C45.9461 272.272 45.1178 258.247 49.0203 245.349L49.0243 245.345Z"
            fill="url(#paint19_linear_1345_24875)" />
        <path fill-rule="evenodd" clip-rule="evenodd"
            d="M188.615 301.725C188.615 301.725 194.592 288.635 201.657 285.84C201.657 285.84 218.501 285.995 224.749 291.311L220.676 316.112L197.312 314.515C197.312 314.515 188.619 310.079 188.619 301.725H188.615Z"
            fill="url(#paint20_linear_1345_24875)" />
        <path fill-rule="evenodd" clip-rule="evenodd"
            d="M188.615 301.725C188.615 301.725 195.95 303.831 202.744 301.725C209.538 299.618 217.956 288.655 217.956 288.655C217.956 288.655 212.524 285.103 201.657 285.84C201.657 285.84 190.519 290.519 188.615 301.725Z"
            fill="url(#paint21_linear_1345_24875)" />
        <path style="mix-blend-mode:multiply" opacity="0.5" fill-rule="evenodd" clip-rule="evenodd"
            d="M153.835 292.024L144.915 315.308L117.414 321.846L89.5985 320.584C89.5985 320.584 117.155 318.892 117.987 314.822C118.792 310.748 120.683 299.076 120.683 299.076C113.914 278.716 92.9833 258.813 92.9833 258.813C101.728 246.48 108.04 227.899 108.04 227.899L96.1691 234.526L88.4277 222.165C101.274 210.724 112.974 190.077 112.974 190.077L133.247 212.56C133.247 212.56 149.853 244.218 153.839 292.024H153.835Z"
            fill="url(#paint22_linear_1345_24875)" />
        <path style="mix-blend-mode:multiply" opacity="0.5" fill-rule="evenodd" clip-rule="evenodd"
            d="M207.582 299.084L220.671 316.112L224.745 291.311L217.956 288.655L207.582 299.084Z"
            fill="url(#paint23_linear_1345_24875)" />
        <path style="mix-blend-mode:multiply" opacity="0.71" fill-rule="evenodd" clip-rule="evenodd"
            d="M284.036 192.366C284.036 192.366 288.591 208.068 289.133 214.587C289.674 221.102 290.184 235.453 290.184 235.453C290.184 235.453 302.72 231.216 312.636 215.837C312.636 215.837 315.252 197.93 310.82 182.658C310.82 182.658 294.421 191.072 284.036 192.37V192.366Z"
            fill="url(#paint24_linear_1345_24875)" />
        <path style="mix-blend-mode:multiply" opacity="0.5" fill-rule="evenodd" clip-rule="evenodd"
            d="M309.959 139.714L313.265 142.307C313.265 142.307 320.48 139.372 320.719 135.649C320.954 131.925 321.213 127.847 321.213 127.847L318.254 126.095L309.963 139.714H309.959Z"
            fill="url(#paint25_linear_1345_24875)" />
        <path style="mix-blend-mode:multiply" opacity="0.71" fill-rule="evenodd" clip-rule="evenodd"
            d="M343.159 139.436L342.099 148.296L326.641 177.087C317.979 177.318 308.745 170.405 307.658 169.545C315.431 174.622 323.63 174.22 323.63 174.22C323.63 174.22 324.176 165.129 323.63 159.422C323.085 153.716 318.983 142.303 318.983 142.303L339.945 130.145L342.382 131.722L343.155 139.436H343.159Z"
            fill="url(#paint26_linear_1345_24875)" />
        <path fill-rule="evenodd" clip-rule="evenodd"
            d="M318.25 126.099L309.96 139.718C309.96 139.718 304.978 141.028 299.168 137.182L306.392 128.254L318.25 126.099Z"
            fill="url(#paint27_linear_1345_24875)" />
        <path fill-rule="evenodd" clip-rule="evenodd"
            d="M321.209 127.847L320.715 135.649C320.715 135.649 316.474 141.16 310.871 143.549C310.871 143.549 321.627 142.378 326.601 140.2C326.601 140.2 339.527 135.039 342.394 131.71L331.722 124.885L321.209 127.847Z"
            fill="url(#paint28_linear_1345_24875)" />
        <path style="mix-blend-mode:multiply" opacity="0.5" fill-rule="evenodd" clip-rule="evenodd"
            d="M164.304 100.371L191.629 129.118L230.993 111.979C230.993 111.979 259.792 80.4001 261.962 77.4016L251.64 53.7874C251.64 53.7874 223.387 73.3199 214.148 80.3802C204.91 87.4406 164.304 100.371 164.304 100.371Z"
            fill="url(#paint29_linear_1345_24875)" />
        <path style="mix-blend-mode:multiply" opacity="0.5" fill-rule="evenodd" clip-rule="evenodd"
            d="M204.552 129.456L219.103 149.678C219.103 149.678 208.012 153.409 196.225 154.843L194.409 139.332L204.552 129.452V129.456Z"
            fill="url(#paint30_linear_1345_24875)" />
        <path style="mix-blend-mode:multiply" opacity="0.5" fill-rule="evenodd" clip-rule="evenodd"
            d="M239.69 130.906L237.516 154.046C237.516 154.046 275.681 140.371 293.907 111.186L292.394 88.9418C292.394 88.9418 263.297 116.331 239.69 130.906Z"
            fill="url(#paint31_linear_1345_24875)" />
        <path style="mix-blend-mode:multiply" opacity="0.2" fill-rule="evenodd" clip-rule="evenodd"
            d="M81.71 128.851L108.04 156.547H121.125L123.507 129.118C123.507 129.118 93.979 131.866 81.71 128.851Z"
            fill="url(#paint32_linear_1345_24875)" />
        <g style="mix-blend-mode:soft-light">
            <path fill-rule="evenodd" clip-rule="evenodd"
                d="M87.5517 103.015C87.0022 101.501 87.3725 100.952 88.2008 99.5542C89.5069 97.356 91.3069 95.5083 92.8878 93.5172C95.966 89.6426 99.2513 86.0348 103.401 83.2472C107.686 80.3681 111.887 77.2461 116.414 74.7573C119.509 73.0569 122.635 71.3127 125.96 70.1021C128.301 69.2499 130.726 68.573 133.112 67.8522C137.779 66.4346 144.142 65.8133 148.65 68.2026C151.398 69.6601 152.469 72.356 153.496 75.1356C154.002 76.5054 154.444 77.6842 154.173 79.1775C153.938 80.4796 153.281 81.8296 152.704 83.0003C150.816 86.8471 147.316 90.3753 144.039 93.0672C137.349 98.5586 129.759 102.521 121.591 105.292C119.405 106.037 117.215 106.861 114.965 107.395C113.507 107.742 112.01 107.901 110.557 108.263C107.184 109.099 103.739 109.856 100.271 110.234C99.323 110.338 98.2518 110.668 97.316 110.664C96.4638 110.66 95.6355 110.131 94.7953 109.983C93.3935 109.741 91.4025 109.796 90.1521 109.103C86.815 107.268 86.4208 103.64 87.5517 103.019V103.015Z"
                fill="#FFA989" />
            <path fill-rule="evenodd" clip-rule="evenodd"
                d="M143.334 99.0285C143.636 97.6188 143.553 97.5591 144.441 96.7587C144.942 96.0339 145.516 95.3689 146.165 94.7676C146.981 94.0628 147.869 93.4535 148.821 92.9478C151.565 91.4226 154.914 89.7182 158.127 90.666C160.29 91.3031 161.512 92.3465 161.01 94.7119C160.728 96.0459 159.617 97.3919 158.573 98.2162C156.702 99.6975 154.567 100.582 152.381 101.505C150.725 102.202 148.299 102.62 146.495 102.222C144.851 101.86 143.103 100.072 143.334 99.0325V99.0285Z"
                fill="#FFA989" />
            <path fill-rule="evenodd" clip-rule="evenodd"
                d="M190.785 59.9078C188.284 60.6883 186.954 61.1821 184.876 62.5998C181.782 64.7063 178.464 66.8209 175.637 69.2739C173.857 70.8189 172.093 72.7145 170.882 74.7533C169.923 76.3701 169.612 78.2855 169.469 80.1412C169.321 82.0486 169.927 85.4614 171.997 86.3175C172.794 86.6441 174.227 86.3534 175.016 86.3613C176.884 86.3773 178.385 86.0666 180.193 85.6206C181.945 85.1866 183.713 85.0711 185.453 84.5534C187.221 84.0318 188.989 83.542 190.777 83.096C194.636 82.1363 198.379 81.2124 201.987 79.4921C205.4 77.8674 208.936 76.5174 212.285 74.7573C214.702 73.483 217.06 72.1848 219.548 71.0619C222.989 69.5048 226.434 67.9837 229.743 66.1718C231.156 65.3992 232.096 64.4993 233.211 63.3643C234.298 62.2573 235.589 61.3215 236.401 59.9715C236.763 59.3702 237.611 58.2313 237.584 57.4787C237.552 56.523 236.178 55.3443 235.465 54.8983C234.223 54.1218 232.467 53.6359 231.029 53.4607C228.934 53.2019 226.521 52.947 224.423 53.0784C221.842 53.2457 219.031 53.628 216.486 54.1098C214.794 54.4284 213.292 54.8465 211.556 54.8704C208.438 54.9182 205.479 55.1412 202.381 55.6429C200.625 55.9257 198.929 56.5349 197.22 57.0208C195.667 57.4628 194.015 57.7853 192.549 58.4782C191.821 58.8247 189.145 59.418 190.789 59.9198L190.785 59.9078Z"
                fill="#FFA989" />
            <path fill-rule="evenodd" clip-rule="evenodd"
                d="M183.542 54.8386C181.881 55.6191 179.412 56.4792 178.401 58.2154C177.74 59.3503 178.66 59.5733 179.667 59.5813C181.443 59.5933 183.267 58.7451 184.971 58.2791C186.285 57.9208 187.679 57.2517 188.778 56.4553C189.3 56.077 190.347 55.6947 189.997 54.9102C189.79 54.4483 188.711 53.9625 188.261 53.8231C186.56 53.3094 184.47 53.6997 183.179 54.8386H183.542Z"
                fill="#FFA989" />
            <path fill-rule="evenodd" clip-rule="evenodd"
                d="M242.947 107.363C241.438 107.853 239.937 108.116 238.459 108.574C236.958 109.036 235.588 109.983 234.314 110.883C232.12 112.44 229.742 114.432 228.416 116.809C227.305 118.8 226.107 122.412 228.44 124.044C231.65 126.286 236.659 124.009 239.865 122.945C244.895 121.277 250.43 119.338 254.695 116.072C256.499 114.69 258.255 113.006 259.907 111.441C261.281 110.139 262.739 108.526 263.89 107.025C264.738 105.914 264.865 104.381 264.714 103.023C264.57 101.724 263.288 100.669 262.098 100.199C259.72 99.2595 257.697 100.382 255.36 100.761C252.923 101.155 250.083 101.868 247.905 103.102C244.588 104.982 241.084 106.591 242.947 107.371V107.363Z"
                fill="#FFA989" />
            <path fill-rule="evenodd" clip-rule="evenodd"
                d="M251.278 93.9593C250.872 93.4177 250.625 92.8244 250.537 92.1713C251.27 91.9802 251.684 91.1359 252.186 90.67C252.62 90.2639 253.15 89.9931 253.675 89.7342C254.543 89.3081 256.112 88.5675 257.092 88.9418C258.964 89.6586 259.418 91.4824 258.45 93.2425C257.486 95.0026 255.666 96.1654 253.715 96.4163C252.274 96.6034 249.16 94.5646 250.916 92.8682L251.278 93.9553V93.9593Z"
                fill="#FFA989" />
            <path fill-rule="evenodd" clip-rule="evenodd"
                d="M272.65 88.886C271.408 89.1209 269.704 89.1329 268.549 89.7103C268.302 89.8337 267.979 90.224 267.724 90.3952C266.478 91.2355 265.06 91.9124 263.929 92.9C262.699 93.9752 261.329 95.9264 261.974 97.6189C264.208 103.489 272.38 100.215 276.107 98.1405C277.361 97.4437 278.182 96.4322 279.324 95.6039C280.181 94.9827 280.885 94.5168 281.511 93.6248C282.427 92.3226 282.614 91.4465 281.977 89.9532C281.503 88.8422 280.344 88.1453 279.177 87.8785C278.19 87.6515 277.09 87.3728 276.079 87.4166C273.594 87.5241 271.468 89.1408 269.389 90.3355L272.65 88.886Z"
                fill="#FFA989" />
            <path fill-rule="evenodd" clip-rule="evenodd"
                d="M58.9359 194.298C53.3091 196.938 48.3194 201.223 45.1536 206.619C43.7359 209.036 42.5811 211.497 41.6214 214.133C41.1236 215.499 40.9166 216.944 40.383 218.298C39.921 219.477 39.4272 220.584 39.2082 221.846C38.7025 224.721 37.3486 230.567 41.9679 230.946C44.0386 231.117 46.4597 230.611 48.4787 230.193C52.4609 229.369 56.6103 227.76 60.2858 226.032C64.3715 224.108 68.505 221.954 72.0252 219.127C75.3463 216.458 79.0617 214.284 82.0722 211.234C85.6681 207.594 90.8608 201.625 86.807 196.44C82.9761 191.542 74.7052 192.661 69.3452 193.306C66.8126 193.609 63.9892 193.637 61.5243 194.381C60.9548 194.553 60.25 194.827 59.7402 195.114C59.3619 195.325 59.0354 195.747 58.9398 194.302L58.9359 194.298Z"
                fill="#FFA989" />
            <path fill-rule="evenodd" clip-rule="evenodd"
                d="M78.8586 218.569C79.229 217.323 79.3524 216.769 80.2444 215.909C81.1763 215.013 82.0165 214.033 82.9165 213.11C84.3222 211.66 87.3088 209.972 89.3795 209.852C90.3193 209.796 91.5936 209.824 92.2865 210.585C93.0073 211.377 92.6648 212.946 92.2944 213.834C91.9161 214.734 91.498 215.383 90.7573 216.032C89.9171 216.769 88.9255 217.816 87.9419 218.342C86.6597 219.027 85.0549 219.521 83.6492 219.935C82.5023 220.273 80.7302 220.863 79.6471 219.943C79.01 219.401 78.3967 218.123 78.8586 218.569Z"
                fill="#FFA989" />
            <path fill-rule="evenodd" clip-rule="evenodd"
                d="M63.2805 248.272C62.0739 248.547 60.3217 248.698 59.2346 249.455C58.2869 250.112 57.5143 251.115 56.8254 252.019C55.4038 253.891 54.1773 255.906 52.7596 257.785C51.5968 259.322 50.5057 261.035 49.5301 262.699C48.8651 263.834 48.4947 264.897 49.1359 266.124C50.7327 269.19 55.6865 268.446 58.3506 267.808C61.2217 267.119 63.7942 265.73 66.4821 264.551C68.8993 263.492 71.42 262.58 73.7456 261.321C77.7477 259.159 82.6258 256.957 84.7881 252.696C85.6324 251.036 85.9549 249.69 85.2262 247.937C84.5492 246.309 83.3267 245.098 81.7736 244.25C80.1569 243.366 78.3968 243.565 76.6247 243.553C74.1518 243.537 71.42 243.911 69.0347 244.628C67.5135 245.086 65.9286 245.831 64.4592 246.432C62.1934 247.364 61.0306 249.212 63.2845 248.268L63.2805 248.272Z"
                fill="#FFA989" />
            <path fill-rule="evenodd" clip-rule="evenodd"
                d="M49.1559 250.805C49.0683 250.195 49.0882 249.59 49.2116 248.993C50.2788 248.666 50.7408 247.479 52.0708 247.89C53.0464 248.188 53.2017 249.311 52.9628 250.08C52.477 251.617 48.7218 254.803 48.7935 251.529L49.1559 250.805Z"
                fill="#FFA989" />
            <path fill-rule="evenodd" clip-rule="evenodd"
                d="M286.417 178.361C284.609 178.437 282.805 178.576 281.005 178.779C280.527 179.17 280.005 179.5 279.448 179.767C277.584 180.75 275.892 181.455 274.275 182.853C272.969 183.98 269.891 185.963 270.074 188.058C270.241 189.981 273.032 190.351 274.51 190.359C276.023 190.367 277.556 190.029 279.073 189.949C281.176 189.842 283.251 189.575 285.345 189.324C288.017 189.001 290.869 188.504 293.23 187.154C294.636 186.349 295.599 185.493 296.603 184.223C297.065 183.638 297.774 183.052 297.626 182.236C297.531 181.698 296.535 180.611 296.145 180.249C295.568 179.719 294.755 179.385 294.042 179.066C290.59 177.525 286.644 178.735 286.421 178.357L286.417 178.361Z"
                fill="#FFA989" />
            <path fill-rule="evenodd" clip-rule="evenodd"
                d="M197.67 294.274C196.209 294.919 195.301 295.066 194.648 296.424C194.409 296.926 193.625 297.997 193.644 298.662C193.672 299.566 194.588 299.526 195.353 299.319C196.34 299.052 197.328 298.156 198.168 297.615C198.861 297.169 199.339 296.711 199.865 296.078C200.175 295.703 200.446 295.512 200.549 294.999C200.641 294.533 200.398 294.119 200.868 293.82C200.565 291.721 196.603 294.608 195.858 294.64L197.67 294.278V294.274Z"
                fill="#FFA989" />
            <path fill-rule="evenodd" clip-rule="evenodd"
                d="M207.813 290.288C205.559 291.287 204.042 292.064 202.887 294.298C202.524 295.003 202.178 295.735 202.544 296.448C203.719 298.73 206.232 296.699 207.53 295.719C208.426 295.046 209.402 294.573 210.17 293.74C210.521 293.366 210.751 292.932 211.07 292.538C211.357 292.183 211.918 291.801 212.101 291.371C212.464 290.523 211.878 289.882 211.094 289.635C209.605 289.169 208.478 290.148 207.088 290.284H207.813V290.288Z"
                fill="#FFA989" />
            <path fill-rule="evenodd" clip-rule="evenodd"
                d="M89.3637 240.662C88.6947 242.104 86.2815 247.535 89.4832 247.503C92.2786 247.476 96.8382 244.461 96.9895 241.387C97.0891 239.332 95.4445 238.332 93.529 238.113C91.0959 237.835 89.6783 239.77 88.6389 241.749L89.3637 240.662Z"
                fill="#FFA989" />
            <path fill-rule="evenodd" clip-rule="evenodd"
                d="M97.694 193.935C97.0688 194.792 96.1848 195.52 97.0688 196.396C97.5029 196.826 97.9568 197.097 98.586 197.185C99.8125 197.356 101.628 196.253 101.688 195.022C101.732 194.099 101.29 193.35 100.593 192.84C99.6015 192.119 98.9205 192.573 98.0604 193.211L97.698 193.935H97.694Z"
                fill="#FFA989" />
        </g>
        <path fill-rule="evenodd" clip-rule="evenodd"
            d="M131.2 108.367C131.2 108.367 147.384 103.385 150.956 101.979C154.524 100.574 172.579 97.6389 172.579 97.6389C172.579 97.6389 188.073 90.9847 192.422 88.9378C196.77 86.891 207.817 81.4593 207.817 81.4593L220.683 75.5618C220.683 75.5618 211.982 84.4898 204.376 87.4127C196.77 90.3356 177.389 98.1207 177.389 98.1207C177.389 98.1207 171.595 99.7335 163.444 102.37C155.292 105.002 131.204 108.363 131.204 108.363L131.2 108.367Z"
            fill="#FFBD4A" />
        <path fill-rule="evenodd" clip-rule="evenodd"
            d="M231.945 130.623L239.38 134.203C239.38 134.203 247.065 129.632 248.268 125.243C248.268 125.243 233.713 129.249 231.949 130.623H231.945Z"
            fill="#FFAB4A" />
        <path fill-rule="evenodd" clip-rule="evenodd"
            d="M190.925 139.336L194.66 141.494L197.36 136.461L190.925 139.336Z" fill="#FFAB4A" />
        <path style="mix-blend-mode:multiply" opacity="0.71" fill-rule="evenodd" clip-rule="evenodd"
            d="M131.2 187.731C131.2 187.731 139.985 196.508 159.274 202.421C159.274 202.421 160.632 201.008 162.261 192.717C163.89 184.426 162.261 181.523 162.261 181.523C162.261 181.523 138.579 184.514 131.2 187.731Z"
            fill="url(#paint33_linear_1345_24875)" />
        <path style="mix-blend-mode:multiply" opacity="0.71" fill-rule="evenodd" clip-rule="evenodd"
            d="M144.162 213.958C144.162 213.958 144.421 216.889 145.508 218.904C146.595 220.919 158.773 223.957 160.385 223.28C163.372 222.026 159.995 214.758 158.729 212.584C157.463 210.41 155.392 208.267 155.392 208.267L144.166 213.954L144.162 213.958Z"
            fill="url(#paint34_linear_1345_24875)" />
        <path fill-rule="evenodd" clip-rule="evenodd"
            d="M68.5371 267.028C68.5371 267.028 85.0153 259.669 90.1762 255.962C95.337 252.254 103.09 238.882 103.09 238.882L94.7955 259.498L89.2722 261.58L83.3866 262.847L68.5371 267.024V267.028Z"
            fill="#FFAB4A" />
        <path fill-rule="evenodd" clip-rule="evenodd"
            d="M78.6954 225.88L92.7046 217.984C92.7046 217.984 91.3865 222.483 89.3755 223.694C87.3646 224.905 78.6914 225.88 78.6914 225.88H78.6954Z"
            fill="#FFAB4A" />
        <path fill-rule="evenodd" clip-rule="evenodd"
            d="M279.166 192.195L285.378 197.201C285.378 197.201 286.903 193.103 287.202 191.797C287.504 190.491 279.166 192.191 279.166 192.191V192.195Z"
            fill="#FF864A" />
        <path fill-rule="evenodd" clip-rule="evenodd"
            d="M314.726 143.035L323.638 140.164L331.447 138.121C331.447 138.121 322.726 142.733 321.209 143.549C319.696 144.365 314.722 143.035 314.722 143.035H314.726Z"
            fill="#FFAB4A" />
        <path fill-rule="evenodd" clip-rule="evenodd"
            d="M307.654 139.929L310.875 137.429V140.431L307.654 139.929Z" fill="#FFAB4A" />
        <path fill-rule="evenodd" clip-rule="evenodd"
            d="M200.338 302.298L210.991 296.245L209.72 301.868L200.338 302.298Z" fill="#FF864A" />
        <path fill-rule="evenodd" clip-rule="evenodd"
            d="M80.9414 128.851C80.9414 128.851 89.065 128.19 93.8317 128.19C98.5983 128.19 108.016 129.118 108.016 129.118L117.143 130.014C117.143 130.014 111.911 130.44 100.864 130.623C89.8176 130.806 80.9414 128.851 80.9414 128.851Z"
            fill="#FFB14A" />
        <path fill-rule="evenodd" clip-rule="evenodd"
            d="M126.672 180.137C126.672 180.137 135.003 170.875 138.627 169.545C142.251 168.215 159.246 175.98 162.237 177.079C165.228 178.178 156.479 195.397 154.253 197.201C152.027 199.005 127.035 189.878 126.672 180.133V180.137Z"
            fill="url(#paint35_linear_1345_24875)" />
        <path fill-rule="evenodd" clip-rule="evenodd"
            d="M157.877 218.9C157.104 221.11 149.502 219.959 146.778 218.9L146.579 218.784L146.006 218.382C145.95 218.354 145.89 218.294 145.862 218.239C143.911 216.232 143.453 210.752 144.771 207.857C144.771 207.857 151.398 205.822 153.835 206.682C155.412 207.228 156.989 211.298 157.677 214.683V214.71C158.02 216.518 158.135 218.151 157.877 218.896V218.9Z"
            fill="url(#paint36_linear_1345_24875)" />
        <path style="mix-blend-mode:multiply" opacity="0.5" fill-rule="evenodd" clip-rule="evenodd"
            d="M147.937 185.346L154.253 197.205C154.253 197.205 162.34 188.4 162.846 178.266L147.941 185.35L147.937 185.346Z"
            fill="url(#paint37_linear_1345_24875)" />
        <path fill-rule="evenodd" clip-rule="evenodd"
            d="M66.2312 148.26L50.9238 151.971C50.9238 151.971 48.427 160.824 48.7894 164.519L58.2749 174.566C58.2749 174.566 61.2137 156.555 66.2312 148.26Z"
            fill="url(#paint38_linear_1345_24875)" />
        <path fill-rule="evenodd" clip-rule="evenodd"
            d="M126.672 180.137C126.672 180.137 134.147 183.821 143.314 185.346C152.481 186.871 162.842 178.262 162.842 178.262C162.842 178.262 153.022 169.485 138.898 167.856C138.898 167.856 129.659 173.129 126.672 180.137Z"
            fill="url(#paint39_linear_1345_24875)" />
        <path style="mix-blend-mode:multiply" opacity="0.5" fill-rule="evenodd" clip-rule="evenodd"
            d="M157.877 218.9C157.104 221.11 149.502 219.959 146.778 218.9L146.579 218.784L146.006 218.382L145.834 218.266L145.862 218.239L147.925 215.371L156.415 213.309L157.677 214.686V214.714C158.02 216.522 158.135 218.155 157.877 218.9Z"
            fill="url(#paint40_linear_1345_24875)" />
        <path fill-rule="evenodd" clip-rule="evenodd"
            d="M144.764 207.845C144.764 207.845 144.604 213.918 147.185 215.132C149.765 216.347 155.647 213.902 156.423 213.317C157.2 212.731 154.627 207.184 152.401 206.467C150.175 205.751 144.768 207.841 144.768 207.841L144.764 207.845Z"
            fill="url(#paint41_linear_1345_24875)" />
        <path style="mix-blend-mode:multiply" opacity="0.71" fill-rule="evenodd" clip-rule="evenodd"
            d="M276.689 288.759C276.689 288.759 273.794 288.225 271.564 288.731C269.33 289.24 265.714 300.908 265.714 302.66C265.714 309.545 273.718 307.594 276.151 306.953C278.584 306.312 279.17 301.099 279.17 301.099L276.689 288.763V288.759Z"
            fill="url(#paint42_linear_1345_24875)" />
        <path fill-rule="evenodd" clip-rule="evenodd"
            d="M268.266 300.653C266.347 299.315 269.481 292.303 271.233 289.957L271.396 289.794L271.938 289.348C271.982 289.3 272.053 289.26 272.113 289.248C274.57 287.906 279.97 288.926 282.407 290.973C282.407 290.973 282.598 297.902 281.117 300.02C280.169 301.394 275.824 301.824 272.38 301.585L272.352 301.577C270.52 301.426 268.911 301.099 268.262 300.653H268.266Z"
            fill="url(#paint43_linear_1345_24875)" />
        <path style="mix-blend-mode:multiply" opacity="0.5" fill-rule="evenodd" clip-rule="evenodd"
            d="M268.266 300.653C266.347 299.315 269.481 292.303 271.233 289.957L271.396 289.794L271.938 289.348L272.093 289.213L272.113 289.248L274.323 292.004L274.044 300.737L272.38 301.585L272.352 301.577C270.52 301.426 268.911 301.099 268.262 300.653H268.266Z"
            fill="url(#paint44_linear_1345_24875)" />
        <path fill-rule="evenodd" clip-rule="evenodd"
            d="M282.423 290.973C282.423 290.973 276.613 289.197 274.753 291.359C272.889 293.521 273.678 299.841 274.032 300.745C274.391 301.649 280.419 300.649 281.706 298.698C282.992 296.747 282.423 290.973 282.423 290.973Z"
            fill="url(#paint45_linear_1345_24875)" />
        <path fill-rule="evenodd" clip-rule="evenodd"
            d="M96.1611 278.393L110.354 279.389L132.303 278.393L139.395 280.874L131.79 279.783L117.143 286.668L116.08 288.655L108.04 286.485L96.1611 278.393Z"
            fill="url(#paint46_linear_1345_24875)" />
        <path fill-rule="evenodd" clip-rule="evenodd"
            d="M96.1611 278.393L108.04 285.74L112.273 285.083L118.656 284.538L131.79 279.783L117.143 286.668L116.08 288.655L106.977 286.983L96.1611 278.393Z"
            fill="url(#paint47_linear_1345_24875)" />
        <path fill-rule="evenodd" clip-rule="evenodd"
            d="M123.507 109.108L135.051 115.953L147.937 114.945L163.44 102.374L143.473 100.944L131.2 104.102L123.507 109.108Z"
            fill="url(#paint48_linear_1345_24875)" />
        <path fill-rule="evenodd" clip-rule="evenodd"
            d="M123.507 109.107H127.35L134.414 110.672H142.02L150.307 107.407L159.398 102.374H163.436C163.436 102.374 155.209 110.8 147.933 114.945L135.043 115.957L123.503 109.111L123.507 109.107Z"
            fill="url(#paint49_linear_1345_24875)" />
        <path fill-rule="evenodd" clip-rule="evenodd"
            d="M52.0308 271.289L57.4943 266.164L63.4556 267.028C63.4556 267.028 64.2162 270.819 63.4556 273.806C62.695 276.792 57.4943 274.929 57.4943 274.929L52.0308 271.289Z"
            fill="url(#paint50_linear_1345_24875)" />
        <path fill-rule="evenodd" clip-rule="evenodd"
            d="M52.0308 271.289C52.0308 271.289 57.5341 273.085 58.4381 273.085C59.342 273.085 61.5163 272.997 62.4242 272.273C63.3281 271.548 63.4556 267.032 63.4556 267.032C63.4556 267.032 64.2162 271.277 63.4556 273.81C63.4556 273.81 63.3281 275.984 59.4814 275.848L56.9447 275.08L52.0308 271.293V271.289Z"
            fill="url(#paint51_linear_1345_24875)" />
        <path fill-rule="evenodd" clip-rule="evenodd"
            d="M293.282 190.077C293.282 190.077 294.704 186.895 296.603 185.525C298.507 184.155 304.074 184.31 304.074 184.31L304.771 185.525C304.771 185.525 302.851 190.443 301.354 191.307C299.861 192.171 296.735 191.307 296.735 191.307L293.278 190.077H293.282Z"
            fill="url(#paint52_linear_1345_24875)" />
        <path fill-rule="evenodd" clip-rule="evenodd"
            d="M304.078 184.311C304.078 184.311 302.107 187.62 300.749 188.504C299.391 189.388 297.643 190.065 297.643 190.065C297.643 190.065 295.46 190.431 293.282 190.077C293.282 190.077 296.492 191.618 299.028 191.689C299.028 191.689 301.884 191.733 302.302 191.307C302.72 190.881 304.775 185.525 304.775 185.525L304.078 184.311Z"
            fill="url(#paint53_linear_1345_24875)" />
    </g>
    <defs>
        <radialGradient id="paint0_radial_1345_24875" cx="0" cy="0" r="1"
            gradientUnits="userSpaceOnUse" gradientTransform="translate(200 200.012) scale(200)">
            <stop stop-color="#FF4000" />
            <stop offset="1" stop-color="#FF4000" stop-opacity="0" />
        </radialGradient>
        <radialGradient id="paint1_radial_1345_24875" cx="0" cy="0" r="1"
            gradientUnits="userSpaceOnUse" gradientTransform="translate(200 200.012) scale(157.08)">
            <stop stop-color="#FF7300" />
            <stop offset="1" stop-color="#FF7300" stop-opacity="0" />
        </radialGradient>
        <radialGradient id="paint2_radial_1345_24875" cx="0" cy="0" r="1"
            gradientUnits="userSpaceOnUse" gradientTransform="translate(200 200.012) scale(149.896)">
            <stop stop-color="#FF7900" />
            <stop offset="1" stop-color="#FF7900" stop-opacity="0" />
        </radialGradient>
        <linearGradient id="paint3_linear_1345_24875" x1="297.536" y1="283.598" x2="266.949"
            y2="188.102" gradientUnits="userSpaceOnUse">
            <stop stop-color="#5B006F" />
            <stop offset="0.02" stop-color="#5C0270" />
            <stop offset="0.23" stop-color="#691A7B" />
            <stop offset="0.46" stop-color="#732B84" />
            <stop offset="0.7" stop-color="#793589" />
            <stop offset="0.99" stop-color="#7B398B" />
        </linearGradient>
        <radialGradient id="paint4_radial_1345_24875" cx="0" cy="0" r="1"
            gradientUnits="userSpaceOnUse"
            gradientTransform="translate(121.982 145.747) scale(218.234 218.234)">
            <stop stop-color="#9D4863" />
            <stop offset="0.24" stop-color="#994562" />
            <stop offset="0.42" stop-color="#903C61" />
            <stop offset="0.58" stop-color="#7F2D5E" />
            <stop offset="0.73" stop-color="#68195B" />
            <stop offset="0.87" stop-color="#4C0057" />
            <stop offset="0.98" stop-color="#4C0086" />
        </radialGradient>
        <linearGradient id="paint5_linear_1345_24875" x1="112.97" y1="261.182" x2="169.616"
            y2="261.182" gradientUnits="userSpaceOnUse">
            <stop stop-color="#CA528D" />
            <stop offset="1" stop-color="#8E7090" />
        </linearGradient>
        <linearGradient id="paint6_linear_1345_24875" x1="254.807" y1="234.255" x2="308.765"
            y2="234.255" gradientUnits="userSpaceOnUse">
            <stop stop-color="#CA528D" />
            <stop offset="1" stop-color="#8E7090" />
        </linearGradient>
        <linearGradient id="paint7_linear_1345_24875" x1="307.654" y1="185.075" x2="327.545"
            y2="185.075" gradientUnits="userSpaceOnUse">
            <stop stop-color="#CA528D" />
            <stop offset="1" stop-color="#8E7090" />
        </linearGradient>
        <linearGradient id="paint8_linear_1345_24875" x1="71.249" y1="140.164" x2="308.709"
            y2="140.164" gradientUnits="userSpaceOnUse">
            <stop stop-color="#CA528D" />
            <stop offset="1" stop-color="#8E7090" />
        </linearGradient>
        <linearGradient id="paint9_linear_1345_24875" x1="71.249" y1="104.102" x2="293.908"
            y2="104.102" gradientUnits="userSpaceOnUse">
            <stop stop-color="#DE6863" />
            <stop offset="0.25" stop-color="#DB6462" />
            <stop offset="0.43" stop-color="#D35B61" />
            <stop offset="0.6" stop-color="#C54A5F" />
            <stop offset="0.76" stop-color="#B1335C" />
            <stop offset="0.91" stop-color="#981559" />
            <stop offset="1" stop-color="#860057" />
        </linearGradient>
        <linearGradient id="paint10_linear_1345_24875" x1="96.1611" y1="321.846" x2="96.1611"
            y2="185.346" gradientUnits="userSpaceOnUse">
            <stop stop-color="#860057" />
            <stop offset="0.03" stop-color="#8C0656" />
            <stop offset="0.19" stop-color="#A92455" />
            <stop offset="0.36" stop-color="#C03B54" />
            <stop offset="0.54" stop-color="#D14C54" />
            <stop offset="0.74" stop-color="#DA5554" />
            <stop offset="0.99" stop-color="#DE5954" />
        </linearGradient>
        <linearGradient id="paint11_linear_1345_24875" x1="189.981" y1="307.694" x2="229.464"
            y2="307.694" gradientUnits="userSpaceOnUse">
            <stop stop-color="#CA528D" />
            <stop offset="1" stop-color="#8E7090" />
        </linearGradient>
        <linearGradient id="paint12_linear_1345_24875" x1="321.161" y1="177.091" x2="321.161"
            y2="124.897" gradientUnits="userSpaceOnUse">
            <stop stop-color="#860057" />
            <stop offset="0.03" stop-color="#880456" />
            <stop offset="0.23" stop-color="#951B55" />
            <stop offset="0.45" stop-color="#9D2C54" />
            <stop offset="0.69" stop-color="#A33554" />
            <stop offset="0.99" stop-color="#A53954" />
        </linearGradient>
        <linearGradient id="paint13_linear_1345_24875" x1="284.036" y1="235.812" x2="284.036"
            y2="173.519" gradientUnits="userSpaceOnUse">
            <stop stop-color="#860057" />
            <stop offset="0.03" stop-color="#880456" />
            <stop offset="0.23" stop-color="#951B55" />
            <stop offset="0.45" stop-color="#9D2C54" />
            <stop offset="0.69" stop-color="#A33554" />
            <stop offset="0.99" stop-color="#A53954" />
        </linearGradient>
        <linearGradient id="paint14_linear_1345_24875" x1="164.304" y1="112.022" x2="164.304"
            y2="48.7299" gradientUnits="userSpaceOnUse">
            <stop stop-color="#F49F57" />
            <stop offset="0.1" stop-color="#F69656" />
            <stop offset="0.35" stop-color="#FB8555" />
            <stop offset="0.63" stop-color="#FE7C54" />
            <stop offset="0.99" stop-color="#FF7954" />
        </linearGradient>
        <linearGradient id="paint15_linear_1345_24875" x1="224.745" y1="139.336" x2="224.745"
            y2="77.3975" gradientUnits="userSpaceOnUse">
            <stop stop-color="#F47D57" />
            <stop offset="0.4" stop-color="#FB7A54" />
            <stop offset="0.99" stop-color="#FF7954" />
        </linearGradient>
        <linearGradient id="paint16_linear_1345_24875" x1="71.249" y1="125.243" x2="129.209"
            y2="125.243" gradientUnits="userSpaceOnUse">
            <stop stop-color="#F49F57" />
            <stop offset="0.1" stop-color="#F69656" />
            <stop offset="0.35" stop-color="#FB8555" />
            <stop offset="0.63" stop-color="#FE7C54" />
            <stop offset="0.99" stop-color="#FF7954" />
        </linearGradient>
        <linearGradient id="paint17_linear_1345_24875" x1="263.583" y1="182.969" x2="310.819"
            y2="182.969" gradientUnits="userSpaceOnUse">
            <stop stop-color="#C75357" />
            <stop offset="0.13" stop-color="#D25856" />
            <stop offset="0.37" stop-color="#E35F54" />
            <stop offset="0.65" stop-color="#EC6354" />
            <stop offset="0.99" stop-color="#F06554" />
        </linearGradient>
        <linearGradient id="paint18_linear_1345_24875" x1="38.161" y1="210.362" x2="112.958"
            y2="210.362" gradientUnits="userSpaceOnUse">
            <stop stop-color="#F49F57" />
            <stop offset="0.1" stop-color="#F69656" />
            <stop offset="0.35" stop-color="#FB8555" />
            <stop offset="0.63" stop-color="#FE7C54" />
            <stop offset="0.99" stop-color="#FF7954" />
        </linearGradient>
        <linearGradient id="paint19_linear_1345_24875" x1="45.8784" y1="250.092" x2="108.04"
            y2="250.092" gradientUnits="userSpaceOnUse">
            <stop stop-color="#F49F57" />
            <stop offset="0.1" stop-color="#F69656" />
            <stop offset="0.35" stop-color="#FB8555" />
            <stop offset="0.63" stop-color="#FE7C54" />
            <stop offset="0.99" stop-color="#FF7954" />
        </linearGradient>
        <linearGradient id="paint20_linear_1345_24875" x1="206.682" y1="316.112" x2="206.682"
            y2="285.84" gradientUnits="userSpaceOnUse">
            <stop stop-color="#860057" />
            <stop offset="0.03" stop-color="#880456" />
            <stop offset="0.23" stop-color="#951B55" />
            <stop offset="0.45" stop-color="#9D2C54" />
            <stop offset="0.69" stop-color="#A33554" />
            <stop offset="0.99" stop-color="#A53954" />
        </linearGradient>
        <linearGradient id="paint21_linear_1345_24875" x1="188.615" y1="294.202" x2="217.956"
            y2="294.202" gradientUnits="userSpaceOnUse">
            <stop stop-color="#C75357" />
            <stop offset="0.26" stop-color="#D15048" />
            <stop offset="0.58" stop-color="#D84F3F" />
            <stop offset="0.99" stop-color="#DB4F3C" />
        </linearGradient>
        <linearGradient id="paint22_linear_1345_24875" x1="88.4198" y1="255.961" x2="153.835"
            y2="255.961" gradientUnits="userSpaceOnUse">
            <stop stop-color="#CA528D" />
            <stop offset="1" stop-color="#8E7090" />
        </linearGradient>
        <linearGradient id="paint23_linear_1345_24875" x1="207.582" y1="302.382" x2="224.745"
            y2="302.382" gradientUnits="userSpaceOnUse">
            <stop stop-color="#CA528D" />
            <stop offset="1" stop-color="#8E7090" />
        </linearGradient>
        <linearGradient id="paint24_linear_1345_24875" x1="284.036" y1="209.056" x2="313.404"
            y2="209.056" gradientUnits="userSpaceOnUse">
            <stop stop-color="#CA528D" />
            <stop offset="1" stop-color="#8E7090" />
        </linearGradient>
        <linearGradient id="paint25_linear_1345_24875" x1="309.959" y1="134.203" x2="321.209"
            y2="134.203" gradientUnits="userSpaceOnUse">
            <stop stop-color="#CA528D" />
            <stop offset="1" stop-color="#8E7090" />
        </linearGradient>
        <linearGradient id="paint26_linear_1345_24875" x1="307.654" y1="153.616" x2="343.159"
            y2="153.616" gradientUnits="userSpaceOnUse">
            <stop stop-color="#CA528D" />
            <stop offset="1" stop-color="#8E7090" />
        </linearGradient>
        <linearGradient id="paint27_linear_1345_24875" x1="298.888" y1="135.672" x2="319.312"
            y2="131.96" gradientUnits="userSpaceOnUse">
            <stop stop-color="#F47D57" />
            <stop offset="0.4" stop-color="#FB7A54" />
            <stop offset="0.99" stop-color="#FF7954" />
        </linearGradient>
        <linearGradient id="paint28_linear_1345_24875" x1="309.578" y1="136.461" x2="342.18"
            y2="130.537" gradientUnits="userSpaceOnUse">
            <stop stop-color="#F47D57" />
            <stop offset="0.4" stop-color="#FB7A54" />
            <stop offset="0.99" stop-color="#FF7954" />
        </linearGradient>
        <linearGradient id="paint29_linear_1345_24875" x1="164.304" y1="91.4506" x2="261.966"
            y2="91.4506" gradientUnits="userSpaceOnUse">
            <stop stop-color="#CA528D" />
            <stop offset="1" stop-color="#8E7090" />
        </linearGradient>
        <linearGradient id="paint30_linear_1345_24875" x1="194.409" y1="142.151" x2="219.103"
            y2="142.151" gradientUnits="userSpaceOnUse">
            <stop stop-color="#CA528D" />
            <stop offset="1" stop-color="#8E7090" />
        </linearGradient>
        <linearGradient id="paint31_linear_1345_24875" x1="237.516" y1="121.496" x2="293.907"
            y2="121.496" gradientUnits="userSpaceOnUse">
            <stop stop-color="#CA528D" />
            <stop offset="1" stop-color="#8E7090" />
        </linearGradient>
        <linearGradient id="paint32_linear_1345_24875" x1="81.71" y1="142.697" x2="123.507"
            y2="142.697" gradientUnits="userSpaceOnUse">
            <stop stop-color="#CA528D" />
            <stop offset="1" stop-color="#8E7090" />
        </linearGradient>
        <linearGradient id="paint33_linear_1345_24875" x1="131.2" y1="191.972" x2="162.986"
            y2="191.972" gradientUnits="userSpaceOnUse">
            <stop stop-color="#CA528D" />
            <stop offset="1" stop-color="#8E7090" />
        </linearGradient>
        <linearGradient id="paint34_linear_1345_24875" x1="144.162" y1="215.825" x2="161.588"
            y2="215.825" gradientUnits="userSpaceOnUse">
            <stop stop-color="#CA528D" />
            <stop offset="1" stop-color="#8E7090" />
        </linearGradient>
        <linearGradient id="paint35_linear_1345_24875" x1="144.763" y1="197.432" x2="144.763"
            y2="169.393" gradientUnits="userSpaceOnUse">
            <stop stop-color="#A20057" />
            <stop offset="0.28" stop-color="#BA2355" />
            <stop offset="0.57" stop-color="#CD4054" />
            <stop offset="0.82" stop-color="#D95254" />
            <stop offset="0.99" stop-color="#DE5954" />
        </linearGradient>
        <linearGradient id="paint36_linear_1345_24875" x1="151.019" y1="220.158" x2="151.019"
            y2="206.471" gradientUnits="userSpaceOnUse">
            <stop stop-color="#A20057" />
            <stop offset="0.28" stop-color="#BA2355" />
            <stop offset="0.57" stop-color="#CD4054" />
            <stop offset="0.82" stop-color="#D95254" />
            <stop offset="0.99" stop-color="#DE5954" />
        </linearGradient>
        <linearGradient id="paint37_linear_1345_24875" x1="147.937" y1="187.731" x2="162.842"
            y2="187.731" gradientUnits="userSpaceOnUse">
            <stop stop-color="#CA528D" />
            <stop offset="1" stop-color="#8E7090" />
        </linearGradient>
        <linearGradient id="paint38_linear_1345_24875" x1="57.4944" y1="174.57" x2="57.4944"
            y2="148.26" gradientUnits="userSpaceOnUse">
            <stop stop-color="#A20057" />
            <stop offset="0.28" stop-color="#BA2355" />
            <stop offset="0.57" stop-color="#CD4054" />
            <stop offset="0.82" stop-color="#D95254" />
            <stop offset="0.99" stop-color="#DE5954" />
        </linearGradient>
        <linearGradient id="paint39_linear_1345_24875" x1="144.759" y1="185.525" x2="144.759"
            y2="167.856" gradientUnits="userSpaceOnUse">
            <stop stop-color="#F49F57" />
            <stop offset="0.1" stop-color="#F69656" />
            <stop offset="0.35" stop-color="#FB8555" />
            <stop offset="0.63" stop-color="#FE7C54" />
            <stop offset="0.99" stop-color="#FF7954" />
        </linearGradient>
        <linearGradient id="paint40_linear_1345_24875" x1="145.83" y1="216.733" x2="158.016"
            y2="216.733" gradientUnits="userSpaceOnUse">
            <stop stop-color="#CA528D" />
            <stop offset="1" stop-color="#8E7090" />
        </linearGradient>
        <linearGradient id="paint41_linear_1345_24875" x1="150.661" y1="215.467" x2="150.661"
            y2="206.32" gradientUnits="userSpaceOnUse">
            <stop stop-color="#F47D57" />
            <stop offset="0.4" stop-color="#FB7A54" />
            <stop offset="0.99" stop-color="#FF7954" />
        </linearGradient>
        <linearGradient id="paint42_linear_1345_24875" x1="276.056" y1="288.54" x2="270.7"
            y2="307.853" gradientUnits="userSpaceOnUse">
            <stop stop-color="#CA528D" />
            <stop offset="1" stop-color="#8E7090" />
        </linearGradient>
        <linearGradient id="paint43_linear_1345_24875" x1="268.824" y1="293.65" x2="282.016"
            y2="297.309" gradientUnits="userSpaceOnUse">
            <stop stop-color="#A20057" />
            <stop offset="0.28" stop-color="#BA2355" />
            <stop offset="0.57" stop-color="#CD4054" />
            <stop offset="0.82" stop-color="#D95254" />
            <stop offset="0.99" stop-color="#DE5954" />
        </linearGradient>
        <linearGradient id="paint44_linear_1345_24875" x1="273.514" y1="289.567" x2="270.258"
            y2="301.309" gradientUnits="userSpaceOnUse">
            <stop stop-color="#CA528D" />
            <stop offset="1" stop-color="#8E7090" />
        </linearGradient>
        <linearGradient id="paint45_linear_1345_24875" x1="273.445" y1="294.556" x2="282.259"
            y2="297" gradientUnits="userSpaceOnUse">
            <stop stop-color="#F47D57" />
            <stop offset="0.4" stop-color="#FB7A54" />
            <stop offset="0.99" stop-color="#FF7954" />
        </linearGradient>
        <linearGradient id="paint46_linear_1345_24875" x1="96.1611" y1="283.526" x2="139.395"
            y2="283.526" gradientUnits="userSpaceOnUse">
            <stop stop-color="#860057" />
            <stop offset="0.21" stop-color="#89094C" />
            <stop offset="0.55" stop-color="#8D1343" />
            <stop offset="0.99" stop-color="#8F1640" />
        </linearGradient>
        <linearGradient id="paint47_linear_1345_24875" x1="96.1611" y1="283.526" x2="131.79"
            y2="283.526" gradientUnits="userSpaceOnUse">
            <stop stop-color="#F49F57" />
            <stop offset="0.1" stop-color="#F69656" />
            <stop offset="0.35" stop-color="#FB8555" />
            <stop offset="0.63" stop-color="#FE7C54" />
            <stop offset="0.99" stop-color="#FF7954" />
        </linearGradient>
        <linearGradient id="paint48_linear_1345_24875" x1="143.473" y1="115.953" x2="143.473"
            y2="100.944" gradientUnits="userSpaceOnUse">
            <stop stop-color="#860057" />
            <stop offset="0.03" stop-color="#880456" />
            <stop offset="0.23" stop-color="#951B55" />
            <stop offset="0.45" stop-color="#9D2C54" />
            <stop offset="0.69" stop-color="#A33554" />
            <stop offset="0.99" stop-color="#A53954" />
        </linearGradient>
        <linearGradient id="paint49_linear_1345_24875" x1="123.507" y1="109.163" x2="163.44"
            y2="109.163" gradientUnits="userSpaceOnUse">
            <stop stop-color="#F49F57" />
            <stop offset="0.1" stop-color="#F69656" />
            <stop offset="0.35" stop-color="#FB8555" />
            <stop offset="0.63" stop-color="#FE7C54" />
            <stop offset="0.99" stop-color="#FF7954" />
        </linearGradient>
        <linearGradient id="paint50_linear_1345_24875" x1="57.9124" y1="275.506" x2="57.9124"
            y2="266.164" gradientUnits="userSpaceOnUse">
            <stop stop-color="#860057" />
            <stop offset="0.03" stop-color="#880456" />
            <stop offset="0.23" stop-color="#951B55" />
            <stop offset="0.45" stop-color="#9D2C54" />
            <stop offset="0.69" stop-color="#A33554" />
            <stop offset="0.99" stop-color="#A53954" />
        </linearGradient>
        <linearGradient id="paint51_linear_1345_24875" x1="52.0308" y1="271.44" x2="63.7941"
            y2="271.44" gradientUnits="userSpaceOnUse">
            <stop stop-color="#F49F57" />
            <stop offset="0.1" stop-color="#F69656" />
            <stop offset="0.35" stop-color="#FB8555" />
            <stop offset="0.63" stop-color="#FE7C54" />
            <stop offset="0.99" stop-color="#FF7954" />
        </linearGradient>
        <linearGradient id="paint52_linear_1345_24875" x1="293.282" y1="187.998" x2="304.775"
            y2="187.998" gradientUnits="userSpaceOnUse">
            <stop stop-color="#860057" />
            <stop offset="0.21" stop-color="#89094C" />
            <stop offset="0.55" stop-color="#8D1343" />
            <stop offset="0.99" stop-color="#8F1640" />
        </linearGradient>
        <linearGradient id="paint53_linear_1345_24875" x1="293.282" y1="188.002" x2="304.775"
            y2="188.002" gradientUnits="userSpaceOnUse">
            <stop stop-color="#C75357" />
            <stop offset="0.13" stop-color="#D25856" />
            <stop offset="0.37" stop-color="#E35F54" />
            <stop offset="0.65" stop-color="#EC6354" />
            <stop offset="0.99" stop-color="#F06554" />
        </linearGradient>
        <clipPath id="clip0_1345_24875">
            <rect width="400" height="400" fill="white" transform="translate(0 0.012207)" />
        </clipPath>
    </defs>
</svg>
    