<svg width="440" height="440" viewBox="0 0 440 440" fill="none" xmlns="http://www.w3.org/2000/svg">
    <circle cx="220" cy="220" r="160" fill="url(#paint0_radial_2164_296839)" />
    <path
        d="M220 415.098C327.749 415.098 415.098 327.749 415.098 220C415.098 112.251 327.749 24.9023 220 24.9023C112.25 24.9023 24.9021 112.251 24.9021 220C24.9021 327.749 112.25 415.098 220 415.098Z"
        fill="url(#paint1_radial_2164_296839)" />
    <path
        d="M220 376.633C306.506 376.633 376.633 306.506 376.633 220C376.633 133.494 306.506 63.3665 220 63.3665C133.493 63.3665 63.3662 133.494 63.3662 220C63.3662 306.506 133.493 376.633 220 376.633Z"
        fill="url(#paint2_radial_2164_296839)" />
    <path fill-rule="evenodd" clip-rule="evenodd"
        d="M259.279 316.303L305.338 318.94C305.338 318.94 343.47 307.45 362.489 283.231L371.434 232.804L356.654 186.674L276.345 238.034C276.345 238.034 258.122 299.648 259.274 316.303H259.279Z"
        fill="url(#paint3_linear_2164_296839)" />
    <path fill-rule="evenodd" clip-rule="evenodd"
        d="M360.238 220.648C360.238 235.003 358.218 248.91 354.403 262.034C346.834 288.435 332.164 311.813 312.575 330.044C298.571 343.102 282.039 353.483 263.839 360.391C247.342 366.668 229.488 370.076 210.779 370.076C208.129 370.076 205.448 370.015 202.829 369.857H202.798C198.887 369.669 195.006 369.288 191.19 368.814C162.328 365.03 136.116 353.041 114.853 335.186C106.872 328.533 99.6185 321.025 93.2144 312.82C88.3566 306.67 83.9718 300.139 80.1259 293.231C79.2104 291.593 78.3299 289.92 77.4451 288.246C77.4451 288.185 77.4144 288.15 77.3838 288.089C76.4683 286.293 75.6185 284.492 74.7949 282.661H74.7643C72.1799 276.954 69.9064 271.053 68.0755 264.995C66.6869 260.641 65.5217 256.164 64.5755 251.622C64.5449 251.591 64.5449 251.526 64.5449 251.495C63.8834 248.31 63.314 245.091 62.8716 241.841C61.8641 234.902 61.356 227.836 61.356 220.644C61.356 216.513 61.5136 212.378 61.8904 208.344C62.0787 205.755 62.3634 203.201 62.7095 200.647C64.6325 185.947 68.7369 171.943 74.6635 158.916C77.5677 152.512 80.91 146.362 84.6639 140.461C90.9104 130.618 98.2913 121.599 106.618 113.491C133.527 87.3097 170.274 71.1899 210.779 71.1899C212.356 71.1899 213.933 71.2205 215.48 71.2512C217.153 71.3125 218.822 71.3782 220.495 71.5053C229.076 72.0747 237.465 73.3363 245.573 75.2899C250.303 76.4244 254.942 77.7517 259.485 79.3286C262.577 80.3711 265.604 81.5363 268.6 82.7979C270.839 83.744 273.016 84.7209 275.193 85.7634C275.569 85.9517 275.951 86.1094 276.327 86.2978C290.839 93.394 303.989 102.733 315.409 113.929C317.047 115.506 318.629 117.144 320.206 118.818C321.248 119.952 322.286 121.122 323.298 122.287C325.033 124.241 326.706 126.295 328.344 128.345C334.306 135.914 339.541 144.053 343.925 152.696C349.068 162.727 353.107 173.419 355.849 184.62C358.718 196.166 360.233 208.217 360.233 220.644L360.238 220.648Z"
        fill="url(#paint4_radial_2164_296839)" />
    <path style="mix-blend-mode:multiply" opacity="0.71" fill-rule="evenodd" clip-rule="evenodd"
        d="M124.267 209.071C124.267 209.071 150.698 232.699 157.273 242.432C163.848 252.165 185.96 318.62 186.56 332.611C187.156 346.602 173.914 365.503 173.914 365.503C173.914 365.503 151.478 359.182 138.937 351.696L146.515 299.486L124.271 209.075L124.267 209.071Z"
        fill="url(#paint5_linear_2164_296839)" />
    <path style="mix-blend-mode:multiply" opacity="0.71" fill-rule="evenodd" clip-rule="evenodd"
        d="M280.287 253.006L321.629 273.498C321.629 273.498 329.829 279.017 339.575 268.679C339.575 268.679 340.557 254.263 334.577 240.364L280.283 253.006H280.287Z"
        fill="url(#paint6_linear_2164_296839)" />
    <g style="mix-blend-mode:multiply" opacity="0.3">
        <path fill-rule="evenodd" clip-rule="evenodd"
            d="M128.581 216.903C125.204 231.275 127.351 246.357 132.546 260.05C133.667 263.007 134.872 266.804 136.707 269.468C138.153 271.566 140.601 272.827 142.59 274.339C145.223 276.34 147.614 278.623 150.199 280.673C153.129 282.999 156.108 284.422 159.647 285.684C166.371 288.075 173.126 289.863 180.217 287.76C186.516 285.89 192.649 281.343 196.298 275.929C197.997 273.41 199.964 271.176 201.76 268.736C203.53 266.331 204.638 263.3 205.737 260.545C207.914 255.082 208.607 248.175 208.221 242.331C208.037 239.541 207.704 236.702 207.021 233.991C206.307 231.157 205.01 228.529 204.467 225.642C203.578 220.916 201.467 216.719 199.574 212.291C194.874 201.309 182.662 194.743 171.404 193.109C166.117 192.342 160.882 193.564 155.687 194.366C150.199 195.211 146.208 197.761 141.324 200.153C138.446 201.563 135.625 203.14 133.571 205.641C128.713 211.568 128.008 219.891 128.59 216.89L128.581 216.903Z"
            fill="#7D72B3" />
        <path fill-rule="evenodd" clip-rule="evenodd"
            d="M173.669 296.451C176.205 294.169 179.657 291.567 182.924 290.419C185.163 289.63 187.252 290.485 189.079 291.79C192.763 294.423 192.058 300.551 189.145 303.661C183.827 309.333 173.826 304.804 173.853 297.559L173.673 296.446L173.669 296.451Z"
            fill="#7D72B3" />
        <path fill-rule="evenodd" clip-rule="evenodd"
            d="M225.23 248.762C223.762 246.777 222.742 246.116 222.821 244.136C222.878 242.647 224.555 239.808 225.339 238.38C227.696 234.079 231.446 231.012 236.076 229.549C239.339 228.515 242.383 228.038 245.796 228.012C248.858 227.99 251.389 228.888 254.272 229.821C259.498 231.507 265.271 234.293 269.117 238.38C272.735 242.222 272.209 249.165 269.038 253.085C266.611 256.081 263.089 257.895 259.887 259.949C256.383 262.196 252.542 265.065 248.481 266.178C245.853 266.901 243.969 267.273 241.38 266.515C238.875 265.779 236.855 265.048 234.573 263.887C232.484 262.823 230.898 262.389 229.194 260.716C227.687 259.244 226.439 257.737 225.388 255.897C223.903 253.291 224.428 250.102 225.225 248.77L225.23 248.762Z"
            fill="#7D72B3" />
        <path fill-rule="evenodd" clip-rule="evenodd"
            d="M213.85 221.682C213.245 223.623 211.922 227.534 215.427 227.32C217.021 227.223 219.4 225.874 220.245 224.889C223.745 220.815 215.387 218.064 214.647 221.682H213.85Z"
            fill="#7D72B3" />
        <path fill-rule="evenodd" clip-rule="evenodd"
            d="M265.985 319.391C264.312 315.878 263.939 314.537 265.074 310.796C266.769 305.211 269.581 299.053 272.534 293.998C274.409 290.782 276.726 286.411 280.269 284.873C283.112 283.642 286.428 282.889 289.516 282.696C296.249 282.28 301.449 285.46 306.236 289.898C309.193 292.64 311.655 294.918 313.368 298.663C314.853 301.909 315.737 306.193 315.391 309.75C314.406 319.881 305.584 327.052 299.057 333.969C293.906 339.427 285.307 346.282 277.282 343.365C271.732 341.35 268.421 335.462 266.147 330.346C264.64 326.956 265.192 323.009 265.989 319.386L265.985 319.391Z"
            fill="#7D72B3" />
        <path fill-rule="evenodd" clip-rule="evenodd"
            d="M257.224 292.872C255.262 294.471 254.609 296.429 254.132 298.948C253.781 300.774 253.032 304.835 254.819 306.32C256.392 307.625 259.283 305.422 260.54 304.611C261.622 303.91 262.411 303.175 263.243 302.18C263.677 301.663 264.255 301.212 264.509 300.577C264.916 299.561 264.767 298.142 264.719 297.064C264.662 295.724 263.9 294.637 262.971 293.748C262.183 292.99 261.517 292.802 260.448 292.574C259.292 292.329 257.859 291.847 257.229 292.872H257.224Z"
            fill="#7D72B3" />
        <path fill-rule="evenodd" clip-rule="evenodd"
            d="M200.301 358.551C200.087 359.138 199.876 359.506 200.183 360.071C200.49 360.641 201.502 361.464 201.913 361.845C203.433 363.256 205.063 363.676 207.051 364.097C209.005 364.509 211.029 364.767 213.009 364.368C214.27 364.114 215.874 363.834 216.706 362.761C218.243 360.768 216.969 357.772 215.948 355.866C215.164 354.407 214.06 353.098 213.162 351.705C212.198 350.207 210.814 348.958 209.452 347.819C207.765 346.409 205.155 344.486 202.978 346.05C200.923 347.526 199.784 350.189 199.241 352.568C198.939 353.899 199.005 355.481 199.469 356.773C199.802 357.701 200.472 358.332 200.301 358.56V358.551Z"
            fill="#7D72B3" />
        <path fill-rule="evenodd" clip-rule="evenodd"
            d="M321.541 300.577C320.359 299.587 319.912 299.53 320.039 298.181C320.175 296.749 320.289 295.356 320.827 294.002C321.993 291.063 324.424 288.636 326.75 286.577C328.09 285.395 329.698 284.676 331.371 284.111C332.243 283.818 332.957 283.467 333.868 283.594C335.41 283.809 336.443 284.768 336.921 286.227C337.674 288.527 336.544 291.08 335.296 292.96C333.701 295.364 332.453 298.085 329.925 299.666C328.756 300.397 327.529 301.116 326.29 301.729C325.541 302.101 324.708 302.491 323.845 302.386C323.245 302.312 321.371 301.825 321.541 300.573V300.577Z"
            fill="#7D72B3" />
        <path fill-rule="evenodd" clip-rule="evenodd"
            d="M77.5763 196.981C77.8873 198.304 77.9486 199.675 78.3779 200.963C79.2496 203.604 81.1551 205.869 83.1131 207.783C86.8364 211.423 92.1411 212.917 97.1128 213.929C99.6928 214.454 102.474 214.897 105.111 214.928C107.262 214.954 109.536 215.414 111.669 215.247C115.252 214.967 118.66 213.951 121.735 212.128C126.29 209.43 130.023 205.234 128.52 199.688C127.701 196.653 125.69 194.055 123.496 191.896C121.1 189.539 119.168 187.09 116.032 185.653C114.661 185.023 113.259 184.388 111.853 183.831C110.166 183.157 108.567 182.232 106.763 181.921C105.265 181.663 103.723 181.085 102.212 181.015C100.731 180.945 99.1365 180.94 97.656 181.058C92.2725 181.501 86.7138 184.646 82.9817 188.479C81.5055 189.999 80.244 191.698 78.7678 193.201C77.4099 194.585 77.5719 196.254 77.5719 196.981H77.5763Z"
            fill="#7D72B3" />
        <path fill-rule="evenodd" clip-rule="evenodd"
            d="M188.286 159.398C186.797 161.732 186.245 162.254 186.026 164.983C185.75 168.447 185.991 171.72 186.849 175.106C188.807 182.833 194.865 189.061 200.034 194.883C208.519 204.437 218.077 213.136 229.742 218.611C234.332 220.767 239.195 223.22 244.442 222.528C249.532 221.857 254.154 219.947 259.003 218.406C263.265 217.052 267.842 215.79 272.266 215.186C274.343 214.901 276.415 214.625 278.5 214.393C281.527 214.06 284.085 212.847 286.976 211.997C291.155 210.771 295.504 210.026 299.644 208.694C301.558 208.081 303.354 207.314 305.137 206.39C308.032 204.888 311.134 203.999 314.011 202.413C324.665 196.539 331.936 184.782 332.505 172.534C332.795 166.292 330.517 159.761 327.376 154.461C325.598 151.452 323.346 148.749 321.379 145.858C318.834 142.121 315.816 138.766 312.553 135.638C306.499 129.839 299.679 126.098 291.702 123.636C287.322 122.287 283.27 121.7 278.64 121.718C271.592 121.739 264.408 122.707 257.496 124.105C250.579 125.502 243.575 126.978 236.781 128.897C229.619 130.916 222.409 133.969 215.681 137.115C208.738 140.36 202.684 144.666 198.243 150.961C197.244 152.376 196.087 153.738 195.137 155.166C194.388 156.292 193.98 157.172 192.881 157.987C190.883 159.472 189.031 159.801 188.286 159.389V159.398Z"
            fill="#7D72B3" />
    </g>
    <path style="mix-blend-mode:multiply" opacity="0.71" fill-rule="evenodd" clip-rule="evenodd"
        d="M338.419 186.486L360.238 220.648C360.238 220.648 360.93 197.805 357.719 193.21C354.508 188.61 338.423 186.486 338.423 186.486H338.419Z"
        fill="url(#paint7_linear_2164_296839)" />
    <path style="mix-blend-mode:multiply" opacity="0.71" fill-rule="evenodd" clip-rule="evenodd"
        d="M78.3735 160.707C78.3735 160.707 121.052 188.255 237.78 183.056L284.777 186.674C284.777 186.674 329.435 171.479 339.58 144.78C339.58 144.78 326.39 125.761 323.298 122.291C320.205 118.822 265.249 130.684 265.249 130.684L78.3735 160.707Z"
        fill="url(#paint8_linear_2164_296839)" />
    <path fill-rule="evenodd" clip-rule="evenodd"
        d="M84.6638 131.836V123.163C84.6638 123.163 108.256 92.6581 147.106 59.1526C147.106 59.1526 248.113 50.2254 276.805 59.1526L288.159 85.1282L321.629 97.827L323.293 122.296C323.293 122.296 301.304 157.238 261.263 169.442L241.008 164.636C241.008 164.636 218.826 173.822 160.256 173.822C101.686 173.822 78.3735 160.712 78.3735 160.712V140.632L84.6638 131.841V131.836Z"
        fill="url(#paint9_linear_2164_296839)" />
    <path fill-rule="evenodd" clip-rule="evenodd"
        d="M169.218 321.213L159.406 346.825L129.155 354.018L98.5583 352.629C98.5583 352.629 66.0997 332.033 50.5494 299.478L53.9267 269.857L42.4457 259.257C42.4457 259.257 39.6685 231.59 62.6962 206.324C62.6962 206.324 88.0892 199.259 124.271 209.067L146.572 233.798C146.572 233.798 164.838 268.622 169.223 321.209L169.218 321.213Z"
        fill="url(#paint10_linear_2164_296839)" />
    <path style="mix-blend-mode:multiply" opacity="0.71" fill-rule="evenodd" clip-rule="evenodd"
        d="M208.979 338.717C208.979 338.717 215.843 347.793 220.026 349.585C224.21 351.376 247.522 356.755 250.207 356.457C252.897 356.16 252.897 331.546 251.403 327.565C249.909 323.583 247.22 320.424 247.22 320.424L208.975 338.713L208.979 338.717Z"
        fill="url(#paint11_linear_2164_296839)" />
    <path fill-rule="evenodd" clip-rule="evenodd"
        d="M377.474 153.366L376.309 163.112L359.305 194.782C349.777 195.036 339.619 187.432 338.423 186.486C338.393 186.455 338.327 186.424 338.296 186.389C331.485 175.285 329.084 150.869 329.084 150.869L337.035 141.057L350.062 138.691L353.343 140.614L364.89 137.364L373.944 143.138L376.625 144.872L377.474 153.357V153.366Z"
        fill="url(#paint12_linear_2164_296839)" />
    <path fill-rule="evenodd" clip-rule="evenodd"
        d="M341.902 200.91C341.902 200.91 322.908 190.52 313.639 190.871L289.941 207.104C289.941 207.104 280.309 233.233 280.292 253.015C280.292 253.015 303.135 261.254 319.207 258.99C319.207 258.99 337.561 250.825 343.903 237.412C343.903 237.412 346.396 214.398 341.906 200.915L341.902 200.91Z"
        fill="url(#paint13_linear_2164_296839)" />
    <path fill-rule="evenodd" clip-rule="evenodd"
        d="M84.6638 123.159C84.6638 123.159 128.577 124.6 176.993 112.177C176.993 112.177 226.005 94.9797 235.568 88.4004C245.13 81.821 276.809 59.1482 276.809 59.1482C276.809 59.1482 226.606 46.6335 147.11 59.1482C147.11 59.1482 105.304 90.3803 84.6682 123.159H84.6638Z"
        fill="url(#paint14_linear_2164_296839)" />
    <path fill-rule="evenodd" clip-rule="evenodd"
        d="M288.163 85.1239C288.163 85.1239 257.68 120.268 254.097 123.159C250.509 126.05 200.84 146.059 200.84 146.059L172.814 153.256C172.814 153.256 207.879 152.967 213.854 153.256L225.011 142.389L263.663 143.983C263.663 143.983 299.127 122.585 321.638 97.8226L288.167 85.1239H288.163Z"
        fill="url(#paint15_linear_2164_296839)" />
    <path fill-rule="evenodd" clip-rule="evenodd"
        d="M78.3735 140.628L109.452 143.584C109.452 143.584 130.171 144.482 142.126 140.448C142.126 140.448 100.516 138.416 84.6638 131.836L78.3735 140.628Z"
        fill="url(#paint16_linear_2164_296839)" />
    <path fill-rule="evenodd" clip-rule="evenodd"
        d="M289.941 207.1C289.941 207.1 303.516 212.19 312.439 211.594C321.366 210.994 341.901 200.91 341.901 200.91C341.901 200.91 332.488 192.68 313.639 190.871L289.941 207.104V207.1Z"
        fill="url(#paint17_linear_2164_296839)" />
    <path fill-rule="evenodd" clip-rule="evenodd"
        d="M42.4327 259.27C42.4327 259.27 83.4637 250.303 94.73 245.774C105.996 241.245 124.254 209.084 124.254 209.084C124.254 209.084 101.712 198.624 62.6876 206.329C62.6876 206.329 38.3721 228.954 42.4283 259.274L42.4327 259.27Z"
        fill="url(#paint18_linear_2164_296839)" />
    <path fill-rule="evenodd" clip-rule="evenodd"
        d="M53.9267 269.866C53.9267 269.866 82.6663 266.09 92.8069 263.304C102.952 260.518 118.839 250.693 118.839 250.693C118.839 250.693 106.666 278.404 102.273 284.676C102.273 284.676 68.1235 297.541 50.5406 299.486C50.5406 299.486 49.6295 284.059 53.9223 269.871L53.9267 269.866Z"
        fill="url(#paint19_linear_2164_296839)" />
    <path fill-rule="evenodd" clip-rule="evenodd"
        d="M207.476 331.884C207.476 331.884 214.051 317.485 221.822 314.41C221.822 314.41 240.351 314.581 247.224 320.429L242.743 347.71L217.043 345.953C217.043 345.953 207.481 341.074 207.481 331.884H207.476Z"
        fill="url(#paint20_linear_2164_296839)" />
    <path fill-rule="evenodd" clip-rule="evenodd"
        d="M207.476 331.884C207.476 331.884 215.545 334.201 223.018 331.884C230.491 329.566 239.751 317.507 239.751 317.507C239.751 317.507 233.776 313.6 221.822 314.41C221.822 314.41 209.57 319.557 207.476 331.884Z"
        fill="url(#paint21_linear_2164_296839)" />
    <path style="mix-blend-mode:multiply" opacity="0.5" fill-rule="evenodd" clip-rule="evenodd"
        d="M169.218 321.213L159.406 346.825L129.155 354.018L98.5583 352.629C98.5583 352.629 128.871 350.767 129.786 346.291C130.671 341.81 132.752 328.971 132.752 328.971C125.305 306.574 102.282 284.681 102.282 284.681C111.901 271.115 118.844 250.676 118.844 250.676L105.786 257.965L97.2705 244.368C111.402 231.783 124.271 209.071 124.271 209.071L146.572 233.803C146.572 233.803 164.838 268.627 169.223 321.213H169.218Z"
        fill="url(#paint22_linear_2164_296839)" />
    <path style="mix-blend-mode:multiply" opacity="0.5" fill-rule="evenodd" clip-rule="evenodd"
        d="M228.34 328.979L242.738 347.71L247.219 320.429L239.751 317.507L228.34 328.979Z"
        fill="url(#paint23_linear_2164_296839)" />
    <path style="mix-blend-mode:multiply" opacity="0.71" fill-rule="evenodd" clip-rule="evenodd"
        d="M312.439 211.59C312.439 211.59 317.45 228.862 318.046 236.032C318.642 243.199 319.202 258.985 319.202 258.985C319.202 258.985 332.992 254.325 343.899 237.408C343.899 237.408 346.777 217.709 341.901 200.91C341.901 200.91 323.863 210.166 312.439 211.594V211.59Z"
        fill="url(#paint24_linear_2164_296839)" />
    <path style="mix-blend-mode:multiply" opacity="0.5" fill-rule="evenodd" clip-rule="evenodd"
        d="M340.955 153.672L344.591 156.524C344.591 156.524 352.528 153.296 352.791 149.2C353.05 145.104 353.334 140.619 353.334 140.619L350.08 138.691L340.96 153.672H340.955Z"
        fill="url(#paint25_linear_2164_296839)" />
    <path style="mix-blend-mode:multiply" opacity="0.71" fill-rule="evenodd" clip-rule="evenodd"
        d="M377.474 153.366L376.309 163.112L359.305 194.782C349.777 195.036 339.619 187.432 338.423 186.486C346.974 192.071 355.993 191.628 355.993 191.628C355.993 191.628 356.593 181.628 355.993 175.351C355.393 169.074 350.881 156.52 350.881 156.52L373.939 143.146L376.62 144.881L377.47 153.366H377.474Z"
        fill="url(#paint26_linear_2164_296839)" />
    <path fill-rule="evenodd" clip-rule="evenodd"
        d="M350.075 138.696L340.955 153.677C340.955 153.677 335.475 155.118 329.084 150.886L337.03 141.066L350.075 138.696Z"
        fill="url(#paint27_linear_2164_296839)" />
    <path fill-rule="evenodd" clip-rule="evenodd"
        d="M353.33 140.619L352.787 149.2C352.787 149.2 348.121 155.262 341.958 157.891C341.958 157.891 353.79 156.603 359.261 154.207C359.261 154.207 373.479 148.53 376.633 144.868L364.894 137.36L353.33 140.619Z"
        fill="url(#paint28_linear_2164_296839)" />
    <path style="mix-blend-mode:multiply" opacity="0.5" fill-rule="evenodd" clip-rule="evenodd"
        d="M180.734 110.394L210.792 142.016L254.092 123.163C254.092 123.163 285.771 88.4267 288.158 85.1283L276.805 59.1526C276.805 59.1526 245.726 80.6384 235.563 88.4048C225.401 96.1712 180.734 110.394 180.734 110.394Z"
        fill="url(#paint29_linear_2164_296839)" />
    <path style="mix-blend-mode:multiply" opacity="0.5" fill-rule="evenodd" clip-rule="evenodd"
        d="M225.007 142.389L241.013 164.632C241.013 164.632 228.813 168.736 215.847 170.313L213.85 153.252L225.007 142.384V142.389Z"
        fill="url(#paint30_linear_2164_296839)" />
    <path style="mix-blend-mode:multiply" opacity="0.5" fill-rule="evenodd" clip-rule="evenodd"
        d="M263.659 143.983L261.268 169.437C261.268 169.437 303.249 154.395 323.298 122.291L321.634 97.8226C321.634 97.8226 289.626 127.951 263.659 143.983Z"
        fill="url(#paint31_linear_2164_296839)" />
    <path style="mix-blend-mode:multiply" opacity="0.2" fill-rule="evenodd" clip-rule="evenodd"
        d="M89.8809 141.723L118.844 172.188H133.238L135.857 142.016C135.857 142.016 103.377 145.039 89.8809 141.723Z"
        fill="url(#paint32_linear_2164_296839)" />
    <g style="mix-blend-mode:soft-light">
        <path fill-rule="evenodd" clip-rule="evenodd"
            d="M96.3068 113.303C95.7023 111.638 96.1097 111.034 97.0208 109.496C98.4575 107.078 100.437 105.046 102.176 102.856C105.563 98.5935 109.176 94.6249 113.741 91.5586C118.454 88.3916 123.075 84.9574 128.056 82.2196C131.459 80.3492 134.898 78.4306 138.556 77.099C141.131 76.1616 143.799 75.4169 146.423 74.6241C151.556 73.0647 158.556 72.3813 163.515 75.0096C166.537 76.6128 167.716 79.5783 168.846 82.6358C169.402 84.1426 169.888 85.4392 169.59 87.0819C169.332 88.5143 168.609 89.9992 167.974 91.287C165.898 95.5185 162.047 99.3995 158.442 102.361C151.083 108.401 142.734 112.76 133.75 115.808C131.345 116.628 128.936 117.534 126.461 118.121C124.858 118.502 123.211 118.678 121.612 119.076C117.902 119.996 114.113 120.828 110.298 121.244C109.255 121.358 108.077 121.722 107.047 121.717C106.11 121.713 105.199 121.131 104.275 120.968C102.733 120.701 100.543 120.763 99.1672 120C95.4964 117.981 95.0627 113.991 96.3068 113.307V113.303Z"
            fill="#FFA989" />
        <path fill-rule="evenodd" clip-rule="evenodd"
            d="M157.667 108.918C158 107.367 157.908 107.302 158.885 106.421C159.437 105.624 160.068 104.892 160.782 104.231C161.68 103.456 162.656 102.786 163.703 102.229C166.721 100.552 170.405 98.6767 173.94 99.7193C176.319 100.42 177.664 101.568 177.112 104.17C176.801 105.637 175.579 107.118 174.431 108.024C172.372 109.654 170.024 110.626 167.619 111.643C165.797 112.409 163.13 112.869 161.145 112.431C159.336 112.032 157.413 110.066 157.667 108.922V108.918Z"
            fill="#FFA989" />
        <path fill-rule="evenodd" clip-rule="evenodd"
            d="M209.864 65.8852C207.113 66.7438 205.65 67.287 203.363 68.8464C199.96 71.1636 196.311 73.4896 193.201 76.1879C191.243 77.8875 189.302 79.9725 187.971 82.2153C186.915 83.9937 186.573 86.1007 186.416 88.1419C186.254 90.2401 186.919 93.9941 189.197 94.9359C190.073 95.2951 191.65 94.9753 192.518 94.9841C194.572 95.0016 196.223 94.6599 198.212 94.1693C200.139 93.6919 202.084 93.5648 203.999 92.9954C205.943 92.4216 207.888 91.8828 209.855 91.3922C214.1 90.3365 218.217 89.3202 222.186 87.4279C225.94 85.6407 229.83 84.1558 233.514 82.2197C236.172 80.8179 238.766 79.3899 241.503 78.1547C245.288 76.4419 249.077 74.7686 252.717 72.7756C254.272 71.9258 255.306 70.9358 256.532 69.6874C257.728 68.4697 259.147 67.4403 260.041 65.9553C260.44 65.2939 261.373 64.0411 261.342 63.2132C261.307 62.1619 259.796 60.8653 259.012 60.3747C257.645 59.5205 255.713 58.9861 254.132 58.7934C251.828 58.5087 249.173 58.2283 246.865 58.3729C244.026 58.5569 240.934 58.9774 238.135 59.5074C236.273 59.8578 234.622 60.3178 232.712 60.3441C229.282 60.3966 226.027 60.6419 222.619 61.1939C220.688 61.5049 218.822 62.1751 216.943 62.7095C215.234 63.1957 213.416 63.5505 211.804 64.3127C211.003 64.6938 208.059 65.3464 209.868 65.8984L209.864 65.8852Z"
            fill="#FFA989" />
        <path fill-rule="evenodd" clip-rule="evenodd"
            d="M201.896 60.309C200.069 61.1676 197.353 62.1137 196.241 64.0236C195.514 65.272 196.525 65.5173 197.634 65.526C199.587 65.5392 201.594 64.6062 203.468 64.0937C204.914 63.6994 206.447 62.9635 207.656 62.0875C208.23 61.6713 209.382 61.2508 208.996 60.3879C208.769 59.8797 207.582 59.3453 207.087 59.192C205.216 58.627 202.916 59.0562 201.497 60.309H201.896Z"
            fill="#FFA989" />
        <path fill-rule="evenodd" clip-rule="evenodd"
            d="M267.242 118.086C265.582 118.625 263.931 118.914 262.306 119.418C260.654 119.926 259.147 120.968 257.746 121.958C255.332 123.671 252.717 125.861 251.258 128.476C250.036 130.667 248.718 134.64 251.285 136.436C254.815 138.902 260.326 136.396 263.852 135.227C269.384 133.391 275.473 131.258 280.165 127.666C282.149 126.146 284.081 124.293 285.898 122.572C287.41 121.139 289.013 119.365 290.279 117.714C291.212 116.492 291.352 114.805 291.186 113.312C291.028 111.884 289.617 110.723 288.308 110.206C285.693 109.172 283.467 110.407 280.896 110.824C278.215 111.257 275.092 112.041 272.696 113.399C269.047 115.467 265.192 117.236 267.242 118.095V118.086Z"
            fill="#FFA989" />
        <path fill-rule="evenodd" clip-rule="evenodd"
            d="M276.406 103.342C275.959 102.746 275.688 102.093 275.591 101.375C276.397 101.165 276.853 100.236 277.405 99.7236C277.882 99.2768 278.465 98.979 279.043 98.6943C279.998 98.2256 281.724 97.4108 282.801 97.8226C284.86 98.611 285.36 100.617 284.295 102.553C283.235 104.489 281.233 105.769 279.087 106.045C277.501 106.25 274.076 104.008 276.008 102.142L276.406 103.337V103.342Z"
            fill="#FFA989" />
        <path fill-rule="evenodd" clip-rule="evenodd"
            d="M299.915 97.7612C298.549 98.0197 296.674 98.0328 295.404 98.668C295.132 98.8038 294.777 99.233 294.497 99.4214C293.126 100.346 291.566 101.09 290.322 102.177C288.969 103.359 287.462 105.506 288.172 107.367C290.629 113.824 299.618 110.223 303.718 107.941C305.097 107.175 306 106.062 307.257 105.151C308.199 104.468 308.974 103.955 309.662 102.974C310.669 101.541 310.875 100.578 310.174 98.9352C309.653 97.713 308.378 96.9465 307.095 96.653C306.009 96.4033 304.8 96.0967 303.687 96.1449C300.954 96.2631 298.614 98.0416 296.328 99.3557L299.915 97.7612Z"
            fill="#FFA989" />
        <path fill-rule="evenodd" clip-rule="evenodd"
            d="M64.8295 213.714C58.64 216.618 53.1514 221.332 49.669 227.267C48.1096 229.926 46.8393 232.633 45.7836 235.533C45.2361 237.035 45.0083 238.625 44.4213 240.115C43.9132 241.411 43.37 242.629 43.1291 244.018C42.5728 247.18 41.0835 253.611 46.1647 254.027C48.4425 254.215 51.1058 253.659 53.3266 253.199C57.707 252.292 62.2713 250.522 66.3144 248.621C70.8087 246.506 75.3555 244.136 79.2278 241.026C82.881 238.091 86.9679 235.699 90.2795 232.344C94.235 228.34 99.947 221.774 95.4877 216.071C91.2738 210.683 82.1758 211.914 76.2798 212.623C73.4939 212.956 70.3882 212.987 67.6767 213.806C67.0503 213.995 66.275 214.297 65.7143 214.612C65.2982 214.844 64.939 215.309 64.8339 213.719L64.8295 213.714Z"
            fill="#FFA989" />
        <path fill-rule="evenodd" clip-rule="evenodd"
            d="M86.7444 240.413C87.1518 239.042 87.2876 238.433 88.2688 237.486C89.2938 236.501 90.218 235.423 91.208 234.407C92.7543 232.813 96.0396 230.955 98.3174 230.824C99.3511 230.763 100.753 230.793 101.515 231.63C102.308 232.502 101.931 234.227 101.524 235.204C101.108 236.194 100.648 236.908 99.833 237.622C98.9087 238.433 97.818 239.585 96.736 240.163C95.3256 240.916 93.5603 241.459 92.014 241.915C90.7524 242.287 88.8032 242.936 87.6117 241.924C86.9109 241.328 86.2363 239.922 86.7444 240.413Z"
            fill="#FFA989" />
        <path fill-rule="evenodd" clip-rule="evenodd"
            d="M69.6086 273.086C68.2813 273.388 66.354 273.554 65.1581 274.387C64.1156 275.11 63.2658 276.213 62.508 277.208C60.9442 279.267 59.5951 281.483 58.0356 283.551C56.7566 285.241 55.5563 287.125 54.4831 288.956C53.7516 290.204 53.3443 291.374 54.0495 292.723C55.806 296.096 61.2552 295.277 64.1857 294.576C67.3439 293.818 70.1737 292.289 73.1304 290.993C75.7893 289.828 78.5621 288.824 81.1202 287.44C85.5225 285.062 90.8885 282.639 93.267 277.952C94.1956 276.126 94.5504 274.645 93.7488 272.718C93.0042 270.926 91.6594 269.595 89.9511 268.662C88.1726 267.689 86.2365 267.908 84.2872 267.895C81.567 267.878 78.5621 268.289 75.9382 269.078C74.2649 269.581 72.5215 270.401 70.9052 271.062C68.4127 272.087 67.1337 274.12 69.613 273.081L69.6086 273.086Z"
            fill="#FFA989" />
        <path fill-rule="evenodd" clip-rule="evenodd"
            d="M54.0714 275.872C53.975 275.201 53.9969 274.536 54.1327 273.879C55.3066 273.519 55.8147 272.214 57.2778 272.665C58.351 272.994 58.5218 274.229 58.259 275.074C57.7246 276.765 53.5939 280.27 53.6727 276.669L54.0714 275.872Z"
            fill="#FFA989" />
        <path fill-rule="evenodd" clip-rule="evenodd"
            d="M315.058 196.184C313.07 196.267 311.085 196.42 309.105 196.644C308.58 197.073 308.006 197.437 307.393 197.73C305.343 198.812 303.481 199.587 301.703 201.125C300.266 202.365 296.88 204.546 297.081 206.85C297.265 208.966 300.336 209.373 301.961 209.382C303.626 209.391 305.312 209.018 306.981 208.931C309.294 208.813 311.576 208.519 313.88 208.243C316.819 207.888 319.956 207.341 322.553 205.856C324.1 204.971 325.16 204.029 326.263 202.632C326.772 201.988 327.551 201.344 327.389 200.446C327.284 199.855 326.189 198.659 325.76 198.26C325.125 197.678 324.231 197.31 323.447 196.959C319.649 195.264 315.308 196.596 315.063 196.18L315.058 196.184Z"
            fill="#FFA989" />
        <path fill-rule="evenodd" clip-rule="evenodd"
            d="M217.438 323.688C215.83 324.398 214.831 324.56 214.113 326.053C213.85 326.605 212.987 327.784 213.009 328.515C213.04 329.509 214.047 329.466 214.888 329.238C215.974 328.944 217.061 327.959 217.985 327.363C218.747 326.872 219.273 326.369 219.851 325.672C220.193 325.26 220.491 325.05 220.605 324.485C220.705 323.973 220.438 323.517 220.955 323.189C220.622 320.88 216.264 324.056 215.444 324.091L217.438 323.692V323.688Z"
            fill="#FFA989" />
        <path fill-rule="evenodd" clip-rule="evenodd"
            d="M228.594 319.303C226.115 320.403 224.446 321.257 223.176 323.714C222.777 324.489 222.396 325.295 222.799 326.08C224.091 328.589 226.855 326.356 228.283 325.278C229.269 324.538 230.342 324.016 231.187 323.101C231.573 322.689 231.827 322.212 232.177 321.778C232.493 321.388 233.11 320.968 233.312 320.495C233.71 319.562 233.066 318.856 232.204 318.585C230.565 318.072 229.326 319.15 227.797 319.299H228.594V319.303Z"
            fill="#FFA989" />
        <path fill-rule="evenodd" clip-rule="evenodd"
            d="M98.3 264.715C97.5641 266.301 94.9096 272.275 98.4314 272.24C101.506 272.21 106.522 268.894 106.688 265.512C106.798 263.252 104.989 262.152 102.882 261.911C100.205 261.605 98.6461 263.734 97.5028 265.911L98.3 264.715Z"
            fill="#FFA989" />
        <path fill-rule="evenodd" clip-rule="evenodd"
            d="M107.464 213.316C106.776 214.257 105.804 215.059 106.776 216.023C107.253 216.496 107.753 216.794 108.445 216.89C109.794 217.078 111.792 215.865 111.857 214.511C111.905 213.495 111.419 212.672 110.653 212.111C109.562 211.318 108.813 211.817 107.867 212.518L107.468 213.316H107.464Z"
            fill="#FFA989" />
    </g>
    <path fill-rule="evenodd" clip-rule="evenodd"
        d="M144.32 119.19C144.32 119.19 162.122 113.71 166.051 112.164C169.976 110.618 189.837 107.389 189.837 107.389C189.837 107.389 206.881 100.07 211.664 97.8182C216.447 95.5667 228.599 89.5918 228.599 89.5918L242.751 83.1045C242.751 83.1045 233.18 92.9253 224.814 96.1405C216.447 99.3557 195.128 107.919 195.128 107.919C195.128 107.919 188.755 109.693 179.788 112.593C170.821 115.489 144.324 119.186 144.324 119.186L144.32 119.19Z"
        fill="#FFBD4A" />
    <path fill-rule="evenodd" clip-rule="evenodd"
        d="M255.139 143.672L263.318 147.61C263.318 147.61 271.772 142.581 273.095 137.754C273.095 137.754 257.084 142.161 255.144 143.672H255.139Z"
        fill="#FFAB4A" />
    <path fill-rule="evenodd" clip-rule="evenodd"
        d="M210.017 153.256L214.126 155.63L217.096 150.094L210.017 153.256Z" fill="#FFAB4A" />
    <path style="mix-blend-mode:multiply" opacity="0.71" fill-rule="evenodd" clip-rule="evenodd"
        d="M144.32 206.491C144.32 206.491 153.983 216.145 175.202 222.65C175.202 222.65 176.695 221.095 178.487 211.975C180.279 202.855 178.487 199.662 178.487 199.662C178.487 199.662 152.437 202.952 144.32 206.491Z"
        fill="url(#paint33_linear_2164_296839)" />
    <path style="mix-blend-mode:multiply" opacity="0.71" fill-rule="evenodd" clip-rule="evenodd"
        d="M158.578 235.34C158.578 235.34 158.863 238.564 160.059 240.781C161.255 242.997 174.65 246.339 176.424 245.595C179.709 244.215 175.995 236.221 174.602 233.829C173.209 231.437 170.931 229.081 170.931 229.081L158.583 235.336L158.578 235.34Z"
        fill="url(#paint34_linear_2164_296839)" />
    <path fill-rule="evenodd" clip-rule="evenodd"
        d="M75.3906 293.717C75.3906 293.717 93.5166 285.622 99.1936 281.544C104.871 277.466 113.399 262.757 113.399 262.757L104.275 285.434L98.1992 287.725L91.725 289.118L75.3906 293.713V293.717Z"
        fill="#FFAB4A" />
    <path fill-rule="evenodd" clip-rule="evenodd"
        d="M86.5649 248.455L101.975 239.769C101.975 239.769 100.525 244.718 98.3131 246.05C96.101 247.382 86.5605 248.455 86.5605 248.455H86.5649Z"
        fill="#FFAB4A" />
    <path fill-rule="evenodd" clip-rule="evenodd"
        d="M307.082 211.401L313.915 216.907C313.915 216.907 315.593 212.4 315.921 210.963C316.254 209.527 307.082 211.397 307.082 211.397V211.401Z"
        fill="#FF864A" />
    <path fill-rule="evenodd" clip-rule="evenodd"
        d="M346.198 157.326L356.002 154.167L364.592 151.92C364.592 151.92 354.999 156.993 353.33 157.891C351.665 158.789 346.194 157.326 346.194 157.326H346.198Z"
        fill="#FFAB4A" />
    <path fill-rule="evenodd" clip-rule="evenodd"
        d="M338.419 153.909L341.963 151.158V154.461L338.419 153.909Z" fill="#FFAB4A" />
    <path fill-rule="evenodd" clip-rule="evenodd"
        d="M220.372 332.514L232.09 325.856L230.693 332.041L220.372 332.514Z" fill="#FF864A" />
    <path fill-rule="evenodd" clip-rule="evenodd"
        d="M89.0354 141.723C89.0354 141.723 97.9714 140.996 103.215 140.996C108.458 140.996 118.818 142.016 118.818 142.016L128.857 143.002C128.857 143.002 123.102 143.47 110.95 143.672C98.7993 143.873 89.0354 141.723 89.0354 141.723Z"
        fill="#FFB14A" />
    <path fill-rule="evenodd" clip-rule="evenodd"
        d="M139.34 198.138C139.34 198.138 148.503 187.949 152.489 186.486C156.476 185.023 175.171 193.564 178.461 194.773C181.75 195.982 172.127 214.923 169.678 216.907C167.229 218.892 139.738 208.852 139.34 198.133V198.138Z"
        fill="url(#paint35_linear_2164_296839)" />
    <path fill-rule="evenodd" clip-rule="evenodd"
        d="M173.664 240.776C172.814 243.207 164.452 241.941 161.456 240.776L161.237 240.649L160.606 240.207C160.545 240.176 160.479 240.11 160.449 240.049C158.302 237.841 157.799 231.814 159.248 228.629C159.248 228.629 166.537 226.391 169.218 227.337C170.953 227.937 172.687 232.414 173.445 236.137V236.168C173.822 238.157 173.949 239.953 173.664 240.772V240.776Z"
        fill="url(#paint36_linear_2164_296839)" />
    <path style="mix-blend-mode:multiply" opacity="0.5" fill-rule="evenodd" clip-rule="evenodd"
        d="M162.731 203.867L169.678 216.912C169.678 216.912 178.575 207.227 179.131 196.079L162.735 203.871L162.731 203.867Z"
        fill="url(#paint37_linear_2164_296839)" />
    <path fill-rule="evenodd" clip-rule="evenodd"
        d="M72.8543 163.073L56.0161 167.155C56.0161 167.155 53.2696 176.893 53.6682 180.958L64.1023 192.009C64.1023 192.009 67.335 172.197 72.8543 163.073Z"
        fill="url(#paint38_linear_2164_296839)" />
    <path fill-rule="evenodd" clip-rule="evenodd"
        d="M139.34 198.138C139.34 198.138 147.562 202.189 157.645 203.867C167.729 205.545 179.127 196.074 179.127 196.074C179.127 196.074 168.325 186.42 152.787 184.628C152.787 184.628 142.625 190.428 139.34 198.138Z"
        fill="url(#paint39_linear_2164_296839)" />
    <path style="mix-blend-mode:multiply" opacity="0.5" fill-rule="evenodd" clip-rule="evenodd"
        d="M173.664 240.776C172.814 243.207 164.452 241.941 161.456 240.776L161.237 240.649L160.606 240.207L160.418 240.08L160.449 240.049L162.718 236.895L172.057 234.626L173.445 236.142V236.172C173.822 238.161 173.949 239.957 173.664 240.776Z"
        fill="url(#paint40_linear_2164_296839)" />
    <path fill-rule="evenodd" clip-rule="evenodd"
        d="M159.24 228.616C159.24 228.616 159.064 235.296 161.903 236.632C164.741 237.968 171.211 235.279 172.065 234.635C172.92 233.991 170.09 227.889 167.641 227.101C165.193 226.312 159.244 228.612 159.244 228.612L159.24 228.616Z"
        fill="url(#paint41_linear_2164_296839)" />
    <path style="mix-blend-mode:multiply" opacity="0.71" fill-rule="evenodd" clip-rule="evenodd"
        d="M304.357 317.621C304.357 317.621 301.173 317.034 298.72 317.59C296.262 318.151 292.285 330.986 292.285 332.913C292.285 340.487 301.089 338.34 303.766 337.635C306.442 336.93 307.086 331.196 307.086 331.196L304.357 317.625V317.621Z"
        fill="url(#paint42_linear_2164_296839)" />
    <path fill-rule="evenodd" clip-rule="evenodd"
        d="M295.093 330.705C292.981 329.233 296.429 321.52 298.356 318.94L298.536 318.76L299.131 318.269C299.18 318.217 299.258 318.173 299.324 318.16C302.027 316.684 307.967 317.805 310.647 320.057C310.647 320.057 310.858 327.678 309.228 330.009C308.186 331.52 303.407 331.993 299.618 331.73L299.587 331.721C297.572 331.555 295.802 331.196 295.088 330.705H295.093Z"
        fill="url(#paint43_linear_2164_296839)" />
    <path style="mix-blend-mode:multiply" opacity="0.5" fill-rule="evenodd" clip-rule="evenodd"
        d="M295.093 330.705C292.981 329.233 296.429 321.52 298.356 318.94L298.536 318.76L299.131 318.269L299.302 318.12L299.324 318.16L301.755 321.191L301.449 330.797L299.618 331.73L299.587 331.721C297.572 331.555 295.802 331.196 295.088 330.705H295.093Z"
        fill="url(#paint44_linear_2164_296839)" />
    <path fill-rule="evenodd" clip-rule="evenodd"
        d="M310.665 320.057C310.665 320.057 304.274 318.103 302.228 320.481C300.178 322.86 301.046 329.812 301.435 330.806C301.83 331.8 308.462 330.701 309.876 328.554C311.291 326.408 310.665 320.057 310.665 320.057Z"
        fill="url(#paint45_linear_2164_296839)" />
    <path fill-rule="evenodd" clip-rule="evenodd"
        d="M105.777 306.219L121.389 307.314L145.534 306.219L153.335 308.948L144.969 307.748L128.858 315.321L127.688 317.507L118.844 315.12L105.777 306.219Z"
        fill="url(#paint46_linear_2164_296839)" />
    <path fill-rule="evenodd" clip-rule="evenodd"
        d="M105.777 306.219L118.844 314.301L123.5 313.578L130.522 312.978L144.969 307.748L128.858 315.321L127.688 317.507L117.674 315.667L105.777 306.219Z"
        fill="url(#paint47_linear_2164_296839)" />
    <path fill-rule="evenodd" clip-rule="evenodd"
        d="M135.857 120.005L148.556 127.535L162.731 126.426L179.784 112.598L157.82 111.025L144.32 114.499L135.857 120.005Z"
        fill="url(#paint48_linear_2164_296839)" />
    <path fill-rule="evenodd" clip-rule="evenodd"
        d="M135.857 120.005H140.084L147.855 121.726H156.222L165.337 118.134L175.337 112.598H179.779C179.779 112.598 170.729 121.866 162.726 126.426L148.547 127.539L135.853 120.009L135.857 120.005Z"
        fill="url(#paint49_linear_2164_296839)" />
    <path fill-rule="evenodd" clip-rule="evenodd"
        d="M57.2339 298.404L63.2438 292.767L69.8012 293.717C69.8012 293.717 70.6378 297.887 69.8012 301.173C68.9645 304.458 63.2438 302.408 63.2438 302.408L57.2339 298.404Z"
        fill="url(#paint50_linear_2164_296839)" />
    <path fill-rule="evenodd" clip-rule="evenodd"
        d="M57.2339 298.404C57.2339 298.404 63.2876 300.38 64.2819 300.38C65.2763 300.38 67.6679 300.284 68.6667 299.486C69.661 298.689 69.8012 293.722 69.8012 293.722C69.8012 293.722 70.6378 298.391 69.8012 301.177C69.8012 301.177 69.661 303.569 65.4296 303.42L62.6393 302.574L57.2339 298.409V298.404Z"
        fill="url(#paint51_linear_2164_296839)" />
    <path fill-rule="evenodd" clip-rule="evenodd"
        d="M322.61 209.071C322.61 209.071 324.174 205.571 326.264 204.064C328.357 202.557 334.481 202.728 334.481 202.728L335.248 204.064C335.248 204.064 333.136 209.474 331.489 210.425C329.847 211.375 326.408 210.425 326.408 210.425L322.606 209.071H322.61Z"
        fill="url(#paint52_linear_2164_296839)" />
    <path fill-rule="evenodd" clip-rule="evenodd"
        d="M334.485 202.728C334.485 202.728 332.317 206.368 330.823 207.341C329.33 208.313 327.407 209.058 327.407 209.058C327.407 209.058 325.006 209.461 322.61 209.071C322.61 209.071 326.141 210.766 328.931 210.845C328.931 210.845 332.072 210.893 332.532 210.425C332.992 209.956 335.252 204.064 335.252 204.064L334.485 202.728Z"
        fill="url(#paint53_linear_2164_296839)" />
    <circle cx="220" cy="220" r="200" fill="url(#paint54_radial_2164_296839)" fill-opacity="0.2" />
    <defs>
        <radialGradient id="paint0_radial_2164_296839" cx="0" cy="0" r="1"
            gradientUnits="userSpaceOnUse"
            gradientTransform="translate(220 220) rotate(90) scale(160)">
            <stop stop-color="white" />
            <stop offset="1" stop-color="white" stop-opacity="0" />
        </radialGradient>
        <radialGradient id="paint1_radial_2164_296839" cx="0" cy="0" r="1"
            gradientUnits="userSpaceOnUse"
            gradientTransform="translate(220 220) scale(195.098 195.098)">
            <stop stop-color="#FF9A78" />
            <stop offset="1" stop-color="#FF9A78" stop-opacity="0" />
        </radialGradient>
        <radialGradient id="paint2_radial_2164_296839" cx="0" cy="0" r="1"
            gradientUnits="userSpaceOnUse" gradientTransform="translate(220 220) scale(156.633)">
            <stop offset="0.644" stop-color="#FF9A78" />
            <stop offset="1" stop-color="#FF9A78" stop-opacity="0" />
        </radialGradient>
        <linearGradient id="paint3_linear_2164_296839" x1="327.289" y1="311.945" x2="293.644"
            y2="206.899" gradientUnits="userSpaceOnUse">
            <stop stop-color="#5B006F" />
            <stop offset="0.02" stop-color="#5C0270" />
            <stop offset="0.23" stop-color="#691A7B" />
            <stop offset="0.46" stop-color="#732B84" />
            <stop offset="0.7" stop-color="#793589" />
            <stop offset="0.99" stop-color="#7B398B" />
        </linearGradient>
        <radialGradient id="paint4_radial_2164_296839" cx="0" cy="0" r="1"
            gradientUnits="userSpaceOnUse"
            gradientTransform="translate(134.18 160.309) scale(240.058 240.058)">
            <stop stop-color="#9D4863" />
            <stop offset="0.24" stop-color="#994562" />
            <stop offset="0.42" stop-color="#903C61" />
            <stop offset="0.58" stop-color="#7F2D5E" />
            <stop offset="0.73" stop-color="#68195B" />
            <stop offset="0.87" stop-color="#4C0057" />
            <stop offset="0.98" stop-color="#4C0086" />
        </radialGradient>
        <linearGradient id="paint5_linear_2164_296839" x1="124.267" y1="287.287" x2="186.578"
            y2="287.287" gradientUnits="userSpaceOnUse">
            <stop stop-color="#CA528D" />
            <stop offset="1" stop-color="#8E7090" />
        </linearGradient>
        <linearGradient id="paint6_linear_2164_296839" x1="280.287" y1="257.667" x2="339.641"
            y2="257.667" gradientUnits="userSpaceOnUse">
            <stop stop-color="#CA528D" />
            <stop offset="1" stop-color="#8E7090" />
        </linearGradient>
        <linearGradient id="paint7_linear_2164_296839" x1="338.419" y1="203.569" x2="360.299"
            y2="203.569" gradientUnits="userSpaceOnUse">
            <stop stop-color="#CA528D" />
            <stop offset="1" stop-color="#8E7090" />
        </linearGradient>
        <linearGradient id="paint8_linear_2164_296839" x1="78.3735" y1="154.167" x2="339.58"
            y2="154.167" gradientUnits="userSpaceOnUse">
            <stop stop-color="#CA528D" />
            <stop offset="1" stop-color="#8E7090" />
        </linearGradient>
        <linearGradient id="paint9_linear_2164_296839" x1="78.3735" y1="114.499" x2="323.298"
            y2="114.499" gradientUnits="userSpaceOnUse">
            <stop stop-color="#DE6863" />
            <stop offset="0.25" stop-color="#DB6462" />
            <stop offset="0.43" stop-color="#D35B61" />
            <stop offset="0.6" stop-color="#C54A5F" />
            <stop offset="0.76" stop-color="#B1335C" />
            <stop offset="0.91" stop-color="#981559" />
            <stop offset="1" stop-color="#860057" />
        </linearGradient>
        <linearGradient id="paint10_linear_2164_296839" x1="105.777" y1="354.018" x2="105.777"
            y2="203.867" gradientUnits="userSpaceOnUse">
            <stop stop-color="#860057" />
            <stop offset="0.03" stop-color="#8C0656" />
            <stop offset="0.19" stop-color="#A92455" />
            <stop offset="0.36" stop-color="#C03B54" />
            <stop offset="0.54" stop-color="#D14C54" />
            <stop offset="0.74" stop-color="#DA5554" />
            <stop offset="0.99" stop-color="#DE5954" />
        </linearGradient>
        <linearGradient id="paint11_linear_2164_296839" x1="208.979" y1="338.45" x2="252.41"
            y2="338.45" gradientUnits="userSpaceOnUse">
            <stop stop-color="#CA528D" />
            <stop offset="1" stop-color="#8E7090" />
        </linearGradient>
        <linearGradient id="paint12_linear_2164_296839" x1="353.277" y1="194.787" x2="353.277"
            y2="137.373" gradientUnits="userSpaceOnUse">
            <stop stop-color="#860057" />
            <stop offset="0.03" stop-color="#880456" />
            <stop offset="0.23" stop-color="#951B55" />
            <stop offset="0.45" stop-color="#9D2C54" />
            <stop offset="0.69" stop-color="#A33554" />
            <stop offset="0.99" stop-color="#A53954" />
        </linearGradient>
        <linearGradient id="paint13_linear_2164_296839" x1="312.439" y1="259.38" x2="312.439"
            y2="190.857" gradientUnits="userSpaceOnUse">
            <stop stop-color="#860057" />
            <stop offset="0.03" stop-color="#880456" />
            <stop offset="0.23" stop-color="#951B55" />
            <stop offset="0.45" stop-color="#9D2C54" />
            <stop offset="0.69" stop-color="#A33554" />
            <stop offset="0.99" stop-color="#A53954" />
        </linearGradient>
        <linearGradient id="paint14_linear_2164_296839" x1="180.734" y1="123.211" x2="180.734"
            y2="53.5895" gradientUnits="userSpaceOnUse">
            <stop stop-color="#F49F57" />
            <stop offset="0.1" stop-color="#F69656" />
            <stop offset="0.35" stop-color="#FB8555" />
            <stop offset="0.63" stop-color="#FE7C54" />
            <stop offset="0.99" stop-color="#FF7954" />
        </linearGradient>
        <linearGradient id="paint15_linear_2164_296839" x1="247.22" y1="153.256" x2="247.22"
            y2="85.1239" gradientUnits="userSpaceOnUse">
            <stop stop-color="#F47D57" />
            <stop offset="0.4" stop-color="#FB7A54" />
            <stop offset="0.99" stop-color="#FF7954" />
        </linearGradient>
        <linearGradient id="paint16_linear_2164_296839" x1="78.3735" y1="137.754" x2="142.13"
            y2="137.754" gradientUnits="userSpaceOnUse">
            <stop stop-color="#F49F57" />
            <stop offset="0.1" stop-color="#F69656" />
            <stop offset="0.35" stop-color="#FB8555" />
            <stop offset="0.63" stop-color="#FE7C54" />
            <stop offset="0.99" stop-color="#FF7954" />
        </linearGradient>
        <linearGradient id="paint17_linear_2164_296839" x1="289.941" y1="201.252" x2="341.901"
            y2="201.252" gradientUnits="userSpaceOnUse">
            <stop stop-color="#C75357" />
            <stop offset="0.13" stop-color="#D25856" />
            <stop offset="0.37" stop-color="#E35F54" />
            <stop offset="0.65" stop-color="#EC6354" />
            <stop offset="0.99" stop-color="#F06554" />
        </linearGradient>
        <linearGradient id="paint18_linear_2164_296839" x1="41.9771" y1="231.385" x2="124.254"
            y2="231.385" gradientUnits="userSpaceOnUse">
            <stop stop-color="#F49F57" />
            <stop offset="0.1" stop-color="#F69656" />
            <stop offset="0.35" stop-color="#FB8555" />
            <stop offset="0.63" stop-color="#FE7C54" />
            <stop offset="0.99" stop-color="#FF7954" />
        </linearGradient>
        <linearGradient id="paint19_linear_2164_296839" x1="50.4662" y1="275.088" x2="118.844"
            y2="275.088" gradientUnits="userSpaceOnUse">
            <stop stop-color="#F49F57" />
            <stop offset="0.1" stop-color="#F69656" />
            <stop offset="0.35" stop-color="#FB8555" />
            <stop offset="0.63" stop-color="#FE7C54" />
            <stop offset="0.99" stop-color="#FF7954" />
        </linearGradient>
        <linearGradient id="paint20_linear_2164_296839" x1="227.35" y1="347.71" x2="227.35"
            y2="314.41" gradientUnits="userSpaceOnUse">
            <stop stop-color="#860057" />
            <stop offset="0.03" stop-color="#880456" />
            <stop offset="0.23" stop-color="#951B55" />
            <stop offset="0.45" stop-color="#9D2C54" />
            <stop offset="0.69" stop-color="#A33554" />
            <stop offset="0.99" stop-color="#A53954" />
        </linearGradient>
        <linearGradient id="paint21_linear_2164_296839" x1="207.476" y1="323.609" x2="239.751"
            y2="323.609" gradientUnits="userSpaceOnUse">
            <stop stop-color="#C75357" />
            <stop offset="0.26" stop-color="#D15048" />
            <stop offset="0.58" stop-color="#D84F3F" />
            <stop offset="0.99" stop-color="#DB4F3C" />
        </linearGradient>
        <linearGradient id="paint22_linear_2164_296839" x1="97.2617" y1="281.544" x2="169.218"
            y2="281.544" gradientUnits="userSpaceOnUse">
            <stop stop-color="#CA528D" />
            <stop offset="1" stop-color="#8E7090" />
        </linearGradient>
        <linearGradient id="paint23_linear_2164_296839" x1="228.34" y1="332.606" x2="247.219"
            y2="332.606" gradientUnits="userSpaceOnUse">
            <stop stop-color="#CA528D" />
            <stop offset="1" stop-color="#8E7090" />
        </linearGradient>
        <linearGradient id="paint24_linear_2164_296839" x1="312.439" y1="229.948" x2="344.744"
            y2="229.948" gradientUnits="userSpaceOnUse">
            <stop stop-color="#CA528D" />
            <stop offset="1" stop-color="#8E7090" />
        </linearGradient>
        <linearGradient id="paint25_linear_2164_296839" x1="340.955" y1="147.61" x2="353.33"
            y2="147.61" gradientUnits="userSpaceOnUse">
            <stop stop-color="#CA528D" />
            <stop offset="1" stop-color="#8E7090" />
        </linearGradient>
        <linearGradient id="paint26_linear_2164_296839" x1="338.419" y1="168.964" x2="377.474"
            y2="168.964" gradientUnits="userSpaceOnUse">
            <stop stop-color="#CA528D" />
            <stop offset="1" stop-color="#8E7090" />
        </linearGradient>
        <linearGradient id="paint27_linear_2164_296839" x1="328.776" y1="149.226" x2="351.243"
            y2="145.143" gradientUnits="userSpaceOnUse">
            <stop stop-color="#F47D57" />
            <stop offset="0.4" stop-color="#FB7A54" />
            <stop offset="0.99" stop-color="#FF7954" />
        </linearGradient>
        <linearGradient id="paint28_linear_2164_296839" x1="340.536" y1="150.094" x2="376.398"
            y2="143.577" gradientUnits="userSpaceOnUse">
            <stop stop-color="#F47D57" />
            <stop offset="0.4" stop-color="#FB7A54" />
            <stop offset="0.99" stop-color="#FF7954" />
        </linearGradient>
        <linearGradient id="paint29_linear_2164_296839" x1="180.734" y1="100.582" x2="288.163"
            y2="100.582" gradientUnits="userSpaceOnUse">
            <stop stop-color="#CA528D" />
            <stop offset="1" stop-color="#8E7090" />
        </linearGradient>
        <linearGradient id="paint30_linear_2164_296839" x1="213.85" y1="156.353" x2="241.013"
            y2="156.353" gradientUnits="userSpaceOnUse">
            <stop stop-color="#CA528D" />
            <stop offset="1" stop-color="#8E7090" />
        </linearGradient>
        <linearGradient id="paint31_linear_2164_296839" x1="261.268" y1="133.632" x2="323.298"
            y2="133.632" gradientUnits="userSpaceOnUse">
            <stop stop-color="#CA528D" />
            <stop offset="1" stop-color="#8E7090" />
        </linearGradient>
        <linearGradient id="paint32_linear_2164_296839" x1="89.8809" y1="156.953" x2="135.857"
            y2="156.953" gradientUnits="userSpaceOnUse">
            <stop stop-color="#CA528D" />
            <stop offset="1" stop-color="#8E7090" />
        </linearGradient>
        <linearGradient id="paint33_linear_2164_296839" x1="144.32" y1="211.156" x2="179.284"
            y2="211.156" gradientUnits="userSpaceOnUse">
            <stop stop-color="#CA528D" />
            <stop offset="1" stop-color="#8E7090" />
        </linearGradient>
        <linearGradient id="paint34_linear_2164_296839" x1="158.578" y1="237.394" x2="177.747"
            y2="237.394" gradientUnits="userSpaceOnUse">
            <stop stop-color="#CA528D" />
            <stop offset="1" stop-color="#8E7090" />
        </linearGradient>
        <linearGradient id="paint35_linear_2164_296839" x1="159.24" y1="217.162" x2="159.24"
            y2="186.319" gradientUnits="userSpaceOnUse">
            <stop stop-color="#A20057" />
            <stop offset="0.28" stop-color="#BA2355" />
            <stop offset="0.57" stop-color="#CD4054" />
            <stop offset="0.82" stop-color="#D95254" />
            <stop offset="0.99" stop-color="#DE5954" />
        </linearGradient>
        <linearGradient id="paint36_linear_2164_296839" x1="166.121" y1="242.16" x2="166.121"
            y2="227.105" gradientUnits="userSpaceOnUse">
            <stop stop-color="#A20057" />
            <stop offset="0.28" stop-color="#BA2355" />
            <stop offset="0.57" stop-color="#CD4054" />
            <stop offset="0.82" stop-color="#D95254" />
            <stop offset="0.99" stop-color="#DE5954" />
        </linearGradient>
        <linearGradient id="paint37_linear_2164_296839" x1="162.731" y1="206.491" x2="179.127"
            y2="206.491" gradientUnits="userSpaceOnUse">
            <stop stop-color="#CA528D" />
            <stop offset="1" stop-color="#8E7090" />
        </linearGradient>
        <linearGradient id="paint38_linear_2164_296839" x1="63.2437" y1="192.014" x2="63.2437"
            y2="163.073" gradientUnits="userSpaceOnUse">
            <stop stop-color="#A20057" />
            <stop offset="0.28" stop-color="#BA2355" />
            <stop offset="0.57" stop-color="#CD4054" />
            <stop offset="0.82" stop-color="#D95254" />
            <stop offset="0.99" stop-color="#DE5954" />
        </linearGradient>
        <linearGradient id="paint39_linear_2164_296839" x1="159.235" y1="204.064" x2="159.235"
            y2="184.628" gradientUnits="userSpaceOnUse">
            <stop stop-color="#F49F57" />
            <stop offset="0.1" stop-color="#F69656" />
            <stop offset="0.35" stop-color="#FB8555" />
            <stop offset="0.63" stop-color="#FE7C54" />
            <stop offset="0.99" stop-color="#FF7954" />
        </linearGradient>
        <linearGradient id="paint40_linear_2164_296839" x1="160.414" y1="238.393" x2="173.818"
            y2="238.393" gradientUnits="userSpaceOnUse">
            <stop stop-color="#CA528D" />
            <stop offset="1" stop-color="#8E7090" />
        </linearGradient>
        <linearGradient id="paint41_linear_2164_296839" x1="165.727" y1="237" x2="165.727"
            y2="226.939" gradientUnits="userSpaceOnUse">
            <stop stop-color="#F47D57" />
            <stop offset="0.4" stop-color="#FB7A54" />
            <stop offset="0.99" stop-color="#FF7954" />
        </linearGradient>
        <linearGradient id="paint42_linear_2164_296839" x1="303.661" y1="317.38" x2="297.769"
            y2="338.625" gradientUnits="userSpaceOnUse">
            <stop stop-color="#CA528D" />
            <stop offset="1" stop-color="#8E7090" />
        </linearGradient>
        <linearGradient id="paint43_linear_2164_296839" x1="295.706" y1="323.002" x2="310.218"
            y2="327.026" gradientUnits="userSpaceOnUse">
            <stop stop-color="#A20057" />
            <stop offset="0.28" stop-color="#BA2355" />
            <stop offset="0.57" stop-color="#CD4054" />
            <stop offset="0.82" stop-color="#D95254" />
            <stop offset="0.99" stop-color="#DE5954" />
        </linearGradient>
        <linearGradient id="paint44_linear_2164_296839" x1="300.866" y1="318.51" x2="297.284"
            y2="331.426" gradientUnits="userSpaceOnUse">
            <stop stop-color="#CA528D" />
            <stop offset="1" stop-color="#8E7090" />
        </linearGradient>
        <linearGradient id="paint45_linear_2164_296839" x1="300.789" y1="323.998" x2="310.485"
            y2="326.687" gradientUnits="userSpaceOnUse">
            <stop stop-color="#F47D57" />
            <stop offset="0.4" stop-color="#FB7A54" />
            <stop offset="0.99" stop-color="#FF7954" />
        </linearGradient>
        <linearGradient id="paint46_linear_2164_296839" x1="105.777" y1="311.865" x2="153.335"
            y2="311.865" gradientUnits="userSpaceOnUse">
            <stop stop-color="#860057" />
            <stop offset="0.21" stop-color="#89094C" />
            <stop offset="0.55" stop-color="#8D1343" />
            <stop offset="0.99" stop-color="#8F1640" />
        </linearGradient>
        <linearGradient id="paint47_linear_2164_296839" x1="105.777" y1="311.865" x2="144.969"
            y2="311.865" gradientUnits="userSpaceOnUse">
            <stop stop-color="#F49F57" />
            <stop offset="0.1" stop-color="#F69656" />
            <stop offset="0.35" stop-color="#FB8555" />
            <stop offset="0.63" stop-color="#FE7C54" />
            <stop offset="0.99" stop-color="#FF7954" />
        </linearGradient>
        <linearGradient id="paint48_linear_2164_296839" x1="157.82" y1="127.535" x2="157.82"
            y2="111.025" gradientUnits="userSpaceOnUse">
            <stop stop-color="#860057" />
            <stop offset="0.03" stop-color="#880456" />
            <stop offset="0.23" stop-color="#951B55" />
            <stop offset="0.45" stop-color="#9D2C54" />
            <stop offset="0.69" stop-color="#A33554" />
            <stop offset="0.99" stop-color="#A53954" />
        </linearGradient>
        <linearGradient id="paint49_linear_2164_296839" x1="135.857" y1="120.066" x2="179.784"
            y2="120.066" gradientUnits="userSpaceOnUse">
            <stop stop-color="#F49F57" />
            <stop offset="0.1" stop-color="#F69656" />
            <stop offset="0.35" stop-color="#FB8555" />
            <stop offset="0.63" stop-color="#FE7C54" />
            <stop offset="0.99" stop-color="#FF7954" />
        </linearGradient>
        <linearGradient id="paint50_linear_2164_296839" x1="63.7037" y1="303.043" x2="63.7037"
            y2="292.767" gradientUnits="userSpaceOnUse">
            <stop stop-color="#860057" />
            <stop offset="0.03" stop-color="#880456" />
            <stop offset="0.23" stop-color="#951B55" />
            <stop offset="0.45" stop-color="#9D2C54" />
            <stop offset="0.69" stop-color="#A33554" />
            <stop offset="0.99" stop-color="#A53954" />
        </linearGradient>
        <linearGradient id="paint51_linear_2164_296839" x1="57.2339" y1="298.571" x2="70.1735"
            y2="298.571" gradientUnits="userSpaceOnUse">
            <stop stop-color="#F49F57" />
            <stop offset="0.1" stop-color="#F69656" />
            <stop offset="0.35" stop-color="#FB8555" />
            <stop offset="0.63" stop-color="#FE7C54" />
            <stop offset="0.99" stop-color="#FF7954" />
        </linearGradient>
        <linearGradient id="paint52_linear_2164_296839" x1="322.61" y1="206.784" x2="335.252"
            y2="206.784" gradientUnits="userSpaceOnUse">
            <stop stop-color="#860057" />
            <stop offset="0.21" stop-color="#89094C" />
            <stop offset="0.55" stop-color="#8D1343" />
            <stop offset="0.99" stop-color="#8F1640" />
        </linearGradient>
        <linearGradient id="paint53_linear_2164_296839" x1="322.61" y1="206.789" x2="335.252"
            y2="206.789" gradientUnits="userSpaceOnUse">
            <stop stop-color="#C75357" />
            <stop offset="0.13" stop-color="#D25856" />
            <stop offset="0.37" stop-color="#E35F54" />
            <stop offset="0.65" stop-color="#EC6354" />
            <stop offset="0.99" stop-color="#F06554" />
        </linearGradient>
        <radialGradient id="paint54_radial_2164_296839" cx="0" cy="0" r="1"
            gradientUnits="userSpaceOnUse"
            gradientTransform="translate(220 220) rotate(90) scale(200)">
            <stop stop-color="white" stop-opacity="0.3" />
            <stop offset="0.784" stop-color="white" />
            <stop offset="1" stop-color="white" stop-opacity="0" />
        </radialGradient>
    </defs>
</svg>
    