<svg width="440" height="440" viewBox="0 0 440 440" fill="none" xmlns="http://www.w3.org/2000/svg">
    <circle cx="220" cy="220" r="160" fill="url(#paint0_radial_2164_295230)" />
    <path
        d="M217.939 396.446C315.141 396.446 393.939 317.648 393.939 220.446C393.939 123.243 315.141 44.4456 217.939 44.4456C120.737 44.4456 41.9387 123.243 41.9387 220.446C41.9387 317.648 120.737 396.446 217.939 396.446Z"
        fill="url(#paint1_radial_2164_295230)" />
    <path fill-rule="evenodd" clip-rule="evenodd"
        d="M369.133 225.821C371.673 267.646 353.357 299.109 347.966 307.726C319.795 352.887 267.497 378.406 217.939 377.015C145.048 374.96 66.7449 314.376 66.7449 225.821C66.7449 142.325 134.443 74.6268 217.939 74.6268C310.206 74.6268 365.155 160.222 369.133 225.821Z"
        fill="url(#paint2_radial_2164_295230)" />
    <path style="mix-blend-mode:multiply" opacity="0.74" fill-rule="evenodd" clip-rule="evenodd"
        d="M81.1505 184.526C69.595 224.628 86.3648 231.212 151.08 236.007C215.795 240.801 230.93 158.123 214.978 131.145C199.026 104.19 147.832 136.647 133.89 150.964C119.949 165.282 156.029 190.978 170.943 195.22C185.857 199.462 194.408 181.654 199.401 177.964C204.417 174.274 199.622 202.931 167.276 207.482C134.929 212.034 92.021 196.148 127.549 147.164C163.078 98.18 223.042 118.595 233.228 126.793C243.414 134.99 221.209 147.915 226.887 168.286C232.587 188.658 350.485 170.076 355.655 157.195C360.803 144.314 301.191 52.8196 188.111 82.78C91.2919 108.41 81.1726 184.504 81.1726 184.504L81.1505 184.526Z"
        fill="url(#paint3_linear_2164_295230)" />
    <path style="mix-blend-mode:multiply" opacity="0.5" fill-rule="evenodd" clip-rule="evenodd"
        d="M98.0528 144.645C65.6399 192.193 78.7199 226.55 98.0528 244.292C117.386 262.056 147.92 206.267 228.522 211.393C309.123 216.519 245.822 178.096 165.662 202.732C85.503 227.367 145.623 190.801 178.234 185.609C210.846 180.416 227.704 159.426 214.116 136.227C200.528 113.028 149.379 124.185 133.581 158.852C129.692 167.38 108.106 161.989 131.482 138.481C154.858 114.972 197.788 110.001 236.675 120.562C275.583 131.123 270.789 102.378 264.779 83.487C258.791 64.6181 149.71 68.8382 98.0528 144.623V144.645Z"
        fill="url(#paint4_linear_2164_295230)" />
    <path style="mix-blend-mode:screen" opacity="0.84" fill-rule="evenodd" clip-rule="evenodd"
        d="M238.133 254.08C277.572 202.113 319.773 216.232 336.83 261.636C353.909 307.019 273.418 363.868 185.592 349.595C97.7658 335.344 202.804 308.565 226.445 300.611C250.109 292.635 240.519 319.524 242 326.462C243.48 333.4 193.458 335.499 193.458 328.76C193.458 322.021 211.73 309.405 222.512 309.405C233.294 309.405 217.121 313.912 221.916 317.668C226.71 321.402 226.953 313.89 229.826 309.405C232.698 304.92 194.364 309.427 177.284 328.76C160.205 348.07 244.452 347.098 272.247 323.811C316.879 286.382 262.747 308.985 231.483 292.392C192.198 271.535 238.089 254.102 238.089 254.102L238.133 254.08Z"
        fill="url(#paint5_linear_2164_295230)" />
    <path style="mix-blend-mode:screen" fill-rule="evenodd" clip-rule="evenodd"
        d="M220.259 335.233C236.012 348.336 293.745 344.116 320.9 302.511C348.054 260.907 329.605 268.066 322.8 260.863C315.995 253.682 321.298 220.496 303.091 248.733C295.535 260.465 310.073 224.164 265.707 217.049C221.341 209.935 152.384 213.138 123.197 247.341C94.0096 281.543 124.567 303.594 176.997 310.399C229.428 317.204 236.1 308.433 236.653 283.311C237.205 258.189 212.238 255.494 197.015 265.967C181.792 276.462 195.756 292.326 197.015 297.871C198.274 303.417 207.046 298.623 208.946 297.871C210.846 297.12 205.234 292.038 208.946 289.034C212.658 286.029 218.933 299.97 216.834 305.737C214.735 311.504 169.507 308.344 147.633 301.318C125.76 294.292 128.919 261.481 166.591 241.707C204.262 221.932 237.912 229.091 256.14 249.771C274.368 270.452 268.911 272.573 268.602 286.36C268.292 300.147 298.695 305.582 306.428 264.663C308.151 255.538 319.95 262.63 325.407 274.142C330.865 285.653 311.289 321.469 286.962 330.815C262.636 340.161 238.42 345.044 235.128 335.764C231.836 326.484 220.259 335.233 220.259 335.233Z"
        fill="url(#paint6_linear_2164_295230)" />
    <path style="mix-blend-mode:screen" opacity="0.5" fill-rule="evenodd" clip-rule="evenodd"
        d="M111.884 257.77C109.012 223.722 100.461 206.466 207.576 201.075C314.691 195.684 354.329 224.539 351.302 264.663C348.275 304.787 374.789 235.189 362.637 181.83C350.485 128.449 262.415 115.878 228.544 123.964C194.695 132.051 215.221 139.21 210.647 143.43C206.074 147.628 184.509 130.858 134.774 156.929C85.0393 183.001 109.167 257.77 109.167 257.77H111.906H111.884Z"
        fill="url(#paint7_linear_2164_295230)" />
    <path style="mix-blend-mode:screen"
        d="M332.667 255.532C334.753 217.872 304.324 185.563 264.702 183.369C225.08 181.174 191.269 209.925 189.183 247.586C187.098 285.246 217.527 317.555 257.149 319.749C296.771 321.944 330.581 293.193 332.667 255.532Z"
        fill="url(#paint8_radial_2164_295230)" />
    <path style="mix-blend-mode:multiply" opacity="0.5" fill-rule="evenodd" clip-rule="evenodd"
        d="M176.003 86.3812C143.435 95.5726 128.787 123.346 128.168 135.255C127.549 147.164 145.534 112.674 203.356 116.364C261.178 120.053 308.262 154.565 325.385 162.321C342.508 170.076 316.923 46.5666 176.003 86.3812Z"
        fill="url(#paint9_linear_2164_295230)" />
    <g style="mix-blend-mode:soft-light" opacity="0.8">
        <path fill-rule="evenodd" clip-rule="evenodd"
            d="M127.262 174.406C121.385 171.556 114.558 184.658 119.463 189.364C124.346 194.071 135.901 178.582 127.262 174.406Z"
            fill="#EBFBFC" />
    </g>
    <path style="mix-blend-mode:screen" fill-rule="evenodd" clip-rule="evenodd"
        d="M69.9045 194.844C69.9045 194.844 94.8936 106.443 178.213 85.0999C178.213 85.0999 96.6833 87.8175 69.9045 194.844Z"
        fill="url(#paint10_linear_2164_295230)" />
    <path style="mix-blend-mode:multiply" opacity="0.74" fill-rule="evenodd" clip-rule="evenodd"
        d="M165.663 339.608C147.656 340.558 170.546 371.712 223.573 371.115C276.6 370.519 296.53 353.793 297.435 351.827C298.341 349.86 254.594 381.301 165.663 339.63V339.608Z"
        fill="url(#paint11_linear_2164_295230)" />
    <path style="mix-blend-mode:screen" opacity="0.5" fill-rule="evenodd" clip-rule="evenodd"
        d="M142.508 355.362C142.508 355.362 168.513 375.004 214.094 376.948C259.676 378.893 295.27 356.423 295.27 356.423C295.27 356.423 233.759 392.238 150.174 353.285L142.508 355.362Z"
        fill="url(#paint12_linear_2164_295230)" />
    <path fill-rule="evenodd" clip-rule="evenodd"
        d="M61.641 183.134C61.5968 183.311 61.5526 183.443 61.5305 183.598C61.5526 183.532 61.5747 183.355 61.641 183.134Z"
        fill="url(#paint13_radial_2164_295230)" />
    <path fill-rule="evenodd" clip-rule="evenodd"
        d="M379.915 225.821C379.915 273.324 359.477 316.055 326.865 345.662C326.534 345.949 326.269 346.215 326.026 346.413C325.849 346.59 325.672 346.745 325.495 346.855C318.469 353.108 310.913 358.764 302.893 363.714C302.893 363.714 291.646 364.553 282.101 362.741C279.251 362.189 276.556 361.438 274.346 360.311C264.757 355.516 280.93 323.148 287.537 322.551C289.79 322.33 291.359 324.407 292.707 327.103V327.147C295.005 331.743 296.728 338.261 300.33 339.233H300.352C300.816 339.365 301.346 339.409 301.92 339.299C306.892 338.482 328.478 333.024 341.028 311.526C341.028 311.526 346.132 310.244 348.253 304.743C350.219 299.705 348.673 293.475 348.385 292.414C348.385 292.348 348.363 292.326 348.363 292.326V292.282C349.623 286.25 350.286 279.489 350.153 271.91C349.8 253.108 322.38 203.13 303.091 205.891C303.091 205.891 303.084 205.891 303.069 205.891C302.141 206.002 301.258 206.267 300.396 206.643C300.352 206.665 300.33 206.665 300.33 206.665C296.551 208.3 293.193 212.365 290.542 219.502C278.323 252.467 256.251 265.702 250.506 269.966C248.628 271.336 248.518 271.778 251.014 271.623C273.816 270.275 257.599 318.353 253.401 325.534C249.203 332.737 265.994 338.725 240.21 352.49C236.476 354.478 232.035 356.334 226.975 357.991C225.031 358.632 222.998 359.251 220.877 359.803C190.563 367.978 144.407 368.641 110.448 346.922C100.063 337.73 90.85 327.169 83.0948 315.591C83.0948 315.591 83.0948 315.569 83.0727 315.547L80.3108 311.261C64.8446 286.449 55.9404 257.151 55.9404 225.777C55.9404 211.216 57.8627 197.076 61.4862 183.664L68.0704 192.392C68.1809 192.59 68.3355 192.767 68.4681 192.944C69.3298 194.027 69.8822 194.822 69.8822 194.822C69.8822 194.822 64.0271 241.375 77.2176 245.573C77.8583 245.794 78.4991 245.949 79.1398 246.104C79.7806 246.236 80.3992 246.369 80.9958 246.457H81.0179C81.6365 246.523 82.2331 246.59 82.8296 246.656C83.7355 246.722 84.6414 246.722 85.5031 246.7C85.8345 246.7 86.1217 246.678 86.4311 246.656C87.0718 246.612 87.6684 246.546 88.2649 246.457C89.0382 246.347 89.8116 246.214 90.5186 246.082C90.6953 246.037 90.8721 245.993 91.0489 245.993C91.0489 245.993 91.0636 245.986 91.0931 245.971C91.2256 245.949 91.3803 245.927 91.5128 245.883C91.5349 245.883 91.557 245.861 91.557 245.861C91.6233 245.861 91.6675 245.839 91.7559 245.839C92.0431 245.772 92.3083 245.728 92.5071 245.64C92.5292 245.64 92.5513 245.618 92.5513 245.618C92.6397 245.595 92.7502 245.573 92.8385 245.573C92.9269 245.551 93.0374 245.507 93.1258 245.485C93.192 245.463 93.2583 245.463 93.3246 245.441C93.4351 245.419 93.5235 245.397 93.5235 245.397C97.611 244.336 100.019 243.497 100.019 246.501C100.019 249.329 98.539 253.616 99.5111 257.77C99.7983 259.007 100.284 260.222 101.102 261.349C102.516 264.509 104.482 268.662 105.079 269.104C105.742 269.612 107.333 268.463 108.327 267.624C108.349 267.602 108.371 267.602 108.371 267.58C108.614 267.292 108.835 267.072 109.122 266.917H109.144C109.144 266.917 109.166 266.895 109.189 266.917C111.42 267.712 114.094 268.441 117.342 268.95C127.417 270.585 149.29 269.215 171.341 264.111L171.893 263.978C173.683 263.581 175.451 263.117 177.24 262.653L178.19 262.41C189.856 259.272 201.235 255.096 210.669 249.771H210.692C212.879 248.534 214.912 247.231 216.834 245.883C226.622 238.989 233.162 230.439 233.604 220.12C235.415 180.593 228.809 164.398 229.428 159.006C229.516 158.211 229.825 157.283 230.334 156.311V156.267C233.051 150.765 240.807 143.43 240.807 143.43C240.807 143.43 235.791 137.928 236.785 134.702C236.785 134.702 236.785 134.68 236.807 134.658C236.852 134.371 237.006 134.106 237.205 133.841C237.492 133.487 238.133 132.979 238.995 132.316C238.995 132.316 239.017 132.316 239.039 132.294C244.253 128.317 257.046 119.104 244.806 108.388L245.314 102.378L237.514 103.438H237.492C237.492 103.438 237.139 103.24 236.653 103.041C234.576 101.892 232.168 100.765 229.45 99.6823C190.254 83.6416 166.966 83.5753 166.546 83.5753V72.1744C182.698 66.7391 199.953 63.8226 217.939 63.8226C249.446 63.8226 278.831 72.8152 303.666 88.3698C303.688 88.3919 303.71 88.414 303.732 88.414H303.754L303.798 88.4361C349.534 117.093 379.915 167.889 379.915 225.799V225.821Z"
        fill="url(#paint14_radial_2164_295230)" />
    <g style="mix-blend-mode:multiply" opacity="0.8">
        <path fill-rule="evenodd" clip-rule="evenodd"
            d="M240.829 143.408C262.99 129.643 284.709 135.409 327.705 153.593C370.701 171.799 332.19 195.684 305.235 200.633C278.279 205.582 267.497 206.466 255.345 223.545C243.193 240.624 216.149 246.325 216.149 246.325L210.625 249.771C210.625 249.771 237.139 244.226 256.693 224.893C276.247 205.56 292.641 201.075 314.669 201.76C336.698 202.445 366.349 219.502 371.519 223.788C376.689 228.052 378.744 245.551 378.744 245.551L379.937 231.654C379.937 231.654 374.656 228.273 370.856 217.049C367.034 205.825 356.914 210.089 337.383 205.361C317.829 200.633 328.854 197.053 347.038 179.532C365.244 162.011 368.779 166.607 368.779 166.607L367.652 163.823C367.652 163.823 360.847 165.436 348.165 176.947C348.165 176.947 346.928 162.785 345.58 157.858C344.232 152.908 304.351 138.812 278.5 135.807C252.672 132.802 240.829 143.43 240.829 143.43V143.408Z"
            fill="#B3DBE0" />
    </g>
    <g style="mix-blend-mode:multiply" opacity="0.8">
        <path fill-rule="evenodd" clip-rule="evenodd"
            d="M303.732 88.4139C302.362 87.972 277.219 79.797 262.68 86.801C247.7 93.9818 244.806 108.388 244.806 108.388L245.314 102.378L237.515 103.438C237.515 103.438 233.339 98.7763 234.377 95.5726C235.416 92.391 241.713 88.2813 262.393 83.9729C282.035 79.8633 301.744 87.5743 303.688 88.3697C303.71 88.3918 303.732 88.4139 303.754 88.4139H303.732Z"
            fill="#B3DBE0" />
    </g>
    <path fill-rule="evenodd" clip-rule="evenodd"
        d="M109.145 266.917C109.145 266.917 108.769 267.27 108.393 267.58C108.636 267.293 108.857 267.072 109.145 266.917Z"
        fill="#D2F0F6" />
    <g style="mix-blend-mode:multiply" opacity="0.8">
        <path fill-rule="evenodd" clip-rule="evenodd"
            d="M226.975 358.035L220.877 359.847C220.877 359.847 149.445 364.509 165.928 337.863C165.928 337.863 154.903 340.647 130.643 319.524C106.383 298.402 87.4917 299.948 83.6914 301.318C80.0237 302.622 82.896 314.641 83.0948 315.591L80.333 311.305C80.333 311.305 80.09 301.318 81.4377 297.054C82.7634 292.79 111.089 304.345 116.458 307.328C121.871 310.311 104.637 281.566 101.5 272.131C98.3402 262.697 99.5112 257.792 99.5112 257.792C99.5112 257.792 100.196 259.383 101.102 261.371C102.516 264.531 104.482 268.684 105.079 269.126C105.742 269.634 107.333 268.486 108.327 267.646C104.394 272.75 107.598 296.259 133.846 319.613C165.641 347.916 205.742 323.214 218.624 299.529C231.505 275.865 197.656 278.274 183.581 277.368C169.485 276.462 171.363 264.133 171.363 264.133L171.915 264L177.262 262.675L178.212 262.432C178.212 262.432 171.761 274.805 183.14 276.616C194.518 278.428 250.506 270.032 250.506 270.032L251.014 271.689C251.014 271.689 216.834 275.666 210.647 276.926C204.483 278.185 216.723 279.467 220.921 285.918C225.097 292.348 218.071 317.823 182.41 333.09C146.772 348.358 182.278 365.57 226.997 358.057L226.975 358.035Z"
            fill="#B3DBE0" />
    </g>
    <g style="mix-blend-mode:multiply" opacity="0.8">
        <path fill-rule="evenodd" clip-rule="evenodd"
            d="M256.14 319.303C256.14 319.303 250.263 325.888 224.479 335.455C198.716 345.044 179.693 344.734 179.693 344.734C179.693 344.734 193.767 346.347 209.388 346.347C225.009 346.347 221.518 338.813 231.173 334.438C240.829 330.063 248.12 330.24 250.992 327.478C253.843 324.717 256.14 319.303 256.14 319.303Z"
            fill="#D2F0F6" />
    </g>
    <g style="mix-blend-mode:multiply" opacity="0.8">
        <path fill-rule="evenodd" clip-rule="evenodd"
            d="M349.49 318.265C342.729 330.152 331.019 341.729 326.865 345.662C326.534 345.949 326.269 346.215 326.026 346.413C325.694 346.723 325.473 346.944 325.385 347.01C325.429 346.966 325.451 346.922 325.495 346.877C342.751 327.743 341.006 311.592 341.006 311.592C341.006 311.592 346.11 310.311 348.231 304.809C350.264 299.573 348.518 293.033 348.341 292.392C349.026 293.232 357.422 304.279 349.446 318.287L349.49 318.265Z"
            fill="#D2F0F6" />
    </g>
    <g style="mix-blend-mode:soft-light">
        <path fill-rule="evenodd" clip-rule="evenodd"
            d="M166.547 83.5751V72.1743C166.547 72.1743 206.074 75.7757 219.839 82.7797C233.626 89.7837 237.493 103.438 237.493 103.438C237.493 103.438 204.152 87.0882 166.524 83.553L166.547 83.5751Z"
            fill="#D7F2F7" />
    </g>
    <g style="mix-blend-mode:soft-light">
        <path fill-rule="evenodd" clip-rule="evenodd"
            d="M257.002 116.607C257.135 124.318 240.122 131.83 239.039 132.294C244.253 128.317 257.046 119.104 244.806 108.388C244.806 108.388 248.142 100.434 250.086 100.434C252.031 100.434 256.825 108.653 256.98 116.607H257.002Z"
            fill="#D7F2F7" />
    </g>
    <g style="mix-blend-mode:soft-light">
        <path fill-rule="evenodd" clip-rule="evenodd"
            d="M248.96 139.254L240.829 143.43C240.829 143.43 235.813 137.928 236.808 134.702C236.808 134.702 236.808 134.68 236.83 134.658C237.205 134.459 241.293 132.427 244.718 133.995C248.297 135.652 248.96 139.254 248.96 139.254Z"
            fill="#D7F2F7" />
    </g>
    <g style="mix-blend-mode:soft-light">
        <path fill-rule="evenodd" clip-rule="evenodd"
            d="M226.136 243.364C224.214 244.027 216.834 245.883 216.834 245.883C226.622 238.989 233.162 230.439 233.604 220.12C235.416 180.593 228.809 164.398 229.428 159.006C229.516 158.211 229.826 157.283 230.334 156.311V156.267C230.334 156.267 238.664 199.307 240.696 217.292C242.707 235.277 228.058 242.701 226.136 243.386V243.364Z"
            fill="#D7F2F7" />
    </g>
    <g style="mix-blend-mode:soft-light">
        <path fill-rule="evenodd" clip-rule="evenodd"
            d="M213.409 252.467C211.023 254.853 180.091 275.666 177.263 274.053C174.434 272.418 177.263 262.652 177.263 262.652L178.213 262.409C189.879 259.272 201.257 255.096 210.692 249.771H211.31C211.31 249.771 215.818 250.081 213.432 252.467H213.409Z"
            fill="#D7F2F7" />
    </g>
    <g style="mix-blend-mode:soft-light">
        <path fill-rule="evenodd" clip-rule="evenodd"
            d="M171.385 264.111C171.385 264.111 168.778 276.727 156.029 278.075C143.281 279.422 110.492 279.577 108.769 277.036C107.045 274.495 109.144 266.917 109.144 266.917H109.211C111.442 267.712 114.116 268.441 117.364 268.95C127.439 270.585 149.312 269.215 171.363 264.111H171.385Z"
            fill="#D7F2F7" />
    </g>
    <g style="mix-blend-mode:soft-light">
        <path fill-rule="evenodd" clip-rule="evenodd"
            d="M93.5235 245.375C93.5235 245.375 68.6449 252.776 63.4748 238.857C58.3046 224.915 60.2931 188.503 61.6409 186.934C62.6131 185.829 66.3913 190.27 68.4903 192.966C69.352 194.049 69.9043 194.844 69.9043 194.844C69.9043 194.844 64.0492 241.397 77.2398 245.595C83.8019 247.672 89.4802 246.435 93.5014 245.375H93.5235Z"
            fill="#D7F2F7" />
    </g>
    <g style="mix-blend-mode:soft-light">
        <path fill-rule="evenodd" clip-rule="evenodd"
            d="M355.125 289.321C355.125 289.321 353.843 296.656 352.915 298.159C352.031 299.551 348.828 293.254 348.408 292.436C348.408 292.37 348.386 292.348 348.386 292.348V292.304C349.645 286.272 350.308 279.511 350.175 271.932C349.822 253.13 322.402 203.152 303.114 205.913C307.29 204.919 315.31 203.66 321.253 206.687C329.649 210.973 354.948 254.853 356.318 267.911C357.666 280.925 355.125 289.321 355.125 289.321Z"
            fill="#D7F2F7" />
    </g>
    <g style="mix-blend-mode:soft-light">
        <path fill-rule="evenodd" clip-rule="evenodd"
            d="M292.707 327.169C292.707 327.169 266.79 350.28 282.101 362.741C279.251 362.189 276.556 361.438 274.346 360.311C264.757 355.516 280.93 323.148 287.537 322.551C289.79 322.33 291.359 324.407 292.707 327.103V327.147V327.169Z"
            fill="#D7F2F7" />
    </g>
    <g style="mix-blend-mode:soft-light">
        <path fill-rule="evenodd" clip-rule="evenodd"
            d="M338.554 325.821C334.135 332.582 321.276 340.845 313.631 341.751C306.317 342.613 300.86 339.674 300.33 339.277C300.794 339.409 301.324 339.454 301.899 339.343C306.87 338.526 328.456 333.068 341.006 311.57C341.006 311.57 342.95 319.06 338.532 325.821H338.554Z"
            fill="#D7F2F7" />
    </g>
    <g style="mix-blend-mode:soft-light">
        <path fill-rule="evenodd" clip-rule="evenodd"
            d="M248.959 139.254C248.959 139.254 279.516 140.226 285.902 140.226C292.287 140.226 314.757 148.291 314.757 148.291C314.757 148.291 292.088 138.768 279.494 136.514C266.922 134.26 248.959 139.254 248.959 139.254Z"
            fill="#D7F2F7" />
    </g>
    <g style="mix-blend-mode:soft-light">
        <path fill-rule="evenodd" clip-rule="evenodd"
            d="M260.957 220.894C260.957 220.894 271.916 211.791 275.915 209.868C284.333 205.803 295.425 203.814 299.313 202.886C303.202 201.959 304.042 201.914 304.042 201.914C304.042 201.914 292.265 202.29 280.025 207.836C267.784 213.381 260.957 220.894 260.957 220.894Z"
            fill="#D7F2F7" />
    </g>
    <g style="mix-blend-mode:soft-light">
        <path fill-rule="evenodd" clip-rule="evenodd"
            d="M248.959 98.9309C248.959 98.9309 260.294 88.1046 269.839 86.0498C279.384 83.9949 289.349 84.9892 289.349 84.9892C289.349 84.9892 279.936 81.7855 267.033 85.2102C254.13 88.6348 248.982 98.9088 248.982 98.9088L248.959 98.9309Z"
            fill="#D7F2F7" />
    </g>
    <g style="mix-blend-mode:soft-light">
        <path fill-rule="evenodd" clip-rule="evenodd"
            d="M208.946 277.589C208.946 277.589 218.358 275.622 229.737 274.23C241.116 272.838 248.12 271.999 248.12 271.999C248.12 271.999 241.028 275.512 233.096 276.572C225.164 277.611 208.946 277.611 208.946 277.611V277.589Z"
            fill="#D7F2F7" />
    </g>
    <g style="mix-blend-mode:soft-light">
        <path fill-rule="evenodd" clip-rule="evenodd"
            d="M118.446 310.399C118.446 310.399 131.416 321.535 140.519 329.842C149.622 338.15 158.371 339.387 162.194 339.166C166.016 338.945 166.569 337.598 166.569 337.598C166.569 337.598 164.448 337.575 154.991 335.697C145.534 333.819 127.527 315.326 118.424 310.399H118.446Z"
            fill="#D7F2F7" />
    </g>
    <g style="mix-blend-mode:soft-light">
        <path fill-rule="evenodd" clip-rule="evenodd"
            d="M173.771 337.664C173.771 337.664 187.802 333.113 192.309 329.732C196.794 326.352 198.893 324.451 207.532 317.933C216.171 311.416 220.259 298.822 220.259 298.822C220.259 298.822 217.983 309.339 202.76 320.872C187.536 332.405 173.771 337.686 173.771 337.686V337.664Z"
            fill="#D7F2F7" />
    </g>
    <g style="mix-blend-mode:soft-light">
        <path fill-rule="evenodd" clip-rule="evenodd"
            d="M335.748 206.046C335.748 206.046 361.289 216.762 365.664 220.894C370.039 225.025 375.076 229.665 375.076 229.665C375.076 229.665 373.309 224.407 367.299 220.894C361.289 217.38 343.017 209.957 335.748 206.046Z"
            fill="#D7F2F7" />
    </g>
    <g style="mix-blend-mode:soft-light">
        <path fill-rule="evenodd" clip-rule="evenodd"
            d="M330.268 194.689C330.268 194.689 337.802 188.636 346.22 182.118C354.639 175.6 359.809 168.971 359.809 168.971C359.809 168.971 354.351 174.075 348.496 178.118C342.641 182.162 330.268 194.689 330.268 194.689Z"
            fill="#D7F2F7" />
    </g>
    <g style="mix-blend-mode:multiply" opacity="0.3">
        <path fill-rule="evenodd" clip-rule="evenodd"
            d="M286.565 144.468C274.435 144.777 257.974 181.543 256.98 197.716C255.986 213.889 290.586 203.417 317.343 192.502C344.099 181.587 342.95 169.855 336.675 160.641C330.378 151.428 295.115 144.247 286.565 144.468Z"
            fill="#D2F0F6" />
    </g>
    <g style="mix-blend-mode:multiply" opacity="0.3">
        <path fill-rule="evenodd" clip-rule="evenodd"
            d="M306.848 91.7062C299.291 87.3314 293.171 119.037 291.47 129.046C289.768 139.055 327.263 142.745 338.929 152.422C350.617 162.078 353.975 153.77 354.218 149.948C354.439 146.125 330.842 105.582 306.87 91.7062H306.848Z"
            fill="#D2F0F6" />
    </g>
    <g style="mix-blend-mode:multiply" opacity="0.3">
        <path fill-rule="evenodd" clip-rule="evenodd"
            d="M187.249 337.664C181.217 335.013 213.763 322.198 223.882 305.362C234.001 288.503 224.788 286.935 230.842 284.239C236.918 281.544 254.439 284.46 258.04 294.8C261.642 305.141 245.955 327.103 220.259 335.234C194.562 343.364 187.249 337.664 187.249 337.664Z"
            fill="#D2F0F6" />
    </g>
    <g style="mix-blend-mode:multiply" opacity="0.3">
        <path fill-rule="evenodd" clip-rule="evenodd"
            d="M123.219 303.55C121.65 292.326 185.769 299.948 195.049 307.151C204.328 314.332 180.201 333.444 159.123 330.527C138.044 327.589 123.219 303.572 123.219 303.572V303.55Z"
            fill="#D2F0F6" />
    </g>
    <g style="mix-blend-mode:multiply" opacity="0.3">
        <path fill-rule="evenodd" clip-rule="evenodd"
            d="M85.9228 317.27C79.4049 305.98 124.743 318.751 142.507 332.847C160.294 346.944 173.771 360.178 173.771 360.178C173.771 360.178 116.701 370.541 85.9228 317.293V317.27Z"
            fill="#D2F0F6" />
    </g>
    <g style="mix-blend-mode:soft-light">
        <path fill-rule="evenodd" clip-rule="evenodd"
            d="M372.447 177.058C369.486 169.413 374.06 199.219 372.447 208.145C370.834 217.071 379.871 229.665 379.871 229.665C379.871 229.665 379.694 195.838 372.447 177.058Z"
            fill="#D6F3F7" />
    </g>
    <g style="mix-blend-mode:soft-light">
        <path fill-rule="evenodd" clip-rule="evenodd"
            d="M378.722 245.573C378.722 245.573 375.805 228.516 369.132 225.821C362.438 223.125 360.604 259.869 360.029 277.611C359.455 295.331 360.029 303.66 360.029 303.66C360.029 303.66 378.103 274.341 378.722 245.573Z"
            fill="#D6F3F7" />
    </g>
    <g style="mix-blend-mode:soft-light">
        <path fill-rule="evenodd" clip-rule="evenodd"
            d="M335.748 114.64C335.748 114.64 354.683 142.833 355.412 153.925C356.163 165.016 366.857 161.967 366.857 161.967C366.857 161.967 357.356 137.862 335.748 114.64Z"
            fill="#D6F3F7" />
    </g>
    <g style="mix-blend-mode:soft-light">
        <path fill-rule="evenodd" clip-rule="evenodd"
            d="M253.091 138.414C253.091 138.414 264.625 141.132 270.458 139.895C276.291 138.657 280.201 137.309 280.201 137.309C280.201 137.309 270.767 134.305 253.091 138.436V138.414Z"
            fill="#D7F2F7" />
    </g>
    <g style="mix-blend-mode:multiply" opacity="0.3">
        <path fill-rule="evenodd" clip-rule="evenodd"
            d="M207.863 274.142C203.975 271.049 240.343 243.408 258.549 229.665C276.755 215.922 289.326 214.464 289.326 214.464C289.326 214.464 272.336 246.523 258.549 260.266C244.761 274.009 207.863 274.164 207.863 274.164V274.142Z"
            fill="#D2F0F6" />
    </g>
    <g style="mix-blend-mode:soft-light">
        <path fill-rule="evenodd" clip-rule="evenodd"
            d="M340.409 185.609C340.409 185.609 344.674 183.487 347.612 181.013C350.551 178.538 353.18 175.268 353.18 175.268C353.18 175.268 344.63 181.256 340.409 185.609Z"
            fill="#D7F2F7" />
    </g>
    <g style="mix-blend-mode:soft-light">
        <path fill-rule="evenodd" clip-rule="evenodd"
            d="M190.276 66.1866C190.276 66.1866 223.352 76.0408 240.895 80.4377C258.438 84.8345 290.63 82.7797 290.63 82.7797C290.63 82.7797 253.953 57.7464 190.276 66.1645V66.1866Z"
            fill="#D6F3F7" />
    </g>
    <g style="mix-blend-mode:soft-light">
        <path fill-rule="evenodd" clip-rule="evenodd"
            d="M56.4929 239.078C56.4929 239.078 72.0034 269.635 75.8258 280.859C79.6481 292.083 77.7922 305.804 77.7922 305.804C77.7922 305.804 59.4094 282.229 56.515 239.078H56.4929Z"
            fill="#D6F3F7" />
    </g>
    <path fill-rule="evenodd" clip-rule="evenodd"
        d="M124.898 144.37C116.193 140.15 106.095 159.549 113.342 166.509C120.589 173.491 137.669 150.557 124.898 144.37Z"
        fill="white" />
    <g style="mix-blend-mode:screen">
        <path
            d="M264.404 366.686C332.592 366.686 387.869 314.149 387.869 249.342C387.869 184.534 332.592 131.997 264.404 131.997C196.216 131.997 140.939 184.534 140.939 249.342C140.939 314.149 196.216 366.686 264.404 366.686Z"
            fill="url(#paint15_radial_2164_295230)" />
    </g>
    <path fill-rule="evenodd" clip-rule="evenodd"
        d="M203.246 207.185C203.246 214.344 197.457 220.133 190.298 220.133C183.14 220.133 177.351 214.344 177.351 207.185C177.351 200.027 183.14 194.238 190.298 194.238C197.457 194.238 203.246 200.027 203.246 207.185Z"
        fill="url(#paint16_radial_2164_295230)" />
    <path fill-rule="evenodd" clip-rule="evenodd"
        d="M195.645 207.185C195.645 210.146 193.259 212.532 190.298 212.532C187.338 212.532 184.951 210.146 184.951 207.185C184.951 204.224 187.338 201.838 190.298 201.838C193.259 201.838 195.645 204.224 195.645 207.185Z"
        fill="url(#paint17_radial_2164_295230)" />
    <path fill-rule="evenodd" clip-rule="evenodd"
        d="M193.126 207.185C193.126 208.754 191.867 210.013 190.298 210.013C188.73 210.013 187.47 208.754 187.47 207.185C187.47 205.617 188.73 204.357 190.298 204.357C191.867 204.357 193.126 205.617 193.126 207.185Z"
        fill="url(#paint18_radial_2164_295230)" style="mix-blend-mode:screen" />
    <path style="mix-blend-mode:screen" fill-rule="evenodd" clip-rule="evenodd"
        d="M202.053 161.648C202.053 165.934 198.584 169.403 194.297 169.403C190.011 169.403 186.542 165.934 186.542 161.648C186.542 157.362 190.011 153.893 194.297 153.893C198.584 153.893 202.053 157.362 202.053 161.648Z"
        fill="url(#paint19_radial_2164_295230)" />
    <path style="mix-blend-mode:screen" fill-rule="evenodd" clip-rule="evenodd"
        d="M197.501 161.648C197.501 163.416 196.065 164.852 194.297 164.852C192.53 164.852 191.094 163.416 191.094 161.648C191.094 159.881 192.53 158.444 194.297 158.444C196.065 158.444 197.501 159.881 197.501 161.648Z"
        fill="url(#paint20_radial_2164_295230)" />
    <path
        d="M194.297 163.349C195.237 163.349 195.999 162.588 195.999 161.648C195.999 160.708 195.237 159.947 194.297 159.947C193.358 159.947 192.596 160.708 192.596 161.648C192.596 162.588 193.358 163.349 194.297 163.349Z"
        fill="url(#paint21_radial_2164_295230)" style="mix-blend-mode:screen" />
    <path fill-rule="evenodd" clip-rule="evenodd"
        d="M145.203 254.203C145.203 257.208 142.75 259.66 139.745 259.66C136.741 259.66 134.288 257.208 134.288 254.203C134.288 251.198 136.741 248.745 139.745 248.745C142.75 248.745 145.203 251.198 145.203 254.203Z"
        fill="url(#paint22_radial_2164_295230)" />
    <path
        d="M139.746 256.456C140.99 256.456 141.999 255.447 141.999 254.203C141.999 252.958 140.99 251.949 139.746 251.949C138.501 251.949 137.492 252.958 137.492 254.203C137.492 255.447 138.501 256.456 139.746 256.456Z"
        fill="url(#paint23_radial_2164_295230)" />
    <path style="mix-blend-mode:screen" fill-rule="evenodd" clip-rule="evenodd"
        d="M140.939 254.203C140.939 254.865 140.408 255.396 139.746 255.396C139.083 255.396 138.552 254.865 138.552 254.203C138.552 253.54 139.083 253.009 139.746 253.009C140.408 253.009 140.939 253.54 140.939 254.203Z"
        fill="url(#paint24_radial_2164_295230)" />
    <path fill-rule="evenodd" clip-rule="evenodd"
        d="M176.025 229.987C176.025 232.417 174.059 234.384 171.628 234.384C169.198 234.384 167.231 232.417 167.231 229.987C167.231 227.556 169.198 225.59 171.628 225.59C174.059 225.59 176.025 227.556 176.025 229.987Z"
        fill="url(#paint25_radial_2164_295230)" />
    <path style="mix-blend-mode:screen" fill-rule="evenodd" clip-rule="evenodd"
        d="M173.462 229.987C173.462 230.981 172.645 231.799 171.65 231.799C170.656 231.799 169.839 230.981 169.839 229.987C169.839 228.993 170.656 228.175 171.65 228.175C172.645 228.175 173.462 228.993 173.462 229.987Z"
        fill="url(#paint26_radial_2164_295230)" />
    <path style="mix-blend-mode:screen" fill-rule="evenodd" clip-rule="evenodd"
        d="M172.6 229.987C172.6 230.517 172.181 230.959 171.628 230.959C171.076 230.959 170.656 230.539 170.656 229.987C170.656 229.435 171.098 229.015 171.628 229.015C172.158 229.015 172.6 229.435 172.6 229.987Z"
        fill="url(#paint27_radial_2164_295230)" />
    <path
        d="M178.235 166.288C179.455 166.288 180.444 165.299 180.444 164.078C180.444 162.858 179.455 161.869 178.235 161.869C177.014 161.869 176.025 162.858 176.025 164.078C176.025 165.299 177.014 166.288 178.235 166.288Z"
        fill="url(#paint28_radial_2164_295230)" />
    <path style="mix-blend-mode:screen" fill-rule="evenodd" clip-rule="evenodd"
        d="M179.14 164.078C179.14 164.587 178.743 164.984 178.234 164.984C177.726 164.984 177.329 164.587 177.329 164.078C177.329 163.57 177.726 163.173 178.234 163.173C178.743 163.173 179.14 163.57 179.14 164.078Z"
        fill="url(#paint29_radial_2164_295230)" />
    <path fill-rule="evenodd" clip-rule="evenodd"
        d="M178.698 164.078C178.698 164.344 178.478 164.565 178.212 164.565C177.947 164.565 177.726 164.344 177.726 164.078C177.726 163.813 177.947 163.592 178.212 163.592C178.478 163.592 178.698 163.813 178.698 164.078Z"
        fill="url(#paint30_radial_2164_295230)" style="mix-blend-mode:screen" />
    <path fill-rule="evenodd" clip-rule="evenodd"
        d="M110.537 228.175C110.537 230.164 108.924 231.776 106.935 231.776C104.947 231.776 103.334 230.164 103.334 228.175C103.334 226.187 104.947 224.574 106.935 224.574C108.924 224.574 110.537 226.187 110.537 228.175Z"
        fill="url(#paint31_radial_2164_295230)" />
    <path style="mix-blend-mode:screen" fill-rule="evenodd" clip-rule="evenodd"
        d="M108.416 228.175C108.416 228.993 107.753 229.678 106.913 229.678C106.073 229.678 105.411 229.015 105.411 228.175C105.411 227.336 106.073 226.673 106.913 226.673C107.753 226.673 108.416 227.336 108.416 228.175Z"
        fill="url(#paint32_radial_2164_295230)" />
    <path style="mix-blend-mode:screen" fill-rule="evenodd" clip-rule="evenodd"
        d="M107.708 228.175C107.708 228.617 107.355 228.97 106.913 228.97C106.471 228.97 106.117 228.617 106.117 228.175C106.117 227.733 106.471 227.38 106.913 227.38C107.355 227.38 107.708 227.733 107.708 228.175Z"
        fill="url(#paint33_radial_2164_295230)" />
    <circle cx="220" cy="220" r="200" fill="url(#paint34_radial_2164_295230)" fill-opacity="0.1" />
    <defs>
        <radialGradient id="paint0_radial_2164_295230" cx="0" cy="0" r="1"
            gradientUnits="userSpaceOnUse"
            gradientTransform="translate(220 220) rotate(90) scale(160)">
            <stop stop-color="white" />
            <stop offset="1" stop-color="white" stop-opacity="0" />
        </radialGradient>
        <radialGradient id="paint1_radial_2164_295230" cx="0" cy="0" r="1"
            gradientUnits="userSpaceOnUse"
            gradientTransform="translate(217.939 220.451) rotate(45) scale(176)">
            <stop stop-color="#A2F9FF" />
            <stop offset="1" stop-color="#A1F9FF" stop-opacity="0" />
        </radialGradient>
        <radialGradient id="paint2_radial_2164_295230" cx="0" cy="0" r="1"
            gradientUnits="userSpaceOnUse"
            gradientTransform="translate(211.575 257.681) scale(151.282 151.282)">
            <stop stop-color="#D7F1F7" />
            <stop offset="1" stop-color="#D5F0F7" />
        </radialGradient>
        <linearGradient id="paint3_linear_2164_295230" x1="216.856" y1="236.205" x2="216.856"
            y2="76.7924" gradientUnits="userSpaceOnUse">
            <stop stop-color="#D8F3F7" />
            <stop offset="0.77" stop-color="#D4F1F7" />
            <stop offset="1" stop-color="#D2F0F7" />
        </linearGradient>
        <linearGradient id="paint4_linear_2164_295230" x1="78.3443" y1="160.929" x2="268.8"
            y2="160.929" gradientUnits="userSpaceOnUse">
            <stop stop-color="#D8F0F7" />
            <stop offset="1" stop-color="#D8F3F7" />
        </linearGradient>
        <linearGradient id="paint5_linear_2164_295230" x1="151.169" y1="286.36" x2="339.15"
            y2="286.36" gradientUnits="userSpaceOnUse">
            <stop stop-color="#D2F0F6" />
            <stop offset="0.99" stop-color="#D2F2F7" />
        </linearGradient>
        <linearGradient id="paint6_linear_2164_295230" x1="111.884" y1="277.898" x2="335.261"
            y2="277.898" gradientUnits="userSpaceOnUse">
            <stop stop-color="#D2F0F6" />
            <stop offset="0.99" stop-color="#D2F2F7" />
        </linearGradient>
        <linearGradient id="paint7_linear_2164_295230" x1="103.289" y1="199.152" x2="365.84"
            y2="199.152" gradientUnits="userSpaceOnUse">
            <stop stop-color="#D2F0F6" />
            <stop offset="0.99" stop-color="#D2F2F7" />
        </linearGradient>
        <radialGradient id="paint8_radial_2164_295230" cx="0" cy="0" r="1"
            gradientUnits="userSpaceOnUse"
            gradientTransform="translate(261.523 251.186) rotate(3.17) scale(71.9367 68.2341)">
            <stop offset="0.01" stop-color="#D2F4F7" />
            <stop offset="1" stop-color="#D2F0F6" />
        </radialGradient>
        <linearGradient id="paint9_linear_2164_295230" x1="229.118" y1="162.696" x2="229.118"
            y2="78.4713" gradientUnits="userSpaceOnUse">
            <stop stop-color="#D8F3F7" />
            <stop offset="0.77" stop-color="#D4F1F7" />
            <stop offset="1" stop-color="#D2F0F7" />
        </linearGradient>
        <linearGradient id="paint10_linear_2164_295230" x1="124.081" y1="194.844" x2="124.081"
            y2="85.0778" gradientUnits="userSpaceOnUse">
            <stop stop-color="#D2F0F6" />
            <stop offset="0.99" stop-color="#D2F4F7" />
        </linearGradient>
        <linearGradient id="paint11_linear_2164_295230" x1="159.587" y1="355.362" x2="297.457"
            y2="355.362" gradientUnits="userSpaceOnUse">
            <stop stop-color="#D2F0F7" />
            <stop offset="1" stop-color="#D8F3F7" />
        </linearGradient>
        <linearGradient id="paint12_linear_2164_295230" x1="142.508" y1="365.194" x2="295.27"
            y2="365.194" gradientUnits="userSpaceOnUse">
            <stop offset="0.01" stop-color="#D2F4F7" />
            <stop offset="1" stop-color="#D2F0F6" />
        </linearGradient>
        <radialGradient id="paint13_radial_2164_295230" cx="0" cy="0" r="1"
            gradientUnits="userSpaceOnUse"
            gradientTransform="translate(61.5747 183.333) scale(0.176758)">
            <stop stop-color="#D3F0F6" />
            <stop offset="1" stop-color="#D2F0F6" />
        </radialGradient>
        <radialGradient id="paint14_radial_2164_295230" cx="0" cy="0" r="1"
            gradientUnits="userSpaceOnUse"
            gradientTransform="translate(191.756 187.663) scale(156.342 156.342)">
            <stop stop-color="#D3F0F6" />
            <stop offset="1" stop-color="#D2F0F6" />
        </radialGradient>
        <radialGradient id="paint15_radial_2164_295230" cx="0" cy="0" r="1"
            gradientUnits="userSpaceOnUse"
            gradientTransform="translate(264.966 248.933) scale(123.591 117.229)">
            <stop offset="0.01" stop-color="#8EB0D9" />
            <stop offset="1" stop-color="white" stop-opacity="0" />
        </radialGradient>
        <radialGradient id="paint16_radial_2164_295230" cx="0" cy="0" r="1"
            gradientUnits="userSpaceOnUse"
            gradientTransform="translate(190.298 207.185) scale(12.9475)">
            <stop stop-color="white" />
            <stop offset="1" stop-color="white" stop-opacity="0" />
        </radialGradient>
        <radialGradient id="paint17_radial_2164_295230" cx="0" cy="0" r="1"
            gradientUnits="userSpaceOnUse"
            gradientTransform="translate(190.298 207.185) scale(5.34691 5.34692)">
            <stop offset="0.59" stop-color="white" />
            <stop offset="1" stop-color="white" stop-opacity="0" />
        </radialGradient>
        <radialGradient id="paint18_radial_2164_295230" cx="0" cy="0" r="1"
            gradientUnits="userSpaceOnUse"
            gradientTransform="translate(190.298 207.185) scale(2.82812)">
            <stop offset="0.84" stop-color="white" />
            <stop offset="1" stop-color="white" stop-opacity="0" />
        </radialGradient>
        <radialGradient id="paint19_radial_2164_295230" cx="0" cy="0" r="1"
            gradientUnits="userSpaceOnUse"
            gradientTransform="translate(194.297 161.648) scale(7.75523)">
            <stop stop-color="#0086FF" />
            <stop offset="1" stop-color="#0086FF" stop-opacity="0" />
        </radialGradient>
        <radialGradient id="paint20_radial_2164_295230" cx="0" cy="0" r="1"
            gradientUnits="userSpaceOnUse"
            gradientTransform="translate(194.297 161.648) scale(3.20374)">
            <stop offset="0.59" stop-color="#5793FF" />
            <stop offset="1" stop-color="#5793FF" stop-opacity="0" />
        </radialGradient>
        <radialGradient id="paint21_radial_2164_295230" cx="0" cy="0" r="1"
            gradientUnits="userSpaceOnUse"
            gradientTransform="translate(194.297 161.648) scale(1.70129 1.70129)">
            <stop offset="0.84" stop-color="white" />
            <stop offset="1" stop-color="white" stop-opacity="0" />
        </radialGradient>
        <radialGradient id="paint22_radial_2164_295230" cx="0" cy="0" r="1"
            gradientUnits="userSpaceOnUse"
            gradientTransform="translate(139.745 254.203) scale(5.45738 5.45739)">
            <stop stop-color="white" />
            <stop offset="1" stop-color="white" stop-opacity="0" />
        </radialGradient>
        <radialGradient id="paint23_radial_2164_295230" cx="0" cy="0" r="1"
            gradientUnits="userSpaceOnUse"
            gradientTransform="translate(139.746 254.203) scale(2.25365 2.25366)">
            <stop offset="0.59" stop-color="white" />
            <stop offset="1" stop-color="white" stop-opacity="0" />
        </radialGradient>
        <radialGradient id="paint24_radial_2164_295230" cx="0" cy="0" r="1"
            gradientUnits="userSpaceOnUse"
            gradientTransform="translate(139.746 254.203) scale(1.19312)">
            <stop offset="0.59" stop-color="#FFFFA2" />
            <stop offset="1" stop-color="#FFFFA2" stop-opacity="0" />
        </radialGradient>
        <radialGradient id="paint25_radial_2164_295230" cx="0" cy="0" r="1"
            gradientUnits="userSpaceOnUse"
            gradientTransform="translate(171.628 229.987) scale(4.39684 4.39684)">
            <stop stop-color="white" />
            <stop offset="1" stop-color="white" stop-opacity="0" />
        </radialGradient>
        <radialGradient id="paint26_radial_2164_295230" cx="0" cy="0" r="1"
            gradientUnits="userSpaceOnUse"
            gradientTransform="translate(171.628 229.987) scale(1.81176)">
            <stop offset="0.59" stop-color="#5793FF" />
            <stop offset="1" stop-color="#5793FF" stop-opacity="0" />
        </radialGradient>
        <radialGradient id="paint27_radial_2164_295230" cx="0" cy="0" r="1"
            gradientUnits="userSpaceOnUse"
            gradientTransform="translate(171.628 229.987) scale(0.972168 0.97216)">
            <stop offset="0.59" stop-color="#FFFFA2" />
            <stop offset="1" stop-color="#FFFFA2" stop-opacity="0" />
        </radialGradient>
        <radialGradient id="paint28_radial_2164_295230" cx="0" cy="0" r="1"
            gradientUnits="userSpaceOnUse"
            gradientTransform="translate(178.235 164.078) scale(2.20947 2.20947)">
            <stop stop-color="white" />
            <stop offset="1" stop-color="white" stop-opacity="0" />
        </radialGradient>
        <radialGradient id="paint29_radial_2164_295230" cx="0" cy="0" r="1"
            gradientUnits="userSpaceOnUse"
            gradientTransform="translate(178.234 164.078) scale(0.905884 0.905876)">
            <stop offset="0.59" stop-color="#5793FF" />
            <stop offset="1" stop-color="#5793FF" stop-opacity="0" />
        </radialGradient>
        <radialGradient id="paint30_radial_2164_295230" cx="0" cy="0" r="1"
            gradientUnits="userSpaceOnUse"
            gradientTransform="translate(178.234 164.078) scale(0.486076 0.486084)">
            <stop offset="0.59" stop-color="#FFFFA2" />
            <stop offset="1" stop-color="#FFFFA2" stop-opacity="0" />
        </radialGradient>
        <radialGradient id="paint31_radial_2164_295230" cx="0" cy="0" r="1"
            gradientUnits="userSpaceOnUse"
            gradientTransform="translate(106.935 228.175) scale(3.60144 3.60143)">
            <stop stop-color="white" />
            <stop offset="1" stop-color="white" stop-opacity="0" />
        </radialGradient>
        <radialGradient id="paint32_radial_2164_295230" cx="0" cy="0" r="1"
            gradientUnits="userSpaceOnUse"
            gradientTransform="translate(106.935 228.175) scale(1.50244 1.50244)">
            <stop offset="0.59" stop-color="#5793FF" />
            <stop offset="1" stop-color="#5793FF" stop-opacity="0" />
        </radialGradient>
        <radialGradient id="paint33_radial_2164_295230" cx="0" cy="0" r="1"
            gradientUnits="userSpaceOnUse"
            gradientTransform="translate(106.935 228.175) scale(0.795406 0.795403)">
            <stop offset="0.59" stop-color="#FFFFA2" />
            <stop offset="1" stop-color="#FFFFA2" stop-opacity="0" />
        </radialGradient>
        <radialGradient id="paint34_radial_2164_295230" cx="0" cy="0" r="1"
            gradientUnits="userSpaceOnUse"
            gradientTransform="translate(220 220) rotate(90) scale(200)">
            <stop stop-color="white" stop-opacity="0.3" />
            <stop offset="0.784" stop-color="white" />
            <stop offset="1" stop-color="white" stop-opacity="0" />
        </radialGradient>
    </defs>
</svg>
    