<svg width="440" height="440" viewBox="0 0 440 440" fill="none" xmlns="http://www.w3.org/2000/svg">
    <circle cx="220" cy="220" r="160" fill="url(#paint0_radial_2164_296707)" />
    <path
        d="M291.132 289.554C330.184 250.502 330.184 187.185 291.132 148.133C252.08 109.08 188.763 109.08 149.711 148.133C110.658 187.185 110.658 250.502 149.711 289.554C188.763 328.606 252.08 328.606 291.132 289.554Z"
        fill="url(#paint1_radial_2164_296707)" style="mix-blend-mode:screen" />
    <path fill-rule="evenodd" clip-rule="evenodd"
        d="M215.099 48.9314C309.616 48.9314 386.199 125.514 386.199 220.031C386.199 314.548 309.616 391.13 215.099 391.13C120.582 391.13 44 314.495 44 219.978C44 125.46 120.635 48.9314 215.099 48.9314Z"
        fill="url(#paint2_radial_2164_296707)" />
    <path style="mix-blend-mode:screen" fill-rule="evenodd" clip-rule="evenodd"
        d="M215.099 48.9314C309.616 48.9314 386.199 125.514 386.199 220.031C386.199 314.548 309.616 391.13 215.099 391.13C120.582 391.13 44 314.495 44 219.978C44 125.46 120.635 48.9314 215.099 48.9314Z"
        fill="url(#paint3_radial_2164_296707)" />
    <path style="mix-blend-mode:screen" fill-rule="evenodd" clip-rule="evenodd"
        d="M87.6927 159.468C84.5527 157.286 84.606 153.88 78.1664 153.72C72.0462 153.614 67.7355 159.734 65.5003 166.28C58.4222 186.875 59.3269 214.869 67.8952 234.773C71.1415 242.33 75.9845 249.089 80.8806 255.688C87.5862 264.735 101.264 277.295 113.876 272.984C119.252 271.121 123.403 266.704 128.618 264.416C132.29 262.819 136.282 262.127 140.167 261.542C145.648 260.744 151.289 260.797 156.824 260.265C172.471 258.881 168.107 255.102 178.857 251.058C182.423 249.727 186.467 249.993 190.139 248.823C193.013 247.918 195.834 246.641 198.388 244.991C207.276 239.243 194.237 238.871 190.618 239.296C188.703 239.509 186.999 240.467 185.243 241.212C181.731 242.649 178.431 244.778 174.759 245.789C171.619 246.641 168.32 247.119 165.073 246.747C160.603 246.268 156.452 244.139 152.088 243.234C149.533 242.702 148.15 243.022 145.595 242.436C143.307 241.904 140.859 241.478 138.943 240.041C128.671 232.484 139.315 220.457 152.886 221.468C157.623 221.84 162.199 222 164.435 220.51C165.02 220.137 165.126 219.073 164.754 218.434C164.381 217.743 163.849 217.157 163.264 216.572C160.337 213.591 157.463 210.185 159.059 205.555C159.592 204.065 160.656 202.841 162.519 202.096C165.552 200.925 169.011 202.096 172.205 201.457C173.854 201.138 175.717 200.659 176.781 199.382C178.644 197.306 178.91 194.166 180.613 191.931C187.212 183.257 204.721 186.024 215.046 184.002C219.463 183.15 224.146 181.979 227.712 179.265C231.012 176.764 232.183 165.535 235.961 162.129C239.58 158.829 244.529 157.499 248.947 155.476C259.484 150.686 267.307 151.538 273.374 139.936C275.396 135.998 275.13 131.155 277.206 127.27C278.749 124.343 285.614 121.416 286.892 118.382C295.566 97.8931 264.114 61.0123 240.272 64.3119C226.435 66.2278 231.491 69.1548 238.888 73.0398C255.439 81.6613 265.232 89.3249 263.901 109.495C263.316 118.755 252.991 117.052 250.596 118.223C249.745 118.649 249.532 119.819 249.479 120.777C249.319 124.928 250.969 129.239 249.958 133.284C248.947 137.328 246.711 141.16 243.784 144.087C241.283 146.589 237.664 147.919 234.258 148.824C230.692 149.835 226.861 149.995 223.135 149.782C218.718 149.516 214.088 149.196 210.15 147.227C201.103 142.863 198.442 132.379 201.582 123.119C202.539 120.245 205.041 118.17 206.478 115.509C208.074 112.688 204.828 110.4 211.48 106.089C216.802 102.63 222.816 96.882 205.041 102.204C197.909 104.333 190.139 105.344 193.013 112.848C193.705 114.604 194.557 116.36 194.769 118.223C196.951 139.989 182.423 135.519 164.807 138.819C161.454 139.457 158.048 139.617 154.802 140.735C151.875 141.746 149.533 144.141 146.553 144.992C140.486 146.748 131.652 145.152 125.638 147.068C124.254 147.493 122.924 148.93 122.764 150.42C122.604 152.389 127.98 156.115 122.87 160.745C119.305 163.991 112.067 164.204 107.277 164.257C100.306 164.364 92.8549 162.874 87.6927 159.308V159.468ZM107.969 230.355C152.088 228.759 134.046 259.945 112.546 252.069C109.14 250.845 105.84 249.142 103.02 246.853C95.782 240.946 100.625 230.622 107.916 230.355H107.969Z"
        fill="url(#paint4_radial_2164_296707)" />
    <path fill-rule="evenodd" clip-rule="evenodd"
        d="M49.6412 263.617C48.7365 268.194 47.0867 272.665 46.9802 277.295C46.9802 278.838 48.4171 280.062 49.3751 281.233C51.2378 283.574 52.994 286.129 55.4953 287.832C58.9545 290.227 64.8086 289.162 68.4807 290.12C70.1305 290.546 71.3546 292.036 73.0044 292.568C75.2396 293.367 77.6876 293.314 79.9228 294.059C80.934 294.378 86.9478 296.932 83.1692 298.635C81.9984 299.168 80.6147 298.476 79.3374 298.795C78.4327 299.008 77.4748 299.434 76.7829 300.126C75.346 301.669 74.6542 303.798 73.2172 305.341C71.8868 306.778 68.8001 305.394 67.6825 304.277C65.394 301.935 63.5314 299.274 61.8816 296.241C61.0301 298.316 60.764 300.392 60.4447 302.52C60.0721 305.181 59.806 307.842 59.9125 310.503C59.9125 311.142 60.285 311.781 60.764 312.153C64.5958 315.133 78.5392 322.744 82.4241 323.968C85.6705 324.979 88.9169 325.777 92.2697 326.416C101.21 328.172 99.5607 325.777 107.597 322.85C112.014 321.254 116.538 319.763 121.168 318.752C130.854 316.623 140.859 315.878 150.491 313.377C157.57 311.514 164.222 308.268 171.087 305.767C176.143 303.957 181.092 301.616 186.414 300.445C188.596 299.966 190.991 300.179 193.067 300.924C194.663 301.509 196.047 302.733 196.952 304.17C197.697 305.394 197.963 306.938 197.803 308.375C197.643 309.705 197.005 311.035 196.047 311.94C194.131 313.696 191.47 314.495 189.448 316.145C187.638 317.635 186.042 319.444 184.711 321.36C183.647 322.903 183.54 325.085 182.316 326.522C181.146 327.906 179.443 328.757 177.793 329.449C173.322 331.365 168.533 332.589 164.009 334.345C162.412 334.984 160.922 335.729 159.485 336.634C155.547 339.188 152.141 342.701 147.884 344.723C144.637 346.267 140.965 346.692 137.399 347.118C130.694 347.916 123.882 347.757 117.123 348.289C112.227 348.715 107.171 350.737 102.328 348.608C100.785 352.866 100.04 360.529 101.583 366.224C102.488 369.47 106.107 371.439 109.034 373.142C111.854 374.739 115.26 375.165 118.453 375.75C124.308 376.814 130.375 376.814 136.229 377.985C138.89 378.517 141.444 379.582 143.945 380.699C146.766 381.977 149.374 383.733 152.088 385.116C154.749 386.5 157.357 387.99 160.177 389.001C162.625 389.853 165.127 390.492 167.734 390.651C171.406 390.864 175.079 390.385 178.751 390.119C182.476 389.8 186.201 389.374 189.927 388.789C191.523 388.523 193.067 387.937 194.663 387.618C200.464 386.394 206.371 385.595 212.119 384.212C216.43 383.147 220.634 381.71 224.785 380.274C231.331 377.985 237.771 375.431 244.21 372.876C253.524 369.204 262.837 365.585 272.044 361.594C275.077 360.316 278.004 358.773 280.825 357.176C290.085 351.855 299.292 346.479 308.233 340.679C315.045 336.261 321.644 331.525 328.03 326.575C333.884 322.052 339.526 317.262 345.007 312.313C349.744 308.055 354.214 303.532 358.738 299.008C360.228 297.518 361.345 295.655 362.942 294.325C363.208 294.112 363.634 294.591 363.74 294.857C364.911 299.806 347.083 320.508 342.878 324.021C339.632 326.735 336.173 329.236 332.873 331.951C328.35 335.676 324.092 339.667 319.568 343.393C316.269 346.107 312.969 348.874 309.404 351.216C303.283 355.367 296.844 358.986 290.458 363.35C285.881 366.437 280.985 370.268 276.567 373.089C272.948 375.431 269.862 376.282 266.03 377.772C260.548 379.901 255.227 382.349 249.692 384.265C246.552 385.329 243.199 385.808 240.006 386.713C234.844 388.15 230.852 389.64 225.53 390.651C235.695 391.716 241.602 394.749 247.723 391.982C250.224 390.811 252.299 388.735 254.854 387.724C258.845 386.128 263.05 385.063 267.201 384.159C277.738 381.87 293.491 379.316 299.079 375.75C302.432 373.621 304.348 370.268 307.488 367.82C309.776 366.011 312.544 364.893 314.938 363.243C323.241 357.389 332.022 351.855 338.887 344.351C346.763 335.729 351.766 324.872 358.684 315.506C364.432 307.683 372.894 301.19 376.779 291.717C378.695 287.034 378.535 281.712 379.812 276.816C380.93 272.611 382.154 268.407 383.91 264.469C391.148 248.343 393.543 249.301 395.619 228.812C396.097 224.075 395.991 219.179 394.98 214.549C394.182 210.824 391.521 207.684 390.243 204.065C388.86 200.18 388.168 196.082 386.891 192.197C386.039 189.536 385.081 186.929 384.017 184.374C382.899 181.713 381.622 179.212 380.398 176.604C381.356 181.66 382.58 186.662 383.325 191.772C384.655 201.351 385.134 212.154 384.602 221.84C382.899 252.335 371.191 274.793 349.957 296.507C344.954 301.616 340.005 306.884 334.417 311.408C331.915 313.484 328.775 314.708 325.848 316.091C321.804 317.954 317.599 319.391 313.501 321.147C309.35 322.957 305.093 324.5 301.155 326.682C298.6 328.119 296.525 330.194 294.183 332.004C291.682 333.92 289.287 336.048 286.626 337.805C283.433 339.827 280.133 341.69 276.727 343.286C269.915 346.426 262.997 349.247 256.025 351.908C251.608 353.611 245.221 356.91 236.6 358.081C235.802 358.188 234.737 358.188 234.311 357.549C233.992 357.07 234.578 356.219 235.11 355.952C241.123 352.919 245.913 350.152 250.969 346.692C255.546 343.552 259.378 339.348 263.954 336.155C267.573 333.6 271.884 332.163 275.45 329.556C278.111 327.587 280.452 325.085 282.528 322.478C286.36 317.635 289.287 312.153 293.172 307.31C295.567 304.33 298.228 301.456 301.261 299.061C304.082 296.826 307.328 295.017 310.628 293.526C314.938 291.611 319.888 291.291 323.932 288.95C326.753 287.353 329.041 284.745 330.744 281.978C333.512 277.561 334.576 272.186 337.237 267.715C341.282 260.903 346.178 254.57 350.861 248.237C354.587 243.234 358.418 238.285 362.516 233.548C363.687 232.165 365.177 230.994 366.721 230.036C367.359 229.663 368.157 229.504 368.849 229.717C370.18 230.089 370.339 231.952 373.266 231.633C377.897 231.154 379.6 224.554 380.824 220.669C382.048 216.731 383.325 205.768 383.218 201.404C383.218 200.606 383.059 199.541 382.261 199.169C381.888 199.009 381.356 199.595 380.717 199.329C380.185 199.169 379.919 198.477 379.812 197.945C378.801 191.931 378.429 185.758 377.684 179.691C377.311 176.604 377.098 173.464 376.406 170.431C375.981 168.568 375.182 166.812 374.331 165.109C374.065 164.577 373.639 163.938 373.054 163.778C372.681 163.672 372.468 164.31 372.202 164.577C371.83 164.843 371.51 165.215 371.085 165.268C370.446 165.375 369.435 165.534 369.169 164.949C368.849 164.044 368.583 163.14 368.424 162.235C367.253 156.647 366.454 151.219 365.177 145.524C364.964 144.673 364.592 143.821 364.485 142.97C364.485 142.81 364.592 142.491 364.805 142.491C365.071 142.491 365.284 142.81 365.39 143.023C366.188 144.46 366.827 145.95 367.572 147.387C368.211 148.664 368.903 150.101 369.541 151.272C370.127 152.336 370.499 151.431 370.499 151.112C370.499 149.143 370.233 147.121 369.701 145.258C368.636 141.479 367.412 137.807 365.816 134.242C363.74 129.558 361.665 120.99 360.281 119.66C354.108 113.752 344.528 105.663 338.142 97.6269C331.17 88.8458 322.123 71.4964 314.193 66.3873C311.586 64.6843 307.434 67.1324 297.536 62.1298C291.469 59.0431 286.36 55.8499 280.825 51.9117C276.035 48.5057 222.071 46.7495 205.413 49.1976C205.68 51.6456 209.618 52.3907 212.226 52.4439C215.578 52.4971 218.878 51.6988 222.231 51.486C222.763 51.486 223.668 51.2199 223.827 51.6989C223.934 52.231 223.029 52.4971 222.55 52.8164C220.528 54.2534 218.665 55.0517 216.909 57.074C215.365 58.9366 219.144 58.6706 219.996 58.777C224.519 59.0963 232.289 59.3624 234.152 59.4688C237.451 59.6285 240.804 58.9366 244.051 59.3092C247.616 59.7349 251.235 60.5864 254.588 61.8637C256.93 62.7152 258.792 64.5779 261.027 65.6955C264.806 67.5581 268.585 69.5805 272.576 70.8577C274.864 71.6028 277.419 71.1238 279.814 71.5496C281.038 71.7624 282.155 72.5075 283.379 72.88C285.136 73.4655 287.158 73.4655 288.755 74.3702C290.83 75.5942 292.852 77.1908 294.236 79.2131C295.886 81.608 296.525 84.535 297.482 87.3024C298.6 90.602 299.026 94.1677 300.41 97.3608C301.155 99.0638 302.485 100.394 303.762 101.725C306.104 104.173 308.499 106.781 311.319 108.696C313.874 110.453 314.619 107.1 315.151 106.621C315.364 106.408 315.79 106.461 316.109 106.621C316.748 106.94 317.493 107.26 317.865 107.898C318.61 109.282 319.143 110.825 319.675 112.315C320.686 115.083 320.473 115.083 322.602 116.839C324.039 118.063 325.582 119.181 326.966 120.511C327.924 121.469 328.935 122.427 329.574 123.598C330.425 125.194 330.957 126.897 331.33 128.654C331.702 130.41 331.436 132.219 331.702 133.976C331.809 134.721 332.181 135.412 332.554 136.051C333.512 137.488 334.896 138.659 335.747 140.149C336.652 141.799 336.918 143.715 337.716 145.364C338.674 147.28 340.643 148.824 341.122 150.899C342.187 155.263 339.898 163.033 337.716 166.812C336.279 169.313 333.991 171.229 332.075 173.411C329.733 176.125 327.126 178.573 325.103 181.5C323.773 183.469 323.081 185.811 322.07 187.993C320.101 192.357 318.611 196.987 316.216 201.138C314.353 204.384 311.905 207.258 309.404 210.026C306.477 213.272 303.39 216.305 300.037 219.126C295.992 222.532 291.469 225.406 287.371 228.706C283.486 231.845 279.92 235.358 275.929 238.391C271.565 241.691 267.148 244.884 262.464 247.652C258.686 249.834 254.641 251.483 250.65 253.186C247.829 254.41 244.849 255.262 242.028 256.539C239.74 257.55 237.558 258.881 235.376 260.105C231.65 262.127 228.032 264.309 224.253 266.278C220.528 268.247 216.909 270.376 212.971 271.919C210.682 272.824 208.234 273.356 205.733 273.676C204.775 273.782 203.71 273.676 202.965 273.143C202.486 272.824 202.327 271.973 202.646 271.494C203.338 270.376 204.509 269.578 205.68 268.939C209.99 266.491 214.461 264.469 218.931 262.287C223.721 259.945 228.723 257.87 233.46 255.315C236.972 253.399 240.432 251.377 243.678 248.982C247.882 245.895 252.033 242.596 255.706 238.924C261.081 233.548 265.764 227.482 270.926 221.947C273.374 219.339 275.929 216.944 278.537 214.496C281.197 212.048 284.071 209.866 286.626 207.258C289.925 203.959 293.065 200.553 295.992 196.934C298.6 193.687 301.048 190.281 303.283 186.769C305.306 183.629 307.754 180.595 308.818 177.03C310.84 170.111 311.373 162.82 312.384 155.689C312.863 152.23 313.448 148.717 313.395 145.205C313.395 141.905 312.171 138.659 312.224 135.359C312.224 133.709 313.076 132.113 313.555 130.516C313.927 129.346 314.619 128.228 314.725 127.004C314.885 125.673 314.193 118.063 313.768 116.945C312.118 112.528 308.499 111.411 304.401 113.433C302.911 114.178 301.314 117.318 300.835 118.808C300.197 120.937 300.143 123.172 299.558 125.301C298.334 129.824 296.791 129.718 292.32 131.155C288.861 132.273 285.189 132.645 281.783 133.869C280.665 134.242 279.548 134.88 278.909 135.838C278.164 137.009 278.111 138.446 277.951 139.776C277.791 141.373 278.27 143.023 277.898 144.513C276.833 148.77 271.778 151.964 268.691 154.837C267.36 156.115 266.349 157.818 264.753 158.722C262.411 160 259.75 160.479 257.142 161.117C254.056 161.862 250.809 161.969 247.723 162.767C245.7 163.299 243.678 164.098 241.869 165.162C240.591 165.907 239.42 166.865 238.516 168.036C238.09 168.568 238.143 169.419 238.143 170.111C238.143 170.537 238.303 170.963 238.622 171.282C238.995 171.655 239.633 171.548 239.953 171.921C240.857 172.879 239.953 175.486 238.622 176.657C237.824 177.402 236.44 177.243 235.642 177.988C234.418 179.159 233.939 180.915 232.875 182.192C228.883 186.822 222.284 191.452 216.004 191.931C212.811 192.197 209.618 191.612 206.425 191.612C202.433 191.612 198.389 191.665 194.397 191.931C188.277 192.304 184.073 191.984 180.667 197.732C179.815 199.222 179.389 200.978 178.378 202.309C177.793 203.107 176.835 203.639 175.93 203.959C174.706 204.438 173.376 204.597 172.045 204.757C170.236 204.97 168.32 204.544 166.564 205.076C165.659 205.342 165.02 206.194 164.488 206.992C163.956 207.844 163.317 208.908 163.477 209.919C163.636 210.984 164.967 211.569 165.286 212.633C165.552 213.432 164.861 214.336 165.127 215.188C165.393 216.039 165.925 216.944 166.723 217.423C167.468 217.902 168.426 217.796 169.278 217.796C171.619 217.955 174.067 217.53 176.356 217.955C179.176 218.487 179.123 222.319 176.835 222.798C173.588 223.49 170.182 223.543 166.83 223.809C166.031 223.863 165.18 223.49 164.382 223.65C162.412 224.129 160.603 225.459 158.581 225.725C156.186 225.991 153.738 224.767 151.343 225.193C148.948 225.619 146.979 227.322 144.69 228.12C143.094 228.652 141.231 228.439 139.688 229.131C134.579 231.526 134.792 236.901 139.475 237.912C143.413 238.764 147.618 238.072 151.609 238.604C159.166 239.669 160.656 241.265 170.182 240.733C174.334 240.467 178.538 240.094 182.529 238.977C184.285 238.498 185.403 236.688 187.106 236.103C189.182 235.411 191.683 236.103 193.705 235.145C195.461 234.347 196.153 232.112 197.803 231.207C199.559 230.249 201.688 230.249 203.657 229.77C206.744 229.078 209.777 228.333 212.864 227.694C214.993 227.269 219.41 226.63 219.038 230.302C218.878 231.899 218.346 233.495 217.441 234.826C216.057 236.848 214.301 238.658 212.279 240.041C209.99 241.691 207.063 242.33 204.668 243.873C203.072 244.831 202.061 246.694 200.411 247.439C196.047 249.408 191.31 250.472 186.787 252.016C183.807 253.027 180.72 253.878 177.846 255.102C176.888 255.528 176.09 256.22 175.238 256.858C173.269 258.242 171.406 259.839 169.384 261.116C167.681 262.18 165.925 263.298 164.009 263.883C159.645 265.267 155.121 266.172 150.598 267.13C147.83 267.715 145.01 267.928 142.296 268.46C138.89 269.152 135.537 269.95 132.237 270.855C129.629 271.547 127.022 272.398 124.467 273.25C122.551 273.889 120.742 274.846 118.773 275.379C117.176 275.804 115.58 275.964 113.93 276.071C109.513 276.443 105.042 276.656 100.625 276.869C97.3787 277.028 94.1323 277.188 90.886 277.241C88.6508 277.241 86.3624 277.507 84.1272 277.188C79.9228 276.55 75.825 275.272 71.6739 274.261C69.0129 273.622 66.4052 272.877 63.7442 272.186C62.0412 271.76 60.285 271.547 58.6884 271.015C57.1983 270.483 55.6017 269.95 54.4309 268.939C52.4618 267.289 51.0781 265.107 49.4283 263.192L49.6412 263.617ZM96.1547 233.016C95.0371 234.187 94.1323 235.784 93.9195 237.38C93.0147 244.458 104.404 249.301 111.588 251.111C115.154 252.016 117.229 251.696 122.817 248.769C123.669 248.343 124.946 248.343 125.425 247.492C126.49 245.789 126.33 243.607 127.181 241.797C127.873 240.307 129.363 239.19 130.055 237.7C130.375 237.008 130.428 236.05 130.055 235.411C129.417 234.187 128.512 232.91 127.181 232.378C122.445 230.568 100.253 228.706 96.1015 233.016H96.1547Z"
        fill="url(#paint5_radial_2164_296707)" />
    <path style="mix-blend-mode:multiply" fill-rule="evenodd" clip-rule="evenodd"
        d="M49.6412 263.617C48.7365 268.194 47.0867 272.665 46.9802 277.295C46.9802 278.838 48.4171 280.062 49.3751 281.233C51.2378 283.574 52.994 286.129 55.4953 287.832C58.9545 290.227 64.8086 289.162 68.4807 290.12C70.1305 290.546 71.3546 292.036 73.0044 292.568C75.2396 293.367 77.6876 293.314 79.9228 294.059C80.934 294.378 86.9478 296.932 83.1692 298.635C81.9984 299.168 80.6147 298.476 79.3374 298.795C78.4327 299.008 77.4748 299.434 76.7829 300.126C75.346 301.669 74.6542 303.798 73.2172 305.341C71.8868 306.778 68.8001 305.394 67.6825 304.277C65.394 301.935 63.5314 299.274 61.8816 296.241C61.0301 298.316 60.764 300.392 60.4447 302.52C60.0721 305.181 59.806 307.842 59.9125 310.503C59.9125 311.142 60.285 311.781 60.764 312.153C64.5958 315.133 78.5392 322.744 82.4241 323.968C85.6705 324.979 88.9169 325.777 92.2697 326.416C101.21 328.172 99.5607 325.777 107.597 322.85C112.014 321.254 116.538 319.763 121.168 318.752C130.854 316.623 140.859 315.878 150.491 313.377C157.57 311.514 164.222 308.268 171.087 305.767C176.143 303.957 181.092 301.616 186.414 300.445C188.596 299.966 190.991 300.179 193.067 300.924C194.663 301.509 196.047 302.733 196.952 304.17C197.697 305.394 197.963 306.938 197.803 308.375C197.643 309.705 197.005 311.035 196.047 311.94C194.131 313.696 191.47 314.495 189.448 316.145C187.638 317.635 186.042 319.444 184.711 321.36C183.647 322.903 183.54 325.085 182.316 326.522C181.146 327.906 179.443 328.757 177.793 329.449C173.322 331.365 168.533 332.589 164.009 334.345C162.412 334.984 160.922 335.729 159.485 336.634C155.547 339.188 152.141 342.701 147.884 344.723C144.637 346.267 140.965 346.692 137.399 347.118C130.694 347.916 123.882 347.757 117.123 348.289C112.227 348.715 107.171 350.737 102.328 348.608C100.785 352.866 100.04 360.529 101.583 366.224C102.488 369.47 106.107 371.439 109.034 373.142C111.854 374.739 115.26 375.165 118.453 375.75C124.308 376.814 130.375 376.814 136.229 377.985C138.89 378.517 141.444 379.582 143.945 380.699C146.766 381.977 149.374 383.733 152.088 385.116C154.749 386.5 157.357 387.99 160.177 389.001C162.625 389.853 165.127 390.492 167.734 390.651C171.406 390.864 175.079 390.385 178.751 390.119C182.476 389.8 186.201 389.374 189.927 388.789C191.523 388.523 193.067 387.937 194.663 387.618C200.464 386.394 206.371 385.595 212.119 384.212C216.43 383.147 220.634 381.71 224.785 380.274C231.331 377.985 237.771 375.431 244.21 372.876C253.524 369.204 262.837 365.585 272.044 361.594C275.077 360.316 278.004 358.773 280.825 357.176C290.085 351.855 299.292 346.479 308.233 340.679C315.045 336.261 321.644 331.525 328.03 326.575C333.884 322.052 339.526 317.262 345.007 312.313C349.744 308.055 354.214 303.532 358.738 299.008C360.228 297.518 361.345 295.655 362.942 294.325C363.208 294.112 363.634 294.591 363.74 294.857C364.911 299.806 347.083 320.508 342.878 324.021C339.632 326.735 336.173 329.236 332.873 331.951C328.35 335.676 324.092 339.667 319.568 343.393C316.269 346.107 312.969 348.874 309.404 351.216C303.283 355.367 296.844 358.986 290.458 363.35C285.881 366.437 280.985 370.268 276.567 373.089C272.948 375.431 269.862 376.282 266.03 377.772C260.548 379.901 255.227 382.349 249.692 384.265C246.552 385.329 243.199 385.808 240.006 386.713C234.844 388.15 230.852 389.64 225.53 390.651C235.695 391.716 241.602 394.749 247.723 391.982C250.224 390.811 252.299 388.735 254.854 387.724C258.845 386.128 263.05 385.063 267.201 384.159C277.738 381.87 293.491 379.316 299.079 375.75C302.432 373.621 304.348 370.268 307.488 367.82C309.776 366.011 312.544 364.893 314.938 363.243C323.241 357.389 332.022 351.855 338.887 344.351C346.763 335.729 351.766 324.872 358.684 315.506C364.432 307.683 372.894 301.19 376.779 291.717C378.695 287.034 378.535 281.712 379.812 276.816C380.93 272.611 382.154 268.407 383.91 264.469C391.148 248.343 393.543 249.301 395.619 228.812C396.097 224.075 395.991 219.179 394.98 214.549C394.182 210.824 391.521 207.684 390.243 204.065C388.86 200.18 388.168 196.082 386.891 192.197C386.039 189.536 385.081 186.929 384.017 184.374C382.899 181.713 381.622 179.212 380.398 176.604C381.356 181.66 382.58 186.662 383.325 191.772C384.655 201.351 385.134 212.154 384.602 221.84C382.899 252.335 371.191 274.793 349.957 296.507C344.954 301.616 340.005 306.884 334.417 311.408C331.915 313.484 328.775 314.708 325.848 316.091C321.804 317.954 317.599 319.391 313.501 321.147C309.35 322.957 305.093 324.5 301.155 326.682C298.6 328.119 296.525 330.194 294.183 332.004C291.682 333.92 289.287 336.048 286.626 337.805C283.433 339.827 280.133 341.69 276.727 343.286C269.915 346.426 262.997 349.247 256.025 351.908C251.608 353.611 245.221 356.91 236.6 358.081C235.802 358.188 234.737 358.188 234.311 357.549C233.992 357.07 234.578 356.219 235.11 355.952C241.123 352.919 245.913 350.152 250.969 346.692C255.546 343.552 259.378 339.348 263.954 336.155C267.573 333.6 271.884 332.163 275.45 329.556C278.111 327.587 280.452 325.085 282.528 322.478C286.36 317.635 289.287 312.153 293.172 307.31C295.567 304.33 298.228 301.456 301.261 299.061C304.082 296.826 307.328 295.017 310.628 293.526C314.938 291.611 319.888 291.291 323.932 288.95C326.753 287.353 329.041 284.745 330.744 281.978C333.512 277.561 334.576 272.186 337.237 267.715C341.282 260.903 346.178 254.57 350.861 248.237C354.587 243.234 358.418 238.285 362.516 233.548C363.687 232.165 365.177 230.994 366.721 230.036C367.359 229.663 368.157 229.504 368.849 229.717C370.18 230.089 370.339 231.952 373.266 231.633C377.897 231.154 379.6 224.554 380.824 220.669C382.048 216.731 383.325 205.768 383.218 201.404C383.218 200.606 383.059 199.541 382.261 199.169C381.888 199.009 381.356 199.595 380.717 199.329C380.185 199.169 379.919 198.477 379.812 197.945C378.801 191.931 378.429 185.758 377.684 179.691C377.311 176.604 377.098 173.464 376.406 170.431C375.981 168.568 375.182 166.812 374.331 165.109C374.065 164.577 373.639 163.938 373.054 163.778C372.681 163.672 372.468 164.31 372.202 164.577C371.83 164.843 371.51 165.215 371.085 165.268C370.446 165.375 369.435 165.534 369.169 164.949C368.849 164.044 368.583 163.14 368.424 162.235C367.253 156.647 366.454 151.219 365.177 145.524C364.964 144.673 364.592 143.821 364.485 142.97C364.485 142.81 364.592 142.491 364.805 142.491C365.071 142.491 365.284 142.81 365.39 143.023C366.188 144.46 366.827 145.95 367.572 147.387C368.211 148.664 368.903 150.101 369.541 151.272C370.127 152.336 370.499 151.431 370.499 151.112C370.499 149.143 370.233 147.121 369.701 145.258C368.636 141.479 367.412 137.807 365.816 134.242C363.74 129.558 361.665 120.99 360.281 119.66C354.108 113.752 344.528 105.663 338.142 97.6269C331.17 88.8458 322.123 71.4964 314.193 66.3873C311.586 64.6843 307.434 67.1324 297.536 62.1298C291.469 59.0431 286.36 55.8499 280.825 51.9117C276.035 48.5057 222.071 46.7495 205.413 49.1976C205.68 51.6456 209.618 52.3907 212.226 52.4439C215.578 52.4971 218.878 51.6988 222.231 51.486C222.763 51.486 223.668 51.2199 223.827 51.6989C223.934 52.231 223.029 52.4971 222.55 52.8164C220.528 54.2534 218.665 55.0517 216.909 57.074C215.365 58.9366 219.144 58.6706 219.996 58.777C224.519 59.0963 232.289 59.3624 234.152 59.4688C237.451 59.6285 240.804 58.9366 244.051 59.3092C247.616 59.7349 251.235 60.5864 254.588 61.8637C256.93 62.7152 258.792 64.5779 261.027 65.6955C264.806 67.5581 268.585 69.5805 272.576 70.8577C274.864 71.6028 277.419 71.1238 279.814 71.5496C281.038 71.7624 282.155 72.5075 283.379 72.88C285.136 73.4655 287.158 73.4655 288.755 74.3702C290.83 75.5942 292.852 77.1908 294.236 79.2131C295.886 81.608 296.525 84.535 297.482 87.3024C298.6 90.602 299.026 94.1677 300.41 97.3608C301.155 99.0638 302.485 100.394 303.762 101.725C306.104 104.173 308.499 106.781 311.319 108.696C313.874 110.453 314.619 107.1 315.151 106.621C315.364 106.408 315.79 106.461 316.109 106.621C316.748 106.94 317.493 107.26 317.865 107.898C318.61 109.282 319.143 110.825 319.675 112.315C320.686 115.083 320.473 115.083 322.602 116.839C324.039 118.063 325.582 119.181 326.966 120.511C327.924 121.469 328.935 122.427 329.574 123.598C330.425 125.194 330.957 126.897 331.33 128.654C331.702 130.41 331.436 132.219 331.702 133.976C331.809 134.721 332.181 135.412 332.554 136.051C333.512 137.488 334.896 138.659 335.747 140.149C336.652 141.799 336.918 143.715 337.716 145.364C338.674 147.28 340.643 148.824 341.122 150.899C342.187 155.263 339.898 163.033 337.716 166.812C336.279 169.313 333.991 171.229 332.075 173.411C329.733 176.125 327.126 178.573 325.103 181.5C323.773 183.469 323.081 185.811 322.07 187.993C320.101 192.357 318.611 196.987 316.216 201.138C314.353 204.384 311.905 207.258 309.404 210.026C306.477 213.272 303.39 216.305 300.037 219.126C295.992 222.532 291.469 225.406 287.371 228.706C283.486 231.845 279.92 235.358 275.929 238.391C271.565 241.691 267.148 244.884 262.464 247.652C258.686 249.834 254.641 251.483 250.65 253.186C247.829 254.41 244.849 255.262 242.028 256.539C239.74 257.55 237.558 258.881 235.376 260.105C231.65 262.127 228.032 264.309 224.253 266.278C220.528 268.247 216.909 270.376 212.971 271.919C210.682 272.824 208.234 273.356 205.733 273.676C204.775 273.782 203.71 273.676 202.965 273.143C202.486 272.824 202.327 271.973 202.646 271.494C203.338 270.376 204.509 269.578 205.68 268.939C209.99 266.491 214.461 264.469 218.931 262.287C223.721 259.945 228.723 257.87 233.46 255.315C236.972 253.399 240.432 251.377 243.678 248.982C247.882 245.895 252.033 242.596 255.706 238.924C261.081 233.548 265.764 227.482 270.926 221.947C273.374 219.339 275.929 216.944 278.537 214.496C281.197 212.048 284.071 209.866 286.626 207.258C289.925 203.959 293.065 200.553 295.992 196.934C298.6 193.687 301.048 190.281 303.283 186.769C305.306 183.629 307.754 180.595 308.818 177.03C310.84 170.111 311.373 162.82 312.384 155.689C312.863 152.23 313.448 148.717 313.395 145.205C313.395 141.905 312.171 138.659 312.224 135.359C312.224 133.709 313.076 132.113 313.555 130.516C313.927 129.346 314.619 128.228 314.725 127.004C314.885 125.673 314.193 118.063 313.768 116.945C312.118 112.528 308.499 111.411 304.401 113.433C302.911 114.178 301.314 117.318 300.835 118.808C300.197 120.937 300.143 123.172 299.558 125.301C298.334 129.824 296.791 129.718 292.32 131.155C288.861 132.273 285.189 132.645 281.783 133.869C280.665 134.242 279.548 134.88 278.909 135.838C278.164 137.009 278.111 138.446 277.951 139.776C277.791 141.373 278.27 143.023 277.898 144.513C276.833 148.77 271.778 151.964 268.691 154.837C267.36 156.115 266.349 157.818 264.753 158.722C262.411 160 259.75 160.479 257.142 161.117C254.056 161.862 250.809 161.969 247.723 162.767C245.7 163.299 243.678 164.098 241.869 165.162C240.591 165.907 239.42 166.865 238.516 168.036C238.09 168.568 238.143 169.419 238.143 170.111C238.143 170.537 238.303 170.963 238.622 171.282C238.995 171.655 239.633 171.548 239.953 171.921C240.857 172.879 239.953 175.486 238.622 176.657C237.824 177.402 236.44 177.243 235.642 177.988C234.418 179.159 233.939 180.915 232.875 182.192C228.883 186.822 222.284 191.452 216.004 191.931C212.811 192.197 209.618 191.612 206.425 191.612C202.433 191.612 198.389 191.665 194.397 191.931C188.277 192.304 184.073 191.984 180.667 197.732C179.815 199.222 179.389 200.978 178.378 202.309C177.793 203.107 176.835 203.639 175.93 203.959C174.706 204.438 173.376 204.597 172.045 204.757C170.236 204.97 168.32 204.544 166.564 205.076C165.659 205.342 165.02 206.194 164.488 206.992C163.956 207.844 163.317 208.908 163.477 209.919C163.636 210.984 164.967 211.569 165.286 212.633C165.552 213.432 164.861 214.336 165.127 215.188C165.393 216.039 165.925 216.944 166.723 217.423C167.468 217.902 168.426 217.796 169.278 217.796C171.619 217.955 174.067 217.53 176.356 217.955C179.176 218.487 179.123 222.319 176.835 222.798C173.588 223.49 170.182 223.543 166.83 223.809C166.031 223.863 165.18 223.49 164.382 223.65C162.412 224.129 160.603 225.459 158.581 225.725C156.186 225.991 153.738 224.767 151.343 225.193C148.948 225.619 146.979 227.322 144.69 228.12C143.094 228.652 141.231 228.439 139.688 229.131C134.579 231.526 134.792 236.901 139.475 237.912C143.413 238.764 147.618 238.072 151.609 238.604C159.166 239.669 160.656 241.265 170.182 240.733C174.334 240.467 178.538 240.094 182.529 238.977C184.285 238.498 185.403 236.688 187.106 236.103C189.182 235.411 191.683 236.103 193.705 235.145C195.461 234.347 196.153 232.112 197.803 231.207C199.559 230.249 201.688 230.249 203.657 229.77C206.744 229.078 209.777 228.333 212.864 227.694C214.993 227.269 219.41 226.63 219.038 230.302C218.878 231.899 218.346 233.495 217.441 234.826C216.057 236.848 214.301 238.658 212.279 240.041C209.99 241.691 207.063 242.33 204.668 243.873C203.072 244.831 202.061 246.694 200.411 247.439C196.047 249.408 191.31 250.472 186.787 252.016C183.807 253.027 180.72 253.878 177.846 255.102C176.888 255.528 176.09 256.22 175.238 256.858C173.269 258.242 171.406 259.839 169.384 261.116C167.681 262.18 165.925 263.298 164.009 263.883C159.645 265.267 155.121 266.172 150.598 267.13C147.83 267.715 145.01 267.928 142.296 268.46C138.89 269.152 135.537 269.95 132.237 270.855C129.629 271.547 127.022 272.398 124.467 273.25C122.551 273.889 120.742 274.846 118.773 275.379C117.176 275.804 115.58 275.964 113.93 276.071C109.513 276.443 105.042 276.656 100.625 276.869C97.3787 277.028 94.1323 277.188 90.886 277.241C88.6508 277.241 86.3624 277.507 84.1272 277.188C79.9228 276.55 75.825 275.272 71.6739 274.261C69.0129 273.622 66.4052 272.877 63.7442 272.186C62.0412 271.76 60.285 271.547 58.6884 271.015C57.1983 270.483 55.6017 269.95 54.4309 268.939C52.4618 267.289 51.0781 265.107 49.4283 263.192L49.6412 263.617ZM96.1547 233.016C95.0371 234.187 94.1323 235.784 93.9195 237.38C93.0147 244.458 104.404 249.301 111.588 251.111C115.154 252.016 117.229 251.696 122.817 248.769C123.669 248.343 124.946 248.343 125.425 247.492C126.49 245.789 126.33 243.607 127.181 241.797C127.873 240.307 129.363 239.19 130.055 237.7C130.375 237.008 130.428 236.05 130.055 235.411C129.417 234.187 128.512 232.91 127.181 232.378C122.445 230.568 100.253 228.706 96.1015 233.016H96.1547Z"
        fill="url(#paint6_radial_2164_296707)" />
    <path style="mix-blend-mode:multiply" fill-rule="evenodd" clip-rule="evenodd"
        d="M97.9109 296.613C107.49 293.101 123.563 290.812 134.047 290.12C140.646 289.641 153.206 290.599 158.794 289.322C171.885 286.289 179.922 280.328 191.63 275.059C195.94 273.09 201.475 270.749 206.478 268.833C210.629 266.544 214.94 264.575 219.197 262.5C223.987 260.158 228.99 258.082 233.726 255.528C237.238 253.612 240.698 251.59 243.944 249.195C248.148 246.108 252.299 242.809 255.972 239.136C261.347 233.761 266.03 227.694 271.192 222.16C273.64 219.552 276.195 217.157 278.803 214.709C281.464 212.261 284.337 210.079 286.892 207.471C290.191 204.172 293.331 200.765 296.258 197.147C298.866 193.9 301.314 190.494 303.549 186.982C305.572 183.842 308.02 180.808 309.084 177.243C311.107 170.324 311.639 163.033 312.65 155.902C313.129 152.443 313.714 148.93 313.661 145.418C313.661 142.118 312.437 138.872 312.49 135.572C312.49 133.922 313.342 132.326 313.821 130.729C314.193 129.558 314.885 128.441 314.992 127.217C315.151 125.886 314.459 118.276 314.034 117.158C313.076 114.551 311.373 113.06 309.297 112.741C309.829 113.22 310.308 113.752 310.681 114.391C311.16 115.242 311.319 116.307 311.319 117.318C311.319 118.702 311.266 120.085 310.787 121.363C310.149 123.012 309.084 124.449 308.02 125.78C306.53 127.696 304.135 128.973 303.124 131.155C302.325 132.805 302.432 134.827 302.804 136.636C303.23 138.659 304.88 140.255 305.519 142.171C306.21 144.3 306.955 146.588 306.796 148.824C306.53 151.857 305.412 154.731 304.241 157.552C303.283 159.893 301.314 161.703 300.41 164.044C298.973 168.036 299.026 172.506 297.376 176.391C295.354 181.181 292.693 185.758 289.446 189.856C285.668 194.645 281.197 198.956 276.461 202.841C269.542 208.482 261.081 212.208 254.588 218.381C249.745 222.958 247.563 229.823 243.039 234.719C239.633 238.391 235.482 241.318 231.172 243.767C228.404 245.31 224.892 245.097 222.124 246.64C215.525 250.259 209.671 255.209 203.231 259.147C197.803 262.5 192.322 265.746 186.574 268.513C181.039 271.228 175.345 273.835 169.437 275.592C163.583 277.348 157.41 277.88 151.343 278.998C144.637 280.222 137.878 281.02 131.279 282.67C125.798 284 120.635 286.342 115.207 287.832C112.759 288.524 110.258 289.162 107.756 289.162C104.457 289.162 101.264 288.258 98.0173 287.885C96.4208 287.726 94.771 287.3 93.1744 287.566C91.1521 287.938 89.3958 289.162 87.48 289.801C86.4688 290.12 85.4044 290.546 84.2868 290.44C81.2533 290.174 78.1666 289.801 75.2396 288.79C73.2172 288.098 65.8198 283.255 65.3408 283.255C63.4249 283.255 61.6155 284.586 59.6996 284.586C58.6352 284.586 57.5708 284.479 56.5064 284.266C55.5485 284.053 54.6438 283.734 53.8455 283.255C51.6103 282.031 48.7897 277.295 48.3639 276.283C47.885 275.166 47.9914 272.292 48.2043 269.471C47.5656 272.026 46.9802 274.634 46.9802 277.241C46.9802 278.785 48.4171 280.009 49.3751 281.18C51.2378 283.521 52.994 286.076 55.4953 287.779C56.4 288.364 57.4112 288.79 58.5288 289.003C61.7751 289.748 65.7666 289.322 68.4807 290.067C70.1305 290.493 71.3546 291.983 73.0044 292.515C75.2396 293.313 77.6876 293.26 79.9228 294.005C80.934 294.325 86.9478 296.879 83.1692 298.582C81.9984 299.114 80.6147 298.423 79.3374 298.742C78.4327 298.955 77.4748 299.38 76.7829 300.072C76.5168 300.338 76.3039 300.658 76.0911 300.977C77.2087 300.232 78.4327 299.753 80.1889 299.753C82.5306 299.753 85.6173 300.764 87.6396 300.605C92.11 300.285 94.0791 297.89 97.9109 296.507V296.613Z"
        fill="url(#paint7_radial_2164_296707)" />
    <path style="mix-blend-mode:multiply" fill-rule="evenodd" clip-rule="evenodd"
        d="M110.045 246.427C102.807 246.215 96.5274 243.926 94.0261 239.403C95.2502 245.416 105.149 249.461 111.642 251.164C115.207 252.069 117.283 251.749 122.871 248.822C123.722 248.397 125 248.397 125.479 247.545C126.543 245.842 126.383 243.66 127.235 241.851C127.927 240.36 129.417 239.243 130.109 237.753C130.428 237.061 130.481 236.103 130.109 235.464C129.47 234.24 128.565 232.963 127.235 232.431C127.128 232.431 126.969 232.324 126.809 232.271C127.022 232.537 127.182 232.857 127.341 233.176C127.714 234.187 126.969 235.89 126.064 236.422C124.148 237.593 119.784 237.699 118.241 239.775C117.443 240.839 118.241 244.405 116.325 245.15C114.356 246.002 112.174 246.481 110.045 246.427Z"
        fill="url(#paint8_radial_2164_296707)" />
    <path style="mix-blend-mode:multiply" fill-rule="evenodd" clip-rule="evenodd"
        d="M175.398 234.134C175.185 235.145 176.303 236.103 176.196 237.167C176.143 237.7 175.451 238.072 174.919 238.285C171.673 239.403 162.625 240.148 159.592 239.403C157.303 238.817 155.228 237.7 152.939 237.167C152.088 236.955 151.236 237.167 150.385 237.274C147.032 237.806 145.169 238.285 142.242 238.551C145.436 238.817 148.735 238.445 151.875 238.924C159.432 239.988 160.922 241.585 170.449 241.052C174.6 240.786 178.804 240.414 182.795 239.296C184.552 238.817 185.669 237.008 187.372 236.422C189.448 235.731 191.949 236.422 193.971 235.464C195.728 234.666 196.419 232.431 198.069 231.526C199.825 230.568 201.954 230.568 203.923 230.089C207.01 229.398 210.044 228.652 213.13 228.014C214.301 227.801 216.111 227.482 217.494 227.854C212.651 226.151 203.764 227.588 198.868 228.173C195.887 228.546 193.705 228.12 193.013 230.994C192.854 231.739 192.534 232.537 191.843 232.91C190.991 233.389 189.874 233.549 188.916 233.442C185.989 233.176 183.168 232.058 180.294 231.792C178.751 231.633 175.77 232.271 175.398 234.081V234.134Z"
        fill="url(#paint9_radial_2164_296707)" />
    <path style="mix-blend-mode:multiply" fill-rule="evenodd" clip-rule="evenodd"
        d="M177.899 329.609C173.429 331.525 168.639 332.749 164.115 334.505C162.519 335.144 161.029 335.889 159.592 336.794C155.653 339.348 152.247 342.861 147.99 344.883C144.744 346.426 141.071 346.852 137.506 347.278C130.8 348.076 123.988 347.916 117.229 348.449C112.333 348.874 107.277 350.897 102.434 348.768C100.891 353.025 100.146 360.689 101.689 366.383C102.594 369.63 106.213 371.599 109.14 373.302C111.961 374.898 115.367 375.324 118.56 375.91C124.414 376.974 130.481 376.974 136.335 378.145C138.996 378.677 141.55 379.741 144.052 380.859C146.872 382.136 149.48 383.892 152.194 385.276C154.855 386.66 157.463 388.15 160.284 389.161C162.732 390.013 165.233 390.651 167.841 390.811C171.513 391.024 175.185 390.545 178.857 390.279C182.21 390.013 185.509 389.587 188.862 389.108C189.235 389.055 189.66 389.002 190.033 388.948C191.63 388.682 193.173 388.097 194.769 387.777C200.57 386.553 206.478 385.755 212.225 384.371C216.536 383.307 220.74 381.87 224.892 380.433C231.437 378.145 237.877 375.59 244.316 373.036C253.63 369.364 262.943 365.745 272.15 361.753C275.184 360.476 278.111 358.933 280.931 357.336C290.191 352.014 299.398 346.639 308.339 340.838C315.151 336.421 321.75 331.685 328.137 326.735C333.991 322.212 339.632 317.422 345.113 312.472C349.85 308.215 354.32 303.691 358.844 299.168C360.334 297.678 361.452 295.815 363.048 294.484C363.314 294.272 363.74 294.751 363.847 295.017C365.017 299.966 347.189 320.668 342.985 324.181C339.738 326.895 336.279 329.396 332.979 332.11C328.456 335.836 324.198 339.827 319.675 343.552C316.375 346.267 313.076 349.034 309.51 351.376C303.39 355.527 296.95 359.146 290.564 363.51C285.987 366.596 281.091 370.428 276.674 373.249C273.055 375.59 269.968 376.442 266.136 377.932C260.655 380.061 255.333 382.509 249.798 384.425C246.658 385.489 243.305 385.968 240.112 386.873C234.95 388.31 230.958 389.8 225.637 390.811C235.801 391.875 241.709 394.909 247.829 392.141C250.33 390.971 252.406 388.895 254.96 387.884C258.952 386.287 263.156 385.223 267.307 384.318C277.845 382.03 293.597 379.475 299.185 375.91C302.538 373.781 304.454 370.428 307.594 367.98C309.882 366.171 312.65 365.053 315.045 363.403C323.347 357.549 332.128 352.014 338.993 344.51C346.87 335.889 351.872 325.032 358.791 315.666C364.538 307.842 373 301.35 376.885 291.877C378.801 287.193 378.641 281.871 379.919 276.975C381.036 272.771 382.26 268.567 384.017 264.629C391.254 248.503 393.649 249.461 395.725 228.972C396.204 224.235 396.097 219.339 395.086 214.709C394.288 210.984 391.627 207.844 390.35 204.225C388.966 200.34 388.274 196.242 386.997 192.357C386.145 189.696 385.187 187.088 384.123 184.534C383.005 181.873 381.728 179.372 380.504 176.764C381.462 181.82 382.686 186.822 383.431 191.931C384.762 201.511 385.241 212.314 384.708 222C383.005 252.495 371.297 274.953 350.063 296.666C345.06 301.775 340.111 307.044 334.523 311.568C332.022 313.643 328.882 314.867 325.955 316.251C321.91 318.114 317.706 319.551 313.608 321.307C309.457 323.116 305.199 324.66 301.261 326.842C298.706 328.279 296.631 330.354 294.289 332.164C291.788 334.079 289.393 336.208 286.732 337.964C283.539 339.987 280.239 341.849 276.833 343.446C270.021 346.586 263.103 349.407 256.131 352.067C251.714 353.77 245.328 357.07 236.706 358.241C235.908 358.347 234.843 358.347 234.418 357.709C234.098 357.23 234.684 356.378 235.216 356.112C241.23 353.079 246.019 350.311 251.075 346.852C255.652 343.712 259.484 339.508 264.061 336.315C267.68 333.76 271.99 332.323 275.556 329.715C278.217 327.746 280.559 325.245 282.634 322.637C286.466 317.794 289.393 312.313 293.278 307.47C295.673 304.49 298.334 301.616 301.367 299.221C304.188 296.986 307.434 295.176 310.734 293.686C315.045 291.77 319.994 291.451 324.039 289.109C326.859 287.513 329.148 284.905 330.851 282.138C333.618 277.72 334.682 272.345 337.343 267.875C341.388 261.063 346.284 254.73 350.968 248.397C354.693 243.394 358.525 238.445 362.623 233.708C363.793 232.325 365.283 231.154 366.827 230.196C367.465 229.823 368.264 229.664 368.956 229.876C370.286 230.249 370.446 232.112 373.373 231.792C378.003 231.313 379.706 224.714 380.93 220.829C382.154 216.891 383.431 205.928 383.325 201.564C383.325 200.766 383.165 199.701 382.367 199.329C381.994 199.169 381.462 199.754 380.823 199.488C380.291 199.329 380.025 198.637 379.919 198.105C378.908 192.091 378.535 185.917 377.79 179.85C377.417 176.764 377.205 173.624 376.513 170.59C376.087 168.728 375.289 166.971 374.437 165.268C374.171 164.736 373.745 164.098 373.16 163.938C372.787 163.832 372.575 164.47 372.308 164.736C371.936 165.002 371.617 165.375 371.191 165.428C370.552 165.535 369.541 165.694 369.275 165.109C368.956 164.204 368.689 163.299 368.53 162.395C367.359 156.807 366.561 151.378 365.283 145.684C365.071 144.832 364.698 143.981 364.592 143.129C364.592 142.97 364.698 142.65 364.911 142.65C365.177 142.65 365.39 142.97 365.496 143.183C366.295 144.619 366.933 146.11 367.678 147.547C368.317 148.824 369.009 150.261 369.647 151.432C370.233 152.496 370.605 151.591 370.605 151.272C370.605 150.314 370.605 149.303 370.446 148.345C370.286 147.334 370.073 146.376 369.807 145.418C368.743 141.639 367.519 137.967 365.922 134.401C363.847 129.718 361.771 121.15 360.387 119.819C358.631 118.116 356.556 116.254 354.374 114.231C357.194 119.5 359.429 124.237 360.813 130.41C361.292 132.592 361.665 134.987 361.931 137.648C362.889 147.174 361.984 162.501 359.057 171.282C356.822 177.988 351.606 183.31 348.573 189.696C345.858 195.497 345.646 202.575 341.92 207.791C334.842 217.636 305.625 244.405 295.3 251.856C280.026 262.872 247.882 283.149 229.681 287.672C216.217 291.025 202.007 290.12 188.436 293.048C179.017 295.07 170.448 299.966 161.188 302.414C146.979 306.086 136.335 307.204 121.221 311.781C114.143 313.909 112.599 313.377 105.468 312.526C100.678 311.94 95.7288 311.674 93.7597 314.069C92.9082 315.133 94.1322 317.369 92.9614 318.007C91.2584 319.018 88.8635 318.752 86.9476 318.06C82.3708 316.517 78.4858 313.324 74.0154 311.568C72.4188 310.929 71.248 310.982 70.2368 311.302C68.8531 311.727 67.8952 312.685 66.6711 312.739C65.8196 312.792 64.8085 312.419 64.2231 311.781C61.775 309.279 61.1896 304.809 60.7638 300.019C60.6042 300.871 60.4977 301.722 60.3913 302.574C60.0188 305.235 59.7527 307.896 59.8591 310.557C59.8591 311.195 60.2316 311.834 60.7106 312.206C63.5312 314.388 71.9398 319.178 77.6343 321.945C79.6566 322.957 81.3596 323.702 82.3176 324.021C85.5639 325.032 88.8103 325.83 92.1631 326.469C101.104 328.225 99.4541 325.83 107.49 322.903C111.907 321.307 116.431 319.817 121.061 318.806C130.747 316.677 140.752 315.932 150.385 313.43C157.463 311.568 164.115 308.321 170.981 305.82C176.036 304.011 180.986 301.669 186.308 300.498C188.49 300.019 190.885 300.232 192.96 300.977C194.557 301.563 195.94 302.787 196.845 304.224C197.59 305.448 197.856 306.991 197.697 308.428C197.537 309.758 196.898 311.089 195.94 311.994C194.024 313.75 191.363 314.548 189.341 316.198C187.532 317.688 185.935 319.497 184.605 321.413C183.54 322.957 183.434 325.139 182.21 326.576C181.039 327.959 179.336 328.811 177.686 329.503L177.899 329.609Z"
        fill="url(#paint10_radial_2164_296707)" />
    <path style="mix-blend-mode:multiply" fill-rule="evenodd" clip-rule="evenodd"
        d="M142.881 310.557C134.898 312.685 125.744 310.982 117.389 312.739C113.291 313.59 111.109 313.164 105.521 312.473C100.731 311.887 95.782 311.621 93.8129 314.016C92.9614 315.08 94.1854 317.315 93.0146 317.954C91.3116 318.965 88.9167 318.699 87.0008 318.007C82.424 316.464 78.539 313.271 74.0686 311.515C72.472 310.876 71.3012 310.929 70.29 311.248C68.9063 311.674 67.9484 312.632 66.7244 312.685C65.8729 312.739 64.8617 312.366 64.2763 311.727C61.8282 309.226 61.2428 304.756 60.817 299.966C60.6574 300.818 60.5509 301.669 60.4445 302.521C60.072 305.182 59.8059 307.842 59.9123 310.503C59.9123 311.142 60.2849 311.781 60.7638 312.153C63.5844 314.335 71.9931 319.125 77.6875 321.892C79.7098 322.903 81.4128 323.649 82.3708 323.968C85.6171 324.979 88.8635 325.777 92.2163 326.416C101.157 328.172 99.5073 325.777 107.543 322.85C111.961 321.254 116.484 319.764 121.114 318.752C130.8 316.624 140.805 315.879 150.438 313.377C157.516 311.515 164.169 308.268 171.034 305.767C176.09 303.957 181.039 301.616 186.361 300.445C188.543 299.966 190.938 300.179 193.013 300.924C194.61 301.509 195.994 302.733 196.898 304.17C197.643 305.394 197.909 306.938 197.75 308.375C197.59 309.705 196.951 311.036 195.994 311.94C195.355 312.526 194.61 313.058 193.812 313.484C194.982 312.951 196.153 312.366 197.218 311.621C202.007 308.215 201.848 303.957 212.598 298.848C221.219 294.751 204.509 294.91 202.859 294.963C195.036 295.176 190.033 293.739 181.784 295.975C170.874 298.955 156.186 306.778 142.774 310.397L142.881 310.557Z"
        fill="url(#paint11_radial_2164_296707)" />
    <path style="mix-blend-mode:multiply" fill-rule="evenodd" clip-rule="evenodd"
        d="M270.394 280.594C257.568 284.958 241.177 289.056 227.659 292.675C226.382 292.994 220.155 294.271 219.676 295.655C219.464 296.24 224.36 296.56 229.203 296.187C242.773 295.123 255.812 290.546 268.691 287.938C279.761 285.703 298.228 281.499 308.02 275.911C313.023 273.037 318.132 269.897 321.804 265.427C325.369 261.116 326.061 255.049 329.095 250.366C331.756 246.215 335.268 242.596 338.781 239.083C344.741 233.176 351.5 228.12 357.514 222.266C360.388 219.445 363.687 216.731 365.443 213.059C368.158 207.365 369.648 201.085 370.499 194.805C371.457 187.78 370.765 180.649 370.872 173.57C370.925 170.218 370.872 166.546 371.723 165.162C371.564 165.268 371.457 165.322 371.298 165.322C370.659 165.428 369.648 165.588 369.382 165.002C369.062 164.097 368.796 163.193 368.637 162.288C367.466 156.7 366.668 151.272 365.39 145.577C365.177 144.726 364.805 143.874 364.698 143.023C364.698 142.863 364.805 142.544 365.018 142.544C365.284 142.544 365.497 142.863 365.603 143.076C366.401 144.513 367.04 146.003 367.785 147.44C368.424 148.717 369.116 150.154 369.754 151.325C370.34 152.389 370.712 151.485 370.712 151.165C370.712 150.207 370.712 149.196 370.553 148.238C370.393 147.227 370.18 146.269 369.914 145.311C368.849 141.533 367.625 137.86 366.029 134.295C363.953 129.611 361.878 121.043 360.494 119.713C360.281 119.5 360.068 119.34 359.855 119.127C361.292 120.458 364.113 131.261 364.113 135.785C364.113 136.477 364.113 137.062 363.953 137.594C363.9 137.967 363.208 137.967 363.155 138.286C362.889 139.51 363.421 143.927 363.528 145.364C364.06 152.123 364.911 158.829 364.752 165.588C364.539 174.262 364.486 183.097 362.037 191.452C360.175 197.838 355.704 203.214 352.192 208.908C347.562 216.465 343.624 224.608 337.61 231.1C332.98 236.103 325.742 238.125 320.793 242.809C301.314 261.276 303.656 269.205 270.394 280.541V280.594Z"
        fill="url(#paint12_radial_2164_296707)" />
    <path style="mix-blend-mode:multiply" fill-rule="evenodd" clip-rule="evenodd"
        d="M146.553 368.299C141.976 368.991 138.996 370.588 135.75 371.546C131.492 372.876 126.649 373.195 116.91 369.523C105.734 365.319 102.913 359.039 103.765 349.832C103.765 349.619 103.765 349.406 103.818 349.247C103.392 349.14 102.913 348.927 102.488 348.768C100.944 353.025 100.199 360.689 101.743 366.383C102.647 369.63 106.266 371.599 109.193 373.302C112.014 374.898 115.42 375.324 118.613 375.91C124.467 376.974 130.534 376.974 136.388 378.145C139.049 378.677 141.604 379.741 144.105 380.859C146.926 382.136 149.533 383.892 152.248 385.276C154.908 386.66 157.516 388.15 160.337 389.161C162.785 390.013 165.286 390.651 167.894 390.811C171.566 391.024 175.238 390.545 178.91 390.279C182.263 390.013 185.563 389.587 188.915 389.108C189.288 389.055 189.714 389.001 190.086 388.948C191.683 388.682 193.226 388.097 194.823 387.777C200.624 386.553 206.531 385.755 212.279 384.371C216.589 383.307 220.794 381.87 224.945 380.433C231.491 378.145 237.93 375.59 244.37 373.036C253.683 369.364 262.996 365.745 272.203 361.753C275.237 360.476 278.164 358.933 280.984 357.336C290.245 352.014 299.452 346.639 308.392 340.838C315.204 336.421 321.804 331.685 328.19 326.735C334.044 322.212 339.685 317.422 345.167 312.472C349.903 308.215 354.374 303.691 358.897 299.168C360.387 297.678 361.505 295.815 363.102 294.484C363.368 294.271 363.793 294.75 363.9 295.017C365.071 299.966 347.242 320.668 343.038 324.181C342.612 324.553 342.186 324.872 341.761 325.245C354.107 316.411 359.695 309.386 369.275 293.047C370.446 291.078 371.51 289.109 372.575 287.087C375.235 282.084 377.577 276.975 379.493 271.707C380.025 270.323 381.675 265.001 381.302 264.416C381.196 264.203 380.611 265.001 379.972 266.012C378.961 267.609 377.737 269.844 377.364 270.483C373.107 277.774 369.807 283.308 364.272 290.12C361.665 293.314 358.791 296.294 355.864 299.168C351.34 303.638 346.816 308.108 341.92 312.153C337.982 315.399 333.565 318.06 329.414 321.041C323.879 325.032 318.291 328.864 312.916 333.068C309.244 335.942 306.264 339.614 302.432 342.275C298.494 344.989 294.023 346.905 289.766 349.087C284.231 351.908 278.536 354.569 272.948 357.336C269.33 359.092 265.923 361.274 262.145 362.711C255.226 365.372 247.989 366.916 241.07 369.523C237.398 370.907 234.152 373.302 230.426 374.579C223.029 377.134 214.141 377.187 206.637 379.316C193.758 383.041 189.607 386.713 178.485 387.032C176.036 387.086 173.269 387.032 169.969 386.713C166.244 386.394 164.381 384.957 164.009 383.201C163.424 380.327 166.723 376.495 172.258 374.845C178.963 372.823 185.935 371.812 192.694 370.109C206.637 366.543 227.286 362.552 240.112 358.4C246.126 356.431 251.927 353.77 257.728 351.216C257.249 351.429 256.717 351.588 256.238 351.801C251.82 353.504 245.434 356.804 236.813 357.975C236.014 358.081 234.95 358.081 234.524 357.443C234.205 356.964 234.79 356.112 235.322 355.846C241.336 352.812 246.126 350.045 251.182 346.586C255.759 343.446 259.59 339.242 264.167 336.048C267.786 333.494 272.097 332.057 275.663 329.449C278.164 327.64 280.293 325.351 282.262 322.957C278.643 326.043 275.716 327.48 267.414 330.035C263.795 331.152 258.207 332.004 256.45 333.228C252.565 335.889 245.115 349.566 230.426 354.622C213.024 360.689 194.024 363.988 175.717 366.064C166.031 367.182 156.186 366.809 146.553 368.299Z"
        fill="url(#paint13_radial_2164_296707)" />
    <path fill-rule="evenodd" clip-rule="evenodd"
        d="M159.592 336.794C155.654 339.348 152.248 342.86 147.99 344.883C144.744 346.426 141.072 346.852 137.506 347.278C130.8 348.076 123.988 347.916 117.229 348.448C113.344 348.768 109.406 350.098 105.574 349.619C108.342 350.471 110.683 349.992 116.059 349.832C128.831 349.406 148.842 350.79 154.217 350.098C158.048 349.566 161.774 347.81 165.02 345.681C170.023 342.382 160.177 342.275 166.617 339.667C175.398 336.048 198.335 337.219 203.87 327.799C204.509 326.682 205.041 325.085 204.349 323.968C203.604 322.85 201.103 323.914 200.517 322.69C200.038 321.626 201.316 320.349 202.274 319.657C209.565 314.495 221.486 308.162 229.841 304.915C234.844 302.999 239.633 301.35 245.221 300.179C260.921 296.773 230.799 297.677 220.794 300.338C212.066 302.627 209.777 305.447 203.338 310.823C201.582 312.26 200.198 314.229 198.122 315.08C193.865 316.89 187.851 316.996 184.764 321.52C183.7 323.063 183.594 325.245 182.37 326.682C181.199 328.066 179.496 328.917 177.846 329.609C173.376 331.525 168.586 332.749 164.062 334.505C162.466 335.144 160.976 335.889 159.539 336.794H159.592Z"
        fill="url(#paint14_radial_2164_296707)" />
    <path opacity="0.65" fill-rule="evenodd" clip-rule="evenodd"
        d="M247.723 357.496C242.507 359.358 237.079 360.689 231.704 362.073C225.584 363.669 219.304 364.893 213.13 366.33C208.713 367.394 204.243 368.139 199.985 369.683C199.4 369.896 198.602 371.173 199.187 371.439C201.529 372.503 204.243 372.503 206.797 372.716C212.226 373.142 217.707 373.568 223.136 373.355C224.945 373.302 226.754 372.77 228.351 371.918C232.343 369.789 235.642 366.436 239.793 364.467C243.252 362.818 247.137 362.073 250.916 361.115C255.493 359.997 260.336 360.103 264.7 358.4C271.671 355.686 288.755 343.339 292.587 337.326C292.853 336.847 292.746 335.942 292.267 335.729C291.682 335.463 290.937 335.942 290.351 336.261C285.295 339.029 280.453 342.169 275.344 344.883C270.98 347.224 266.456 349.353 261.932 351.375C257.249 353.504 252.513 355.686 247.67 357.389L247.723 357.496Z"
        fill="url(#paint15_radial_2164_296707)" />
    <path fill-rule="evenodd" clip-rule="evenodd"
        d="M138.464 63.3537C140.06 62.7151 141.338 61.4379 142.881 60.6396C153.365 55.2644 171.194 53.7211 185.297 57.7657C189.182 58.8833 193.439 58.3511 197.324 59.522C200.677 60.5331 203.551 62.8748 206.85 64.0988C210.043 65.3229 213.716 65.11 216.696 66.813C218.718 67.9838 219.037 71.177 221.113 72.1881C224.679 73.8911 229.043 73.0928 232.662 74.583C241.709 78.2551 254.056 88.5264 255.333 98.8509C255.759 102.204 255.546 105.876 254.215 109.016C252.672 112.741 246.232 110.985 244.37 111.89C243.305 112.422 243.093 113.912 242.933 115.083C242.347 119.872 243.199 124.769 242.294 129.505C240.644 137.807 231.491 141 224.04 142.97C214.035 145.63 202.38 141.639 204.402 129.186C204.988 125.673 208.234 123.172 209.458 119.819C210.416 117.158 209.298 113.752 210.895 111.411C214.514 106.035 224.466 103.481 225.796 101.565C227.233 99.4363 227.127 96.5092 227.074 93.9547C227.02 91.6131 226.648 89.0586 225.424 87.0362C224.892 86.1847 223.295 85.8654 222.497 86.3976C219.304 88.5796 218.133 94.3273 211.214 97.2011C204.722 99.9153 192.215 99.9153 186.414 107.206C185.776 108.005 185.297 109.229 185.616 110.24C186.361 112.581 188.862 114.231 189.341 116.679C189.661 118.276 188.756 120.032 187.745 121.256C185.829 123.704 183.594 126.152 180.773 127.43C174.174 130.463 166.883 131.74 160.018 134.082C156.612 135.253 153.365 136.743 150.012 138.02C133.993 144.406 119.092 142.863 117.176 144.832C115.101 147.014 115.686 150.846 113.823 153.241C107.384 161.49 100.678 164.523 91.631 158.456C88.2782 156.221 86.3623 152.123 82.7434 150.367C80.2953 149.143 77.2618 150.261 74.4945 150.048C69.8112 149.675 64.5425 147.6 60.2317 151.325C57.8369 153.4 56.2935 158.456 54.963 159.201C54.0051 159.787 55.7081 152.389 57.1982 149.409C59.6463 144.513 52.9939 140.521 69.6515 126.418C72.0996 124.343 77.1554 118.223 79.8696 112.315C81.0404 109.761 82.6902 106.887 84.6061 104.865C86.8413 102.523 89.1297 101.246 91.6842 99.2234C95.6224 96.0835 100.891 89.4843 105.894 85.28C107.916 83.5238 110.63 82.6191 112.653 80.8628C117.283 76.765 120.795 72.5074 124.467 69.1546C129.097 64.8971 133.355 65.3761 138.357 63.3537H138.464Z"
        fill="url(#paint16_radial_2164_296707)" />
    <path style="mix-blend-mode:multiply" fill-rule="evenodd" clip-rule="evenodd"
        d="M173.535 103.588C158.634 116.946 167.894 117.85 175.291 118.861C178.697 119.34 183.061 121.097 178.006 123.225C173.588 125.088 168.639 125.407 164.222 127.164C161.721 128.175 159.858 130.357 157.41 131.421C141.284 138.712 119.89 134.295 107.703 136.104C102.328 136.903 100.199 141.746 104.67 146.11C107.863 149.196 111.162 149.196 111.269 151.485C111.482 156.168 104.829 160.426 100.625 161.596C105.574 161.65 109.832 158.51 114.036 153.188C115.899 150.793 115.26 146.961 117.389 144.779C119.305 142.757 134.153 144.353 150.225 137.967C153.578 136.637 156.824 135.146 160.23 134.029C167.096 131.634 174.387 130.41 180.986 127.376C183.806 126.046 186.042 123.651 187.958 121.203C188.969 119.926 189.873 118.17 189.554 116.626C189.075 114.178 186.574 112.582 185.829 110.187C185.509 109.176 185.988 108.005 186.627 107.153C192.481 99.8622 204.934 99.8622 211.427 97.148C218.346 94.2742 219.463 88.5265 222.71 86.3445C223.561 85.7591 225.104 86.1316 225.637 86.9832C226.861 89.0055 227.233 91.5068 227.286 93.9016C227.34 96.4562 227.499 99.3832 226.009 101.512C224.785 103.268 216.43 105.557 212.172 109.974C223.827 101.725 232.183 105.184 232.342 95.445C232.395 92.039 231.916 85.0673 229.735 82.4595C228.617 81.1291 225.69 79.5325 223.401 81.8209C218.931 86.3445 216.909 91.8261 210.416 93.6888C206.105 94.966 201.688 95.7643 197.271 96.5626C188.543 98.106 180.933 96.9883 173.642 103.534L173.535 103.588Z"
        fill="url(#paint17_radial_2164_296707)" />
    <path style="mix-blend-mode:multiply" fill-rule="evenodd" clip-rule="evenodd"
        d="M216.323 68.3031C216.856 70.0594 216.536 74.5298 219.197 75.1152C224.785 76.3924 229.948 73.6783 236.227 77.8293C244.742 83.4706 253.577 90.6019 251.98 101.991C251.395 106.195 247.67 105.237 243.465 103.907C240.645 103.002 237.611 102.629 237.026 105.237C235.642 111.517 237.877 118.01 237.824 124.449C237.664 138.286 226.914 142.597 216.962 143.715C219.304 143.874 221.805 143.608 224.2 142.97C231.651 141 240.804 137.807 242.454 129.505C243.359 124.769 242.507 119.872 243.093 115.083C243.252 113.912 243.465 112.422 244.53 111.89C246.392 110.985 252.832 112.794 254.375 109.016C255.652 105.876 255.919 102.257 255.493 98.8509C254.215 88.5264 241.869 78.2551 232.821 74.583C229.149 73.0928 224.785 73.9443 221.273 72.1881C219.197 71.177 218.878 67.9306 216.856 66.813C215.632 66.1211 214.301 65.7486 212.917 65.4825C213.769 65.8018 214.674 66.1744 215.472 66.6533C216.057 66.9726 216.324 67.7177 216.483 68.3031H216.323Z"
        fill="url(#paint18_radial_2164_296707)" />
    <circle cx="220" cy="220" r="200" fill="url(#paint19_radial_2164_296707)" fill-opacity="0.2" />
    <defs>
        <radialGradient id="paint0_radial_2164_296707" cx="0" cy="0" r="1"
            gradientUnits="userSpaceOnUse"
            gradientTransform="translate(220 220) rotate(90) scale(160)">
            <stop stop-color="white" />
            <stop offset="1" stop-color="white" stop-opacity="0" />
        </radialGradient>
        <radialGradient id="paint1_radial_2164_296707" cx="0" cy="0" r="1"
            gradientUnits="userSpaceOnUse" gradientTransform="translate(220.424 218.846) scale(100)">
            <stop stop-color="#2FC1E9" />
            <stop offset="1" stop-color="#2FC1E9" stop-opacity="0" />
        </radialGradient>
        <radialGradient id="paint2_radial_2164_296707" cx="0" cy="0" r="1"
            gradientUnits="userSpaceOnUse"
            gradientTransform="translate(146.021 126.152) scale(298.878 298.878)">
            <stop stop-color="#71F5FF" />
            <stop offset="0.17" stop-color="#69E8FF" />
            <stop offset="0.47" stop-color="#56C8FF" />
            <stop offset="0.5" stop-color="#54C5FF" />
            <stop offset="0.92" stop-color="#1483FF" />
        </radialGradient>
        <radialGradient id="paint3_radial_2164_296707" cx="0" cy="0" r="1"
            gradientUnits="userSpaceOnUse"
            gradientTransform="translate(225.53 230.409) scale(188.076 188.076)">
            <stop offset="0.04" />
            <stop offset="0.84" />
            <stop offset="0.85" stop-color="#0D1415" />
            <stop offset="0.9" stop-color="#3E6167" />
            <stop offset="0.93" stop-color="#659EA8" />
            <stop offset="0.96" stop-color="#81CAD7" />
            <stop offset="0.99" stop-color="#92E5F4" />
            <stop offset="1" stop-color="#99F0FF" />
        </radialGradient>
        <radialGradient id="paint4_radial_2164_296707" cx="0" cy="0" r="1"
            gradientUnits="userSpaceOnUse"
            gradientTransform="translate(93.0678 79.16) scale(206.171 206.171)">
            <stop stop-color="#86FFFF" />
            <stop offset="1" />
        </radialGradient>
        <radialGradient id="paint5_radial_2164_296707" cx="0" cy="0" r="1"
            gradientUnits="userSpaceOnUse"
            gradientTransform="translate(140.433 189.057) scale(268.171 268.171)">
            <stop stop-color="#F2F6FF" />
            <stop offset="1" stop-color="#D6F3FF" />
        </radialGradient>
        <radialGradient id="paint6_radial_2164_296707" cx="0" cy="0" r="1"
            gradientUnits="userSpaceOnUse"
            gradientTransform="translate(199.08 190.335) scale(224.052 224.052)">
            <stop offset="0.62" stop-color="white" />
            <stop offset="0.65" stop-color="#F5FAFF" />
            <stop offset="0.75" stop-color="#CFE7FF" />
            <stop offset="0.85" stop-color="#B4DAFF" />
            <stop offset="0.94" stop-color="#A3D1FF" />
            <stop offset="1" stop-color="#9ECFFF" />
        </radialGradient>
        <radialGradient id="paint7_radial_2164_296707" cx="0" cy="0" r="1"
            gradientUnits="userSpaceOnUse"
            gradientTransform="translate(82.9563 93.2097) scale(274.877 274.877)">
            <stop offset="0.7" stop-color="white" />
            <stop offset="1" stop-color="#AAC2E6" />
        </radialGradient>
        <radialGradient id="paint8_radial_2164_296707" cx="0" cy="0" r="1"
            gradientUnits="userSpaceOnUse"
            gradientTransform="translate(113.132 226.311) scale(40.5529)">
            <stop stop-color="white" />
            <stop offset="1" stop-color="#AAC2E6" />
        </radialGradient>
        <radialGradient id="paint9_radial_2164_296707" cx="0" cy="0" r="1"
            gradientUnits="userSpaceOnUse"
            gradientTransform="translate(157.942 207.258) scale(89.7806 89.7806)">
            <stop stop-color="white" />
            <stop offset="1" stop-color="#AAC2E6" />
        </radialGradient>
        <radialGradient id="paint10_radial_2164_296707" cx="0" cy="0" r="1"
            gradientUnits="userSpaceOnUse"
            gradientTransform="translate(149.799 235.411) scale(246.83 246.83)">
            <stop stop-color="white" />
            <stop offset="1" stop-color="#CFE2FF" />
        </radialGradient>
        <radialGradient id="paint11_radial_2164_296707" cx="0" cy="0" r="1"
            gradientUnits="userSpaceOnUse"
            gradientTransform="translate(221.645 312.473) scale(159.019 159.019)">
            <stop stop-color="#AAC2E6" />
            <stop offset="1" stop-color="white" />
        </radialGradient>
        <radialGradient id="paint12_radial_2164_296707" cx="0" cy="0" r="1"
            gradientUnits="userSpaceOnUse"
            gradientTransform="translate(240.272 242.915) scale(166.203 166.203)">
            <stop stop-color="white" />
            <stop offset="1" stop-color="#AAC2E6" />
        </radialGradient>
        <radialGradient id="paint13_radial_2164_296707" cx="0" cy="0" r="1"
            gradientUnits="userSpaceOnUse"
            gradientTransform="translate(204.934 133.071) scale(293.982 293.982)">
            <stop stop-color="white" />
            <stop offset="1" stop-color="#AAC2E6" />
        </radialGradient>
        <radialGradient id="paint14_radial_2164_296707" cx="0" cy="0" r="1"
            gradientUnits="userSpaceOnUse"
            gradientTransform="translate(214.301 289.429) scale(127.566 127.566)">
            <stop stop-color="#F2F6FF" />
            <stop offset="1" stop-color="#D6F3FF" />
        </radialGradient>
        <radialGradient id="paint15_radial_2164_296707" cx="0" cy="0" r="1"
            gradientUnits="userSpaceOnUse"
            gradientTransform="translate(254.695 314.441) scale(115.273 115.273)">
            <stop stop-color="#F2F6FF" />
            <stop offset="1" stop-color="#D6F3FF" />
        </radialGradient>
        <radialGradient id="paint16_radial_2164_296707" cx="0" cy="0" r="1"
            gradientUnits="userSpaceOnUse"
            gradientTransform="translate(68.2146 108.59) scale(267.373 267.373)">
            <stop stop-color="#F2F6FF" />
            <stop offset="1" stop-color="#D6F3FF" />
        </radialGradient>
        <radialGradient id="paint17_radial_2164_296707" cx="0" cy="0" r="1"
            gradientUnits="userSpaceOnUse"
            gradientTransform="translate(122.445 89.378) scale(115.06 115.06)">
            <stop stop-color="white" />
            <stop offset="1" stop-color="#AAC2E6" />
        </radialGradient>
        <radialGradient id="paint18_radial_2164_296707" cx="0" cy="0" r="1"
            gradientUnits="userSpaceOnUse"
            gradientTransform="translate(188.277 88.4732) scale(74.9325)">
            <stop stop-color="white" />
            <stop offset="1" stop-color="#AAC2E6" />
        </radialGradient>
        <radialGradient id="paint19_radial_2164_296707" cx="0" cy="0" r="1"
            gradientUnits="userSpaceOnUse"
            gradientTransform="translate(220 220) rotate(90) scale(200)">
            <stop stop-color="white" stop-opacity="0.3" />
            <stop offset="0.784" stop-color="white" />
            <stop offset="1" stop-color="white" stop-opacity="0" />
        </radialGradient>
    </defs>
</svg>
    