<svg width="400" height="401" viewBox="0 0 400 401" fill="none" xmlns="http://www.w3.org/2000/svg">
    <g clip-path="url(#clip0_1345_31316)">
        <path
            d="M200.002 400.016C310.46 400.016 400.004 310.472 400.004 200.014C400.004 89.5562 310.46 0.012207 200.002 0.012207C89.544 0.012207 0 89.5562 0 200.014C0 310.472 89.544 400.016 200.002 400.016Z"
            fill="url(#paint0_radial_1345_31316)" style="mix-blend-mode:screen" />
        <path
            d="M200.002 367.661C292.591 367.661 367.649 292.603 367.649 200.014C367.649 107.426 292.591 32.3676 200.002 32.3676C107.413 32.3676 32.3555 107.426 32.3555 200.014C32.3555 292.603 107.413 367.661 200.002 367.661Z"
            fill="url(#paint1_radial_1345_31316)" style="mix-blend-mode:screen" />
        <path
            d="M200.002 351.975C283.927 351.975 351.962 283.94 351.962 200.014C351.962 116.089 283.927 48.0541 200.002 48.0541C116.077 48.0541 48.0417 116.089 48.0417 200.014C48.0417 283.94 116.077 351.975 200.002 351.975Z"
            fill="url(#paint2_radial_1345_31316)" style="mix-blend-mode:screen" />
        <path fill-rule="evenodd" clip-rule="evenodd"
            d="M344.483 198.604C344.483 212.482 342.531 225.928 338.842 238.616C331.524 264.141 317.341 286.743 298.402 304.369C284.863 316.993 268.88 327.03 251.284 333.709C235.335 339.778 218.073 343.073 199.985 343.073C197.423 343.073 194.831 343.013 192.299 342.861H192.269C188.487 342.679 184.735 342.31 181.046 341.853C153.142 338.194 127.8 326.603 107.243 309.341C99.5267 302.908 92.5136 295.649 86.322 287.717C81.6254 281.771 77.3861 275.457 73.6636 268.778C72.7785 267.194 71.9272 265.576 71.0718 263.959C71.0718 263.899 71.0421 263.865 71.0125 263.806C70.1274 262.07 69.3058 260.329 68.5096 258.559H68.4799C65.9771 253.041 63.7833 247.336 62.0131 241.479C60.6706 237.27 59.5441 232.941 58.6293 228.55C58.5997 228.52 58.5997 228.457 58.5997 228.427C57.9602 225.348 57.4096 222.235 56.9819 219.093C56.0079 212.385 55.5166 205.554 55.5166 198.6C55.5166 194.606 55.6691 190.608 56.0333 186.704C56.2154 184.201 56.4907 181.732 56.8252 179.263C58.6844 165.05 62.6483 151.511 68.3825 138.916C71.1903 132.724 74.4216 126.778 78.051 121.074C84.0901 111.558 91.2261 102.838 99.2769 94.999C125.292 69.6864 160.82 54.1016 199.981 54.1016C201.506 54.1016 203.03 54.1313 204.525 54.1609C206.143 54.2202 207.756 54.2837 209.374 54.4065C217.671 54.9571 225.781 56.1768 233.62 58.0656C238.193 59.1624 242.678 60.4457 247.07 61.9703C250.06 62.9782 252.986 64.1047 255.883 65.3244C258.047 66.2391 260.152 67.1835 262.257 68.1915C262.621 68.3736 262.989 68.526 263.353 68.7081C277.384 75.5688 290.102 84.5979 301.138 95.4225C302.722 96.9471 304.251 98.5352 305.775 100.149C306.783 101.246 307.787 102.376 308.765 103.503C310.442 105.392 312.06 107.378 313.644 109.36C319.408 116.678 324.469 124.547 328.708 132.902C333.68 142.6 337.585 152.938 340.236 163.767C343.01 174.93 344.475 186.581 344.475 198.596L344.483 198.604Z"
            fill="url(#paint3_radial_1345_31316)" />
        <path fill-rule="evenodd" clip-rule="evenodd"
            d="M263.354 68.7251C262.879 68.7759 262.401 68.8267 261.926 68.9241C260.296 69.2248 259.021 69.0766 257.416 68.6235C256.264 68.2974 255.434 67.823 254.21 67.6198C252.457 67.3445 250.826 66.5907 249.073 66.3662C247.218 66.1163 245.613 65.3879 243.86 64.7611C242.479 64.2614 241.755 64.435 240.425 64.7611C239.095 65.1126 238.168 64.5621 236.991 64.0581C235.661 63.4822 234.335 63.3805 232.929 63.1053C229.27 62.3514 225.637 61.1741 222.003 60.2466C219.746 59.6707 217.666 59.6707 215.363 59.6453C213.558 59.6199 211.928 60.145 210.124 60.145C208.921 60.145 207.892 59.946 206.689 59.7681C205.461 59.5436 204.208 59.7935 202.979 59.6199C201.15 59.3446 200.172 59.0693 198.317 59.6453C196.94 60.0984 195.86 60.0476 194.484 60.1196C192.955 60.1958 191.227 60.5939 189.724 60.9454C187.018 61.5722 184.057 62.0719 181.279 62.0211C179.577 62.0211 177.07 61.5468 175.439 62.1227C174.385 62.4997 173.86 63.6262 173.135 64.38C171.734 65.8326 170.001 67.137 168.824 68.7675C167.647 70.3979 166.317 72.075 166.419 74.129C166.52 75.9077 167.346 77.987 168.121 79.6175C168.922 81.3454 169.197 82.9251 167.418 84.077C165.186 85.555 162.607 86.9102 160.049 87.6344C158.347 88.1341 156.818 88.4348 155.386 87.2066C154.861 86.7535 154.535 85.8768 153.883 85.5296C153.205 85.1781 152.502 85.5296 151.778 85.754C149.974 86.2792 148.221 86.8805 146.391 87.1812C145.265 87.3549 144.287 87.9562 143.185 88.1595C141.856 88.4094 140.903 87.4311 139.526 87.7572C137.595 88.2103 135.668 89.0108 133.661 89.1124C132.234 89.1886 130.43 88.5618 129.223 87.8334C128.52 87.4311 128.346 87.033 127.541 87.2575C126.889 87.4057 125.911 88.2103 125.559 88.7101C125.085 89.3877 124.907 90.2643 124.433 90.9673C123.933 91.7423 123.455 92.4962 123.006 93.322C122.18 94.927 121.202 96.4305 120.147 97.8577C119.393 98.8614 118.868 100.212 118.042 101.14C117.614 101.64 116.687 101.991 116.136 102.368C114.633 103.422 113.053 104.371 111.601 105.502C108.793 107.708 106.138 110.139 103.279 112.269C101.098 113.9 98.0403 114.853 95.5586 115.878C94.0044 116.504 92.3993 116.953 90.8451 117.605C90.3453 117.805 89.4179 118.033 88.9901 118.406C88.4396 118.88 88.1389 119.761 87.6349 120.409C86.2797 122.065 84.8525 123.717 83.8277 125.622C83.2009 126.723 82.824 127.854 82.4259 129.057C81.8753 130.687 80.9987 132.191 80.4439 133.817C79.3174 137.226 79.0887 140.784 77.8394 144.167C77.111 146.149 76.0607 147.953 75.1586 149.758C73.6044 152.815 73.3799 156.449 72.9268 159.833C72.6769 161.815 72.7743 164.093 73.1258 166.024C73.5027 168.104 73.4011 170.259 73.3757 172.389C73.3503 174.647 71.9231 176.849 70.4916 178.556C69.1873 180.135 67.2095 180.737 65.7569 182.138C64.5288 183.341 63.0507 184.722 62.5256 186.424C62.3012 187.178 62.5002 188.029 62.3774 188.83C62.0513 190.608 61.6024 192.29 61.3483 194.094C61.073 196.326 61.0222 198.43 61.0222 200.683C61.0222 201.81 60.946 202.966 60.9968 204.093C61.0476 205.173 61.4499 206.172 61.5219 207.252C61.5727 208.006 61.4203 208.755 61.5219 209.509C61.6744 210.36 61.9962 211.237 62.1995 212.067C62.6992 214.07 63.0762 216.027 63.4531 218.03C63.8046 219.885 64.5288 221.714 65.109 223.519C65.9094 225.975 66.4387 228.507 66.9131 231.061C67.29 232.967 67.2646 234.945 67.5398 236.876C67.7643 238.43 68.1158 240.01 68.192 241.564C68.2683 243.919 67.6923 246.277 67.6669 248.658C67.6415 252.668 69.2466 256.679 70.174 260.537C70.4493 261.617 70.7246 262.718 71.0253 263.793C61.1027 244.194 55.5125 222.041 55.5125 198.583C55.5125 170.06 63.7834 143.473 78.0426 121.065C84.1072 111.541 91.2262 102.821 99.2685 94.999C125.309 69.6864 160.82 54.0974 199.994 54.0974C203.153 54.0974 206.261 54.1991 209.366 54.3981C228.639 55.6262 246.884 60.6405 263.349 68.7082L263.354 68.7251Z"
            fill="url(#paint4_linear_1345_31316)" />
        <g style="mix-blend-mode:soft-light">
            <path fill-rule="evenodd" clip-rule="evenodd"
                d="M141.009 250.004C139.005 242.733 136.486 234.11 133.843 225.424C135.952 234.013 138.362 242.297 141.009 250.004Z"
                fill="url(#paint5_linear_1345_31316)" />
            <path fill-rule="evenodd" clip-rule="evenodd"
                d="M136.693 328.843C136.693 328.843 142.423 284.672 146.785 284.672C150.19 284.672 155.954 291.338 167.643 300.219L167.651 300.227C170.916 302.705 174.618 305.352 178.891 308.079C182.546 310.417 187.166 312.856 192.265 315.278C200.87 319.369 210.831 323.414 219.809 326.831C233.997 332.235 245.727 336.081 245.727 336.081L247.997 334.446C247.997 334.446 238.024 332.362 224.379 327.717C224.379 327.708 238.469 304.771 256.484 284.054C274.5 263.332 343.721 214.667 343.721 214.667L344.31 207.79C344.31 207.79 324.554 224.128 302.654 241.492C302.659 241.458 317.303 140.839 321.936 124.771L317.307 122.865C317.307 122.865 306.436 222.117 294.303 248.082C273.412 264.467 252.588 280.052 246.587 282.008C233.421 286.298 185.142 247.523 185.078 247.476C183.829 207.565 184.752 163.072 188.055 151.464C237.274 104.858 284.423 81.6291 284.423 81.6291L282.187 79.3931C282.187 79.3931 235.191 112.443 233.814 106.107C232.442 99.7719 263.438 67.9035 263.438 67.9035L259.927 67.3995C259.927 67.3995 225.438 111.626 177.836 158.41C144.359 191.311 133.144 201.289 129.43 204.321C123.383 169.734 122.976 133.457 133.14 110.038C152.185 66.1587 178.565 56.1175 178.565 56.1175C174.253 55.9735 165.034 58.3028 165.034 58.3028C165.034 58.3028 151.821 73.968 146.239 83.0902C140.653 92.2166 133.14 110.033 128.668 107.196C124.196 104.358 110.466 85.3178 110.466 85.3178L108.806 86.9779C108.806 86.9779 122.061 99.3653 124.31 108.966C126.559 118.567 124.581 177.476 118.589 175.295C112.596 173.114 69.7378 136.57 69.7378 136.57L68.2937 139.683C68.2937 139.683 113.003 170.255 118.627 181.02C121.405 186.34 127.931 206.007 133.839 225.416C133.161 222.667 130.98 213.02 131.937 208.798C147.005 186.505 163.89 175.265 180.813 158.486C184.489 179.14 184.35 251.991 184.032 288.204L167.405 296.475C162.522 291.914 158.241 286.908 154.959 281.394C149.966 273.009 145.206 262.21 141.009 249.996C143.592 259.364 145.32 266.474 145.354 268.524C145.472 275.707 134.372 327.67 134.372 327.67L136.693 328.835V328.843ZM302.307 241.771C299.766 243.783 297.208 245.807 294.638 247.819L302.307 241.771ZM185.129 249.153L185.226 252.05C185.192 251.088 185.163 250.119 185.129 249.153ZM185.239 252.376C185.277 252.401 231.536 281.165 239.214 286.391C246.325 291.232 223.642 321.775 220.25 326.264C211.322 323.045 201.213 318.806 191.431 313.432C188.335 305.008 186.247 280.242 185.239 252.376ZM184.028 288.636V288.356C184.028 288.45 184.028 288.539 184.028 288.636ZM184.007 291.024C183.905 301.942 183.791 308.917 183.791 308.939C178.798 305.792 174.016 302.323 169.65 298.516C172.695 296.039 178.709 291.672 184.007 291.024Z"
                fill="url(#paint6_linear_1345_31316)" />
            <path fill-rule="evenodd" clip-rule="evenodd"
                d="M101.022 238.362C94.3812 228.546 55.7241 193.755 55.7241 193.755L55.686 202.941C55.686 202.941 90.701 223.641 100.204 240.814C109.703 257.987 99.7004 302.899 99.7004 302.899L103.448 306.647C103.448 306.647 110.69 252.66 101.017 238.358L101.022 238.362Z"
                fill="url(#paint7_linear_1345_31316)" />
        </g>
        <path style="mix-blend-mode:screen" fill-rule="evenodd" clip-rule="evenodd"
            d="M114.315 311.441C99.3785 298.935 86.9996 283.448 78.1019 265.902C72.5117 254.875 68.3021 243.046 65.6975 230.642C65.6721 230.616 65.6721 230.566 65.6721 230.515C63.669 220.889 62.5891 210.915 62.5891 200.692C62.5891 172.169 70.86 145.582 85.1193 123.174C91.1838 113.65 98.3028 104.93 106.345 97.1081C132.386 71.7955 167.897 56.2064 207.07 56.2064C210.23 56.2064 213.338 56.3081 216.442 56.5071C226.238 57.1339 235.762 58.7559 244.923 61.2418C233.632 57.5405 221.715 55.2027 209.37 54.4108C206.261 54.2117 203.153 54.1101 199.998 54.1101C160.824 54.1101 125.314 69.6991 99.2726 95.0117C91.2261 102.83 84.1113 111.554 78.0468 121.078C63.7876 143.486 55.5166 170.073 55.5166 198.596C55.5166 208.823 56.5923 218.797 58.5997 228.418C58.5997 228.469 58.5997 228.52 58.6251 228.546C61.2296 240.95 65.4434 252.782 71.0294 263.806C79.9271 281.352 92.306 296.839 107.243 309.345C123.073 322.626 141.762 332.544 162.26 338.08C144.528 332.295 128.308 323.181 114.315 311.441Z"
            fill="url(#paint8_radial_1345_31316)" />
        <path style="mix-blend-mode:screen" opacity="0.3" fill-rule="evenodd" clip-rule="evenodd"
            d="M168.168 57.5701C168.168 57.5701 180.402 188.635 184.006 199.777C187.606 210.919 220.241 231.362 233.603 233.865C246.964 236.368 280.81 248.679 289.644 248.331C298.474 247.98 336.915 244.795 336.915 244.795L342.218 224.209C342.218 224.209 270.506 168.781 245.109 118.08C219.712 67.3741 220.288 55.5076 220.288 55.5076L209.366 54.4193C209.366 54.4193 236.902 107.425 244.918 133.228C252.935 159.032 287.082 184.502 302.303 199.328C317.523 214.155 313.123 240.251 294.633 238.976C276.143 237.702 212.91 241.318 197.275 193.594C190.473 172.821 184.455 152.62 179.835 118.063C175.21 83.5052 168.163 57.5786 168.163 57.5786L168.168 57.5701Z"
            fill="url(#paint9_radial_1345_31316)" />
        <path style="mix-blend-mode:screen" opacity="0.3" fill-rule="evenodd" clip-rule="evenodd"
            d="M61.2762 158.122C61.2762 158.122 110.69 177.107 129.57 189.884C148.445 202.661 199.295 217.378 210.081 228.512C220.868 239.645 238.998 260.566 237.431 270.464C235.864 280.361 171.788 273.335 146.247 263.81C120.706 254.286 77.9451 234.707 72.1643 225.424C66.3836 216.145 55.9951 210.432 55.9951 210.432L57.6468 223.421C57.6468 223.421 121.477 265.386 129.951 268.888C138.425 272.39 225.751 288.581 250.238 284.151C250.238 284.151 261.702 274.339 219.326 232.374C202.306 215.519 171.75 201.823 143.516 188.931C101.462 169.734 62.2799 154.912 62.2799 154.912L61.2719 158.122H61.2762Z"
            fill="url(#paint10_radial_1345_31316)" />
        <path style="mix-blend-mode:screen" opacity="0.3" fill-rule="evenodd" clip-rule="evenodd"
            d="M236.72 58.8491C236.72 58.8491 240.048 96.2822 252.33 127.109C264.607 157.931 288.175 163.157 298.474 174.541C308.77 185.924 335.776 201.077 344.488 195.034L343.73 218.843C343.73 218.843 247.167 180.355 220.292 55.5034L236.72 58.8533V58.8491Z"
            fill="url(#paint11_radial_1345_31316)" />
        <path style="mix-blend-mode:screen" opacity="0.3" fill-rule="evenodd" clip-rule="evenodd"
            d="M84.1325 284.909C84.1325 284.909 125.178 273.75 175.414 281.28C240.455 291.024 253.994 295.886 259.775 302.823C265.551 309.756 267.694 326.264 267.694 326.264L274.788 322.198C274.788 322.198 271.167 290.114 263.353 284.913C255.54 279.713 194.289 290.427 129.955 268.888L76.0479 272.877L84.1409 284.913L84.1325 284.909Z"
            fill="url(#paint12_radial_1345_31316)" />
        <path style="mix-blend-mode:screen" opacity="0.3" fill-rule="evenodd" clip-rule="evenodd"
            d="M276.418 245.896C273.645 238.485 233.293 228.63 226.632 233.996C221.131 238.43 257.111 280.145 265.937 281.246C274.763 282.347 279.188 253.303 276.414 245.896H276.418ZM261.702 268.888C251.301 266.927 227.568 242.652 232.811 237.714C237.156 233.623 269.41 244.266 271.718 250.288C274.03 256.31 272.103 270.849 261.702 268.888Z"
            fill="url(#paint13_radial_1345_31316)" />
        <path fill-rule="evenodd" clip-rule="evenodd"
            d="M187.932 201.886C184.76 190.816 168.172 57.5701 168.172 57.5701L165.029 58.3027C165.029 58.3027 191.214 188.821 169.256 192.523C151.986 195.436 63.2581 151.807 63.2581 151.807L61.2761 158.122C61.2761 158.122 171.738 192.463 212.91 228.512C226.941 240.802 238.985 254.891 248.624 268.371C253.139 274.686 248.683 283.406 240.938 283.469C127.609 284.354 57.6467 223.421 57.6467 223.421L58.5911 228.423C58.5911 228.423 127.821 264.988 120.896 268.892C113.972 272.797 73.655 268.77 73.655 268.77L76.0351 272.886C76.0351 272.886 108.484 270.171 150.207 275.965C185.434 280.814 244.961 288.195 262.714 290.389C271.955 306.736 276.317 319.361 274.792 322.198L281.682 317.777C270.278 285.938 272.869 250.224 289.644 248.336C306.389 246.447 334.141 252.393 334.141 252.393L336.915 244.799C244.355 249.191 191.109 212.99 187.937 201.89L187.932 201.886ZM183.511 206.125C180.796 206.219 170.518 198.591 171.738 197.372C172.805 196.304 179.441 181.833 181.576 183.786C183.68 185.708 186.196 206.032 183.511 206.125ZM124.742 268.888C124.742 268.888 125.322 266.813 126.296 266.419C127.24 266.021 146.12 272.581 144.989 273.343C143.829 274.135 124.738 271.239 124.738 268.892L124.742 268.888ZM268.262 277.121C261.308 276.57 219.373 237.32 226.632 233.996C231.879 231.586 269.604 240.552 272.865 247.811C276.16 255.099 275.182 277.638 268.262 277.117V277.121Z"
            fill="url(#paint14_linear_1345_31316)" />
        <path fill-rule="evenodd" clip-rule="evenodd"
            d="M216.442 56.5114C216.442 56.5114 226.416 99.4458 265.839 152.811C305.263 206.176 342.213 224.205 342.213 224.205L343.721 214.667C343.721 214.667 309.854 209.209 270.125 156.483C223.684 94.8466 224.048 56.1175 224.048 56.1175L216.442 56.5156V56.5114Z"
            fill="url(#paint15_linear_1345_31316)" />
        <path style="mix-blend-mode:screen" fill-rule="evenodd" clip-rule="evenodd"
            d="M59.5143 184.845C61.4624 214.261 128.109 166.223 192.438 144.68C267.965 119.388 324.807 173.338 333.172 170.335C346.27 165.63 293.197 58.2392 207.265 60.1238C110.453 62.2456 56.3677 137.366 59.5143 184.849V184.845Z"
            fill="url(#paint16_linear_1345_31316)" />
        <path fill-rule="evenodd" clip-rule="evenodd"
            d="M71.182 160.506C71.0676 166.02 84.5984 161.027 97.2526 144.832C109.907 128.638 119.203 91.8439 115.171 87.6513C111.143 83.4586 71.9781 122.323 71.1777 160.506H71.182Z"
            fill="white" />
        <path fill-rule="evenodd" clip-rule="evenodd"
            d="M70.4111 168.417C63.9316 168.315 61.6193 180.504 64.5414 186.53C67.4636 192.557 73.0241 191.108 75.5059 180.512C77.0347 173.986 75.76 168.502 70.4111 168.417Z"
            fill="white" />
        <path
            d="M297.7 333.663C334.972 312.144 354.931 276.934 342.278 255.019C329.626 233.105 289.154 232.784 251.881 254.303C214.609 275.823 194.65 311.033 207.303 332.947C219.955 354.862 260.427 355.183 297.7 333.663Z"
            fill="url(#paint17_radial_1345_31316)" style="mix-blend-mode:screen" />
        <path style="mix-blend-mode:screen" fill-rule="evenodd" clip-rule="evenodd"
            d="M133.525 320.695C133.525 320.695 202.099 344.58 267.584 308.367C333.074 272.153 343.861 190.469 343.861 190.469C343.861 190.469 335.823 286.531 272.594 317.188C209.362 347.841 162.031 338.418 133.525 320.695Z"
            fill="url(#paint18_radial_1345_31316)" />
        <path
            d="M143.486 169.043C181.026 142.952 197.897 102.29 181.169 78.2205C164.44 54.1515 120.447 55.7907 82.9069 81.8818C45.3667 107.973 28.4954 148.636 45.2238 172.705C61.9522 196.774 105.946 195.135 143.486 169.043Z"
            fill="url(#paint19_radial_1345_31316)" style="mix-blend-mode:screen" />
    </g>
    <defs>
        <radialGradient id="paint0_radial_1345_31316" cx="0" cy="0" r="1"
            gradientUnits="userSpaceOnUse"
            gradientTransform="translate(200.002 200.014) scale(200.002)">
            <stop stop-color="#FF3600" />
            <stop offset="1" stop-color="#FF3600" stop-opacity="0" />
        </radialGradient>
        <radialGradient id="paint1_radial_1345_31316" cx="0" cy="0" r="1"
            gradientUnits="userSpaceOnUse"
            gradientTransform="translate(200.002 200.014) scale(167.647)">
            <stop stop-color="#FF7300" />
            <stop offset="1" stop-color="#FF7300" stop-opacity="0" />
        </radialGradient>
        <radialGradient id="paint2_radial_1345_31316" cx="0" cy="0" r="1"
            gradientUnits="userSpaceOnUse"
            gradientTransform="translate(200.002 200.014) scale(151.96)">
            <stop stop-color="#FF7900" />
            <stop offset="1" stop-color="#FF7900" stop-opacity="0" />
        </radialGradient>
        <radialGradient id="paint3_radial_1345_31316" cx="0" cy="0" r="1"
            gradientUnits="userSpaceOnUse"
            gradientTransform="translate(110.517 131.022) scale(255.383 255.383)">
            <stop stop-color="#FF7263" />
            <stop offset="0.21" stop-color="#FC6E62" />
            <stop offset="0.37" stop-color="#F36561" />
            <stop offset="0.51" stop-color="#E4545F" />
            <stop offset="0.64" stop-color="#D03D5D" />
            <stop offset="0.77" stop-color="#B51F5A" />
            <stop offset="0.88" stop-color="#9A0057" />
            <stop offset="0.99" stop-color="#9A00AE" />
        </radialGradient>
        <linearGradient id="paint4_linear_1345_31316" x1="55.5125" y1="158.96" x2="263.354"
            y2="158.96" gradientUnits="userSpaceOnUse">
            <stop offset="0.01" stop-color="#FF9D85" />
            <stop offset="0.29" stop-color="#FF9A83" />
            <stop offset="0.49" stop-color="#FF907F" />
            <stop offset="0.67" stop-color="#FF8078" />
            <stop offset="0.84" stop-color="#FF6A6E" />
            <stop offset="1" stop-color="#FF4D61" />
        </linearGradient>
        <linearGradient id="paint5_linear_1345_31316" x1="141.759" y1="233.372" x2="133.051"
            y2="242.08" gradientUnits="userSpaceOnUse">
            <stop offset="0.01" stop-color="#FF9D85" />
            <stop offset="0.29" stop-color="#FF9A83" />
            <stop offset="0.49" stop-color="#FF907F" />
            <stop offset="0.67" stop-color="#FF8078" />
            <stop offset="0.84" stop-color="#FF6A6E" />
            <stop offset="1" stop-color="#FF4D61" />
        </linearGradient>
        <linearGradient id="paint6_linear_1345_31316" x1="295.939" y1="93.1771" x2="97.8914"
            y2="291.225" gradientUnits="userSpaceOnUse">
            <stop offset="0.01" stop-color="#FF9D85" />
            <stop offset="0.29" stop-color="#FF9A83" />
            <stop offset="0.49" stop-color="#FF907F" />
            <stop offset="0.67" stop-color="#FF8078" />
            <stop offset="0.84" stop-color="#FF6A6E" />
            <stop offset="1" stop-color="#FF4D61" />
        </linearGradient>
        <linearGradient id="paint7_linear_1345_31316" x1="96.8312" y1="232.95" x2="63.2738"
            y2="266.507" gradientUnits="userSpaceOnUse">
            <stop offset="0.01" stop-color="#FF9D85" />
            <stop offset="0.29" stop-color="#FF9A83" />
            <stop offset="0.49" stop-color="#FF907F" />
            <stop offset="0.67" stop-color="#FF8078" />
            <stop offset="0.84" stop-color="#FF6A6E" />
            <stop offset="1" stop-color="#FF4D61" />
        </linearGradient>
        <radialGradient id="paint8_radial_1345_31316" cx="0" cy="0" r="1"
            gradientUnits="userSpaceOnUse"
            gradientTransform="translate(94.4108 100.255) scale(190.173 190.173)">
            <stop stop-color="#FFFF4A" />
            <stop offset="1" />
        </radialGradient>
        <radialGradient id="paint9_radial_1345_31316" cx="0" cy="0" r="1"
            gradientUnits="userSpaceOnUse"
            gradientTransform="translate(264.052 200.688) scale(104.554 104.554)">
            <stop stop-color="white" />
            <stop offset="1" stop-color="#623964" />
        </radialGradient>
        <radialGradient id="paint10_radial_1345_31316" cx="0" cy="0" r="1"
            gradientUnits="userSpaceOnUse"
            gradientTransform="translate(204.233 260.287) scale(106.781 106.781)">
            <stop stop-color="white" />
            <stop offset="1" stop-color="#623964" />
        </radialGradient>
        <radialGradient id="paint11_radial_1345_31316" cx="0" cy="0" r="1"
            gradientUnits="userSpaceOnUse"
            gradientTransform="translate(288.708 178.704) scale(78.4788 78.4788)">
            <stop stop-color="white" />
            <stop offset="1" stop-color="#623964" />
        </radialGradient>
        <radialGradient id="paint12_radial_1345_31316" cx="0" cy="0" r="1"
            gradientUnits="userSpaceOnUse"
            gradientTransform="translate(185.535 312.166) scale(103.203 103.203)">
            <stop stop-color="white" />
            <stop offset="1" stop-color="#623964" />
        </radialGradient>
        <radialGradient id="paint13_radial_1345_31316" cx="0" cy="0" r="1"
            gradientUnits="userSpaceOnUse"
            gradientTransform="translate(264.836 272.031) scale(30.9155 30.9155)">
            <stop stop-color="white" />
            <stop offset="1" stop-color="#623964" />
        </radialGradient>
        <linearGradient id="paint14_linear_1345_31316" x1="57.6467" y1="189.884" x2="336.911"
            y2="189.884" gradientUnits="userSpaceOnUse">
            <stop offset="0.01" stop-color="#FFBB85" />
            <stop offset="0.21" stop-color="#FDB886" />
            <stop offset="0.36" stop-color="#F8AE8C" />
            <stop offset="0.49" stop-color="#F09E95" />
            <stop offset="0.61" stop-color="#E588A1" />
            <stop offset="0.72" stop-color="#D66BB2" />
            <stop offset="0.83" stop-color="#C447C6" />
            <stop offset="0.94" stop-color="#AF1DDE" />
            <stop offset="1" stop-color="#A100EF" />
        </linearGradient>
        <linearGradient id="paint15_linear_1345_31316" x1="216.442" y1="140.161" x2="343.725"
            y2="140.161" gradientUnits="userSpaceOnUse">
            <stop offset="0.01" stop-color="#FF9D85" />
            <stop offset="0.23" stop-color="#FD9A86" />
            <stop offset="0.38" stop-color="#F7908D" />
            <stop offset="0.52" stop-color="#EE8098" />
            <stop offset="0.65" stop-color="#E06AA7" />
            <stop offset="0.77" stop-color="#CF4DBA" />
            <stop offset="0.89" stop-color="#BA29D2" />
            <stop offset="1" stop-color="#A100EF" />
        </linearGradient>
        <linearGradient id="paint16_linear_1345_31316" x1="115.526" y1="83.5437" x2="277.435"
            y2="231.227" gradientUnits="userSpaceOnUse">
            <stop offset="0.02" stop-color="#FF9346" />
            <stop offset="0.21" stop-color="#BB6B33" />
            <stop offset="0.43" stop-color="#794521" />
            <stop offset="0.62" stop-color="#452712" />
            <stop offset="0.78" stop-color="#1F1208" />
            <stop offset="0.92" stop-color="#080402" />
            <stop offset="1" />
        </linearGradient>
        <radialGradient id="paint17_radial_1345_31316" cx="0" cy="0" r="1"
            gradientUnits="userSpaceOnUse"
            gradientTransform="translate(272.8 299.216) rotate(60) scale(46.1136 78.2533)">
            <stop stop-color="#0092FF" />
            <stop offset="1" stop-color="#0092FF" stop-opacity="0" />
        </radialGradient>
        <radialGradient id="paint18_radial_1345_31316" cx="0" cy="0" r="1"
            gradientUnits="userSpaceOnUse"
            gradientTransform="translate(265.662 309.709) scale(91.1372 91.1372)">
            <stop stop-color="#5E5ED9" />
            <stop offset="1" />
        </radialGradient>
        <radialGradient id="paint19_radial_1345_31316" cx="0" cy="0" r="1"
            gradientUnits="userSpaceOnUse"
            gradientTransform="translate(114.309 123.969) rotate(-34.8) scale(82.9315 53.1358)">
            <stop stop-color="#FFBB00" />
            <stop offset="1" stop-color="#FFBB00" stop-opacity="0" />
        </radialGradient>
        <clipPath id="clip0_1345_31316">
            <rect width="400" height="400" fill="white" transform="translate(0 0.012207)" />
        </clipPath>
    </defs>
</svg>
    