<svg width="400" height="401" viewBox="0 0 400 401" fill="none" xmlns="http://www.w3.org/2000/svg">
    <path
        d="M271.132 269.566C310.184 230.514 310.184 167.197 271.132 128.145C232.08 89.0924 168.763 89.0924 129.711 128.145C90.6582 167.197 90.6582 230.514 129.711 269.566C168.763 308.619 232.08 308.619 271.132 269.566Z"
        fill="url(#paint0_radial_1345_24449)" style="mix-blend-mode:screen" />
    <path fill-rule="evenodd" clip-rule="evenodd"
        d="M195.545 44.4954C281.47 44.4954 351.09 114.116 351.09 200.04C351.09 285.965 281.47 355.585 195.545 355.585C109.62 355.585 40 285.917 40 199.992C40 114.067 109.669 44.4954 195.545 44.4954Z"
        fill="url(#paint1_radial_1345_24449)" />
    <path style="mix-blend-mode:screen" fill-rule="evenodd" clip-rule="evenodd"
        d="M195.545 44.4954C281.47 44.4954 351.09 114.116 351.09 200.04C351.09 285.965 281.47 355.585 195.545 355.585C109.62 355.585 40 285.917 40 199.992C40 114.067 109.669 44.4954 195.545 44.4954Z"
        fill="url(#paint2_radial_1345_24449)" />
    <path style="mix-blend-mode:screen" fill-rule="evenodd" clip-rule="evenodd"
        d="M79.7208 144.983C76.8663 142.999 76.9147 139.903 71.0606 139.758C65.4968 139.661 61.5779 145.225 59.5459 151.176C53.1112 169.899 53.9337 195.347 61.723 213.442C64.6743 220.312 69.077 226.456 73.528 232.456C79.624 240.68 92.0579 252.098 103.524 248.179C108.411 246.486 112.184 242.47 116.926 240.39C120.264 238.939 123.893 238.31 127.424 237.777C132.408 237.052 137.536 237.1 142.568 236.616C156.792 235.358 152.824 231.923 162.597 228.246C165.839 227.037 169.516 227.279 172.854 226.214C175.467 225.392 178.031 224.231 180.353 222.731C188.433 217.506 176.58 217.167 173.29 217.554C171.548 217.748 170 218.619 168.403 219.296C165.21 220.602 162.21 222.537 158.872 223.457C156.018 224.231 153.018 224.666 150.067 224.328C146.003 223.892 142.229 221.957 138.262 221.134C135.939 220.651 134.682 220.941 132.359 220.409C130.279 219.925 128.053 219.538 126.312 218.232C116.974 211.361 126.65 200.427 138.988 201.347C143.293 201.685 147.454 201.83 149.486 200.476C150.018 200.137 150.115 199.169 149.776 198.589C149.438 197.96 148.954 197.428 148.422 196.896C145.761 194.186 143.148 191.09 144.6 186.881C145.084 185.526 146.051 184.413 147.744 183.736C150.502 182.672 153.647 183.736 156.55 183.155C158.05 182.865 159.743 182.43 160.711 181.268C162.404 179.382 162.646 176.527 164.194 174.495C170.193 166.609 186.111 169.125 195.497 167.286C199.512 166.512 203.77 165.448 207.011 162.98C210.011 160.707 211.075 150.498 214.51 147.402C217.8 144.402 222.3 143.193 226.315 141.354C235.895 137 243.007 137.774 248.522 127.227C250.361 123.647 250.119 119.244 252.006 115.712C253.409 113.051 259.65 110.39 260.811 107.633C268.697 89.0059 240.104 55.4779 218.429 58.4775C205.85 60.2192 210.446 62.8802 217.171 66.412C232.218 74.2497 241.12 81.2166 239.91 99.553C239.378 107.971 229.992 106.423 227.815 107.487C227.041 107.875 226.847 108.939 226.799 109.81C226.654 113.583 228.154 117.502 227.234 121.179C226.315 124.856 224.283 128.34 221.622 131.001C219.348 133.275 216.058 134.484 212.962 135.307C209.721 136.226 206.237 136.371 202.85 136.177C198.835 135.935 194.626 135.645 191.045 133.855C182.821 129.888 180.402 120.357 183.256 111.939C184.127 109.326 186.401 107.439 187.707 105.02C189.159 102.456 186.207 100.375 192.255 96.4566C197.093 93.3118 202.56 88.0867 186.401 92.9248C179.918 94.86 172.854 95.7793 175.467 102.601C176.096 104.198 176.87 105.794 177.063 107.487C179.047 127.275 165.839 123.211 149.825 126.211C146.777 126.791 143.68 126.937 140.729 127.953C138.068 128.872 135.94 131.049 133.23 131.823C127.715 133.42 119.683 131.968 114.216 133.71C112.959 134.097 111.749 135.403 111.604 136.758C111.459 138.548 116.345 141.935 111.701 146.144C108.459 149.095 101.879 149.289 97.525 149.337C91.1871 149.434 84.4137 148.079 79.7208 144.838V144.983ZM98.1539 209.426C138.262 207.975 121.861 236.326 102.315 229.166C99.2183 228.053 96.2187 226.505 93.6545 224.424C87.0747 219.054 91.4774 209.668 98.1056 209.426H98.1539Z"
        fill="url(#paint3_radial_1345_24449)" />
    <path fill-rule="evenodd" clip-rule="evenodd"
        d="M45.1285 239.664C44.306 243.825 42.8062 247.889 42.7095 252.098C42.7095 253.501 44.0158 254.614 44.8866 255.678C46.58 257.807 48.1765 260.129 50.4504 261.678C53.5952 263.855 58.9171 262.887 62.2554 263.758C63.7552 264.145 64.868 265.5 66.3678 265.984C68.3998 266.709 70.6253 266.661 72.6573 267.338C73.5765 267.628 79.0436 269.951 75.6086 271.499C74.5442 271.983 73.2863 271.354 72.1251 271.644C71.3026 271.838 70.4318 272.225 69.8028 272.854C68.4965 274.257 67.8676 276.192 66.5613 277.595C65.3518 278.901 62.5457 277.643 61.5297 276.627C59.4493 274.499 57.756 272.08 56.2562 269.322C55.4821 271.209 55.2401 273.096 54.9499 275.031C54.6112 277.45 54.3693 279.869 54.4661 282.288C54.4661 282.869 54.8047 283.449 55.2402 283.788C58.7236 286.497 71.3994 293.416 74.9312 294.528C77.8825 295.448 80.8337 296.173 83.8817 296.754C92.0097 298.35 90.5099 296.173 97.8154 293.512C101.831 292.061 105.943 290.706 110.153 289.787C118.958 287.852 128.054 287.174 136.811 284.9C143.245 283.207 149.293 280.256 155.534 277.982C160.13 276.337 164.63 274.208 169.468 273.144C171.451 272.708 173.628 272.902 175.515 273.579C176.967 274.112 178.225 275.224 179.047 276.531C179.724 277.643 179.966 279.046 179.821 280.353C179.676 281.562 179.096 282.772 178.225 283.594C176.483 285.191 174.064 285.917 172.225 287.416C170.58 288.771 169.129 290.416 167.919 292.158C166.952 293.561 166.855 295.544 165.742 296.851C164.678 298.109 163.13 298.883 161.63 299.512C157.566 301.253 153.212 302.366 149.099 303.963C147.648 304.543 146.293 305.221 144.987 306.043C141.407 308.365 138.31 311.558 134.44 313.397C131.489 314.8 128.15 315.187 124.909 315.574C118.813 316.3 112.62 316.155 106.476 316.638C102.025 317.025 97.4284 318.864 93.0257 316.929C91.6227 320.799 90.9453 327.766 92.3484 332.943C93.1709 335.894 96.4608 337.684 99.1217 339.232C101.686 340.684 104.782 341.071 107.685 341.603C113.007 342.571 118.522 342.571 123.844 343.635C126.263 344.119 128.586 345.086 130.86 346.102C133.424 347.264 135.795 348.86 138.262 350.118C140.681 351.376 143.052 352.731 145.616 353.65C147.841 354.424 150.115 355.005 152.486 355.15C155.824 355.343 159.163 354.908 162.501 354.666C165.887 354.376 169.274 353.989 172.661 353.456C174.112 353.214 175.515 352.682 176.967 352.392C182.24 351.279 187.611 350.554 192.836 349.296C196.755 348.328 200.577 347.022 204.35 345.715C210.301 343.635 216.155 341.313 222.009 338.99C230.476 335.652 238.943 332.362 247.313 328.734C250.07 327.573 252.731 326.169 255.296 324.718C263.714 319.88 272.084 314.993 280.212 309.72C286.405 305.704 292.404 301.398 298.209 296.899C303.531 292.787 308.66 288.432 313.643 283.933C317.949 280.062 322.013 275.95 326.125 271.838C327.48 270.483 328.496 268.79 329.947 267.58C330.189 267.387 330.576 267.822 330.673 268.064C331.738 272.563 315.53 291.384 311.708 294.577C308.757 297.044 305.612 299.318 302.612 301.785C298.5 305.172 294.629 308.801 290.517 312.187C287.517 314.655 284.518 317.171 281.276 319.299C275.712 323.073 269.858 326.363 264.053 330.33C259.892 333.136 255.441 336.62 251.425 339.184C248.135 341.313 245.329 342.087 241.846 343.442C236.862 345.377 232.024 347.602 226.993 349.344C224.138 350.312 221.09 350.747 218.187 351.57C213.494 352.876 209.866 354.23 205.028 355.15C214.268 356.117 219.639 358.875 225.203 356.359C227.476 355.295 229.363 353.408 231.686 352.489C235.314 351.037 239.136 350.07 242.91 349.247C252.489 347.167 266.81 344.845 271.89 341.603C274.938 339.668 276.68 336.62 279.534 334.394C281.615 332.749 284.131 331.733 286.308 330.233C293.855 324.912 301.838 319.88 308.079 313.058C315.24 305.221 319.787 295.351 326.077 286.836C331.302 279.724 338.995 273.821 342.527 265.209C344.268 260.952 344.123 256.114 345.284 251.663C346.3 247.841 347.413 244.019 349.01 240.438C355.589 225.779 357.767 226.65 359.653 208.023C360.089 203.717 359.992 199.266 359.073 195.057C358.347 191.67 355.928 188.816 354.767 185.526C353.509 181.994 352.88 178.269 351.719 174.737C350.945 172.318 350.074 169.947 349.106 167.625C348.09 165.206 346.929 162.932 345.816 160.561C346.687 165.158 347.8 169.705 348.477 174.35C349.687 183.059 350.122 192.88 349.639 201.685C348.09 229.408 337.446 249.824 318.142 269.564C313.595 274.208 309.095 278.998 304.015 283.11C301.741 284.997 298.887 286.11 296.226 287.368C292.549 289.061 288.727 290.368 285.002 291.964C281.228 293.609 277.357 295.012 273.777 296.996C271.455 298.302 269.568 300.189 267.439 301.834C265.165 303.576 262.988 305.511 260.569 307.107C257.666 308.946 254.667 310.639 251.57 312.091C245.377 314.945 239.088 317.509 232.75 319.928C228.734 321.477 222.929 324.476 215.091 325.541C214.365 325.637 213.398 325.637 213.011 325.057C212.72 324.621 213.252 323.847 213.736 323.605C219.203 320.848 223.558 318.332 228.154 315.187C232.315 312.333 235.798 308.51 239.959 305.608C243.249 303.285 247.168 301.979 250.409 299.608C252.828 297.818 254.957 295.544 256.844 293.174C260.327 288.771 262.988 283.788 266.52 279.385C268.697 276.676 271.116 274.063 273.874 271.886C276.438 269.854 279.389 268.209 282.389 266.854C286.308 265.113 290.807 264.822 294.484 262.694C297.048 261.242 299.129 258.872 300.677 256.356C303.193 252.34 304.16 247.454 306.579 243.39C310.256 237.197 314.707 231.44 318.965 225.682C322.352 221.134 325.835 216.635 329.56 212.329C330.625 211.071 331.979 210.007 333.382 209.136C333.963 208.797 334.689 208.652 335.318 208.846C336.527 209.184 336.672 210.878 339.333 210.587C343.542 210.152 345.091 204.153 346.203 200.621C347.316 197.041 348.477 187.074 348.381 183.107C348.381 182.381 348.235 181.414 347.51 181.075C347.171 180.93 346.687 181.462 346.107 181.22C345.623 181.075 345.381 180.446 345.284 179.962C344.365 174.495 344.026 168.883 343.349 163.367C343.01 160.561 342.817 157.707 342.188 154.949C341.801 153.256 341.075 151.659 340.301 150.111C340.059 149.627 339.672 149.047 339.14 148.902C338.801 148.805 338.608 149.385 338.366 149.627C338.027 149.869 337.737 150.208 337.35 150.256C336.769 150.353 335.85 150.498 335.608 149.966C335.318 149.143 335.076 148.321 334.931 147.498C333.866 142.418 333.141 137.484 331.979 132.307C331.786 131.533 331.447 130.759 331.351 129.985C331.351 129.839 331.447 129.549 331.641 129.549C331.883 129.549 332.076 129.839 332.173 130.033C332.899 131.339 333.479 132.694 334.157 134C334.737 135.161 335.366 136.468 335.947 137.532C336.479 138.5 336.818 137.677 336.818 137.387C336.818 135.597 336.576 133.758 336.092 132.065C335.124 128.63 334.011 125.292 332.56 122.05C330.673 117.793 328.786 110.003 327.528 108.794C321.916 103.423 313.208 96.0695 307.402 88.764C301.064 80.7811 292.839 65.0089 285.63 60.3643C283.26 58.8161 279.486 61.0416 270.487 56.4938C264.972 53.6877 260.327 50.7849 255.296 47.2047C250.941 44.1083 201.883 42.5117 186.74 44.7373C186.982 46.9628 190.562 47.6401 192.932 47.6885C195.98 47.7369 198.98 47.0112 202.028 46.8176C202.512 46.8176 203.334 46.5757 203.48 47.0112C203.576 47.495 202.754 47.7369 202.318 48.0272C200.48 49.3334 198.787 50.0592 197.19 51.8976C195.787 53.591 199.222 53.3491 199.996 53.4458C204.108 53.7361 211.172 53.978 212.865 54.0748C215.865 54.2199 218.913 53.591 221.864 53.9296C225.106 54.3167 228.396 55.0908 231.444 56.2519C233.573 57.026 235.266 58.7194 237.298 59.7354C240.733 61.4287 244.168 63.2672 247.797 64.4283C249.877 65.1057 252.199 64.6702 254.376 65.0573C255.489 65.2508 256.505 65.9281 257.618 66.2668C259.214 66.799 261.053 66.799 262.504 67.6215C264.391 68.7342 266.23 70.1857 267.488 72.0241C268.987 74.2013 269.568 76.8622 270.439 79.378C271.455 82.3777 271.842 85.6192 273.1 88.5221C273.777 90.0702 274.987 91.2798 276.148 92.4893C278.277 94.7148 280.454 97.0855 283.018 98.8272C285.34 100.424 286.017 97.3758 286.501 96.9404C286.695 96.7468 287.082 96.7952 287.372 96.9404C287.953 97.2306 288.63 97.5209 288.969 98.1015C289.646 99.3594 290.13 100.762 290.614 102.117C291.533 104.633 291.339 104.633 293.275 106.23C294.581 107.342 295.984 108.358 297.242 109.568C298.113 110.439 299.032 111.31 299.613 112.374C300.387 113.825 300.87 115.374 301.209 116.97C301.548 118.567 301.306 120.212 301.548 121.808C301.645 122.486 301.983 123.114 302.322 123.695C303.193 125.001 304.451 126.066 305.225 127.42C306.047 128.92 306.289 130.662 307.015 132.162C307.886 133.903 309.676 135.306 310.111 137.193C311.079 141.161 308.998 148.224 307.015 151.659C305.709 153.933 303.628 155.675 301.886 157.658C299.758 160.126 297.387 162.351 295.549 165.012C294.339 166.803 293.71 168.931 292.791 170.915C291.001 174.882 289.646 179.091 287.469 182.865C285.776 185.816 283.55 188.429 281.276 190.945C278.615 193.896 275.809 196.654 272.761 199.218C269.084 202.314 264.972 204.927 261.246 207.926C257.715 210.781 254.473 213.974 250.845 216.732C246.877 219.731 242.862 222.634 238.604 225.15C235.169 227.134 231.492 228.633 227.864 230.182C225.299 231.294 222.59 232.068 220.026 233.23C217.945 234.149 215.962 235.358 213.978 236.471C210.592 238.31 207.302 240.293 203.867 242.083C200.48 243.873 197.19 245.809 193.61 247.212C191.529 248.034 189.304 248.518 187.03 248.808C186.159 248.905 185.192 248.808 184.514 248.324C184.079 248.034 183.934 247.26 184.224 246.825C184.853 245.809 185.917 245.083 186.982 244.502C190.9 242.277 194.964 240.438 199.028 238.455C203.383 236.326 207.931 234.439 212.236 232.117C215.43 230.375 218.574 228.537 221.526 226.36C225.348 223.553 229.121 220.554 232.46 217.215C237.346 212.329 241.604 206.814 246.297 201.782C248.522 199.411 250.845 197.234 253.215 195.009C255.634 192.783 258.247 190.799 260.569 188.429C263.569 185.429 266.423 182.333 269.084 179.043C271.455 176.092 273.68 172.995 275.712 169.802C277.551 166.948 279.776 164.19 280.744 160.948C282.582 154.659 283.066 148.031 283.986 141.548C284.421 138.403 284.953 135.21 284.905 132.017C284.905 129.017 283.792 126.066 283.84 123.066C283.84 121.566 284.614 120.115 285.05 118.663C285.389 117.599 286.018 116.583 286.114 115.47C286.259 114.261 285.63 107.342 285.243 106.326C283.744 102.311 280.454 101.295 276.728 103.133C275.374 103.81 273.922 106.665 273.487 108.02C272.906 109.955 272.858 111.987 272.326 113.922C271.213 118.034 269.81 117.938 265.746 119.244C262.601 120.26 259.263 120.599 256.166 121.711C255.15 122.05 254.134 122.631 253.554 123.502C252.877 124.566 252.828 125.872 252.683 127.082C252.538 128.533 252.973 130.033 252.635 131.388C251.667 135.258 247.071 138.161 244.265 140.774C243.055 141.935 242.136 143.483 240.685 144.305C238.556 145.466 236.137 145.902 233.766 146.482C230.96 147.16 228.009 147.257 225.203 147.982C223.364 148.466 221.526 149.192 219.881 150.159C218.72 150.837 217.655 151.708 216.833 152.772C216.446 153.256 216.494 154.03 216.494 154.659C216.494 155.046 216.639 155.433 216.929 155.723C217.268 156.062 217.849 155.965 218.139 156.304C218.961 157.175 218.139 159.545 216.929 160.61C216.204 161.287 214.946 161.142 214.22 161.819C213.107 162.884 212.672 164.48 211.704 165.641C208.076 169.851 202.076 174.06 196.368 174.495C193.465 174.737 190.562 174.205 187.659 174.205C184.03 174.205 180.353 174.253 176.725 174.495C171.161 174.834 167.339 174.543 164.243 179.769C163.468 181.123 163.081 182.72 162.162 183.929C161.63 184.655 160.759 185.139 159.937 185.429C158.824 185.865 157.614 186.01 156.405 186.155C154.76 186.348 153.018 185.961 151.422 186.445C150.599 186.687 150.019 187.461 149.535 188.187C149.051 188.961 148.47 189.929 148.615 190.848C148.761 191.815 149.97 192.348 150.26 193.315C150.502 194.041 149.873 194.863 150.115 195.638C150.357 196.412 150.841 197.234 151.567 197.67C152.244 198.105 153.115 198.008 153.889 198.008C156.018 198.153 158.243 197.766 160.324 198.153C162.888 198.637 162.839 202.121 160.759 202.556C157.808 203.185 154.711 203.233 151.663 203.475C150.938 203.524 150.164 203.185 149.438 203.33C147.648 203.766 146.003 204.975 144.164 205.217C141.987 205.459 139.762 204.346 137.585 204.733C135.407 205.12 133.617 206.668 131.537 207.394C130.086 207.878 128.392 207.684 126.989 208.313C122.345 210.491 122.538 215.377 126.796 216.296C130.376 217.07 134.198 216.441 137.827 216.925C144.697 217.893 146.051 219.344 154.711 218.86C158.485 218.619 162.307 218.28 165.936 217.264C167.532 216.828 168.548 215.183 170.097 214.651C171.983 214.022 174.257 214.651 176.096 213.78C177.692 213.055 178.321 211.023 179.821 210.2C181.418 209.329 183.353 209.329 185.143 208.894C187.949 208.265 190.707 207.588 193.513 207.007C195.448 206.62 199.464 206.039 199.125 209.378C198.98 210.829 198.496 212.281 197.674 213.49C196.416 215.329 194.819 216.974 192.981 218.231C190.9 219.731 188.24 220.312 186.062 221.715C184.611 222.586 183.692 224.279 182.192 224.956C178.225 226.747 173.919 227.714 169.806 229.117C167.097 230.036 164.291 230.811 161.678 231.923C160.807 232.31 160.082 232.939 159.308 233.52C157.518 234.778 155.824 236.229 153.986 237.39C152.438 238.358 150.841 239.374 149.099 239.906C145.132 241.164 141.02 241.987 136.907 242.857C134.391 243.39 131.827 243.583 129.36 244.067C126.263 244.696 123.215 245.422 120.216 246.244C117.845 246.873 115.474 247.647 113.152 248.421C111.41 249.002 109.766 249.873 107.975 250.356C106.524 250.744 105.073 250.889 103.573 250.985C99.5571 251.324 95.4931 251.518 91.4775 251.711C88.5263 251.856 85.575 252.001 82.6238 252.05C80.5918 252.05 78.5114 252.292 76.4794 252.001C72.6573 251.421 68.932 250.26 65.1583 249.34C62.7392 248.76 60.3685 248.083 57.9495 247.454C56.4013 247.067 54.8047 246.873 53.3533 246.389C51.9986 245.905 50.5472 245.422 49.4828 244.502C47.6927 243.003 46.4348 241.019 44.935 239.277L45.1285 239.664ZM87.4135 211.845C86.3975 212.91 85.575 214.361 85.3815 215.812C84.559 222.247 94.9126 226.65 101.444 228.295C104.686 229.117 106.572 228.827 111.652 226.166C112.426 225.779 113.588 225.779 114.023 225.005C114.991 223.457 114.846 221.473 115.62 219.828C116.249 218.473 117.603 217.457 118.232 216.103C118.522 215.474 118.571 214.603 118.232 214.022C117.652 212.91 116.829 211.748 115.62 211.265C111.314 209.62 91.1389 207.926 87.3651 211.845H87.4135Z"
        fill="url(#paint4_radial_1345_24449)" />
    <path style="mix-blend-mode:multiply" fill-rule="evenodd" clip-rule="evenodd"
        d="M45.1285 239.664C44.306 243.825 42.8062 247.889 42.7095 252.098C42.7095 253.501 44.0158 254.614 44.8866 255.678C46.58 257.807 48.1765 260.129 50.4504 261.678C53.5952 263.855 58.9171 262.887 62.2554 263.758C63.7552 264.145 64.868 265.5 66.3678 265.984C68.3998 266.709 70.6253 266.661 72.6573 267.338C73.5765 267.628 79.0436 269.951 75.6086 271.499C74.5442 271.983 73.2863 271.354 72.1251 271.644C71.3026 271.838 70.4318 272.225 69.8028 272.854C68.4965 274.257 67.8676 276.192 66.5613 277.595C65.3518 278.901 62.5457 277.643 61.5297 276.627C59.4493 274.499 57.756 272.08 56.2562 269.322C55.4821 271.209 55.2401 273.096 54.9499 275.031C54.6112 277.45 54.3693 279.869 54.4661 282.288C54.4661 282.869 54.8047 283.449 55.2402 283.788C58.7236 286.497 71.3994 293.416 74.9312 294.528C77.8825 295.448 80.8337 296.173 83.8817 296.754C92.0097 298.35 90.5099 296.173 97.8154 293.512C101.831 292.061 105.943 290.706 110.153 289.787C118.958 287.852 128.054 287.174 136.811 284.9C143.245 283.207 149.293 280.256 155.534 277.982C160.13 276.337 164.63 274.208 169.468 273.144C171.451 272.708 173.628 272.902 175.515 273.579C176.967 274.112 178.225 275.224 179.047 276.531C179.724 277.643 179.966 279.046 179.821 280.353C179.676 281.562 179.096 282.772 178.225 283.594C176.483 285.191 174.064 285.917 172.225 287.416C170.58 288.771 169.129 290.416 167.919 292.158C166.952 293.561 166.855 295.544 165.742 296.851C164.678 298.109 163.13 298.883 161.63 299.512C157.566 301.253 153.212 302.366 149.099 303.963C147.648 304.543 146.293 305.221 144.987 306.043C141.407 308.365 138.31 311.558 134.44 313.397C131.489 314.8 128.15 315.187 124.909 315.574C118.813 316.3 112.62 316.155 106.476 316.638C102.025 317.025 97.4284 318.864 93.0257 316.929C91.6227 320.799 90.9453 327.766 92.3484 332.943C93.1709 335.894 96.4608 337.684 99.1217 339.232C101.686 340.684 104.782 341.071 107.685 341.603C113.007 342.571 118.522 342.571 123.844 343.635C126.263 344.119 128.586 345.086 130.86 346.102C133.424 347.264 135.795 348.86 138.262 350.118C140.681 351.376 143.052 352.731 145.616 353.65C147.841 354.424 150.115 355.005 152.486 355.15C155.824 355.343 159.163 354.908 162.501 354.666C165.887 354.376 169.274 353.989 172.661 353.456C174.112 353.214 175.515 352.682 176.967 352.392C182.24 351.279 187.611 350.554 192.836 349.296C196.755 348.328 200.577 347.022 204.35 345.715C210.301 343.635 216.155 341.313 222.009 338.99C230.476 335.652 238.943 332.362 247.313 328.734C250.07 327.573 252.731 326.169 255.296 324.718C263.714 319.88 272.084 314.993 280.212 309.72C286.405 305.704 292.404 301.398 298.209 296.899C303.531 292.787 308.66 288.432 313.643 283.933C317.949 280.062 322.013 275.95 326.125 271.838C327.48 270.483 328.496 268.79 329.947 267.58C330.189 267.387 330.576 267.822 330.673 268.064C331.738 272.563 315.53 291.384 311.708 294.577C308.757 297.044 305.612 299.318 302.612 301.785C298.5 305.172 294.629 308.801 290.517 312.187C287.517 314.655 284.518 317.171 281.276 319.299C275.712 323.073 269.858 326.363 264.053 330.33C259.892 333.136 255.441 336.62 251.425 339.184C248.135 341.313 245.329 342.087 241.846 343.442C236.862 345.377 232.024 347.602 226.993 349.344C224.138 350.312 221.09 350.747 218.187 351.57C213.494 352.876 209.866 354.23 205.028 355.15C214.268 356.117 219.639 358.875 225.203 356.359C227.476 355.295 229.363 353.408 231.686 352.489C235.314 351.037 239.136 350.07 242.91 349.247C252.489 347.167 266.81 344.845 271.89 341.603C274.938 339.668 276.68 336.62 279.534 334.394C281.615 332.749 284.131 331.733 286.308 330.233C293.855 324.912 301.838 319.88 308.079 313.058C315.24 305.221 319.787 295.351 326.077 286.836C331.302 279.724 338.995 273.821 342.527 265.209C344.268 260.952 344.123 256.114 345.284 251.663C346.3 247.841 347.413 244.019 349.01 240.438C355.589 225.779 357.767 226.65 359.653 208.023C360.089 203.717 359.992 199.266 359.073 195.057C358.347 191.67 355.928 188.816 354.767 185.526C353.509 181.994 352.88 178.269 351.719 174.737C350.945 172.318 350.074 169.947 349.106 167.625C348.09 165.206 346.929 162.932 345.816 160.561C346.687 165.158 347.8 169.705 348.477 174.35C349.687 183.059 350.122 192.88 349.639 201.685C348.09 229.408 337.446 249.824 318.142 269.564C313.595 274.208 309.095 278.998 304.015 283.11C301.741 284.997 298.887 286.11 296.226 287.368C292.549 289.061 288.727 290.368 285.002 291.964C281.228 293.609 277.357 295.012 273.777 296.996C271.455 298.302 269.568 300.189 267.439 301.834C265.165 303.576 262.988 305.511 260.569 307.107C257.666 308.946 254.667 310.639 251.57 312.091C245.377 314.945 239.088 317.509 232.75 319.928C228.734 321.477 222.929 324.476 215.091 325.541C214.365 325.637 213.398 325.637 213.011 325.057C212.72 324.621 213.252 323.847 213.736 323.605C219.203 320.848 223.558 318.332 228.154 315.187C232.315 312.333 235.798 308.51 239.959 305.608C243.249 303.285 247.168 301.979 250.409 299.608C252.828 297.818 254.957 295.544 256.844 293.174C260.327 288.771 262.988 283.788 266.52 279.385C268.697 276.676 271.116 274.063 273.874 271.886C276.438 269.854 279.389 268.209 282.389 266.854C286.308 265.113 290.807 264.822 294.484 262.694C297.048 261.242 299.129 258.872 300.677 256.356C303.193 252.34 304.16 247.454 306.579 243.39C310.256 237.197 314.707 231.44 318.965 225.682C322.352 221.134 325.835 216.635 329.56 212.329C330.625 211.071 331.979 210.007 333.382 209.136C333.963 208.797 334.689 208.652 335.318 208.846C336.527 209.184 336.672 210.878 339.333 210.587C343.542 210.152 345.091 204.153 346.203 200.621C347.316 197.041 348.477 187.074 348.381 183.107C348.381 182.381 348.235 181.414 347.51 181.075C347.171 180.93 346.687 181.462 346.107 181.22C345.623 181.075 345.381 180.446 345.284 179.962C344.365 174.495 344.026 168.883 343.349 163.367C343.01 160.561 342.817 157.707 342.188 154.949C341.801 153.256 341.075 151.659 340.301 150.111C340.059 149.627 339.672 149.047 339.14 148.902C338.801 148.805 338.608 149.385 338.366 149.627C338.027 149.869 337.737 150.208 337.35 150.256C336.769 150.353 335.85 150.498 335.608 149.966C335.318 149.143 335.076 148.321 334.931 147.498C333.866 142.418 333.141 137.484 331.979 132.307C331.786 131.533 331.447 130.759 331.351 129.985C331.351 129.839 331.447 129.549 331.641 129.549C331.883 129.549 332.076 129.839 332.173 130.033C332.899 131.339 333.479 132.694 334.157 134C334.737 135.161 335.366 136.468 335.947 137.532C336.479 138.5 336.818 137.677 336.818 137.387C336.818 135.597 336.576 133.758 336.092 132.065C335.124 128.63 334.011 125.292 332.56 122.05C330.673 117.793 328.786 110.003 327.528 108.794C321.916 103.423 313.208 96.0695 307.402 88.764C301.064 80.7811 292.839 65.0089 285.63 60.3643C283.26 58.8161 279.486 61.0416 270.487 56.4938C264.972 53.6877 260.327 50.7849 255.296 47.2047C250.941 44.1083 201.883 42.5117 186.74 44.7373C186.982 46.9628 190.562 47.6401 192.932 47.6885C195.98 47.7369 198.98 47.0112 202.028 46.8176C202.512 46.8176 203.334 46.5757 203.48 47.0112C203.576 47.495 202.754 47.7369 202.318 48.0272C200.48 49.3334 198.787 50.0592 197.19 51.8976C195.787 53.591 199.222 53.3491 199.996 53.4458C204.108 53.7361 211.172 53.978 212.865 54.0748C215.865 54.2199 218.913 53.591 221.864 53.9296C225.106 54.3167 228.396 55.0908 231.444 56.2519C233.573 57.026 235.266 58.7194 237.298 59.7354C240.733 61.4287 244.168 63.2672 247.797 64.4283C249.877 65.1057 252.199 64.6702 254.376 65.0573C255.489 65.2508 256.505 65.9281 257.618 66.2668C259.214 66.799 261.053 66.799 262.504 67.6215C264.391 68.7342 266.23 70.1857 267.488 72.0241C268.987 74.2013 269.568 76.8622 270.439 79.378C271.455 82.3777 271.842 85.6192 273.1 88.5221C273.777 90.0702 274.987 91.2798 276.148 92.4893C278.277 94.7148 280.454 97.0855 283.018 98.8272C285.34 100.424 286.017 97.3758 286.501 96.9404C286.695 96.7468 287.082 96.7952 287.372 96.9404C287.953 97.2306 288.63 97.5209 288.969 98.1015C289.646 99.3594 290.13 100.762 290.614 102.117C291.533 104.633 291.339 104.633 293.275 106.23C294.581 107.342 295.984 108.358 297.242 109.568C298.113 110.439 299.032 111.31 299.613 112.374C300.387 113.825 300.87 115.374 301.209 116.97C301.548 118.567 301.306 120.212 301.548 121.808C301.645 122.486 301.983 123.114 302.322 123.695C303.193 125.001 304.451 126.066 305.225 127.42C306.047 128.92 306.289 130.662 307.015 132.162C307.886 133.903 309.676 135.306 310.111 137.193C311.079 141.161 308.998 148.224 307.015 151.659C305.709 153.933 303.628 155.675 301.886 157.658C299.758 160.126 297.387 162.351 295.549 165.012C294.339 166.803 293.71 168.931 292.791 170.915C291.001 174.882 289.646 179.091 287.469 182.865C285.776 185.816 283.55 188.429 281.276 190.945C278.615 193.896 275.809 196.654 272.761 199.218C269.084 202.314 264.972 204.927 261.246 207.926C257.715 210.781 254.473 213.974 250.845 216.732C246.877 219.731 242.862 222.634 238.604 225.15C235.169 227.134 231.492 228.633 227.864 230.182C225.299 231.294 222.59 232.068 220.026 233.23C217.945 234.149 215.962 235.358 213.978 236.471C210.592 238.31 207.302 240.293 203.867 242.083C200.48 243.873 197.19 245.809 193.61 247.212C191.529 248.034 189.304 248.518 187.03 248.808C186.159 248.905 185.192 248.808 184.514 248.324C184.079 248.034 183.934 247.26 184.224 246.825C184.853 245.809 185.917 245.083 186.982 244.502C190.9 242.277 194.964 240.438 199.028 238.455C203.383 236.326 207.931 234.439 212.236 232.117C215.43 230.375 218.574 228.537 221.526 226.36C225.348 223.553 229.121 220.554 232.46 217.215C237.346 212.329 241.604 206.814 246.297 201.782C248.522 199.411 250.845 197.234 253.215 195.009C255.634 192.783 258.247 190.799 260.569 188.429C263.569 185.429 266.423 182.333 269.084 179.043C271.455 176.092 273.68 172.995 275.712 169.802C277.551 166.948 279.776 164.19 280.744 160.948C282.582 154.659 283.066 148.031 283.986 141.548C284.421 138.403 284.953 135.21 284.905 132.017C284.905 129.017 283.792 126.066 283.84 123.066C283.84 121.566 284.614 120.115 285.05 118.663C285.389 117.599 286.018 116.583 286.114 115.47C286.259 114.261 285.63 107.342 285.243 106.326C283.744 102.311 280.454 101.295 276.728 103.133C275.374 103.81 273.922 106.665 273.487 108.02C272.906 109.955 272.858 111.987 272.326 113.922C271.213 118.034 269.81 117.938 265.746 119.244C262.601 120.26 259.263 120.599 256.166 121.711C255.15 122.05 254.134 122.631 253.554 123.502C252.877 124.566 252.828 125.872 252.683 127.082C252.538 128.533 252.973 130.033 252.635 131.388C251.667 135.258 247.071 138.161 244.265 140.774C243.055 141.935 242.136 143.483 240.685 144.305C238.556 145.466 236.137 145.902 233.766 146.482C230.96 147.16 228.009 147.257 225.203 147.982C223.364 148.466 221.526 149.192 219.881 150.159C218.72 150.837 217.655 151.708 216.833 152.772C216.446 153.256 216.494 154.03 216.494 154.659C216.494 155.046 216.639 155.433 216.929 155.723C217.268 156.062 217.849 155.965 218.139 156.304C218.961 157.175 218.139 159.545 216.929 160.61C216.204 161.287 214.946 161.142 214.22 161.819C213.107 162.884 212.672 164.48 211.704 165.641C208.076 169.851 202.076 174.06 196.368 174.495C193.465 174.737 190.562 174.205 187.659 174.205C184.03 174.205 180.353 174.253 176.725 174.495C171.161 174.834 167.339 174.543 164.243 179.769C163.468 181.123 163.081 182.72 162.162 183.929C161.63 184.655 160.759 185.139 159.937 185.429C158.824 185.865 157.614 186.01 156.405 186.155C154.76 186.348 153.018 185.961 151.422 186.445C150.599 186.687 150.019 187.461 149.535 188.187C149.051 188.961 148.47 189.929 148.615 190.848C148.761 191.815 149.97 192.348 150.26 193.315C150.502 194.041 149.873 194.863 150.115 195.638C150.357 196.412 150.841 197.234 151.567 197.67C152.244 198.105 153.115 198.008 153.889 198.008C156.018 198.153 158.243 197.766 160.324 198.153C162.888 198.637 162.839 202.121 160.759 202.556C157.808 203.185 154.711 203.233 151.663 203.475C150.938 203.524 150.164 203.185 149.438 203.33C147.648 203.766 146.003 204.975 144.164 205.217C141.987 205.459 139.762 204.346 137.585 204.733C135.407 205.12 133.617 206.668 131.537 207.394C130.086 207.878 128.392 207.684 126.989 208.313C122.345 210.491 122.538 215.377 126.796 216.296C130.376 217.07 134.198 216.441 137.827 216.925C144.697 217.893 146.051 219.344 154.711 218.86C158.485 218.619 162.307 218.28 165.936 217.264C167.532 216.828 168.548 215.183 170.097 214.651C171.983 214.022 174.257 214.651 176.096 213.78C177.692 213.055 178.321 211.023 179.821 210.2C181.418 209.329 183.353 209.329 185.143 208.894C187.949 208.265 190.707 207.588 193.513 207.007C195.448 206.62 199.464 206.039 199.125 209.378C198.98 210.829 198.496 212.281 197.674 213.49C196.416 215.329 194.819 216.974 192.981 218.231C190.9 219.731 188.24 220.312 186.062 221.715C184.611 222.586 183.692 224.279 182.192 224.956C178.225 226.747 173.919 227.714 169.806 229.117C167.097 230.036 164.291 230.811 161.678 231.923C160.807 232.31 160.082 232.939 159.308 233.52C157.518 234.778 155.824 236.229 153.986 237.39C152.438 238.358 150.841 239.374 149.099 239.906C145.132 241.164 141.02 241.987 136.907 242.857C134.391 243.39 131.827 243.583 129.36 244.067C126.263 244.696 123.215 245.422 120.216 246.244C117.845 246.873 115.474 247.647 113.152 248.421C111.41 249.002 109.766 249.873 107.975 250.356C106.524 250.744 105.073 250.889 103.573 250.985C99.5571 251.324 95.4931 251.518 91.4775 251.711C88.5263 251.856 85.575 252.001 82.6238 252.05C80.5918 252.05 78.5114 252.292 76.4794 252.001C72.6573 251.421 68.932 250.26 65.1583 249.34C62.7392 248.76 60.3685 248.083 57.9495 247.454C56.4013 247.067 54.8047 246.873 53.3533 246.389C51.9986 245.905 50.5472 245.422 49.4828 244.502C47.6927 243.003 46.4348 241.019 44.935 239.277L45.1285 239.664ZM87.4135 211.845C86.3975 212.91 85.575 214.361 85.3815 215.812C84.559 222.247 94.9126 226.65 101.444 228.295C104.686 229.117 106.572 228.827 111.652 226.166C112.426 225.779 113.588 225.779 114.023 225.005C114.991 223.457 114.846 221.473 115.62 219.828C116.249 218.473 117.603 217.457 118.232 216.103C118.522 215.474 118.571 214.603 118.232 214.022C117.652 212.91 116.829 211.748 115.62 211.265C111.314 209.62 91.1389 207.926 87.3651 211.845H87.4135Z"
        fill="url(#paint5_radial_1345_24449)" />
    <path style="mix-blend-mode:multiply" fill-rule="evenodd" clip-rule="evenodd"
        d="M89.0101 269.661C97.7187 266.467 112.33 264.387 121.861 263.758C127.86 263.323 139.278 264.193 144.358 263.032C156.26 260.275 163.565 254.856 174.209 250.066C178.128 248.276 183.16 246.147 187.707 244.406C191.481 242.325 195.4 240.535 199.27 238.648C203.625 236.52 208.172 234.633 212.478 232.31C215.672 230.569 218.816 228.73 221.768 226.553C225.59 223.747 229.363 220.747 232.702 217.409C237.588 212.523 241.846 207.007 246.539 201.975C248.764 199.605 251.086 197.428 253.457 195.202C255.876 192.977 258.489 190.993 260.811 188.622C263.811 185.623 266.665 182.526 269.326 179.236C271.697 176.285 273.922 173.189 275.954 169.996C277.793 167.141 280.018 164.383 280.986 161.142C282.824 154.852 283.308 148.224 284.227 141.741C284.663 138.596 285.195 135.403 285.147 132.21C285.147 129.21 284.034 126.259 284.082 123.26C284.082 121.76 284.856 120.308 285.292 118.857C285.63 117.793 286.259 116.777 286.356 115.664C286.501 114.454 285.872 107.536 285.485 106.52C284.614 104.149 283.066 102.794 281.179 102.504C281.663 102.94 282.099 103.423 282.437 104.004C282.873 104.778 283.018 105.746 283.018 106.665C283.018 107.923 282.969 109.181 282.534 110.342C281.953 111.842 280.986 113.148 280.018 114.357C278.664 116.099 276.486 117.26 275.567 119.244C274.841 120.744 274.938 122.582 275.277 124.227C275.664 126.066 277.164 127.517 277.744 129.259C278.373 131.194 279.051 133.274 278.905 135.306C278.664 138.064 277.648 140.677 276.583 143.241C275.712 145.37 273.922 147.015 273.1 149.143C271.793 152.772 271.842 156.836 270.342 160.368C268.504 164.722 266.085 168.883 263.133 172.608C259.698 176.963 255.634 180.881 251.328 184.413C245.039 189.542 237.346 192.928 231.444 198.54C227.041 202.701 225.057 208.942 220.945 213.393C217.849 216.732 214.075 219.393 210.156 221.618C207.64 223.021 204.447 222.828 201.931 224.231C195.932 227.521 190.61 232.02 184.756 235.6C179.821 238.648 174.838 241.6 169.613 244.115C164.581 246.583 159.404 248.953 154.034 250.55C148.712 252.147 143.1 252.63 137.585 253.646C131.489 254.759 125.344 255.485 119.345 256.985C114.362 258.194 109.669 260.323 104.734 261.678C102.508 262.307 100.234 262.887 97.9606 262.887C94.961 262.887 92.0581 262.065 89.1069 261.726C87.6554 261.581 86.1556 261.194 84.7042 261.436C82.8657 261.774 81.2691 262.887 79.5274 263.468C78.6082 263.758 77.6406 264.145 76.6246 264.048C73.8668 263.806 71.0607 263.468 68.3998 262.548C66.5613 261.92 59.8363 257.517 59.4009 257.517C57.6592 257.517 56.0142 258.726 54.2725 258.726C53.3049 258.726 52.3373 258.63 51.3697 258.436C50.4988 258.243 49.6763 257.952 48.9506 257.517C46.9186 256.404 44.3544 252.098 43.9674 251.179C43.532 250.163 43.6287 247.55 43.8222 244.986C43.2417 247.308 42.7095 249.679 42.7095 252.05C42.7095 253.453 44.0158 254.566 44.8866 255.63C46.58 257.759 48.1765 260.081 50.4504 261.629C51.2729 262.161 52.1921 262.548 53.2081 262.742C56.1594 263.419 59.788 263.032 62.2554 263.71C63.7552 264.097 64.868 265.451 66.3678 265.935C68.3998 266.661 70.6253 266.612 72.6573 267.29C73.5765 267.58 79.0436 269.902 75.6086 271.451C74.5442 271.934 73.2863 271.305 72.1251 271.596C71.3026 271.789 70.4318 272.176 69.8028 272.805C69.5609 273.047 69.3674 273.337 69.1739 273.628C70.1899 272.95 71.3026 272.515 72.8992 272.515C75.028 272.515 77.8341 273.434 79.6726 273.289C83.7366 272.999 85.5267 270.822 89.0101 269.564V269.661Z"
        fill="url(#paint6_radial_1345_24449)" />
    <path style="mix-blend-mode:multiply" fill-rule="evenodd" clip-rule="evenodd"
        d="M100.041 224.037C93.4609 223.844 87.7519 221.763 85.478 217.651C86.5908 223.118 95.5897 226.795 101.492 228.343C104.734 229.166 106.621 228.875 111.701 226.214C112.475 225.827 113.636 225.827 114.071 225.053C115.039 223.505 114.894 221.521 115.668 219.876C116.297 218.522 117.651 217.506 118.28 216.151C118.571 215.522 118.619 214.651 118.28 214.071C117.7 212.958 116.877 211.797 115.668 211.313C115.571 211.313 115.426 211.216 115.281 211.168C115.474 211.41 115.619 211.7 115.765 211.99C116.103 212.91 115.426 214.458 114.603 214.942C112.862 216.006 108.894 216.103 107.491 217.99C106.766 218.957 107.491 222.199 105.75 222.876C103.96 223.65 101.976 224.086 100.041 224.037Z"
        fill="url(#paint7_radial_1345_24449)" />
    <path style="mix-blend-mode:multiply" fill-rule="evenodd" clip-rule="evenodd"
        d="M159.452 212.861C159.259 213.781 160.275 214.651 160.178 215.619C160.13 216.103 159.501 216.441 159.017 216.635C156.066 217.651 147.841 218.328 145.083 217.651C143.003 217.119 141.116 216.103 139.036 215.619C138.262 215.425 137.487 215.619 136.713 215.716C133.665 216.2 131.972 216.635 129.311 216.877C132.214 217.119 135.214 216.78 138.068 217.216C144.938 218.183 146.293 219.635 154.953 219.151C158.727 218.909 162.549 218.57 166.177 217.554C167.774 217.119 168.79 215.474 170.338 214.942C172.225 214.313 174.499 214.942 176.337 214.071C177.934 213.345 178.563 211.313 180.063 210.491C181.659 209.62 183.594 209.62 185.385 209.184C188.191 208.555 190.948 207.878 193.754 207.297C194.819 207.104 196.464 206.814 197.722 207.152C193.319 205.604 185.239 206.91 180.788 207.443C178.079 207.781 176.095 207.394 175.466 210.007C175.321 210.684 175.031 211.41 174.402 211.749C173.628 212.184 172.612 212.329 171.741 212.232C169.08 211.99 166.516 210.974 163.903 210.733C162.5 210.587 159.791 211.168 159.452 212.813V212.861Z"
        fill="url(#paint8_radial_1345_24449)" />
    <path style="mix-blend-mode:multiply" fill-rule="evenodd" clip-rule="evenodd"
        d="M161.727 299.657C157.663 301.398 153.308 302.511 149.196 304.108C147.744 304.688 146.39 305.366 145.083 306.188C141.503 308.51 138.407 311.704 134.536 313.542C131.585 314.945 128.247 315.332 125.005 315.719C118.909 316.445 112.717 316.3 106.572 316.784C102.121 317.171 97.525 319.009 93.1223 317.074C91.7192 320.944 91.0419 327.911 92.445 333.088C93.2674 336.039 96.5573 337.829 99.2183 339.378C101.782 340.829 104.879 341.216 107.782 341.748C113.104 342.716 118.619 342.716 123.941 343.78C126.36 344.264 128.682 345.232 130.956 346.248C133.52 347.409 135.891 349.005 138.359 350.263C140.778 351.521 143.148 352.876 145.712 353.795C147.938 354.569 150.212 355.15 152.583 355.295C155.921 355.488 159.259 355.053 162.597 354.811C165.645 354.569 168.645 354.182 171.693 353.747C172.032 353.698 172.419 353.65 172.757 353.602C174.209 353.36 175.612 352.827 177.063 352.537C182.337 351.424 187.707 350.699 192.932 349.441C196.851 348.473 200.673 347.167 204.447 345.861C210.398 343.78 216.252 341.458 222.106 339.136C230.573 335.797 239.039 332.507 247.409 328.879C250.167 327.718 252.828 326.315 255.392 324.863C263.81 320.025 272.18 315.139 280.308 309.865C286.501 305.85 292.5 301.544 298.306 297.044C303.628 292.932 308.756 288.578 313.74 284.078C318.046 280.208 322.11 276.095 326.222 271.983C327.577 270.628 328.593 268.935 330.044 267.725C330.286 267.532 330.673 267.967 330.77 268.209C331.834 272.709 315.626 291.529 311.804 294.722C308.853 297.189 305.708 299.463 302.709 301.931C298.596 305.317 294.726 308.946 290.613 312.333C287.614 314.8 284.614 317.316 281.373 319.445C275.809 323.218 269.955 326.508 264.149 330.475C259.988 333.282 255.537 336.765 251.522 339.329C248.232 341.458 245.426 342.232 241.942 343.587C236.959 345.522 232.121 347.747 227.089 349.489C224.235 350.457 221.187 350.892 218.284 351.715C213.591 353.021 209.962 354.376 205.124 355.295C214.365 356.263 219.735 359.02 225.299 356.504C227.573 355.44 229.46 353.553 231.782 352.634C235.411 351.183 239.233 350.215 243.007 349.392C252.586 347.312 266.907 344.99 271.987 341.748C275.035 339.813 276.777 336.765 279.631 334.539C281.711 332.894 284.227 331.878 286.404 330.379C293.952 325.057 301.935 320.025 308.176 313.203C315.336 305.366 319.884 295.496 326.174 286.981C331.399 279.869 339.091 273.966 342.623 265.355C344.365 261.097 344.22 256.259 345.381 251.808C346.397 247.986 347.51 244.164 349.106 240.584C355.686 225.924 357.863 226.795 359.75 208.168C360.185 203.862 360.089 199.411 359.169 195.202C358.444 191.816 356.025 188.961 354.863 185.671C353.606 182.139 352.977 178.414 351.815 174.882C351.041 172.463 350.171 170.092 349.203 167.77C348.187 165.351 347.026 163.077 345.913 160.707C346.784 165.303 347.897 169.851 348.574 174.495C349.783 183.204 350.219 193.025 349.735 201.83C348.187 229.553 337.543 249.969 318.239 269.709C313.691 274.354 309.192 279.143 304.112 283.256C301.838 285.142 298.983 286.255 296.322 287.513C292.645 289.206 288.823 290.513 285.098 292.109C281.324 293.754 277.454 295.157 273.874 297.141C271.551 298.447 269.665 300.334 267.536 301.979C265.262 303.721 263.085 305.656 260.666 307.253C257.763 309.091 254.763 310.784 251.667 312.236C245.474 315.09 239.185 317.654 232.847 320.074C228.831 321.622 223.025 324.621 215.188 325.686C214.462 325.783 213.494 325.782 213.107 325.202C212.817 324.766 213.349 323.992 213.833 323.751C219.3 320.993 223.654 318.477 228.25 315.332C232.411 312.478 235.895 308.656 240.055 305.753C243.345 303.43 247.264 302.124 250.506 299.754C252.925 297.963 255.053 295.69 256.94 293.319C260.424 288.916 263.085 283.933 266.617 279.53C268.794 276.821 271.213 274.208 273.97 272.031C276.535 269.999 279.486 268.354 282.486 267C286.404 265.258 290.904 264.968 294.581 262.839C297.145 261.387 299.225 259.017 300.774 256.501C303.289 252.485 304.257 247.599 306.676 243.535C310.353 237.342 314.804 231.585 319.062 225.827C322.448 221.28 325.932 216.78 329.657 212.474C330.721 211.216 332.076 210.152 333.479 209.281C334.06 208.942 334.785 208.797 335.414 208.991C336.624 209.329 336.769 211.023 339.43 210.733C343.639 210.297 345.187 204.298 346.3 200.766C347.413 197.186 348.574 187.219 348.477 183.252C348.477 182.526 348.332 181.559 347.606 181.22C347.268 181.075 346.784 181.607 346.203 181.365C345.719 181.22 345.478 180.591 345.381 180.107C344.462 174.64 344.123 169.028 343.446 163.513C343.107 160.707 342.913 157.852 342.284 155.094C341.897 153.401 341.172 151.804 340.398 150.256C340.156 149.772 339.769 149.192 339.236 149.047C338.898 148.95 338.704 149.531 338.462 149.772C338.124 150.014 337.833 150.353 337.446 150.401C336.866 150.498 335.946 150.643 335.705 150.111C335.414 149.289 335.172 148.466 335.027 147.644C333.963 142.564 333.237 137.629 332.076 132.452C331.882 131.678 331.544 130.904 331.447 130.13C331.447 129.985 331.544 129.694 331.737 129.694C331.979 129.694 332.173 129.985 332.27 130.178C332.995 131.484 333.576 132.839 334.253 134.145C334.834 135.307 335.463 136.613 336.043 137.677C336.575 138.645 336.914 137.822 336.914 137.532C336.914 136.661 336.914 135.742 336.769 134.871C336.624 133.952 336.43 133.081 336.188 132.21C335.221 128.775 334.108 125.437 332.657 122.195C330.77 117.938 328.883 110.148 327.625 108.939C326.028 107.391 324.142 105.697 322.158 103.859C324.722 108.649 326.754 112.955 328.012 118.567C328.447 120.55 328.786 122.727 329.028 125.147C329.899 133.807 329.076 147.74 326.415 155.723C324.383 161.819 319.642 166.657 316.884 172.463C314.417 177.737 314.223 184.171 310.837 188.913C304.402 197.863 277.841 222.199 268.455 228.972C254.57 238.987 225.348 257.42 208.801 261.533C196.561 264.581 183.643 263.758 171.306 266.419C162.743 268.257 154.953 272.709 146.535 274.934C133.617 278.272 123.941 279.288 110.201 283.449C103.766 285.384 102.363 284.901 95.88 284.126C91.5257 283.594 87.0263 283.352 85.2362 285.53C84.4621 286.497 85.5749 288.529 84.5105 289.11C82.9623 290.029 80.7851 289.787 79.0434 289.158C74.8827 287.755 71.3508 284.852 67.2868 283.256C65.8354 282.675 64.771 282.723 63.8518 283.014C62.5939 283.401 61.723 284.272 60.6103 284.32C59.8362 284.368 58.9169 284.03 58.3847 283.449C56.1592 281.175 55.627 277.111 55.24 272.757C55.0948 273.531 54.9981 274.305 54.9013 275.079C54.5626 277.498 54.3207 279.917 54.4175 282.336C54.4175 282.917 54.7562 283.498 55.1916 283.836C57.7558 285.82 65.4 290.174 70.5768 292.69C72.4152 293.609 73.9634 294.286 74.8343 294.577C77.7855 295.496 80.7368 296.222 83.7848 296.802C91.9128 298.399 90.413 296.222 97.7185 293.561C101.734 292.109 105.846 290.755 110.056 289.835C118.861 287.9 127.957 287.223 136.714 284.949C143.148 283.256 149.196 280.304 155.437 278.03C160.033 276.386 164.533 274.257 169.371 273.192C171.354 272.757 173.531 272.95 175.418 273.628C176.87 274.16 178.128 275.273 178.95 276.579C179.628 277.692 179.869 279.095 179.724 280.401C179.579 281.611 178.999 282.82 178.128 283.643C176.386 285.239 173.967 285.965 172.128 287.465C170.483 288.819 169.032 290.464 167.823 292.206C166.855 293.609 166.758 295.593 165.645 296.899C164.581 298.157 163.033 298.931 161.533 299.56L161.727 299.657Z"
        fill="url(#paint9_radial_1345_24449)" />
    <path style="mix-blend-mode:multiply" fill-rule="evenodd" clip-rule="evenodd"
        d="M129.892 282.336C122.635 284.272 114.313 282.723 106.717 284.32C102.992 285.094 101.008 284.707 95.9283 284.078C91.5741 283.546 87.0746 283.304 85.2845 285.481C84.5104 286.449 85.6232 288.481 84.5588 289.061C83.0106 289.981 80.8335 289.739 79.0918 289.11C74.931 287.707 71.3992 284.804 67.3352 283.207C65.8838 282.627 64.8194 282.675 63.9001 282.965C62.6422 283.352 61.7714 284.223 60.6586 284.272C59.8845 284.32 58.9653 283.981 58.4331 283.401C56.2076 281.127 55.6754 277.063 55.2883 272.709C55.1432 273.483 55.0464 274.257 54.9496 275.031C54.611 277.45 54.3691 279.869 54.4658 282.288C54.4658 282.869 54.8045 283.449 55.2399 283.788C57.8041 285.771 65.4483 290.126 70.6251 292.642C72.4636 293.561 74.0118 294.238 74.8826 294.528C77.8339 295.448 80.7851 296.173 83.8331 296.754C91.9611 298.351 90.4613 296.173 97.7668 293.512C101.782 292.061 105.895 290.706 110.104 289.787C118.909 287.852 128.005 287.175 136.762 284.901C143.197 283.207 149.244 280.256 155.485 277.982C160.082 276.337 164.581 274.208 169.419 273.144C171.403 272.709 173.58 272.902 175.467 273.579C176.918 274.112 178.176 275.224 178.999 276.531C179.676 277.643 179.918 279.047 179.773 280.353C179.627 281.562 179.047 282.772 178.176 283.594C177.595 284.127 176.918 284.61 176.192 284.997C177.257 284.514 178.321 283.981 179.289 283.304C183.643 280.208 183.498 276.337 193.271 271.693C201.109 267.967 185.917 268.112 184.417 268.161C177.305 268.354 172.757 267.048 165.258 269.08C155.34 271.789 141.987 278.901 129.795 282.191L129.892 282.336Z"
        fill="url(#paint10_radial_1345_24449)" />
    <path style="mix-blend-mode:multiply" fill-rule="evenodd" clip-rule="evenodd"
        d="M245.813 255.098C234.153 259.065 219.252 262.79 206.963 266.08C205.802 266.371 200.141 267.532 199.706 268.79C199.512 269.322 203.963 269.612 208.366 269.273C220.703 268.306 232.556 264.145 244.265 261.774C254.328 259.742 271.116 255.92 280.018 250.84C284.566 248.228 289.211 245.373 292.549 241.309C295.79 237.39 296.419 231.875 299.177 227.617C301.596 223.844 304.789 220.554 307.982 217.361C313.401 211.99 319.546 207.394 325.013 202.072C327.625 199.508 330.625 197.041 332.221 193.702C334.689 188.526 336.043 182.817 336.818 177.108C337.688 170.721 337.059 164.238 337.156 157.804C337.205 154.756 337.156 151.417 337.93 150.159C337.785 150.256 337.688 150.305 337.543 150.305C336.963 150.401 336.043 150.546 335.802 150.014C335.511 149.192 335.269 148.369 335.124 147.547C334.06 142.467 333.334 137.532 332.173 132.355C331.979 131.581 331.641 130.807 331.544 130.033C331.544 129.888 331.641 129.597 331.834 129.597C332.076 129.597 332.27 129.888 332.366 130.081C333.092 131.388 333.673 132.742 334.35 134.049C334.931 135.21 335.56 136.516 336.14 137.58C336.672 138.548 337.011 137.725 337.011 137.435C337.011 136.564 337.011 135.645 336.866 134.774C336.721 133.855 336.527 132.984 336.285 132.113C335.318 128.678 334.205 125.34 332.754 122.098C330.867 117.841 328.98 110.052 327.722 108.842C327.528 108.648 327.335 108.503 327.141 108.31C328.448 109.519 331.012 119.341 331.012 123.453C331.012 124.082 331.012 124.614 330.867 125.098C330.818 125.437 330.189 125.437 330.141 125.727C329.899 126.84 330.383 130.855 330.48 132.162C330.963 138.306 331.738 144.402 331.592 150.546C331.399 158.433 331.351 166.464 329.125 174.06C327.432 179.865 323.368 184.752 320.174 189.929C315.965 196.799 312.385 204.201 306.918 210.103C302.709 214.651 296.129 216.49 291.63 220.747C273.922 237.535 276.051 244.744 245.813 255.049V255.098Z"
        fill="url(#paint11_radial_1345_24449)" />
    <path style="mix-blend-mode:multiply" fill-rule="evenodd" clip-rule="evenodd"
        d="M133.23 334.83C129.069 335.459 126.36 336.91 123.409 337.781C119.538 338.99 115.136 339.281 106.282 335.942C96.122 332.12 93.5578 326.411 94.3319 318.041C94.3319 317.848 94.3319 317.654 94.3803 317.509C93.9932 317.413 93.5578 317.219 93.1708 317.074C91.7677 320.944 91.0904 327.911 92.4934 333.088C93.3159 336.039 96.6058 337.829 99.2668 339.377C101.831 340.829 104.927 341.216 107.83 341.748C113.152 342.716 118.668 342.716 123.989 343.78C126.409 344.264 128.731 345.232 131.005 346.248C133.569 347.409 135.94 349.005 138.407 350.263C140.826 351.521 143.197 352.876 145.761 353.795C147.986 354.569 150.26 355.15 152.631 355.295C155.969 355.488 159.308 355.053 162.646 354.811C165.694 354.569 168.693 354.182 171.742 353.747C172.08 353.698 172.467 353.65 172.806 353.601C174.257 353.36 175.66 352.827 177.112 352.537C182.385 351.424 187.756 350.699 192.981 349.441C196.9 348.473 200.722 347.167 204.495 345.861C210.446 343.78 216.3 341.458 222.154 339.136C230.621 335.797 239.088 332.507 247.458 328.879C250.215 327.718 252.876 326.315 255.441 324.863C263.859 320.025 272.229 315.139 280.357 309.865C286.55 305.849 292.549 301.544 298.355 297.044C303.676 292.932 308.805 288.577 313.788 284.078C318.094 280.208 322.158 276.095 326.27 271.983C327.625 270.628 328.641 268.935 330.092 267.725C330.334 267.532 330.721 267.967 330.818 268.209C331.883 272.708 315.675 291.529 311.853 294.722C311.466 295.061 311.079 295.351 310.692 295.689C321.916 287.658 326.996 281.272 335.705 266.419C336.769 264.629 337.737 262.839 338.704 261C341.123 256.452 343.252 251.808 344.994 247.018C345.478 245.76 346.977 240.922 346.639 240.39C346.542 240.196 346.01 240.922 345.429 241.841C344.51 243.293 343.397 245.325 343.059 245.905C339.188 252.534 336.188 257.565 331.157 263.758C328.786 266.661 326.174 269.37 323.513 271.983C319.4 276.047 315.288 280.111 310.837 283.788C307.257 286.739 303.241 289.158 299.467 291.867C294.436 295.496 289.356 298.979 284.469 302.801C281.131 305.414 278.422 308.752 274.938 311.171C271.358 313.639 267.294 315.381 263.423 317.364C258.392 319.928 253.215 322.347 248.135 324.863C244.845 326.46 241.749 328.443 238.314 329.75C232.024 332.169 225.444 333.572 219.155 335.942C215.817 337.2 212.865 339.377 209.479 340.539C202.754 342.861 194.674 342.909 187.852 344.845C176.144 348.231 172.37 351.569 162.259 351.86C160.033 351.908 157.517 351.86 154.518 351.57C151.131 351.279 149.438 349.973 149.099 348.376C148.567 345.764 151.567 342.28 156.598 340.781C162.694 338.942 169.032 338.023 175.177 336.475C187.852 333.233 206.624 329.605 218.284 325.831C223.751 324.041 229.025 321.622 234.298 319.299C233.863 319.493 233.379 319.638 232.943 319.832C228.928 321.38 223.122 324.379 215.284 325.444C214.559 325.541 213.591 325.541 213.204 324.96C212.914 324.525 213.446 323.75 213.93 323.509C219.397 320.751 223.751 318.235 228.347 315.09C232.508 312.236 235.991 308.414 240.152 305.511C243.442 303.189 247.361 301.882 250.602 299.512C252.876 297.867 254.812 295.786 256.602 293.609C253.312 296.415 250.651 297.721 243.103 300.044C239.814 301.06 234.734 301.834 233.137 302.947C229.605 305.366 222.832 317.8 209.479 322.396C193.658 327.911 176.386 330.911 159.743 332.798C150.938 333.814 141.987 333.475 133.23 334.83Z"
        fill="url(#paint12_radial_1345_24449)" />
    <path fill-rule="evenodd" clip-rule="evenodd"
        d="M145.084 306.188C141.504 308.51 138.407 311.704 134.537 313.542C131.585 314.945 128.247 315.332 125.006 315.719C118.91 316.445 112.717 316.3 106.572 316.784C103.041 317.074 99.4605 318.283 95.9771 317.848C98.4929 318.622 100.622 318.187 105.508 318.042C117.12 317.654 135.311 318.912 140.197 318.283C143.681 317.8 147.067 316.203 150.019 314.268C154.566 311.268 145.616 311.171 151.47 308.801C159.453 305.511 180.305 306.575 185.337 298.012C185.917 296.996 186.401 295.544 185.772 294.528C185.095 293.512 182.821 294.48 182.289 293.367C181.853 292.4 183.014 291.238 183.885 290.609C190.514 285.917 201.351 280.159 208.947 277.208C213.494 275.466 217.849 273.966 222.929 272.902C237.201 269.806 209.818 270.628 200.722 273.047C192.787 275.128 190.707 277.692 184.853 282.578C183.256 283.885 181.998 285.675 180.112 286.449C176.241 288.094 170.774 288.19 167.968 292.303C167 293.706 166.904 295.69 165.791 296.996C164.726 298.254 163.178 299.028 161.678 299.657C157.614 301.398 153.26 302.511 149.148 304.108C147.696 304.688 146.342 305.366 145.035 306.188H145.084Z"
        fill="url(#paint13_radial_1345_24449)" />
    <path opacity="0.65" fill-rule="evenodd" clip-rule="evenodd"
        d="M225.203 325.008C220.461 326.702 215.526 327.911 210.64 329.169C205.076 330.62 199.367 331.733 193.755 333.04C189.739 334.007 185.675 334.685 181.805 336.088C181.273 336.281 180.547 337.442 181.079 337.684C183.208 338.652 185.675 338.652 187.998 338.845C192.932 339.232 197.916 339.619 202.851 339.426C204.495 339.377 206.14 338.894 207.592 338.12C211.22 336.184 214.22 333.136 217.994 331.346C221.139 329.846 224.67 329.169 228.105 328.298C232.266 327.282 236.669 327.379 240.636 325.831C246.974 323.363 262.504 312.139 265.988 306.672C266.23 306.236 266.133 305.414 265.697 305.22C265.165 304.979 264.488 305.414 263.956 305.704C259.359 308.22 254.957 311.075 250.312 313.542C246.345 315.671 242.233 317.606 238.12 319.445C233.863 321.38 229.557 323.363 225.154 324.912L225.203 325.008Z"
        fill="url(#paint14_radial_1345_24449)" />
    <path fill-rule="evenodd" clip-rule="evenodd"
        d="M125.876 57.6066C127.328 57.026 128.489 55.8648 129.892 55.1391C139.423 50.2526 155.631 48.8496 168.452 52.5266C171.983 53.5426 175.854 53.0587 179.386 54.1231C182.434 55.0424 185.046 57.1711 188.046 58.2839C190.949 59.3967 194.287 59.2031 196.996 60.7513C198.835 61.8157 199.125 64.7186 201.012 65.6378C204.254 67.186 208.221 66.4603 211.511 67.8149C219.735 71.1532 230.96 80.4908 232.121 89.8767C232.508 92.9247 232.314 96.263 231.105 99.1175C229.702 102.504 223.848 100.908 222.154 101.73C221.187 102.214 220.993 103.569 220.848 104.633C220.316 108.987 221.09 113.438 220.268 117.744C218.768 125.292 210.446 128.194 203.673 129.985C194.577 132.404 183.982 128.775 185.82 117.454C186.353 114.261 189.304 111.987 190.417 108.939C191.287 106.52 190.271 103.423 191.723 101.295C195.013 96.4081 204.06 94.0858 205.27 92.3441C206.576 90.4089 206.479 87.7479 206.431 85.4256C206.382 83.2969 206.044 80.9746 204.931 79.1361C204.447 78.362 202.996 78.0717 202.27 78.5555C199.367 80.5391 198.303 85.7643 192.013 88.3769C186.111 90.8443 174.741 90.8443 169.468 97.4725C168.887 98.1982 168.452 99.311 168.742 100.23C169.419 102.359 171.693 103.859 172.129 106.084C172.419 107.536 171.596 109.132 170.677 110.245C168.935 112.471 166.903 114.696 164.339 115.857C158.34 118.615 151.712 119.776 145.471 121.905C142.374 122.969 139.423 124.324 136.375 125.485C121.812 131.291 108.266 129.888 106.524 131.678C104.637 133.661 105.169 137.145 103.476 139.322C97.6218 146.821 91.5258 149.579 83.301 144.063C80.253 142.031 78.5113 138.306 75.2214 136.709C72.9959 135.597 70.2382 136.613 67.7224 136.419C63.4648 136.081 58.6751 134.194 54.7563 137.58C52.5791 139.467 51.1761 144.063 49.9665 144.741C49.0957 145.273 50.6439 138.548 51.9985 135.839C54.2241 131.388 48.1764 127.759 63.3197 114.938C65.5452 113.051 70.1414 107.487 72.6088 102.117C73.6732 99.7948 75.173 97.1822 76.9147 95.3437C78.9467 93.215 81.0271 92.0538 83.3494 90.2154C86.9296 87.3609 91.7193 81.3616 96.2671 77.5395C98.1056 75.943 100.573 75.1205 102.412 73.5239C106.621 69.7986 109.814 65.9281 113.152 62.8801C117.361 59.0096 121.232 59.445 125.78 57.6066H125.876Z"
        fill="url(#paint15_radial_1345_24449)" />
    <path style="mix-blend-mode:multiply" fill-rule="evenodd" clip-rule="evenodd"
        d="M157.759 94.1826C144.213 106.326 152.631 107.149 159.356 108.068C162.452 108.503 166.42 110.1 161.824 112.035C157.808 113.729 153.308 114.019 149.293 115.615C147.019 116.535 145.326 118.518 143.1 119.486C128.441 126.114 108.991 122.098 97.9122 123.743C93.0257 124.469 91.0905 128.872 95.1545 132.839C98.0574 135.645 101.057 135.645 101.154 137.726C101.347 141.983 95.2996 145.854 91.4775 146.918C95.977 146.966 99.8474 144.112 103.67 139.274C105.363 137.097 104.782 133.613 106.718 131.63C108.459 129.791 121.958 131.242 136.569 125.437C139.617 124.227 142.568 122.873 145.664 121.857C151.905 119.679 158.534 118.567 164.533 115.809C167.097 114.599 169.129 112.422 170.871 110.197C171.79 109.036 172.612 107.439 172.322 106.036C171.887 103.81 169.613 102.359 168.935 100.182C168.645 99.2626 169.081 98.1983 169.661 97.4242C174.983 90.796 186.304 90.796 192.207 88.3285C198.496 85.716 199.512 80.4908 202.464 78.5072C203.238 77.975 204.641 78.3137 205.124 79.0878C206.237 80.9262 206.576 83.2001 206.624 85.3773C206.673 87.6996 206.818 90.3605 205.463 92.2958C204.35 93.8923 196.755 95.9727 192.884 99.9883C203.48 92.4893 211.075 95.6341 211.22 86.7803C211.269 83.684 210.833 77.346 208.85 74.9754C207.834 73.7659 205.173 72.3144 203.092 74.3948C199.028 78.5072 197.19 83.4904 191.288 85.1838C187.369 86.3449 183.353 87.0706 179.337 87.7963C171.403 89.1994 164.484 88.1834 157.856 94.1343L157.759 94.1826Z"
        fill="url(#paint16_radial_1345_24449)" />
    <path style="mix-blend-mode:multiply" fill-rule="evenodd" clip-rule="evenodd"
        d="M196.657 62.1059C197.141 63.7025 196.851 67.7665 199.27 68.2987C204.35 69.4599 209.043 66.9924 214.752 70.7661C222.493 75.8945 230.524 82.3776 229.073 92.7311C228.54 96.5532 225.154 95.6823 221.332 94.4728C218.768 93.6503 216.01 93.3117 215.478 95.6823C214.22 101.391 216.252 107.294 216.203 113.148C216.058 125.727 206.285 129.646 197.238 130.662C199.367 130.807 201.641 130.565 203.818 129.984C210.591 128.194 218.913 125.292 220.412 117.744C221.235 113.438 220.461 108.987 220.993 104.633C221.138 103.568 221.332 102.214 222.299 101.73C223.993 100.907 229.847 102.552 231.25 99.1174C232.411 96.2629 232.653 92.973 232.266 89.8766C231.105 80.4907 219.88 71.1532 211.656 67.8149C208.317 66.4602 204.35 67.2343 201.157 65.6378C199.27 64.7185 198.98 61.7673 197.141 60.7513C196.028 60.1223 194.819 59.7837 193.561 59.5417C194.335 59.832 195.158 60.1707 195.883 60.6061C196.416 60.8964 196.657 61.5738 196.803 62.1059H196.657Z"
        fill="url(#paint17_radial_1345_24449)" />
    <defs>
        <radialGradient id="paint0_radial_1345_24449" cx="0" cy="0" r="1"
            gradientUnits="userSpaceOnUse" gradientTransform="translate(200.424 198.858) scale(100)">
            <stop stop-color="#2FC1E9" />
            <stop offset="1" stop-color="#2FC1E9" stop-opacity="0" />
        </radialGradient>
        <radialGradient id="paint1_radial_1345_24449" cx="0" cy="0" r="1"
            gradientUnits="userSpaceOnUse"
            gradientTransform="translate(132.746 114.696) scale(271.708 271.708)">
            <stop stop-color="#71F5FF" />
            <stop offset="0.17" stop-color="#69E8FF" />
            <stop offset="0.47" stop-color="#56C8FF" />
            <stop offset="0.5" stop-color="#54C5FF" />
            <stop offset="0.92" stop-color="#1483FF" />
        </radialGradient>
        <radialGradient id="paint2_radial_1345_24449" cx="0" cy="0" r="1"
            gradientUnits="userSpaceOnUse"
            gradientTransform="translate(205.028 209.475) scale(170.978 170.978)">
            <stop offset="0.04" />
            <stop offset="0.84" />
            <stop offset="0.85" stop-color="#0D1415" />
            <stop offset="0.9" stop-color="#3E6167" />
            <stop offset="0.93" stop-color="#659EA8" />
            <stop offset="0.96" stop-color="#81CAD7" />
            <stop offset="0.99" stop-color="#92E5F4" />
            <stop offset="1" stop-color="#99F0FF" />
        </radialGradient>
        <radialGradient id="paint3_radial_1345_24449" cx="0" cy="0" r="1"
            gradientUnits="userSpaceOnUse"
            gradientTransform="translate(84.6073 71.9758) scale(187.428 187.428)">
            <stop stop-color="#86FFFF" />
            <stop offset="1" />
        </radialGradient>
        <radialGradient id="paint4_radial_1345_24449" cx="0" cy="0" r="1"
            gradientUnits="userSpaceOnUse"
            gradientTransform="translate(127.666 171.883) scale(243.792 243.792)">
            <stop stop-color="#F2F6FF" />
            <stop offset="1" stop-color="#D6F3FF" />
        </radialGradient>
        <radialGradient id="paint5_radial_1345_24449" cx="0" cy="0" r="1"
            gradientUnits="userSpaceOnUse"
            gradientTransform="translate(180.982 173.044) scale(203.684 203.684)">
            <stop offset="0.62" stop-color="white" />
            <stop offset="0.65" stop-color="#F5FAFF" />
            <stop offset="0.75" stop-color="#CFE7FF" />
            <stop offset="0.85" stop-color="#B4DAFF" />
            <stop offset="0.94" stop-color="#A3D1FF" />
            <stop offset="1" stop-color="#9ECFFF" />
        </radialGradient>
        <radialGradient id="paint6_radial_1345_24449" cx="0" cy="0" r="1"
            gradientUnits="userSpaceOnUse"
            gradientTransform="translate(75.415 84.7483) scale(249.888 249.888)">
            <stop offset="0.7" stop-color="white" />
            <stop offset="1" stop-color="#AAC2E6" />
        </radialGradient>
        <radialGradient id="paint7_radial_1345_24449" cx="0" cy="0" r="1"
            gradientUnits="userSpaceOnUse"
            gradientTransform="translate(102.847 205.749) scale(36.8663 36.8663)">
            <stop stop-color="white" />
            <stop offset="1" stop-color="#AAC2E6" />
        </radialGradient>
        <radialGradient id="paint8_radial_1345_24449" cx="0" cy="0" r="1"
            gradientUnits="userSpaceOnUse"
            gradientTransform="translate(143.583 188.429) scale(81.6187)">
            <stop stop-color="white" />
            <stop offset="1" stop-color="#AAC2E6" />
        </radialGradient>
        <radialGradient id="paint9_radial_1345_24449" cx="0" cy="0" r="1"
            gradientUnits="userSpaceOnUse"
            gradientTransform="translate(136.181 214.022) scale(224.391 224.391)">
            <stop stop-color="white" />
            <stop offset="1" stop-color="#CFE2FF" />
        </radialGradient>
        <radialGradient id="paint10_radial_1345_24449" cx="0" cy="0" r="1"
            gradientUnits="userSpaceOnUse"
            gradientTransform="translate(201.496 284.078) scale(144.562 144.562)">
            <stop stop-color="#AAC2E6" />
            <stop offset="1" stop-color="white" />
        </radialGradient>
        <radialGradient id="paint11_radial_1345_24449" cx="0" cy="0" r="1"
            gradientUnits="userSpaceOnUse"
            gradientTransform="translate(218.429 220.844) scale(151.094 151.094)">
            <stop stop-color="white" />
            <stop offset="1" stop-color="#AAC2E6" />
        </radialGradient>
        <radialGradient id="paint12_radial_1345_24449" cx="0" cy="0" r="1"
            gradientUnits="userSpaceOnUse"
            gradientTransform="translate(186.304 120.986) scale(267.257 267.257)">
            <stop stop-color="white" />
            <stop offset="1" stop-color="#AAC2E6" />
        </radialGradient>
        <radialGradient id="paint13_radial_1345_24449" cx="0" cy="0" r="1"
            gradientUnits="userSpaceOnUse"
            gradientTransform="translate(194.819 263.129) scale(115.969 115.969)">
            <stop stop-color="#F2F6FF" />
            <stop offset="1" stop-color="#D6F3FF" />
        </radialGradient>
        <radialGradient id="paint14_radial_1345_24449" cx="0" cy="0" r="1"
            gradientUnits="userSpaceOnUse"
            gradientTransform="translate(231.54 285.868) scale(104.793 104.793)">
            <stop stop-color="#F2F6FF" />
            <stop offset="1" stop-color="#D6F3FF" />
        </radialGradient>
        <radialGradient id="paint15_radial_1345_24449" cx="0" cy="0" r="1"
            gradientUnits="userSpaceOnUse"
            gradientTransform="translate(62.0134 98.7304) scale(243.066 243.066)">
            <stop stop-color="#F2F6FF" />
            <stop offset="1" stop-color="#D6F3FF" />
        </radialGradient>
        <radialGradient id="paint16_radial_1345_24449" cx="0" cy="0" r="1"
            gradientUnits="userSpaceOnUse"
            gradientTransform="translate(111.314 81.2649) scale(104.6 104.6)">
            <stop stop-color="white" />
            <stop offset="1" stop-color="#AAC2E6" />
        </radialGradient>
        <radialGradient id="paint17_radial_1345_24449" cx="0" cy="0" r="1"
            gradientUnits="userSpaceOnUse"
            gradientTransform="translate(171.161 80.4423) scale(68.1204 68.1204)">
            <stop stop-color="white" />
            <stop offset="1" stop-color="#AAC2E6" />
        </radialGradient>
    </defs>
</svg>
    