<svg width="400" height="401" viewBox="0 0 400 401" fill="none" xmlns="http://www.w3.org/2000/svg">
    <g clip-path="url(#clip0_1345_24806)">
        <path
            d="M201.665 389.119C304.605 389.119 388.054 305.67 388.054 202.731C388.054 99.7915 304.605 16.3427 201.665 16.3427C98.7262 16.3427 15.2773 99.7915 15.2773 202.731C15.2773 305.67 98.7262 389.119 201.665 389.119Z"
            fill="url(#paint0_radial_1345_24806)" style="mix-blend-mode:screen" />
        <path
            d="M214.012 370.437C300.769 370.437 371.1 300.106 371.1 213.348C371.1 126.591 300.769 56.2601 214.012 56.2601C127.254 56.2601 56.9233 126.591 56.9233 213.348C56.9233 300.106 127.254 370.437 214.012 370.437Z"
            fill="url(#paint1_radial_1345_24806)" style="mix-blend-mode:screen" />
        <path
            d="M306 306.012C364.542 247.47 364.542 152.554 306 94.0122C247.458 35.4701 152.542 35.47 94 94.0122C35.4578 152.554 35.4578 247.47 94 306.012C152.542 364.554 247.458 364.554 306 306.012Z"
            fill="url(#paint2_radial_1345_24806)" style="mix-blend-mode:screen" />
        <path fill-rule="evenodd" clip-rule="evenodd"
            d="M272.743 73.5439C272.743 73.5439 291.272 78.6754 303.606 77.9247C303.606 77.9247 325.695 92.9356 338.033 132.709C338.033 132.709 327.424 145.286 329.68 159.901C329.68 159.901 310.783 108.561 272.743 73.5439Z"
            fill="url(#paint3_linear_1345_24806)" />
        <path fill-rule="evenodd" clip-rule="evenodd"
            d="M293.067 370.354C293.067 370.354 285.51 368.073 279.9 368.754C279.9 368.754 272.359 363.098 272.24 353.297C272.24 353.297 278.027 346.157 280.127 340.65C280.127 340.65 282.445 356.482 293.067 370.354Z"
            fill="url(#paint4_linear_1345_24806)" />
        <path fill-rule="evenodd" clip-rule="evenodd"
            d="M332.659 188.763C332.659 202.281 330.757 215.378 327.164 227.736C320.036 252.602 306.222 274.613 287.775 291.781C274.587 304.078 259.019 313.854 241.88 320.359C226.345 326.27 209.532 329.48 191.914 329.48C189.418 329.48 186.894 329.422 184.427 329.273H184.398C180.715 329.096 177.06 328.737 173.467 328.292C146.287 324.728 121.603 313.437 101.581 296.624C94.0648 290.358 87.2338 283.288 81.203 275.562C76.6284 269.77 72.4993 263.62 68.8734 257.115C68.0113 255.572 67.1821 253.996 66.3489 252.42C66.3489 252.363 66.32 252.33 66.2911 252.272C65.429 250.581 64.6288 248.885 63.8533 247.161H63.8244C61.3865 241.786 59.2498 236.23 57.5255 230.525C56.2179 226.425 55.1206 222.209 54.2296 217.931C54.2008 217.902 54.2008 217.841 54.2008 217.812C53.5779 214.813 53.0416 211.781 52.625 208.72C51.6763 202.186 51.1978 195.533 51.1978 188.759C51.1978 184.869 51.3463 180.975 51.701 177.172C51.8784 174.734 52.1465 172.329 52.4724 169.925C54.2833 156.081 58.1443 142.893 63.7295 130.626C66.4644 124.595 69.6118 118.803 73.1469 113.247C79.0291 103.978 85.9798 95.4848 93.8214 87.8494C119.161 63.1943 153.766 48.0143 191.91 48.0143C193.395 48.0143 194.88 48.0432 196.336 48.072C197.912 48.1298 199.483 48.1917 201.059 48.3113C209.14 48.8475 217.039 50.0355 224.675 51.8753C229.13 52.9437 233.498 54.1935 237.776 55.6785C240.688 56.6603 243.538 57.7575 246.36 58.9455C248.468 59.8365 250.518 60.7564 252.568 61.7382C252.923 61.9155 253.282 62.064 253.636 62.2414C267.302 68.9239 279.69 77.7184 290.44 88.2619C291.982 89.7469 293.471 91.2938 294.956 92.8654C295.938 93.9338 296.916 95.0352 297.869 96.1324C299.502 97.9722 301.078 99.9068 302.621 101.837C308.235 108.965 313.164 116.63 317.293 124.768C322.136 134.214 325.939 144.284 328.522 154.831C331.223 165.705 332.651 177.053 332.651 188.755L332.659 188.763Z"
            fill="url(#paint5_radial_1345_24806)" />
        <path style="mix-blend-mode:multiply" opacity="0.5" fill-rule="evenodd" clip-rule="evenodd"
            d="M56.5684 167.978C56.5684 167.978 81.669 181.07 104.154 163.267C126.64 145.463 108.655 79.0468 108.655 79.0468L56.5684 167.974V167.978Z"
            fill="url(#paint6_linear_1345_24806)" />
        <path style="mix-blend-mode:multiply" opacity="0.89" fill-rule="evenodd" clip-rule="evenodd"
            d="M219.733 269.147C219.733 269.147 231.089 282.801 258.879 284.303C286.669 285.804 314.439 253.91 320.816 225.018C327.193 196.127 306.556 166.922 286.294 162.384C266.032 157.851 219.729 269.147 219.729 269.147H219.733Z"
            fill="url(#paint7_linear_1345_24806)" />
        <path style="mix-blend-mode:screen" fill-rule="evenodd" clip-rule="evenodd"
            d="M108.469 298.67C93.9204 286.489 81.863 271.404 73.1964 254.314C67.7514 243.572 63.6511 232.051 61.1143 219.969C61.0895 219.944 61.0895 219.895 61.0895 219.845C59.1384 210.469 58.0865 200.755 58.0865 190.797C58.0865 163.015 66.1426 137.118 80.0315 115.293C85.9385 106.016 92.8726 97.5225 100.706 89.9036C126.071 65.2485 160.659 50.0643 198.815 50.0643C201.892 50.0643 204.916 50.1633 207.944 50.3572C217.489 50.9677 226.762 52.5476 235.684 54.969C224.687 51.3637 213.079 49.0867 201.055 48.3153C198.027 48.1215 194.999 48.0225 191.926 48.0225C153.77 48.0225 119.182 63.2066 93.8173 87.8617C85.9798 95.4765 79.0498 103.974 73.1428 113.251C59.2539 135.076 51.1978 160.973 51.1978 188.755C51.1978 198.717 52.2455 208.431 54.2008 217.803C54.2008 217.853 54.2008 217.902 54.2255 217.927C56.7665 230.009 60.8668 241.535 66.3076 252.272C74.9743 269.358 87.0316 284.447 101.581 296.628C117 309.564 135.203 319.225 155.168 324.616C137.897 318.981 122.098 310.104 108.469 298.67Z"
            fill="url(#paint8_radial_1345_24806)" />
        <path fill-rule="evenodd" clip-rule="evenodd"
            d="M76.979 269.943C76.979 269.943 85.8931 284.472 83.645 308.112C83.645 308.112 103.189 342.271 158.349 345.084C158.349 345.084 186.114 324.616 212.692 327.949C212.692 327.949 166.805 262.535 76.9831 269.943H76.979Z"
            fill="url(#paint9_linear_1345_24806)" />
        <path fill-rule="evenodd" clip-rule="evenodd"
            d="M56.5684 167.978C56.5684 167.978 47.3243 142.465 39.0248 133.456C39.0248 133.456 32.6476 92.9316 73.9223 79.0468C73.9223 79.0468 96.152 83.2873 108.655 79.0468C108.655 79.0468 113.415 106.437 94.5597 135.708C78.4805 160.664 56.5726 167.978 56.5726 167.978H56.5684Z"
            fill="url(#paint10_linear_1345_24806)" />
        <path fill-rule="evenodd" clip-rule="evenodd"
            d="M309.422 187.844C309.422 187.844 299.588 153.251 266.184 151.177C230.755 148.974 199.38 219.676 210.311 253.452C221.242 287.227 260.677 282.364 278.732 270.088C300.665 255.18 311.427 222.23 309.422 187.844Z"
            fill="url(#paint11_linear_1345_24806)" />
        <path style="mix-blend-mode:multiply" opacity="0.5" fill-rule="evenodd" clip-rule="evenodd"
            d="M159.145 86.2613C159.145 86.2613 171.136 106.548 194.364 104.329C219.728 101.903 226.51 80.4286 225.565 71.9228C224.621 63.4171 159.145 86.2613 159.145 86.2613Z"
            fill="url(#paint12_linear_1345_24806)" />
        <path fill-rule="evenodd" clip-rule="evenodd"
            d="M271.642 163.271C241.009 163.102 195.634 244.608 235.139 272.01C272.673 298.043 307.356 241.539 311.427 222.234C315.499 202.933 312.887 163.498 271.642 163.271Z"
            fill="url(#paint13_linear_1345_24806)" />
        <path fill-rule="evenodd" clip-rule="evenodd"
            d="M257.39 271.185C255.934 271.066 254.507 270.859 253.17 270.649C234.158 267.382 227.03 254.161 225.425 240.825C224.415 232.361 225.632 223.863 227.447 217.804C231.039 205.804 250.32 177.671 272.393 173.72C280.234 172.292 288.435 173.959 296.425 180.522C303.169 186.107 306.527 193.445 307.298 201.584C310.268 231.944 278.097 273.025 257.394 271.185H257.39Z"
            fill="url(#paint14_linear_1345_24806)" />
        <path fill-rule="evenodd" clip-rule="evenodd"
            d="M164.544 48.9875C164.544 48.9875 150.478 67.0509 157.416 83.291C164.779 100.517 206.038 99.7869 219.37 86.6281C232.702 73.4694 222.063 48.3646 210.592 43.9591C197.528 38.9431 180.281 39.8919 164.544 48.9875Z"
            fill="url(#paint15_radial_1345_24806)" />
        <path fill-rule="evenodd" clip-rule="evenodd"
            d="M161.917 72.6241C169.098 87.1028 218.281 89.1736 221.832 64.0523C225.207 40.185 190.346 37.2315 180.281 39.888C170.216 42.5445 152.244 53.1252 161.917 72.6241Z"
            fill="url(#paint16_linear_1345_24806)" />
        <path fill-rule="evenodd" clip-rule="evenodd"
            d="M214.837 57.8688C214.927 58.669 214.927 59.4445 214.837 60.187C214.808 60.9873 214.688 61.7917 214.511 62.5342C210.501 78.6629 178.091 83.9223 170.695 74.9504C168.645 72.4548 167.399 69.988 166.805 67.645C164.281 57.7533 173.104 49.8209 178.953 46.7602C186.172 42.9569 213.232 39.067 214.837 57.8688Z"
            fill="url(#paint17_linear_1345_24806)" />
        <path fill-rule="evenodd" clip-rule="evenodd"
            d="M39.0248 133.46C39.7054 142.662 85.9879 99.0323 73.9223 79.0508C73.9223 79.0508 35.2751 82.6148 39.0248 133.46Z"
            fill="url(#paint18_linear_1345_24806)" />
        <path fill-rule="evenodd" clip-rule="evenodd"
            d="M83.6404 308.112C80.7653 291.67 164.35 303.03 158.344 345.085C157.032 354.279 88.4172 335.416 83.6404 308.112Z"
            fill="url(#paint19_linear_1345_24806)" />
        <path fill-rule="evenodd" clip-rule="evenodd"
            d="M150.833 343.872C149.439 345.002 103.573 338.229 87.7989 310.364C86.7594 308.491 91.6599 307.897 99.1757 308.788C102.026 309.114 105.235 309.679 108.651 310.48C119.524 313.004 132.324 317.938 140.999 325.779C143.701 328.217 145.78 330.412 147.327 332.375C149.554 335.226 150.742 337.544 151.279 339.326C152.021 341.85 151.485 343.364 150.833 343.872Z"
            fill="url(#paint20_linear_1345_24806)" />
        <path fill-rule="evenodd" clip-rule="evenodd"
            d="M147.331 332.375C129.152 329.166 116.08 318.412 108.655 310.484C119.528 313.008 132.328 317.942 141.003 325.783C143.705 328.221 145.784 330.416 147.331 332.379V332.375Z"
            fill="url(#paint21_linear_1345_24806)" />
        <path fill-rule="evenodd" clip-rule="evenodd"
            d="M68.8938 91.6897C68.1224 94.1606 66.8189 97.4565 64.8554 101.841C61.345 109.654 54.4109 117.789 49.3578 121.749C46.7796 123.795 44.68 124.752 43.8303 124.009C42.0771 122.495 42.37 111.279 47.7366 100.86C53.1074 90.4151 67.6439 82.9984 69.133 84.6195C70.0653 85.6301 70.222 87.4905 68.8938 91.6897Z"
            fill="url(#paint22_linear_1345_24806)" />
        <path fill-rule="evenodd" clip-rule="evenodd"
            d="M68.8939 91.6897C68.1225 94.1606 66.819 97.4564 64.8555 101.841C61.3452 109.654 54.411 117.789 49.3579 121.749C55.2567 105.694 65.7053 94.771 68.8939 91.6855V91.6897Z"
            fill="url(#paint23_linear_1345_24806)" />
        <path fill-rule="evenodd" clip-rule="evenodd"
            d="M83.6409 250.152C82.1848 249.261 80.7617 247.656 79.4829 245.606C79.4829 245.606 79.4829 245.577 79.4252 245.515C74.7598 237.999 72.0579 224.927 76.9873 222.254C83.0758 218.925 92.0766 220.65 96.1479 231.461C96.1479 231.461 96.1479 231.49 96.1768 231.519C96.3253 231.874 96.4738 232.262 96.5646 232.649C96.5934 232.707 96.6223 232.769 96.6223 232.827C96.6801 233.124 96.7708 233.392 96.8616 233.569C96.9812 233.957 97.1008 234.341 97.1874 234.757C99.7119 245.066 90.4431 254.273 83.6409 250.143V250.152Z"
            fill="url(#paint24_linear_1345_24806)" />
        <path style="mix-blend-mode:multiply" opacity="0.4" fill-rule="evenodd" clip-rule="evenodd"
            d="M96.1479 231.465C93.8586 226.862 84.9486 221.516 79.4829 226.503C73.7492 231.734 78.9467 244.327 79.4252 245.515C74.7598 237.999 72.0579 224.927 76.9873 222.254C83.0758 218.925 92.0766 220.65 96.1479 231.461V231.465Z"
            fill="url(#paint25_radial_1345_24806)" />
        <path fill-rule="evenodd" clip-rule="evenodd"
            d="M126.273 113.193C125.637 112.727 125.047 111.935 124.54 110.945C124.54 110.945 124.54 110.933 124.515 110.9C122.663 107.266 121.929 101.157 124.297 100.121C127.221 98.83 131.293 99.9685 132.741 105.096C132.741 105.096 132.741 105.108 132.753 105.125C132.807 105.294 132.86 105.475 132.885 105.657C132.897 105.686 132.91 105.715 132.906 105.739C132.922 105.88 132.951 106.003 132.984 106.09C133.025 106.272 133.062 106.453 133.087 106.647C133.846 111.481 129.234 115.351 126.268 113.189L126.273 113.193Z"
            fill="url(#paint26_linear_1345_24806)" />
        <path style="mix-blend-mode:multiply" opacity="0.4" fill-rule="evenodd" clip-rule="evenodd"
            d="M132.745 105.096C131.875 102.893 127.985 100.092 125.283 102.171C122.445 104.349 124.346 110.339 124.52 110.904C122.668 107.27 121.933 101.161 124.301 100.125C127.226 98.8342 131.297 99.9727 132.745 105.1V105.096Z"
            fill="url(#paint27_radial_1345_24806)" />
        <path fill-rule="evenodd" clip-rule="evenodd"
            d="M231.666 309.655H231.621C231.34 309.795 231.014 309.935 230.688 309.981C230.643 310.026 230.594 310.076 230.548 310.076C230.313 310.121 230.082 310.17 229.942 310.261C229.661 310.356 229.335 310.447 228.964 310.542C224.258 311.8 219.827 310.076 217.356 307.279C215.352 305.043 214.655 302.197 216.098 299.681C216.8 298.468 218.103 297.255 219.782 296.183L219.827 296.137C225.932 292.173 236.653 289.706 238.938 293.712C239.59 294.784 240.011 295.997 240.151 297.255C240.848 301.731 238.567 306.903 231.666 309.655Z"
            fill="url(#paint28_linear_1345_24806)" />
        <path style="mix-blend-mode:screen" opacity="0.5" fill-rule="evenodd" clip-rule="evenodd"
            d="M115.655 232.15C115.655 232.15 124.119 245.651 147.331 244.245C170.542 242.838 174.762 231.482 176.169 222.246C177.575 213.006 173.702 201.642 173.702 201.642C173.702 201.642 122.399 211.336 115.655 232.154V232.15Z"
            fill="url(#paint29_radial_1345_24806)" />
        <path style="mix-blend-mode:multiply" opacity="0.4" fill-rule="evenodd" clip-rule="evenodd"
            d="M240.151 297.255C238.241 295.622 234.277 293.621 227.797 295.671C217.868 298.794 217.356 307.279 217.356 307.279C215.352 305.043 214.655 302.197 216.098 299.681C216.8 298.468 218.103 297.255 219.782 296.183L219.827 296.137C225.932 292.173 236.653 289.706 238.938 293.712C239.59 294.784 240.011 295.997 240.151 297.255Z"
            fill="url(#paint30_radial_1345_24806)" />
        <path fill-rule="evenodd" clip-rule="evenodd"
            d="M174.836 214.714L174.807 215.217C174.869 251.162 121.009 246.765 112.573 227.633C111.414 224.989 110.433 222.048 109.69 218.958V218.93C104.938 199.682 107.908 173.897 116.492 167.986C125.522 161.778 142.872 161.629 155.494 167.986C169.721 175.147 175.339 196.564 174.832 214.714H174.836Z"
            fill="url(#paint31_linear_1345_24806)" />
        <path style="mix-blend-mode:multiply" opacity="0.4" fill-rule="evenodd" clip-rule="evenodd"
            d="M174.836 214.714L174.807 215.217C174.807 215.217 175.612 192.732 164.738 180.728C153.836 168.728 132.093 165.342 119.644 178.855C107.524 192.043 109.575 217.709 109.69 218.93C104.938 199.682 107.908 173.897 116.492 167.986C125.522 161.778 142.872 161.629 155.494 167.986C169.721 175.147 175.339 196.564 174.832 214.714H174.836Z"
            fill="url(#paint32_linear_1345_24806)" />
        <path fill-rule="evenodd" clip-rule="evenodd"
            d="M275.804 101.565C272.743 103.198 265.496 98.6855 258.871 93.0384C250.819 86.1166 243.753 77.4747 246.512 76.2249C250.287 74.5336 264.159 75.6597 270.545 80.9191C273.279 83.1755 275.89 86.6529 277.466 90.188C279.459 94.7915 279.636 99.4858 275.804 101.565Z"
            fill="url(#paint33_linear_1345_24806)" />
        <path style="mix-blend-mode:multiply" opacity="0.4" fill-rule="evenodd" clip-rule="evenodd"
            d="M277.47 90.1881C277.441 90.1592 277.412 90.0973 277.379 90.0684C267.347 74.9214 251.875 75.5773 250.744 79.7064C249.614 83.8356 258.875 93.0384 258.875 93.0384C250.823 86.1167 243.757 77.4748 246.516 76.2249C250.291 74.5337 264.163 75.6598 270.548 80.9192C273.283 83.1756 275.894 86.6529 277.47 90.1881Z"
            fill="url(#paint34_linear_1345_24806)" />
        <path fill-rule="evenodd" clip-rule="evenodd"
            d="M48.9995 129.66C48.9995 129.66 71.9056 118.168 74.3105 95.4723C74.3105 95.4723 62.7564 118.832 48.9995 129.66Z"
            fill="#E5BDFA" />
        <path fill-rule="evenodd" clip-rule="evenodd"
            d="M219.733 242.19C219.733 242.19 221.989 196.683 254.902 169.863C254.902 169.863 215.426 188.747 219.733 242.19Z"
            fill="#E5BDFA" />
        <path fill-rule="evenodd" clip-rule="evenodd"
            d="M163.262 74.6329C163.262 74.6329 169.433 84.0007 190.532 83.2871C211.627 82.5694 218.553 72.9416 219.733 70.3594C219.733 70.3594 214.498 86.5129 190.648 85.9478C165.481 85.3538 163.262 74.6329 163.262 74.6329Z"
            fill="#FFA5F7" />
        <path fill-rule="evenodd" clip-rule="evenodd"
            d="M119.652 303.937C119.652 303.937 151.641 316.849 158.122 335.432C158.122 335.432 157.408 314.106 119.652 303.937Z"
            fill="#FFA5F7" />
        <path style="mix-blend-mode:multiply" opacity="0.71" fill-rule="evenodd" clip-rule="evenodd"
            d="M307.294 201.584V201.642C307.294 201.642 296.425 182.873 266.275 191.102C239.244 198.47 227.566 233.248 225.425 240.825C224.415 232.361 225.632 223.863 227.447 217.804C231.039 205.804 250.32 177.671 272.393 173.72C280.234 172.292 288.435 173.959 296.425 180.522C303.169 186.107 306.527 193.445 307.298 201.584H307.294Z"
            fill="url(#paint35_linear_1345_24806)" />
        <path fill-rule="evenodd" clip-rule="evenodd"
            d="M343.908 352.258C343.334 355.43 342.332 358.421 340.966 361.168C338.24 366.699 334.065 371.278 329.012 374.529C325.395 376.855 321.331 378.489 317.033 379.289C313.139 380.019 309.055 380.056 304.922 379.31C304.336 379.202 303.747 379.083 303.173 378.942H303.165C302.307 378.744 301.465 378.505 300.64 378.249C294.412 376.261 289.099 372.565 285.114 367.772C283.617 365.982 282.313 364.035 281.224 361.968C280.395 360.417 279.69 358.796 279.112 357.117C278.976 356.717 278.848 356.313 278.72 355.908C278.72 355.896 278.72 355.888 278.712 355.871C278.58 355.438 278.464 355.005 278.357 354.568H278.349C278.007 353.202 277.738 351.808 277.578 350.397C277.446 349.379 277.367 348.343 277.338 347.304C277.334 347.295 277.338 347.283 277.338 347.275C277.318 346.545 277.322 345.81 277.355 345.076C277.408 343.5 277.578 341.921 277.866 340.332C278.031 339.421 278.229 338.513 278.477 337.635C278.621 337.07 278.786 336.517 278.964 335.968C279.974 332.796 281.439 329.867 283.27 327.223C284.165 325.924 285.151 324.699 286.215 323.544C287.989 321.617 289.977 319.918 292.143 318.462C299.135 313.751 307.896 311.655 316.848 313.272C317.194 313.334 317.545 313.404 317.883 313.475C318.25 313.557 318.617 313.635 318.98 313.73C320.853 314.196 322.656 314.811 324.372 315.566C325.374 316.007 326.343 316.482 327.284 317.014C327.923 317.369 328.546 317.748 329.161 318.144C329.619 318.441 330.06 318.746 330.497 319.064C330.571 319.122 330.65 319.171 330.728 319.229C333.653 321.378 336.186 323.964 338.26 326.893C338.562 327.306 338.842 327.735 339.127 328.164C339.312 328.457 339.494 328.754 339.671 329.055C339.976 329.558 340.265 330.078 340.546 330.593C341.56 332.503 342.394 334.512 343.017 336.595C343.751 339.017 344.217 341.541 344.378 344.123C344.551 346.788 344.407 349.511 343.908 352.258Z"
            fill="url(#paint36_radial_1345_24806)" />
        <path fill-rule="evenodd" clip-rule="evenodd"
            d="M319.954 310.145C319.954 310.145 306.638 309.791 301.663 323.052C296.387 337.119 317.05 358.684 330.221 358.494C343.392 358.305 346.712 341.73 344.732 332.882C342.323 322.137 332.205 313.647 319.958 310.145H319.954Z"
            fill="url(#paint37_linear_1345_24806)" />
        <path fill-rule="evenodd" clip-rule="evenodd"
            d="M306.572 322.36C302.616 334.739 325.263 363.325 339.849 350.769C353.705 338.839 338.413 317.715 332.201 313.648C325.989 309.58 311.902 305.695 306.576 322.36H306.572Z"
            fill="url(#paint38_linear_1345_24806)" />
        <path fill-rule="evenodd" clip-rule="evenodd"
            d="M342.394 341.661C342.167 342.234 341.915 342.787 341.672 343.303C338.112 350.587 332.597 351.817 327.738 350.794C324.656 350.142 321.847 348.583 319.966 347.089C316.237 344.132 308.882 332.8 310.314 323.366C310.813 320.013 312.438 316.903 315.746 314.489C318.551 312.46 321.538 312.023 324.475 312.728C335.439 315.331 345.673 333.506 342.394 341.657V341.661Z"
            fill="url(#paint39_linear_1345_24806)" />
        <path fill-rule="evenodd" clip-rule="evenodd"
            d="M341.672 343.303C335.843 355.207 324.801 350.93 319.966 347.089C316.237 344.132 308.882 332.8 310.314 323.367C311.213 321.601 312.553 319.984 314.451 318.602C326.735 309.647 342.757 331.806 341.672 343.299V343.303Z"
            fill="url(#paint40_linear_1345_24806)" />
        <path style="mix-blend-mode:multiply" opacity="0.71" fill-rule="evenodd" clip-rule="evenodd"
            d="M324.475 312.732L324.495 312.74C324.495 312.74 316.567 314.786 315.598 328.024C314.727 339.891 325.37 348.979 327.738 350.794C324.656 350.142 321.847 348.583 319.966 347.089C316.237 344.132 308.882 332.8 310.314 323.366C310.813 320.013 312.438 316.903 315.746 314.489C318.551 312.46 321.538 312.023 324.475 312.728V312.732Z"
            fill="url(#paint41_linear_1345_24806)" />
        <path style="mix-blend-mode:multiply" opacity="0.71" fill-rule="evenodd" clip-rule="evenodd"
            d="M214.837 57.869C214.927 58.6693 214.927 59.4448 214.837 60.1873C209.194 51.9001 198.795 50.0563 185.698 52.8778C172.568 55.6993 166.805 67.6411 166.805 67.6411C164.281 57.7494 173.104 49.817 178.953 46.7563C186.172 42.953 213.232 39.0631 214.837 57.8649V57.869Z"
            fill="url(#paint42_linear_1345_24806)" />
    </g>
    <defs>
        <radialGradient id="paint0_radial_1345_24806" cx="0" cy="0" r="1"
            gradientUnits="userSpaceOnUse"
            gradientTransform="translate(201.665 202.731) scale(186.388)">
            <stop stop-color="#9813FF" />
            <stop offset="1" stop-color="#9813FF" stop-opacity="0" />
        </radialGradient>
        <radialGradient id="paint1_radial_1345_24806" cx="0" cy="0" r="1"
            gradientUnits="userSpaceOnUse"
            gradientTransform="translate(214.012 213.348) scale(157.088)">
            <stop stop-color="#9813FF" />
            <stop offset="1" stop-color="#9813FF" stop-opacity="0" />
        </radialGradient>
        <radialGradient id="paint2_radial_1345_24806" cx="0" cy="0" r="1"
            gradientUnits="userSpaceOnUse"
            gradientTransform="translate(200.001 200.013) scale(149.907)">
            <stop stop-color="#9813FF" />
            <stop offset="1" stop-color="#9813FF" stop-opacity="0" />
        </radialGradient>
        <linearGradient id="paint3_linear_1345_24806" x1="297.212" y1="154.757" x2="309.237"
            y2="78.8157" gradientUnits="userSpaceOnUse">
            <stop stop-color="#8931B3" />
            <stop offset="1" stop-color="#8E8CFF" />
        </linearGradient>
        <linearGradient id="paint4_linear_1345_24806" x1="288.921" y1="343.66" x2="280.272"
            y2="368.877" gradientUnits="userSpaceOnUse">
            <stop stop-color="#8E8CFF" />
            <stop offset="1" stop-color="#8931B3" />
        </linearGradient>
        <radialGradient id="paint5_radial_1345_24806" cx="0" cy="0" r="1"
            gradientUnits="userSpaceOnUse"
            gradientTransform="translate(144.171 139.816) scale(212.215 212.215)">
            <stop stop-color="#FFB8E2" />
            <stop offset="0.22" stop-color="#FCB7E2" />
            <stop offset="0.33" stop-color="#F5B4E5" />
            <stop offset="0.42" stop-color="#E7B0E9" />
            <stop offset="0.49" stop-color="#D5AAEF" />
            <stop offset="0.55" stop-color="#BDA2F7" />
            <stop offset="0.58" stop-color="#AE9DFC" />
            <stop offset="0.64" stop-color="#A896FC" />
            <stop offset="0.72" stop-color="#9982FC" />
            <stop offset="0.81" stop-color="#8063FD" />
            <stop offset="0.91" stop-color="#5E37FE" />
            <stop offset="0.92" stop-color="#5E37FF" />
            <stop offset="0.99" stop-color="#5E9AFF" />
        </radialGradient>
        <linearGradient id="paint6_linear_1345_24806" x1="56.5684" y1="125.837" x2="115.465"
            y2="125.837" gradientUnits="userSpaceOnUse">
            <stop stop-color="white" />
            <stop offset="0.17" stop-color="#DBCFEA" />
            <stop offset="0.36" stop-color="#B9A2D6" />
            <stop offset="0.55" stop-color="#9E7FC7" />
            <stop offset="0.72" stop-color="#8B66BC" />
            <stop offset="0.87" stop-color="#8057B5" />
            <stop offset="1" stop-color="#7C52B3" />
        </linearGradient>
        <linearGradient id="paint7_linear_1345_24806" x1="219.733" y1="223.298" x2="321.996"
            y2="223.298" gradientUnits="userSpaceOnUse">
            <stop stop-color="#7C52B3" />
            <stop offset="0.13" stop-color="#8057B5" />
            <stop offset="0.28" stop-color="#8B66BC" />
            <stop offset="0.45" stop-color="#9E7FC7" />
            <stop offset="0.64" stop-color="#B9A2D6" />
            <stop offset="0.83" stop-color="#DBCFEA" />
            <stop offset="1" stop-color="white" />
        </linearGradient>
        <radialGradient id="paint8_radial_1345_24806" cx="0" cy="0" r="1"
            gradientUnits="userSpaceOnUse"
            gradientTransform="translate(89.0859 92.9685) scale(185.233 185.233)">
            <stop stop-color="#FFFFD9" />
            <stop offset="1" />
        </radialGradient>
        <linearGradient id="paint9_linear_1345_24806" x1="137.918" y1="342.601" x2="148.399"
            y2="276.432" gradientUnits="userSpaceOnUse">
            <stop stop-color="#6D109D" />
            <stop offset="1" stop-color="#8E8CFF" />
        </linearGradient>
        <linearGradient id="paint10_linear_1345_24806" x1="96.1478" y1="135.283" x2="49.7251"
            y2="94.9281" gradientUnits="userSpaceOnUse">
            <stop stop-color="#C98EFF" />
            <stop offset="1" stop-color="#8931B3" />
        </linearGradient>
        <linearGradient id="paint11_linear_1345_24806" x1="298.868" y1="248.289" x2="219.431"
            y2="187.533" gradientUnits="userSpaceOnUse">
            <stop stop-color="#5400B3" />
            <stop offset="1" stop-color="#F2C0FF" />
        </linearGradient>
        <linearGradient id="paint12_linear_1345_24806" x1="159.145" y1="87.2596" x2="225.652"
            y2="87.2596" gradientUnits="userSpaceOnUse">
            <stop stop-color="white" />
            <stop offset="0.17" stop-color="#DBCFEA" />
            <stop offset="0.36" stop-color="#B9A2D6" />
            <stop offset="0.55" stop-color="#9E7FC7" />
            <stop offset="0.72" stop-color="#8B66BC" />
            <stop offset="0.87" stop-color="#8057B5" />
            <stop offset="1" stop-color="#7C52B3" />
        </linearGradient>
        <linearGradient id="paint13_linear_1345_24806" x1="259.102" y1="279.523" x2="274.238"
            y2="163.143" gradientUnits="userSpaceOnUse">
            <stop stop-color="#644FF7" />
            <stop offset="1" stop-color="#9F6DFF" />
        </linearGradient>
        <linearGradient id="paint14_linear_1345_24806" x1="232.029" y1="263.612" x2="293.97"
            y2="187.675" gradientUnits="userSpaceOnUse">
            <stop stop-color="#935CE1" />
            <stop offset="0.22" stop-color="#8F5ADF" />
            <stop offset="0.43" stop-color="#8353DB" />
            <stop offset="0.63" stop-color="#7149D5" />
            <stop offset="0.82" stop-color="#563BCC" />
            <stop offset="0.99" stop-color="#392CC2" />
        </linearGradient>
        <radialGradient id="paint15_radial_1345_24806" cx="0" cy="0" r="1"
            gradientUnits="userSpaceOnUse"
            gradientTransform="translate(162.255 76.033) rotate(-109.29) scale(52.7753 52.7753)">
            <stop stop-color="#DEA5FF" />
            <stop offset="1" stop-color="#8931B3" />
        </radialGradient>
        <linearGradient id="paint16_linear_1345_24806" x1="219.653" y1="50.9531" x2="161.205"
            y2="71.4098" gradientUnits="userSpaceOnUse">
            <stop stop-color="#C287F8" />
            <stop offset="1" stop-color="#CCB3FF" />
        </linearGradient>
        <linearGradient id="paint17_linear_1345_24806" x1="190.635" y1="79.3023" x2="190.635"
            y2="43.6087" gradientUnits="userSpaceOnUse">
            <stop stop-color="#9F6DFF" />
            <stop offset="0.27" stop-color="#9B69FE" />
            <stop offset="0.52" stop-color="#905EFD" />
            <stop offset="0.76" stop-color="#7D4BFA" />
            <stop offset="1" stop-color="#6431F7" />
        </linearGradient>
        <linearGradient id="paint18_linear_1345_24806" x1="57.348" y1="134.718" x2="57.348"
            y2="79.0508" gradientUnits="userSpaceOnUse">
            <stop stop-color="#FC9FF7" />
            <stop offset="1" stop-color="#F66DFF" />
        </linearGradient>
        <linearGradient id="paint19_linear_1345_24806" x1="121.112" y1="347.44" x2="121.112"
            y2="300.893" gradientUnits="userSpaceOnUse">
            <stop stop-color="#C282F7" />
            <stop offset="1" stop-color="#DC6DFF" />
        </linearGradient>
        <linearGradient id="paint20_linear_1345_24806" x1="119.652" y1="343.987" x2="119.652"
            y2="308.384" gradientUnits="userSpaceOnUse">
            <stop stop-color="#4848F7" />
            <stop offset="1" stop-color="#6D20FF" />
        </linearGradient>
        <linearGradient id="paint21_linear_1345_24806" x1="127.993" y1="332.375" x2="127.993"
            y2="310.484" gradientUnits="userSpaceOnUse">
            <stop stop-color="#644FF7" />
            <stop offset="1" stop-color="#9F6DFF" />
        </linearGradient>
        <linearGradient id="paint22_linear_1345_24806" x1="56.3661" y1="124.261" x2="56.3661"
            y2="84.3967" gradientUnits="userSpaceOnUse">
            <stop stop-color="#9F6DFF" />
            <stop offset="1" stop-color="#644FF7" />
        </linearGradient>
        <linearGradient id="paint23_linear_1345_24806" x1="57.4883" y1="105.682" x2="61.3782"
            y2="108.144" gradientUnits="userSpaceOnUse">
            <stop stop-color="#9084FF" />
            <stop offset="1" stop-color="#C287F8" />
        </linearGradient>
        <linearGradient id="paint24_linear_1345_24806" x1="72.9201" y1="227.778" x2="97.1833"
            y2="243.114" gradientUnits="userSpaceOnUse">
            <stop stop-color="#9084FF" />
            <stop offset="0.49" stop-color="#D08BFC" />
            <stop offset="1" stop-color="#FFC9F8" />
        </linearGradient>
        <radialGradient id="paint25_radial_1345_24806" cx="0" cy="0" r="1"
            gradientUnits="userSpaceOnUse"
            gradientTransform="translate(85.2538 233.128) scale(11.6655 11.6655)">
            <stop stop-color="#1372B3" />
            <stop offset="1" stop-color="white" />
        </radialGradient>
        <linearGradient id="paint26_linear_1345_24806" x1="122.219" y1="102.491" x2="132.769"
            y2="110.476" gradientUnits="userSpaceOnUse">
            <stop stop-color="#9084FF" />
            <stop offset="0.49" stop-color="#D08BFC" />
            <stop offset="1" stop-color="#FFC9F8" />
        </linearGradient>
        <radialGradient id="paint27_radial_1345_24806" cx="0" cy="0" r="1"
            gradientUnits="userSpaceOnUse"
            gradientTransform="translate(127.676 105.427) rotate(4.82) scale(5.379 5.379)">
            <stop stop-color="#1372B3" />
            <stop offset="1" stop-color="white" />
        </radialGradient>
        <linearGradient id="paint28_linear_1345_24806" x1="240.217" y1="301.533" x2="215.364"
            y2="301.009" gradientUnits="userSpaceOnUse">
            <stop stop-color="#9566FC" />
            <stop offset="1" stop-color="#5445B1" />
        </linearGradient>
        <radialGradient id="paint29_radial_1345_24806" cx="0" cy="0" r="1"
            gradientUnits="userSpaceOnUse"
            gradientTransform="translate(154.508 239.315) scale(26.2763 26.2763)">
            <stop stop-color="#FFFFE8" />
            <stop offset="0.2" stop-color="#BBBBAA" />
            <stop offset="0.42" stop-color="#79796E" />
            <stop offset="0.61" stop-color="#45453E" />
            <stop offset="0.78" stop-color="#1F1F1C" />
            <stop offset="0.91" stop-color="#080807" />
            <stop offset="1" />
        </radialGradient>
        <radialGradient id="paint30_radial_1345_24806" cx="0" cy="0" r="1"
            gradientUnits="userSpaceOnUse"
            gradientTransform="translate(227.743 299.474) scale(10.3661 10.3661)">
            <stop stop-color="#1372B3" />
            <stop offset="1" stop-color="white" />
        </radialGradient>
        <linearGradient id="paint31_linear_1345_24806" x1="106.563" y1="182.106" x2="174.073"
            y2="224.783" gradientUnits="userSpaceOnUse">
            <stop stop-color="#9084FF" />
            <stop offset="0.12" stop-color="#9684FE" />
            <stop offset="0.29" stop-color="#AA86FD" />
            <stop offset="0.49" stop-color="#C98AFC" />
            <stop offset="0.53" stop-color="#D08BFC" />
            <stop offset="1" stop-color="#FFC9F8" />
        </linearGradient>
        <linearGradient id="paint32_linear_1345_24806" x1="107.434" y1="191.102" x2="174.869"
            y2="191.102" gradientUnits="userSpaceOnUse">
            <stop stop-color="#1372B3" />
            <stop offset="1" stop-color="white" />
        </linearGradient>
        <linearGradient id="paint33_linear_1345_24806" x1="246.533" y1="75.8701" x2="279.686"
            y2="96.8292" gradientUnits="userSpaceOnUse">
            <stop stop-color="#845FFF" />
            <stop offset="0.49" stop-color="#A972FC" />
            <stop offset="1" stop-color="#D4B0F8" />
        </linearGradient>
        <linearGradient id="paint34_linear_1345_24806" x1="245.906" y1="84.2687" x2="277.47"
            y2="84.2687" gradientUnits="userSpaceOnUse">
            <stop stop-color="#1372B3" />
            <stop offset="1" stop-color="white" />
        </linearGradient>
        <linearGradient id="paint35_linear_1345_24806" x1="225.058" y1="207.037" x2="307.294"
            y2="207.037" gradientUnits="userSpaceOnUse">
            <stop stop-color="#7C52B3" />
            <stop offset="1" stop-color="white" />
        </linearGradient>
        <radialGradient id="paint36_radial_1345_24806" cx="0" cy="0" r="1"
            gradientUnits="userSpaceOnUse"
            gradientTransform="translate(301.727 332.796) rotate(10.24) scale(50.6014 50.6014)">
            <stop stop-color="#FFB8E2" />
            <stop offset="0.22" stop-color="#FCB7E2" />
            <stop offset="0.33" stop-color="#F5B4E5" />
            <stop offset="0.42" stop-color="#E7B0E9" />
            <stop offset="0.49" stop-color="#D5AAEF" />
            <stop offset="0.55" stop-color="#BDA2F7" />
            <stop offset="0.58" stop-color="#AE9DFC" />
            <stop offset="0.64" stop-color="#A896FC" />
            <stop offset="0.72" stop-color="#9982FC" />
            <stop offset="0.81" stop-color="#8063FD" />
            <stop offset="0.91" stop-color="#5E37FE" />
            <stop offset="0.92" stop-color="#5E37FF" />
            <stop offset="0.99" stop-color="#5E9AFF" />
        </radialGradient>
        <linearGradient id="paint37_linear_1345_24806" x1="340.319" y1="323.318" x2="308.05"
            y2="345.135" gradientUnits="userSpaceOnUse">
            <stop stop-color="#5400B3" />
            <stop offset="1" stop-color="#F2C0FF" />
        </linearGradient>
        <linearGradient id="paint38_linear_1345_24806" x1="346.007" y1="341.273" x2="306.413"
            y2="322.013" gradientUnits="userSpaceOnUse">
            <stop stop-color="#644FF7" />
            <stop offset="1" stop-color="#9F6DFF" />
        </linearGradient>
        <linearGradient id="paint39_linear_1345_24806" x1="343.749" y1="337.751" x2="309.181"
            y2="326.158" gradientUnits="userSpaceOnUse">
            <stop stop-color="#392CC2" />
            <stop offset="1" stop-color="#5F33C5" />
        </linearGradient>
        <linearGradient id="paint40_linear_1345_24806" x1="342.902" y1="339.734" x2="308.705"
            y2="328.265" gradientUnits="userSpaceOnUse">
            <stop stop-color="#5E48F7" />
            <stop offset="1" stop-color="#8C50FF" />
        </linearGradient>
        <linearGradient id="paint41_linear_1345_24806" x1="315.652" y1="346.897" x2="326.831"
            y2="313.565" gradientUnits="userSpaceOnUse">
            <stop stop-color="#7C52B3" />
            <stop offset="1" stop-color="white" />
        </linearGradient>
        <linearGradient id="paint42_linear_1345_24806" x1="166.36" y1="55.625" x2="214.907"
            y2="55.625" gradientUnits="userSpaceOnUse">
            <stop stop-color="#7C52B3" />
            <stop offset="1" stop-color="white" />
        </linearGradient>
        <clipPath id="clip0_1345_24806">
            <rect width="400" height="400" fill="white" transform="translate(0 0.012207)" />
        </clipPath>
    </defs>
</svg>
    