<svg width="400" height="401" viewBox="0 0 400 401" fill="none" xmlns="http://www.w3.org/2000/svg">
    <path
        d="M199.204 357.493C287.57 357.493 359.204 285.858 359.204 197.493C359.204 109.127 287.57 37.4928 199.204 37.4928C110.839 37.4928 39.2045 109.127 39.2045 197.493C39.2045 285.858 110.839 357.493 199.204 357.493Z"
        fill="url(#paint0_radial_360_2237)" style="mix-blend-mode:screen" />
    <path
        d="M200.001 359.59C287.949 359.59 359.245 288.293 359.245 200.345C359.245 112.397 287.949 41.1006 200.001 41.1006C112.052 41.1006 40.7561 112.397 40.7561 200.345C40.7561 288.293 112.052 359.59 200.001 359.59Z"
        fill="url(#paint1_radial_360_2237)" />
    <path fill-rule="evenodd" clip-rule="evenodd"
        d="M344.483 204.889C344.483 246.667 326.764 284.287 298.419 310.65C284.859 323.283 268.897 333.307 251.279 339.998C235.339 346.063 218.073 349.37 200.002 349.37C193.586 349.37 187.246 348.943 181.055 348.142C153.159 344.483 127.799 332.879 107.247 315.639C92.3102 303.133 79.9313 287.645 71.0336 270.1C65.4434 259.072 61.2338 247.243 58.6292 234.839C58.6038 234.814 58.6038 234.763 58.6038 234.712C56.6007 225.086 55.5208 215.112 55.5208 204.889C55.5208 176.366 63.7917 149.779 78.051 127.372C84.1155 117.847 91.2345 109.127 99.2768 101.305C125.318 75.9927 160.828 60.4037 200.002 60.4037C203.161 60.4037 206.27 60.5053 209.374 60.7044C225.789 61.7589 241.454 65.5407 255.891 71.6307C258.424 72.6852 260.906 73.8117 263.362 75.0144C277.397 81.8582 290.127 90.9042 301.155 101.729C327.895 127.918 344.487 164.458 344.487 204.885L344.483 204.889Z"
        fill="url(#paint2_radial_360_2237)" />
    <path fill-rule="evenodd" clip-rule="evenodd"
        d="M123.713 300.676C111.601 300.676 89.3077 283.033 78.7117 260.283C65.4519 231.891 65.3503 202.047 71.7578 196.546C73.6001 194.941 76.0818 194.124 79.1098 194.124C81.0748 194.124 83.277 194.475 85.6613 195.166C101.017 199.608 122.197 220.8 131.357 242.009C140.331 262.782 137.667 279.29 135.139 289.382C132.852 298.677 127.668 300.655 123.721 300.676H123.709H123.713Z"
        fill="url(#paint3_linear_360_2237)" />
    <path fill-rule="evenodd" clip-rule="evenodd"
        d="M132.708 288.772C131.281 294.587 128.422 298.144 123.709 298.169C113.257 298.169 91.404 281.602 80.9774 259.224C67.671 230.727 68.4206 202.708 73.384 198.448C75.8912 196.267 80.0245 196.144 84.9625 197.571C100.475 202.056 123.857 222.058 128.922 242.606C133.233 260.101 135.363 278.167 132.708 288.772Z"
        fill="url(#paint4_linear_360_2237)" />
    <path fill-rule="evenodd" clip-rule="evenodd"
        d="M82.8704 184.629C81.2653 184.68 79.889 184.1 78.8853 182.948C74.9425 178.293 80.7021 162.327 83.2516 156.564C87.3383 147.327 91.3743 142.575 95.2493 142.44C96.685 142.393 98.1037 142.91 99.3446 143.905H99.4038L100.158 144.629C104.575 149.038 106.62 159.058 102.622 166.948C99.7257 172.661 90.6543 182.711 84.5348 184.362C83.9715 184.519 83.404 184.612 82.8662 184.629H82.8704Z"
        fill="url(#paint5_linear_360_2237)" />
    <path fill-rule="evenodd" clip-rule="evenodd"
        d="M101.005 165.999C98.1715 171.581 89.1086 181.546 83.5396 183.054C82.1208 183.452 80.9393 183.261 80.1304 182.334C76.014 177.476 87.8974 144.1 95.5585 143.833C96.7104 143.795 97.8581 144.363 98.8449 145.409H98.8703C102.546 149.076 104.825 158.457 101 166.003L101.005 165.999Z"
        fill="url(#paint6_linear_360_2237)" />
    <path fill-rule="evenodd" clip-rule="evenodd"
        d="M287.175 296.954C282.313 296.954 278.722 295.048 277.062 291.588C273.865 284.859 275.504 260.3 285.257 238.6C299.728 206.359 319.586 197.838 328.068 197.838C328.67 197.838 329.225 197.876 329.729 197.948C330.055 197.999 330.334 198.058 330.618 198.151C332.816 198.689 334.739 200.472 336.145 203.39C341.858 215.261 338.571 244.571 329.246 264.882C320.547 283.783 300.096 296.954 287.18 296.954H287.175Z"
        fill="url(#paint7_linear_360_2237)" />
    <path fill-rule="evenodd" clip-rule="evenodd"
        d="M326.967 263.836C315.516 288.721 284.562 301.43 279.324 290.504C276.668 284.914 277.744 261.431 287.544 239.629C302.256 206.846 322.381 199.43 329.373 200.43C329.525 200.455 329.673 200.481 329.826 200.531C339.727 202.988 338.22 239.328 326.967 263.84V263.836Z"
        fill="url(#paint8_linear_360_2237)" />
    <path fill-rule="evenodd" clip-rule="evenodd"
        d="M324.905 195.53C323.8 195.53 322.796 195.263 321.919 194.734C315.952 191.142 311.971 167.655 316.083 160.307C317.214 158.266 318.73 157.605 319.802 157.411C320.246 157.322 320.742 157.275 321.25 157.275C327.984 157.275 334.768 165.203 337.038 175.714C338.631 183.003 335.454 189.046 331.948 192.273C329.754 194.336 327.179 195.53 324.905 195.53Z"
        fill="url(#paint9_linear_360_2237)" />
    <path fill-rule="evenodd" clip-rule="evenodd"
        d="M330.249 190.431C327.793 192.735 324.96 193.637 323.207 192.586C318.421 189.702 314.737 167.85 318.269 161.535C318.768 160.633 319.421 160.032 320.251 159.88C325.163 158.901 332.257 165.444 334.586 176.244C335.916 182.334 333.409 187.521 330.249 190.431Z"
        fill="url(#paint10_linear_360_2237)" />
    <path fill-rule="evenodd" clip-rule="evenodd"
        d="M209.065 347.537C208.184 347.537 207.269 347.524 206.316 347.494C191.511 347.054 180.165 340.748 178.149 335.154C177.396 333.066 177.9 330.982 179.496 329.576C184.167 325.46 203.411 325.252 207.223 325.252C219.695 325.252 234.848 326.472 236.199 332.291C236.542 333.773 236.461 336.064 234.145 338.571C230.714 342.345 225.996 347.537 209.065 347.537Z"
        fill="url(#paint11_linear_360_2237)" />
    <path fill-rule="evenodd" clip-rule="evenodd"
        d="M232.307 336.869C228.796 340.727 224.383 345.521 206.393 344.987C188.911 344.471 176.947 335.162 181.156 331.452C186.844 326.438 232.209 326.163 233.763 332.854C234.064 334.158 233.564 335.509 232.311 336.864L232.307 336.869Z"
        fill="url(#paint12_linear_360_2237)" />
    <path fill-rule="evenodd" clip-rule="evenodd"
        d="M279.044 206.986C269.388 206.986 261.96 202.395 258.123 194.056C248.954 174.071 248.954 134.944 255.637 119.198C257.327 115.217 259.33 112.803 261.765 111.812C264.192 110.809 266.724 110.296 269.282 110.296C277.82 110.296 286.671 116.009 294.883 126.817C308.333 144.519 317.705 173.262 314.173 185.959C313.043 190.054 309.502 194.412 304.2 198.223C296.632 203.708 287.226 206.981 279.048 206.981L279.044 206.986Z"
        fill="url(#paint13_linear_360_2237)" />
    <path fill-rule="evenodd" clip-rule="evenodd"
        d="M311.751 185.294C310.747 188.927 307.364 192.862 302.73 196.195C290.097 205.342 268.296 210.179 260.402 193.01C251.478 173.563 251.529 135.291 257.945 120.181C259.275 117.047 260.851 114.891 262.705 114.142C289.949 102.864 317.04 166.296 311.751 185.294Z"
        fill="url(#paint14_linear_360_2237)" />
    <path fill-rule="evenodd" clip-rule="evenodd"
        d="M132.708 288.772C118.597 293.811 96.7951 276.164 85.4157 247.396C75.3914 222.134 82.9848 202.06 84.9625 197.571C100.475 202.056 123.857 222.058 128.922 242.606C133.233 260.101 135.363 278.167 132.708 288.772Z"
        fill="#FFFF45" />
    <path fill-rule="evenodd" clip-rule="evenodd"
        d="M232.307 336.869C202.382 346.118 181.156 331.456 181.156 331.456C186.844 326.442 232.209 326.167 233.763 332.858C234.064 334.162 233.564 335.513 232.311 336.869H232.307Z"
        fill="#FFFF45" />
    <path fill-rule="evenodd" clip-rule="evenodd"
        d="M322.203 261.609C301.803 294.917 279.324 290.504 279.324 290.504C276.668 284.914 277.744 261.431 287.544 239.629C302.256 206.846 322.381 199.43 329.373 200.43C329.525 200.455 329.673 200.481 329.826 200.531C333.76 212.686 336.92 237.6 322.207 261.609H322.203Z"
        fill="#FFFF45" />
    <path fill-rule="evenodd" clip-rule="evenodd"
        d="M302.73 196.195C290.097 205.342 268.296 210.179 260.402 193.01C251.478 173.563 251.529 135.291 257.945 120.181C263.586 119.427 273.983 121.307 286.117 139.077C302.781 163.488 308.371 182.236 302.735 196.195H302.73Z"
        fill="#FFFF45" />
    <path fill-rule="evenodd" clip-rule="evenodd"
        d="M330.249 190.431C327.793 192.735 324.96 193.637 323.207 192.587C318.421 189.703 314.737 167.85 318.269 161.536C322.055 163.717 327.666 168.252 329.17 176.396C330.122 181.508 330.347 186.395 330.249 190.431Z"
        fill="#FFFF45" />
    <path fill-rule="evenodd" clip-rule="evenodd"
        d="M101.005 165.999C98.1715 171.581 89.1086 181.546 83.5396 183.053C83.8953 180.834 88.1388 154.925 98.8448 145.409H98.8703C102.546 149.076 104.825 158.457 101 166.003L101.005 165.999Z"
        fill="#FFFF45" />
    <path style="mix-blend-mode:soft-light" opacity="0.3" fill-rule="evenodd" clip-rule="evenodd"
        d="M274.737 239.027C273.31 242.462 271.705 245.367 269.498 248.349C267.817 250.606 265.589 252.308 264.26 254.841C259.724 263.413 260.677 273.035 258.017 282.034C256.59 286.947 252.855 290.855 251.402 295.819C250.75 298.076 251.102 300.105 251.025 302.434C250.924 305.14 249.547 306.995 247.917 309.1C246.164 311.404 243.682 313.187 240.976 314.262C238.795 315.139 236.44 314.787 234.106 314.787C228.919 314.787 223.904 314.084 218.894 312.632C214.308 311.302 210.047 309.172 205.41 307.872C202.225 306.995 200.049 307.27 196.864 307.922C194.158 308.473 191.1 308.172 188.343 308.122C183.481 308.02 178.895 310.777 174.584 312.907C171.399 314.487 169.319 316.291 168.091 319.751C166.664 323.685 166.715 327.344 161.976 328.898C159.219 329.8 155.861 328.848 153.154 328.297C150.673 327.772 147.992 328.073 145.459 328.098C140.521 328.123 135.91 326.645 131.552 324.337C126.44 321.631 121.93 317.494 117.818 313.559C115.586 311.429 112.731 310.226 110.423 308.147C107.239 305.339 104.109 302.807 101.123 299.774C96.613 295.188 91.675 290.5 86.6395 286.493C83.0567 283.66 79.9736 280.154 76.9414 276.846C74.4089 274.089 72.9054 270.053 71.0251 266.873C67.3406 260.584 64.3338 253.011 62.5297 245.947C60.4249 237.753 58.0448 228.83 58.1422 220.309C58.2439 213.118 57.2148 206.147 57.2148 198.931C56.588 212.639 57.291 224.019 58.5911 234.72C56.588 225.094 55.5081 215.121 55.5081 204.898C55.5081 176.375 63.779 149.788 78.0383 127.38C84.1028 117.856 91.2218 109.136 99.2641 101.314C125.305 76.0011 160.816 60.4121 199.989 60.4121C203.149 60.4121 206.257 60.5138 209.361 60.7128C225.776 61.7673 241.441 65.5492 255.879 71.6391C259.588 75.7259 263.298 80.0837 265.979 84.6956C267.08 86.6013 267.961 88.6807 269.062 90.5865C270.04 92.2635 271.091 93.1698 270.79 95.2492C270.616 96.4774 269.761 98.0316 269.261 99.1835C267.656 103.042 263.171 105.875 259.737 108.005C254.951 111.012 249.361 112.24 244.275 114.874C240.993 116.551 239.887 118.08 237.66 120.837C236.533 122.239 235.03 123.344 234.051 124.848C231.269 129.133 229.791 135.198 229.99 140.238C230.342 149.936 237.859 156.979 239.612 166.177C241.166 174.122 240.04 182.541 242.568 190.363C245.376 199.083 253.045 206.253 260.236 211.314C263.218 213.418 266.153 215.172 268.783 217.704C271.239 220.059 274.699 221.414 276.452 224.345C279.357 229.207 276.626 234.42 274.724 239.032L274.737 239.027Z"
        fill="url(#paint15_linear_360_2237)" />
    <path fill-rule="evenodd" clip-rule="evenodd"
        d="M263.358 75.0187C262.883 75.0695 262.405 75.1204 261.93 75.2178C260.3 75.5185 259.025 75.3702 257.42 74.9171C256.268 74.591 255.438 74.1167 254.21 73.9134C252.457 73.6381 250.826 72.8843 249.073 72.6598C247.218 72.41 245.613 71.6815 243.86 71.0548C242.483 70.555 241.755 70.7287 240.425 71.0548C239.095 71.4063 238.168 70.8557 236.991 70.3518C235.661 69.7758 234.335 69.6742 232.929 69.3989C229.27 68.6451 225.637 67.4677 222.003 66.5403C219.746 65.9643 217.666 65.9643 215.362 65.9389C213.558 65.9135 211.928 66.4386 210.124 66.4386C208.921 66.4386 207.892 66.2396 206.689 66.0617C205.461 65.8372 204.207 66.0871 202.979 65.9092C201.15 65.634 200.171 65.3587 198.317 65.9347C196.936 66.3878 195.86 66.337 194.484 66.409C192.955 66.4852 191.227 66.8833 189.724 67.2348C187.018 67.8616 184.057 68.3613 181.279 68.3105C179.577 68.3105 177.07 67.8362 175.439 68.4121C174.385 68.789 173.859 69.9156 173.135 70.6694C171.733 72.122 170.001 73.4264 168.824 75.0568C167.647 76.6873 166.317 78.3644 166.419 80.4184C166.52 82.1971 167.346 84.2764 168.121 85.9069C168.921 87.6348 169.197 89.2144 167.418 90.3664C165.186 91.8444 162.607 93.1996 160.049 93.9238C158.347 94.4235 156.818 94.7242 155.386 93.496C154.861 93.0429 154.535 92.1662 153.883 91.8147C153.205 91.4632 152.502 91.8147 151.778 92.0392C149.974 92.5643 148.221 93.1657 146.391 93.4664C145.265 93.64 144.286 94.2414 143.185 94.4447C141.856 94.6945 140.903 93.7163 139.526 94.0423C137.595 94.4955 135.668 95.2959 133.661 95.3975C132.234 95.4738 130.43 94.847 129.227 94.1186C128.524 93.7162 128.35 93.3182 127.545 93.5426C126.893 93.6908 125.915 94.4955 125.563 94.9952C125.089 95.6728 124.911 96.5495 124.437 97.2525C123.937 98.0275 123.459 98.7813 123.01 99.6071C122.184 101.212 121.206 102.716 120.151 104.143C119.397 105.147 118.872 106.497 118.046 107.425C117.619 107.925 116.691 108.276 116.141 108.653C114.637 109.708 113.058 110.656 111.605 111.787C108.797 113.993 106.142 116.424 103.283 118.555C101.102 120.185 98.0445 121.138 95.5628 122.163C94.0085 122.79 92.4035 123.238 90.8492 123.891C90.3495 124.09 89.422 124.318 88.9943 124.691C88.4437 125.165 88.143 126.046 87.6391 126.694C86.2839 128.35 84.8567 130.002 83.8318 131.907C83.205 133.009 82.8281 134.139 82.43 135.342C81.8795 136.973 81.0028 138.476 80.4481 140.102C79.3215 143.511 79.0928 147.069 77.8435 150.453C77.1151 152.435 76.0648 154.239 75.1628 156.043C73.6085 159.1 73.3841 162.734 72.9309 166.118C72.6811 168.1 72.7785 170.378 73.13 172.309C73.5069 174.389 73.4052 176.544 73.3798 178.675C73.3544 180.932 71.9272 183.134 70.4958 184.841C69.1914 186.42 67.2137 187.022 65.7611 188.424C64.5329 189.626 63.0549 191.007 62.5298 192.709C62.3053 193.463 62.5044 194.314 62.3815 195.115C62.0554 196.894 61.6065 198.575 61.3524 200.379C61.0772 202.611 61.0263 204.716 61.0263 206.969C61.0263 208.095 60.9501 209.251 61.0009 210.378C61.0517 211.458 61.4498 212.457 61.5261 213.537C61.5769 214.291 61.4244 215.041 61.5261 215.794C61.6785 216.646 62.0004 217.522 62.2037 218.352C62.7034 220.355 63.0803 222.312 63.4572 224.315C63.8087 226.17 64.5372 228 65.1131 229.804C65.9135 232.26 66.4429 234.793 66.9172 237.346C67.2941 239.252 67.2687 241.23 67.544 243.161C67.7685 244.715 68.12 246.295 68.1962 247.849C68.2724 250.204 67.6965 252.563 67.6711 254.943C67.6456 258.953 69.2507 262.964 70.1782 266.822C70.4535 267.902 70.7287 269.003 71.0294 270.079C61.1068 250.479 55.5166 228.326 55.5166 204.868C55.5166 176.345 63.7876 149.758 78.0468 127.351C84.1113 117.826 91.2304 109.106 99.2726 101.284C125.314 75.9716 160.824 60.3826 199.998 60.3826C203.157 60.3826 206.266 60.4842 209.37 60.6832C228.643 61.9114 246.888 66.9256 263.353 74.9933L263.358 75.0187Z"
        fill="url(#paint16_linear_360_2237)" />
    <path style="mix-blend-mode:soft-light" opacity="0.3" fill-rule="evenodd" clip-rule="evenodd"
        d="M250.657 314.783C253.494 313.089 256.251 311.281 259.14 309.697C262.248 307.994 265.323 306.817 268.605 305.538C271.032 304.594 271.286 304.518 273.246 306.08C275.046 307.512 277.223 307.817 279.48 307.834C282.572 307.859 285.934 308.1 286.222 312.03C286.616 317.422 278.472 322.118 274.623 324.295C271.514 326.053 268.135 327.238 264.895 328.725C262.159 329.978 259.059 331.435 256.04 331.85C253.431 332.206 251.695 330.982 250.013 329.047C247.993 326.722 248.129 324.494 248.129 321.593C248.129 318.226 247.964 315.935 250.661 314.787L250.657 314.783Z"
        fill="url(#paint17_linear_360_2237)" />
    <path style="mix-blend-mode:soft-light" opacity="0.3" fill-rule="evenodd" clip-rule="evenodd"
        d="M293.714 112.808C295.882 117.098 297.428 122.878 300.702 126.449C302.442 128.342 303.789 128.663 306.199 128.634C307.389 128.621 309.587 129.078 310.692 128.68C312.255 128.117 312.162 126.381 312.107 124.852C311.895 119.156 308.028 113.871 304.454 109.767C302.133 107.099 298.254 103.859 294.455 104.583C293.341 107.179 293.079 110.051 293.71 112.803L293.714 112.808Z"
        fill="url(#paint18_linear_360_2237)" />
    <g style="mix-blend-mode:screen">
        <path fill-rule="evenodd" clip-rule="evenodd"
            d="M114.319 317.735C99.3826 305.229 87.0037 289.742 78.106 272.196C72.5158 261.168 68.3062 249.34 65.7017 236.935C65.6763 236.91 65.6763 236.859 65.6763 236.808C63.6731 227.182 62.5932 217.209 62.5932 206.986C62.5932 178.463 70.8642 151.875 85.1234 129.468C91.1879 119.944 98.307 111.224 106.349 103.402C132.39 78.089 167.901 62.5 207.074 62.5C210.234 62.5 213.342 62.6016 216.447 62.8007C226.242 63.4275 235.767 65.0495 244.927 67.5354C233.636 63.834 221.719 61.4963 209.374 60.7044C206.266 60.5053 203.157 60.4037 200.002 60.4037C160.828 60.4037 125.318 75.9927 99.2768 101.305C91.2303 109.123 84.1155 117.847 78.051 127.372C63.7917 149.779 55.5208 176.366 55.5208 204.889C55.5208 215.117 56.5964 225.09 58.6038 234.712C58.6038 234.763 58.6038 234.814 58.6292 234.839C61.2338 247.243 65.4476 259.076 71.0336 270.1C79.9313 287.641 92.3102 303.133 107.247 315.639C123.077 328.92 141.767 338.838 162.264 344.373C144.532 338.588 128.312 329.474 114.319 317.735Z"
            fill="url(#paint19_radial_360_2237)" />
    </g>
    <path fill-rule="evenodd" clip-rule="evenodd"
        d="M214.172 340.193C213.762 340.765 213.105 341.252 213.673 341.857C213.961 342.167 214.52 342.412 214.926 342.518C215.6 342.692 216.798 342.59 217.332 342.162C217.865 341.735 217.785 341.171 217.45 340.667C216.785 339.668 215.972 339.52 214.888 339.956L214.177 340.193H214.172Z"
        fill="#FFFF45" />
    <path fill-rule="evenodd" clip-rule="evenodd"
        d="M119.702 97.7098C118.186 98.2096 117.593 98.3535 116.064 99.6198C114.849 100.624 113.54 101.551 112.363 102.656C110.792 104.134 110.33 105.693 109.86 107.298C109.399 108.861 108.967 110.618 109.598 111.478C109.932 111.931 110.936 111.906 111.702 111.694C112.82 111.38 114.07 110.588 115.264 109.83C116.784 108.861 118.152 107.416 119.279 105.752C120.054 104.613 120.532 103.308 121.066 102.161C121.443 101.356 121.6 100.653 121.837 99.8908C122.044 99.226 122.061 98.8025 121.934 98.3408C121.752 97.6844 121.354 97.6251 119.706 97.7056L119.702 97.7098Z"
        fill="#FFFF45" />
    <path fill-rule="evenodd" clip-rule="evenodd"
        d="M136.807 95.08C136.189 95.5924 134.842 96.5537 135.91 97.3033C136.198 97.5066 136.452 97.4007 136.757 97.4854C136.994 97.5532 137.053 97.7395 137.333 97.6337C138.201 97.3033 137.853 94.8386 136.875 95.3341L136.807 95.08Z"
        fill="#FFFF45" />
    <path fill-rule="evenodd" clip-rule="evenodd"
        d="M141.292 104.037C141.686 103.817 142.093 103.702 142.508 103.694C142.601 104.227 143.092 105.274 142.33 105.689C141.69 106.036 141.885 104.892 141.58 104.63L141.292 104.037Z"
        fill="#FFFF45" />
    <path fill-rule="evenodd" clip-rule="evenodd"
        d="M150.033 104.287C150.851 104.609 151.66 104.947 152.46 105.299C152.718 105.07 153.112 105.113 153.417 104.909C153.811 104.651 154.163 104.1 154.315 103.643C154.544 102.953 154.192 102.385 153.875 101.86C153.663 101.509 153.46 100.988 153.138 100.751C152.761 100.471 152.024 100.581 151.63 100.767C151.143 101 150.787 101.5 150.461 101.945C150.156 102.364 149.8 103.059 149.784 103.584C149.767 104.151 150.22 104.748 150.635 105.036L150.033 104.287Z"
        fill="#FFFF45" />
    <path fill-rule="evenodd" clip-rule="evenodd"
        d="M157.385 271.421C158.203 271.743 159.012 272.082 159.812 272.433C160.07 272.204 160.464 272.247 160.769 272.044C161.163 271.785 161.514 271.235 161.667 270.777C161.896 270.087 161.544 269.519 161.227 268.99C161.015 268.639 160.811 268.118 160.49 267.881C160.113 267.601 159.376 267.711 158.982 267.898C158.495 268.13 158.139 268.63 157.813 269.075C157.508 269.494 157.152 270.189 157.14 270.714C157.123 271.281 157.576 271.878 157.991 272.166L157.39 271.413L157.385 271.421Z"
        fill="#FFFF45" />
    <path fill-rule="evenodd" clip-rule="evenodd"
        d="M126.707 112.126C126.356 112.371 126.072 112.676 125.852 113.045C126.186 113.464 126.351 113.858 126.919 114.023C127.147 114.087 127.389 114.095 127.575 113.917C127.812 113.684 127.685 113.426 127.749 113.197C127.906 112.642 128.058 112.498 127.745 111.99C127.554 111.685 127.423 111.562 127.092 111.562C126.859 111.562 126.356 111.626 126.237 111.889L126.707 112.13V112.126Z"
        fill="#FFFF45" />
    <path fill-rule="evenodd" clip-rule="evenodd"
        d="M128.562 125.068C128.503 125.208 127.872 126.809 128.689 126.347C129.1 126.114 128.952 125.487 128.676 125.305C128.689 125.254 128.706 125.199 128.719 125.148L128.562 125.068Z"
        fill="#FFFF45" />
    <path fill-rule="evenodd" clip-rule="evenodd"
        d="M116.501 147.107C115.954 147.823 115.887 148.111 115.637 148.852C115.87 149.068 116.327 149.191 116.628 149.178C117.106 149.157 117.127 149.004 117.144 148.547C117.157 148.178 117.31 147.886 117.221 147.53C117.127 147.166 116.767 146.794 116.344 147.026L116.501 147.107Z"
        fill="#FFFF45" />
    <path fill-rule="evenodd" clip-rule="evenodd"
        d="M134.974 113.689C135.287 113.977 135.482 114.332 135.562 114.756C135.126 114.866 135.075 114.438 135.012 114.099C134.91 113.557 135.16 113.727 135.414 113.295C135.461 113.303 135.512 113.316 135.558 113.324L134.974 113.693V113.689Z"
        fill="#FFFF45" />
    <path fill-rule="evenodd" clip-rule="evenodd"
        d="M130.701 96.6215C130.353 96.8629 130.07 97.1678 129.849 97.5362C130.057 97.7903 129.955 98.2519 130.434 98.2181C130.773 98.1927 131.048 97.8327 131.213 97.5532C131.404 97.2271 131.421 96.9645 131.442 96.613C131.454 96.4351 131.45 95.6686 131.124 96.1726L130.696 96.6215H130.701Z"
        fill="#FFFF45" />
    <path fill-rule="evenodd" clip-rule="evenodd"
        d="M186.027 87.7704C186.132 87.3765 186.192 86.8302 186.399 86.4745C186.459 86.3728 186.607 86.2839 186.679 86.178C186.92 85.8307 186.844 85.7714 187.238 85.763C187.687 85.7503 187.979 85.7969 188.335 86.0806C189.55 87.0504 186.463 87.8 186.348 86.8598L186.027 87.7704Z"
        fill="#FFFF45" />
    <path fill-rule="evenodd" clip-rule="evenodd"
        d="M196.39 91.6029C196.233 92.3059 195.784 93.2546 196.432 93.7204C196.991 94.1228 198.164 93.4917 198.609 93.0894C199.397 92.3695 200.358 91.0058 199.604 90.0021C199.164 89.4134 197.918 88.9645 197.199 89.0323C195.725 89.172 195.297 90.9296 195.094 92.3356L196.39 91.6072V91.6029Z"
        fill="#FFFF45" />
    <path fill-rule="evenodd" clip-rule="evenodd"
        d="M200.925 77.3649C200.769 76.158 200.548 74.9679 201.62 74.3369C202.204 73.9939 203.272 73.8711 203.822 74.2819C204.22 74.5783 204.572 75.1289 204.817 75.5397C205.186 76.1495 205.088 76.1495 204.898 76.7085C204.457 77.9875 204.157 78.8302 202.886 78.8302C201.205 78.8302 200.947 77.5259 200.925 75.9039V77.3649Z"
        fill="#FFFF45" />
    <path fill-rule="evenodd" clip-rule="evenodd"
        d="M216.472 98.5356C217.391 98.2858 218.183 97.803 218.844 97.0957C218.183 96.6849 216.735 95.8337 216.472 97.0746V98.5356Z"
        fill="#FFFF45" />
    <path fill-rule="evenodd" clip-rule="evenodd"
        d="M163.035 290.686C163.954 290.436 164.746 289.953 165.406 289.246C164.746 288.835 163.297 287.984 163.035 289.225V290.686Z"
        fill="#FFC445" />
    <path fill-rule="evenodd" clip-rule="evenodd"
        d="M262.172 311.48C263.091 311.23 263.883 310.747 264.543 310.04C263.883 309.629 262.434 308.778 262.172 310.019V311.48Z"
        fill="#FFC445" />
    <path fill-rule="evenodd" clip-rule="evenodd"
        d="M228.453 117.153C229.368 116.026 230.693 113.972 232.353 115.099C233.319 115.755 233.594 117.487 232.671 118.173C231.815 118.813 231.032 118.995 230.066 119.257C229.33 119.461 228.233 118.974 228.453 117.881V117.153Z"
        fill="#FFFF45" />
    <path fill-rule="evenodd" clip-rule="evenodd"
        d="M164.25 143.943C165.165 142.817 166.491 140.763 168.151 141.889C169.116 142.546 169.392 144.278 168.468 144.964C167.613 145.603 166.829 145.786 165.864 146.048C165.127 146.251 164.03 145.764 164.25 144.672V143.943Z"
        fill="#FFC445" />
    <path fill-rule="evenodd" clip-rule="evenodd"
        d="M270.794 96.4859C271.709 95.3594 273.035 93.3054 274.695 94.432C275.66 95.0884 275.936 96.8205 275.013 97.5066C274.157 98.1461 273.374 98.3282 272.408 98.5907C271.671 98.794 270.574 98.307 270.794 97.2144V96.4859Z"
        fill="#FFC445" />
    <path fill-rule="evenodd" clip-rule="evenodd"
        d="M211.077 194.954C211.991 193.827 213.317 191.773 214.977 192.9C215.943 193.552 216.218 195.289 215.295 195.975C214.439 196.614 213.656 196.796 212.69 197.059C211.953 197.262 210.856 196.775 211.077 195.682V194.954Z"
        fill="#FFC445" />
    <path fill-rule="evenodd" clip-rule="evenodd"
        d="M158.851 103.711C157.678 104.456 155.704 105.379 155.505 106.989C155.386 107.959 155.831 108.53 156.708 108.954C157.453 109.314 158.575 109.343 159.325 108.967C160.401 108.424 161.641 107.531 162.124 106.387C162.472 105.562 162.416 104.998 162.027 104.181C161.819 103.741 161.404 103.215 160.934 103.05C159.435 102.529 158.533 103.999 157.428 104.664L158.851 103.715V103.711Z"
        fill="#FFFF45" />
    <path fill-rule="evenodd" clip-rule="evenodd"
        d="M162.649 99.4378C163.289 99.6622 163.827 100.022 164.267 100.505C163.632 100.721 162.946 101.225 162.294 100.992C161.447 100.691 161.29 99.8867 161.481 99.0778C161.586 98.6373 162.378 97.8581 162.832 98.0529C163.06 98.1503 163.107 98.4637 163.179 98.6627C163.336 99.082 163.348 98.9931 163.12 99.4335H162.645L162.649 99.4378Z"
        fill="#FFFF45" />
    <path fill-rule="evenodd" clip-rule="evenodd"
        d="M98.3071 126.266C97.0493 127.372 95.8635 128.693 95.1944 130.273C94.8556 131.077 95.4569 131.115 96.1896 130.976C97.6041 130.7 99.0313 130.307 100.429 129.951C101.259 129.739 102.445 129.303 103.021 128.6C103.461 128.062 103.643 127.13 103.546 126.453C103.41 125.504 102.737 125.136 101.873 124.894C99.9037 124.348 97.3754 125.644 96.6427 127.461L98.3029 126.275L98.3071 126.266Z"
        fill="#FFFF45" />
    <path fill-rule="evenodd" clip-rule="evenodd"
        d="M99.2557 132.915C100.264 132.941 101.2 133.186 102.063 133.644C101.814 133.94 101.894 134.343 101.763 134.694C101.568 135.211 101.077 135.732 100.615 136.024C99.8443 136.511 98.5611 136.693 97.7057 136.367C95.1054 135.38 99.0947 132.297 99.9714 133.39L99.2599 132.915H99.2557Z"
        fill="#FFFF45" />
    <path fill-rule="evenodd" clip-rule="evenodd"
        d="M181.885 74.7434C182.855 74.2776 183.727 73.6847 184.777 73.5068C185.984 73.3035 187.102 73.0664 188.33 73.0706C188.949 73.0706 190.329 73.0198 189.927 74.0277C189.491 75.1204 187.14 76.1579 186.209 76.5984C184.608 77.3522 183.104 78.1103 181.309 78.2966C180.403 78.3898 178.882 78.4575 178.37 77.5512C177.938 76.7889 178.145 76.1622 178.565 75.4549C179.005 74.718 179.471 74.4089 180.28 74.0913C180.652 73.943 182.732 73.3882 182.838 74.0362L181.889 74.7477L181.885 74.7434Z"
        fill="#FFFF45" />
    <path fill-rule="evenodd" clip-rule="evenodd"
        d="M165.737 75.2178C165.309 75.5269 162.027 77.348 163.59 78.1357C164.428 78.5592 166.08 78.4364 166.931 78.0764C167.689 77.7545 168.456 77.2548 167.981 76.3824C167.02 74.6206 164.606 75.637 163.361 76.4036L165.737 75.2178Z"
        fill="#FFFF45" />
    <path fill-rule="evenodd" clip-rule="evenodd"
        d="M120.388 194.886C120.63 196.237 120.909 197.711 122.082 198.604C123.298 199.528 124.678 199.155 125.873 198.452C126.758 197.931 127.596 197.372 128.46 196.838C128.964 196.529 129.409 196.449 129.43 195.729C129.456 194.954 128.74 193.912 128.295 193.328C127.762 192.625 126.69 191.786 125.86 191.477C124.047 190.799 120.587 191.477 120.63 193.942L120.393 194.89L120.388 194.886Z"
        fill="#FFD32F" />
    <path fill-rule="evenodd" clip-rule="evenodd"
        d="M223.905 196.326C224.146 197.677 224.425 199.151 225.599 200.044C226.814 200.972 228.195 200.595 229.389 199.892C230.274 199.371 231.113 198.812 231.976 198.278C232.48 197.969 232.925 197.889 232.946 197.169C232.972 196.394 232.256 195.352 231.811 194.768C231.278 194.065 230.206 193.226 229.376 192.917C227.564 192.239 224.104 192.917 224.146 195.377L223.909 196.326H223.905Z"
        fill="#FFBA00" />
    <path style="mix-blend-mode:screen"
        d="M172.573 165.311C214.746 147.661 239.759 111.434 228.443 84.3948C217.127 57.3559 173.766 49.7444 131.594 67.3941C89.4216 85.0438 64.4078 121.271 75.724 148.31C87.0402 175.349 130.401 182.96 172.573 165.311Z"
        fill="url(#paint20_radial_360_2237)" />
    <path fill-rule="evenodd" clip-rule="evenodd"
        d="M76.2469 248.527C76.2469 248.527 75.0611 253.723 78.7074 260.283C82.3538 266.843 84.9922 266.513 84.9922 266.513C84.9922 266.513 81.8583 254.303 76.2469 248.527Z"
        fill="#FFFF59" />
    <path fill-rule="evenodd" clip-rule="evenodd"
        d="M312.132 177.277C312.132 177.277 307.889 189.508 307.27 191.223C307.27 191.223 313.949 189.338 312.132 177.277Z"
        fill="#FFFF59" />
    <path fill-rule="evenodd" clip-rule="evenodd"
        d="M334.861 181.097C334.861 181.097 331.927 183.337 330.271 188.966C330.271 188.966 333.879 190.66 334.861 181.097Z"
        fill="#FFFF59" />
    <path fill-rule="evenodd" clip-rule="evenodd"
        d="M288.289 294.396C288.289 294.396 301.977 285.515 309.858 284.884C309.858 284.884 300.909 295.878 288.289 294.396Z"
        fill="#FFFF59" />
    <defs>
        <radialGradient id="paint0_radial_360_2237" cx="0" cy="0" r="1"
            gradientUnits="userSpaceOnUse"
            gradientTransform="translate(199.204 197.492) rotate(45.543) scale(161.099)">
            <stop stop-color="#FF9F00" />
            <stop offset="1" stop-color="white" stop-opacity="0" />
        </radialGradient>
        <radialGradient id="paint1_radial_360_2237" cx="0" cy="0" r="1"
            gradientUnits="userSpaceOnUse"
            gradientTransform="translate(200.001 200.344) rotate(45) scale(159.244)">
            <stop stop-color="#FF7300" />
            <stop offset="1" stop-color="#FF7300" stop-opacity="0" />
        </radialGradient>
        <radialGradient id="paint2_radial_360_2237" cx="0" cy="0" r="1"
            gradientUnits="userSpaceOnUse"
            gradientTransform="translate(110.516 137.32) scale(232.091 232.091)">
            <stop stop-color="#FFB80B" />
            <stop offset="0.26" stop-color="#FEB50C" />
            <stop offset="0.38" stop-color="#FDAE10" />
            <stop offset="0.48" stop-color="#FCA017" />
            <stop offset="0.57" stop-color="#F98E21" />
            <stop offset="0.64" stop-color="#F7762E" />
            <stop offset="0.66" stop-color="#F66D33" />
            <stop offset="0.72" stop-color="#EF6735" />
            <stop offset="0.81" stop-color="#DB583D" />
            <stop offset="0.91" stop-color="#BC4049" />
            <stop offset="0.98" stop-color="#A02A54" />
        </radialGradient>
        <linearGradient id="paint3_linear_360_2237" x1="67.616" y1="247.4" x2="137.574" y2="247.4"
            gradientUnits="userSpaceOnUse">
            <stop offset="0.01" stop-color="#FFA90B" />
            <stop offset="0.37" stop-color="#FFA60D" />
            <stop offset="0.64" stop-color="#FF9C16" />
            <stop offset="0.87" stop-color="#FF8C25" />
            <stop offset="1" stop-color="#FF8031" />
        </linearGradient>
        <linearGradient id="paint4_linear_360_2237" x1="70.085" y1="247.4" x2="133.877" y2="247.4"
            gradientUnits="userSpaceOnUse">
            <stop offset="0.01" stop-color="#FFE00B" />
            <stop offset="0.31" stop-color="#FFDD0C" />
            <stop offset="0.52" stop-color="#FFD311" />
            <stop offset="0.71" stop-color="#FFC31A" />
            <stop offset="0.89" stop-color="#FFAD26" />
            <stop offset="1" stop-color="#FF9B31" />
        </linearGradient>
        <linearGradient id="paint5_linear_360_2237" x1="77.1043" y1="163.909" x2="104.957"
            y2="163.024" gradientUnits="userSpaceOnUse">
            <stop offset="0.01" stop-color="#FFA90B" />
            <stop offset="0.37" stop-color="#FFA60D" />
            <stop offset="0.64" stop-color="#FF9C16" />
            <stop offset="0.87" stop-color="#FF8C25" />
            <stop offset="1" stop-color="#FF8031" />
        </linearGradient>
        <linearGradient id="paint6_linear_360_2237" x1="78.8187" y1="163.854" x2="103.183"
            y2="163.08" gradientUnits="userSpaceOnUse">
            <stop offset="0.01" stop-color="#FFE00B" />
            <stop offset="0.31" stop-color="#FFDD0C" />
            <stop offset="0.52" stop-color="#FFD311" />
            <stop offset="0.71" stop-color="#FFC31A" />
            <stop offset="0.89" stop-color="#FFAD26" />
            <stop offset="1" stop-color="#FF9B31" />
        </linearGradient>
        <linearGradient id="paint7_linear_360_2237" x1="307.27" y1="296.954" x2="307.27"
            y2="197.838" gradientUnits="userSpaceOnUse">
            <stop offset="0.01" stop-color="#FF8E0B" />
            <stop offset="0.35" stop-color="#FD8B0D" />
            <stop offset="0.59" stop-color="#F88114" />
            <stop offset="0.81" stop-color="#F07120" />
            <stop offset="1" stop-color="#E65D31" />
        </linearGradient>
        <linearGradient id="paint8_linear_360_2237" x1="278.074" y1="247.396" x2="336.411"
            y2="247.396" gradientUnits="userSpaceOnUse">
            <stop offset="0.01" stop-color="#FFE00B" />
            <stop offset="0.31" stop-color="#FFDD0C" />
            <stop offset="0.52" stop-color="#FFD311" />
            <stop offset="0.71" stop-color="#FFC31A" />
            <stop offset="0.89" stop-color="#FFAD26" />
            <stop offset="1" stop-color="#FF9B31" />
        </linearGradient>
        <linearGradient id="paint9_linear_360_2237" x1="325.926" y1="195.53" x2="325.926"
            y2="157.275" gradientUnits="userSpaceOnUse">
            <stop offset="0.01" stop-color="#FFA90B" />
            <stop offset="0.37" stop-color="#FFA60D" />
            <stop offset="0.64" stop-color="#FF9C16" />
            <stop offset="0.87" stop-color="#FF8C25" />
            <stop offset="1" stop-color="#FF8031" />
        </linearGradient>
        <linearGradient id="paint10_linear_360_2237" x1="325.904" y1="193.023" x2="325.904"
            y2="159.782" gradientUnits="userSpaceOnUse">
            <stop offset="0.01" stop-color="#FFE00B" />
            <stop offset="0.31" stop-color="#FFDD0C" />
            <stop offset="0.52" stop-color="#FFD311" />
            <stop offset="0.71" stop-color="#FFC31A" />
            <stop offset="0.89" stop-color="#FFAD26" />
            <stop offset="1" stop-color="#FF9B31" />
        </linearGradient>
        <linearGradient id="paint11_linear_360_2237" x1="207.079" y1="347.537" x2="207.079"
            y2="325.252" gradientUnits="userSpaceOnUse">
            <stop offset="0.01" stop-color="#FFA90B" />
            <stop offset="0.37" stop-color="#FFA60D" />
            <stop offset="0.64" stop-color="#FF9C16" />
            <stop offset="0.87" stop-color="#FF8C25" />
            <stop offset="1" stop-color="#FF8031" />
        </linearGradient>
        <linearGradient id="paint12_linear_360_2237" x1="207.075" y1="345.03" x2="207.075"
            y2="327.759" gradientUnits="userSpaceOnUse">
            <stop offset="0.01" stop-color="#FFE00B" />
            <stop offset="0.31" stop-color="#FFDD0C" />
            <stop offset="0.52" stop-color="#FFD311" />
            <stop offset="0.71" stop-color="#FFC31A" />
            <stop offset="0.89" stop-color="#FFAD26" />
            <stop offset="1" stop-color="#FF9B31" />
        </linearGradient>
        <linearGradient id="paint13_linear_360_2237" x1="276.939" y1="206.96" x2="289.441"
            y2="112.808" gradientUnits="userSpaceOnUse">
            <stop offset="0.01" stop-color="#FFA90B" />
            <stop offset="0.37" stop-color="#FFA60D" />
            <stop offset="0.64" stop-color="#FF9C16" />
            <stop offset="0.87" stop-color="#FF8C25" />
            <stop offset="1" stop-color="#FF8031" />
        </linearGradient>
        <linearGradient id="paint14_linear_360_2237" x1="277.261" y1="204.478" x2="289.102"
            y2="115.289" gradientUnits="userSpaceOnUse">
            <stop offset="0.01" stop-color="#FFE00B" />
            <stop offset="0.31" stop-color="#FFDD0C" />
            <stop offset="0.52" stop-color="#FFD311" />
            <stop offset="0.71" stop-color="#FFC31A" />
            <stop offset="0.89" stop-color="#FFAD26" />
            <stop offset="1" stop-color="#FF9B31" />
        </linearGradient>
        <linearGradient id="paint15_linear_360_2237" x1="55.5165" y1="194.839" x2="277.735"
            y2="194.839" gradientUnits="userSpaceOnUse">
            <stop offset="0.01" stop-color="#FFE00B" />
            <stop offset="0.31" stop-color="#FFDD0C" />
            <stop offset="0.52" stop-color="#FFD311" />
            <stop offset="0.71" stop-color="#FFC31A" />
            <stop offset="0.89" stop-color="#FFAD26" />
            <stop offset="1" stop-color="#FF9B31" />
        </linearGradient>
        <linearGradient id="paint16_linear_360_2237" x1="55.5166" y1="165.254" x2="263.358"
            y2="165.254" gradientUnits="userSpaceOnUse">
            <stop offset="0.01" stop-color="#FFE00B" />
            <stop offset="0.31" stop-color="#FFDD0C" />
            <stop offset="0.52" stop-color="#FFD311" />
            <stop offset="0.71" stop-color="#FFC31A" />
            <stop offset="0.89" stop-color="#FFAD26" />
            <stop offset="1" stop-color="#FF9B31" />
        </linearGradient>
        <linearGradient id="paint17_linear_360_2237" x1="248.124" y1="318.387" x2="286.235"
            y2="318.387" gradientUnits="userSpaceOnUse">
            <stop offset="0.01" stop-color="#FFE00B" />
            <stop offset="0.31" stop-color="#FFDD0C" />
            <stop offset="0.52" stop-color="#FFD311" />
            <stop offset="0.71" stop-color="#FFC31A" />
            <stop offset="0.89" stop-color="#FFAD26" />
            <stop offset="1" stop-color="#FF9B31" />
        </linearGradient>
        <linearGradient id="paint18_linear_360_2237" x1="293.375" y1="116.666" x2="312.132"
            y2="116.666" gradientUnits="userSpaceOnUse">
            <stop offset="0.01" stop-color="#FFE00B" />
            <stop offset="0.31" stop-color="#FFDD0C" />
            <stop offset="0.52" stop-color="#FFD311" />
            <stop offset="0.71" stop-color="#FFC31A" />
            <stop offset="0.89" stop-color="#FFAD26" />
            <stop offset="1" stop-color="#FF9B31" />
        </linearGradient>
        <radialGradient id="paint19_radial_360_2237" cx="0" cy="0" r="1"
            gradientUnits="userSpaceOnUse"
            gradientTransform="translate(94.415 106.548) scale(190.173 190.173)">
            <stop stop-color="#FFFFD9" />
            <stop offset="1" stop-color="white" stop-opacity="0" />
        </radialGradient>
        <radialGradient id="paint20_radial_360_2237" cx="0" cy="0" r="1"
            gradientUnits="userSpaceOnUse"
            gradientTransform="translate(153.074 115.775) rotate(-22.71) scale(82.9316 53.1358)">
            <stop stop-color="#FFBB00" />
            <stop offset="1" stop-color="white" stop-opacity="0" />
        </radialGradient>
    </defs>
</svg>
    