<svg width="400" height="401" viewBox="0 0 400 401" fill="none" xmlns="http://www.w3.org/2000/svg">
    <path
        d="M200 360.343C288.366 360.343 360 288.708 360 200.343C360 111.977 288.366 40.3429 200 40.3429C111.634 40.3429 40 111.977 40 200.343C40 288.708 111.634 360.343 200 360.343Z"
        fill="url(#paint0_radial_360_2236)" style="mix-blend-mode:screen" />
    <path
        d="M200.002 367.992C292.591 367.992 367.649 292.934 367.649 200.345C367.649 107.756 292.591 32.6982 200.002 32.6982C107.413 32.6982 32.3555 107.756 32.3555 200.345C32.3555 292.934 107.413 367.992 200.002 367.992Z"
        fill="url(#paint1_radial_360_2236)" />
    <path
        d="M200.002 352.305C283.928 352.305 351.963 284.27 351.963 200.345C351.963 116.42 283.928 48.3846 200.002 48.3846C116.077 48.3846 48.042 116.42 48.042 200.345C48.042 284.27 116.077 352.305 200.002 352.305Z"
        fill="url(#paint2_radial_360_2236)" style="mix-blend-mode:screen" />
    <path fill-rule="evenodd" clip-rule="evenodd"
        d="M344.483 198.935C344.483 212.813 342.531 226.259 338.842 238.947C331.524 264.471 317.341 287.073 298.402 304.7C284.863 317.324 268.88 327.361 251.284 334.04C235.335 340.108 218.073 343.403 199.985 343.403C197.423 343.403 194.831 343.344 192.299 343.191H192.269C188.487 343.009 184.735 342.641 181.046 342.184C153.142 338.525 127.8 326.933 107.243 309.671C99.5267 303.238 92.5136 295.98 86.322 288.048C81.6254 282.102 77.3861 275.787 73.6636 269.109C72.7785 267.525 71.9272 265.907 71.0718 264.289C71.0718 264.23 71.0421 264.196 71.0125 264.137C70.1274 262.4 69.3058 260.66 68.5096 258.89H68.4799C65.9771 253.371 63.7833 247.667 62.0131 241.81C60.6706 237.6 59.5441 233.272 58.6293 228.88C58.5997 228.851 58.5997 228.787 58.5997 228.758C57.9602 225.679 57.4096 222.566 56.9819 219.424C56.0079 212.715 55.5166 205.884 55.5166 198.93C55.5166 194.937 55.6691 190.939 56.0333 187.034C56.2154 184.531 56.4907 182.062 56.8252 179.593C58.6844 165.381 62.6483 151.841 68.3825 139.247C71.1903 133.055 74.4216 127.109 78.051 121.405C84.0901 111.888 91.2261 103.169 99.2769 95.3296C125.292 70.017 160.82 54.4323 199.981 54.4323C201.506 54.4323 203.03 54.4619 204.525 54.4915C206.143 54.5508 207.756 54.6144 209.374 54.7372C217.671 55.2877 225.781 56.5074 233.62 58.3962C238.193 59.4931 242.678 60.7763 247.07 62.3009C250.06 63.3088 252.986 64.4353 255.883 65.655C258.047 66.5698 260.152 67.5142 262.257 68.5221C262.621 68.7042 262.989 68.8567 263.353 69.0388C277.384 75.8995 290.102 84.9285 301.138 95.7531C302.722 97.2777 304.251 98.8659 305.775 100.479C306.783 101.576 307.787 102.707 308.765 103.834C310.442 105.722 312.06 107.709 313.644 109.691C319.408 117.009 324.469 124.877 328.708 133.233C333.68 142.931 337.585 153.269 340.236 164.098C343.01 175.261 344.475 186.912 344.475 198.926L344.483 198.935Z"
        fill="url(#paint3_radial_360_2236)" />
    <path fill-rule="evenodd" clip-rule="evenodd"
        d="M263.354 69.0557C262.879 69.1065 262.401 69.1573 261.926 69.2547C260.296 69.5554 259.021 69.4072 257.416 68.954C256.264 68.6279 255.434 68.1536 254.21 67.9503C252.457 67.6751 250.826 66.9212 249.073 66.6968C247.218 66.4469 245.613 65.7185 243.86 65.0917C242.479 64.592 241.755 64.7656 240.425 65.0917C239.095 65.4432 238.168 64.8927 236.991 64.3887C235.661 63.8127 234.335 63.7111 232.929 63.4358C229.27 62.682 225.637 61.5047 222.003 60.5772C219.746 60.0012 217.666 60.0012 215.363 59.9758C213.558 59.9504 211.928 60.4756 210.124 60.4756C208.921 60.4756 207.892 60.2765 206.689 60.0986C205.461 59.8742 204.208 60.1241 202.979 59.9504C201.15 59.6751 200.172 59.3999 198.317 59.9758C196.94 60.429 195.86 60.3782 194.484 60.4501C192.955 60.5264 191.227 60.9245 189.724 61.276C187.018 61.9028 184.057 62.4025 181.279 62.3517C179.577 62.3517 177.07 61.8773 175.439 62.4533C174.385 62.8302 173.86 63.9567 173.135 64.7106C171.734 66.1632 170.001 67.4675 168.824 69.098C167.647 70.7285 166.317 72.4056 166.419 74.4595C166.52 76.2382 167.346 78.3176 168.121 79.9481C168.922 81.676 169.197 83.2556 167.418 84.4075C165.186 85.8856 162.607 87.2408 160.049 87.9649C158.347 88.4647 156.818 88.7654 155.386 87.5372C154.861 87.0841 154.535 86.2074 153.883 85.8601C153.205 85.5086 152.502 85.8602 151.778 86.0846C149.974 86.6097 148.221 87.2111 146.391 87.5118C145.265 87.6854 144.287 88.2868 143.185 88.4901C141.856 88.7399 140.903 87.7617 139.526 88.0878C137.595 88.5409 135.668 89.3413 133.661 89.443C132.234 89.5192 130.43 88.8924 129.223 88.164C128.52 87.7617 128.346 87.3636 127.541 87.588C126.889 87.7363 125.911 88.5409 125.559 89.0406C125.085 89.7182 124.907 90.5949 124.433 91.2979C123.933 92.0729 123.455 92.8267 123.006 93.6525C122.18 95.2576 121.202 96.761 120.147 98.1882C119.393 99.1919 118.868 100.543 118.042 101.47C117.614 101.97 116.687 102.322 116.136 102.699C114.633 103.753 113.053 104.702 111.601 105.832C108.793 108.039 106.138 110.47 103.279 112.6C101.098 114.23 98.0403 115.183 95.5586 116.208C94.0044 116.835 92.3993 117.284 90.8451 117.936C90.3453 118.135 89.4179 118.364 88.9901 118.736C88.4396 119.211 88.1389 120.092 87.6349 120.74C86.2797 122.396 84.8525 124.047 83.8277 125.953C83.2009 127.054 82.824 128.185 82.4259 129.387C81.8753 131.018 80.9987 132.521 80.4439 134.148C79.3174 137.557 79.0887 141.114 77.8394 144.498C77.111 146.48 76.0607 148.284 75.1586 150.088C73.6044 153.146 73.3799 156.779 72.9268 160.163C72.6769 162.145 72.7743 164.424 73.1258 166.355C73.5027 168.434 73.4011 170.59 73.3757 172.72C73.3503 174.977 71.9231 177.179 70.4916 178.886C69.1873 180.466 67.2095 181.067 65.7569 182.469C64.5288 183.672 63.0508 185.052 62.5256 186.755C62.3012 187.509 62.5002 188.36 62.3774 189.16C62.0513 190.939 61.6024 192.62 61.3483 194.424C61.073 196.656 61.0222 198.761 61.0222 201.014C61.0222 202.141 60.946 203.297 60.9968 204.423C61.0476 205.503 61.4499 206.503 61.5219 207.583C61.5727 208.336 61.4203 209.086 61.5219 209.84C61.6744 210.691 61.9962 211.568 62.1995 212.398C62.6992 214.401 63.0762 216.357 63.4531 218.361C63.8046 220.216 64.5288 222.045 65.109 223.849C65.9094 226.305 66.4388 228.838 66.9131 231.392C67.29 233.297 67.2646 235.275 67.5398 237.206C67.7643 238.761 68.1158 240.34 68.192 241.894C68.2683 244.249 67.6923 246.608 67.6669 248.988C67.6415 252.999 69.2466 257.009 70.174 260.867C70.4493 261.947 70.7246 263.048 71.0253 264.124C61.1027 244.524 55.5125 222.371 55.5125 198.913C55.5125 170.391 63.7834 143.803 78.0426 121.396C84.1072 111.872 91.2262 103.152 99.2685 95.3296C125.309 70.017 160.82 54.428 199.994 54.428C203.153 54.428 206.262 54.5296 209.366 54.7287C228.639 55.9568 246.884 60.9711 263.349 69.0387L263.354 69.0557Z"
        fill="url(#paint4_linear_360_2236)" />
    <g style="mix-blend-mode:soft-light">
        <path fill-rule="evenodd" clip-rule="evenodd"
            d="M141.009 250.335C139.005 243.063 136.486 234.441 133.843 225.755C135.952 234.343 138.362 242.627 141.009 250.335Z"
            fill="url(#paint5_linear_360_2236)" />
        <path fill-rule="evenodd" clip-rule="evenodd"
            d="M136.693 329.174C136.693 329.174 142.423 285.003 146.785 285.003C150.19 285.003 155.954 291.668 167.643 300.549L167.651 300.558C170.916 303.035 174.618 305.682 178.891 308.409C182.546 310.747 187.166 313.186 192.265 315.609C200.87 319.7 210.831 323.744 219.809 327.162C233.997 332.566 245.727 336.411 245.727 336.411L247.997 334.777C247.997 334.777 238.024 332.693 224.379 328.047C224.379 328.039 238.469 305.102 256.484 284.384C274.5 263.662 343.721 214.998 343.721 214.998L344.31 208.12C344.31 208.12 324.554 224.459 302.654 241.823C302.659 241.789 317.303 141.169 321.936 125.102L317.307 123.196C317.307 123.196 306.436 222.447 294.303 248.412C273.412 264.797 252.588 280.382 246.587 282.339C233.421 286.629 185.142 247.853 185.078 247.807C183.829 207.896 184.752 163.403 188.055 151.795C237.274 105.189 284.423 81.9597 284.423 81.9597L282.187 79.7236C282.187 79.7236 235.191 112.774 233.814 106.438C232.442 100.102 263.438 68.2341 263.438 68.2341L259.927 67.7301C259.927 67.7301 225.438 111.956 177.836 158.74C144.359 191.642 133.144 201.62 129.43 204.652C123.383 170.065 122.976 133.788 133.14 110.368C152.185 66.4892 178.565 56.4481 178.565 56.4481C174.253 56.3041 165.034 58.6333 165.034 58.6333C165.034 58.6333 151.821 74.2986 146.239 83.4208C140.653 92.5472 133.14 110.364 128.668 107.526C124.196 104.689 110.466 85.6484 110.466 85.6484L108.806 87.3085C108.806 87.3085 122.061 99.6959 124.31 109.297C126.559 118.897 124.581 177.806 118.589 175.625C112.596 173.444 69.7378 136.9 69.7378 136.9L68.2937 140.013C68.2937 140.013 113.003 170.586 118.627 181.351C121.405 186.67 127.931 206.337 133.839 225.746C133.161 222.998 130.98 213.351 131.937 209.128C147.005 186.835 163.89 175.596 180.813 158.816C184.489 179.471 184.35 252.321 184.032 288.535L167.405 296.806C162.522 292.244 158.241 287.239 154.959 281.725C149.966 273.339 145.206 262.54 141.009 250.326C143.592 259.694 145.32 266.805 145.354 268.855C145.472 276.037 134.372 328.001 134.372 328.001L136.693 329.165V329.174ZM302.307 242.102C299.766 244.114 297.208 246.138 294.638 248.15L302.307 242.102ZM185.129 249.484L185.226 252.38C185.192 251.419 185.163 250.449 185.129 249.484ZM185.239 252.706C185.277 252.732 231.536 281.496 239.214 286.722C246.325 291.563 223.642 322.105 220.25 326.595C211.322 323.376 201.213 319.137 191.431 313.762C188.335 305.339 186.247 280.573 185.239 252.706ZM184.028 288.967V288.687C184.028 288.78 184.028 288.869 184.028 288.967ZM184.007 291.355C183.905 302.273 183.791 309.248 183.791 309.269C178.798 306.123 174.016 302.654 169.65 298.847C172.695 296.369 178.709 292.003 184.007 291.355Z"
            fill="url(#paint6_linear_360_2236)" />
        <path fill-rule="evenodd" clip-rule="evenodd"
            d="M101.022 238.693C94.3812 228.876 55.7241 194.086 55.7241 194.086L55.686 203.271C55.686 203.271 90.701 223.972 100.204 241.145C109.703 258.318 99.7004 303.23 99.7004 303.23L103.448 306.978C103.448 306.978 110.69 252.99 101.017 238.689L101.022 238.693Z"
            fill="url(#paint7_linear_360_2236)" />
    </g>
    <path style="mix-blend-mode:screen" fill-rule="evenodd" clip-rule="evenodd"
        d="M114.315 311.772C99.3785 299.266 86.9996 283.779 78.1019 266.233C72.5117 255.205 68.3021 243.377 65.6975 230.972C65.6721 230.947 65.6721 230.896 65.6721 230.845C63.669 221.219 62.5891 211.246 62.5891 201.023C62.5891 172.5 70.86 145.912 85.1193 123.505C91.1838 113.981 98.3028 105.261 106.345 97.4386C132.386 72.126 167.897 56.537 207.07 56.537C210.23 56.537 213.338 56.6386 216.442 56.8377C226.238 57.4645 235.762 59.0865 244.923 61.5724C233.632 57.871 221.715 55.5333 209.37 54.7414C206.261 54.5423 203.153 54.4407 199.998 54.4407C160.824 54.4407 125.314 70.0297 99.2726 95.3423C91.2261 103.16 84.1113 111.884 78.0468 121.409C63.7876 143.816 55.5166 170.403 55.5166 198.926C55.5166 209.154 56.5923 219.127 58.5997 228.749C58.5997 228.8 58.5997 228.851 58.6251 228.876C61.2296 241.28 65.4434 253.113 71.0294 264.137C79.9271 281.682 92.306 297.17 107.243 309.676C123.073 322.957 141.762 332.875 162.26 338.41C144.528 332.625 128.308 323.511 114.315 311.772Z"
        fill="url(#paint8_radial_360_2236)" />
    <path style="mix-blend-mode:screen" opacity="0.3" fill-rule="evenodd" clip-rule="evenodd"
        d="M168.168 57.9007C168.168 57.9007 180.403 188.966 184.007 200.108C187.606 211.25 220.241 231.692 233.603 234.195C246.964 236.698 280.81 249.009 289.645 248.662C298.475 248.311 336.916 245.126 336.916 245.126L342.218 224.54C342.218 224.54 270.507 169.112 245.109 118.41C219.712 67.7047 220.288 55.8383 220.288 55.8383L209.366 54.7499C209.366 54.7499 236.902 107.755 244.919 133.559C252.936 159.363 287.082 184.832 302.303 199.659C317.524 214.486 313.123 240.582 294.633 239.307C276.143 238.032 212.911 241.649 197.275 193.925C190.474 173.152 184.456 152.951 179.835 118.393C175.211 83.8359 168.164 57.9092 168.164 57.9092L168.168 57.9007Z"
        fill="url(#paint9_radial_360_2236)" />
    <path style="mix-blend-mode:screen" opacity="0.3" fill-rule="evenodd" clip-rule="evenodd"
        d="M61.2764 158.452C61.2764 158.452 110.69 177.438 129.57 190.215C148.445 202.992 199.295 217.708 210.082 228.842C220.868 239.976 238.998 260.897 237.431 270.794C235.864 280.691 171.789 273.666 146.247 264.141C120.706 254.616 77.9454 235.038 72.1646 225.755C66.3838 216.476 55.9954 210.763 55.9954 210.763L57.647 223.752C57.647 223.752 121.477 265.716 129.951 269.219C138.425 272.721 225.751 288.911 250.238 284.482C250.238 284.482 261.702 274.669 219.327 232.705C202.306 215.849 171.751 202.153 143.516 189.262C101.462 170.065 62.2801 155.242 62.2801 155.242L61.2722 158.452H61.2764Z"
        fill="url(#paint10_radial_360_2236)" />
    <path style="mix-blend-mode:screen" opacity="0.3" fill-rule="evenodd" clip-rule="evenodd"
        d="M236.72 59.1798C236.72 59.1798 240.048 96.6129 252.33 127.439C264.607 158.262 288.175 163.488 298.474 174.871C308.77 186.255 335.776 201.408 344.488 195.365L343.73 219.174C343.73 219.174 247.167 180.686 220.292 55.8341L236.72 59.184V59.1798Z"
        fill="url(#paint11_radial_360_2236)" />
    <path style="mix-blend-mode:screen" opacity="0.3" fill-rule="evenodd" clip-rule="evenodd"
        d="M84.1327 285.24C84.1327 285.24 125.178 274.081 175.414 281.61C240.455 291.355 253.994 296.217 259.775 303.154C265.552 310.087 267.695 326.595 267.695 326.595L274.788 322.529C274.788 322.529 271.167 290.445 263.354 285.244C255.54 280.043 194.289 290.758 129.955 269.219L76.0481 273.208L84.1412 285.244L84.1327 285.24Z"
        fill="url(#paint12_radial_360_2236)" />
    <path style="mix-blend-mode:screen" opacity="0.3" fill-rule="evenodd" clip-rule="evenodd"
        d="M276.418 246.227C273.645 238.816 233.293 228.961 226.632 234.327C221.131 238.761 257.111 280.475 265.937 281.576C274.763 282.678 279.188 253.634 276.414 246.227H276.418ZM261.702 269.219C251.301 267.258 227.568 242.983 232.811 238.045C237.156 233.954 269.41 244.596 271.718 250.619C274.03 256.641 272.103 271.18 261.702 269.219Z"
        fill="url(#paint13_radial_360_2236)" />
    <path fill-rule="evenodd" clip-rule="evenodd"
        d="M187.933 202.217C184.761 191.147 168.172 57.9008 168.172 57.9008L165.03 58.6334C165.03 58.6334 191.215 189.152 169.256 192.853C151.986 195.767 63.2583 152.138 63.2583 152.138L61.2764 158.452C61.2764 158.452 171.738 192.794 212.911 228.842C226.941 241.132 238.985 255.222 248.624 268.702C253.139 275.016 248.684 283.736 240.938 283.8C127.609 284.685 57.647 223.752 57.647 223.752L58.5914 228.753C58.5914 228.753 127.821 265.318 120.897 269.223C113.972 273.128 73.6553 269.1 73.6553 269.1L76.0353 273.217C76.0353 273.217 108.484 270.502 150.207 276.295C185.434 281.145 244.961 288.526 262.714 290.72C271.955 307.067 276.317 319.692 274.792 322.529L281.683 318.108C270.278 286.269 272.87 250.555 289.645 248.666C306.39 246.778 334.142 252.723 334.142 252.723L336.916 245.13C244.355 249.522 191.109 213.321 187.937 202.221L187.933 202.217ZM183.511 206.456C180.797 206.549 170.518 198.922 171.738 197.702C172.805 196.635 179.441 182.164 181.576 184.116C183.681 186.039 186.196 206.363 183.511 206.456ZM124.742 269.219C124.742 269.219 125.322 267.144 126.296 266.75C127.241 266.352 146.12 272.912 144.99 273.674C143.829 274.466 124.738 271.569 124.738 269.223L124.742 269.219ZM268.262 277.452C261.308 276.901 219.373 237.651 226.632 234.327C231.879 231.917 269.605 240.882 272.865 248.141C276.16 255.43 275.182 277.968 268.262 277.447V277.452Z"
        fill="url(#paint14_linear_360_2236)" />
    <path fill-rule="evenodd" clip-rule="evenodd"
        d="M216.442 56.842C216.442 56.842 226.416 99.7764 265.839 153.142C305.263 206.507 342.213 224.535 342.213 224.535L343.721 214.998C343.721 214.998 309.854 209.539 270.125 156.813C223.684 95.1772 224.048 56.4481 224.048 56.4481L216.442 56.8462V56.842Z"
        fill="url(#paint15_linear_360_2236)" />
    <path style="mix-blend-mode:screen" fill-rule="evenodd" clip-rule="evenodd"
        d="M59.5146 185.175C61.4627 214.592 128.109 166.554 192.439 145.01C267.966 119.719 324.808 173.669 333.172 170.666C346.271 165.961 293.198 58.5699 207.265 60.4544C110.453 62.5762 56.368 137.697 59.5146 185.179V185.175Z"
        fill="url(#paint16_linear_360_2236)" />
    <path fill-rule="evenodd" clip-rule="evenodd"
        d="M71.182 160.837C71.0676 166.351 84.5984 161.358 97.2526 145.163C109.907 128.968 119.203 92.1746 115.171 87.982C111.143 83.7893 71.9781 122.654 71.1777 160.837H71.182Z"
        fill="white" />
    <path fill-rule="evenodd" clip-rule="evenodd"
        d="M70.4111 168.748C63.9316 168.646 61.6193 180.834 64.5414 186.861C67.4636 192.887 73.0241 191.439 75.5059 180.843C77.0347 174.317 75.76 168.832 70.4111 168.748Z"
        fill="white" />
    <path
        d="M297.7 333.994C334.972 312.475 354.931 277.264 342.278 255.35C329.626 233.435 289.154 233.115 251.881 254.634C214.609 276.153 194.65 311.363 207.303 333.278C219.955 355.193 260.427 355.513 297.7 333.994Z"
        fill="url(#paint17_radial_360_2236)" fill-opacity="0.5" />
    <path style="mix-blend-mode:screen" fill-rule="evenodd" clip-rule="evenodd"
        d="M133.525 321.026C133.525 321.026 202.099 344.911 267.584 308.697C333.074 272.484 343.861 190.799 343.861 190.799C343.861 190.799 335.823 286.862 272.594 317.519C209.362 348.172 162.031 338.749 133.525 321.026Z"
        fill="url(#paint18_radial_360_2236)" />
    <path
        d="M143.486 169.374C181.026 143.283 197.897 102.62 181.169 78.5512C164.44 54.4821 120.447 56.1213 82.9069 82.2125C45.3667 108.304 28.4954 148.966 45.2238 173.035C61.9522 197.105 105.946 195.465 143.486 169.374Z"
        fill="url(#paint19_radial_360_2236)" />
    <defs>
        <radialGradient id="paint0_radial_360_2236" cx="0" cy="0" r="1"
            gradientUnits="userSpaceOnUse" gradientTransform="translate(200 200.343) scale(160)">
            <stop stop-color="#FF3600" />
            <stop offset="1" stop-color="#FF3600" stop-opacity="0" />
        </radialGradient>
        <radialGradient id="paint1_radial_360_2236" cx="0" cy="0" r="1"
            gradientUnits="userSpaceOnUse"
            gradientTransform="translate(200.002 200.345) scale(167.647)">
            <stop stop-color="#FFBB83" />
            <stop offset="1" stop-color="#FFBB83" stop-opacity="0" />
        </radialGradient>
        <radialGradient id="paint2_radial_360_2236" cx="0" cy="0" r="1"
            gradientUnits="userSpaceOnUse"
            gradientTransform="translate(200.002 200.345) scale(151.96)">
            <stop stop-color="#FF7900" />
            <stop offset="1" stop-color="#FF7900" stop-opacity="0" />
        </radialGradient>
        <radialGradient id="paint3_radial_360_2236" cx="0" cy="0" r="1"
            gradientUnits="userSpaceOnUse"
            gradientTransform="translate(110.517 131.353) scale(255.383 255.383)">
            <stop stop-color="#FF7263" />
            <stop offset="0.21" stop-color="#FC6E62" />
            <stop offset="0.37" stop-color="#F36561" />
            <stop offset="0.51" stop-color="#E4545F" />
            <stop offset="0.64" stop-color="#D03D5D" />
            <stop offset="0.77" stop-color="#B51F5A" />
            <stop offset="0.88" stop-color="#9A0057" />
            <stop offset="0.99" stop-color="#9A00AE" />
        </radialGradient>
        <linearGradient id="paint4_linear_360_2236" x1="55.5125" y1="159.291" x2="263.354"
            y2="159.291" gradientUnits="userSpaceOnUse">
            <stop offset="0.01" stop-color="#FF9D85" />
            <stop offset="0.29" stop-color="#FF9A83" />
            <stop offset="0.49" stop-color="#FF907F" />
            <stop offset="0.67" stop-color="#FF8078" />
            <stop offset="0.84" stop-color="#FF6A6E" />
            <stop offset="1" stop-color="#FF4D61" />
        </linearGradient>
        <linearGradient id="paint5_linear_360_2236" x1="141.759" y1="233.703" x2="133.051"
            y2="242.411" gradientUnits="userSpaceOnUse">
            <stop offset="0.01" stop-color="#FF9D85" />
            <stop offset="0.29" stop-color="#FF9A83" />
            <stop offset="0.49" stop-color="#FF907F" />
            <stop offset="0.67" stop-color="#FF8078" />
            <stop offset="0.84" stop-color="#FF6A6E" />
            <stop offset="1" stop-color="#FF4D61" />
        </linearGradient>
        <linearGradient id="paint6_linear_360_2236" x1="295.939" y1="93.5077" x2="97.8914"
            y2="291.555" gradientUnits="userSpaceOnUse">
            <stop offset="0.01" stop-color="#FF9D85" />
            <stop offset="0.29" stop-color="#FF9A83" />
            <stop offset="0.49" stop-color="#FF907F" />
            <stop offset="0.67" stop-color="#FF8078" />
            <stop offset="0.84" stop-color="#FF6A6E" />
            <stop offset="1" stop-color="#FF4D61" />
        </linearGradient>
        <linearGradient id="paint7_linear_360_2236" x1="96.8312" y1="233.28" x2="63.2738"
            y2="266.838" gradientUnits="userSpaceOnUse">
            <stop offset="0.01" stop-color="#FF9D85" />
            <stop offset="0.29" stop-color="#FF9A83" />
            <stop offset="0.49" stop-color="#FF907F" />
            <stop offset="0.67" stop-color="#FF8078" />
            <stop offset="0.84" stop-color="#FF6A6E" />
            <stop offset="1" stop-color="#FF4D61" />
        </linearGradient>
        <radialGradient id="paint8_radial_360_2236" cx="0" cy="0" r="1"
            gradientUnits="userSpaceOnUse"
            gradientTransform="translate(94.4108 100.585) scale(190.173 190.173)">
            <stop stop-color="#FFFF4A" />
            <stop offset="1" />
        </radialGradient>
        <radialGradient id="paint9_radial_360_2236" cx="0" cy="0" r="1"
            gradientUnits="userSpaceOnUse"
            gradientTransform="translate(264.052 201.018) scale(104.554 104.554)">
            <stop stop-color="white" />
            <stop offset="1" stop-color="#623964" />
        </radialGradient>
        <radialGradient id="paint10_radial_360_2236" cx="0" cy="0" r="1"
            gradientUnits="userSpaceOnUse"
            gradientTransform="translate(204.233 260.617) scale(106.781 106.781)">
            <stop stop-color="white" />
            <stop offset="1" stop-color="#623964" />
        </radialGradient>
        <radialGradient id="paint11_radial_360_2236" cx="0" cy="0" r="1"
            gradientUnits="userSpaceOnUse"
            gradientTransform="translate(288.708 179.034) scale(78.4788 78.4788)">
            <stop stop-color="white" />
            <stop offset="1" stop-color="#623964" />
        </radialGradient>
        <radialGradient id="paint12_radial_360_2236" cx="0" cy="0" r="1"
            gradientUnits="userSpaceOnUse"
            gradientTransform="translate(185.536 312.496) scale(103.203 103.203)">
            <stop stop-color="white" />
            <stop offset="1" stop-color="#623964" />
        </radialGradient>
        <radialGradient id="paint13_radial_360_2236" cx="0" cy="0" r="1"
            gradientUnits="userSpaceOnUse"
            gradientTransform="translate(264.836 272.361) scale(30.9155 30.9155)">
            <stop stop-color="white" />
            <stop offset="1" stop-color="#623964" />
        </radialGradient>
        <linearGradient id="paint14_linear_360_2236" x1="57.647" y1="190.215" x2="336.911"
            y2="190.215" gradientUnits="userSpaceOnUse">
            <stop offset="0.01" stop-color="#FFBB85" />
            <stop offset="0.21" stop-color="#FDB886" />
            <stop offset="0.36" stop-color="#F8AE8C" />
            <stop offset="0.49" stop-color="#F09E95" />
            <stop offset="0.61" stop-color="#E588A1" />
            <stop offset="0.72" stop-color="#D66BB2" />
            <stop offset="0.83" stop-color="#C447C6" />
            <stop offset="0.94" stop-color="#AF1DDE" />
            <stop offset="1" stop-color="#A100EF" />
        </linearGradient>
        <linearGradient id="paint15_linear_360_2236" x1="216.442" y1="140.492" x2="343.725"
            y2="140.492" gradientUnits="userSpaceOnUse">
            <stop offset="0.01" stop-color="#FF9D85" />
            <stop offset="0.23" stop-color="#FD9A86" />
            <stop offset="0.38" stop-color="#F7908D" />
            <stop offset="0.52" stop-color="#EE8098" />
            <stop offset="0.65" stop-color="#E06AA7" />
            <stop offset="0.77" stop-color="#CF4DBA" />
            <stop offset="0.89" stop-color="#BA29D2" />
            <stop offset="1" stop-color="#A100EF" />
        </linearGradient>
        <linearGradient id="paint16_linear_360_2236" x1="115.526" y1="83.8743" x2="277.435"
            y2="231.558" gradientUnits="userSpaceOnUse">
            <stop offset="0.02" stop-color="#FF9346" />
            <stop offset="0.21" stop-color="#BB6B33" />
            <stop offset="0.43" stop-color="#794521" />
            <stop offset="0.62" stop-color="#452712" />
            <stop offset="0.78" stop-color="#1F1208" />
            <stop offset="0.92" stop-color="#080402" />
            <stop offset="1" />
        </linearGradient>
        <radialGradient id="paint17_radial_360_2236" cx="0" cy="0" r="1"
            gradientUnits="userSpaceOnUse"
            gradientTransform="translate(272.8 299.546) rotate(60) scale(46.1136 78.2533)">
            <stop stop-color="white" stop-opacity="0.5" />
            <stop offset="0.704" stop-color="white" stop-opacity="0" />
        </radialGradient>
        <radialGradient id="paint18_radial_360_2236" cx="0" cy="0" r="1"
            gradientUnits="userSpaceOnUse"
            gradientTransform="translate(265.662 310.04) scale(91.1372 91.1372)">
            <stop stop-color="#5E5ED9" />
            <stop offset="1" />
        </radialGradient>
        <radialGradient id="paint19_radial_360_2236" cx="0" cy="0" r="1"
            gradientUnits="userSpaceOnUse"
            gradientTransform="translate(114.309 124.299) rotate(-34.8) scale(82.9315 53.1358)">
            <stop stop-color="#FFBB00" stop-opacity="0.4" />
            <stop offset="1" stop-color="#FFBB00" stop-opacity="0" />
        </radialGradient>
    </defs>
</svg>
    