<svg width="400" height="401" viewBox="0 0 400 401" fill="none" xmlns="http://www.w3.org/2000/svg">
    <path
        d="M271.132 269.897C310.184 230.844 310.184 167.528 271.132 128.475C232.08 89.4231 168.763 89.423 129.711 128.475C90.6582 167.528 90.6582 230.844 129.711 269.897C168.763 308.949 232.08 308.949 271.132 269.897Z"
        fill="url(#paint0_radial_360_2238)" style="mix-blend-mode:screen" />
    <path fill-rule="evenodd" clip-rule="evenodd"
        d="M195.545 44.8259C281.47 44.8259 351.09 114.446 351.09 200.371C351.09 286.295 281.47 355.916 195.545 355.916C109.62 355.916 40 286.247 40 200.322C40 114.398 109.669 44.8259 195.545 44.8259Z"
        fill="url(#paint1_radial_360_2238)" />
    <path style="mix-blend-mode:screen" fill-rule="evenodd" clip-rule="evenodd"
        d="M195.545 44.8259C281.47 44.8259 351.09 114.446 351.09 200.371C351.09 286.295 281.47 355.916 195.545 355.916C109.62 355.916 40 286.247 40 200.322C40 114.398 109.669 44.8259 195.545 44.8259Z"
        fill="url(#paint2_radial_360_2238)" />
    <path style="mix-blend-mode:screen" fill-rule="evenodd" clip-rule="evenodd"
        d="M79.7208 145.313C76.8663 143.33 76.9147 140.233 71.0606 140.088C65.4968 139.992 61.5779 145.555 59.5459 151.506C53.1112 170.23 53.9337 195.678 61.723 213.773C64.6743 220.643 69.077 226.787 73.528 232.786C79.624 241.011 92.0579 252.429 103.524 248.51C108.411 246.817 112.184 242.801 116.926 240.721C120.264 239.269 123.893 238.64 127.424 238.108C132.408 237.382 137.536 237.431 142.568 236.947C156.792 235.689 152.824 232.254 162.597 228.577C165.839 227.368 169.516 227.61 172.854 226.545C175.467 225.723 178.031 224.562 180.353 223.062C188.433 217.837 176.58 217.498 173.29 217.885C171.548 218.078 170 218.949 168.403 219.627C165.21 220.933 162.21 222.868 158.872 223.787C156.018 224.562 153.018 224.997 150.067 224.658C146.003 224.223 142.229 222.288 138.262 221.465C135.939 220.981 134.682 221.272 132.359 220.739C130.279 220.256 128.053 219.869 126.312 218.562C116.974 211.692 126.65 200.758 138.988 201.677C143.293 202.016 147.454 202.161 149.486 200.806C150.018 200.468 150.115 199.5 149.776 198.92C149.438 198.291 148.954 197.758 148.422 197.226C145.761 194.517 143.148 191.421 144.6 187.211C145.084 185.857 146.051 184.744 147.744 184.067C150.502 183.002 153.647 184.067 156.55 183.486C158.05 183.196 159.743 182.76 160.711 181.599C162.404 179.712 162.646 176.858 164.194 174.826C170.193 166.94 186.111 169.456 195.497 167.617C199.512 166.843 203.77 165.779 207.011 163.311C210.011 161.037 211.075 150.829 214.51 147.732C217.8 144.733 222.3 143.523 226.315 141.685C235.895 137.331 243.007 138.105 248.522 127.558C250.361 123.977 250.119 119.575 252.006 116.043C253.409 113.382 259.65 110.721 260.811 107.963C268.697 89.3366 240.104 55.8086 218.429 58.8082C205.85 60.5499 210.446 63.2109 217.171 66.7427C232.218 74.5804 241.12 81.5473 239.91 99.8837C239.378 108.302 229.992 106.754 227.815 107.818C227.041 108.205 226.847 109.27 226.799 110.14C226.654 113.914 228.154 117.833 227.234 121.51C226.315 125.187 224.283 128.67 221.622 131.331C219.348 133.605 216.058 134.815 212.962 135.637C209.721 136.556 206.237 136.702 202.85 136.508C198.835 136.266 194.626 135.976 191.045 134.186C182.821 130.219 180.402 120.688 183.256 112.269C184.127 109.657 186.401 107.77 187.707 105.351C189.159 102.787 186.207 100.706 192.255 96.7873C197.093 93.6425 202.56 88.4174 186.401 93.2555C179.918 95.1907 172.854 96.11 175.467 102.932C176.096 104.528 176.87 106.125 177.063 107.818C179.047 127.606 165.839 123.542 149.825 126.542C146.777 127.122 143.68 127.267 140.729 128.283C138.068 129.203 135.94 131.38 133.23 132.154C127.715 133.75 119.683 132.299 114.216 134.041C112.959 134.428 111.749 135.734 111.604 137.089C111.459 138.879 116.345 142.265 111.701 146.475C108.459 149.426 101.879 149.619 97.525 149.668C91.1871 149.764 84.4137 148.41 79.7208 145.168V145.313ZM98.1539 209.757C138.262 208.305 121.861 236.657 102.315 229.496C99.2183 228.384 96.2187 226.835 93.6545 224.755C87.0747 219.385 91.4774 209.999 98.1056 209.757H98.1539Z"
        fill="url(#paint3_radial_360_2238)" />
    <path fill-rule="evenodd" clip-rule="evenodd"
        d="M45.1285 239.995C44.306 244.156 42.8062 248.22 42.7095 252.429C42.7095 253.832 44.0158 254.945 44.8866 256.009C46.58 258.138 48.1765 260.46 50.4504 262.008C53.5952 264.185 58.9171 263.218 62.2554 264.089C63.7552 264.476 64.868 265.83 66.3678 266.314C68.3998 267.04 70.6253 266.992 72.6573 267.669C73.5765 267.959 79.0436 270.281 75.6086 271.83C74.5442 272.313 73.2863 271.685 72.1251 271.975C71.3026 272.168 70.4318 272.555 69.8028 273.184C68.4965 274.587 67.8676 276.523 66.5613 277.926C65.3518 279.232 62.5457 277.974 61.5297 276.958C59.4493 274.829 57.756 272.41 56.2562 269.653C55.4821 271.539 55.2401 273.426 54.9499 275.361C54.6112 277.781 54.3693 280.2 54.4661 282.619C54.4661 283.199 54.8047 283.78 55.2402 284.118C58.7236 286.828 71.3994 293.746 74.9312 294.859C77.8825 295.778 80.8337 296.504 83.8817 297.085C92.0097 298.681 90.5099 296.504 97.8154 293.843C101.831 292.392 105.943 291.037 110.153 290.118C118.958 288.182 128.054 287.505 136.811 285.231C143.245 283.538 149.293 280.587 155.534 278.313C160.13 276.668 164.63 274.539 169.468 273.475C171.451 273.039 173.628 273.233 175.515 273.91C176.967 274.442 178.225 275.555 179.047 276.861C179.724 277.974 179.966 279.377 179.821 280.683C179.676 281.893 179.096 283.102 178.225 283.925C176.483 285.521 174.064 286.247 172.225 287.747C170.58 289.102 169.129 290.747 167.919 292.488C166.952 293.891 166.855 295.875 165.742 297.181C164.678 298.439 163.13 299.213 161.63 299.842C157.566 301.584 153.212 302.697 149.099 304.293C147.648 304.874 146.293 305.551 144.987 306.374C141.407 308.696 138.31 311.889 134.44 313.728C131.489 315.131 128.15 315.518 124.909 315.905C118.813 316.63 112.62 316.485 106.476 316.969C102.025 317.356 97.4284 319.195 93.0257 317.259C91.6227 321.13 90.9453 328.097 92.3484 333.274C93.1709 336.225 96.4608 338.015 99.1217 339.563C101.686 341.014 104.782 341.402 107.685 341.934C113.007 342.901 118.522 342.901 123.844 343.966C126.263 344.45 128.586 345.417 130.86 346.433C133.424 347.594 135.795 349.191 138.262 350.449C140.681 351.707 143.052 353.061 145.616 353.981C147.841 354.755 150.115 355.335 152.486 355.48C155.824 355.674 159.163 355.239 162.501 354.997C165.887 354.706 169.274 354.319 172.661 353.787C174.112 353.545 175.515 353.013 176.967 352.723C182.24 351.61 187.611 350.884 192.836 349.626C196.755 348.659 200.577 347.352 204.35 346.046C210.301 343.966 216.155 341.643 222.009 339.321C230.476 335.983 238.943 332.693 247.313 329.064C250.07 327.903 252.731 326.5 255.296 325.049C263.714 320.211 272.084 315.324 280.212 310.051C286.405 306.035 292.404 301.729 298.209 297.23C303.531 293.117 308.66 288.763 313.643 284.264C317.949 280.393 322.013 276.281 326.125 272.168C327.48 270.814 328.496 269.12 329.947 267.911C330.189 267.717 330.576 268.153 330.673 268.395C331.738 272.894 315.53 291.714 311.708 294.907C308.757 297.375 305.612 299.649 302.612 302.116C298.5 305.503 294.629 309.131 290.517 312.518C287.517 314.986 284.518 317.501 281.276 319.63C275.712 323.404 269.858 326.694 264.053 330.661C259.892 333.467 255.441 336.95 251.425 339.515C248.135 341.643 245.329 342.418 241.846 343.772C236.862 345.707 232.024 347.933 226.993 349.675C224.138 350.642 221.09 351.078 218.187 351.9C213.494 353.206 209.866 354.561 205.028 355.48C214.268 356.448 219.639 359.206 225.203 356.69C227.476 355.626 229.363 353.739 231.686 352.819C235.314 351.368 239.136 350.4 242.91 349.578C252.489 347.498 266.81 345.175 271.89 341.934C274.938 339.998 276.68 336.95 279.534 334.725C281.615 333.08 284.131 332.064 286.308 330.564C293.855 325.242 301.838 320.211 308.079 313.389C315.24 305.551 319.787 295.681 326.077 287.166C331.302 280.054 338.995 274.152 342.527 265.54C344.268 261.283 344.123 256.445 345.284 251.993C346.3 248.171 347.413 244.349 349.01 240.769C355.589 226.11 357.767 226.98 359.653 208.354C360.089 204.048 359.992 199.597 359.073 195.388C358.347 192.001 355.928 189.147 354.767 185.857C353.509 182.325 352.88 178.599 351.719 175.068C350.945 172.649 350.074 170.278 349.106 167.956C348.09 165.537 346.929 163.263 345.816 160.892C346.687 165.488 347.8 170.036 348.477 174.681C349.687 183.389 350.122 193.211 349.639 202.016C348.09 229.738 337.446 250.155 318.142 269.894C313.595 274.539 309.095 279.329 304.015 283.441C301.741 285.328 298.887 286.441 296.226 287.699C292.549 289.392 288.727 290.698 285.002 292.295C281.228 293.94 277.357 295.343 273.777 297.326C271.455 298.633 269.568 300.52 267.439 302.165C265.165 303.906 262.988 305.841 260.569 307.438C257.666 309.277 254.667 310.97 251.57 312.421C245.377 315.276 239.088 317.84 232.75 320.259C228.734 321.807 222.929 324.807 215.091 325.871C214.365 325.968 213.398 325.968 213.011 325.387C212.72 324.952 213.252 324.178 213.736 323.936C219.203 321.178 223.558 318.662 228.154 315.518C232.315 312.663 235.798 308.841 239.959 305.938C243.249 303.616 247.168 302.31 250.409 299.939C252.828 298.149 254.957 295.875 256.844 293.504C260.327 289.102 262.988 284.118 266.52 279.716C268.697 277.006 271.116 274.394 273.874 272.217C276.438 270.185 279.389 268.54 282.389 267.185C286.308 265.443 290.807 265.153 294.484 263.024C297.048 261.573 299.129 259.202 300.677 256.686C303.193 252.671 304.16 247.784 306.579 243.72C310.256 237.528 314.707 231.77 318.965 226.013C322.352 221.465 325.835 216.966 329.56 212.66C330.625 211.402 331.979 210.337 333.382 209.467C333.963 209.128 334.689 208.983 335.318 209.176C336.527 209.515 336.672 211.208 339.333 210.918C343.542 210.483 345.091 204.483 346.203 200.952C347.316 197.371 348.477 187.405 348.381 183.438C348.381 182.712 348.235 181.744 347.51 181.406C347.171 181.26 346.687 181.793 346.107 181.551C345.623 181.406 345.381 180.777 345.284 180.293C344.365 174.826 344.026 169.214 343.349 163.698C343.01 160.892 342.817 158.038 342.188 155.28C341.801 153.587 341.075 151.99 340.301 150.442C340.059 149.958 339.672 149.377 339.14 149.232C338.801 149.135 338.608 149.716 338.366 149.958C338.027 150.2 337.737 150.539 337.35 150.587C336.769 150.684 335.85 150.829 335.608 150.297C335.318 149.474 335.076 148.652 334.931 147.829C333.866 142.749 333.141 137.814 331.979 132.638C331.786 131.863 331.447 131.089 331.351 130.315C331.351 130.17 331.447 129.88 331.641 129.88C331.883 129.88 332.076 130.17 332.173 130.364C332.899 131.67 333.479 133.025 334.157 134.331C334.737 135.492 335.366 136.798 335.947 137.863C336.479 138.83 336.818 138.008 336.818 137.718C336.818 135.927 336.576 134.089 336.092 132.396C335.124 128.961 334.011 125.622 332.56 122.381C330.673 118.123 328.786 110.334 327.528 109.124C321.916 103.754 313.208 96.4002 307.402 89.0946C301.064 81.1118 292.839 65.3396 285.63 60.695C283.26 59.1468 279.486 61.3723 270.487 56.8245C264.972 54.0184 260.327 51.1156 255.296 47.5354C250.941 44.439 201.883 42.8424 186.74 45.0679C186.982 47.2935 190.562 47.9708 192.932 48.0192C195.98 48.0676 198.98 47.3418 202.028 47.1483C202.512 47.1483 203.334 46.9064 203.48 47.3419C203.576 47.8257 202.754 48.0676 202.318 48.3578C200.48 49.6641 198.787 50.3899 197.19 52.2283C195.787 53.9217 199.222 53.6798 199.996 53.7765C204.108 54.0668 211.172 54.3087 212.865 54.4055C215.865 54.5506 218.913 53.9217 221.864 54.2603C225.106 54.6474 228.396 55.4215 231.444 56.5826C233.573 57.3567 235.266 59.05 237.298 60.066C240.733 61.7594 244.168 63.5979 247.797 64.759C249.877 65.4363 252.199 65.0009 254.376 65.388C255.489 65.5815 256.505 66.2588 257.618 66.5975C259.214 67.1297 261.053 67.1297 262.504 67.9522C264.391 69.0649 266.23 70.5163 267.488 72.3548C268.987 74.532 269.568 77.1929 270.439 79.7087C271.455 82.7084 271.842 85.9499 273.1 88.8527C273.777 90.4009 274.987 91.6105 276.148 92.82C278.277 95.0455 280.454 97.4162 283.018 99.1579C285.34 100.754 286.017 97.7065 286.501 97.271C286.695 97.0775 287.082 97.1259 287.372 97.271C287.953 97.5613 288.63 97.8516 288.969 98.4322C289.646 99.6901 290.13 101.093 290.614 102.448C291.533 104.964 291.339 104.964 293.275 106.56C294.581 107.673 295.984 108.689 297.242 109.898C298.113 110.769 299.032 111.64 299.613 112.705C300.387 114.156 300.87 115.704 301.209 117.301C301.548 118.897 301.306 120.542 301.548 122.139C301.645 122.816 301.983 123.445 302.322 124.026C303.193 125.332 304.451 126.396 305.225 127.751C306.047 129.251 306.289 130.993 307.015 132.492C307.886 134.234 309.676 135.637 310.111 137.524C311.079 141.491 308.998 148.555 307.015 151.99C305.709 154.264 303.628 156.006 301.886 157.989C299.758 160.457 297.387 162.682 295.549 165.343C294.339 167.133 293.71 169.262 292.791 171.246C291.001 175.213 289.646 179.422 287.469 183.196C285.776 186.147 283.55 188.76 281.276 191.275C278.615 194.227 275.809 196.984 272.761 199.548C269.084 202.645 264.972 205.257 261.246 208.257C257.715 211.112 254.473 214.305 250.845 217.062C246.877 220.062 242.862 222.965 238.604 225.481C235.169 227.464 231.492 228.964 227.864 230.512C225.299 231.625 222.59 232.399 220.026 233.56C217.945 234.48 215.962 235.689 213.978 236.802C210.592 238.64 207.302 240.624 203.867 242.414C200.48 244.204 197.19 246.139 193.61 247.542C191.529 248.365 189.304 248.849 187.03 249.139C186.159 249.236 185.192 249.139 184.514 248.655C184.079 248.365 183.934 247.591 184.224 247.155C184.853 246.139 185.917 245.414 186.982 244.833C190.9 242.608 194.964 240.769 199.028 238.785C203.383 236.657 207.931 234.77 212.236 232.448C215.43 230.706 218.574 228.867 221.526 226.69C225.348 223.884 229.121 220.884 232.46 217.546C237.346 212.66 241.604 207.144 246.297 202.113C248.522 199.742 250.845 197.565 253.215 195.339C255.634 193.114 258.247 191.13 260.569 188.759C263.569 185.76 266.423 182.664 269.084 179.374C271.455 176.422 273.68 173.326 275.712 170.133C277.551 167.278 279.776 164.521 280.744 161.279C282.582 154.99 283.066 148.361 283.986 141.878C284.421 138.734 284.953 135.54 284.905 132.347C284.905 129.348 283.792 126.396 283.84 123.397C283.84 121.897 284.614 120.446 285.05 118.994C285.389 117.93 286.018 116.914 286.114 115.801C286.259 114.591 285.63 107.673 285.243 106.657C283.744 102.641 280.454 101.625 276.728 103.464C275.374 104.141 273.922 106.996 273.487 108.35C272.906 110.286 272.858 112.318 272.326 114.253C271.213 118.365 269.81 118.268 265.746 119.575C262.601 120.591 259.263 120.929 256.166 122.042C255.15 122.381 254.134 122.961 253.554 123.832C252.877 124.897 252.828 126.203 252.683 127.412C252.538 128.864 252.973 130.364 252.635 131.718C251.667 135.589 247.071 138.492 244.265 141.104C243.055 142.265 242.136 143.814 240.685 144.636C238.556 145.797 236.137 146.233 233.766 146.813C230.96 147.491 228.009 147.587 225.203 148.313C223.364 148.797 221.526 149.523 219.881 150.49C218.72 151.167 217.655 152.038 216.833 153.103C216.446 153.587 216.494 154.361 216.494 154.99C216.494 155.377 216.639 155.764 216.929 156.054C217.268 156.393 217.849 156.296 218.139 156.635C218.961 157.505 218.139 159.876 216.929 160.94C216.204 161.618 214.946 161.473 214.22 162.15C213.107 163.214 212.672 164.811 211.704 165.972C208.076 170.181 202.076 174.39 196.368 174.826C193.465 175.068 190.562 174.535 187.659 174.535C184.03 174.535 180.353 174.584 176.725 174.826C171.161 175.164 167.339 174.874 164.243 180.099C163.468 181.454 163.081 183.051 162.162 184.26C161.63 184.986 160.759 185.47 159.937 185.76C158.824 186.195 157.614 186.34 156.405 186.486C154.76 186.679 153.018 186.292 151.422 186.776C150.599 187.018 150.019 187.792 149.535 188.518C149.051 189.292 148.47 190.259 148.615 191.179C148.761 192.146 149.97 192.678 150.26 193.646C150.502 194.372 149.873 195.194 150.115 195.968C150.357 196.742 150.841 197.565 151.567 198C152.244 198.436 153.115 198.339 153.889 198.339C156.018 198.484 158.243 198.097 160.324 198.484C162.888 198.968 162.839 202.451 160.759 202.887C157.808 203.516 154.711 203.564 151.663 203.806C150.938 203.854 150.164 203.516 149.438 203.661C147.648 204.096 146.003 205.306 144.164 205.548C141.987 205.79 139.762 204.677 137.585 205.064C135.407 205.451 133.617 206.999 131.537 207.725C130.086 208.209 128.392 208.015 126.989 208.644C122.345 210.821 122.538 215.708 126.796 216.627C130.376 217.401 134.198 216.772 137.827 217.256C144.697 218.224 146.051 219.675 154.711 219.191C158.485 218.949 162.307 218.611 165.936 217.595C167.532 217.159 168.548 215.514 170.097 214.982C171.983 214.353 174.257 214.982 176.096 214.111C177.692 213.385 178.321 211.353 179.821 210.531C181.418 209.66 183.353 209.66 185.143 209.225C187.949 208.596 190.707 207.918 193.513 207.338C195.448 206.951 199.464 206.37 199.125 209.708C198.98 211.16 198.496 212.611 197.674 213.821C196.416 215.659 194.819 217.304 192.981 218.562C190.9 220.062 188.24 220.643 186.062 222.046C184.611 222.916 183.692 224.61 182.192 225.287C178.225 227.077 173.919 228.045 169.806 229.448C167.097 230.367 164.291 231.141 161.678 232.254C160.807 232.641 160.082 233.27 159.308 233.851C157.518 235.108 155.824 236.56 153.986 237.721C152.438 238.689 150.841 239.705 149.099 240.237C145.132 241.495 141.02 242.317 136.907 243.188C134.391 243.72 131.827 243.914 129.36 244.398C126.263 245.027 123.215 245.752 120.216 246.575C117.845 247.204 115.474 247.978 113.152 248.752C111.41 249.333 109.766 250.203 107.975 250.687C106.524 251.074 105.073 251.219 103.573 251.316C99.5571 251.655 95.4931 251.848 91.4775 252.042C88.5263 252.187 85.575 252.332 82.6238 252.381C80.5918 252.381 78.5114 252.622 76.4794 252.332C72.6573 251.752 68.932 250.59 65.1583 249.671C62.7392 249.091 60.3685 248.413 57.9495 247.784C56.4013 247.397 54.8047 247.204 53.3533 246.72C51.9986 246.236 50.5472 245.752 49.4828 244.833C47.6927 243.333 46.4348 241.35 44.935 239.608L45.1285 239.995ZM87.4135 212.176C86.3975 213.24 85.575 214.692 85.3815 216.143C84.559 222.578 94.9126 226.98 101.444 228.625C104.686 229.448 106.572 229.158 111.652 226.497C112.426 226.11 113.588 226.11 114.023 225.336C114.991 223.787 114.846 221.804 115.62 220.159C116.249 218.804 117.603 217.788 118.232 216.433C118.522 215.804 118.571 214.934 118.232 214.353C117.652 213.24 116.829 212.079 115.62 211.595C111.314 209.95 91.1389 208.257 87.3651 212.176H87.4135Z"
        fill="url(#paint4_radial_360_2238)" />
    <path style="mix-blend-mode:multiply" fill-rule="evenodd" clip-rule="evenodd"
        d="M45.1285 239.995C44.306 244.156 42.8062 248.22 42.7095 252.429C42.7095 253.832 44.0158 254.945 44.8866 256.009C46.58 258.138 48.1765 260.46 50.4504 262.008C53.5952 264.185 58.9171 263.218 62.2554 264.089C63.7552 264.476 64.868 265.83 66.3678 266.314C68.3998 267.04 70.6253 266.992 72.6573 267.669C73.5765 267.959 79.0436 270.281 75.6086 271.83C74.5442 272.313 73.2863 271.685 72.1251 271.975C71.3026 272.168 70.4318 272.555 69.8028 273.184C68.4965 274.587 67.8676 276.523 66.5613 277.926C65.3518 279.232 62.5457 277.974 61.5297 276.958C59.4493 274.829 57.756 272.41 56.2562 269.653C55.4821 271.539 55.2401 273.426 54.9499 275.361C54.6112 277.781 54.3693 280.2 54.4661 282.619C54.4661 283.199 54.8047 283.78 55.2402 284.118C58.7236 286.828 71.3994 293.746 74.9312 294.859C77.8825 295.778 80.8337 296.504 83.8817 297.085C92.0097 298.681 90.5099 296.504 97.8154 293.843C101.831 292.392 105.943 291.037 110.153 290.118C118.958 288.182 128.054 287.505 136.811 285.231C143.245 283.538 149.293 280.587 155.534 278.313C160.13 276.668 164.63 274.539 169.468 273.475C171.451 273.039 173.628 273.233 175.515 273.91C176.967 274.442 178.225 275.555 179.047 276.861C179.724 277.974 179.966 279.377 179.821 280.683C179.676 281.893 179.096 283.102 178.225 283.925C176.483 285.521 174.064 286.247 172.225 287.747C170.58 289.102 169.129 290.747 167.919 292.488C166.952 293.891 166.855 295.875 165.742 297.181C164.678 298.439 163.13 299.213 161.63 299.842C157.566 301.584 153.212 302.697 149.099 304.293C147.648 304.874 146.293 305.551 144.987 306.374C141.407 308.696 138.31 311.889 134.44 313.728C131.489 315.131 128.15 315.518 124.909 315.905C118.813 316.63 112.62 316.485 106.476 316.969C102.025 317.356 97.4284 319.195 93.0257 317.259C91.6227 321.13 90.9453 328.097 92.3484 333.274C93.1709 336.225 96.4608 338.015 99.1217 339.563C101.686 341.014 104.782 341.402 107.685 341.934C113.007 342.901 118.522 342.901 123.844 343.966C126.263 344.45 128.586 345.417 130.86 346.433C133.424 347.594 135.795 349.191 138.262 350.449C140.681 351.707 143.052 353.061 145.616 353.981C147.841 354.755 150.115 355.335 152.486 355.48C155.824 355.674 159.163 355.239 162.501 354.997C165.887 354.706 169.274 354.319 172.661 353.787C174.112 353.545 175.515 353.013 176.967 352.723C182.24 351.61 187.611 350.884 192.836 349.626C196.755 348.659 200.577 347.352 204.35 346.046C210.301 343.966 216.155 341.643 222.009 339.321C230.476 335.983 238.943 332.693 247.313 329.064C250.07 327.903 252.731 326.5 255.296 325.049C263.714 320.211 272.084 315.324 280.212 310.051C286.405 306.035 292.404 301.729 298.209 297.23C303.531 293.117 308.66 288.763 313.643 284.264C317.949 280.393 322.013 276.281 326.125 272.168C327.48 270.814 328.496 269.12 329.947 267.911C330.189 267.717 330.576 268.153 330.673 268.395C331.738 272.894 315.53 291.714 311.708 294.907C308.757 297.375 305.612 299.649 302.612 302.116C298.5 305.503 294.629 309.131 290.517 312.518C287.517 314.986 284.518 317.501 281.276 319.63C275.712 323.404 269.858 326.694 264.053 330.661C259.892 333.467 255.441 336.95 251.425 339.515C248.135 341.643 245.329 342.418 241.846 343.772C236.862 345.707 232.024 347.933 226.993 349.675C224.138 350.642 221.09 351.078 218.187 351.9C213.494 353.206 209.866 354.561 205.028 355.48C214.268 356.448 219.639 359.206 225.203 356.69C227.476 355.626 229.363 353.739 231.686 352.819C235.314 351.368 239.136 350.4 242.91 349.578C252.489 347.498 266.81 345.175 271.89 341.934C274.938 339.998 276.68 336.95 279.534 334.725C281.615 333.08 284.131 332.064 286.308 330.564C293.855 325.242 301.838 320.211 308.079 313.389C315.24 305.551 319.787 295.681 326.077 287.166C331.302 280.054 338.995 274.152 342.527 265.54C344.268 261.283 344.123 256.445 345.284 251.993C346.3 248.171 347.413 244.349 349.01 240.769C355.589 226.11 357.767 226.98 359.653 208.354C360.089 204.048 359.992 199.597 359.073 195.388C358.347 192.001 355.928 189.147 354.767 185.857C353.509 182.325 352.88 178.599 351.719 175.068C350.945 172.649 350.074 170.278 349.106 167.956C348.09 165.537 346.929 163.263 345.816 160.892C346.687 165.488 347.8 170.036 348.477 174.681C349.687 183.389 350.122 193.211 349.639 202.016C348.09 229.738 337.446 250.155 318.142 269.894C313.595 274.539 309.095 279.329 304.015 283.441C301.741 285.328 298.887 286.441 296.226 287.699C292.549 289.392 288.727 290.698 285.002 292.295C281.228 293.94 277.357 295.343 273.777 297.326C271.455 298.633 269.568 300.52 267.439 302.165C265.165 303.906 262.988 305.841 260.569 307.438C257.666 309.277 254.667 310.97 251.57 312.421C245.377 315.276 239.088 317.84 232.75 320.259C228.734 321.807 222.929 324.807 215.091 325.871C214.365 325.968 213.398 325.968 213.011 325.387C212.72 324.952 213.252 324.178 213.736 323.936C219.203 321.178 223.558 318.662 228.154 315.518C232.315 312.663 235.798 308.841 239.959 305.938C243.249 303.616 247.168 302.31 250.409 299.939C252.828 298.149 254.957 295.875 256.844 293.504C260.327 289.102 262.988 284.118 266.52 279.716C268.697 277.006 271.116 274.394 273.874 272.217C276.438 270.185 279.389 268.54 282.389 267.185C286.308 265.443 290.807 265.153 294.484 263.024C297.048 261.573 299.129 259.202 300.677 256.686C303.193 252.671 304.16 247.784 306.579 243.72C310.256 237.528 314.707 231.77 318.965 226.013C322.352 221.465 325.835 216.966 329.56 212.66C330.625 211.402 331.979 210.337 333.382 209.467C333.963 209.128 334.689 208.983 335.318 209.176C336.527 209.515 336.672 211.208 339.333 210.918C343.542 210.483 345.091 204.483 346.203 200.952C347.316 197.371 348.477 187.405 348.381 183.438C348.381 182.712 348.235 181.744 347.51 181.406C347.171 181.26 346.687 181.793 346.107 181.551C345.623 181.406 345.381 180.777 345.284 180.293C344.365 174.826 344.026 169.214 343.349 163.698C343.01 160.892 342.817 158.038 342.188 155.28C341.801 153.587 341.075 151.99 340.301 150.442C340.059 149.958 339.672 149.377 339.14 149.232C338.801 149.135 338.608 149.716 338.366 149.958C338.027 150.2 337.737 150.539 337.35 150.587C336.769 150.684 335.85 150.829 335.608 150.297C335.318 149.474 335.076 148.652 334.931 147.829C333.866 142.749 333.141 137.814 331.979 132.638C331.786 131.863 331.447 131.089 331.351 130.315C331.351 130.17 331.447 129.88 331.641 129.88C331.883 129.88 332.076 130.17 332.173 130.364C332.899 131.67 333.479 133.025 334.157 134.331C334.737 135.492 335.366 136.798 335.947 137.863C336.479 138.83 336.818 138.008 336.818 137.718C336.818 135.927 336.576 134.089 336.092 132.396C335.124 128.961 334.011 125.622 332.56 122.381C330.673 118.123 328.786 110.334 327.528 109.124C321.916 103.754 313.208 96.4002 307.402 89.0946C301.064 81.1118 292.839 65.3396 285.63 60.695C283.26 59.1468 279.486 61.3723 270.487 56.8245C264.972 54.0184 260.327 51.1156 255.296 47.5354C250.941 44.439 201.883 42.8424 186.74 45.0679C186.982 47.2935 190.562 47.9708 192.932 48.0192C195.98 48.0676 198.98 47.3418 202.028 47.1483C202.512 47.1483 203.334 46.9064 203.48 47.3419C203.576 47.8257 202.754 48.0676 202.318 48.3578C200.48 49.6641 198.787 50.3899 197.19 52.2283C195.787 53.9217 199.222 53.6798 199.996 53.7765C204.108 54.0668 211.172 54.3087 212.865 54.4055C215.865 54.5506 218.913 53.9217 221.864 54.2603C225.106 54.6474 228.396 55.4215 231.444 56.5826C233.573 57.3567 235.266 59.05 237.298 60.066C240.733 61.7594 244.168 63.5979 247.797 64.759C249.877 65.4363 252.199 65.0009 254.376 65.388C255.489 65.5815 256.505 66.2588 257.618 66.5975C259.214 67.1297 261.053 67.1297 262.504 67.9522C264.391 69.0649 266.23 70.5163 267.488 72.3548C268.987 74.532 269.568 77.1929 270.439 79.7087C271.455 82.7084 271.842 85.9499 273.1 88.8527C273.777 90.4009 274.987 91.6105 276.148 92.82C278.277 95.0455 280.454 97.4162 283.018 99.1579C285.34 100.754 286.017 97.7065 286.501 97.271C286.695 97.0775 287.082 97.1259 287.372 97.271C287.953 97.5613 288.63 97.8516 288.969 98.4322C289.646 99.6901 290.13 101.093 290.614 102.448C291.533 104.964 291.339 104.964 293.275 106.56C294.581 107.673 295.984 108.689 297.242 109.898C298.113 110.769 299.032 111.64 299.613 112.705C300.387 114.156 300.87 115.704 301.209 117.301C301.548 118.897 301.306 120.542 301.548 122.139C301.645 122.816 301.983 123.445 302.322 124.026C303.193 125.332 304.451 126.396 305.225 127.751C306.047 129.251 306.289 130.993 307.015 132.492C307.886 134.234 309.676 135.637 310.111 137.524C311.079 141.491 308.998 148.555 307.015 151.99C305.709 154.264 303.628 156.006 301.886 157.989C299.758 160.457 297.387 162.682 295.549 165.343C294.339 167.133 293.71 169.262 292.791 171.246C291.001 175.213 289.646 179.422 287.469 183.196C285.776 186.147 283.55 188.76 281.276 191.275C278.615 194.227 275.809 196.984 272.761 199.548C269.084 202.645 264.972 205.257 261.246 208.257C257.715 211.112 254.473 214.305 250.845 217.062C246.877 220.062 242.862 222.965 238.604 225.481C235.169 227.464 231.492 228.964 227.864 230.512C225.299 231.625 222.59 232.399 220.026 233.56C217.945 234.48 215.962 235.689 213.978 236.802C210.592 238.64 207.302 240.624 203.867 242.414C200.48 244.204 197.19 246.139 193.61 247.542C191.529 248.365 189.304 248.849 187.03 249.139C186.159 249.236 185.192 249.139 184.514 248.655C184.079 248.365 183.934 247.591 184.224 247.155C184.853 246.139 185.917 245.414 186.982 244.833C190.9 242.608 194.964 240.769 199.028 238.785C203.383 236.657 207.931 234.77 212.236 232.448C215.43 230.706 218.574 228.867 221.526 226.69C225.348 223.884 229.121 220.884 232.46 217.546C237.346 212.66 241.604 207.144 246.297 202.113C248.522 199.742 250.845 197.565 253.215 195.339C255.634 193.114 258.247 191.13 260.569 188.759C263.569 185.76 266.423 182.664 269.084 179.374C271.455 176.422 273.68 173.326 275.712 170.133C277.551 167.278 279.776 164.521 280.744 161.279C282.582 154.99 283.066 148.361 283.986 141.878C284.421 138.734 284.953 135.54 284.905 132.347C284.905 129.348 283.792 126.396 283.84 123.397C283.84 121.897 284.614 120.446 285.05 118.994C285.389 117.93 286.018 116.914 286.114 115.801C286.259 114.591 285.63 107.673 285.243 106.657C283.744 102.641 280.454 101.625 276.728 103.464C275.374 104.141 273.922 106.996 273.487 108.35C272.906 110.286 272.858 112.318 272.326 114.253C271.213 118.365 269.81 118.268 265.746 119.575C262.601 120.591 259.263 120.929 256.166 122.042C255.15 122.381 254.134 122.961 253.554 123.832C252.877 124.897 252.828 126.203 252.683 127.412C252.538 128.864 252.973 130.364 252.635 131.718C251.667 135.589 247.071 138.492 244.265 141.104C243.055 142.265 242.136 143.814 240.685 144.636C238.556 145.797 236.137 146.233 233.766 146.813C230.96 147.491 228.009 147.587 225.203 148.313C223.364 148.797 221.526 149.523 219.881 150.49C218.72 151.167 217.655 152.038 216.833 153.103C216.446 153.587 216.494 154.361 216.494 154.99C216.494 155.377 216.639 155.764 216.929 156.054C217.268 156.393 217.849 156.296 218.139 156.635C218.961 157.505 218.139 159.876 216.929 160.94C216.204 161.618 214.946 161.473 214.22 162.15C213.107 163.214 212.672 164.811 211.704 165.972C208.076 170.181 202.076 174.39 196.368 174.826C193.465 175.068 190.562 174.535 187.659 174.535C184.03 174.535 180.353 174.584 176.725 174.826C171.161 175.164 167.339 174.874 164.243 180.099C163.468 181.454 163.081 183.051 162.162 184.26C161.63 184.986 160.759 185.47 159.937 185.76C158.824 186.195 157.614 186.34 156.405 186.486C154.76 186.679 153.018 186.292 151.422 186.776C150.599 187.018 150.019 187.792 149.535 188.518C149.051 189.292 148.47 190.259 148.615 191.179C148.761 192.146 149.97 192.678 150.26 193.646C150.502 194.372 149.873 195.194 150.115 195.968C150.357 196.742 150.841 197.565 151.567 198C152.244 198.436 153.115 198.339 153.889 198.339C156.018 198.484 158.243 198.097 160.324 198.484C162.888 198.968 162.839 202.451 160.759 202.887C157.808 203.516 154.711 203.564 151.663 203.806C150.938 203.854 150.164 203.516 149.438 203.661C147.648 204.096 146.003 205.306 144.164 205.548C141.987 205.79 139.762 204.677 137.585 205.064C135.407 205.451 133.617 206.999 131.537 207.725C130.086 208.209 128.392 208.015 126.989 208.644C122.345 210.821 122.538 215.708 126.796 216.627C130.376 217.401 134.198 216.772 137.827 217.256C144.697 218.224 146.051 219.675 154.711 219.191C158.485 218.949 162.307 218.611 165.936 217.595C167.532 217.159 168.548 215.514 170.097 214.982C171.983 214.353 174.257 214.982 176.096 214.111C177.692 213.385 178.321 211.353 179.821 210.531C181.418 209.66 183.353 209.66 185.143 209.225C187.949 208.596 190.707 207.918 193.513 207.338C195.448 206.951 199.464 206.37 199.125 209.708C198.98 211.16 198.496 212.611 197.674 213.821C196.416 215.659 194.819 217.304 192.981 218.562C190.9 220.062 188.24 220.643 186.062 222.046C184.611 222.916 183.692 224.61 182.192 225.287C178.225 227.077 173.919 228.045 169.806 229.448C167.097 230.367 164.291 231.141 161.678 232.254C160.807 232.641 160.082 233.27 159.308 233.851C157.518 235.108 155.824 236.56 153.986 237.721C152.438 238.689 150.841 239.705 149.099 240.237C145.132 241.495 141.02 242.317 136.907 243.188C134.391 243.72 131.827 243.914 129.36 244.398C126.263 245.027 123.215 245.752 120.216 246.575C117.845 247.204 115.474 247.978 113.152 248.752C111.41 249.333 109.766 250.203 107.975 250.687C106.524 251.074 105.073 251.219 103.573 251.316C99.5571 251.655 95.4931 251.848 91.4775 252.042C88.5263 252.187 85.575 252.332 82.6238 252.381C80.5918 252.381 78.5114 252.622 76.4794 252.332C72.6573 251.752 68.932 250.59 65.1583 249.671C62.7392 249.091 60.3685 248.413 57.9495 247.784C56.4013 247.397 54.8047 247.204 53.3533 246.72C51.9986 246.236 50.5472 245.752 49.4828 244.833C47.6927 243.333 46.4348 241.35 44.935 239.608L45.1285 239.995ZM87.4135 212.176C86.3975 213.24 85.575 214.692 85.3815 216.143C84.559 222.578 94.9126 226.98 101.444 228.625C104.686 229.448 106.572 229.158 111.652 226.497C112.426 226.11 113.588 226.11 114.023 225.336C114.991 223.787 114.846 221.804 115.62 220.159C116.249 218.804 117.603 217.788 118.232 216.433C118.522 215.804 118.571 214.934 118.232 214.353C117.652 213.24 116.829 212.079 115.62 211.595C111.314 209.95 91.1389 208.257 87.3651 212.176H87.4135Z"
        fill="url(#paint5_radial_360_2238)" />
    <path style="mix-blend-mode:multiply" fill-rule="evenodd" clip-rule="evenodd"
        d="M89.0101 269.991C97.7187 266.798 112.33 264.718 121.861 264.089C127.86 263.653 139.278 264.524 144.358 263.363C156.26 260.605 163.565 255.187 174.209 250.397C178.128 248.607 183.159 246.478 187.707 244.736C191.481 242.656 195.4 240.866 199.27 238.979C203.625 236.85 208.172 234.963 212.478 232.641C215.672 230.899 218.816 229.061 221.768 226.884C225.59 224.078 229.363 221.078 232.702 217.74C237.588 212.853 241.846 207.338 246.539 202.306C248.764 199.935 251.086 197.758 253.457 195.533C255.876 193.307 258.489 191.324 260.811 188.953C263.811 185.953 266.665 182.857 269.326 179.567C271.697 176.616 273.922 173.519 275.954 170.326C277.793 167.472 280.018 164.714 280.986 161.473C282.824 155.183 283.308 148.555 284.227 142.072C284.663 138.927 285.195 135.734 285.147 132.541C285.147 129.541 284.034 126.59 284.082 123.59C284.082 122.09 284.856 120.639 285.292 119.188C285.63 118.123 286.259 117.107 286.356 115.994C286.501 114.785 285.872 107.866 285.485 106.85C284.614 104.48 283.066 103.125 281.179 102.835C281.663 103.27 282.099 103.754 282.437 104.335C282.873 105.109 283.018 106.076 283.018 106.996C283.018 108.254 282.969 109.511 282.534 110.673C281.953 112.172 280.986 113.479 280.018 114.688C278.664 116.43 276.486 117.591 275.567 119.575C274.841 121.074 274.938 122.913 275.277 124.558C275.664 126.396 277.164 127.848 277.744 129.59C278.373 131.525 279.051 133.605 278.905 135.637C278.664 138.395 277.648 141.007 276.583 143.572C275.712 145.7 273.922 147.345 273.1 149.474C271.793 153.103 271.842 157.167 270.342 160.699C268.504 165.053 266.085 169.214 263.133 172.939C259.698 177.293 255.634 181.212 251.328 184.744C245.039 189.872 237.346 193.259 231.444 198.871C227.041 203.032 225.057 209.273 220.945 213.724C217.849 217.062 214.075 219.723 210.156 221.949C207.64 223.352 204.447 223.158 201.931 224.561C195.932 227.851 190.61 232.351 184.756 235.931C179.821 238.979 174.838 241.93 169.613 244.446C164.581 246.913 159.404 249.284 154.034 250.881C148.712 252.477 143.1 252.961 137.585 253.977C131.489 255.09 125.344 255.816 119.345 257.315C114.362 258.525 109.669 260.654 104.734 262.008C102.508 262.637 100.234 263.218 97.9606 263.218C94.9609 263.218 92.0581 262.395 89.1068 262.057C87.6554 261.912 86.1556 261.524 84.7042 261.766C82.8657 262.105 81.2691 263.218 79.5274 263.798C78.6082 264.089 77.6406 264.476 76.6246 264.379C73.8668 264.137 71.0607 263.798 68.3998 262.879C66.5613 262.25 59.8363 257.848 59.4009 257.848C57.6592 257.848 56.0142 259.057 54.2725 259.057C53.3049 259.057 52.3373 258.96 51.3697 258.767C50.4988 258.573 49.6763 258.283 48.9506 257.848C46.9186 256.735 44.3544 252.429 43.9674 251.51C43.532 250.494 43.6287 247.881 43.8222 245.317C43.2417 247.639 42.7095 250.01 42.7095 252.381C42.7095 253.784 44.0158 254.896 44.8866 255.961C46.58 258.089 48.1765 260.412 50.4504 261.96C51.2729 262.492 52.1921 262.879 53.2081 263.073C56.1594 263.75 59.788 263.363 62.2554 264.04C63.7552 264.427 64.868 265.782 66.3678 266.266C68.3998 266.992 70.6253 266.943 72.6573 267.62C73.5765 267.911 79.0436 270.233 75.6085 271.781C74.5442 272.265 73.2863 271.636 72.1251 271.926C71.3026 272.12 70.4318 272.507 69.8028 273.136C69.5609 273.378 69.3674 273.668 69.1739 273.958C70.1899 273.281 71.3026 272.846 72.8992 272.846C75.028 272.846 77.8341 273.765 79.6726 273.62C83.7366 273.329 85.5267 271.152 89.0101 269.894V269.991Z"
        fill="url(#paint6_radial_360_2238)" />
    <path style="mix-blend-mode:multiply" fill-rule="evenodd" clip-rule="evenodd"
        d="M100.041 224.368C93.4611 224.174 87.7522 222.094 85.4783 217.982C86.591 223.449 95.5899 227.126 101.492 228.674C104.734 229.496 106.621 229.206 111.701 226.545C112.475 226.158 113.636 226.158 114.071 225.384C115.039 223.836 114.894 221.852 115.668 220.207C116.297 218.852 117.652 217.836 118.281 216.482C118.571 215.853 118.619 214.982 118.281 214.401C117.7 213.289 116.878 212.127 115.668 211.644C115.571 211.644 115.426 211.547 115.281 211.499C115.474 211.74 115.62 212.031 115.765 212.321C116.103 213.24 115.426 214.788 114.604 215.272C112.862 216.337 108.895 216.433 107.492 218.32C106.766 219.288 107.492 222.529 105.75 223.207C103.96 223.981 101.976 224.416 100.041 224.368Z"
        fill="url(#paint7_radial_360_2238)" />
    <path style="mix-blend-mode:multiply" fill-rule="evenodd" clip-rule="evenodd"
        d="M159.453 213.192C159.259 214.111 160.275 214.982 160.178 215.95C160.13 216.434 159.501 216.772 159.017 216.966C156.066 217.982 147.841 218.659 145.083 217.982C143.003 217.45 141.116 216.434 139.036 215.95C138.262 215.756 137.488 215.95 136.714 216.046C133.666 216.53 131.972 216.966 129.311 217.208C132.214 217.45 135.214 217.111 138.068 217.546C144.938 218.514 146.293 219.965 154.953 219.482C158.727 219.24 162.549 218.901 166.178 217.885C167.774 217.45 168.79 215.805 170.338 215.272C172.225 214.643 174.499 215.272 176.338 214.402C177.934 213.676 178.563 211.644 180.063 210.821C181.66 209.95 183.595 209.95 185.385 209.515C188.191 208.886 190.949 208.209 193.755 207.628C194.819 207.435 196.464 207.144 197.722 207.483C193.319 205.935 185.24 207.241 180.789 207.773C178.079 208.112 176.096 207.725 175.467 210.338C175.322 211.015 175.031 211.741 174.402 212.079C173.628 212.515 172.612 212.66 171.741 212.563C169.08 212.321 166.516 211.305 163.904 211.063C162.501 210.918 159.791 211.499 159.453 213.144V213.192Z"
        fill="url(#paint8_radial_360_2238)" />
    <path style="mix-blend-mode:multiply" fill-rule="evenodd" clip-rule="evenodd"
        d="M161.727 299.987C157.663 301.729 153.308 302.842 149.196 304.439C147.744 305.019 146.39 305.696 145.083 306.519C141.503 308.841 138.407 312.034 134.536 313.873C131.585 315.276 128.247 315.663 125.005 316.05C118.909 316.776 112.717 316.631 106.572 317.114C102.121 317.501 97.525 319.34 93.1223 317.405C91.7192 321.275 91.0419 328.242 92.445 333.419C93.2674 336.37 96.5573 338.16 99.2183 339.708C101.782 341.16 104.879 341.547 107.782 342.079C113.104 343.047 118.619 343.047 123.941 344.111C126.36 344.595 128.682 345.562 130.956 346.578C133.52 347.74 135.891 349.336 138.359 350.594C140.778 351.852 143.148 353.207 145.712 354.126C147.938 354.9 150.212 355.48 152.583 355.626C155.921 355.819 159.259 355.384 162.597 355.142C165.645 354.9 168.645 354.513 171.693 354.077C172.032 354.029 172.419 353.981 172.757 353.932C174.209 353.69 175.612 353.158 177.063 352.868C182.337 351.755 187.707 351.029 192.932 349.771C196.851 348.804 200.673 347.498 204.447 346.191C210.398 344.111 216.252 341.789 222.106 339.466C230.573 336.128 239.039 332.838 247.409 329.21C250.167 328.048 252.828 326.645 255.392 325.194C263.81 320.356 272.18 315.469 280.308 310.196C286.501 306.18 292.5 301.874 298.306 297.375C303.628 293.263 308.756 288.908 313.74 284.409C318.046 280.538 322.11 276.426 326.222 272.314C327.577 270.959 328.593 269.266 330.044 268.056C330.286 267.862 330.673 268.298 330.77 268.54C331.834 273.039 315.626 291.859 311.804 295.053C308.853 297.52 305.708 299.794 302.709 302.261C298.596 305.648 294.726 309.277 290.613 312.663C287.614 315.131 284.614 317.647 281.373 319.775C275.809 323.549 269.955 326.839 264.149 330.806C259.988 333.612 255.537 337.096 251.522 339.66C248.232 341.789 245.426 342.563 241.942 343.917C236.959 345.853 232.121 348.078 227.089 349.82C224.235 350.788 221.187 351.223 218.284 352.045C213.591 353.352 209.962 354.706 205.124 355.626C214.365 356.593 219.735 359.351 225.299 356.835C227.573 355.771 229.46 353.884 231.782 352.965C235.411 351.513 239.233 350.546 243.007 349.723C252.586 347.643 266.907 345.32 271.987 342.079C275.035 340.144 276.777 337.096 279.631 334.87C281.711 333.225 284.227 332.209 286.404 330.709C293.952 325.387 301.935 320.356 308.176 313.534C315.336 305.696 319.884 295.827 326.174 287.312C331.399 280.2 339.091 274.297 342.623 265.685C344.365 261.428 344.22 256.59 345.381 252.139C346.397 248.317 347.51 244.494 349.106 240.914C355.686 226.255 357.863 227.126 359.75 208.499C360.185 204.193 360.089 199.742 359.169 195.533C358.444 192.146 356.025 189.292 354.863 186.002C353.606 182.47 352.977 178.745 351.815 175.213C351.041 172.794 350.171 170.423 349.203 168.101C348.187 165.682 347.026 163.408 345.913 161.037C346.784 165.633 347.897 170.181 348.574 174.826C349.783 183.534 350.219 193.356 349.735 202.161C348.187 229.883 337.543 250.3 318.239 270.04C313.691 274.684 309.192 279.474 304.112 283.586C301.838 285.473 298.983 286.586 296.322 287.844C292.645 289.537 288.823 290.843 285.098 292.44C281.324 294.085 277.454 295.488 273.874 297.472C271.551 298.778 269.665 300.665 267.536 302.31C265.262 304.051 263.085 305.987 260.666 307.583C257.763 309.422 254.763 311.115 251.667 312.567C245.474 315.421 239.185 317.985 232.847 320.404C228.831 321.952 223.025 324.952 215.188 326.016C214.462 326.113 213.494 326.113 213.107 325.533C212.817 325.097 213.349 324.323 213.833 324.081C219.3 321.323 223.654 318.808 228.25 315.663C232.411 312.808 235.895 308.986 240.055 306.083C243.345 303.761 247.264 302.455 250.506 300.084C252.925 298.294 255.053 296.02 256.94 293.65C260.424 289.247 263.085 284.264 266.617 279.861C268.794 277.152 271.213 274.539 273.97 272.362C276.535 270.33 279.486 268.685 282.486 267.33C286.404 265.589 290.904 265.298 294.581 263.17C297.145 261.718 299.225 259.347 300.774 256.832C303.289 252.816 304.257 247.93 306.676 243.866C310.353 237.673 314.804 231.915 319.062 226.158C322.448 221.61 325.932 217.111 329.657 212.805C330.721 211.547 332.076 210.483 333.479 209.612C334.06 209.273 334.785 209.128 335.414 209.321C336.624 209.66 336.769 211.353 339.43 211.063C343.639 210.628 345.187 204.629 346.3 201.097C347.413 197.517 348.574 187.55 348.477 183.583C348.477 182.857 348.332 181.889 347.606 181.551C347.268 181.406 346.784 181.938 346.203 181.696C345.719 181.551 345.478 180.922 345.381 180.438C344.462 174.971 344.123 169.359 343.446 163.843C343.107 161.037 342.913 158.183 342.284 155.425C341.897 153.732 341.172 152.135 340.398 150.587C340.156 150.103 339.769 149.523 339.236 149.377C338.898 149.281 338.704 149.861 338.462 150.103C338.124 150.345 337.833 150.684 337.446 150.732C336.866 150.829 335.946 150.974 335.705 150.442C335.414 149.619 335.172 148.797 335.027 147.974C333.963 142.894 333.237 137.96 332.076 132.783C331.882 132.009 331.544 131.235 331.447 130.46C331.447 130.315 331.544 130.025 331.737 130.025C331.979 130.025 332.173 130.315 332.27 130.509C332.995 131.815 333.576 133.17 334.253 134.476C334.834 135.637 335.463 136.944 336.043 138.008C336.575 138.976 336.914 138.153 336.914 137.863C336.914 136.992 336.914 136.073 336.769 135.202C336.624 134.283 336.43 133.412 336.188 132.541C335.221 129.106 334.108 125.767 332.657 122.526C330.77 118.268 328.883 110.479 327.625 109.27C326.028 107.721 324.142 106.028 322.158 104.19C324.722 108.979 326.754 113.285 328.012 118.897C328.447 120.881 328.786 123.058 329.028 125.477C329.899 134.137 329.076 148.071 326.415 156.054C324.383 162.15 319.642 166.988 316.884 172.794C314.417 178.067 314.223 184.502 310.837 189.243C304.402 198.194 277.841 222.529 268.455 229.303C254.57 239.318 225.348 257.751 208.801 261.863C196.561 264.911 183.643 264.089 171.306 266.75C162.743 268.588 154.953 273.039 146.535 275.265C133.617 278.603 123.941 279.619 110.201 283.78C103.766 285.715 102.363 285.231 95.88 284.457C91.5257 283.925 87.0263 283.683 85.2362 285.86C84.4621 286.828 85.5749 288.86 84.5105 289.44C82.9623 290.36 80.7851 290.118 79.0434 289.489C74.8827 288.086 71.3508 285.183 67.2868 283.586C65.8354 283.006 64.771 283.054 63.8518 283.344C62.5939 283.731 61.723 284.602 60.6103 284.651C59.8362 284.699 58.9169 284.36 58.3847 283.78C56.1592 281.506 55.627 277.442 55.24 273.088C55.0948 273.862 54.9981 274.636 54.9013 275.41C54.5626 277.829 54.3207 280.248 54.4175 282.667C54.4175 283.248 54.7562 283.828 55.1916 284.167C57.7558 286.151 65.4 290.505 70.5768 293.021C72.4152 293.94 73.9634 294.617 74.8343 294.907C77.7855 295.827 80.7368 296.552 83.7848 297.133C91.9128 298.73 90.413 296.552 97.7185 293.891C101.734 292.44 105.846 291.085 110.056 290.166C118.861 288.231 127.957 287.554 136.714 285.28C143.148 283.586 149.196 280.635 155.437 278.361C160.033 276.716 164.533 274.587 169.371 273.523C171.354 273.088 173.531 273.281 175.418 273.958C176.87 274.491 178.128 275.603 178.95 276.91C179.628 278.022 179.869 279.426 179.724 280.732C179.579 281.941 178.999 283.151 178.128 283.973C176.386 285.57 173.967 286.296 172.128 287.795C170.483 289.15 169.032 290.795 167.823 292.537C166.855 293.94 166.758 295.923 165.645 297.23C164.581 298.488 163.033 299.262 161.533 299.891L161.727 299.987Z"
        fill="url(#paint9_radial_360_2238)" />
    <path style="mix-blend-mode:multiply" fill-rule="evenodd" clip-rule="evenodd"
        d="M129.892 282.667C122.635 284.602 114.313 283.054 106.717 284.651C102.992 285.425 101.008 285.038 95.9283 284.409C91.5741 283.877 87.0746 283.635 85.2845 285.812C84.5104 286.78 85.6232 288.812 84.5588 289.392C83.0106 290.311 80.8335 290.069 79.0918 289.44C74.931 288.037 71.3992 285.135 67.3352 283.538C65.8838 282.957 64.8194 283.006 63.9001 283.296C62.6422 283.683 61.7714 284.554 60.6586 284.602C59.8845 284.651 58.9653 284.312 58.4331 283.732C56.2076 281.458 55.6754 277.394 55.2883 273.039C55.1432 273.813 55.0464 274.588 54.9496 275.362C54.611 277.781 54.3691 280.2 54.4658 282.619C54.4658 283.199 54.8045 283.78 55.2399 284.119C57.8041 286.102 65.4483 290.456 70.6251 292.972C72.4636 293.892 74.0118 294.569 74.8826 294.859C77.8339 295.778 80.7851 296.504 83.8331 297.085C91.9611 298.681 90.4613 296.504 97.7668 293.843C101.782 292.392 105.895 291.037 110.104 290.118C118.909 288.183 128.005 287.505 136.762 285.231C143.197 283.538 149.244 280.587 155.485 278.313C160.082 276.668 164.581 274.539 169.419 273.475C171.403 273.039 173.58 273.233 175.467 273.91C176.918 274.442 178.176 275.555 178.999 276.861C179.676 277.974 179.918 279.377 179.773 280.684C179.627 281.893 179.047 283.103 178.176 283.925C177.595 284.457 176.918 284.941 176.192 285.328C177.257 284.844 178.321 284.312 179.289 283.635C183.643 280.538 183.498 276.668 193.271 272.023C201.109 268.298 185.917 268.443 184.417 268.492C177.305 268.685 172.757 267.379 165.258 269.411C155.34 272.12 141.987 279.232 129.795 282.522L129.892 282.667Z"
        fill="url(#paint10_radial_360_2238)" />
    <path style="mix-blend-mode:multiply" fill-rule="evenodd" clip-rule="evenodd"
        d="M245.813 255.428C234.153 259.396 219.252 263.121 206.963 266.411C205.802 266.701 200.141 267.862 199.706 269.12C199.512 269.652 203.963 269.943 208.366 269.604C220.703 268.636 232.556 264.476 244.265 262.105C254.328 260.073 271.116 256.251 280.018 251.171C284.566 248.558 289.211 245.704 292.549 241.64C295.79 237.721 296.419 232.206 299.177 227.948C301.596 224.174 304.789 220.884 307.982 217.691C313.401 212.321 319.546 207.725 325.013 202.403C327.625 199.839 330.625 197.371 332.221 194.033C334.689 188.856 336.043 183.147 336.818 177.438C337.688 171.052 337.059 164.569 337.156 158.134C337.205 155.086 337.156 151.748 337.93 150.49C337.785 150.587 337.688 150.635 337.543 150.635C336.963 150.732 336.043 150.877 335.802 150.345C335.511 149.522 335.269 148.7 335.124 147.877C334.06 142.797 333.334 137.863 332.173 132.686C331.979 131.912 331.641 131.138 331.544 130.364C331.544 130.218 331.641 129.928 331.834 129.928C332.076 129.928 332.27 130.218 332.366 130.412C333.092 131.718 333.673 133.073 334.35 134.379C334.931 135.54 335.56 136.847 336.14 137.911C336.672 138.879 337.011 138.056 337.011 137.766C337.011 136.895 337.011 135.976 336.866 135.105C336.721 134.186 336.527 133.315 336.285 132.444C335.318 129.009 334.205 125.671 332.754 122.429C330.867 118.172 328.98 110.382 327.722 109.173C327.528 108.979 327.335 108.834 327.141 108.641C328.448 109.85 331.012 119.671 331.012 123.784C331.012 124.413 331.012 124.945 330.867 125.429C330.818 125.767 330.189 125.767 330.141 126.058C329.899 127.17 330.383 131.186 330.48 132.492C330.963 138.637 331.738 144.733 331.592 150.877C331.399 158.763 331.351 166.794 329.125 174.39C327.432 180.196 323.368 185.082 320.174 190.259C315.965 197.129 312.385 204.532 306.918 210.434C302.709 214.982 296.129 216.82 291.63 221.078C273.922 237.866 276.051 245.075 245.813 255.38V255.428Z"
        fill="url(#paint11_radial_360_2238)" />
    <path style="mix-blend-mode:multiply" fill-rule="evenodd" clip-rule="evenodd"
        d="M133.23 335.16C129.069 335.789 126.36 337.241 123.409 338.112C119.538 339.321 115.136 339.611 106.282 336.273C96.122 332.451 93.5578 326.742 94.3319 318.372C94.3319 318.179 94.3319 317.985 94.3803 317.84C93.9932 317.743 93.5578 317.55 93.1708 317.405C91.7677 321.275 91.0904 328.242 92.4934 333.419C93.3159 336.37 96.6058 338.16 99.2668 339.708C101.831 341.16 104.927 341.547 107.83 342.079C113.152 343.046 118.668 343.046 123.989 344.111C126.409 344.595 128.731 345.562 131.005 346.578C133.569 347.739 135.94 349.336 138.407 350.594C140.826 351.852 143.197 353.206 145.761 354.126C147.986 354.9 150.26 355.48 152.631 355.626C155.969 355.819 159.308 355.384 162.646 355.142C165.694 354.9 168.694 354.513 171.742 354.077C172.08 354.029 172.467 353.981 172.806 353.932C174.257 353.69 175.66 353.158 177.112 352.868C182.385 351.755 187.756 351.029 192.981 349.771C196.9 348.804 200.722 347.498 204.495 346.191C210.446 344.111 216.3 341.789 222.154 339.466C230.621 336.128 239.088 332.838 247.458 329.209C250.215 328.048 252.876 326.645 255.441 325.194C263.859 320.356 272.229 315.469 280.357 310.196C286.55 306.18 292.549 301.874 298.355 297.375C303.676 293.262 308.805 288.908 313.788 284.409C318.094 280.538 322.158 276.426 326.27 272.313C327.625 270.959 328.641 269.265 330.092 268.056C330.334 267.862 330.721 268.298 330.818 268.54C331.883 273.039 315.675 291.859 311.853 295.053C311.466 295.391 311.079 295.681 310.692 296.02C321.916 287.989 326.996 281.603 335.705 266.75C336.769 264.96 337.737 263.169 338.704 261.331C341.123 256.783 343.252 252.139 344.994 247.349C345.478 246.091 346.977 241.253 346.639 240.721C346.542 240.527 346.01 241.253 345.429 242.172C344.51 243.624 343.397 245.656 343.059 246.236C339.188 252.864 336.188 257.896 331.157 264.089C328.786 266.992 326.174 269.701 323.513 272.313C319.4 276.377 315.288 280.441 310.837 284.118C307.257 287.07 303.241 289.489 299.467 292.198C294.436 295.827 289.356 299.31 284.469 303.132C281.131 305.745 278.422 309.083 274.938 311.502C271.358 313.969 267.294 315.711 263.423 317.695C258.392 320.259 253.215 322.678 248.135 325.194C244.845 326.79 241.749 328.774 238.314 330.08C232.024 332.499 225.444 333.902 219.155 336.273C215.817 337.531 212.865 339.708 209.479 340.869C202.754 343.192 194.674 343.24 187.852 345.175C176.144 348.562 172.37 351.9 162.259 352.19C160.033 352.239 157.517 352.19 154.518 351.9C151.131 351.61 149.438 350.304 149.099 348.707C148.567 346.094 151.567 342.611 156.598 341.111C162.694 339.273 169.032 338.353 175.177 336.805C187.852 333.564 206.624 329.935 218.284 326.162C223.751 324.371 229.025 321.952 234.298 319.63C233.863 319.824 233.379 319.969 232.943 320.162C228.928 321.71 223.122 324.71 215.284 325.774C214.559 325.871 213.591 325.871 213.204 325.291C212.914 324.855 213.446 324.081 213.93 323.839C219.397 321.081 223.751 318.566 228.347 315.421C232.508 312.566 235.991 308.744 240.152 305.841C243.442 303.519 247.361 302.213 250.603 299.842C252.876 298.197 254.812 296.117 256.602 293.94C253.312 296.746 250.651 298.052 243.103 300.374C239.814 301.39 234.734 302.165 233.137 303.277C229.605 305.696 222.832 318.13 209.479 322.726C193.658 328.242 176.386 331.241 159.743 333.128C150.938 334.144 141.987 333.806 133.23 335.16Z"
        fill="url(#paint12_radial_360_2238)" />
    <path fill-rule="evenodd" clip-rule="evenodd"
        d="M145.084 306.519C141.503 308.841 138.407 312.034 134.536 313.873C131.585 315.276 128.247 315.663 125.005 316.05C118.909 316.776 112.717 316.63 106.572 317.114C103.04 317.404 99.4602 318.614 95.9768 318.179C98.4926 318.953 100.621 318.517 105.508 318.372C117.119 317.985 135.311 319.243 140.197 318.614C143.68 318.13 147.067 316.534 150.018 314.598C154.566 311.599 145.616 311.502 151.47 309.131C159.453 305.841 180.305 306.906 185.336 298.342C185.917 297.326 186.401 295.875 185.772 294.859C185.095 293.843 182.821 294.811 182.289 293.698C181.853 292.73 183.014 291.569 183.885 290.94C190.513 286.247 201.351 280.49 208.946 277.539C213.494 275.797 217.849 274.297 222.929 273.233C237.201 270.136 209.817 270.959 200.722 273.378C192.787 275.458 190.707 278.022 184.853 282.909C183.256 284.215 181.998 286.005 180.111 286.779C176.241 288.424 170.774 288.521 167.968 292.633C167 294.036 166.903 296.02 165.791 297.326C164.726 298.584 163.178 299.358 161.678 299.987C157.614 301.729 153.26 302.842 149.148 304.438C147.696 305.019 146.341 305.696 145.035 306.519H145.084Z"
        fill="url(#paint13_radial_360_2238)" />
    <path opacity="0.65" fill-rule="evenodd" clip-rule="evenodd"
        d="M225.203 325.339C220.461 327.032 215.526 328.242 210.64 329.5C205.076 330.951 199.367 332.064 193.755 333.37C189.739 334.338 185.675 335.015 181.805 336.418C181.273 336.612 180.547 337.773 181.079 338.015C183.208 338.982 185.675 338.982 187.998 339.176C192.932 339.563 197.916 339.95 202.851 339.757C204.495 339.708 206.14 339.224 207.592 338.45C211.22 336.515 214.22 333.467 217.994 331.677C221.139 330.177 224.67 329.5 228.105 328.629C232.266 327.613 236.669 327.71 240.636 326.161C246.974 323.694 262.504 312.47 265.988 307.003C266.23 306.567 266.133 305.745 265.697 305.551C265.165 305.309 264.488 305.745 263.956 306.035C259.359 308.551 254.957 311.405 250.312 313.873C246.345 316.001 242.233 317.937 238.12 319.775C233.863 321.71 229.557 323.694 225.154 325.242L225.203 325.339Z"
        fill="url(#paint14_radial_360_2238)" />
    <path fill-rule="evenodd" clip-rule="evenodd"
        d="M125.876 57.9372C127.328 57.3567 128.489 56.1955 129.892 55.4698C139.423 50.5833 155.631 49.1803 168.452 52.8572C171.983 53.8732 175.854 53.3894 179.386 54.4538C182.434 55.3731 185.046 57.5018 188.046 58.6146C190.949 59.7273 194.287 59.5338 196.996 61.082C198.835 62.1464 199.125 65.0493 201.012 65.9685C204.254 67.5167 208.221 66.791 211.511 68.1456C219.735 71.4839 230.96 80.8215 232.121 90.2074C232.508 93.2554 232.314 96.5937 231.105 99.4481C229.702 102.835 223.848 101.238 222.154 102.061C221.187 102.545 220.993 103.899 220.848 104.964C220.316 109.318 221.09 113.769 220.268 118.075C218.768 125.622 210.446 128.525 203.673 130.315C194.577 132.734 183.982 129.106 185.82 117.785C186.353 114.591 189.304 112.317 190.417 109.269C191.287 106.85 190.271 103.754 191.723 101.625C195.013 96.7388 204.06 94.4165 205.27 92.6748C206.576 90.7396 206.479 88.0786 206.431 85.7563C206.382 83.6276 206.044 81.3053 204.931 79.4668C204.447 78.6927 202.996 78.4024 202.27 78.8862C199.367 80.8698 198.303 86.095 192.013 88.7076C186.111 91.175 174.741 91.175 169.468 97.8032C168.887 98.5289 168.452 99.6417 168.742 100.561C169.419 102.69 171.693 104.189 172.129 106.415C172.419 107.866 171.596 109.463 170.677 110.576C168.935 112.801 166.903 115.027 164.339 116.188C158.34 118.946 151.712 120.107 145.471 122.236C142.374 123.3 139.423 124.655 136.375 125.816C121.812 131.622 108.266 130.218 106.524 132.009C104.637 133.992 105.169 137.476 103.476 139.653C97.6218 147.152 91.5258 149.91 83.301 144.394C80.253 142.362 78.5113 138.637 75.2214 137.04C72.9959 135.927 70.2382 136.943 67.7224 136.75C63.4648 136.411 58.6751 134.524 54.7563 137.911C52.5791 139.798 51.1761 144.394 49.9665 145.071C49.0957 145.604 50.6439 138.879 51.9985 136.169C54.2241 131.718 48.1764 128.09 63.3197 115.269C65.5452 113.382 70.1414 107.818 72.6088 102.448C73.6732 100.125 75.173 97.5129 76.9147 95.6744C78.9467 93.5457 81.0271 92.3845 83.3494 90.546C86.9296 87.6916 91.7193 81.6923 96.2671 77.8702C98.1056 76.2736 100.573 75.4512 102.412 73.8546C106.621 70.1293 109.814 66.2588 113.152 63.2108C117.361 59.3403 121.232 59.7757 125.78 57.9372H125.876Z"
        fill="url(#paint15_radial_360_2238)" />
    <path style="mix-blend-mode:multiply" fill-rule="evenodd" clip-rule="evenodd"
        d="M157.759 94.5133C144.213 106.657 152.631 107.479 159.356 108.399C162.452 108.834 166.419 110.431 161.823 112.366C157.808 114.059 153.308 114.35 149.293 115.946C147.019 116.865 145.325 118.849 143.1 119.817C128.44 126.445 108.991 122.429 97.912 124.074C93.0255 124.8 91.0902 129.202 95.1543 133.17C98.0571 135.976 101.057 135.976 101.153 138.056C101.347 142.314 95.2994 146.184 91.4773 147.249C95.9767 147.297 99.8472 144.443 103.669 139.604C105.363 137.427 104.782 133.944 106.717 131.96C108.459 130.122 121.957 131.573 136.568 125.767C139.616 124.558 142.568 123.203 145.664 122.187C151.905 120.01 158.533 118.897 164.533 116.14C167.097 114.93 169.129 112.753 170.87 110.527C171.79 109.366 172.612 107.77 172.322 106.367C171.886 104.141 169.613 102.69 168.935 100.513C168.645 99.5933 169.08 98.5289 169.661 97.7548C174.983 91.1267 186.304 91.1266 192.207 88.6592C198.496 86.0466 199.512 80.8215 202.463 78.8379C203.237 78.3057 204.64 78.6443 205.124 79.4184C206.237 81.2569 206.576 83.5308 206.624 85.708C206.672 88.0303 206.818 90.6912 205.463 92.6265C204.35 94.223 196.754 96.3034 192.884 100.319C203.479 92.82 211.075 95.9647 211.22 87.111C211.269 84.0146 210.833 77.6767 208.85 75.3061C207.834 74.0965 205.173 72.6451 203.092 74.7255C199.028 78.8379 197.19 83.8211 191.287 85.5145C187.368 86.6756 183.353 87.4013 179.337 88.127C171.403 89.5301 164.484 88.5141 157.856 94.4649L157.759 94.5133Z"
        fill="url(#paint16_radial_360_2238)" />
    <path style="mix-blend-mode:multiply" fill-rule="evenodd" clip-rule="evenodd"
        d="M196.658 62.4366C197.141 64.0332 196.851 68.0972 199.27 68.6294C204.35 69.7905 209.043 67.3231 214.752 71.0968C222.493 76.2252 230.524 82.7083 229.073 93.0618C228.541 96.8839 225.154 96.013 221.332 94.8035C218.768 93.981 216.01 93.6424 215.478 96.013C214.22 101.722 216.252 107.624 216.204 113.479C216.058 126.058 206.285 129.976 197.238 130.992C199.367 131.138 201.641 130.896 203.818 130.315C210.591 128.525 218.913 125.622 220.413 118.075C221.235 113.769 220.461 109.318 220.993 104.964C221.138 103.899 221.332 102.544 222.3 102.061C223.993 101.238 229.847 102.883 231.25 99.4481C232.411 96.5936 232.653 93.3037 232.266 90.2073C231.105 80.8214 219.881 71.4839 211.656 68.1456C208.317 66.7909 204.35 67.565 201.157 65.9684C199.27 65.0492 198.98 62.098 197.141 61.082C196.029 60.453 194.819 60.1143 193.561 59.8724C194.335 60.1627 195.158 60.5014 195.884 60.9368C196.416 61.2271 196.658 61.9044 196.803 62.4366H196.658Z"
        fill="url(#paint17_radial_360_2238)" />
    <defs>
        <radialGradient id="paint0_radial_360_2238" cx="0" cy="0" r="1"
            gradientUnits="userSpaceOnUse" gradientTransform="translate(200.424 199.188) scale(100)">
            <stop stop-color="#2FC1E9" />
            <stop offset="1" stop-color="#2FC1E9" stop-opacity="0" />
        </radialGradient>
        <radialGradient id="paint1_radial_360_2238" cx="0" cy="0" r="1"
            gradientUnits="userSpaceOnUse"
            gradientTransform="translate(132.746 115.027) scale(271.708 271.708)">
            <stop stop-color="#71F5FF" />
            <stop offset="0.17" stop-color="#69E8FF" />
            <stop offset="0.47" stop-color="#56C8FF" />
            <stop offset="0.5" stop-color="#54C5FF" />
            <stop offset="0.92" stop-color="#1483FF" />
        </radialGradient>
        <radialGradient id="paint2_radial_360_2238" cx="0" cy="0" r="1"
            gradientUnits="userSpaceOnUse"
            gradientTransform="translate(205.028 209.805) scale(170.978 170.978)">
            <stop offset="0.04" />
            <stop offset="0.84" />
            <stop offset="0.85" stop-color="#0D1415" />
            <stop offset="0.9" stop-color="#3E6167" />
            <stop offset="0.93" stop-color="#659EA8" />
            <stop offset="0.96" stop-color="#81CAD7" />
            <stop offset="0.99" stop-color="#92E5F4" />
            <stop offset="1" stop-color="#99F0FF" />
        </radialGradient>
        <radialGradient id="paint3_radial_360_2238" cx="0" cy="0" r="1"
            gradientUnits="userSpaceOnUse"
            gradientTransform="translate(84.6073 72.3065) scale(187.428 187.428)">
            <stop stop-color="#86FFFF" />
            <stop offset="1" />
        </radialGradient>
        <radialGradient id="paint4_radial_360_2238" cx="0" cy="0" r="1"
            gradientUnits="userSpaceOnUse"
            gradientTransform="translate(127.666 172.213) scale(243.792 243.792)">
            <stop stop-color="#F2F6FF" />
            <stop offset="1" stop-color="#D6F3FF" />
        </radialGradient>
        <radialGradient id="paint5_radial_360_2238" cx="0" cy="0" r="1"
            gradientUnits="userSpaceOnUse"
            gradientTransform="translate(180.982 173.374) scale(203.684 203.684)">
            <stop offset="0.62" stop-color="white" />
            <stop offset="0.65" stop-color="#F5FAFF" />
            <stop offset="0.75" stop-color="#CFE7FF" />
            <stop offset="0.85" stop-color="#B4DAFF" />
            <stop offset="0.94" stop-color="#A3D1FF" />
            <stop offset="1" stop-color="#9ECFFF" />
        </radialGradient>
        <radialGradient id="paint6_radial_360_2238" cx="0" cy="0" r="1"
            gradientUnits="userSpaceOnUse"
            gradientTransform="translate(75.415 85.079) scale(249.888 249.888)">
            <stop offset="0.7" stop-color="white" />
            <stop offset="1" stop-color="#AAC2E6" />
        </radialGradient>
        <radialGradient id="paint7_radial_360_2238" cx="0" cy="0" r="1"
            gradientUnits="userSpaceOnUse"
            gradientTransform="translate(102.847 206.08) scale(36.8663)">
            <stop stop-color="white" />
            <stop offset="1" stop-color="#AAC2E6" />
        </radialGradient>
        <radialGradient id="paint8_radial_360_2238" cx="0" cy="0" r="1"
            gradientUnits="userSpaceOnUse"
            gradientTransform="translate(143.584 188.76) scale(81.6187 81.6187)">
            <stop stop-color="white" />
            <stop offset="1" stop-color="#AAC2E6" />
        </radialGradient>
        <radialGradient id="paint9_radial_360_2238" cx="0" cy="0" r="1"
            gradientUnits="userSpaceOnUse"
            gradientTransform="translate(136.181 214.353) scale(224.391 224.391)">
            <stop stop-color="white" />
            <stop offset="1" stop-color="#CFE2FF" />
        </radialGradient>
        <radialGradient id="paint10_radial_360_2238" cx="0" cy="0" r="1"
            gradientUnits="userSpaceOnUse"
            gradientTransform="translate(201.496 284.409) scale(144.562 144.562)">
            <stop stop-color="#AAC2E6" />
            <stop offset="1" stop-color="white" />
        </radialGradient>
        <radialGradient id="paint11_radial_360_2238" cx="0" cy="0" r="1"
            gradientUnits="userSpaceOnUse"
            gradientTransform="translate(218.429 221.175) scale(151.094 151.094)">
            <stop stop-color="white" />
            <stop offset="1" stop-color="#AAC2E6" />
        </radialGradient>
        <radialGradient id="paint12_radial_360_2238" cx="0" cy="0" r="1"
            gradientUnits="userSpaceOnUse"
            gradientTransform="translate(186.304 121.316) scale(267.257 267.257)">
            <stop stop-color="white" />
            <stop offset="1" stop-color="#AAC2E6" />
        </radialGradient>
        <radialGradient id="paint13_radial_360_2238" cx="0" cy="0" r="1"
            gradientUnits="userSpaceOnUse"
            gradientTransform="translate(194.819 263.46) scale(115.969 115.969)">
            <stop stop-color="#F2F6FF" />
            <stop offset="1" stop-color="#D6F3FF" />
        </radialGradient>
        <radialGradient id="paint14_radial_360_2238" cx="0" cy="0" r="1"
            gradientUnits="userSpaceOnUse"
            gradientTransform="translate(231.54 286.199) scale(104.793 104.793)">
            <stop stop-color="#F2F6FF" />
            <stop offset="1" stop-color="#D6F3FF" />
        </radialGradient>
        <radialGradient id="paint15_radial_360_2238" cx="0" cy="0" r="1"
            gradientUnits="userSpaceOnUse"
            gradientTransform="translate(62.0134 99.0611) scale(243.066 243.066)">
            <stop stop-color="#F2F6FF" />
            <stop offset="1" stop-color="#D6F3FF" />
        </radialGradient>
        <radialGradient id="paint16_radial_360_2238" cx="0" cy="0" r="1"
            gradientUnits="userSpaceOnUse"
            gradientTransform="translate(111.314 81.5956) scale(104.6)">
            <stop stop-color="white" />
            <stop offset="1" stop-color="#AAC2E6" />
        </radialGradient>
        <radialGradient id="paint17_radial_360_2238" cx="0" cy="0" r="1"
            gradientUnits="userSpaceOnUse"
            gradientTransform="translate(171.161 80.773) scale(68.1204 68.1204)">
            <stop stop-color="white" />
            <stop offset="1" stop-color="#AAC2E6" />
        </radialGradient>
    </defs>
</svg>
    