<svg width="440" height="440" viewBox="0 0 440 440" fill="none" xmlns="http://www.w3.org/2000/svg">
    <circle cx="220" cy="220" r="160" fill="url(#paint0_radial_2164_296641)" />
    <path
        d="M220 396C317.202 396 396 317.202 396 220C396 122.798 317.202 44 220 44C122.798 44 44 122.798 44 220C44 317.202 122.798 396 220 396Z"
        fill="url(#paint1_radial_2164_296641)" style="mix-blend-mode:screen" />
    <path
        d="M220.002 404.414C321.85 404.414 404.414 321.85 404.414 220.002C404.414 118.155 321.85 35.5909 220.002 35.5909C118.155 35.5909 35.5911 118.155 35.5911 220.002C35.5911 321.85 118.155 404.414 220.002 404.414Z"
        fill="url(#paint2_radial_2164_296641)" />
    <path
        d="M220.003 387.159C312.32 387.159 387.159 312.32 387.159 220.002C387.159 127.684 312.32 52.846 220.003 52.846C127.685 52.846 52.8462 127.684 52.8462 220.002C52.8462 312.32 127.685 387.159 220.003 387.159Z"
        fill="url(#paint3_radial_2164_296641)" style="mix-blend-mode:screen" />
    <path fill-rule="evenodd" clip-rule="evenodd"
        d="M378.932 218.451C378.932 233.717 376.784 248.508 372.727 262.465C364.677 290.541 349.075 315.404 328.243 334.792C313.349 348.679 295.768 359.72 276.412 367.066C258.868 373.742 239.88 377.366 219.984 377.366C217.165 377.366 214.314 377.301 211.529 377.133H211.496C207.336 376.933 203.209 376.528 199.151 376.025C168.456 372 140.58 359.25 117.967 340.261C109.479 333.185 101.765 325.201 94.9543 316.475C89.788 309.935 85.1249 302.989 81.03 295.642C80.0564 293.9 79.1201 292.121 78.179 290.341C78.179 290.276 78.1464 290.239 78.1138 290.173C77.1402 288.263 76.2364 286.349 75.3606 284.401H75.328C72.5749 278.331 70.1618 272.056 68.2145 265.614C66.7378 260.983 65.4986 256.222 64.4924 251.391C64.4598 251.359 64.4597 251.289 64.4597 251.256C63.7563 247.869 63.1507 244.445 62.6802 240.989C61.6087 233.61 61.0684 226.096 61.0684 218.446C61.0684 214.053 61.2361 209.656 61.6367 205.361C61.837 202.607 62.1398 199.892 62.5078 197.176C64.5529 181.542 68.9133 166.649 75.2209 152.794C78.3095 145.983 81.8639 139.443 85.8562 133.168C92.4993 122.7 100.349 113.108 109.205 104.485C137.822 76.6416 176.902 59.4984 219.979 59.4984C221.656 59.4984 223.333 59.531 224.978 59.5636C226.757 59.6288 228.532 59.6987 230.312 59.8338C239.438 60.4394 248.359 61.781 256.982 63.8587C262.013 65.0653 266.946 66.4768 271.777 68.1538C275.066 69.2626 278.285 70.5017 281.471 71.8434C283.852 72.8496 286.167 73.8885 288.482 74.9972C288.883 75.1975 289.288 75.3652 289.689 75.5655C305.123 83.1123 319.112 93.0442 331.252 104.951C332.994 106.628 334.676 108.375 336.353 110.15C337.462 111.357 338.566 112.601 339.642 113.84C341.487 115.917 343.266 118.102 345.009 120.282C351.349 128.332 356.916 136.988 361.579 146.179C367.048 156.847 371.343 168.218 374.259 180.13C377.311 192.41 378.923 205.226 378.923 218.442L378.932 218.451Z"
        fill="url(#paint4_radial_2164_296641)" />
    <path fill-rule="evenodd" clip-rule="evenodd"
        d="M289.689 75.5842C289.167 75.6401 288.641 75.696 288.119 75.8031C286.325 76.1339 284.923 75.9708 283.158 75.4724C281.891 75.1137 280.978 74.5919 279.631 74.3683C277.703 74.0655 275.909 73.2363 273.98 72.9894C271.94 72.7145 270.174 71.9133 268.246 71.2238C266.727 70.6741 265.931 70.8651 264.468 71.2238C263.005 71.6105 261.985 71.0049 260.69 70.4505C259.227 69.8169 257.769 69.7051 256.222 69.4023C252.197 68.5731 248.2 67.2781 244.203 66.2579C241.72 65.6243 239.433 65.6243 236.899 65.5963C234.914 65.5684 233.121 66.1461 231.136 66.1461C229.813 66.1461 228.681 65.9271 227.358 65.7314C226.007 65.4845 224.628 65.7594 223.277 65.5684C221.265 65.2656 220.189 64.9628 218.148 65.5963C216.634 66.0948 215.446 66.0389 213.932 66.1181C212.251 66.202 210.35 66.6399 208.696 67.0265C205.719 67.716 202.463 68.2657 199.407 68.2098C197.534 68.2098 194.777 67.688 192.983 68.3216C191.823 68.7362 191.245 69.9753 190.449 70.8046C188.907 72.4024 187.002 73.8372 185.707 75.6308C184.411 77.4243 182.949 79.269 183.061 81.5284C183.172 83.485 184.081 85.7723 184.933 87.5658C185.814 89.4665 186.116 91.2041 184.16 92.4712C181.705 94.0971 178.868 95.5878 176.054 96.3844C174.181 96.9341 172.5 97.2648 170.925 95.9139C170.347 95.4154 169.989 94.4511 169.271 94.0691C168.526 93.6824 167.753 94.0691 166.956 94.316C164.972 94.8937 163.043 95.5552 161.03 95.8859C159.791 96.0769 158.715 96.7384 157.504 96.962C156.041 97.2369 154.993 96.1608 153.479 96.5195C151.355 97.0179 149.235 97.8984 147.027 98.0102C145.457 98.094 143.473 97.4046 142.145 96.6033C141.372 96.1608 141.181 95.7229 140.295 95.9698C139.578 96.1328 138.502 97.0179 138.115 97.5676C137.594 98.313 137.398 99.2773 136.876 100.051C136.326 100.903 135.8 101.732 135.306 102.641C134.398 104.406 133.322 106.06 132.162 107.63C131.333 108.734 130.755 110.22 129.846 111.24C129.376 111.79 128.356 112.177 127.75 112.591C126.096 113.751 124.359 114.795 122.761 116.039C119.672 118.466 116.751 121.14 113.607 123.483C111.208 125.276 107.844 126.325 105.114 127.452C103.405 128.141 101.639 128.635 99.9296 129.353C99.3799 129.572 98.3597 129.823 97.8892 130.233C97.2836 130.755 96.9528 131.724 96.3984 132.437C94.9077 134.258 93.3378 136.075 92.2105 138.171C91.521 139.382 91.1064 140.626 90.6685 141.949C90.0629 143.743 89.0986 145.396 88.4883 147.185C87.2491 150.935 86.9976 154.849 85.6233 158.571C84.8221 160.751 83.6668 162.735 82.6745 164.72C80.9648 168.083 80.7179 172.08 80.2195 175.802C79.9446 177.983 80.0518 180.489 80.4384 182.613C80.853 184.901 80.7412 187.272 80.7133 189.615C80.6853 192.098 79.1154 194.52 77.5408 196.398C76.106 198.135 73.9305 198.797 72.3326 200.339C70.9817 201.662 69.3558 203.18 68.7782 205.053C68.5313 205.882 68.7502 206.819 68.6151 207.699C68.2564 209.656 67.7626 211.505 67.4831 213.49C67.1803 215.945 67.1244 218.26 67.1244 220.738C67.1244 221.978 67.0406 223.249 67.0965 224.488C67.1524 225.676 67.5949 226.776 67.6741 227.964C67.73 228.793 67.5623 229.617 67.6741 230.447C67.8418 231.383 68.1959 232.347 68.4195 233.26C68.9692 235.464 69.3838 237.616 69.7984 239.82C70.1851 241.86 70.9817 243.872 71.6199 245.857C72.5003 248.559 73.0826 251.345 73.6044 254.154C74.019 256.25 73.9911 258.426 74.2939 260.55C74.5408 262.26 74.9274 263.997 75.0113 265.707C75.0951 268.297 74.4616 270.892 74.4336 273.51C74.4057 277.921 76.1712 282.333 77.1914 286.577C77.4942 287.765 77.7971 288.976 78.1278 290.159C67.2129 268.6 61.0637 244.231 61.0637 218.428C61.0637 187.053 70.1618 157.807 85.8469 133.159C92.5179 122.682 100.349 113.09 109.195 104.486C137.84 76.6416 176.902 59.4937 219.993 59.4937C223.468 59.4937 226.888 59.6055 230.302 59.8245C251.503 61.1754 271.572 66.6911 289.684 75.5655L289.689 75.5842Z"
        fill="url(#paint5_linear_2164_296641)" />
    <g style="mix-blend-mode:soft-light">
        <path fill-rule="evenodd" clip-rule="evenodd"
            d="M155.109 274.991C152.906 266.993 150.134 257.508 147.227 247.953C149.547 257.401 152.198 266.513 155.109 274.991Z"
            fill="url(#paint6_linear_2164_296641)" />
        <path fill-rule="evenodd" clip-rule="evenodd"
            d="M150.362 361.714C150.362 361.714 156.665 313.126 161.464 313.126C165.209 313.126 171.549 320.458 184.407 330.227L184.416 330.236C188.008 332.962 192.079 335.873 196.78 338.873C200.8 341.445 205.882 344.128 211.491 346.793C220.957 351.293 231.914 355.742 241.79 359.501C257.396 365.445 270.3 369.675 270.3 369.675L272.797 367.877C272.797 367.877 261.826 365.585 246.817 360.475C246.817 360.465 262.316 335.235 282.133 312.446C301.95 289.652 378.093 236.121 378.093 236.121L378.741 228.555C378.741 228.555 357.009 246.528 332.92 265.628C332.924 265.59 349.034 154.909 354.13 137.235L349.038 135.138C349.038 135.138 337.08 244.315 323.733 272.876C300.753 290.9 277.847 308.043 271.246 310.196C256.763 314.915 203.656 272.261 203.586 272.21C202.212 228.308 203.227 179.366 206.861 166.597C261.002 115.33 312.865 89.7786 312.865 89.7786L310.405 87.3189C310.405 87.3189 258.71 123.674 257.196 116.705C255.686 109.736 289.782 74.6804 289.782 74.6804L285.92 74.126C285.92 74.126 247.981 122.775 195.62 174.237C158.794 210.429 146.459 221.405 142.373 224.74C135.721 186.694 135.274 146.789 146.454 121.028C167.403 72.7611 196.421 61.7158 196.421 61.7158C191.679 61.5574 181.537 64.1196 181.537 64.1196C181.537 64.1196 167.003 81.3514 160.863 91.3858C154.718 101.425 146.454 121.023 141.535 117.902C136.615 114.781 121.512 93.8362 121.512 93.8362L119.686 95.6623C119.686 95.6623 134.267 109.288 136.741 119.849C139.215 130.41 137.039 195.21 130.447 192.811C123.856 190.412 76.7116 150.213 76.7116 150.213L75.123 153.637C75.123 153.637 124.303 187.267 130.489 199.109C133.545 204.96 140.724 226.594 147.223 247.944C146.477 244.921 144.078 234.309 145.131 229.664C161.706 205.142 180.279 192.778 198.895 174.321C202.938 197.041 202.785 277.176 202.435 317.011L184.146 326.109C178.775 321.092 174.065 315.585 170.455 309.52C164.962 300.296 159.726 288.417 155.109 274.982C157.951 285.287 159.852 293.108 159.889 295.363C160.02 303.264 147.81 360.424 147.81 360.424L150.362 361.705V361.714ZM332.538 265.935C329.743 268.148 326.929 270.375 324.101 272.587L332.538 265.935ZM203.642 274.055L203.749 277.241C203.712 276.184 203.679 275.117 203.642 274.055ZM203.763 277.6C203.805 277.628 254.69 309.269 263.135 315.017C270.957 320.342 246.006 353.939 242.275 358.877C232.455 355.336 221.335 350.673 210.574 344.762C207.168 335.496 204.872 308.253 203.763 277.6ZM202.431 317.486V317.179C202.431 317.281 202.431 317.379 202.431 317.486ZM202.407 320.113C202.295 332.123 202.17 339.796 202.17 339.819C196.677 336.358 191.418 332.542 186.615 328.354C189.964 325.629 196.579 320.826 202.407 320.113Z"
            fill="url(#paint7_linear_2164_296641)" />
        <path fill-rule="evenodd" clip-rule="evenodd"
            d="M111.124 262.185C103.819 251.387 61.2966 213.117 61.2966 213.117L61.2546 223.221C61.2546 223.221 99.7711 245.992 110.225 264.882C120.674 283.773 109.67 333.176 109.67 333.176L113.793 337.299C113.793 337.299 121.759 277.912 111.119 262.18L111.124 262.185Z"
            fill="url(#paint8_linear_2164_296641)" />
    </g>
    <path style="mix-blend-mode:screen" fill-rule="evenodd" clip-rule="evenodd"
        d="M125.747 342.572C109.316 328.816 95.6996 311.779 85.9121 292.479C79.7629 280.349 75.1324 267.337 72.2674 253.693C72.2394 253.665 72.2394 253.609 72.2394 253.553C70.036 242.964 68.8481 231.993 68.8481 220.748C68.8481 189.373 77.9461 160.127 93.6313 135.479C100.302 125.002 108.133 115.41 116.98 106.805C145.625 78.9616 184.686 61.8137 227.777 61.8137C231.253 61.8137 234.672 61.9255 238.087 62.1444C248.862 62.8339 259.339 64.6181 269.415 67.3526C256.996 63.2811 243.887 60.7096 230.307 59.8384C226.888 59.6195 223.468 59.5077 219.998 59.5077C176.907 59.5077 137.845 76.6556 109.2 104.499C100.349 113.099 92.5225 122.696 85.8516 133.173C70.1664 157.821 61.0684 187.067 61.0684 218.442C61.0684 229.692 62.2516 240.663 64.4597 251.247C64.4597 251.303 64.4597 251.359 64.4877 251.387C67.3527 265.031 71.9879 278.047 78.1324 290.173C87.92 309.474 101.537 326.51 117.967 340.266C135.381 354.875 155.939 365.785 178.486 371.874C158.981 365.511 141.139 355.486 125.747 342.572Z"
        fill="url(#paint9_radial_2164_296641)" />
    <path style="mix-blend-mode:screen" opacity="0.3" fill-rule="evenodd" clip-rule="evenodd"
        d="M184.984 63.3137C184.984 63.3137 198.443 207.485 202.407 219.741C206.367 231.998 242.265 254.485 256.963 257.238C271.66 259.991 308.891 273.533 318.609 273.151C328.322 272.765 370.607 269.261 370.607 269.261L376.439 246.616C376.439 246.616 297.557 185.646 269.62 129.874C241.683 74.0981 242.317 61.045 242.317 61.045L230.302 59.8478C230.302 59.8478 260.592 118.154 269.41 146.538C278.229 174.922 315.79 202.938 332.533 219.248C349.276 235.557 344.436 264.263 324.097 262.861C303.758 261.458 234.201 265.437 217.002 212.94C209.521 190.09 202.901 167.869 197.819 129.856C192.731 91.8424 184.98 63.323 184.98 63.323L184.984 63.3137Z"
        fill="url(#paint10_radial_2164_296641)" />
    <path style="mix-blend-mode:screen" opacity="0.3" fill-rule="evenodd" clip-rule="evenodd"
        d="M67.4039 173.92C67.4039 173.92 121.759 194.804 142.527 208.859C163.29 222.914 219.224 239.102 231.09 251.349C242.955 263.597 262.898 286.61 261.174 297.496C259.451 308.383 188.967 300.655 160.872 290.178C132.777 279.701 85.7397 258.165 79.3809 247.953C73.022 237.747 61.5947 231.462 61.5947 231.462L63.4115 245.75C63.4115 245.75 133.624 291.911 142.946 295.763C152.268 299.616 248.326 317.426 275.261 312.553C275.261 312.553 287.872 301.759 241.259 255.598C222.537 237.057 188.925 221.991 157.867 207.811C111.608 186.694 68.5079 170.389 68.5079 170.389L67.3992 173.92H67.4039Z"
        fill="url(#paint11_radial_2164_296641)" />
    <path style="mix-blend-mode:screen" opacity="0.3" fill-rule="evenodd" clip-rule="evenodd"
        d="M260.392 64.7206C260.392 64.7206 264.053 105.897 277.563 139.806C291.068 173.711 316.992 179.459 328.322 191.981C339.647 204.504 369.354 221.172 378.936 214.524L378.103 240.714C378.103 240.714 271.884 198.378 242.321 61.0403L260.392 64.7252V64.7206Z"
        fill="url(#paint12_radial_2164_296641)" />
    <path style="mix-blend-mode:screen" opacity="0.3" fill-rule="evenodd" clip-rule="evenodd"
        d="M92.5459 313.387C92.5459 313.387 137.696 301.111 192.955 309.394C264.5 320.113 279.394 325.461 285.753 333.092C292.107 340.718 294.464 358.877 294.464 358.877L302.267 354.405C302.267 354.405 298.284 319.112 289.689 313.391C281.094 307.671 213.718 319.457 142.951 295.763L83.6528 300.152L92.5552 313.391L92.5459 313.387Z"
        fill="url(#paint13_radial_2164_296641)" />
    <path style="mix-blend-mode:screen" opacity="0.3" fill-rule="evenodd" clip-rule="evenodd"
        d="M304.06 270.473C301.009 262.32 256.623 251.48 249.295 257.382C243.244 262.26 282.822 308.146 292.531 309.357C302.239 310.568 307.107 278.62 304.056 270.473H304.06ZM287.872 295.764C276.431 293.607 250.325 266.904 256.092 261.472C260.871 256.972 296.351 268.679 298.89 275.303C301.433 281.928 299.313 297.92 287.872 295.764Z"
        fill="url(#paint14_radial_2164_296641)" />
    <path fill-rule="evenodd" clip-rule="evenodd"
        d="M206.726 222.061C203.237 209.884 184.989 63.3137 184.989 63.3137L181.533 64.1196C181.533 64.1196 210.336 207.69 186.182 211.761C167.184 214.966 69.5841 166.975 69.5841 166.975L67.404 173.92C67.404 173.92 188.912 211.696 234.202 251.349C249.635 264.868 262.884 280.367 273.487 295.195C278.453 302.141 273.552 311.733 265.031 311.803C140.37 312.776 63.4116 245.75 63.4116 245.75L64.4505 251.252C64.4505 251.252 140.603 291.473 132.986 295.768C125.37 300.063 81.0208 295.633 81.0208 295.633L83.6388 300.161C83.6388 300.161 119.332 297.175 165.228 303.548C203.977 308.882 269.457 317.002 288.986 319.415C299.15 337.396 303.949 351.283 302.272 354.405L309.851 349.541C297.306 314.519 300.157 275.233 318.609 273.156C337.029 271.078 367.556 277.619 367.556 277.619L370.607 269.266C268.791 274.097 210.22 234.276 206.73 222.066L206.726 222.061ZM201.862 226.725C198.876 226.827 187.57 218.437 188.912 217.095C190.086 215.921 197.385 200.003 199.733 202.151C202.049 204.266 204.816 226.622 201.862 226.725ZM137.216 295.763C137.216 295.763 137.854 293.481 138.926 293.048C139.965 292.61 160.732 299.826 159.489 300.664C158.212 301.535 137.212 298.349 137.212 295.768L137.216 295.763ZM295.088 304.82C287.439 304.214 241.31 261.039 249.295 257.382C255.067 254.731 296.565 264.593 300.152 272.578C303.776 280.595 302.7 305.388 295.088 304.815V304.82Z"
        fill="url(#paint15_linear_2164_296641)" />
    <path fill-rule="evenodd" clip-rule="evenodd"
        d="M238.087 62.1491C238.087 62.1491 249.057 109.377 292.423 168.079C335.789 226.78 376.435 246.612 376.435 246.612L378.093 236.121C378.093 236.121 340.839 230.116 297.138 172.118C246.053 104.318 246.453 61.7158 246.453 61.7158L238.087 62.1537V62.1491Z"
        fill="url(#paint16_linear_2164_296641)" />
    <path style="mix-blend-mode:screen" fill-rule="evenodd" clip-rule="evenodd"
        d="M65.4661 203.316C67.609 235.674 140.92 182.832 211.682 159.134C294.762 131.314 357.288 190.658 366.489 187.356C380.898 182.18 322.517 64.0497 227.992 66.1227C121.498 68.4566 62.0048 151.089 65.4661 203.32V203.316Z"
        fill="url(#paint17_linear_2164_296641)" />
    <path fill-rule="evenodd" clip-rule="evenodd"
        d="M78.3001 176.543C78.1743 182.609 93.0582 177.116 106.978 159.302C120.897 141.488 131.123 101.015 126.688 96.403C122.258 91.7911 79.1759 134.542 78.2954 176.543H78.3001Z"
        fill="white" />
    <path fill-rule="evenodd" clip-rule="evenodd"
        d="M77.4522 185.245C70.3247 185.133 67.7812 198.541 70.9956 205.17C74.2099 211.799 80.3265 210.206 83.0564 198.55C84.7381 191.371 83.3359 185.338 77.4522 185.245Z"
        fill="white" />
    <path
        d="M327.47 367.016C368.469 343.345 390.424 304.614 376.506 280.508C362.588 256.402 318.069 256.049 277.069 279.72C236.07 303.391 214.115 342.123 228.033 366.229C241.951 390.335 286.47 390.687 327.47 367.016Z"
        fill="url(#paint18_radial_2164_296641)" fill-opacity="0.5" />
    <path style="mix-blend-mode:screen" fill-rule="evenodd" clip-rule="evenodd"
        d="M146.878 352.751C146.878 352.751 222.308 379.025 294.343 339.19C366.382 299.355 378.247 209.502 378.247 209.502C378.247 209.502 369.405 315.171 299.854 348.894C230.298 382.612 178.234 372.247 146.878 352.751Z"
        fill="url(#paint19_radial_2164_296641)" />
    <path
        d="M157.834 185.934C199.129 157.234 217.687 112.505 199.286 86.0292C180.884 59.5532 132.492 61.3563 91.1975 90.0565C49.9033 118.757 31.3449 163.486 49.7462 189.962C68.1474 216.438 116.54 214.635 157.834 185.934Z"
        fill="url(#paint20_radial_2164_296641)" />
    <circle cx="220" cy="220" r="200" fill="url(#paint21_radial_2164_296641)" fill-opacity="0.2" />
    <defs>
        <radialGradient id="paint0_radial_2164_296641" cx="0" cy="0" r="1"
            gradientUnits="userSpaceOnUse"
            gradientTransform="translate(220 220) rotate(90) scale(160)">
            <stop stop-color="white" />
            <stop offset="1" stop-color="white" stop-opacity="0" />
        </radialGradient>
        <radialGradient id="paint1_radial_2164_296641" cx="0" cy="0" r="1"
            gradientUnits="userSpaceOnUse" gradientTransform="translate(220 220) scale(176)">
            <stop stop-color="#FF3600" />
            <stop offset="1" stop-color="#FF3600" stop-opacity="0" />
        </radialGradient>
        <radialGradient id="paint2_radial_2164_296641" cx="0" cy="0" r="1"
            gradientUnits="userSpaceOnUse"
            gradientTransform="translate(220.002 220.002) scale(184.411)">
            <stop stop-color="#FFBB83" />
            <stop offset="1" stop-color="#FFBB83" stop-opacity="0" />
        </radialGradient>
        <radialGradient id="paint3_radial_2164_296641" cx="0" cy="0" r="1"
            gradientUnits="userSpaceOnUse"
            gradientTransform="translate(220.003 220.002) scale(167.156)">
            <stop stop-color="#FF7900" />
            <stop offset="1" stop-color="#FF7900" stop-opacity="0" />
        </radialGradient>
        <radialGradient id="paint4_radial_2164_296641" cx="0" cy="0" r="1"
            gradientUnits="userSpaceOnUse"
            gradientTransform="translate(121.568 144.111) scale(280.922 280.922)">
            <stop stop-color="#FF7263" />
            <stop offset="0.21" stop-color="#FC6E62" />
            <stop offset="0.37" stop-color="#F36561" />
            <stop offset="0.51" stop-color="#E4545F" />
            <stop offset="0.64" stop-color="#D03D5D" />
            <stop offset="0.77" stop-color="#B51F5A" />
            <stop offset="0.88" stop-color="#9A0057" />
            <stop offset="0.99" stop-color="#9A00AE" />
        </radialGradient>
        <linearGradient id="paint5_linear_2164_296641" x1="61.0637" y1="174.843" x2="289.689"
            y2="174.843" gradientUnits="userSpaceOnUse">
            <stop offset="0.01" stop-color="#FF9D85" />
            <stop offset="0.29" stop-color="#FF9A83" />
            <stop offset="0.49" stop-color="#FF907F" />
            <stop offset="0.67" stop-color="#FF8078" />
            <stop offset="0.84" stop-color="#FF6A6E" />
            <stop offset="1" stop-color="#FF4D61" />
        </linearGradient>
        <linearGradient id="paint6_linear_2164_296641" x1="155.935" y1="256.696" x2="146.356"
            y2="266.275" gradientUnits="userSpaceOnUse">
            <stop offset="0.01" stop-color="#FF9D85" />
            <stop offset="0.29" stop-color="#FF9A83" />
            <stop offset="0.49" stop-color="#FF907F" />
            <stop offset="0.67" stop-color="#FF8078" />
            <stop offset="0.84" stop-color="#FF6A6E" />
            <stop offset="1" stop-color="#FF4D61" />
        </linearGradient>
        <linearGradient id="paint7_linear_2164_296641" x1="325.533" y1="102.481" x2="107.68"
            y2="320.334" gradientUnits="userSpaceOnUse">
            <stop offset="0.01" stop-color="#FF9D85" />
            <stop offset="0.29" stop-color="#FF9A83" />
            <stop offset="0.49" stop-color="#FF907F" />
            <stop offset="0.67" stop-color="#FF8078" />
            <stop offset="0.84" stop-color="#FF6A6E" />
            <stop offset="1" stop-color="#FF4D61" />
        </linearGradient>
        <linearGradient id="paint8_linear_2164_296641" x1="106.514" y1="256.231" x2="69.6011"
            y2="293.145" gradientUnits="userSpaceOnUse">
            <stop offset="0.01" stop-color="#FF9D85" />
            <stop offset="0.29" stop-color="#FF9A83" />
            <stop offset="0.49" stop-color="#FF907F" />
            <stop offset="0.67" stop-color="#FF8078" />
            <stop offset="0.84" stop-color="#FF6A6E" />
            <stop offset="1" stop-color="#FF4D61" />
        </linearGradient>
        <radialGradient id="paint9_radial_2164_296641" cx="0" cy="0" r="1"
            gradientUnits="userSpaceOnUse"
            gradientTransform="translate(103.852 110.267) scale(209.19 209.19)">
            <stop stop-color="#FFFF4A" />
            <stop offset="1" />
        </radialGradient>
        <radialGradient id="paint10_radial_2164_296641" cx="0" cy="0" r="1"
            gradientUnits="userSpaceOnUse"
            gradientTransform="translate(290.457 220.743) scale(115.009 115.009)">
            <stop stop-color="white" />
            <stop offset="1" stop-color="#623964" />
        </radialGradient>
        <radialGradient id="paint11_radial_2164_296641" cx="0" cy="0" r="1"
            gradientUnits="userSpaceOnUse"
            gradientTransform="translate(224.656 286.302) scale(117.459 117.459)">
            <stop stop-color="white" />
            <stop offset="1" stop-color="#623964" />
        </radialGradient>
        <radialGradient id="paint12_radial_2164_296641" cx="0" cy="0" r="1"
            gradientUnits="userSpaceOnUse"
            gradientTransform="translate(317.579 196.561) scale(86.3267 86.3267)">
            <stop stop-color="white" />
            <stop offset="1" stop-color="#623964" />
        </radialGradient>
        <radialGradient id="paint13_radial_2164_296641" cx="0" cy="0" r="1"
            gradientUnits="userSpaceOnUse"
            gradientTransform="translate(204.089 343.369) scale(113.523 113.523)">
            <stop stop-color="white" />
            <stop offset="1" stop-color="#623964" />
        </radialGradient>
        <radialGradient id="paint14_radial_2164_296641" cx="0" cy="0" r="1"
            gradientUnits="userSpaceOnUse"
            gradientTransform="translate(291.319 299.22) scale(34.007 34.0071)">
            <stop stop-color="white" />
            <stop offset="1" stop-color="#623964" />
        </radialGradient>
        <linearGradient id="paint15_linear_2164_296641" x1="63.4116" y1="208.859" x2="370.602"
            y2="208.859" gradientUnits="userSpaceOnUse">
            <stop offset="0.01" stop-color="#FFBB85" />
            <stop offset="0.21" stop-color="#FDB886" />
            <stop offset="0.36" stop-color="#F8AE8C" />
            <stop offset="0.49" stop-color="#F09E95" />
            <stop offset="0.61" stop-color="#E588A1" />
            <stop offset="0.72" stop-color="#D66BB2" />
            <stop offset="0.83" stop-color="#C447C6" />
            <stop offset="0.94" stop-color="#AF1DDE" />
            <stop offset="1" stop-color="#A100EF" />
        </linearGradient>
        <linearGradient id="paint16_linear_2164_296641" x1="238.087" y1="154.164" x2="378.098"
            y2="154.164" gradientUnits="userSpaceOnUse">
            <stop offset="0.01" stop-color="#FF9D85" />
            <stop offset="0.23" stop-color="#FD9A86" />
            <stop offset="0.38" stop-color="#F7908D" />
            <stop offset="0.52" stop-color="#EE8098" />
            <stop offset="0.65" stop-color="#E06AA7" />
            <stop offset="0.77" stop-color="#CF4DBA" />
            <stop offset="0.89" stop-color="#BA29D2" />
            <stop offset="1" stop-color="#A100EF" />
        </linearGradient>
        <linearGradient id="paint17_linear_2164_296641" x1="127.079" y1="91.8846" x2="305.178"
            y2="254.336" gradientUnits="userSpaceOnUse">
            <stop offset="0.02" stop-color="#FF9346" />
            <stop offset="0.21" stop-color="#BB6B33" />
            <stop offset="0.43" stop-color="#794521" />
            <stop offset="0.62" stop-color="#452712" />
            <stop offset="0.78" stop-color="#1F1208" />
            <stop offset="0.92" stop-color="#080402" />
            <stop offset="1" />
        </linearGradient>
        <radialGradient id="paint18_radial_2164_296641" cx="0" cy="0" r="1"
            gradientUnits="userSpaceOnUse"
            gradientTransform="translate(300.08 329.124) rotate(60) scale(50.7249 86.0787)">
            <stop stop-color="white" stop-opacity="0.5" />
            <stop offset="0.704" stop-color="white" stop-opacity="0" />
        </radialGradient>
        <radialGradient id="paint19_radial_2164_296641" cx="0" cy="0" r="1"
            gradientUnits="userSpaceOnUse"
            gradientTransform="translate(292.228 340.667) scale(100.251 100.251)">
            <stop stop-color="#5E5ED9" />
            <stop offset="1" />
        </radialGradient>
        <radialGradient id="paint20_radial_2164_296641" cx="0" cy="0" r="1"
            gradientUnits="userSpaceOnUse"
            gradientTransform="translate(125.74 136.352) rotate(-34.8) scale(91.2247 58.4494)">
            <stop stop-color="#FFBB00" stop-opacity="0.4" />
            <stop offset="1" stop-color="#FFBB00" stop-opacity="0" />
        </radialGradient>
        <radialGradient id="paint21_radial_2164_296641" cx="0" cy="0" r="1"
            gradientUnits="userSpaceOnUse"
            gradientTransform="translate(220 220) rotate(90) scale(200)">
            <stop stop-color="white" stop-opacity="0.3" />
            <stop offset="0.784" stop-color="white" />
            <stop offset="1" stop-color="white" stop-opacity="0" />
        </radialGradient>
    </defs>
</svg>
    