<svg width="440" height="440" viewBox="0 0 440 440" fill="none" xmlns="http://www.w3.org/2000/svg">
    <circle cx="220" cy="220" r="160" fill="url(#paint0_radial_2164_296773)" />
    <path
        d="M221.832 393.179C315.824 393.179 392.02 316.983 392.02 222.99C392.02 128.998 315.824 52.8023 221.832 52.8023C127.839 52.8023 51.6436 128.998 51.6436 222.99C51.6436 316.983 127.839 393.179 221.832 393.179Z"
        fill="url(#paint1_radial_2164_296773)" />
    <path
        d="M235.413 407.467C330.846 407.467 408.21 330.103 408.21 234.67C408.21 139.237 330.846 61.8727 235.413 61.8727C139.979 61.8727 62.6155 139.237 62.6155 234.67C62.6155 330.103 139.979 407.467 235.413 407.467Z"
        fill="url(#paint2_radial_2164_296773)" />
    <path fill-rule="evenodd" clip-rule="evenodd"
        d="M300.017 80.8849C300.017 80.8849 320.4 86.5296 333.967 85.7038C333.967 85.7038 358.265 102.216 371.837 145.966C371.837 145.966 360.166 159.801 362.648 175.878C362.648 175.878 341.862 119.404 300.017 80.8849Z"
        fill="url(#paint3_linear_2164_296773)" />
    <path fill-rule="evenodd" clip-rule="evenodd"
        d="M322.374 407.376C322.374 407.376 314.061 404.867 307.89 405.616C307.89 405.616 299.595 399.395 299.464 388.614C299.464 388.614 305.83 380.759 308.14 374.702C308.14 374.702 310.69 392.117 322.374 407.376Z"
        fill="url(#paint4_linear_2164_296773)" />
    <path fill-rule="evenodd" clip-rule="evenodd"
        d="M365.925 207.626C365.925 222.496 363.833 236.902 359.881 250.497C352.04 277.849 336.844 302.061 316.552 320.946C302.046 334.472 284.921 345.226 266.068 352.382C248.98 358.884 230.485 362.414 211.105 362.414C208.36 362.414 205.583 362.351 202.87 362.187H202.838C198.786 361.992 194.766 361.597 190.813 361.107C160.916 357.187 133.763 344.768 111.738 326.273C103.471 319.38 95.957 311.603 89.3232 303.104C84.2911 296.734 79.749 289.968 75.7606 282.813C74.8122 281.116 73.9002 279.382 72.9836 277.649C72.9836 277.586 72.9519 277.549 72.9201 277.486C71.9718 275.625 71.0915 273.76 70.2384 271.864H70.2067C67.525 265.951 65.1746 259.839 63.2779 253.564C61.8395 249.054 60.6325 244.416 59.6524 239.711C59.6207 239.679 59.6207 239.611 59.6207 239.579C58.9355 236.281 58.3456 232.946 57.8874 229.579C56.8437 222.391 56.3174 215.072 56.3174 207.622C56.3174 203.343 56.4807 199.06 56.871 194.876C57.0661 192.194 57.361 189.549 57.7195 186.904C59.7114 171.676 63.9585 157.169 70.1023 143.675C73.1107 137.041 76.5728 130.67 80.4614 124.558C86.9319 114.363 94.5776 105.02 103.203 96.621C131.077 69.5003 169.142 52.8023 211.101 52.8023C212.734 52.8023 214.368 52.8341 215.969 52.8658C217.703 52.9294 219.431 52.9974 221.165 53.129C230.054 53.7189 238.743 55.0257 247.142 57.0494C252.042 58.2246 256.848 59.5995 261.553 61.233C264.757 62.3129 267.892 63.5199 270.996 64.8267C273.314 65.8068 275.569 66.8186 277.825 67.8986C278.215 68.0937 278.61 68.257 279 68.4521C294.033 75.8029 307.659 85.4769 319.483 97.0747C321.18 98.7082 322.818 100.41 324.452 102.139C325.532 103.314 326.607 104.525 327.655 105.732C329.452 107.756 331.186 109.884 332.883 112.008C339.058 119.848 344.48 128.279 349.022 137.232C354.349 147.622 358.533 158.699 361.374 170.301C364.346 182.262 365.916 194.744 365.916 207.617L365.925 207.626Z"
        fill="url(#paint5_radial_2164_296773)" />
    <path style="mix-blend-mode:multiply" opacity="0.5" fill-rule="evenodd" clip-rule="evenodd"
        d="M62.2253 184.762C62.2253 184.762 89.836 199.164 114.57 179.58C139.304 159.996 119.52 86.9381 119.52 86.9381L62.2253 184.758V184.762Z"
        fill="url(#paint6_linear_2164_296773)" />
    <path style="mix-blend-mode:multiply" opacity="0.89" fill-rule="evenodd" clip-rule="evenodd"
        d="M241.706 296.049C241.706 296.049 254.198 311.068 284.767 312.719C315.336 314.371 345.882 279.287 352.897 247.506C359.912 215.726 337.211 183.6 314.923 178.609C292.635 173.622 241.701 296.049 241.701 296.049H241.706Z"
        fill="url(#paint7_linear_2164_296773)" />
    <path style="mix-blend-mode:screen" fill-rule="evenodd" clip-rule="evenodd"
        d="M119.316 328.523C103.312 315.124 90.0492 298.531 80.5159 279.732C74.5264 267.916 70.0161 255.243 67.2255 241.952C67.1983 241.925 67.1983 241.871 67.1983 241.816C65.0521 231.503 63.895 220.817 63.895 209.863C63.895 179.303 72.7567 150.817 88.0345 126.809C94.5322 116.604 102.16 107.261 110.776 98.8805C138.678 71.7599 176.724 55.0573 218.696 55.0573C222.081 55.0573 225.407 55.1662 228.738 55.3795C239.238 56.051 249.438 57.7889 259.253 60.4524C247.156 56.4866 234.387 53.9819 221.16 53.1334C217.83 52.9201 214.499 52.8112 211.119 52.8112C169.147 52.8112 131.1 69.5138 103.199 96.6344C94.5776 105.011 86.9546 114.358 80.4569 124.563C65.1791 148.571 56.3174 177.057 56.3174 207.617C56.3174 218.575 57.4699 229.261 59.6207 239.57C59.6207 239.625 59.6207 239.679 59.6479 239.706C62.443 252.997 66.9533 265.674 72.9382 277.486C82.4715 296.28 95.7346 312.878 111.738 326.277C128.7 340.507 148.724 351.134 170.685 357.064C151.687 350.866 134.308 341.101 119.316 328.523Z"
        fill="url(#paint8_radial_2164_296773)" />
    <path fill-rule="evenodd" clip-rule="evenodd"
        d="M84.6768 296.924C84.6768 296.924 94.4823 312.906 92.0094 338.91C92.0094 338.91 113.508 376.485 174.183 379.58C174.183 379.58 204.725 357.064 233.961 360.731C233.961 360.731 183.485 288.775 84.6813 296.924H84.6768Z"
        fill="url(#paint9_linear_2164_296773)" />
    <path fill-rule="evenodd" clip-rule="evenodd"
        d="M62.2253 184.762C62.2253 184.762 52.0568 156.698 42.9273 146.788C42.9273 146.788 35.9123 102.211 81.3146 86.9381C81.3146 86.9381 105.767 91.6026 119.52 86.9381C119.52 86.9381 124.757 117.067 104.016 149.265C86.3285 176.717 62.2298 184.762 62.2298 184.762H62.2253Z"
        fill="url(#paint10_linear_2164_296773)" />
    <path fill-rule="evenodd" clip-rule="evenodd"
        d="M340.365 206.615C340.365 206.615 329.547 168.563 292.803 166.281C253.83 163.858 219.318 241.63 231.342 278.784C243.367 315.937 286.745 310.587 306.606 297.083C330.732 280.685 342.57 244.439 340.365 206.615Z"
        fill="url(#paint11_linear_2164_296773)" />
    <path style="mix-blend-mode:multiply" opacity="0.5" fill-rule="evenodd" clip-rule="evenodd"
        d="M175.059 94.8741C175.059 94.8741 188.25 117.19 213.8 114.748C241.701 112.08 249.161 88.4581 248.122 79.1017C247.083 69.7454 175.059 94.8741 175.059 94.8741Z"
        fill="url(#paint12_linear_2164_296773)" />
    <path fill-rule="evenodd" clip-rule="evenodd"
        d="M298.806 179.585C265.111 179.398 215.198 269.055 258.654 299.198C299.94 327.834 338.092 265.679 342.57 244.444C347.049 223.213 344.176 179.834 298.806 179.585Z"
        fill="url(#paint13_linear_2164_296773)" />
    <path fill-rule="evenodd" clip-rule="evenodd"
        d="M283.129 298.29C281.527 298.159 279.957 297.932 278.487 297.7C257.574 294.107 249.733 279.564 247.968 264.894C246.856 255.583 248.195 246.236 250.191 239.571C254.144 226.371 275.352 195.425 299.632 191.078C308.258 189.508 317.278 191.341 326.067 198.561C333.486 204.704 337.18 212.777 338.028 221.729C341.295 255.125 305.907 300.314 283.134 298.29H283.129Z"
        fill="url(#paint14_linear_2164_296773)" />
    <path fill-rule="evenodd" clip-rule="evenodd"
        d="M180.999 53.8728C180.999 53.8728 165.526 73.7426 173.158 91.6067C181.257 110.555 226.641 109.752 241.307 95.2775C255.972 80.8029 244.27 53.1877 231.651 48.3416C217.281 42.824 198.309 43.8677 180.999 53.8728Z"
        fill="url(#paint15_radial_2164_296773)" />
    <path fill-rule="evenodd" clip-rule="evenodd"
        d="M178.109 79.8731C186.009 95.7997 240.109 98.0775 244.016 70.4441C247.728 44.1902 209.381 40.9413 198.31 43.8635C187.238 46.7856 167.468 58.4243 178.109 79.8731Z"
        fill="url(#paint16_linear_2164_296773)" />
    <path fill-rule="evenodd" clip-rule="evenodd"
        d="M236.32 63.6423C236.42 64.5225 236.42 65.3756 236.32 66.1923C236.288 67.0726 236.157 67.9574 235.962 68.7742C231.551 86.5158 195.9 92.3011 187.764 82.4321C185.509 79.6869 184.139 76.9734 183.485 74.3961C180.709 63.5152 190.414 54.7896 196.848 51.4228C204.789 47.2392 234.555 42.9603 236.32 63.6423Z"
        fill="url(#paint17_linear_2164_296773)" />
    <path fill-rule="evenodd" clip-rule="evenodd"
        d="M42.9271 146.792C43.6758 156.915 94.5865 108.922 81.3144 86.9424C81.3144 86.9424 38.8025 90.8628 42.9271 146.792Z"
        fill="url(#paint18_linear_2164_296773)" />
    <path fill-rule="evenodd" clip-rule="evenodd"
        d="M92.0046 338.91C88.842 320.823 180.785 333.32 174.179 379.58C172.736 389.694 97.259 368.944 92.0046 338.91Z"
        fill="url(#paint19_linear_2164_296773)" />
    <path fill-rule="evenodd" clip-rule="evenodd"
        d="M165.916 378.245C164.383 379.489 113.93 372.038 96.5789 341.387C95.4354 339.327 100.826 338.674 109.093 339.654C112.229 340.012 115.759 340.634 119.516 341.514C131.477 344.291 145.557 349.718 155.099 358.344C158.071 361.025 160.358 363.439 162.06 365.599C164.51 368.735 165.817 371.285 166.407 373.245C167.223 376.022 166.633 377.687 165.916 378.245Z"
        fill="url(#paint20_linear_2164_296773)" />
    <path fill-rule="evenodd" clip-rule="evenodd"
        d="M162.064 365.599C142.067 362.069 127.688 350.24 119.52 341.519C131.481 344.296 145.561 349.723 155.103 358.348C158.075 361.03 160.362 363.444 162.064 365.604V365.599Z"
        fill="url(#paint21_linear_2164_296773)" />
    <path fill-rule="evenodd" clip-rule="evenodd"
        d="M75.7832 100.845C74.9347 103.563 73.5008 107.189 71.341 112.012C67.4796 120.606 59.852 129.554 54.2936 133.91C51.4577 136.161 49.1481 137.213 48.2133 136.397C46.2849 134.731 46.6071 122.394 52.5104 110.932C58.4182 99.4432 74.4083 91.2848 76.0464 93.068C77.0718 94.1797 77.2443 96.2261 75.7832 100.845Z"
        fill="url(#paint22_linear_2164_296773)" />
    <path fill-rule="evenodd" clip-rule="evenodd"
        d="M75.7833 100.845C74.9348 103.563 73.5009 107.189 71.3411 112.012C67.4797 120.606 59.8521 129.554 54.2937 133.91C60.7823 116.25 72.2758 104.235 75.7833 100.841V100.845Z"
        fill="url(#paint23_linear_2164_296773)" />
    <path fill-rule="evenodd" clip-rule="evenodd"
        d="M92.0051 275.154C90.4033 274.173 88.8379 272.408 87.4313 270.153C87.4313 270.153 87.4313 270.121 87.3677 270.053C82.2358 261.786 79.2638 247.407 84.6861 244.466C91.3834 240.805 101.284 242.701 105.763 254.594C105.763 254.594 105.763 254.626 105.795 254.658C105.958 255.048 106.121 255.474 106.221 255.901C106.253 255.964 106.285 256.032 106.285 256.096C106.348 256.423 106.448 256.718 106.548 256.913C106.679 257.339 106.811 257.761 106.906 258.22C109.683 269.559 99.4874 279.686 92.0051 275.144V275.154Z"
        fill="url(#paint24_linear_2164_296773)" />
    <path style="mix-blend-mode:multiply" opacity="0.4" fill-rule="evenodd" clip-rule="evenodd"
        d="M105.763 254.599C103.244 249.535 93.4435 243.654 87.4313 249.14C81.1241 254.894 86.8414 268.747 87.3677 270.053C82.2358 261.786 79.2638 247.407 84.6861 244.466C91.3834 240.805 101.284 242.701 105.763 254.594V254.599Z"
        fill="url(#paint25_radial_2164_296773)" />
    <path fill-rule="evenodd" clip-rule="evenodd"
        d="M138.9 124.499C138.201 123.986 137.553 123.115 136.994 122.026C136.994 122.026 136.994 122.013 136.967 121.976C134.93 117.979 134.122 111.259 136.727 110.12C139.944 108.7 144.422 109.952 146.015 115.592C146.015 115.592 146.015 115.606 146.029 115.624C146.088 115.81 146.147 116.01 146.174 116.209C146.187 116.241 146.201 116.273 146.197 116.3C146.215 116.454 146.246 116.59 146.283 116.686C146.328 116.885 146.369 117.085 146.396 117.298C147.231 122.616 142.158 126.872 138.896 124.495L138.9 124.499Z"
        fill="url(#paint26_linear_2164_296773)" />
    <path style="mix-blend-mode:multiply" opacity="0.4" fill-rule="evenodd" clip-rule="evenodd"
        d="M146.019 115.592C145.062 113.169 140.783 110.088 137.811 112.375C134.689 114.771 136.781 121.359 136.971 121.981C134.934 117.983 134.126 111.263 136.731 110.124C139.948 108.704 144.426 109.957 146.019 115.597V115.592Z"
        fill="url(#paint27_radial_2164_296773)" />
    <path fill-rule="evenodd" clip-rule="evenodd"
        d="M254.833 340.607H254.783C254.474 340.761 254.116 340.915 253.757 340.965C253.708 341.015 253.653 341.07 253.603 341.07C253.345 341.12 253.09 341.174 252.936 341.274C252.628 341.378 252.269 341.478 251.861 341.582C246.684 342.966 241.81 341.07 239.092 337.993C236.887 335.534 236.12 332.403 237.708 329.635C238.48 328.301 239.914 326.967 241.76 325.787L241.81 325.737C248.526 321.377 260.319 318.664 262.833 323.069C263.549 324.249 264.012 325.583 264.167 326.967C264.933 331.89 262.424 337.58 254.833 340.607Z"
        fill="url(#paint28_linear_2164_296773)" />
    <path style="mix-blend-mode:screen" opacity="0.5" fill-rule="evenodd" clip-rule="evenodd"
        d="M127.22 255.352C127.22 255.352 136.531 270.203 162.064 268.656C187.596 267.109 192.238 254.617 193.786 244.457C195.333 234.293 191.072 221.793 191.072 221.793C191.072 221.793 134.639 232.456 127.22 255.357V255.352Z"
        fill="url(#paint29_radial_2164_296773)" />
    <path style="mix-blend-mode:multiply" opacity="0.4" fill-rule="evenodd" clip-rule="evenodd"
        d="M264.167 326.967C262.066 325.17 257.705 322.97 250.577 325.225C239.655 328.66 239.092 337.993 239.092 337.993C236.887 335.534 236.12 332.403 237.708 329.635C238.48 328.301 239.914 326.967 241.76 325.787L241.81 325.737C248.526 321.377 260.319 318.664 262.832 323.069C263.549 324.249 264.012 325.583 264.167 326.967Z"
        fill="url(#paint30_radial_2164_296773)" />
    <path fill-rule="evenodd" clip-rule="evenodd"
        d="M192.32 236.172L192.288 236.725C192.356 276.265 133.11 271.428 123.831 250.383C122.556 247.475 121.476 244.239 120.659 240.841V240.809C115.432 219.637 118.699 191.273 128.141 184.771C138.074 177.942 157.159 177.779 171.043 184.771C186.693 192.648 192.873 216.207 192.315 236.172H192.32Z"
        fill="url(#paint31_linear_2164_296773)" />
    <path style="mix-blend-mode:multiply" opacity="0.4" fill-rule="evenodd" clip-rule="evenodd"
        d="M192.32 236.172L192.288 236.725C192.288 236.725 193.173 211.991 181.212 198.787C169.219 185.588 145.302 181.862 131.608 196.727C118.277 211.234 120.532 239.466 120.659 240.809C115.432 219.637 118.699 191.273 128.141 184.771C138.074 177.942 157.159 177.779 171.043 184.771C186.693 192.648 192.873 216.207 192.315 236.172H192.32Z"
        fill="url(#paint32_linear_2164_296773)" />
    <path fill-rule="evenodd" clip-rule="evenodd"
        d="M303.384 111.708C300.017 113.505 292.045 108.541 284.758 102.329C275.901 94.7149 268.128 85.2088 271.163 83.8339C275.315 81.9736 290.575 83.2123 297.599 88.9976C300.607 91.4796 303.479 95.3048 305.213 99.1934C307.404 104.257 307.6 109.421 303.384 111.708Z"
        fill="url(#paint33_linear_2164_296773)" />
    <path style="mix-blend-mode:multiply" opacity="0.4" fill-rule="evenodd" clip-rule="evenodd"
        d="M305.217 99.1935C305.185 99.1617 305.154 99.0937 305.117 99.0619C294.082 82.4002 277.062 83.1217 275.819 87.6637C274.575 92.2057 284.762 102.329 284.762 102.329C275.905 94.715 268.132 85.2089 271.168 83.834C275.32 81.9737 290.579 83.2124 297.603 88.9977C300.612 91.4797 303.484 95.3048 305.217 99.1935Z"
        fill="url(#paint34_linear_2164_296773)" />
    <path fill-rule="evenodd" clip-rule="evenodd"
        d="M53.8992 142.613C53.8992 142.613 79.0959 129.971 81.7413 105.006C81.7413 105.006 69.0317 130.702 53.8992 142.613Z"
        fill="#E5BDFA" />
    <path fill-rule="evenodd" clip-rule="evenodd"
        d="M241.706 266.396C241.706 266.396 244.188 216.338 280.393 186.835C280.393 186.835 236.969 207.608 241.706 266.396Z"
        fill="#E5BDFA" />
    <path fill-rule="evenodd" clip-rule="evenodd"
        d="M179.588 82.0828C179.588 82.0828 186.376 92.3874 209.585 91.6024C232.79 90.8129 240.408 80.2224 241.706 77.3819C241.706 77.3819 235.948 95.1508 209.712 94.5291C182.029 93.8757 179.588 82.0828 179.588 82.0828Z"
        fill="#FFA5F7" />
    <path fill-rule="evenodd" clip-rule="evenodd"
        d="M131.617 334.318C131.617 334.318 166.806 348.52 173.934 368.962C173.934 368.962 173.149 345.503 131.617 334.318Z"
        fill="#FFA5F7" />
    <path style="mix-blend-mode:multiply" opacity="0.71" fill-rule="evenodd" clip-rule="evenodd"
        d="M338.024 221.729V221.793C338.024 221.793 326.067 201.147 292.903 210.199C263.169 218.303 250.323 256.559 247.968 264.894C246.856 255.583 248.195 246.236 250.191 239.571C254.144 226.371 275.352 195.425 299.632 191.078C308.258 189.508 317.278 191.341 326.067 198.561C333.486 204.704 337.18 212.777 338.028 221.729H338.024Z"
        fill="url(#paint35_linear_2164_296773)" />
    <path fill-rule="evenodd" clip-rule="evenodd"
        d="M378.298 387.47C377.668 390.96 376.565 394.249 375.063 397.271C372.064 403.356 367.472 408.393 361.914 411.968C357.934 414.527 353.465 416.324 348.737 417.204C344.453 418.008 339.961 418.048 335.414 417.227C334.77 417.109 334.121 416.978 333.491 416.823H333.482C332.538 416.605 331.612 416.342 330.705 416.061C323.853 413.874 318.009 409.808 313.625 404.536C311.978 402.566 310.544 400.425 309.347 398.151C308.434 396.445 307.659 394.662 307.023 392.815C306.874 392.375 306.733 391.931 306.592 391.486C306.592 391.472 306.592 391.463 306.583 391.445C306.438 390.969 306.311 390.492 306.193 390.011H306.184C305.807 388.509 305.512 386.976 305.335 385.424C305.19 384.303 305.104 383.164 305.072 382.021C305.068 382.012 305.072 381.998 305.072 381.989C305.05 381.186 305.054 380.378 305.09 379.57C305.149 377.837 305.335 376.099 305.653 374.352C305.835 373.349 306.052 372.351 306.325 371.385C306.483 370.763 306.665 370.155 306.86 369.552C307.972 366.062 309.582 362.841 311.597 359.932C312.582 358.503 313.666 357.155 314.837 355.885C316.788 353.766 318.975 351.896 321.357 350.294C329.048 345.113 338.686 342.808 348.532 344.586C348.914 344.654 349.299 344.731 349.671 344.809C350.075 344.899 350.479 344.986 350.878 345.09C352.938 345.603 354.921 346.279 356.809 347.109C357.911 347.595 358.978 348.116 360.012 348.702C360.716 349.092 361.401 349.509 362.077 349.945C362.581 350.272 363.066 350.608 363.547 350.957C363.629 351.02 363.715 351.075 363.801 351.138C367.018 353.502 369.804 356.347 372.087 359.569C372.418 360.023 372.726 360.495 373.039 360.967C373.244 361.289 373.443 361.616 373.638 361.947C373.974 362.5 374.292 363.072 374.6 363.639C375.717 365.74 376.633 367.95 377.318 370.241C378.126 372.905 378.639 375.682 378.816 378.522C379.006 381.453 378.847 384.448 378.298 387.47Z"
        fill="url(#paint36_radial_2164_296773)" />
    <path fill-rule="evenodd" clip-rule="evenodd"
        d="M351.949 341.146C351.949 341.146 337.302 340.756 331.83 355.344C326.027 370.817 348.755 394.539 363.243 394.331C377.731 394.122 381.384 375.89 379.206 366.157C376.556 354.337 365.426 344.999 351.954 341.146H351.949Z"
        fill="url(#paint37_linear_2164_296773)" />
    <path fill-rule="evenodd" clip-rule="evenodd"
        d="M337.229 354.582C332.878 368.199 357.789 399.644 373.833 385.832C389.075 372.71 372.254 349.473 365.421 344.999C358.587 340.525 343.092 336.251 337.234 354.582H337.229Z"
        fill="url(#paint38_linear_2164_296773)" />
    <path fill-rule="evenodd" clip-rule="evenodd"
        d="M376.633 375.814C376.384 376.444 376.107 377.052 375.839 377.619C371.923 385.633 365.857 386.985 360.511 385.86C357.122 385.143 354.032 383.427 351.963 381.785C347.861 378.531 339.77 366.067 341.345 355.69C341.894 352.001 343.682 348.579 347.321 345.925C350.406 343.693 353.692 343.212 356.922 343.987C368.983 346.851 380.24 366.843 376.633 375.809V375.814Z"
        fill="url(#paint39_linear_2164_296773)" />
    <path fill-rule="evenodd" clip-rule="evenodd"
        d="M375.839 377.62C369.428 390.715 357.281 386.009 351.963 381.785C347.861 378.532 339.77 366.067 341.345 355.69C342.334 353.748 343.809 351.969 345.896 350.449C359.409 340.598 377.032 364.974 375.839 377.615V377.62Z"
        fill="url(#paint40_linear_2164_296773)" />
    <path style="mix-blend-mode:multiply" opacity="0.71" fill-rule="evenodd" clip-rule="evenodd"
        d="M356.922 343.992L356.945 344.001C356.945 344.001 348.224 346.252 347.158 360.813C346.2 373.867 357.907 383.863 360.511 385.86C357.122 385.143 354.032 383.427 351.963 381.785C347.861 378.531 339.77 366.067 341.345 355.69C341.894 352.001 343.682 348.579 347.321 345.925C350.406 343.693 353.692 343.212 356.922 343.987V343.992Z"
        fill="url(#paint41_linear_2164_296773)" />
    <path style="mix-blend-mode:multiply" opacity="0.71" fill-rule="evenodd" clip-rule="evenodd"
        d="M236.32 63.6425C236.42 64.5227 236.42 65.3758 236.32 66.1925C230.113 57.0767 218.674 55.0484 204.267 58.1521C189.824 61.2557 183.485 74.3918 183.485 74.3918C180.709 63.5109 190.414 54.7853 196.848 51.4184C204.789 47.2349 234.555 42.956 236.32 63.6379V63.6425Z"
        fill="url(#paint42_linear_2164_296773)" />
    <circle cx="220" cy="220" r="200" fill="url(#paint43_radial_2164_296773)" fill-opacity="0.2" />
    <defs>
        <radialGradient id="paint0_radial_2164_296773" cx="0" cy="0" r="1"
            gradientUnits="userSpaceOnUse"
            gradientTransform="translate(220 220) rotate(90) scale(160)">
            <stop stop-color="white" />
            <stop offset="1" stop-color="white" stop-opacity="0" />
        </radialGradient>
        <radialGradient id="paint1_radial_2164_296773" cx="0" cy="0" r="1"
            gradientUnits="userSpaceOnUse"
            gradientTransform="translate(221.832 222.99) scale(170.188)">
            <stop stop-color="#D196FF" />
            <stop offset="1" stop-color="#D196FF" stop-opacity="0" />
        </radialGradient>
        <radialGradient id="paint2_radial_2164_296773" cx="0" cy="0" r="1"
            gradientUnits="userSpaceOnUse"
            gradientTransform="translate(235.413 234.67) scale(172.797 172.797)">
            <stop stop-color="#D196FF" />
            <stop offset="1" stop-color="#D196FF" stop-opacity="0" />
        </radialGradient>
        <linearGradient id="paint3_linear_2164_296773" x1="326.934" y1="170.219" x2="340.16"
            y2="86.6839" gradientUnits="userSpaceOnUse">
            <stop stop-color="#8931B3" />
            <stop offset="1" stop-color="#8E8CFF" />
        </linearGradient>
        <linearGradient id="paint4_linear_2164_296773" x1="317.813" y1="378.013" x2="308.3"
            y2="405.751" gradientUnits="userSpaceOnUse">
            <stop stop-color="#8E8CFF" />
            <stop offset="1" stop-color="#8931B3" />
        </linearGradient>
        <radialGradient id="paint5_radial_2164_296773" cx="0" cy="0" r="1"
            gradientUnits="userSpaceOnUse"
            gradientTransform="translate(158.588 153.784) scale(233.436 233.436)">
            <stop stop-color="#FFB8E2" />
            <stop offset="0.22" stop-color="#FCB7E2" />
            <stop offset="0.33" stop-color="#F5B4E5" />
            <stop offset="0.42" stop-color="#E7B0E9" />
            <stop offset="0.49" stop-color="#D5AAEF" />
            <stop offset="0.55" stop-color="#BDA2F7" />
            <stop offset="0.58" stop-color="#AE9DFC" />
            <stop offset="0.64" stop-color="#A896FC" />
            <stop offset="0.72" stop-color="#9982FC" />
            <stop offset="0.81" stop-color="#8063FD" />
            <stop offset="0.91" stop-color="#5E37FE" />
            <stop offset="0.92" stop-color="#5E37FF" />
            <stop offset="0.99" stop-color="#5E9AFF" />
        </radialGradient>
        <linearGradient id="paint6_linear_2164_296773" x1="62.2253" y1="138.407" x2="127.012"
            y2="138.407" gradientUnits="userSpaceOnUse">
            <stop stop-color="white" />
            <stop offset="0.17" stop-color="#DBCFEA" />
            <stop offset="0.36" stop-color="#B9A2D6" />
            <stop offset="0.55" stop-color="#9E7FC7" />
            <stop offset="0.72" stop-color="#8B66BC" />
            <stop offset="0.87" stop-color="#8057B5" />
            <stop offset="1" stop-color="#7C52B3" />
        </linearGradient>
        <linearGradient id="paint7_linear_2164_296773" x1="241.706" y1="245.614" x2="354.195"
            y2="245.614" gradientUnits="userSpaceOnUse">
            <stop stop-color="#7C52B3" />
            <stop offset="0.13" stop-color="#8057B5" />
            <stop offset="0.28" stop-color="#8B66BC" />
            <stop offset="0.45" stop-color="#9E7FC7" />
            <stop offset="0.64" stop-color="#B9A2D6" />
            <stop offset="0.83" stop-color="#DBCFEA" />
            <stop offset="1" stop-color="white" />
        </linearGradient>
        <radialGradient id="paint8_radial_2164_296773" cx="0" cy="0" r="1"
            gradientUnits="userSpaceOnUse"
            gradientTransform="translate(97.9943 102.252) scale(203.756 203.756)">
            <stop stop-color="#FFFFD9" />
            <stop offset="1" />
        </radialGradient>
        <linearGradient id="paint9_linear_2164_296773" x1="151.709" y1="376.848" x2="163.239"
            y2="304.062" gradientUnits="userSpaceOnUse">
            <stop stop-color="#6D109D" />
            <stop offset="1" stop-color="#8E8CFF" />
        </linearGradient>
        <linearGradient id="paint10_linear_2164_296773" x1="105.763" y1="148.798" x2="54.6976"
            y2="104.407" gradientUnits="userSpaceOnUse">
            <stop stop-color="#C98EFF" />
            <stop offset="1" stop-color="#8931B3" />
        </linearGradient>
        <linearGradient id="paint11_linear_2164_296773" x1="328.755" y1="273.104" x2="241.375"
            y2="206.273" gradientUnits="userSpaceOnUse">
            <stop stop-color="#5400B3" />
            <stop offset="1" stop-color="#F2C0FF" />
        </linearGradient>
        <linearGradient id="paint12_linear_2164_296773" x1="175.059" y1="95.9722" x2="248.217"
            y2="95.9722" gradientUnits="userSpaceOnUse">
            <stop stop-color="white" />
            <stop offset="0.17" stop-color="#DBCFEA" />
            <stop offset="0.36" stop-color="#B9A2D6" />
            <stop offset="0.55" stop-color="#9E7FC7" />
            <stop offset="0.72" stop-color="#8B66BC" />
            <stop offset="0.87" stop-color="#8057B5" />
            <stop offset="1" stop-color="#7C52B3" />
        </linearGradient>
        <linearGradient id="paint13_linear_2164_296773" x1="285.013" y1="307.462" x2="301.662"
            y2="179.443" gradientUnits="userSpaceOnUse">
            <stop stop-color="#644FF7" />
            <stop offset="1" stop-color="#9F6DFF" />
        </linearGradient>
        <linearGradient id="paint14_linear_2164_296773" x1="255.233" y1="289.959" x2="323.368"
            y2="206.429" gradientUnits="userSpaceOnUse">
            <stop stop-color="#935CE1" />
            <stop offset="0.22" stop-color="#8F5ADF" />
            <stop offset="0.43" stop-color="#8353DB" />
            <stop offset="0.63" stop-color="#7149D5" />
            <stop offset="0.82" stop-color="#563BCC" />
            <stop offset="0.99" stop-color="#392CC2" />
        </linearGradient>
        <radialGradient id="paint15_radial_2164_296773" cx="0" cy="0" r="1"
            gradientUnits="userSpaceOnUse"
            gradientTransform="translate(178.48 83.6229) rotate(-109.29) scale(58.0528 58.0528)">
            <stop stop-color="#DEA5FF" />
            <stop offset="1" stop-color="#8931B3" />
        </radialGradient>
        <linearGradient id="paint16_linear_2164_296773" x1="241.618" y1="56.035" x2="177.326"
            y2="78.5374" gradientUnits="userSpaceOnUse">
            <stop stop-color="#C287F8" />
            <stop offset="1" stop-color="#CCB3FF" />
        </linearGradient>
        <linearGradient id="paint17_linear_2164_296773" x1="209.699" y1="87.2191" x2="209.699"
            y2="47.9561" gradientUnits="userSpaceOnUse">
            <stop stop-color="#9F6DFF" />
            <stop offset="0.27" stop-color="#9B69FE" />
            <stop offset="0.52" stop-color="#905EFD" />
            <stop offset="0.76" stop-color="#7D4BFA" />
            <stop offset="1" stop-color="#6431F7" />
        </linearGradient>
        <linearGradient id="paint18_linear_2164_296773" x1="63.0827" y1="148.176" x2="63.0827"
            y2="86.9424" gradientUnits="userSpaceOnUse">
            <stop stop-color="#FC9FF7" />
            <stop offset="1" stop-color="#F66DFF" />
        </linearGradient>
        <linearGradient id="paint19_linear_2164_296773" x1="133.223" y1="382.171" x2="133.223"
            y2="330.969" gradientUnits="userSpaceOnUse">
            <stop stop-color="#C282F7" />
            <stop offset="1" stop-color="#DC6DFF" />
        </linearGradient>
        <linearGradient id="paint20_linear_2164_296773" x1="131.617" y1="378.372" x2="131.617"
            y2="339.209" gradientUnits="userSpaceOnUse">
            <stop stop-color="#4848F7" />
            <stop offset="1" stop-color="#6D20FF" />
        </linearGradient>
        <linearGradient id="paint21_linear_2164_296773" x1="140.792" y1="365.599" x2="140.792"
            y2="341.519" gradientUnits="userSpaceOnUse">
            <stop stop-color="#644FF7" />
            <stop offset="1" stop-color="#9F6DFF" />
        </linearGradient>
        <linearGradient id="paint22_linear_2164_296773" x1="62.0028" y1="136.673" x2="62.0028"
            y2="92.823" gradientUnits="userSpaceOnUse">
            <stop stop-color="#9F6DFF" />
            <stop offset="1" stop-color="#644FF7" />
        </linearGradient>
        <linearGradient id="paint23_linear_2164_296773" x1="63.2371" y1="116.236" x2="67.516"
            y2="118.945" gradientUnits="userSpaceOnUse">
            <stop stop-color="#9084FF" />
            <stop offset="1" stop-color="#C287F8" />
        </linearGradient>
        <linearGradient id="paint24_linear_2164_296773" x1="80.2121" y1="250.542" x2="106.902"
            y2="267.413" gradientUnits="userSpaceOnUse">
            <stop stop-color="#9084FF" />
            <stop offset="0.49" stop-color="#D08BFC" />
            <stop offset="1" stop-color="#FFC9F8" />
        </linearGradient>
        <radialGradient id="paint25_radial_2164_296773" cx="0" cy="0" r="1"
            gradientUnits="userSpaceOnUse"
            gradientTransform="translate(93.7792 256.427) scale(12.8321 12.8321)">
            <stop stop-color="#1372B3" />
            <stop offset="1" stop-color="white" />
        </radialGradient>
        <linearGradient id="paint26_linear_2164_296773" x1="134.442" y1="112.727" x2="146.046"
            y2="121.51" gradientUnits="userSpaceOnUse">
            <stop stop-color="#9084FF" />
            <stop offset="0.49" stop-color="#D08BFC" />
            <stop offset="1" stop-color="#FFC9F8" />
        </linearGradient>
        <radialGradient id="paint27_radial_2164_296773" cx="0" cy="0" r="1"
            gradientUnits="userSpaceOnUse"
            gradientTransform="translate(140.444 115.956) rotate(4.82) scale(5.9169 5.9169)">
            <stop stop-color="#1372B3" />
            <stop offset="1" stop-color="white" />
        </radialGradient>
        <linearGradient id="paint28_linear_2164_296773" x1="264.239" y1="331.673" x2="236.901"
            y2="331.096" gradientUnits="userSpaceOnUse">
            <stop stop-color="#9566FC" />
            <stop offset="1" stop-color="#5445B1" />
        </linearGradient>
        <radialGradient id="paint29_radial_2164_296773" cx="0" cy="0" r="1"
            gradientUnits="userSpaceOnUse"
            gradientTransform="translate(169.959 263.234) scale(28.9039 28.9039)">
            <stop stop-color="#FFFFE8" />
            <stop offset="0.2" stop-color="#BBBBAA" />
            <stop offset="0.42" stop-color="#79796E" />
            <stop offset="0.61" stop-color="#45453E" />
            <stop offset="0.78" stop-color="#1F1F1C" />
            <stop offset="0.91" stop-color="#080807" />
            <stop offset="1" />
        </radialGradient>
        <radialGradient id="paint30_radial_2164_296773" cx="0" cy="0" r="1"
            gradientUnits="userSpaceOnUse"
            gradientTransform="translate(250.518 329.408) scale(11.4027 11.4027)">
            <stop stop-color="#1372B3" />
            <stop offset="1" stop-color="white" />
        </radialGradient>
        <linearGradient id="paint31_linear_2164_296773" x1="117.22" y1="200.303" x2="191.48"
            y2="247.248" gradientUnits="userSpaceOnUse">
            <stop stop-color="#9084FF" />
            <stop offset="0.12" stop-color="#9684FE" />
            <stop offset="0.29" stop-color="#AA86FD" />
            <stop offset="0.49" stop-color="#C98AFC" />
            <stop offset="0.53" stop-color="#D08BFC" />
            <stop offset="1" stop-color="#FFC9F8" />
        </linearGradient>
        <linearGradient id="paint32_linear_2164_296773" x1="118.177" y1="210.199" x2="192.356"
            y2="210.199" gradientUnits="userSpaceOnUse">
            <stop stop-color="#1372B3" />
            <stop offset="1" stop-color="white" />
        </linearGradient>
        <linearGradient id="paint33_linear_2164_296773" x1="271.186" y1="83.4437" x2="307.654"
            y2="106.499" gradientUnits="userSpaceOnUse">
            <stop stop-color="#845FFF" />
            <stop offset="0.49" stop-color="#A972FC" />
            <stop offset="1" stop-color="#D4B0F8" />
        </linearGradient>
        <linearGradient id="paint34_linear_2164_296773" x1="270.496" y1="92.6822" x2="305.217"
            y2="92.6822" gradientUnits="userSpaceOnUse">
            <stop stop-color="#1372B3" />
            <stop offset="1" stop-color="white" />
        </linearGradient>
        <linearGradient id="paint35_linear_2164_296773" x1="247.564" y1="227.728" x2="338.024"
            y2="227.728" gradientUnits="userSpaceOnUse">
            <stop stop-color="#7C52B3" />
            <stop offset="1" stop-color="white" />
        </linearGradient>
        <radialGradient id="paint36_radial_2164_296773" cx="0" cy="0" r="1"
            gradientUnits="userSpaceOnUse"
            gradientTransform="translate(331.9 366.062) rotate(10.24) scale(55.6615 55.6615)">
            <stop stop-color="#FFB8E2" />
            <stop offset="0.22" stop-color="#FCB7E2" />
            <stop offset="0.33" stop-color="#F5B4E5" />
            <stop offset="0.42" stop-color="#E7B0E9" />
            <stop offset="0.49" stop-color="#D5AAEF" />
            <stop offset="0.55" stop-color="#BDA2F7" />
            <stop offset="0.58" stop-color="#AE9DFC" />
            <stop offset="0.64" stop-color="#A896FC" />
            <stop offset="0.72" stop-color="#9982FC" />
            <stop offset="0.81" stop-color="#8063FD" />
            <stop offset="0.91" stop-color="#5E37FE" />
            <stop offset="0.92" stop-color="#5E37FF" />
            <stop offset="0.99" stop-color="#5E9AFF" />
        </radialGradient>
        <linearGradient id="paint37_linear_2164_296773" x1="374.351" y1="355.637" x2="338.856"
            y2="379.635" gradientUnits="userSpaceOnUse">
            <stop stop-color="#5400B3" />
            <stop offset="1" stop-color="#F2C0FF" />
        </linearGradient>
        <linearGradient id="paint38_linear_2164_296773" x1="380.608" y1="375.387" x2="337.054"
            y2="354.201" gradientUnits="userSpaceOnUse">
            <stop stop-color="#644FF7" />
            <stop offset="1" stop-color="#9F6DFF" />
        </linearGradient>
        <linearGradient id="paint39_linear_2164_296773" x1="378.124" y1="371.513" x2="340.099"
            y2="358.76" gradientUnits="userSpaceOnUse">
            <stop stop-color="#392CC2" />
            <stop offset="1" stop-color="#5F33C5" />
        </linearGradient>
        <linearGradient id="paint40_linear_2164_296773" x1="377.192" y1="373.694" x2="339.575"
            y2="361.078" gradientUnits="userSpaceOnUse">
            <stop stop-color="#5E48F7" />
            <stop offset="1" stop-color="#8C50FF" />
        </linearGradient>
        <linearGradient id="paint41_linear_2164_296773" x1="347.217" y1="381.574" x2="359.514"
            y2="344.908" gradientUnits="userSpaceOnUse">
            <stop stop-color="#7C52B3" />
            <stop offset="1" stop-color="white" />
        </linearGradient>
        <linearGradient id="paint42_linear_2164_296773" x1="182.995" y1="61.1741" x2="236.397"
            y2="61.1741" gradientUnits="userSpaceOnUse">
            <stop stop-color="#7C52B3" />
            <stop offset="1" stop-color="white" />
        </linearGradient>
        <radialGradient id="paint43_radial_2164_296773" cx="0" cy="0" r="1"
            gradientUnits="userSpaceOnUse"
            gradientTransform="translate(220 220) rotate(90) scale(200)">
            <stop stop-color="white" stop-opacity="0.3" />
            <stop offset="0.784" stop-color="white" />
            <stop offset="1" stop-color="white" stop-opacity="0" />
        </radialGradient>
    </defs>
</svg>
    