<svg width="61" height="60" viewBox="0 0 61 60" fill="none" xmlns="http://www.w3.org/2000/svg">
    <g clip-path="url(#clip0_1324_34046)">
        <path
            d="M47.5124 18.3818C46.0187 15.8922 43.363 14.2324 40.3755 14.2324H20.4585C17.4709 14.2324 14.8154 15.8922 13.3216 18.3818C11.4959 21.7013 10.5 25.3528 10.5 29.1702C10.5 38.2988 14.1515 45.7677 18.7987 45.7677C21.2884 45.7677 23.2801 43.4441 24.7738 38.6308C24.9398 37.9669 25.6037 37.469 26.4336 37.469H34.5664C35.2303 37.469 35.8942 37.9669 36.2262 38.6308C37.7199 43.4441 39.7116 45.7677 42.2013 45.7677C46.8485 45.7677 50.5 38.2988 50.5 29.1702C50.3341 25.3528 49.3382 21.7013 47.5124 18.3818ZM42.0352 42.4482C41.5373 42.4482 40.3755 41.1204 39.2137 37.6349C38.5498 35.4773 36.558 34.1495 34.4004 34.1495H26.4336C24.2759 34.1495 22.2842 35.6432 21.6203 37.6349C20.4585 41.1204 19.2966 42.4482 18.7987 42.4482C17.139 42.4482 13.8195 37.303 13.8195 29.1702C13.8195 26.0167 14.6494 22.8632 16.1432 20.0416C17.1391 18.5479 18.7988 17.552 20.4586 17.552H40.3756C42.0354 17.552 43.6952 18.5479 44.691 20.0416C46.1848 22.8632 47.0147 26.0167 47.0147 29.1702C47.0145 37.303 43.695 42.4482 42.0352 42.4482Z"
            fill="black" fill-opacity="0.4" />
        <path
            d="M25.5002 24.9998H23.8336V23.3331C23.8336 22.3331 23.1669 21.6665 22.1669 21.6665C21.1669 21.6665 20.5003 22.3331 20.5003 23.3331V24.9998H18.8336C17.8336 24.9998 17.167 25.6664 17.167 26.6664C17.167 27.6664 17.8336 28.333 18.8336 28.333H20.5002V29.9998C20.5002 30.9998 21.1668 31.6664 22.1668 31.6664C23.1668 31.6664 23.8335 30.9998 23.8335 29.9998V28.3331H25.5002C26.5002 28.3331 27.1668 27.6665 27.1668 26.6665C27.1668 25.6664 26.5002 24.9998 25.5002 24.9998Z"
            fill="black" fill-opacity="0.4" />
        <path
            d="M41.3335 26.6665C42.7142 26.6665 43.8335 25.5472 43.8335 24.1665C43.8335 22.7858 42.7142 21.6665 41.3335 21.6665C39.9528 21.6665 38.8335 22.7858 38.8335 24.1665C38.8335 25.5472 39.9528 26.6665 41.3335 26.6665Z"
            fill="black" fill-opacity="0.4" />
        <path
            d="M36.3335 31.6665C37.7142 31.6665 38.8335 30.5472 38.8335 29.1665C38.8335 27.7858 37.7142 26.6665 36.3335 26.6665C34.9528 26.6665 33.8335 27.7858 33.8335 29.1665C33.8335 30.5472 34.9528 31.6665 36.3335 31.6665Z"
            fill="black" fill-opacity="0.4" />
    </g>
    <defs>
        <clipPath id="clip0_1324_34046">
            <rect width="40" height="40" fill="white" transform="translate(10.5 10)" />
        </clipPath>
    </defs>
</svg>
    