<svg width="60" height="60" viewBox="0 0 60 60" fill="none" xmlns="http://www.w3.org/2000/svg">
    <g clip-path="url(#clip0_1324_12067)">
        <path
            d="M51.23 19.9236L27.385 2.43865C25.5226 1.07486 23.3189 0.253429 21.0182 0.0654052C18.7175 -0.122618 16.4096 0.33011 14.3505 1.37341C12.2913 2.41671 10.5613 4.00982 9.35212 5.97617C8.14296 7.94251 7.5019 10.2053 7.50002 12.5136V47.5012C7.49642 49.8118 8.13413 52.0781 9.34214 54.0478C10.5502 56.0175 12.2811 57.6133 14.3422 58.6576C16.4034 59.702 18.714 60.1538 21.0167 59.9629C23.3194 59.7719 25.524 58.9457 27.385 57.5762L51.23 40.0912C52.8122 38.93 54.0988 37.4127 54.9856 35.6619C55.8724 33.9112 56.3345 31.9762 56.3345 30.0137C56.3345 28.0511 55.8724 26.1161 54.9856 24.3654C54.0988 22.6146 52.8122 21.0973 51.23 19.9361V19.9236Z"
            fill="white" fill-opacity="0.4" />
    </g>
    <defs>
        <clipPath id="clip0_1324_12067">
            <rect width="60" height="60" fill="white" />
        </clipPath>
    </defs>
</svg>
    