<svg width="60" height="60" viewBox="0 0 60 60" fill="none" xmlns="http://www.w3.org/2000/svg">
    <path
        d="M45.5723 22.6073L28.0823 9.77401C26.7163 8.77372 25.0999 8.1713 23.4124 8.03356C21.7249 7.89582 20.0322 8.22814 18.522 8.99367C17.0119 9.7592 15.7432 10.928 14.8568 12.3705C13.9703 13.8131 13.5007 15.4729 13.5 17.166V42.8327C13.5003 44.5266 13.9699 46.1872 14.8568 47.6304C15.7437 49.0736 17.0131 50.2428 18.5241 51.0083C20.0352 51.7738 21.7288 52.1056 23.417 51.967C25.1052 51.8283 26.7219 51.2246 28.0878 50.2228L45.5778 37.3895C46.7388 36.5381 47.6829 35.4252 48.3337 34.141C48.9845 32.8567 49.3236 31.4372 49.3236 29.9975C49.3236 28.5578 48.9845 27.1383 48.3337 25.8541C47.6829 24.5698 46.7388 23.4569 45.5778 22.6055L45.5723 22.6073ZM43.4017 34.4324L25.9117 47.2657C25.0922 47.8645 24.123 48.2249 23.1114 48.307C22.0998 48.389 21.0852 48.1896 20.1799 47.7307C19.2746 47.2718 18.514 46.5713 17.9821 45.7069C17.4503 44.8424 17.1681 43.8476 17.1667 42.8327V17.166C17.1565 16.1492 17.4334 15.15 17.9656 14.2835C18.4978 13.417 19.2636 12.7181 20.1752 12.2673C20.9505 11.873 21.8078 11.667 22.6777 11.666C23.8435 11.6705 24.9771 12.049 25.9117 12.7458L43.4017 25.5792C44.0974 26.0901 44.6631 26.7577 45.053 27.5278C45.443 28.2979 45.6461 29.149 45.6461 30.0122C45.6461 30.8754 45.443 31.7265 45.053 32.4966C44.6631 33.2667 44.0974 33.9342 43.4017 34.4452V34.4324Z"
        fill="black" fill-opacity="0.2" />
</svg>
    