<svg width="24" height="24" viewBox="0 0 24 24" fill="none" xmlns="http://www.w3.org/2000/svg">
    <rect x="2" y="2" width="20" height="20" rx="10" stroke="white" stroke-width="4" />
    <g clip-path="url(#clip0_1940_4367)">
        <path
            d="M12 8C11.2089 8 10.4355 8.2346 9.77772 8.67412C9.11992 9.11365 8.60723 9.73836 8.30448 10.4693C8.00173 11.2002 7.92252 12.0044 8.07686 12.7804C8.2312 13.5563 8.61216 14.269 9.17157 14.8284C9.73098 15.3878 10.4437 15.7688 11.2196 15.9231C11.9956 16.0775 12.7998 15.9983 13.5307 15.6955C14.2616 15.3928 14.8864 14.8801 15.3259 14.2223C15.7654 13.5645 16 12.7911 16 12C15.9989 10.9395 15.5771 9.92274 14.8272 9.17284C14.0773 8.42294 13.0605 8.00115 12 8V8Z"
            fill="white" />
    </g>
    <defs>
        <clipPath id="clip0_1940_4367">
            <rect width="8" height="8" fill="white" transform="translate(8 8)" />
        </clipPath>
    </defs>
</svg>
    