<svg width="60" height="61" viewBox="0 0 60 61" fill="none" xmlns="http://www.w3.org/2000/svg">
    <rect x="4" y="4.5" width="52" height="52" rx="26" stroke="#00B26B" stroke-width="8" />
    <g clip-path="url(#clip0_1324_26974)">
        <path
            d="M30 16.5C27.2311 16.5 24.5243 17.3211 22.222 18.8594C19.9197 20.3978 18.1253 22.5843 17.0657 25.1424C16.0061 27.7006 15.7288 30.5155 16.269 33.2313C16.8092 35.947 18.1426 38.4416 20.1005 40.3995C22.0584 42.3574 24.553 43.6908 27.2687 44.231C29.9845 44.7712 32.7994 44.4939 35.3576 43.4343C37.9157 42.3747 40.1022 40.5803 41.6406 38.278C43.1789 35.9757 44 33.2689 44 30.5C43.996 26.7882 42.5197 23.2296 39.8951 20.6049C37.2704 17.9803 33.7118 16.504 30 16.5V16.5Z"
            fill="#00B26B" />
    </g>
    <defs>
        <clipPath id="clip0_1324_26974">
            <rect width="28" height="28" fill="white" transform="translate(16 16.5)" />
        </clipPath>
    </defs>
</svg>
    