<svg width="40" height="40" viewBox="0 0 40 40" fill="none" xmlns="http://www.w3.org/2000/svg">
    <g clip-path="url(#clip0_2744_4167)">
    <path d="M26.9583 21.3354C30.8019 17.4918 30.8019 11.2601 26.9583 7.41657C23.1147 3.57299 16.8831 3.57299 13.0395 7.41657C9.19591 11.2601 9.19591 17.4918 13.0395 21.3354C16.8831 25.179 23.1147 25.179 26.9583 21.3354Z" fill="#FF9800"/>
    <path fill-rule="evenodd" clip-rule="evenodd" d="M28.6038 19.1432C26.921 22.1658 23.6915 24.2178 19.9984 24.2178C14.5772 24.2178 10.1562 19.7969 10.1562 14.3757C10.1562 10.391 12.5457 6.94557 15.965 5.40039C15.1779 6.81427 14.729 8.44063 14.729 10.1679C14.729 15.5884 19.1499 20.01 24.5711 20.01C26.0068 20.01 27.372 19.7002 28.6038 19.1432Z" fill="#F26722"/>
    <path fill-rule="evenodd" clip-rule="evenodd" d="M4.14648 29.9314L4.81157 27.3496L19.999 31.4191L35.1865 27.3496L35.9466 30.1243L19.999 34.3846L4.14648 29.9314Z" fill="white"/>
    <path fill-rule="evenodd" clip-rule="evenodd" d="M19.9989 31.9268C19.0107 31.9268 18.0819 32.8818 17.8262 33.8364C17.8262 33.8364 18.3524 35.4665 19.9989 35.4665C21.6393 35.4665 22.2071 33.812 22.2071 33.812C21.9513 32.8575 20.9872 31.9268 19.9989 31.9268Z" fill="black"/>
    <path d="M17.9081 13.5667C18.5258 12.949 18.5258 11.9475 17.9081 11.3298C17.2904 10.7121 16.2889 10.7121 15.6712 11.3298C15.0535 11.9475 15.0535 12.949 15.6712 13.5667C16.2889 14.1844 17.2904 14.1844 17.9081 13.5667Z" fill="white"/>
    <path fill-rule="evenodd" clip-rule="evenodd" d="M4.73602 22.1979C5.02161 21.7252 5.63633 21.5735 6.10904 21.8591L20.516 30.5629C20.9887 30.8485 21.1404 31.4632 20.8548 31.9359C20.5692 32.4086 19.9545 32.5603 19.4818 32.2747L5.07485 23.5709C4.60213 23.2853 4.45043 22.6706 4.73602 22.1979Z" fill="black"/>
    <path fill-rule="evenodd" clip-rule="evenodd" d="M35.2711 22.1981C35.5566 22.6709 35.4047 23.2856 34.9319 23.571L20.517 32.2749C20.0443 32.5603 19.4296 32.4085 19.1441 31.9357C18.8586 31.4629 19.0105 30.8482 19.4833 30.5628L33.8982 21.8589C34.3709 21.5735 34.9856 21.7253 35.2711 22.1981Z" fill="black"/>
    <path fill-rule="evenodd" clip-rule="evenodd" d="M11.0305 13.9455C11.2926 14.4316 11.1111 15.0382 10.6249 15.3003C9.39061 15.9659 8.48276 16.5831 7.92761 17.1074C7.64937 17.3702 7.49961 17.5728 7.43038 17.708C7.41812 17.732 7.40955 17.7514 7.40359 17.7665C7.43928 17.8012 7.51656 17.8607 7.67429 17.9332C7.99225 18.0794 8.49678 18.2083 9.20736 18.2832C9.7566 18.3412 10.1549 18.8334 10.0969 19.3826C10.039 19.9319 9.54675 20.3301 8.99751 20.2722C8.18134 20.1861 7.43533 20.0246 6.83876 19.7503C6.25248 19.4807 5.65384 19.0246 5.45274 18.274M11.0305 13.9455C10.7684 13.4594 10.1618 13.2778 9.6757 13.5399L11.0305 13.9455ZM9.6757 13.5399C8.37697 14.2402 7.29416 14.9546 6.55433 15.6534L9.6757 13.5399ZM6.55433 15.6534C6.18508 16.0022 5.86128 16.384 5.65002 16.7968L6.55433 15.6534ZM5.65002 16.7968C5.43538 17.2161 5.3073 17.7311 5.45274 18.274L5.65002 16.7968Z" fill="black"/>
    <path d="M10.6249 15.3003C11.1111 15.0382 11.2926 14.4316 11.0305 13.9455C10.7684 13.4594 10.1618 13.2778 9.6757 13.5399C8.37697 14.2402 7.29416 14.9546 6.55433 15.6534C6.18508 16.0022 5.86128 16.384 5.65002 16.7968C5.43538 17.2161 5.3073 17.7311 5.45274 18.274C5.65384 19.0246 6.25248 19.4807 6.83876 19.7503C7.43533 20.0246 8.18134 20.1861 8.99751 20.2722C9.54675 20.3301 10.039 19.9319 10.0969 19.3826C10.1549 18.8334 9.7566 18.3412 9.20736 18.2832C8.49678 18.2083 7.99225 18.0794 7.67429 17.9332C7.51656 17.8607 7.43928 17.8012 7.40359 17.7665C7.40955 17.7514 7.41812 17.732 7.43038 17.708C7.49961 17.5728 7.64937 17.3702 7.92761 17.1074C8.48276 16.5831 9.39061 15.9659 10.6249 15.3003Z" fill="black"/>
    <path fill-rule="evenodd" clip-rule="evenodd" d="M31.8021 10.6893C31.0545 10.5067 29.9554 10.4195 28.5583 10.46C28.0062 10.476 27.5457 10.0414 27.5297 9.48938C27.5137 8.93733 27.9483 8.47683 28.5003 8.46083C29.9788 8.41796 31.2803 8.50304 32.2767 8.74647C32.7739 8.86793 33.2465 9.04083 33.636 9.29473C34.0301 9.55158 34.4003 9.93423 34.546 10.4778L34.546 10.4779C34.813 11.4748 34.2289 12.3671 33.6331 12.9905C33.2515 13.3897 32.6184 13.404 32.2192 13.0224C31.82 12.6408 31.8057 12.0078 32.1873 11.6086C32.4124 11.373 32.5283 11.193 32.5799 11.0746C32.5912 11.0488 32.5984 11.0285 32.603 11.0129C32.5891 11.0015 32.5699 10.9872 32.5439 10.9702C32.4123 10.8845 32.177 10.7809 31.8021 10.6893ZM32.6352 11.0442C32.6351 11.0443 32.6343 11.0432 32.6329 11.0411C32.6346 11.0432 32.6353 11.0442 32.6352 11.0442ZM32.6108 10.977C32.6106 10.9743 32.6107 10.9728 32.6108 10.9728C32.611 10.9727 32.611 10.9741 32.6108 10.977Z" fill="black"/>
    <path fill-rule="evenodd" clip-rule="evenodd" d="M13.7467 8.12367C10.2937 11.5767 10.2937 17.1752 13.7467 20.6283C17.1998 24.0813 22.7983 24.0813 26.2513 20.6283C29.7044 17.1752 29.7044 11.5767 26.2513 8.12367C22.7983 4.67061 17.1998 4.67061 13.7467 8.12367ZM12.3325 22.0425C8.09843 17.8084 8.09843 10.9436 12.3325 6.70947C16.5666 2.47537 23.4315 2.47537 27.6655 6.70947C31.8996 10.9436 31.8996 17.8084 27.6655 22.0425C23.4315 26.2766 16.5666 26.2766 12.3325 22.0425Z" fill="black"/>
    <path d="M25.0254 11.7471H25.0258" stroke="white" stroke-width="2" stroke-miterlimit="10" stroke-linecap="round" stroke-linejoin="round"/>
    <path d="M22.002 20.6055H22.0025" stroke="white" stroke-width="2" stroke-miterlimit="10" stroke-linecap="round" stroke-linejoin="round"/>
    <path fill-rule="evenodd" clip-rule="evenodd" d="M33.6012 11.5769C34.0004 11.9586 34.0147 12.5916 33.6331 12.9908C32.6485 14.0208 30.9252 15.0722 28.8165 16.0415C26.6794 17.0238 24.0501 17.9648 21.1676 18.7372L20.9271 17.84L21.1675 18.7372C16.3434 20.0299 11.8441 20.5726 8.99669 20.2721C8.44746 20.2141 8.0492 19.7219 8.10717 19.1726C8.16513 18.6234 8.65736 18.2252 9.2066 18.2831C11.702 18.5465 15.9283 18.0706 20.6499 16.8054C23.4402 16.0577 25.9612 15.1527 27.9813 14.2242C30.0298 13.2826 31.4709 12.3583 32.1873 11.6088C32.569 11.2096 33.202 11.1953 33.6012 11.5769Z" fill="black"/>
    <path fill-rule="evenodd" clip-rule="evenodd" d="M1.7394 29.5207C1.88234 28.9873 2.43068 28.6707 2.96415 28.8136L18.1492 32.8825C18.4943 32.9749 18.7639 33.2445 18.8563 33.5896C18.9949 34.1069 19.4638 34.4667 19.9994 34.4667C20.5351 34.4667 21.0039 34.1069 21.1425 33.5896C21.235 33.2445 21.5046 32.9749 21.8497 32.8825L37.0347 28.8136C37.5682 28.6707 38.1165 28.9873 38.2595 29.5207C38.4024 30.0542 38.0858 30.6025 37.5524 30.7455L22.8592 34.6825C22.3331 35.7585 21.232 36.4667 19.9994 36.4667C18.7669 36.4667 17.6658 35.7585 17.1397 34.6825L2.44651 30.7455C1.91304 30.6025 1.59646 30.0542 1.7394 29.5207Z" fill="black"/>
    <path fill-rule="evenodd" clip-rule="evenodd" d="M34.9287 26.3839C35.4601 26.2415 36.0067 26.5551 36.152 27.0857L36.9121 29.8604C37.058 30.393 36.7444 30.9431 36.2118 31.089C35.6791 31.2349 35.129 30.9214 34.9831 30.3887L34.4858 28.5732L20.2589 32.3853C20.0893 32.4307 19.9108 32.4307 19.7413 32.3853L5.53289 28.5781L5.0731 30.3921C4.9374 30.9274 4.3934 31.2514 3.85805 31.1157C3.32269 30.98 2.99871 30.436 3.13441 29.9006L3.84326 27.1041C3.909 26.8448 4.07594 26.6226 4.30675 26.4872C4.53755 26.3519 4.81297 26.3147 5.07142 26.3839L20.0001 30.3841L34.9287 26.3839Z" fill="black"/>
    <path fill-rule="evenodd" clip-rule="evenodd" d="M19.4118 33.2459C19.1754 33.4892 18.9893 33.8268 18.9037 34.1464C18.7608 34.6799 18.2124 34.9965 17.679 34.8536C17.1455 34.7106 16.8289 34.1623 16.9718 33.6288C17.1419 32.9939 17.4929 32.351 17.9769 31.8526C18.4589 31.3561 19.1534 30.9268 20.0003 30.9268C20.8237 30.9268 21.5281 31.3236 22.032 31.803C22.5382 32.2847 22.9243 32.9233 23.1016 33.5854C23.2446 34.1188 22.928 34.6672 22.3945 34.8101C21.861 34.953 21.3127 34.6364 21.1698 34.1029C21.0914 33.8104 20.9038 33.4903 20.6533 33.2519C20.4005 33.0113 20.165 32.9268 20.0003 32.9268C19.8589 32.9268 19.65 33.0005 19.4118 33.2459Z" fill="black"/>
    </g>
    <defs>
    <clipPath id="clip0_2744_4167">
    <rect width="40" height="40" fill="white"/>
    </clipPath>
    </defs>
    </svg>
    