<svg width="32" height="32" viewBox="0 0 32 32" fill="none" xmlns="http://www.w3.org/2000/svg">
    <g clip-path="url(#clip0_1307_16356)">
        <path
            d="M16.0006 2.66662C17.7693 2.67243 19.5192 3.02894 21.1492 3.71554C22.7792 4.40214 24.2568 5.40518 25.4966 6.66662H21.3339C20.9803 6.66662 20.6412 6.8071 20.3911 7.05715C20.1411 7.3072 20.0006 7.64634 20.0006 7.99996C20.0006 8.35358 20.1411 8.69272 20.3911 8.94277C20.6412 9.19281 20.9803 9.33329 21.3339 9.33329H26.8579C27.5145 9.33294 28.1441 9.07196 28.6083 8.6077C29.0726 8.14343 29.3336 7.51386 29.3339 6.85729V1.33329C29.3339 0.979667 29.1935 0.640529 28.9434 0.39048C28.6934 0.140432 28.3542 -4.40349e-05 28.0006 -4.40349e-05C27.647 -4.40349e-05 27.3078 0.140432 27.0578 0.39048C26.8077 0.640529 26.6673 0.979667 26.6673 1.33329V4.10396C24.4635 2.11923 21.7507 0.787169 18.8327 0.256955C15.9147 -0.27326 12.9068 0.0193052 10.1456 1.10189C7.38452 2.18447 4.97928 4.01432 3.19928 6.38652C1.41927 8.75873 0.334785 11.5796 0.0672622 14.5333C0.05004 14.719 0.0716832 14.9062 0.130813 15.083C0.189942 15.2599 0.285262 15.4225 0.410697 15.5605C0.536133 15.6985 0.688935 15.8088 0.859366 15.8845C1.0298 15.9601 1.21412 15.9995 1.4006 16C1.72671 16.0041 2.04264 15.8864 2.28654 15.6699C2.53044 15.4534 2.68475 15.1536 2.71926 14.8293C3.01608 11.5103 4.54323 8.42223 7.0007 6.17174C9.45818 3.92125 12.6684 2.67101 16.0006 2.66662Z"
            fill="#252525" />
        <path
            d="M30.6017 16.0003C30.2755 15.9961 29.9596 16.1139 29.7157 16.3304C29.4718 16.5469 29.3175 16.8467 29.283 17.171C29.0626 19.7086 28.1189 22.1298 26.5639 24.1473C25.0088 26.1647 22.9077 27.6938 20.5099 28.5531C18.112 29.4124 15.5179 29.5658 13.0355 28.9951C10.553 28.4245 8.28632 27.1538 6.50433 25.3337H10.667C11.0206 25.3337 11.3598 25.1932 11.6098 24.9431C11.8598 24.6931 12.0003 24.3539 12.0003 24.0003C12.0003 23.6467 11.8598 23.3076 11.6098 23.0575C11.3598 22.8075 11.0206 22.667 10.667 22.667H5.14299C4.81779 22.6668 4.49574 22.7307 4.19526 22.8551C3.89478 22.9795 3.62176 23.1618 3.39181 23.3918C3.16185 23.6218 2.97948 23.8948 2.85511 24.1953C2.73074 24.4957 2.66682 24.8178 2.66699 25.143V30.667C2.66699 31.0206 2.80747 31.3598 3.05752 31.6098C3.30757 31.8599 3.6467 32.0003 4.00033 32.0003C4.35395 32.0003 4.69309 31.8599 4.94314 31.6098C5.19318 31.3598 5.33366 31.0206 5.33366 30.667V27.8963C7.53743 29.8811 10.2502 31.2131 13.1682 31.7433C16.0862 32.2736 19.0942 31.981 21.8553 30.8984C24.6164 29.8158 27.0216 27.986 28.8016 25.6138C30.5816 23.2416 31.6661 20.4207 31.9337 17.467C31.9509 17.2813 31.9292 17.0941 31.8701 16.9172C31.811 16.7404 31.7157 16.5778 31.5902 16.4398C31.4648 16.3018 31.312 16.1915 31.1416 16.1158C30.9711 16.0401 30.7868 16.0008 30.6003 16.0003H30.6017Z"
            fill="#252525" />
    </g>
    <defs>
        <clipPath id="clip0_1307_16356">
            <rect width="32" height="32" fill="white" />
        </clipPath>
    </defs>
</svg>
    