<svg width="61" height="60" viewBox="0 0 61 60" fill="none" xmlns="http://www.w3.org/2000/svg">
    <g clip-path="url(#clip0_1339_33871)">
        <path style="mix-blend-mode:color-dodge"
            d="M6.65719 18.4761C6.65719 18.4761 -3.57966 35.0459 10.7068 49.3323C27.247 65.8725 42.7505 53.0884 42.7505 53.0884L39.3343 22.614L6.65719 18.4761Z"
            fill="url(#paint0_radial_1339_33871)" />
        <path opacity="0.5"
            d="M12.6829 23.7566C12.6829 23.7566 6.29303 33.4899 17.0078 44.0836C27.5224 54.4771 38.2104 47.086 38.2104 47.086L40.9783 20.3367L12.6782 23.7612L12.6829 23.7566Z"
            fill="white" />
        <path
            d="M26.6479 39.9389C26.6479 39.9389 26.0751 40.2323 25.2228 40.6375C24.8084 40.8378 24.3473 41.0381 23.8351 41.2616C21.5857 42.2164 18.6472 43.1992 17.795 42.2446C17.0686 41.4157 18.0886 38.6635 19.0481 36.5492C19.2856 36.0602 19.4905 35.5945 19.6862 35.2033C20.0588 34.4582 20.3382 33.9645 20.3382 33.9645L26.6526 39.9436L26.6479 39.9389Z"
            fill="#FF6047" />
        <path
            d="M42.8718 51.2819C42.8718 51.2819 42.2337 51.8454 41.307 52.5673C40.9297 52.8421 40.5106 53.1681 40.0775 53.4801C38.1495 54.8587 35.7651 56.2559 34.7965 55.5574C33.935 54.9474 34.2285 52.2325 34.6478 49.9971C34.7596 49.4569 34.8528 48.9447 34.9599 48.5022C35.1788 47.5569 35.3419 46.9189 35.3419 46.9189L42.8671 51.2773L42.8718 51.2819Z"
            fill="#FF6047" />
        <path
            d="M13.1577 24.7347C13.1577 24.7347 12.3427 24.963 11.2111 25.2098C10.7594 25.3077 10.2657 25.4101 9.74415 25.494C7.58799 25.8807 5.1012 26.1043 4.51914 25.2894C3.87655 24.3953 5.00364 22.309 6.26111 20.4741C6.53589 20.0783 6.81533 19.7057 7.08545 19.3517C7.99828 18.1223 8.79932 17.2095 8.79932 17.2095L13.1577 24.7347Z"
            fill="#FF6047" />
        <path
            d="M42.4477 53.6342C33.9771 48.88 26.8525 42.8638 21.246 37.1362C20.608 36.4982 20.0073 35.8603 19.4066 35.241C14.7035 30.2211 11.1925 25.5924 9.01791 22.4678C7.2764 19.9625 6.37306 18.4258 6.37306 18.4258C19.7016 9.75383 33.3372 6.0368 42.9071 4.42958C47.1356 3.72147 50.5817 3.42322 52.845 3.31131C53.5854 3.26004 54.27 3.4975 54.8055 3.91193C54.9219 4.00971 55.0383 4.1075 55.1408 4.22857C55.6623 4.76874 55.9603 5.47657 55.9649 6.25426C56.002 9.87731 55.7689 13.3979 55.3263 16.7928C52.6612 37.7024 42.4431 53.6388 42.4431 53.6388L42.4477 53.6342Z"
            fill="white" />
        <path
            d="M43.1697 52.427C22.1306 40.5812 9.4372 20.93 7.46754 17.7308C7.09964 17.959 6.73638 18.1826 6.36847 18.4201C6.36847 18.4201 19.4343 40.7164 42.4478 53.6332C42.4478 53.6332 42.7179 53.214 43.1743 52.4317L43.1697 52.427Z"
            fill="#FF9800" />
        <g style="mix-blend-mode:multiply" opacity="0.5">
            <path
                d="M11.2111 25.2097C10.7594 25.3075 10.2657 25.41 9.74415 25.4938C8.16094 23.3424 6.99217 21.5962 6.26111 20.4739C6.53589 20.0781 6.81533 19.7055 7.08545 19.3516C7.90032 20.6228 9.28329 22.6671 11.2064 25.205L11.2111 25.2097Z"
                fill="#9185E7" />
        </g>
        <g style="mix-blend-mode:multiply" opacity="0.5">
            <path
                d="M25.2179 40.6324C24.8034 40.8327 24.3424 41.033 23.8301 41.2565C22.1165 39.6826 20.5332 38.0994 19.0431 36.5441C19.2806 36.0551 19.4856 35.5894 19.6812 35.1982C21.3715 36.991 23.2249 38.8164 25.2225 40.6371L25.2179 40.6324Z"
                fill="#9185E7" />
        </g>
        <g style="mix-blend-mode:multiply" opacity="0.5">
            <path
                d="M41.3023 52.5718C40.925 52.8466 40.5059 53.1726 40.0728 53.4846C38.1961 52.3717 36.3847 51.2123 34.6431 50.0016C34.7549 49.4614 34.848 48.9491 34.9552 48.5067C36.9715 49.9363 39.0903 51.3006 41.3023 52.5718Z"
                fill="#9185E7" />
        </g>
        <path
            d="M55.326 16.7825C49.8544 12.9037 45.4446 7.73017 42.9115 4.42394C47.14 3.71583 50.5861 3.41758 52.8494 3.30567C54.5398 3.20777 55.9508 4.55352 55.9693 6.24863C56.0063 9.87168 55.7732 13.3923 55.3306 16.7872L55.326 16.7825Z"
            fill="#FF6047" />
        <g style="mix-blend-mode:overlay" opacity="0.25">
            <path
                d="M21.2458 37.1351C15.5974 31.4122 11.4671 25.9779 9.01779 22.4667C9.00848 22.4574 9.02714 21.9824 9.02714 21.9824C19.8784 10.265 48.281 4.9777 54.8054 3.90156C54.9218 3.99934 55.0522 4.1111 55.15 4.22752C41.0578 11.9216 26.3502 30.3544 21.2412 37.1305L21.2458 37.1351Z"
                fill="white" />
        </g>
        <path style="mix-blend-mode:multiply"
            d="M42.4478 53.6335C40.3849 52.474 38.3872 51.2215 36.4873 49.9363C30.5826 45.9597 25.4743 41.4661 21.2461 37.1355C20.6081 36.4975 20.0074 35.8596 19.4067 35.2402C19.444 35.2402 19.4859 35.2635 19.5138 35.2728C49.1775 45.3485 54.3767 11.6789 55.1502 4.22785C55.6624 4.7587 55.9604 5.46653 55.965 6.24423C56.0021 9.86728 55.769 13.3879 55.3264 16.7828C54.7347 21.4071 53.7704 25.7986 52.6293 29.8082C48.6421 43.9654 42.4432 53.6288 42.4432 53.6288L42.4478 53.6335Z"
            fill="#D8EDDD" />
        <g style="mix-blend-mode:multiply" opacity="0.5">
            <path
                d="M25.1109 36.2598C30.2004 41.3493 38.4527 41.3488 43.5429 36.2586C48.633 31.1685 48.6335 22.9162 43.544 17.8267C38.4545 12.7372 30.2022 12.7377 25.1121 17.8279C20.0219 22.918 20.0214 31.1703 25.1109 36.2598Z"
                fill="#00B26B" />
        </g>
        <path
            d="M33.809 37.6231C40.9832 38.2087 47.2745 32.8676 47.8609 25.6933C48.4474 18.519 43.1071 12.2284 35.9329 11.6428C28.7587 11.0572 22.4674 16.3984 21.8809 23.5727C21.2944 30.7469 26.6348 37.0375 33.809 37.6231Z"
            fill="#00B26B" />
        <path
            d="M26.1216 33.3866C30.954 38.219 38.7892 38.2185 43.6222 33.3855C48.4551 28.5526 48.4556 20.7173 43.6233 15.885C38.7909 11.0526 30.9557 11.0531 26.1227 15.8861C21.2898 20.719 21.2893 28.5543 26.1216 33.3866Z"
            fill="#308060" />
        <path
            d="M34.8681 33.7095C39.8802 33.7092 43.9436 29.6458 43.9439 24.6337C43.9442 19.6216 39.8813 15.5587 34.8692 15.559C29.8571 15.5593 25.7937 19.6227 25.7934 24.6348C25.7931 29.647 29.8559 33.7098 34.8681 33.7095Z"
            fill="url(#paint1_linear_1339_33871)" />
        <path
            d="M34.8681 33.7095C39.8802 33.7092 43.9436 29.6458 43.9439 24.6337C43.9442 19.6216 39.8813 15.5587 34.8692 15.559C29.8571 15.5593 25.7937 19.6227 25.7934 24.6348C25.7931 29.647 29.8559 33.7098 34.8681 33.7095Z"
            fill="url(#paint2_linear_1339_33871)" />
        <path style="mix-blend-mode:multiply"
            d="M37.8675 21.9487C40.6941 24.7752 41.2247 28.985 39.5434 32.38C40.1581 32.0074 40.7542 31.5789 41.2851 31.048C44.8292 27.5039 44.8296 21.7573 41.2859 18.2137C37.7423 14.67 31.9957 14.6703 28.4516 18.2145C27.7344 18.9317 27.1988 19.756 26.7749 20.6175C30.2677 18.5124 34.8547 18.9359 37.8675 21.9487Z"
            fill="url(#paint3_radial_1339_33871)" />
        <path
            d="M28.4411 25.3768C28.5901 26.5875 28.2873 27.626 27.7704 27.6866C27.2488 27.7518 26.7087 26.8205 26.5597 25.6097C26.4108 24.3989 26.7135 23.3604 27.2305 23.2999C27.752 23.2346 28.2922 24.166 28.4411 25.3768Z"
            fill="white" />
        <path
            d="M39.2028 31.8068C38.6532 32.1794 38.0664 32.2819 37.8942 32.0351C37.7265 31.7836 38.0293 31.276 38.5834 30.8988C39.133 30.5262 39.7198 30.4237 39.892 30.6705C40.0597 30.922 39.7569 31.4296 39.2028 31.8068Z"
            fill="white" />
        <g style="mix-blend-mode:overlay" opacity="0.5">
            <path
                d="M36.4822 49.9315C43.598 49.7448 48.9913 39.8067 52.6289 29.8081C48.6417 43.9653 42.4428 53.6287 42.4428 53.6287C40.3799 52.4692 38.3822 51.2167 36.4822 49.9315Z"
                fill="white" />
        </g>
    </g>
    <defs>
        <radialGradient id="paint0_radial_1339_33871" cx="0" cy="0" r="1"
            gradientUnits="userSpaceOnUse"
            gradientTransform="translate(24.7714 35.7241) rotate(45) scale(22.4497 22.4525)">
            <stop stop-color="white" />
            <stop offset="0.31" stop-color="#F2F2F2" />
            <stop offset="1" stop-color="white" stop-opacity="0" />
        </radialGradient>
        <linearGradient id="paint1_linear_1339_33871" x1="28.4494" y1="31.0548" x2="41.2845"
            y2="18.2196" gradientUnits="userSpaceOnUse">
            <stop stop-color="#FF9800" />
            <stop offset="0.538" stop-color="#FFEE2F" />
        </linearGradient>
        <linearGradient id="paint2_linear_1339_33871" x1="28.4494" y1="31.0548" x2="41.2845"
            y2="18.2196" gradientUnits="userSpaceOnUse">
            <stop stop-color="#FFED66" stop-opacity="0.8" />
            <stop offset="0.428" stop-color="white" stop-opacity="0" />
        </linearGradient>
        <radialGradient id="paint3_radial_1339_33871" cx="0" cy="0" r="1"
            gradientUnits="userSpaceOnUse"
            gradientTransform="translate(28.7233 31.3257) rotate(-46.2051) scale(18.1588 12.3132)">
            <stop offset="0.393" stop-color="white" />
            <stop offset="0.883" stop-color="#FF9800" />
            <stop offset="0.99" stop-color="#F26722" />
        </radialGradient>
        <clipPath id="clip0_1339_33871">
            <rect width="54" height="54" fill="white" transform="translate(3.5 3)" />
        </clipPath>
    </defs>
</svg>
    