<svg width="60" height="60" viewBox="0 0 60 60" fill="none" xmlns="http://www.w3.org/2000/svg">
<g clip-path="url(#clip0_1307_1552)">
<path d="M50.3848 9.61701C49.7275 8.95174 48.9098 8.46724 48.0105 8.21032C47.1113 7.9534 46.161 7.93274 45.2515 8.15034L15.9181 14.3287C14.2289 14.5603 12.6378 15.259 11.3242 16.3461C10.0105 17.4331 9.02649 18.8654 8.48283 20.4815C7.93918 22.0976 7.85752 23.8333 8.24706 25.4933C8.6366 27.1533 9.48186 28.6716 10.6876 29.8772L13.8373 33.025C14.0078 33.1954 14.143 33.3978 14.2351 33.6205C14.3273 33.8432 14.3747 34.082 14.3745 34.323V40.131C14.3785 40.9476 14.5665 41.7528 14.9245 42.4868L14.9098 42.4997L14.9575 42.5473C15.4947 43.6274 16.372 44.5009 17.4545 45.0333L17.5021 45.081L17.515 45.0663C18.249 45.4243 19.0542 45.6123 19.8708 45.6163H25.6788C26.1647 45.616 26.6309 45.8085 26.975 46.1517L30.1228 49.2995C30.9671 50.1531 31.972 50.8313 33.0796 51.2947C34.1871 51.7582 35.3755 51.9979 36.5761 52C37.5767 51.9988 38.5704 51.8353 39.5186 51.516C41.12 50.9902 42.5425 50.0274 43.6257 48.7361C44.709 47.4449 45.4099 45.8767 45.6493 44.2083L51.8368 14.8108C52.0657 13.8935 52.0522 12.9324 51.7977 12.0219C51.5431 11.1114 51.0562 10.2826 50.3848 9.61701ZM16.4333 30.4363L13.2818 27.2885C12.548 26.5723 12.0336 25.6617 11.7992 24.6635C11.5647 23.6652 11.6199 22.6208 11.9581 21.6528C12.2861 20.6598 12.8924 19.7818 13.7049 19.1233C14.5175 18.4649 15.502 18.0536 16.5415 17.9385L45.5833 11.8243L18.0375 39.3738V34.323C18.0403 33.6013 17.8999 32.8862 17.6246 32.2191C17.3492 31.5519 16.9443 30.946 16.4333 30.4363ZM42.0468 43.5813C41.906 44.594 41.4858 45.5473 40.8333 46.3343C40.1808 47.1214 39.3219 47.711 38.3529 48.037C37.3839 48.363 36.3432 48.4124 35.3477 48.1798C34.3522 47.9471 33.4412 47.4416 32.717 46.72L29.5636 43.5667C29.0547 43.0549 28.4492 42.6491 27.7824 42.3728C27.1156 42.0965 26.4006 41.9552 25.6788 41.957H20.628L48.1775 14.4167L42.0468 43.5813Z" fill="#D8EDDD"/>
</g>
<defs>
<clipPath id="clip0_1307_1552">
<rect width="44" height="44" fill="white" transform="translate(8 8)"/>
</clipPath>
</defs>
</svg>
