<svg width="20" height="20" viewBox="0 0 20 20" fill="none" xmlns="http://www.w3.org/2000/svg">
    <g clip-path="url(#clip0_1307_39588)">
        <path
            d="M1.20292 5.55733C0.923882 5.63706 0.6705 5.78826 0.467843 5.99598C0.265187 6.2037 0.12028 6.46074 0.0474617 6.74166C-0.0253565 7.02257 -0.0235624 7.31764 0.0526664 7.59765C0.128895 7.87766 0.276917 8.13292 0.482084 8.33816L3.32542 11.1782V16.6665H8.81958L11.6821 19.5248C11.8357 19.6798 12.0185 19.8028 12.2198 19.8869C12.4212 19.971 12.6372 20.0145 12.8554 20.0148C12.9988 20.0145 13.1416 19.9961 13.2804 19.9598C13.5612 19.8891 13.8184 19.7456 14.0262 19.5439C14.2339 19.3422 14.3848 19.0893 14.4638 18.8106L19.9921 0.017334L1.20292 5.55733ZM1.66625 7.15983L15.8563 2.9765L4.99375 13.8215V10.4882L1.66625 7.15983ZM12.8663 18.3465L9.51042 14.9998H6.17708L17.0379 4.14816L12.8663 18.3465Z"
            fill="black" fill-opacity="0.4" />
    </g>
    <defs>
        <clipPath id="clip0_1307_39588">
            <rect width="20" height="20" fill="white" />
        </clipPath>
    </defs>
</svg>
    