<svg width="40" height="40" viewBox="0 0 40 40" fill="none" xmlns="http://www.w3.org/2000/svg">
    <path fill-rule="evenodd" clip-rule="evenodd"
        d="M13.3345 6.26416C13.3345 3.72521 15.3927 1.66699 17.9317 1.66699H22.0706C24.6096 1.66699 26.6679 3.72523 26.6679 6.26418C26.6679 7.23704 27.7211 7.84516 28.5636 7.35868C30.7624 6.08919 33.5741 6.84253 34.8436 9.04136L36.9131 12.6257C38.1826 14.8246 37.4292 17.6362 35.2304 18.9057C34.3877 19.3922 34.3877 20.6083 35.2304 21.0948C37.4292 22.3643 38.1826 25.1758 36.9131 27.3747L34.8436 30.959C33.5741 33.1578 30.7626 33.9113 28.5637 32.6418C27.7211 32.1553 26.6679 32.7633 26.6679 33.7363C26.6679 36.2753 24.6096 38.3337 22.0706 38.3337H17.9317C15.3927 38.3337 13.3345 36.2753 13.3345 33.7363C13.3345 32.7633 12.2812 32.1553 11.4387 32.6418C9.23988 33.9113 6.42828 33.1578 5.1588 30.9592L3.08933 27.3747C1.81985 25.1758 2.57322 22.3643 4.77203 21.0948C5.61462 20.6083 5.61462 19.3922 4.77203 18.9057C2.57322 17.6362 1.81985 14.8246 3.08933 12.6257L5.1588 9.04133C6.42828 6.84251 9.23992 6.08918 11.4387 7.35866C12.2813 7.84512 13.3345 7.23703 13.3345 6.26416ZM17.9317 5.00033C17.2337 5.00033 16.6679 5.56616 16.6679 6.26416C16.6679 9.80309 12.8368 12.0148 9.77203 10.2454C9.16753 9.89639 8.39455 10.1035 8.04555 10.708L5.97608 14.2924C5.62708 14.8969 5.8342 15.6699 6.4387 16.0189C9.50352 17.7883 9.50352 22.212 6.4387 23.9815C5.8342 24.3305 5.62707 25.1035 5.97608 25.708L8.04555 29.2925C8.39455 29.897 9.16752 30.104 9.77202 29.755C12.8369 27.9855 16.6679 30.1975 16.6679 33.7363C16.6679 34.4345 17.2337 35.0003 17.9317 35.0003H22.0706C22.7686 35.0003 23.3346 34.4345 23.3346 33.7363C23.3346 30.1975 27.1654 27.9855 30.2304 29.755C30.8349 30.104 31.6079 29.8968 31.9569 29.2923L34.0262 25.708C34.3752 25.1035 34.1682 24.3305 33.5637 23.9815C30.4989 22.212 30.4989 17.7883 33.5637 16.0189C34.1682 15.6699 34.3752 14.8969 34.0262 14.2924L31.9569 10.708C31.6079 10.1035 30.8349 9.89639 30.2302 10.2454C27.1656 12.0149 23.3346 9.80314 23.3346 6.26418C23.3346 5.56618 22.7686 5.00033 22.0706 5.00033H17.9317ZM20.0012 15.0003C17.2397 15.0003 15.0011 17.2388 15.0011 20.0003C15.0011 22.7618 17.2397 25.0003 20.0012 25.0003C22.7626 25.0003 25.0012 22.7618 25.0012 20.0003C25.0012 17.2388 22.7626 15.0003 20.0012 15.0003ZM11.6678 20.0003C11.6678 15.398 15.3988 11.667 20.0012 11.667C24.6036 11.667 28.3346 15.398 28.3346 20.0003C28.3346 24.6027 24.6036 28.3337 20.0012 28.3337C15.3988 28.3337 11.6678 24.6027 11.6678 20.0003Z"
        fill="black" />
</svg>
    