<svg width="33" height="32" viewBox="0 0 33 32" fill="none" xmlns="http://www.w3.org/2000/svg">
    <g clip-path="url(#clip0_2808_13400)">
    <path d="M26.2776 19.5563C25.2695 19.5572 24.2767 19.8033 23.3849 20.2734C22.4931 20.7436 21.7292 21.4237 21.1589 22.255L12.4802 18.3363C13.0967 16.8478 13.099 15.1759 12.4869 13.6857L21.1536 9.747C21.9987 10.9693 23.254 11.8483 24.6917 12.2244C26.1294 12.6005 27.6543 12.4489 28.9897 11.797C30.3252 11.1451 31.3828 10.0362 31.9707 8.67135C32.5586 7.30651 32.6378 5.77616 32.1941 4.35789C31.7503 2.93963 30.8129 1.72739 29.5519 0.94107C28.2909 0.154749 26.7898 -0.153573 25.321 0.0720314C23.8521 0.297636 22.5128 1.04222 21.5459 2.17073C20.579 3.29924 20.0486 4.73693 20.0509 6.223C20.0566 6.57473 20.0922 6.92534 20.1576 7.271L10.9442 11.4577C10.0594 10.6286 8.95158 10.0761 7.757 9.86801C6.56242 9.65991 5.33307 9.80529 4.21998 10.2863C3.10689 10.7673 2.15854 11.5629 1.49143 12.5755C0.824325 13.588 0.467523 14.7734 0.464859 15.986C0.462195 17.1986 0.813784 18.3855 1.47643 19.401C2.13908 20.4165 3.08393 21.2163 4.1949 21.7022C5.30587 22.188 6.53457 22.3388 7.73005 22.136C8.92553 21.9331 10.0357 21.3855 10.9242 20.5603L20.1616 24.731C20.0974 25.0764 20.0622 25.4265 20.0562 25.7777C20.056 27.0085 20.4207 28.2118 21.1044 29.2353C21.788 30.2588 22.7599 31.0566 23.897 31.5277C25.0341 31.9989 26.2854 32.1222 27.4926 31.8822C28.6998 31.6421 29.8087 31.0494 30.679 30.1791C31.5493 29.3088 32.142 28.1999 32.3821 26.9927C32.6221 25.7854 32.4988 24.5342 32.0276 23.3971C31.5565 22.26 30.7587 21.2881 29.7352 20.6045C28.7117 19.9208 27.5084 19.5561 26.2776 19.5563ZM26.2776 2.667C26.9809 2.66673 27.6686 2.87506 28.2535 3.26564C28.8385 3.65622 29.2945 4.2115 29.5638 4.86125C29.8332 5.511 29.9038 6.22604 29.7667 6.91592C29.6297 7.6058 29.2911 8.23955 28.7938 8.737C28.2966 9.23445 27.663 9.57325 26.9731 9.71057C26.2833 9.84789 25.5682 9.77755 24.9184 9.50844C24.2685 9.23933 23.7131 8.78355 23.3223 8.19874C22.9315 7.61393 22.7229 6.92636 22.7229 6.223C22.7236 5.28033 23.0983 4.37646 23.7647 3.70978C24.4312 3.04309 25.3349 2.66806 26.2776 2.667ZM6.7229 19.5563C6.01954 19.5566 5.33189 19.3483 4.74693 18.9577C4.16198 18.5671 3.70599 18.0118 3.43664 17.3621C3.16729 16.7123 3.09668 15.9973 3.23373 15.3074C3.37079 14.6175 3.70936 13.9838 4.20663 13.4863C4.70389 12.9889 5.3375 12.6501 6.02734 12.5128C6.71717 12.3754 7.43223 12.4458 8.08208 12.7149C8.73194 12.984 9.28739 13.4398 9.67818 14.0246C10.069 14.6094 10.2776 15.297 10.2776 16.0003C10.2765 16.9429 9.90171 17.8465 9.23534 18.5132C8.56898 19.1798 7.66546 19.5549 6.7229 19.5563ZM26.2776 29.3337C25.5743 29.3337 24.8867 29.1251 24.302 28.7344C23.7172 28.3436 23.2614 27.7883 22.9923 27.1385C22.7231 26.4887 22.6527 25.7737 22.7899 25.0839C22.9271 24.3941 23.2658 23.7605 23.7631 23.2632C24.2604 22.7659 24.894 22.4272 25.5838 22.29C26.2736 22.1528 26.9886 22.2232 27.6384 22.4923C28.2882 22.7615 28.8435 23.2173 29.2343 23.8021C29.625 24.3868 29.8336 25.0744 29.8336 25.7777C29.8329 26.7206 29.458 27.6246 28.7913 28.2914C28.1245 28.9581 27.2205 29.333 26.2776 29.3337Z" fill="#00B26B"/>
    </g>
    <defs>
    <clipPath id="clip0_2808_13400">
    <rect width="32" height="32" fill="white" transform="translate(0.5)"/>
    </clipPath>
    </defs>
    </svg>
    