<svg width="40" height="41" viewBox="0 0 40 41" fill="none" xmlns="http://www.w3.org/2000/svg">
    <g clip-path="url(#clip0_2744_4213)">
    <path d="M30.1172 8.23145C29.5262 8.23145 28.9411 8.34784 28.3951 8.57399C27.8492 8.80013 27.3531 9.1316 26.9352 9.54946C26.5173 9.96733 26.1859 10.4634 25.9597 11.0094C25.7336 11.5553 25.6172 12.1405 25.6172 12.7314C25.6172 13.3224 25.7336 13.9076 25.9597 14.4535C26.1859 14.9995 26.5173 15.4956 26.9352 15.9134C27.3531 16.3313 27.8492 16.6628 28.3951 16.8889C28.9411 17.115 29.5262 17.2314 30.1172 17.2314C31.3107 17.2314 32.4553 16.7573 33.2992 15.9134C34.1431 15.0695 34.6172 13.9249 34.6172 12.7314C34.6172 11.538 34.1431 10.3934 33.2992 9.54947C32.4553 8.70555 31.3107 8.23145 30.1172 8.23145ZM9.86719 18.3564C8.67372 18.3564 7.52912 18.8306 6.68521 19.6745C5.84129 20.5184 5.36719 21.663 5.36719 22.8564C5.36719 23.4474 5.48359 24.0326 5.70974 24.5785C5.93588 25.1245 6.26734 25.6206 6.68521 26.0384C7.10307 26.4563 7.59915 26.7878 8.14512 27.0139C8.69108 27.24 9.27624 27.3564 9.86719 27.3564C10.4581 27.3564 11.0433 27.24 11.5893 27.0139C12.1352 26.7878 12.6313 26.4563 13.0492 26.0384C13.467 25.6206 13.7985 25.1245 14.0246 24.5785C14.2508 24.0326 14.3672 23.4474 14.3672 22.8564C14.3672 21.663 13.8931 20.5184 13.0492 19.6745C12.2053 18.8306 11.0607 18.3564 9.86719 18.3564ZM30.1172 28.4814C29.5262 28.4814 28.9411 28.5978 28.3951 28.824C27.8492 29.0501 27.3531 29.3816 26.9352 29.7995C26.5173 30.2173 26.1859 30.7134 25.9597 31.2594C25.7336 31.8053 25.6172 32.3905 25.6172 32.9814C25.6172 33.5724 25.7336 34.1576 25.9597 34.7035C26.1859 35.2495 26.5173 35.7456 26.9352 36.1634C27.3531 36.5813 27.8492 36.9128 28.3951 37.1389C28.9411 37.365 29.5262 37.4814 30.1172 37.4814C31.3107 37.4814 32.4553 37.0073 33.2992 36.1634C34.1431 35.3195 34.6172 34.1749 34.6172 32.9814C34.6172 31.788 34.1431 30.6434 33.2992 29.7995C32.4553 28.9556 31.3107 28.4814 30.1172 28.4814Z" fill="#FF9800"/>
    <path d="M30.1182 7.10645C27.024 7.10645 24.5019 9.64334 24.5019 12.7358C24.5019 13.2397 24.57 13.729 24.6953 14.1948L14.2891 19.3892C13.255 18.0809 11.6526 17.2358 9.86377 17.2358C6.76963 17.2358 4.25195 19.7551 4.25195 22.8477C4.25195 25.9402 6.76963 28.4771 9.86377 28.4771C11.6532 28.4771 13.255 27.6286 14.2891 26.3149L24.6953 31.5225C24.5704 31.9873 24.5019 32.4743 24.5019 32.9771C24.5019 36.0696 27.024 38.6064 30.1182 38.6064C33.2123 38.6064 35.7519 36.0696 35.7519 32.9771C35.7519 29.8845 33.2123 27.3477 30.1182 27.3477C28.3309 27.3477 26.7355 28.1988 25.706 29.5098L15.2998 24.311C15.4268 23.8439 15.4975 23.3531 15.4975 22.8477C15.4975 22.347 15.4286 21.8642 15.3041 21.4019L25.7016 16.2031C26.731 17.5168 28.3287 18.3652 30.1181 18.3652C33.2122 18.3652 35.7519 15.8284 35.7519 12.7358C35.7519 9.64334 33.2123 7.10645 30.1182 7.10645ZM30.1182 9.36524C31.996 9.36524 33.5063 10.859 33.5063 12.7358C33.5063 14.6127 31.996 16.1065 30.1182 16.1065C28.2403 16.1065 26.7432 14.6127 26.7432 12.7358C26.7432 10.859 28.2403 9.36524 30.1182 9.36524ZM9.86376 19.4771C11.7416 19.4771 13.2388 20.9708 13.2388 22.8477C13.2388 24.7245 11.7416 26.2358 9.86376 26.2358C7.98595 26.2358 6.49315 24.7245 6.49315 22.8477C6.49315 20.9708 7.98595 19.4771 9.86376 19.4771ZM30.1182 29.6065C31.996 29.6065 33.5063 31.1002 33.5063 32.9771C33.5063 34.8539 31.996 36.3477 30.1182 36.3477C28.2403 36.3477 26.7432 34.8539 26.7432 32.9771C26.7432 31.1002 28.2403 29.6065 30.1182 29.6065Z" fill="black"/>
    </g>
    <defs>
    <clipPath id="clip0_2744_4213">
    <rect width="40" height="40" fill="white" transform="translate(0 0.856445)"/>
    </clipPath>
    </defs>
    </svg>
    