<svg width="170" height="163" viewBox="0 0 170 163" fill="none" xmlns="http://www.w3.org/2000/svg">
    <path style="mix-blend-mode:color-dodge"
        d="M34.6026 65.4878C34.6026 65.4878 15.2048 95.5059 42.2762 121.387C73.6183 151.352 102.996 128.192 102.996 128.192L96.5225 72.9842L34.6026 65.4878Z"
        fill="url(#paint0_radial_478_21586)" />
    <path opacity="0.5"
        d="M46.0208 75.0541C46.0208 75.0541 33.9127 92.687 54.2162 111.879C74.1404 130.708 94.3931 117.318 94.3931 117.318L99.6379 68.8585L46.012 75.0625L46.0208 75.0541Z"
        fill="url(#paint1_linear_478_21586)" />
    <path
        d="M72.4831 104.369C72.4831 104.369 71.3976 104.901 69.7827 105.635C68.9973 105.998 68.1237 106.361 67.153 106.766C62.8907 108.495 57.3225 110.276 55.7077 108.546C54.3312 107.045 56.2641 102.059 58.0821 98.2284C58.5322 97.3426 58.9206 96.4989 59.2912 95.7902C59.9973 94.4403 60.5268 93.546 60.5268 93.546L72.4919 104.378L72.4831 104.369Z"
        fill="#FF6047" />
    <path
        d="M103.226 124.919C103.226 124.919 102.017 125.94 100.261 127.247C99.5458 127.745 98.7516 128.336 97.9309 128.901C94.2774 131.398 89.7592 133.93 87.9238 132.664C86.2914 131.559 86.8477 126.641 87.6421 122.591C87.854 121.612 88.0305 120.684 88.2335 119.883C88.6484 118.17 88.9573 117.015 88.9573 117.015L103.217 124.91L103.226 124.919Z"
        fill="#FF6047" />
    <path
        d="M46.9208 76.8258C46.9208 76.8258 45.3765 77.2393 43.2322 77.6866C42.3762 77.8638 41.4408 78.0494 40.4525 78.2013C36.3668 78.9018 31.6545 79.307 30.5516 77.8307C29.3339 76.211 31.4697 72.4313 33.8525 69.1072C34.3731 68.3901 34.9026 67.7152 35.4145 67.074C37.1442 64.8466 38.6621 63.193 38.6621 63.193L46.9208 76.8258Z"
        fill="#FF6047" />
    <path
        d="M102.422 129.179C86.3713 120.566 72.8708 109.667 62.247 99.291C61.0381 98.1352 59.8998 96.9795 58.7616 95.8575C49.8496 86.7636 43.1966 78.3781 39.076 72.7175C35.776 68.1789 34.0642 65.395 34.0642 65.395C59.3205 49.6848 85.1586 42.9509 103.293 40.0393C111.305 38.7565 117.835 38.2162 122.124 38.0134C123.527 37.9205 124.824 38.3507 125.839 39.1015C126.06 39.2787 126.28 39.4558 126.474 39.6751C127.463 40.6537 128.027 41.936 128.036 43.3449C128.106 49.9085 127.665 56.2865 126.826 62.4367C121.776 100.317 102.413 129.187 102.413 129.187L102.422 129.179Z"
        fill="url(#paint2_linear_478_21586)" />
    <path
        d="M103.79 126.994C63.9234 105.534 39.8706 69.9335 36.1383 64.1379C35.4411 64.5513 34.7528 64.9563 34.0557 65.3866C34.0557 65.3866 58.8141 105.779 102.422 129.179C102.422 129.179 102.934 128.42 103.799 127.002L103.79 126.994Z"
        fill="#FF9800" />
    <g style="mix-blend-mode:multiply" opacity="0.5">
        <path
            d="M43.232 77.6865C42.376 77.8637 41.4406 78.0493 40.4523 78.2012C37.4523 74.3038 35.2375 71.1402 33.8523 69.1071C34.3729 68.39 34.9025 67.7151 35.4143 67.0739C36.9584 69.3769 39.579 73.0804 43.2232 77.678L43.232 77.6865Z"
            fill="#9185E7" />
    </g>
    <g style="mix-blend-mode:multiply" opacity="0.5">
        <path
            d="M69.7738 105.626C68.9884 105.989 68.1148 106.352 67.1441 106.757C63.8969 103.906 60.8968 101.037 58.0732 98.2199C58.5233 97.334 58.9117 96.4903 59.2823 95.7816C62.4854 99.0295 65.9972 102.336 69.7826 105.635L69.7738 105.626Z"
            fill="#9185E7" />
    </g>
    <g style="mix-blend-mode:multiply" opacity="0.5">
        <path
            d="M100.252 127.256C99.5372 127.754 98.7429 128.344 97.9222 128.909C94.3661 126.893 90.9336 124.793 87.6335 122.6C87.8453 121.621 88.0218 120.693 88.2249 119.891C92.0456 122.481 96.0605 124.953 100.252 127.256Z"
            fill="#9185E7" />
    </g>
    <path
        d="M126.826 62.4199C116.458 55.393 108.102 46.0206 103.302 40.031C111.314 38.7481 117.844 38.2078 122.133 38.0051C125.336 37.8277 128.01 40.2657 128.045 43.3366C128.115 49.9001 127.673 56.2781 126.835 62.4284L126.826 62.4199Z"
        fill="#FF9800" />
    <g style="mix-blend-mode:overlay" opacity="0.25">
        <path
            d="M62.2469 99.291C51.5437 88.9233 43.7171 79.0784 39.076 72.7176C39.0583 72.7007 39.0937 71.8402 39.0937 71.8402C59.6558 50.6128 113.476 41.0343 125.839 39.0847C126.06 39.2619 126.307 39.4643 126.492 39.6752C99.7887 53.6138 71.9192 87.007 62.2381 99.2826L62.2469 99.291Z"
            fill="white" />
    </g>
    <path style="mix-blend-mode:multiply"
        d="M102.422 129.179C98.5134 127.079 94.7279 124.81 91.1277 122.481C79.9389 115.277 70.2592 107.137 62.2472 99.2912C61.0383 98.1355 59.9001 96.9798 58.7618 95.8578C58.8324 95.8578 58.9118 95.8999 58.9647 95.9168C115.175 114.17 125.027 53.1738 126.492 39.6754C127.463 40.6371 128.028 41.9194 128.036 43.3283C128.106 49.8918 127.665 56.2698 126.826 62.42C125.705 70.7975 123.878 78.7532 121.715 86.0171C114.16 111.664 102.414 129.171 102.414 129.171L102.422 129.179Z"
        fill="#D8EDDD" />
    <g style="mix-blend-mode:multiply" opacity="0.5">
        <path
            d="M69.5712 97.7045C79.2154 106.925 94.8526 106.924 104.498 97.7025C114.143 88.4811 114.144 73.5312 104.5 64.311C94.856 55.0907 79.2187 55.0916 69.5734 64.313C59.928 73.5344 59.9271 88.4843 69.5712 97.7045Z"
            fill="#00B26B" />
    </g>
    <path
        d="M86.0529 100.174C99.6473 101.235 111.569 91.5591 112.68 78.5621C113.791 65.5652 103.672 54.169 90.0775 53.1081C76.4831 52.0473 64.5617 61.7234 63.4504 74.7203C62.339 87.7173 72.4585 99.1135 86.0529 100.174Z"
        fill="#00B26B" />
    <path
        d="M71.4865 92.4991C80.6433 101.253 95.4904 101.253 104.648 92.4971C113.806 83.7417 113.807 69.5473 104.65 60.7929C95.4936 52.0386 80.6466 52.0395 71.4886 60.7949C62.3306 69.5503 62.3297 83.7448 71.4865 92.4991Z"
        fill="#308060" />
    <path
        d="M88.0603 93.0844C97.5578 93.0838 105.258 85.7225 105.258 76.6425C105.259 67.5624 97.56 60.2021 88.0625 60.2027C78.565 60.2032 70.8652 67.5645 70.8647 76.6445C70.8641 85.7246 78.5628 93.0849 88.0603 93.0844Z"
        fill="url(#paint3_linear_478_21586)" />
    <g filter="url(#filter0_i_478_21586)">
        <path
            d="M95.74 85.8765C98.9346 82.2393 98.6638 77.5155 98.1291 75.6083C98.6382 73.9104 99.2746 69.8795 97.7481 67.3388C95.8399 64.1628 90.8763 63.4719 88.0541 65.2304C82.0646 64.1017 77.4334 68.3709 75.8665 70.6466C68.0931 77.4578 73.3224 88.8084 80.7802 91.5008C88.238 94.1933 94.4331 90.4114 95.74 85.8765Z"
            fill="url(#paint4_linear_478_21586)" />
    </g>
    <g filter="url(#filter1_i_478_21586)">
        <path
            d="M95.74 85.8765C98.9346 82.2393 98.6638 77.5155 98.1291 75.6083C98.6382 73.9104 99.2746 69.8796 97.7481 67.3388C95.8399 64.1628 90.8763 63.4719 88.0541 65.2304C82.0646 64.1017 77.4334 68.3709 75.8665 70.6466C73.4788 72.7387 72.3179 75.2592 72.0715 77.8254C72.511 77.1795 74.1246 75.7536 77.0625 75.2171C80.0004 74.6807 83.6524 76.4181 85.1112 77.3538C87.1904 75.2387 90.2179 74.3559 91.0447 74.9139C91.8715 75.4719 91.9221 77.5055 91.0494 79.773C95.2028 82.2249 95.6634 85.5199 95.3746 86.8609C95.5218 86.5383 95.6441 86.2094 95.74 85.8765Z"
            fill="#51A63B" />
    </g>
    <g filter="url(#filter2_i_478_21586)">
        <ellipse cx="3.89144" cy="4.87205" rx="3.89144" ry="4.87205"
            transform="matrix(-0.940267 -0.383395 -0.401023 0.898937 97.8503 77.4393)" fill="white" />
    </g>
    <circle cx="2.38651" cy="2.38651" r="2.38651"
        transform="matrix(-1.0194 -0.0725143 -0.0758483 0.974587 94.5618 80.009)" fill="#C57125" />
    <circle cx="1.31356" cy="1.31356" r="1.31356"
        transform="matrix(-1.0194 -0.0725139 -0.0758489 0.974587 93.1885 81.89)" fill="black" />
    <circle cx="0.576647" cy="0.576647" r="0.576647"
        transform="matrix(-1.0194 -0.0725143 -0.0758483 0.974587 92.6338 80.9153)" fill="white" />
    <g filter="url(#filter3_i_478_21586)">
        <ellipse cx="4.12802" cy="4.87205" rx="4.12802" ry="4.87205"
            transform="matrix(-0.97478 -0.294245 -0.307773 0.931933 90.9502 72.909)" fill="white" />
    </g>
    <circle cx="2.38651" cy="2.38651" r="2.38651"
        transform="matrix(-1.0194 -0.0725144 -0.0758483 0.974587 88.1377 75.7935)" fill="#C57125" />
    <circle cx="1.31114" cy="1.31114" r="1.31114"
        transform="matrix(-1.0194 -0.0725144 -0.0758483 0.974587 86.9231 77.8149)" fill="black" />
    <ellipse cx="0.668706" cy="0.668706" rx="0.668706" ry="0.668706"
        transform="matrix(-1.0194 -0.0725144 -0.0758483 0.974587 85.8591 76.8067)" fill="white" />
    <g filter="url(#filter4_i_478_21586)">
        <path
            d="M82.0552 79.7007C82.9466 79.5749 85.295 79.5216 87.5583 80.3144C90.2128 81.309 92.4852 84.9715 91.4969 88.7077C89.9379 87.5299 88.9893 87.1957 88.7099 87.1758C88.0746 87.1383 86.4929 87.9145 85.2487 91.3196C80.4016 90.6136 79.9402 85.2183 80.0348 84.0025C79.4575 83.2046 78.4266 81.8876 79.3071 80.2832C80.0115 78.9996 81.4327 79.36 82.0552 79.7007Z"
            fill="#F1BD18" />
    </g>
    <path
        d="M85.2115 91.3899C86.0523 88.9095 87.779 87.0989 88.8208 87.173C83.3065 85.3064 82.5144 85.3891 81.5318 82.7521C81.459 85.8948 83.1525 89.519 85.2115 91.3899Z"
        fill="#BF800F" />
    <g filter="url(#filter5_i_478_21586)">
        <path
            d="M82.2737 84.2557C83.0758 85.4462 85.5982 86.0908 87.4652 86.7122C86.8438 86.8482 85.4118 87.7856 84.655 90.4471C82.5936 89.3424 81.1931 86.3686 82.2737 84.2557Z"
            fill="#7B2C25" />
    </g>
    <path
        d="M101.314 72.8311C101.181 67.2817 96.845 65.945 94.5881 66.1898C94.6946 66.9406 95.4061 70.046 95.3951 71.6396C95.3814 73.6317 98.4226 75.9359 99.2532 75.2518C99.9177 74.7046 99.3896 72.9425 99.0426 72.1298C99.732 72.5544 100.506 72.8438 101.314 72.8311Z"
        fill="url(#paint5_linear_478_21586)" />
    <path
        d="M101.423 73.2415C101.289 67.692 96.7422 66.7943 94.4854 67.0391C94.5919 67.7899 94.802 69.6898 94.7911 71.2834C94.7774 73.2755 98.5311 76.3463 99.3617 75.6622C100.026 75.1149 99.4981 73.3528 99.151 72.5402C99.8404 72.9647 100.614 73.2542 101.423 73.2415Z"
        fill="url(#paint6_radial_478_21586)" />
    <path fill-rule="evenodd" clip-rule="evenodd"
        d="M86.1909 70.4181C86.7096 70.4414 87.3298 70.5515 88.0188 70.7784C88.7923 71.033 89.3654 71.5704 89.7475 72.0998C90.1245 72.6222 90.3544 73.1913 90.3967 73.5765C90.4227 73.813 90.2431 74.0249 89.9957 74.0497C89.7483 74.0745 89.5267 73.9029 89.5007 73.6664C89.4785 73.4635 89.3241 73.0298 89.0059 72.5889C88.6928 72.1551 88.2599 71.7686 87.7255 71.5927C87.1067 71.3891 86.5711 71.2974 86.1486 71.2784C85.7148 71.2589 85.4362 71.3173 85.306 71.3772C85.0819 71.4803 84.8127 71.3902 84.7048 71.1758C84.5969 70.9615 84.6912 70.7042 84.9154 70.601C85.2352 70.4539 85.6834 70.3952 86.1909 70.4181ZM92.6623 74.9368C92.6731 74.6992 92.8834 74.515 93.1319 74.5253C93.8101 74.5535 95.0033 74.8751 95.8385 75.5847C96.2585 75.9416 96.618 76.4163 96.8785 76.8623C97.1327 77.2976 97.3256 77.762 97.3605 78.1069C97.3845 78.3436 97.2032 78.5541 96.9555 78.577C96.7079 78.5999 96.4878 78.4266 96.4638 78.1899C96.4468 78.022 96.3252 77.6817 96.0919 77.2822C95.8649 76.8936 95.5639 76.5037 95.24 76.2285C94.5872 75.6738 93.6041 75.4071 93.0927 75.3858C92.8442 75.3755 92.6515 75.1744 92.6623 74.9368Z"
        fill="black" fill-opacity="0.2" />
    <path
        d="M83.5033 89.572C85.0705 88.8754 85.2736 86.8797 85.1793 85.9689C84.82 85.8205 84.5048 85.7428 84.1136 85.5487C84.4506 87.036 84.0042 87.9579 83.9294 87.9161C83.8548 87.8745 84.0288 86.9852 83.7801 85.4013C83.2282 85.0585 82.4449 84.476 82.2746 84.2482C81.1959 86.4747 82.6925 88.7703 83.5033 89.572Z"
        fill="#A9524C" />
    <path
        d="M88.0603 93.0844C97.5578 93.0838 105.258 85.7225 105.258 76.6425C105.259 67.5624 97.56 60.2021 88.0625 60.2026C78.565 60.2032 70.8652 67.5645 70.8646 76.6445C70.8641 85.7246 78.5628 93.0849 88.0603 93.0844Z"
        fill="url(#paint7_linear_478_21586)" />
    <path style="mix-blend-mode:multiply"
        d="M93.7427 71.7779C99.0988 76.8985 100.104 84.525 96.9182 90.6753C98.0831 90.0003 99.2127 89.2241 100.219 88.2623C106.934 81.8418 106.935 71.4312 100.22 65.0114C93.5053 58.5917 82.6161 58.5923 75.9003 65.0129C74.5413 66.3122 73.5264 67.8055 72.7233 69.3663C79.3418 65.5526 88.0337 66.3198 93.7427 71.7779Z"
        fill="url(#paint8_radial_478_21586)" />
    <path
        d="M75.8819 77.9882C76.1641 80.1816 75.5904 82.063 74.6109 82.1727C73.6226 82.2909 72.5991 80.6037 72.3168 78.4102C72.0346 76.2167 72.6083 74.3354 73.5878 74.2256C74.5761 74.1075 75.5996 75.7947 75.8819 77.9882Z"
        fill="white" />
    <path
        d="M96.2743 89.6377C95.233 90.3127 94.1211 90.4983 93.7947 90.0512C93.477 89.5957 94.0506 88.6761 95.1008 87.9926C96.1421 87.3177 97.254 87.132 97.5805 87.5791C97.8981 88.0347 97.3245 88.9543 96.2743 89.6377Z"
        fill="white" />
    <g style="mix-blend-mode:overlay" opacity="0.5">
        <path
            d="M91.1187 122.473C104.602 122.134 114.822 104.13 121.715 86.017C114.16 111.664 102.413 129.171 102.413 129.171C98.5044 127.07 94.7189 124.801 91.1187 122.473Z"
            fill="white" />
    </g>
    <defs>
        <filter id="filter0_i_478_21586" x="72.021" y="64.2852" width="26.6838" height="28.1156"
            filterUnits="userSpaceOnUse" color-interpolation-filters="sRGB">
            <feFlood flood-opacity="0" result="BackgroundImageFix" />
            <feBlend mode="normal" in="SourceGraphic" in2="BackgroundImageFix" result="shape" />
            <feColorMatrix in="SourceAlpha" type="matrix"
                values="0 0 0 0 0 0 0 0 0 0 0 0 0 0 0 0 0 0 127 0" result="hardAlpha" />
            <feOffset dy="8" />
            <feComposite in2="hardAlpha" operator="arithmetic" k2="-1" k3="1" />
            <feColorMatrix type="matrix" values="0 0 0 0 0 0 0 0 0 0 0 0 0 0 0 0 0 0 0.2 0" />
            <feBlend mode="normal" in2="shape" result="effect1_innerShadow_478_21586" />
        </filter>
        <filter id="filter1_i_478_21586" x="72.0715" y="64.2852" width="26.6333" height="22.5756"
            filterUnits="userSpaceOnUse" color-interpolation-filters="sRGB">
            <feFlood flood-opacity="0" result="BackgroundImageFix" />
            <feBlend mode="normal" in="SourceGraphic" in2="BackgroundImageFix" result="shape" />
            <feColorMatrix in="SourceAlpha" type="matrix"
                values="0 0 0 0 0 0 0 0 0 0 0 0 0 0 0 0 0 0 127 0" result="hardAlpha" />
            <feOffset dy="8" />
            <feComposite in2="hardAlpha" operator="arithmetic" k2="-1" k3="1" />
            <feColorMatrix type="matrix" values="0 0 0 0 0 0 0 0 0 0 0 0 0 0 0 0 0 0 0.2 0" />
            <feBlend mode="normal" in2="shape" result="effect1_innerShadow_478_21586" />
        </filter>
        <filter id="filter2_i_478_21586" x="88.0889" y="75.6989" width="8.29736" height="9.2561"
            filterUnits="userSpaceOnUse" color-interpolation-filters="sRGB">
            <feFlood flood-opacity="0" result="BackgroundImageFix" />
            <feBlend mode="normal" in="SourceGraphic" in2="BackgroundImageFix" result="shape" />
            <feColorMatrix in="SourceAlpha" type="matrix"
                values="0 0 0 0 0 0 0 0 0 0 0 0 0 0 0 0 0 0 127 0" result="hardAlpha" />
            <feOffset dx="4" dy="4" />
            <feComposite in2="hardAlpha" operator="arithmetic" k2="-1" k3="1" />
            <feColorMatrix type="matrix" values="0 0 0 0 0 0 0 0 0 0 0 0 0 0 0 0 0 0 0.25 0" />
            <feBlend mode="normal" in2="shape" result="effect1_innerShadow_478_21586" />
        </filter>
        <filter id="filter3_i_478_21586" x="81.1313" y="71.5335" width="8.59082" height="9.40253"
            filterUnits="userSpaceOnUse" color-interpolation-filters="sRGB">
            <feFlood flood-opacity="0" result="BackgroundImageFix" />
            <feBlend mode="normal" in="SourceGraphic" in2="BackgroundImageFix" result="shape" />
            <feColorMatrix in="SourceAlpha" type="matrix"
                values="0 0 0 0 0 0 0 0 0 0 0 0 0 0 0 0 0 0 127 0" result="hardAlpha" />
            <feOffset dx="4" dy="4" />
            <feComposite in2="hardAlpha" operator="arithmetic" k2="-1" k3="1" />
            <feColorMatrix type="matrix" values="0 0 0 0 0 0 0 0 0 0 0 0 0 0 0 0 0 0 0.25 0" />
            <feBlend mode="normal" in2="shape" result="effect1_innerShadow_478_21586" />
        </filter>
        <filter id="filter4_i_478_21586" x="78.9651" y="79.3799" width="12.7676" height="11.9397"
            filterUnits="userSpaceOnUse" color-interpolation-filters="sRGB">
            <feFlood flood-opacity="0" result="BackgroundImageFix" />
            <feBlend mode="normal" in="SourceGraphic" in2="BackgroundImageFix" result="shape" />
            <feColorMatrix in="SourceAlpha" type="matrix"
                values="0 0 0 0 0 0 0 0 0 0 0 0 0 0 0 0 0 0 127 0" result="hardAlpha" />
            <feOffset dy="6" />
            <feComposite in2="hardAlpha" operator="arithmetic" k2="-1" k3="1" />
            <feColorMatrix type="matrix" values="0 0 0 0 0 0 0 0 0 0 0 0 0 0 0 0 0 0 0.2 0" />
            <feBlend mode="normal" in2="shape" result="effect1_innerShadow_478_21586" />
        </filter>
        <filter id="filter5_i_478_21586" x="81.8992" y="84.2557" width="5.56616" height="6.19141"
            filterUnits="userSpaceOnUse" color-interpolation-filters="sRGB">
            <feFlood flood-opacity="0" result="BackgroundImageFix" />
            <feBlend mode="normal" in="SourceGraphic" in2="BackgroundImageFix" result="shape" />
            <feColorMatrix in="SourceAlpha" type="matrix"
                values="0 0 0 0 0 0 0 0 0 0 0 0 0 0 0 0 0 0 127 0" result="hardAlpha" />
            <feOffset dx="8" dy="-2" />
            <feComposite in2="hardAlpha" operator="arithmetic" k2="-1" k3="1" />
            <feColorMatrix type="matrix" values="0 0 0 0 0 0 0 0 0 0 0 0 0 0 0 0 0 0 0.2 0" />
            <feBlend mode="normal" in2="shape" result="effect1_innerShadow_478_21586" />
        </filter>
        <radialGradient id="paint0_radial_478_21586" cx="0" cy="0" r="1"
            gradientUnits="userSpaceOnUse"
            gradientTransform="translate(68.9273 96.7344) rotate(43.7127) scale(41.6155 36.2365)">
            <stop stop-color="white" />
            <stop offset="0.31" stop-color="#F2F2F2" />
            <stop offset="1" stop-color="white" stop-opacity="0" />
        </radialGradient>
        <linearGradient id="paint1_linear_478_21586" x1="54.0133" y1="111.668" x2="97.1923"
            y2="66.5036" gradientUnits="userSpaceOnUse">
            <stop stop-color="#85FFCF" />
            <stop offset="0.423" stop-color="#D2FD51" />
            <stop offset="1" stop-color="#F9C448" />
        </linearGradient>
        <linearGradient id="paint2_linear_478_21586" x1="62.0656" y1="38.6075" x2="126.577"
            y2="106.085" gradientUnits="userSpaceOnUse">
            <stop stop-color="white" />
            <stop offset="0.763" stop-color="#D8EDDD" />
            <stop offset="1" stop-color="#00B26B" />
        </linearGradient>
        <linearGradient id="paint3_linear_478_21586" x1="75.8975" y1="88.275" x2="99.1264"
            y2="63.9781" gradientUnits="userSpaceOnUse">
            <stop stop-color="#FF9800" />
            <stop offset="0.538" stop-color="#FFEE2F" />
        </linearGradient>
        <linearGradient id="paint4_linear_478_21586" x1="97.6098" y1="64.6866" x2="81.786"
            y2="92.0598" gradientUnits="userSpaceOnUse">
            <stop stop-color="#206D33" />
            <stop offset="0.47991" stop-color="#EFEFEF" />
        </linearGradient>
        <linearGradient id="paint5_linear_478_21586" x1="87.4571" y1="60.2019" x2="100.718"
            y2="73.4462" gradientUnits="userSpaceOnUse">
            <stop offset="1" stop-color="#298B41" />
        </linearGradient>
        <radialGradient id="paint6_radial_478_21586" cx="0" cy="0" r="1"
            gradientUnits="userSpaceOnUse"
            gradientTransform="translate(94.4934 66.9366) rotate(42.3925) scale(9.38041 7.80308)">
            <stop offset="0.409263" stop-color="#51A63B" />
            <stop offset="1" stop-color="#298B41" />
        </radialGradient>
        <linearGradient id="paint7_linear_478_21586" x1="75.8975" y1="88.275" x2="99.1264"
            y2="63.9781" gradientUnits="userSpaceOnUse">
            <stop stop-color="#FFED66" stop-opacity="0.8" />
            <stop offset="0.428" stop-color="white" stop-opacity="0" />
        </linearGradient>
        <radialGradient id="paint8_radial_478_21586" cx="0" cy="0" r="1"
            gradientUnits="userSpaceOnUse"
            gradientTransform="translate(76.4152 88.7654) rotate(-44.9177) scale(33.6296 22.8238)">
            <stop offset="0.393" stop-color="white" />
            <stop offset="0.883" stop-color="#FF9800" />
            <stop offset="0.99" stop-color="#F26722" />
        </radialGradient>
    </defs>
</svg>
    