<svg width="24" height="24" viewBox="0 0 24 24" fill="none" xmlns="http://www.w3.org/2000/svg">
    <g clip-path="url(#clip0_1307_15188)">
        <g filter="url(#filter0_i_1307_15188)">
            <path
                d="M17.0428 7.25733L22.6687 8.03962C23.9344 8.21564 24.449 9.76663 23.5393 10.6642L19.4963 14.6538C19.1351 15.0102 18.9724 15.5216 19.0613 16.0212L20.0557 21.6136C20.2795 22.8718 18.9634 23.8403 17.8286 23.2526L12.7849 20.6403C12.3343 20.4069 11.7977 20.4102 11.35 20.6491L6.33861 23.3231C5.21112 23.9246 3.88325 22.9723 4.09156 21.7115L5.01739 16.1074C5.10012 15.6067 4.93119 15.0974 4.56561 14.7454L0.47404 10.8056C-0.446536 9.91921 0.0489314 8.36203 1.31244 8.17054L6.92834 7.31934C7.43009 7.24326 7.86228 6.92522 8.08404 6.4688L10.5666 1.35999C11.1252 0.210575 12.7592 0.200591 13.3318 1.34303L15.8768 6.42103C16.1041 6.87473 16.5402 7.18744 17.0428 7.25733Z"
                fill="#FFD92D" />
            <path
                d="M5.43806 10.0864C5.43806 9.20909 5.52548 8.35409 5.65383 7.51254L1.31246 8.17048C0.0488522 8.36201 -0.446475 9.91915 0.474008 10.8056L4.56581 14.7454C4.9313 15.0974 5.10028 15.6067 5.01745 16.1074L4.09167 21.7115C3.88327 22.9723 5.21137 23.9247 6.33872 23.3231L9.83915 21.4553C7.11304 18.446 5.43806 14.4667 5.43806 10.0864Z"
                fill="#FFE571" />
            <path
                d="M23.5395 10.6643C24.449 9.76672 23.9345 8.21567 22.6689 8.0397L17.0429 7.25731C16.5403 7.18742 16.1041 6.87472 15.8769 6.42102L13.3321 1.34296C12.7592 0.20053 11.1252 0.210514 10.5668 1.35993L9.50781 3.53882C13.1196 5.94941 15.5006 10.0591 15.5006 14.7272C15.5006 17.0701 14.8988 19.2714 13.8454 21.1894L17.8287 23.2525C18.9634 23.8403 20.2796 22.8717 20.056 21.6135L19.0613 16.0212C18.9726 15.5216 19.1352 15.0102 19.4963 14.6538L23.5395 10.6643Z"
                fill="#FFA81E" />
        </g>
    </g>
    <defs>
        <filter id="filter0_i_1307_15188" x="0" y="0.491974" width="24" height="23.0161"
            filterUnits="userSpaceOnUse" color-interpolation-filters="sRGB">
            <feFlood flood-opacity="0" result="BackgroundImageFix" />
            <feBlend mode="normal" in="SourceGraphic" in2="BackgroundImageFix" result="shape" />
            <feColorMatrix in="SourceAlpha" type="matrix"
                values="0 0 0 0 0 0 0 0 0 0 0 0 0 0 0 0 0 0 127 0" result="hardAlpha" />
            <feOffset dy="-1.5" />
            <feComposite in2="hardAlpha" operator="arithmetic" k2="-1" k3="1" />
            <feColorMatrix type="matrix" values="0 0 0 0 1 0 0 0 0 0.596078 0 0 0 0 0 0 0 0 1 0" />
            <feBlend mode="normal" in2="shape" result="effect1_innerShadow_1307_15188" />
        </filter>
        <clipPath id="clip0_1307_15188">
            <rect width="24" height="24" fill="white" />
        </clipPath>
    </defs>
</svg>
    