<svg width="40" height="41" viewBox="0 0 40 41" fill="none" xmlns="http://www.w3.org/2000/svg">
    <path d="M31.5731 16.428C30.8621 16.428 30.2874 15.852 30.2874 15.1423C30.2874 9.47101 25.673 4.85658 20.0017 4.85658C14.3304 4.85658 9.71596 9.47101 9.71596 15.1423C9.71596 15.852 9.14125 16.428 8.43025 16.428C7.71925 16.428 7.14453 15.852 7.14453 15.1423C7.14453 8.05287 12.9122 2.28516 20.0017 2.28516C27.0911 2.28516 32.8588 8.05287 32.8588 15.1423C32.8588 15.852 32.2841 16.428 31.5731 16.428ZM32.8588 29.2852V26.7137C32.8588 26.004 32.2841 25.428 31.5731 25.428C30.8621 25.428 30.2874 26.004 30.2874 26.7137V29.2852C30.2874 31.4117 28.5568 33.1423 26.4302 33.1423H23.8588C23.1478 33.1423 22.5731 33.7183 22.5731 34.428C22.5731 35.1377 23.1478 35.7137 23.8588 35.7137H26.4302C29.975 35.7137 32.8588 32.8299 32.8588 29.2852Z" fill="#FF9800"/>
    <path d="M9.71512 13.8564H7.14369C5.72353 13.8564 4.57227 15.0077 4.57227 16.4279V25.4279C4.57227 26.848 5.72353 27.9993 7.14369 27.9993H9.71512C11.1353 27.9993 12.2866 26.848 12.2866 25.4279V16.4279C12.2866 15.0077 11.1353 13.8564 9.71512 13.8564Z" fill="#FF9800"/>
    <path d="M32.8577 13.8564H30.2863C28.8661 13.8564 27.7148 15.0077 27.7148 16.4279V25.4279C27.7148 26.848 28.8661 27.9993 30.2863 27.9993H32.8577C34.2779 27.9993 35.4291 26.848 35.4291 25.4279V16.4279C35.4291 15.0077 34.2779 13.8564 32.8577 13.8564Z" fill="#FF9800"/>
    <path d="M21.286 30.5713H18.7146C16.588 30.5713 14.8574 32.3019 14.8574 34.4284C14.8574 36.555 16.588 38.2856 18.7146 38.2856H21.286C23.4126 38.2856 25.1431 36.555 25.1431 34.4284C25.1431 32.3019 23.4126 30.5713 21.286 30.5713Z" fill="#FF9800"/>
    <path d="M32.858 13.8566H32.7924C32.1444 7.36887 26.6557 2.28516 20.0008 2.28516C13.346 2.28516 7.85598 7.36887 7.20927 13.8566H7.14369C5.72555 13.8566 4.57227 15.0099 4.57227 16.428V25.428C4.57227 26.8462 5.72555 27.9994 7.14369 27.9994H9.71512C11.1333 27.9994 12.2866 26.8462 12.2866 25.428V16.428C12.2866 15.0394 11.1796 13.9132 9.80255 13.8656C10.4351 8.79601 14.7616 4.85658 20.0008 4.85658C25.2401 4.85658 29.5665 8.79601 30.1991 13.8656C28.8234 13.9132 27.7151 15.0407 27.7151 16.428V25.428C27.7151 26.8462 28.8684 27.9994 30.2866 27.9994V29.2852C30.2866 31.4117 28.556 33.1423 26.4294 33.1423H24.9071C24.3748 31.6496 22.9606 30.5709 21.2866 30.5709H18.7151C16.5886 30.5709 14.858 32.3014 14.858 34.428C14.858 36.5546 16.5886 38.2852 18.7151 38.2852H21.2866C22.9606 38.2852 24.3748 37.2064 24.9071 35.7137H26.4294C29.9741 35.7137 32.858 32.8299 32.858 29.2852V27.9994C34.2761 27.9994 35.4294 26.8462 35.4294 25.428V16.428C35.4294 15.0099 34.2761 13.8566 32.858 13.8566ZM7.14369 25.428V16.428H9.71512V25.428H7.14369ZM21.2866 35.7137H18.7151C18.0054 35.7137 17.4294 35.1364 17.4294 34.428C17.4294 33.7196 18.0054 33.1423 18.7151 33.1423H21.2866C21.9963 33.1423 22.5723 33.7196 22.5723 34.428C22.5723 35.1364 21.9963 35.7137 21.2866 35.7137ZM32.858 25.428H30.2866V16.428H32.858V25.428Z" fill="black"/>
    </svg>
    