<svg width="24" height="25" viewBox="0 0 24 25" fill="none" xmlns="http://www.w3.org/2000/svg">
    <g clip-path="url(#clip0_2808_37827)">
        <path fill-rule="evenodd" clip-rule="evenodd"
            d="M17.6301 18.417V21.072C17.6301 22.8866 16.5671 23.1191 15.056 23.1191C14.5626 23.1191 14.0687 23.0959 13.5742 23.0959V22.4441C14.0439 22.4441 14.5496 22.4673 15.056 22.4673C16.1845 22.4673 16.9784 22.3088 16.9784 21.0719V18.417H17.6302L17.6301 18.417Z"
            fill="#252525" />
        <path fill-rule="evenodd" clip-rule="evenodd"
            d="M9.96695 21.3975H12.6708C13.4267 21.3975 14.044 22.0148 14.044 22.7707C14.044 23.5266 13.4267 24.1439 12.6708 24.1439H9.96695C9.21105 24.1439 8.59375 23.5266 8.59375 22.7707C8.59375 22.0148 9.21105 21.3975 9.96695 21.3975Z"
            fill="#F26722" />
        <path fill-rule="evenodd" clip-rule="evenodd"
            d="M9.96695 21.3975H12.1779C12.9338 21.3975 13.5511 22.0148 13.5511 22.7707C13.5511 23.5266 12.9338 24.1439 12.1779 24.1439H9.96695C9.21105 24.1439 8.59375 23.5266 8.59375 22.7707C8.59375 22.0148 9.21105 21.3975 9.96695 21.3975Z"
            fill="#FF9800" />
        <path fill-rule="evenodd" clip-rule="evenodd"
            d="M16.6838 12.283V13.705L18.3468 13.508C18.3468 11.245 18.387 9.66308 16.9666 7.676L8.46316 4.97656C4.37866 6.42608 3.50781 9.6702 3.50781 13.508L4.33933 13.5148L5.17084 12.411C5.17084 9.95234 6.13783 7.89964 8.4355 6.7872L15.9484 9.16625C16.5318 10.2029 16.6838 11.1166 16.6838 12.283Z"
            fill="#252525" />
        <path fill-rule="evenodd" clip-rule="evenodd"
            d="M16.6838 12.2827V13.6463L17.8539 13.5077C17.8539 11.2447 17.8941 9.66283 16.4737 7.67575L8.23558 5.06055C4.34645 6.54873 3.50781 9.74242 3.50781 13.5077L4.22256 13.5136L4.67795 12.4107C4.67795 9.72058 5.767 7.77002 8.24552 6.65012C8.40423 6.56697 15.1687 8.91911 15.9484 9.16605C16.5318 10.2027 16.6838 11.1164 16.6838 12.2828V12.2827Z"
            fill="#6080DD" />
        <path fill-rule="evenodd" clip-rule="evenodd"
            d="M16.9805 13.0225H18.4736C19.2955 13.0225 19.9668 13.6937 19.9668 14.5156V17.2061C19.9668 18.028 19.2955 18.6993 18.4736 18.6993H16.9805V13.0225Z"
            fill="#454575" />
        <path fill-rule="evenodd" clip-rule="evenodd"
            d="M16.9805 13.0225H17.9807C18.8026 13.0225 19.4739 13.6937 19.4739 14.5156V17.2061C19.4739 18.028 18.8026 18.6993 17.9807 18.6993H16.9805V13.0225Z"
            fill="#252525" />
        <path fill-rule="evenodd" clip-rule="evenodd"
            d="M16.5043 12.1104C17.1239 12.1104 17.6297 12.6161 17.6297 13.2358V18.4871C17.6297 19.4796 16.4203 19.9933 15.7092 19.2821C15.5054 19.0783 15.3789 18.7969 15.3789 18.4871V13.2358C15.3789 12.6161 15.8847 12.1104 16.5043 12.1104H16.5043Z"
            fill="#F26722" />
        <path fill-rule="evenodd" clip-rule="evenodd"
            d="M16.2491 19.5852C16.0569 19.5411 15.8702 19.4431 15.7092 19.2821C15.5054 19.0783 15.3789 18.7969 15.3789 18.4871V13.2357C15.3789 12.7007 15.756 12.2507 16.2579 12.1377C16.7597 12.2507 17.1368 12.7008 17.1368 13.2357V18.4871C17.1368 19.0629 16.7298 19.4774 16.2491 19.5852Z"
            fill="#FF9800" />
        <path fill-rule="evenodd" clip-rule="evenodd"
            d="M4.87303 13.3493V18.7003H3.37987C2.55797 18.7003 1.88672 18.029 1.88672 17.2071V14.5166C1.88672 13.6947 2.55802 13.0234 3.37987 13.0234H4.87303V13.3493V13.3493Z"
            fill="#252525" />
        <path fill-rule="evenodd" clip-rule="evenodd"
            d="M5.34803 12.1104C5.96767 12.1104 6.47345 12.6161 6.47345 13.2358V18.4871C6.47345 19.4796 5.26408 19.9933 4.55298 19.2821C4.34917 19.0783 4.22266 18.7969 4.22266 18.4871V13.2358C4.22266 12.6161 4.72839 12.1104 5.34803 12.1104Z"
            fill="#F26722" />
        <path fill-rule="evenodd" clip-rule="evenodd"
            d="M5.09289 19.5852C4.90061 19.5411 4.714 19.4431 4.55298 19.2821C4.34917 19.0783 4.22266 18.7969 4.22266 18.4871V13.2357C4.22266 12.7007 4.59977 12.2507 5.10161 12.1377C5.60345 12.2507 5.98056 12.7008 5.98056 13.2357V18.4871C5.98056 19.0629 5.57355 19.4774 5.09289 19.5852Z"
            fill="#FF9800" />
        <path fill-rule="evenodd" clip-rule="evenodd"
            d="M4.24163 18.7003H3.37988C2.55797 18.7003 1.88672 18.029 1.88672 17.2071V14.5166C1.88672 13.6947 2.55802 13.0234 3.37988 13.0234H4.24158C4.22831 13.0923 4.22133 13.1633 4.22133 13.236V18.4873C4.22133 18.5601 4.22831 18.6313 4.24167 18.7003L4.24163 18.7003Z"
            fill="#454575" />
        <path fill-rule="evenodd" clip-rule="evenodd"
            d="M3.8692 18.7003H3.37987C2.55797 18.7003 1.88672 18.029 1.88672 17.2071V14.5166C1.88672 13.6947 2.55802 13.0234 3.37987 13.0234H3.86916C3.85589 13.0923 3.84891 13.1633 3.84891 13.236V18.4873C3.84891 18.5601 3.85589 18.6313 3.86925 18.7003L3.8692 18.7003Z"
            fill="#252525" />
        <path fill-rule="evenodd" clip-rule="evenodd"
            d="M8.80906 0.856445H21.4539C21.8157 0.856445 22.1106 1.1526 22.1106 1.51316V8.84259C22.1106 9.20366 21.8148 9.4993 21.4539 9.4993H12.5549L9.83633 11.6768C9.62108 11.8495 9.30744 11.6884 9.30762 11.4235L9.30678 9.4993H8.80906C8.44789 9.4993 8.15234 9.20348 8.15234 8.84259V1.51316C8.15234 1.15307 8.44897 0.856445 8.80906 0.856445Z"
            fill="#006638" />
        <path fill-rule="evenodd" clip-rule="evenodd"
            d="M8.80911 0.856445H20.4065C20.7683 0.856445 21.0633 1.1526 21.0633 1.51316V8.84259C21.0633 9.20366 20.7674 9.4993 20.4065 9.4993H11.5075L9.30758 11.2613L9.30678 9.4993H8.80906C8.44789 9.4993 8.15234 9.20348 8.15234 8.84259V1.51316C8.15234 1.15307 8.44902 0.856445 8.80911 0.856445Z"
            fill="#00B26B" />
        <path fill-rule="evenodd" clip-rule="evenodd"
            d="M10.6774 3.50527C10.4975 3.50527 10.3516 3.35939 10.3516 3.17939C10.3516 2.99939 10.4974 2.85352 10.6774 2.85352H19.5849C19.7649 2.85352 19.9108 2.99939 19.9108 3.17939C19.9108 3.35939 19.7649 3.50527 19.5849 3.50527H10.6774Z"
            fill="black" fill-opacity="0.2" />
        <path fill-rule="evenodd" clip-rule="evenodd"
            d="M10.6774 5.53163C10.4975 5.53163 10.3516 5.38576 10.3516 5.20576C10.3516 5.02576 10.4974 4.87988 10.6774 4.87988H19.5849C19.7649 4.87988 19.9108 5.02576 19.9108 5.20576C19.9108 5.38576 19.7649 5.53163 19.5849 5.53163H10.6774Z"
            fill="black" fill-opacity="0.2" />
        <path fill-rule="evenodd" clip-rule="evenodd"
            d="M10.6774 7.55898C10.4975 7.55898 10.3516 7.4131 10.3516 7.2331C10.3516 7.0531 10.4974 6.90723 10.6774 6.90723H13.4666C13.6466 6.90723 13.7925 7.0531 13.7925 7.2331C13.7925 7.4131 13.6466 7.55898 13.4666 7.55898H10.6774Z"
            fill="black" fill-opacity="0.2" />
        <path fill-rule="evenodd" clip-rule="evenodd"
            d="M15.3962 7.55898C15.2162 7.55898 15.0703 7.4131 15.0703 7.2331C15.0703 7.0531 15.2162 6.90723 15.3962 6.90723H15.8802C16.0601 6.90723 16.206 7.0531 16.206 7.2331C16.206 7.4131 16.0602 7.55898 15.8802 7.55898H15.3962Z"
            fill="black" fill-opacity="0.2" />
        <path fill-rule="evenodd" clip-rule="evenodd"
            d="M10.6774 3.50527C10.4975 3.50527 10.3516 3.35939 10.3516 3.17939C10.3516 2.99939 10.4974 2.85352 10.6774 2.85352H19.1457C19.3257 2.85352 19.4716 2.99939 19.4716 3.17939C19.4716 3.35939 19.3257 3.50527 19.1457 3.50527H10.6774Z"
            fill="white" />
        <path fill-rule="evenodd" clip-rule="evenodd"
            d="M10.6774 5.53163C10.4975 5.53163 10.3516 5.38576 10.3516 5.20576C10.3516 5.02576 10.4974 4.87988 10.6774 4.87988H19.1457C19.3257 4.87988 19.4716 5.02576 19.4716 5.20576C19.4716 5.38576 19.3257 5.53163 19.1457 5.53163H10.6774Z"
            fill="white" />
        <path fill-rule="evenodd" clip-rule="evenodd"
            d="M10.6774 7.55898C10.4975 7.55898 10.3516 7.4131 10.3516 7.2331C10.3516 7.0531 10.4974 6.90723 10.6774 6.90723H13.0275C13.2074 6.90723 13.3533 7.0531 13.3533 7.2331C13.3533 7.4131 13.2075 7.55898 13.0275 7.55898H10.6774Z"
            fill="white" />
        <path fill-rule="evenodd" clip-rule="evenodd"
            d="M15.3962 7.55898C15.2162 7.55898 15.0703 7.4131 15.0703 7.2331C15.0703 7.0531 15.2162 6.90723 15.3962 6.90723H15.441C15.621 6.90723 15.7669 7.0531 15.7669 7.2331C15.7669 7.4131 15.621 7.55898 15.441 7.55898H15.3962Z"
            fill="white" />
        <path fill-rule="evenodd" clip-rule="evenodd"
            d="M7.33594 16.3281C7.33594 16.0703 7.54491 15.8613 7.80272 15.8613C8.0663 15.8613 8.2695 16.0664 8.2695 16.3508C8.2695 16.6086 8.06053 16.8176 7.80272 16.8176C7.54491 16.8176 7.33594 16.6086 7.33594 16.3508V16.3281Z"
            fill="#F26722" />
        <path fill-rule="evenodd" clip-rule="evenodd"
            d="M11.1094 16.3281C11.1094 16.0703 11.3183 15.8613 11.5762 15.8613C11.834 15.8613 12.0429 16.0703 12.0429 16.3281V16.3508C12.0429 16.6086 11.834 16.8176 11.5762 16.8176C11.3183 16.8176 11.1094 16.6086 11.1094 16.3508V16.3281Z"
            fill="#F26722" />
        <path fill-rule="evenodd" clip-rule="evenodd"
            d="M12.9922 16.3281C12.9922 16.0703 13.2012 15.8613 13.459 15.8613C13.7168 15.8613 13.9257 16.0703 13.9257 16.3281V16.3508C13.9257 16.6086 13.7168 16.8176 13.459 16.8176C13.2012 16.8176 12.9922 16.6086 12.9922 16.3508V16.3281Z"
            fill="#F26722" />
        <path fill-rule="evenodd" clip-rule="evenodd"
            d="M9.22266 16.3164C9.22266 16.0586 9.43163 15.8496 9.68944 15.8496C9.94725 15.8496 10.1562 16.0586 10.1562 16.3164V16.3391C10.1562 16.5968 9.94725 16.8059 9.68944 16.8059C9.43163 16.8059 9.22266 16.5969 9.22266 16.3391V16.3164Z"
            fill="#F26722" />
        <path fill-rule="evenodd" clip-rule="evenodd"
            d="M7.33594 16.328C7.33594 16.0977 7.50281 15.9063 7.72223 15.8682C7.94452 15.9061 8.10651 16.0967 8.10651 16.3507C8.10651 16.5807 7.94016 16.7718 7.7212 16.8104C7.50225 16.7718 7.33594 16.5807 7.33594 16.3507V16.328Z"
            fill="#FF9800" />
        <path fill-rule="evenodd" clip-rule="evenodd"
            d="M11.1094 16.3278C11.1094 16.0978 11.2757 15.9067 11.4946 15.8682C11.7136 15.9067 11.8799 16.0979 11.8799 16.3278V16.3505C11.8799 16.5805 11.7135 16.7716 11.4946 16.8102C11.2757 16.7716 11.1094 16.5805 11.1094 16.3505V16.3278Z"
            fill="#FF9800" />
        <path fill-rule="evenodd" clip-rule="evenodd"
            d="M12.9922 16.3278C12.9922 16.0978 13.1585 15.9067 13.3775 15.8682C13.5965 15.9067 13.7628 16.0979 13.7628 16.3278V16.3505C13.7628 16.5805 13.5964 16.7716 13.3775 16.8102C13.1585 16.7716 12.9922 16.5805 12.9922 16.3505V16.3278Z"
            fill="#FF9800" />
        <path fill-rule="evenodd" clip-rule="evenodd"
            d="M9.22266 16.3171C9.22266 16.0871 9.38902 15.896 9.60797 15.8574C9.82692 15.896 9.99323 16.0871 9.99323 16.3171V16.3398C9.99323 16.5698 9.82687 16.7609 9.60797 16.7994C9.38902 16.7609 9.22266 16.5697 9.22266 16.3398V16.3171Z"
            fill="#FF9800" />
    </g>
    <defs>
        <clipPath id="clip0_2808_37827">
            <rect width="24" height="24" fill="white" transform="translate(0 0.5)" />
        </clipPath>
    </defs>
</svg>
    