<svg width="49" height="48" viewBox="0 0 49 48" fill="none" xmlns="http://www.w3.org/2000/svg">
    <g clip-path="url(#clip0_1940_22807)">
        <path
            d="M44.0938 26.7417V40.0804C44.0938 40.6845 43.4477 41.0975 42.8516 40.8754C40.0643 39.8253 37.1113 39.2837 34.1328 39.2762C31.0216 39.2762 27.9112 39.8785 24.8745 41.0841C24.651 41.1737 24.4126 41.2201 24.1719 41.2209C23.931 41.2201 23.6924 41.1737 23.4688 41.0841C17.5759 38.7454 11.4028 38.6759 5.49219 40.8754C4.89609 41.0975 4.25 40.6845 4.25 40.0804V26.7417C4.25257 26.5241 4.32063 26.3123 4.44533 26.1339C4.57002 25.9556 4.74556 25.8189 4.94906 25.7417C7.98766 24.5354 11.0984 23.9332 14.21 23.9332C17.5611 23.9332 20.9131 24.6323 24.1719 26.0305C30.4582 23.3337 37.0855 23.2377 43.3947 25.7414C43.5983 25.8186 43.7738 25.9553 43.8985 26.1337C44.0232 26.3122 44.0913 26.5241 44.0938 26.7417Z"
            fill="black" fill-opacity="0.4" />
        <path
            d="M42.8516 39.1241C40.0643 38.074 37.1113 37.5324 34.1328 37.5249C31.0216 37.5249 27.9112 38.1273 24.8745 39.3328C24.4237 39.5152 23.9198 39.5152 23.4691 39.3328C17.5759 36.9941 11.4028 36.9246 5.49219 39.1241C4.89609 39.3462 4.25 38.9332 4.25 38.3291V40.0804C4.25 40.6845 4.89609 41.0976 5.49219 40.8754C11.4028 38.6759 17.5759 38.7454 23.4688 41.0841C23.9195 41.2665 24.4234 41.2665 24.8741 41.0841C27.9109 39.8786 31.0212 39.2762 34.1325 39.2762C37.111 39.2837 40.064 39.8253 42.8512 40.8754C43.4471 41.0976 44.0934 40.6845 44.0934 40.0804V38.3291C44.0938 38.9332 43.4477 39.3462 42.8516 39.1241Z"
            fill="url(#paint0_linear_1940_22807)" />
        <path
            d="M42.9507 26.2857V37.4252C42.9506 37.5647 42.9164 37.7021 42.851 37.8254C42.7857 37.9487 42.6912 38.0541 42.5757 38.1325C42.4603 38.2109 42.3274 38.2598 42.1887 38.2751C42.05 38.2904 41.9097 38.2714 41.78 38.22C39.0787 37.1535 36.3207 36.6207 33.5618 36.6207C30.8498 36.6285 28.1623 37.1328 25.6321 38.1089C25.166 38.288 24.6713 38.3807 24.172 38.3823C23.6721 38.3804 23.1767 38.2875 22.7102 38.108C17.3978 36.0885 11.8692 36.1263 6.56394 38.22C6.43421 38.2714 6.29387 38.2903 6.15516 38.2751C6.01645 38.2598 5.88358 38.2108 5.76814 38.1324C5.6527 38.054 5.55819 37.9485 5.49286 37.8252C5.42753 37.7019 5.39335 37.5645 5.39332 37.4249V26.2857C5.39265 26.0726 5.4548 25.8642 5.57199 25.6863C5.68919 25.5084 5.85623 25.3691 6.05222 25.2857C8.91621 24.0793 11.8496 23.4771 14.7822 23.4771C17.9414 23.4771 21.0996 24.1762 24.172 25.5744C30.0974 22.8777 36.3444 22.7817 42.2918 25.2853C42.4878 25.3688 42.6549 25.5082 42.7721 25.6861C42.8893 25.8641 42.9514 26.0726 42.9507 26.2857Z"
            fill="url(#paint1_linear_1940_22807)" />
        <path
            d="M42.9507 26.2857V37.4252C42.9506 37.5647 42.9164 37.7021 42.851 37.8254C42.7857 37.9487 42.6912 38.0541 42.5757 38.1325C42.4603 38.2109 42.3274 38.2598 42.1887 38.2751C42.05 38.2904 41.9097 38.2714 41.78 38.22C39.0787 37.1535 36.3207 36.6207 33.5618 36.6207C30.8498 36.6285 28.1623 37.1328 25.6321 38.1089C25.166 38.288 24.6713 38.3807 24.172 38.3823C23.6721 38.3804 23.1767 38.2875 22.7102 38.108C17.3978 36.0885 11.8692 36.1263 6.56394 38.22C6.43421 38.2714 6.29387 38.2903 6.15516 38.2751C6.01645 38.2598 5.88358 38.2108 5.76814 38.1324C5.6527 38.054 5.55819 37.9485 5.49286 37.8252C5.42753 37.7019 5.39335 37.5645 5.39332 37.4249V26.2857C5.39265 26.0726 5.4548 25.8642 5.57199 25.6863C5.68919 25.5084 5.85623 25.3691 6.05222 25.2857C8.91621 24.0793 11.8496 23.4771 14.7822 23.4771C17.9414 23.4771 21.0996 24.1762 24.172 25.5744C30.0974 22.8777 36.3444 22.7817 42.2918 25.2853C42.4878 25.3688 42.6549 25.5082 42.7721 25.6861C42.8893 25.8641 42.9514 26.0726 42.9507 26.2857Z"
            fill="url(#paint2_linear_1940_22807)" />
        <path
            d="M42.9507 25.5727V36.7121C42.9506 36.8517 42.9165 36.9891 42.8511 37.1124C42.7858 37.2357 42.6913 37.3412 42.5758 37.4196C42.4604 37.498 42.3275 37.547 42.1888 37.5623C42.05 37.5775 41.9097 37.5586 41.78 37.5072C39.0787 36.4407 36.3207 35.908 33.5618 35.908C30.8498 35.9157 28.1623 36.42 25.6321 37.3961C25.166 37.5752 24.6713 37.6679 24.172 37.6695C23.6721 37.6677 23.1767 37.5747 22.7102 37.3952C17.3977 35.3752 11.8691 35.4127 6.56386 37.5069C6.43416 37.5583 6.29385 37.5771 6.15518 37.5619C6.0165 37.5466 5.88367 37.4977 5.76824 37.4193C5.65282 37.3409 5.55832 37.2355 5.49297 37.1123C5.42762 36.989 5.39341 36.8516 5.39332 36.7121V25.5727C5.39265 25.3597 5.4548 25.1512 5.57199 24.9734C5.68919 24.7955 5.85623 24.6562 6.05222 24.5727C8.91621 23.3665 11.8496 22.7642 14.7822 22.7642C17.9414 22.7642 21.0996 23.4634 24.172 24.8615C30.0974 22.1648 36.3444 22.0688 42.2918 24.5724C42.4878 24.6559 42.6549 24.7953 42.7721 24.9732C42.8893 25.1511 42.9514 25.3597 42.9507 25.5727Z"
            fill="url(#paint3_linear_1940_22807)" />
        <path
            d="M5.39332 25.0244V36.1638C5.39334 36.3034 5.42751 36.4408 5.49285 36.5641C5.55819 36.6874 5.6527 36.7929 5.76816 36.8713C5.88361 36.9497 6.0165 36.9987 6.15522 37.0139C6.29394 37.0292 6.43429 37.0102 6.56402 36.9588C9.26527 35.8924 12.0233 35.3596 14.7822 35.3596C17.4941 35.3673 20.1817 35.8717 22.7119 36.8477C23.1779 37.0269 23.6727 37.1195 24.172 37.1211C24.6719 37.1193 25.1672 37.0263 25.6338 36.8468C30.9463 34.8268 36.4749 34.8642 41.7801 36.9584C41.9098 37.0098 42.0502 37.0287 42.1889 37.0135C42.3276 36.9982 42.4605 36.9493 42.5759 36.8709C42.6914 36.7925 42.7859 36.687 42.8512 36.5637C42.9165 36.4404 42.9507 36.303 42.9507 36.1634V25.0244C42.9514 24.8114 42.8893 24.6029 42.7721 24.4251C42.6549 24.2472 42.4878 24.1078 42.2918 24.0244C39.4278 22.8181 36.4944 22.2159 33.5618 22.2159C30.4027 22.2159 27.2444 22.915 24.1721 24.3132C18.2467 21.6165 11.9996 21.5204 6.0523 24.0241C5.85625 24.1075 5.68916 24.2469 5.57194 24.4249C5.45473 24.6028 5.39259 24.8114 5.39332 25.0244Z"
            fill="url(#paint4_linear_1940_22807)" />
        <path
            d="M6.05183 23.1254C5.85597 23.2089 5.68905 23.3482 5.57193 23.526C5.45481 23.7038 5.39268 23.9121 5.39332 24.125V35.2644C5.39336 35.404 5.42756 35.5415 5.49292 35.6648C5.55828 35.7882 5.65283 35.8937 5.76831 35.9721C5.88379 36.0505 6.01671 36.0995 6.15547 36.1148C6.29423 36.1301 6.43462 36.1112 6.56441 36.0598C12.3582 33.7717 18.4175 33.9379 24.172 36.5574V23.4139C18.2471 20.7173 12 20.6205 6.05183 23.1254Z"
            fill="url(#paint5_linear_1940_22807)" />
        <path
            d="M21.6762 25.1292C19.6527 24.5718 17.5737 24.2402 15.4773 24.1404C15.3949 24.138 15.3129 24.1521 15.2361 24.1819C15.1592 24.2118 15.0892 24.2568 15.0301 24.3142C14.971 24.3717 14.9241 24.4404 14.8921 24.5163C14.86 24.5923 14.8436 24.6739 14.8438 24.7563C14.8461 24.9238 14.9135 25.0838 15.0318 25.2024C15.15 25.321 15.3098 25.389 15.4773 25.3919C17.5737 25.4917 19.6527 25.8234 21.6762 26.3808C22.0152 26.4811 22.2881 26.2906 22.2881 25.9449C22.2796 25.7633 22.2168 25.5884 22.1076 25.443C21.9985 25.2975 21.8482 25.1882 21.6762 25.1292Z"
            fill="#FF9800" />
        <path
            d="M7.88905 26.381C8.81347 26.1074 9.75337 25.889 10.7037 25.7271C10.8752 25.6959 11.0308 25.607 11.145 25.4753C11.2591 25.3437 11.3249 25.177 11.3315 25.0028C11.3342 24.9239 11.3189 24.8454 11.2868 24.7732C11.2546 24.701 11.2065 24.6371 11.146 24.5863C11.0855 24.5355 11.0143 24.4991 10.9376 24.48C10.861 24.4608 10.781 24.4593 10.7037 24.4756C9.7534 24.6375 8.81353 24.8559 7.88913 25.1295C7.7171 25.1884 7.56675 25.2977 7.45761 25.4431C7.34847 25.5886 7.28558 25.7635 7.2771 25.9452C7.2771 26.2908 7.55007 26.4813 7.88905 26.381Z"
            fill="#FF9800" />
        <path
            d="M12.2554 24.8882C12.2547 24.9686 12.271 25.0481 12.3034 25.1216C12.3358 25.1952 12.3834 25.261 12.4431 25.3147C12.5029 25.3684 12.5733 25.4088 12.6499 25.4332C12.7264 25.4576 12.8072 25.4655 12.887 25.4563C13.1736 25.4339 13.3167 25.425 13.604 25.4108C13.7723 25.4039 13.9317 25.3329 14.0494 25.2123C14.1671 25.0918 14.2343 24.9308 14.2373 24.7624C14.2377 24.6804 14.2215 24.5993 14.1894 24.5239C14.1574 24.4485 14.1102 24.3805 14.0509 24.324C13.9916 24.2675 13.9213 24.2237 13.8445 24.1953C13.7676 24.167 13.6858 24.1546 13.604 24.1591C13.317 24.173 13.1736 24.1821 12.887 24.2046C12.7162 24.2212 12.5575 24.3001 12.441 24.4261C12.3246 24.5522 12.2585 24.7166 12.2554 24.8882Z"
            fill="#FF9800" />
        <path
            d="M14.088 27.0887C11.9915 27.1884 9.91252 27.5201 7.88905 28.0775C7.71703 28.1364 7.5667 28.2457 7.45758 28.3912C7.34846 28.5366 7.28557 28.7115 7.2771 28.8932C7.2771 29.2388 7.55007 29.4294 7.88913 29.329C9.91257 28.7716 11.9915 28.44 14.088 28.3402C14.2554 28.3373 14.4152 28.2693 14.5335 28.1507C14.6517 28.0321 14.7192 27.8721 14.7216 27.7046C14.7217 27.6222 14.7052 27.5406 14.6732 27.4646C14.6412 27.3887 14.5942 27.3199 14.5351 27.2625C14.476 27.205 14.406 27.1601 14.3292 27.1302C14.2524 27.1003 14.1703 27.0862 14.088 27.0887Z"
            fill="#FF9800" />
        <path
            d="M16.6782 27.1528C16.3916 27.1304 16.2485 27.1215 15.9612 27.1073C15.8794 27.1029 15.7975 27.1152 15.7207 27.1436C15.6438 27.1719 15.5736 27.2157 15.5142 27.2722C15.4549 27.3287 15.4078 27.3968 15.3758 27.4721C15.3437 27.5475 15.3274 27.6287 15.3279 27.7106C15.3309 27.8791 15.3981 28.04 15.5158 28.1606C15.6335 28.2811 15.7928 28.3521 15.9612 28.359C16.2482 28.373 16.3916 28.3825 16.6782 28.4045C16.758 28.4137 16.8388 28.4058 16.9154 28.3814C16.9919 28.357 17.0623 28.3166 17.1221 28.2629C17.1818 28.2092 17.2294 28.1434 17.2618 28.0699C17.2941 27.9963 17.3105 27.9168 17.3098 27.8365C17.3066 27.6649 17.2406 27.5004 17.1241 27.3744C17.0077 27.2483 16.849 27.1695 16.6782 27.1528Z"
            fill="#FF9800" />
        <path
            d="M42.292 23.1254C36.3442 20.6211 30.0973 20.7166 24.1719 23.4139V36.5573C29.9271 33.9375 35.9864 33.772 41.7795 36.0598C41.9093 36.1112 42.0497 36.1301 42.1885 36.1148C42.3272 36.0995 42.4601 36.0505 42.5756 35.9721C42.6911 35.8936 42.7856 35.7882 42.851 35.6648C42.9163 35.5414 42.9505 35.404 42.9505 35.2644C42.9505 27.4105 42.9505 31.9789 42.9505 24.1251C42.9512 23.9122 42.889 23.7038 42.7719 23.526C42.6548 23.3482 42.4878 23.2088 42.292 23.1254Z"
            fill="url(#paint6_linear_1940_22807)" />
        <path
            d="M32.6297 30.7439C30.5332 30.8437 28.4543 31.1753 26.4308 31.7327C26.2588 31.7916 26.1084 31.9009 25.9993 32.0464C25.8902 32.1919 25.8273 32.3668 25.8188 32.5485C25.8188 32.894 26.0918 33.0846 26.4308 32.9842C28.4543 32.4269 30.5332 32.0952 32.6297 31.9954C32.7972 31.9925 32.957 31.9246 33.0752 31.8059C33.1935 31.6873 33.2609 31.5273 33.2632 31.3598C33.2634 31.2774 33.2469 31.1958 33.2149 31.1198C33.1829 31.0439 33.136 30.9751 33.0769 30.9177C33.0178 30.8603 32.9478 30.8153 32.8709 30.7854C32.7941 30.7556 32.7121 30.7415 32.6297 30.7439Z"
            fill="#FF9800" />
        <path
            d="M35.22 30.808C34.9334 30.7856 34.7903 30.7767 34.503 30.7626C34.4212 30.7582 34.3393 30.7705 34.2625 30.7988C34.1856 30.8272 34.1153 30.871 34.056 30.9275C33.9967 30.984 33.9496 31.052 33.9175 31.1274C33.8855 31.2028 33.8692 31.284 33.8696 31.3659C33.8726 31.5344 33.9398 31.6953 34.0575 31.8159C34.1753 31.9364 34.3346 32.0074 34.503 32.0143C34.79 32.0283 34.9334 32.0378 35.22 32.0598C35.2998 32.069 35.3806 32.0611 35.4571 32.0367C35.5337 32.0123 35.6041 31.9719 35.6639 31.9182C35.7236 31.8645 35.7712 31.7987 35.8036 31.7252C35.8359 31.6516 35.8523 31.5721 35.8516 31.4917C35.8485 31.3201 35.7824 31.1557 35.666 31.0296C35.5495 30.9035 35.3908 30.8247 35.22 30.808Z"
            fill="#FF9800" />
        <path
            d="M35.0964 28.0205L42.8096 35.7336C42.9019 35.5945 42.9509 35.4312 42.9506 35.2643C42.9506 29.3305 42.9506 30.4873 42.9506 28.0205H35.0964Z"
            fill="url(#paint7_linear_1940_22807)" />
        <path
            d="M42.9508 26.0598V30.9109C42.9515 30.6981 42.8894 30.4897 42.7722 30.312C42.6551 30.1343 42.4881 29.995 42.2922 29.9117C41.6805 29.6539 41.0654 29.4239 40.4469 29.2219C39.5555 28.9281 38.6586 28.6148 37.7586 28.4375C36.9958 28.2865 36.2254 28.1765 35.4508 28.1078C35.3077 28.0952 35.1745 28.0295 35.0775 27.9236C34.9805 27.8177 34.9266 27.6793 34.9266 27.5357L35.0047 26.019C35.0047 20.069 30.0584 14.9587 24.1085 14.9931C22.0802 15.0018 20.0959 15.5846 18.385 16.674C16.6741 17.7633 15.3066 19.3148 14.4407 21.149C13.3817 21.1656 12.3254 21.2606 11.2805 21.4333C10.2821 21.5974 9.28599 22.0023 8.29614 22.3083C7.53474 22.5432 6.78562 22.8161 6.05161 23.1262C5.83274 23.2184 5.65078 23.3808 5.53442 23.5879C6.67013 14.3557 14.5063 7.19685 24.0283 7.12553C34.4354 7.04756 42.9508 15.6524 42.9508 26.0598Z"
            fill="url(#paint8_linear_1940_22807)" />
        <path
            d="M8.43685 15.6504C6.87531 18.0393 5.88239 20.7545 5.53442 23.5873C5.65078 23.3802 5.83274 23.2178 6.05161 23.1255C6.78563 22.8157 7.53475 22.543 8.29614 22.3084C9.27363 22.0054 10.2708 21.77 11.2805 21.6037C12.3254 21.431 13.3817 21.3359 14.4407 21.3193C15.7077 18.6333 17.9772 16.4801 20.844 15.5723L8.43685 15.6504Z"
            fill="url(#paint9_linear_1940_22807)" />
        <path
            d="M40.4469 26.0421V29.2218C39.5663 28.9311 38.6685 28.6953 37.7586 28.5156C36.9958 28.3646 36.2254 28.2545 35.4508 28.1859C35.3077 28.1733 35.1745 28.1076 35.0775 28.0017C34.9805 27.8958 34.9266 27.7574 34.9266 27.6138V26.019C34.9266 20.069 30.0584 14.9588 24.1085 14.9932C19.8354 15.0178 16.1525 17.6906 14.4407 21.3196C13.3817 21.3362 12.3254 21.4312 11.2805 21.6039C10.2708 21.7702 9.27363 22.0057 8.29614 22.3086C9.94302 15.0012 16.5067 9.55643 24.3282 9.62964C33.2779 9.71346 40.4469 17.0917 40.4469 26.0421Z"
            fill="url(#paint10_linear_1940_22807)" />
        <path
            d="M11.5329 15.6504C9.95494 17.5904 8.84713 19.8691 8.29614 22.3084C9.27363 22.0054 10.2708 21.77 11.2805 21.6037C12.3254 21.431 13.3817 21.3359 14.4407 21.3193C15.0736 19.9798 15.9757 18.7851 17.0908 17.8098C18.206 16.8344 19.5101 16.0994 20.9219 15.6504H11.5329Z"
            fill="url(#paint11_linear_1940_22807)" />
        <path
            d="M37.7586 25.9039V28.5156C36.9958 28.3647 36.2254 28.2546 35.4508 28.186C35.3077 28.1734 35.1745 28.1077 35.0775 28.0018C34.9805 27.8959 34.9266 27.7575 34.9266 27.6138V26.019C34.9266 20.069 30.0584 15.115 24.1085 15.1494C22.079 15.1609 20.0942 15.7464 18.3835 16.8382C16.6727 17.9301 15.3058 19.4837 14.4407 21.3196C13.3817 21.3362 12.3254 21.4312 11.2805 21.6039C12.3016 18.5437 14.3782 15.9465 17.1389 14.2771C19.8995 12.6077 23.1641 11.975 26.3485 12.4922C29.5329 13.0093 32.4294 14.6426 34.5199 17.0998C36.6104 19.557 37.7584 22.6778 37.7586 25.9039Z"
            fill="url(#paint12_linear_1940_22807)" />
        <path
            d="M15.2578 15.6504C13.4243 17.244 12.051 19.2996 11.2808 21.6035C12.3257 21.4308 13.382 21.3357 14.4409 21.3191C15.0738 19.9797 15.9759 18.7851 17.091 17.8098C18.206 16.8344 19.5101 16.0994 20.9219 15.6504H15.2578Z"
            fill="url(#paint13_linear_1940_22807)" />
    </g>
    <defs>
        <linearGradient id="paint0_linear_1940_22807" x1="23.3722" y1="33.2348" x2="25.078"
            y2="46.0287" gradientUnits="userSpaceOnUse">
            <stop stop-color="#00B26B" />
            <stop offset="1" stop-color="#006638" />
        </linearGradient>
        <linearGradient id="paint1_linear_1940_22807" x1="22.8964" y1="24.7902" x2="24.7039"
            y2="34.7878" gradientUnits="userSpaceOnUse">
            <stop stop-color="#F8F6FB" />
            <stop offset="1" stop-color="#EFDCFB" />
        </linearGradient>
        <linearGradient id="paint2_linear_1940_22807" x1="22.8964" y1="24.7902" x2="24.7039"
            y2="34.7878" gradientUnits="userSpaceOnUse">
            <stop stop-color="#F9F5F3" />
            <stop offset="1" stop-color="#E5CAF3" />
        </linearGradient>
        <linearGradient id="paint3_linear_1940_22807" x1="24.172" y1="33.3789" x2="24.172"
            y2="48.7113" gradientUnits="userSpaceOnUse">
            <stop stop-color="#5B3374" stop-opacity="0" />
            <stop offset="0.173" stop-color="#5B3374" stop-opacity="0.039" />
            <stop offset="0.363" stop-color="#5B3374" stop-opacity="0.152" />
            <stop offset="0.56" stop-color="#5B3374" stop-opacity="0.341" />
            <stop offset="0.763" stop-color="#5B3374" stop-opacity="0.605" />
            <stop offset="0.968" stop-color="#5B3374" stop-opacity="0.942" />
            <stop offset="1" stop-color="#5B3374" />
        </linearGradient>
        <linearGradient id="paint4_linear_1940_22807" x1="24.172" y1="33.2746" x2="24.172"
            y2="46.9918" gradientUnits="userSpaceOnUse">
            <stop stop-color="#5B3374" stop-opacity="0" />
            <stop offset="0.173" stop-color="#5B3374" stop-opacity="0.039" />
            <stop offset="0.363" stop-color="#5B3374" stop-opacity="0.152" />
            <stop offset="0.56" stop-color="#5B3374" stop-opacity="0.341" />
            <stop offset="0.763" stop-color="#5B3374" stop-opacity="0.605" />
            <stop offset="0.968" stop-color="#5B3374" stop-opacity="0.942" />
            <stop offset="1" stop-color="#5B3374" />
        </linearGradient>
        <linearGradient id="paint5_linear_1940_22807" x1="12.8641" y1="27.598" x2="19.7554"
            y2="34.4893" gradientUnits="userSpaceOnUse">
            <stop stop-color="white" />
            <stop offset="1" stop-color="#D8EDDD" />
        </linearGradient>
        <linearGradient id="paint6_linear_1940_22807" x1="30.0909" y1="25.6918" x2="36.6527"
            y2="34.1284" gradientUnits="userSpaceOnUse">
            <stop stop-color="#F5F5F5" />
            <stop offset="1" stop-color="#D8EDDD" />
        </linearGradient>
        <linearGradient id="paint7_linear_1940_22807" x1="38.4793" y1="33.1412" x2="41.1746"
            y2="26.11" gradientUnits="userSpaceOnUse">
            <stop stop-color="#5B3374" stop-opacity="0" />
            <stop offset="0.173" stop-color="#5B3374" stop-opacity="0.039" />
            <stop offset="0.363" stop-color="#5B3374" stop-opacity="0.152" />
            <stop offset="0.56" stop-color="#5B3374" stop-opacity="0.341" />
            <stop offset="0.763" stop-color="#5B3374" stop-opacity="0.605" />
            <stop offset="0.968" stop-color="#5B3374" stop-opacity="0.942" />
            <stop offset="1" stop-color="#5B3374" />
        </linearGradient>
        <linearGradient id="paint8_linear_1940_22807" x1="19.4463" y1="9.25014" x2="24.8361"
            y2="24.9826" gradientUnits="userSpaceOnUse">
            <stop stop-color="#FEAEAF" />
            <stop offset="1" stop-color="#FE5659" />
        </linearGradient>
        <linearGradient id="paint9_linear_1940_22807" x1="13.0158" y1="18.3652" x2="13.5626"
            y2="22.1934" gradientUnits="userSpaceOnUse">
            <stop stop-color="#FD3581" stop-opacity="0" />
            <stop offset="0.108" stop-color="#FC3480" stop-opacity="0.023" />
            <stop offset="0.24" stop-color="#FB307D" stop-opacity="0.089" />
            <stop offset="0.386" stop-color="#F82B78" stop-opacity="0.199" />
            <stop offset="0.541" stop-color="#F42372" stop-opacity="0.353" />
            <stop offset="0.703" stop-color="#EF1969" stop-opacity="0.55" />
            <stop offset="0.868" stop-color="#E90D5F" stop-opacity="0.787" />
            <stop offset="1" stop-color="#E30256" />
        </linearGradient>
        <linearGradient id="paint10_linear_1940_22807" x1="19.087" y1="11.5365" x2="24.1158"
            y2="21.7319" gradientUnits="userSpaceOnUse">
            <stop stop-color="#FEF0AE" />
            <stop offset="1" stop-color="#FED402" />
        </linearGradient>
        <linearGradient id="paint11_linear_1940_22807" x1="14.4913" y1="18.1545" x2="15.0382"
            y2="21.9826" gradientUnits="userSpaceOnUse">
            <stop stop-color="#FEF0AE" stop-opacity="0" />
            <stop offset="1" stop-color="#FE9738" />
        </linearGradient>
        <linearGradient id="paint12_linear_1940_22807" x1="20.0094" y1="13.9479" x2="24.5367"
            y2="22.0038" gradientUnits="userSpaceOnUse">
            <stop stop-color="#79D9FF" />
            <stop offset="1" stop-color="#7BACDF" />
        </linearGradient>
        <linearGradient id="paint13_linear_1940_22807" x1="16.0029" y1="17.9385" x2="16.5498"
            y2="21.7666" gradientUnits="userSpaceOnUse">
            <stop stop-color="#7BACDF" stop-opacity="0" />
            <stop offset="1" stop-color="#0681AF" />
        </linearGradient>
        <clipPath id="clip0_1940_22807">
            <rect width="40" height="40" fill="white" transform="translate(4.25 4)" />
        </clipPath>
    </defs>
</svg>
    