<svg width="49" height="48" viewBox="0 0 49 48" fill="none" xmlns="http://www.w3.org/2000/svg">
    <g clip-path="url(#clip0_1940_22761)">
        <path
            d="M44.125 13.3094L43.9875 13.3281L28.5 15.1844L13.2812 13.3906H13.275L10.4062 13.0531L7.25 12.6844L21.7687 10.9406C22.5037 10.8531 23.2463 10.8531 23.9813 10.9406L44.125 13.3094Z"
            fill="#7070F2" />
        <path
            d="M44.125 18.9344L43.9875 18.9531L28.5 20.8094C28.4535 20.8097 28.4072 20.8034 28.3625 20.7906C27.7375 20.6344 27.25 19.4469 27.25 17.9969C27.25 16.4406 27.8125 15.1844 28.5 15.1844L43.9875 13.3281C43.3625 13.4844 42.875 14.6719 42.875 16.1219C42.875 17.6781 43.4375 18.9344 44.125 18.9344Z"
            fill="#EAEAEA" />
        <path
            d="M44.125 24.5594C44.0596 24.5584 43.9943 24.5669 43.9312 24.5844L28.5 26.4344C28.4535 26.4347 28.4072 26.4284 28.3625 26.4156C27.7375 26.2594 27.25 25.0719 27.25 23.6219C27.25 22.0656 27.8125 20.8094 28.5 20.8094L43.9875 18.9531C43.3625 19.1094 42.875 20.2969 42.875 21.7469C42.875 23.3031 43.4375 24.5594 44.125 24.5594Z"
            fill="#EAEAEA" />
        <path
            d="M43.9875 18.9531C43.5875 19.0531 43.2437 19.5719 43.05 20.3156L28.5 22.0594C27.9125 22.0594 27.4125 22.9844 27.2812 24.2344C27.2625 24.0406 27.25 23.8344 27.25 23.6219C27.25 22.0656 27.8125 20.8094 28.5 20.8094L43.9875 18.9531Z"
            fill="#DAD4D4" />
        <path
            d="M43.9875 13.3281C43.5875 13.4281 43.2437 13.9469 43.05 14.6906L28.5 16.4344C27.9125 16.4344 27.4125 17.3594 27.2812 18.6094C27.2625 18.4156 27.25 18.2094 27.25 17.9969C27.25 16.4406 27.8125 15.1844 28.5 15.1844L43.9875 13.3281Z"
            fill="#DAD4D4" />
        <path
            d="M44.1251 33.3095L43.6751 33.3657L37.8751 34.0595V29.0595L34.1251 29.5095V34.5095L28.5001 35.1845L28.3063 35.1595C28.2453 35.1471 28.1864 35.126 28.1313 35.097C28.0746 35.0705 28.0202 35.0391 27.9688 35.0032C27.964 35.0028 27.9596 35.0005 27.9563 34.997C27.9126 34.9657 27.8626 34.9282 27.8188 34.8907C27.7558 34.8328 27.6973 34.7701 27.6438 34.7032C27.591 34.6425 27.5429 34.5777 27.5001 34.5095C27.4033 34.3684 27.3177 34.22 27.2438 34.0657C27.1938 33.9595 27.1501 33.847 27.1001 33.7282C27.0688 33.6407 27.0376 33.547 27.0063 33.4532C26.9677 33.3472 26.9364 33.2386 26.9126 33.1282C26.8813 33.022 26.8563 32.9095 26.8313 32.797C26.7525 32.4512 26.6982 32.1004 26.6688 31.747V31.7282C26.6384 31.4229 26.6238 31.1163 26.6251 30.8095C26.6251 28.3907 27.4626 26.4345 28.5001 26.4345L43.9313 24.5845C43.9085 24.5865 43.8868 24.5952 43.8688 24.6095C42.9563 24.8845 42.2501 26.7157 42.2501 28.9345C42.2501 31.3532 43.0876 33.3095 44.1251 33.3095Z"
            fill="#EAEAEA" />
        <path
            d="M44.1251 33.3095L43.6751 33.3657L37.8751 34.0595V32.1845C38.5756 32.0952 39.2183 31.7501 39.6798 31.2156C40.1413 30.6811 40.3889 29.9949 40.3751 29.2888C40.3751 29.2563 40.3751 29.2263 40.3751 29.1907V29.1657C40.3797 28.8828 40.3239 28.6022 40.2116 28.3425C40.0992 28.0827 39.9329 27.85 39.7236 27.6596C39.5142 27.4692 39.2668 27.3255 38.9976 27.2382C38.7285 27.1509 38.4438 27.1219 38.1626 27.1532L28.5001 28.3095C28.2892 28.3312 28.087 28.4049 27.9115 28.524C27.7361 28.6432 27.593 28.8039 27.4951 28.992C27.1577 29.5071 26.9702 30.1059 26.9537 30.7215C26.9371 31.337 27.0921 31.9451 27.4013 32.4776C27.4902 32.666 27.6162 32.8345 27.7717 32.9732C27.9272 33.1118 28.109 33.2177 28.3063 33.2845L28.5001 33.3095L34.1251 32.6345V34.5095L28.5001 35.1845L28.3063 35.1595C28.2453 35.1471 28.1864 35.126 28.1313 35.097C28.0746 35.0705 28.0202 35.0391 27.9688 35.0032C27.964 35.0028 27.9596 35.0005 27.9563 34.997C27.9126 34.9657 27.8626 34.9282 27.8188 34.8907C27.7558 34.8328 27.6973 34.7701 27.6438 34.7032C27.591 34.6425 27.5429 34.5777 27.5001 34.5095C27.4033 34.3684 27.3177 34.22 27.2438 34.0657C27.1938 33.9595 27.1501 33.847 27.1001 33.7282C27.0688 33.6407 27.0376 33.547 27.0063 33.4532C26.9677 33.3472 26.9364 33.2386 26.9126 33.1282C26.8813 33.022 26.8563 32.9095 26.8313 32.797C26.7525 32.4512 26.6982 32.1004 26.6688 31.747V31.7282C26.6384 31.4229 26.6238 31.1163 26.6251 30.8095C26.6251 28.3907 27.4626 26.4345 28.5001 26.4345L43.9313 24.5845C43.9085 24.5865 43.8868 24.5952 43.8688 24.6095C42.9563 24.8845 42.2501 26.7157 42.2501 28.9345C42.2501 31.3532 43.0876 33.3095 44.1251 33.3095Z"
            fill="#DAD4D4" />
        <path
            d="M37.875 34.0596V37.0596L36 34.5596L34.125 37.6846V34.5096V29.5158L37.875 29.0596V34.0596Z"
            fill="#ED1C24" />
        <path
            d="M36.625 29.2096V30.3502C36.6338 31.1391 36.4016 31.9118 35.9594 32.5652C35.5173 33.2185 34.8862 33.7213 34.1506 34.0064L34.125 34.0158V37.6846L36 34.5596L37.875 37.0596V29.0596L36.625 29.2096Z"
            fill="#C1272D" />
        <path
            d="M13.2813 13.3906L28.5001 15.1844C27.8126 15.1844 27.2501 16.4406 27.2501 17.9969C27.2501 19.4469 27.7376 20.6344 28.3626 20.7906L23.8751 20.2656L21.1251 19.9406L12.9563 18.9781C12.6708 18.1614 12.5373 17.2992 12.5626 16.4344C12.5626 14.9656 12.8626 13.7281 13.2751 13.3906H13.2813Z"
            fill="#5E5EEA" />
        <path
            d="M28.3625 20.7906C28.4072 20.8034 28.4535 20.8097 28.5 20.8094C27.8125 20.8094 27.25 22.0656 27.25 23.6219C27.25 25.0719 27.7375 26.2594 28.3625 26.4156L24.5313 25.9656L23.4875 25.8469C23.1599 25.0422 23.0045 24.1778 23.0313 23.3094C23.0313 21.8281 23.3938 20.5844 23.875 20.2656L28.3625 20.7906Z"
            fill="#99E0D4" />
        <path
            d="M28.3625 26.4158C28.4072 26.4286 28.4535 26.4349 28.5 26.4346C27.4625 26.4346 26.625 28.3908 26.625 30.8096C26.625 33.0783 27.3625 34.9408 28.3062 35.1596L24.575 34.7221C23.9437 33.9471 23.5 32.2658 23.5 30.3158C23.5 28.4158 23.9187 26.7721 24.5312 25.9658L28.3625 26.4158Z"
            fill="#FFCA3A" />
        <path
            d="M24.575 34.722L22.05 34.4282C21.425 33.6345 21 31.972 21 30.0532C21 28.1345 21.4313 26.4657 22.0563 25.6782L23.4875 25.847L24.5312 25.9657C23.9187 26.772 23.5 28.4157 23.5 30.3157C23.5 32.2657 23.9437 33.947 24.575 34.722Z"
            fill="#F7931E" />
        <path
            d="M21.125 19.9404L23.875 20.2654C23.3938 20.5842 23.0313 21.8279 23.0313 23.3092C23.0045 24.1776 23.1599 25.042 23.4875 25.8467L22.0563 25.6779L21.0375 25.5592C20.5396 24.6865 20.3093 23.6867 20.375 22.6842C20.3661 21.7178 20.6257 20.7679 21.125 19.9404Z"
            fill="#7070F2" />
        <path
            d="M21.0376 25.5595L22.0563 25.6782C21.4313 26.4657 21.0001 28.1282 21.0001 30.0532C21.0001 31.9782 21.4251 33.6345 22.0501 34.4282L11.9126 33.2345C11.2598 31.9519 10.9498 30.5223 11.0126 29.0845C11.0126 26.9845 11.5313 25.197 12.2501 24.522L21.0376 25.5595Z"
            fill="#FFCA3A" />
        <path
            d="M12.9563 18.9783L21.125 19.9408C20.6257 20.7683 20.3661 21.7182 20.375 22.6846C20.3093 23.6871 20.5396 24.6869 21.0375 25.5596L12.25 24.5221L9.74375 24.2283L7.25 23.9346C6.5625 23.9346 6 22.6783 6 21.1221C6 19.5658 6.5625 18.3096 7.25 18.3096L10.3063 18.6658V18.6721L12.9563 18.9783Z"
            fill="#99E0D4" />
        <path
            d="M28.3625 26.4157L24.5312 25.9657L23.4875 25.847C23.259 25.3172 23.1196 24.7534 23.075 24.1782L27.3437 24.6657C27.5062 25.6095 27.8937 26.297 28.3625 26.4157Z"
            fill="#5BD3C7" />
        <path
            d="M23.4874 25.8467L22.0562 25.6779L21.0374 25.5592C20.7086 25.0555 20.5109 24.4775 20.4624 23.8779L23.0749 24.1779C23.1196 24.7531 23.2589 25.3169 23.4874 25.8467Z"
            fill="#5858DD" />
        <path
            d="M21.0376 25.5593L12.2501 24.5218L9.74385 24.228L7.2501 23.9343C6.7376 23.9343 6.29385 23.2343 6.1001 22.228L9.71885 22.6405L13.9563 23.128L20.4626 23.878C20.5111 24.4776 20.7088 25.0556 21.0376 25.5593Z"
            fill="#5BD3C7" />
        <path
            d="M10.4062 13.0532L13.275 13.3907C12.8625 13.7282 12.5625 14.9657 12.5625 16.4345C12.5372 17.2993 12.6707 18.1615 12.9562 18.9782L10.3062 18.672V18.6657C9.88611 17.7747 9.69492 16.793 9.74998 15.8095C9.74133 14.851 9.96659 13.9049 10.4062 13.0532Z"
            fill="#99E0D4" />
        <path
            d="M9.74387 24.228L12.2501 24.5218C11.5314 25.1968 11.0126 26.9843 11.0126 29.0843C10.9498 30.5221 11.2598 31.9517 11.9126 33.2343L9.41887 32.9405C8.76078 31.6574 8.44843 30.2249 8.51262 28.7843C8.51262 26.6905 9.02512 24.903 9.74387 24.228Z"
            fill="#F7931E" />
        <path
            d="M7.25 12.6846L10.4062 13.0533C9.96661 13.905 9.74135 14.8511 9.75 15.8096C9.69494 16.7931 9.88613 17.7748 10.3063 18.6658L7.25 18.3096C6.5625 18.3096 6 17.0533 6 15.4971C6 13.9408 6.5625 12.6846 7.25 12.6846Z"
            fill="#5E5EEA" />
        <path
            d="M28.3624 20.7906L12.9562 18.9781C12.8031 18.5886 12.7002 18.1811 12.6499 17.7656L27.4499 19.5094C27.6437 20.2094 27.9749 20.6969 28.3624 20.7906Z"
            fill="#5B52D8" />
        <path
            d="M10.3063 18.6718V18.6655C10.0922 18.2894 9.95214 17.8757 9.8938 17.4468L12.65 17.7655C12.7003 18.181 12.8032 18.5885 12.9563 18.978L10.3063 18.6718Z"
            fill="#5BD3C7" />
        <path
            d="M10.3063 18.6655L7.25 18.3093C6.78125 18.3093 6.36875 17.7218 6.15625 16.853C6.28123 16.978 6.44846 17.0515 6.625 17.0593L9.89375 17.4468C9.9521 17.8757 10.0921 18.2894 10.3063 18.6655Z"
            fill="#5B52D8" />
        <path
            d="M7.25 23.9346L9.74375 24.2283C9.025 24.9033 8.5125 26.6908 8.5125 28.7846C8.44831 30.2252 8.76066 31.6577 9.41875 32.9408L7.25 32.6846C6.2125 32.6846 5.375 30.7283 5.375 28.3096C5.375 25.8908 6.2125 23.9346 7.25 23.9346Z"
            fill="#FFCA3A" />
        <path
            d="M28.3062 35.1593L24.575 34.7218C24.1657 34.1454 23.8883 33.4861 23.7625 32.7905L24.2562 32.8468L26.9125 33.1343C27.2062 34.2468 27.7187 35.0218 28.3062 35.1593Z"
            fill="#F7931E" />
        <path
            d="M24.5751 34.722L22.0501 34.4282C21.6545 33.8556 21.384 33.2061 21.2563 32.522L21.5251 32.5532L23.7626 32.7907C23.8885 33.4863 24.1659 34.1456 24.5751 34.722Z"
            fill="#F15A24" />
        <path
            d="M22.05 34.4283L11.9125 33.2346C11.5904 32.6768 11.3663 32.068 11.25 31.4346L21.2562 32.5221C21.3839 33.2062 21.6544 33.8557 22.05 34.4283Z"
            fill="#F7931E" />
        <path
            d="M11.9126 33.2342L9.41885 32.9404C9.09757 32.389 8.87347 31.7865 8.75635 31.1592L10.5688 31.3592L11.2501 31.4342C11.3664 32.0676 11.5905 32.6765 11.9126 33.2342Z"
            fill="#F15A24" />
        <path
            d="M9.41875 32.9406L7.25 32.6844C6.6125 32.6844 6.05625 31.9531 5.71875 30.8281L7.86875 31.0656L8.75625 31.1594C8.87338 31.7867 9.09747 32.3892 9.41875 32.9406Z"
            fill="#F7931E" />
        <path
            d="M33.3245 30.2344C33.1653 30.234 33.0123 30.1727 32.8967 30.0633C32.7811 29.9538 32.7116 29.8044 32.7025 29.6454C32.6933 29.4865 32.7451 29.3301 32.8473 29.2081C32.9496 29.086 33.0945 29.0076 33.2526 28.9888L38.7445 28.3257C38.9092 28.3061 39.0749 28.3526 39.2053 28.4552C39.3356 28.5577 39.4198 28.7079 39.4395 28.8726C39.4591 29.0373 39.4126 29.203 39.31 29.3333C39.2074 29.4637 39.0573 29.5479 38.8926 29.5676L33.3982 30.2301C33.3738 30.2331 33.3491 30.2345 33.3245 30.2344Z"
            fill="#DAD4D4" />
    </g>
    <defs>
        <clipPath id="clip0_1940_22761">
            <rect width="40" height="40" fill="white" transform="translate(4.75 4)" />
        </clipPath>
    </defs>
</svg>
    