<svg width="49" height="48" viewBox="0 0 49 48" fill="none" xmlns="http://www.w3.org/2000/svg">
    <g clip-path="url(#clip0_1940_22892)">
        <path
            d="M12.886 36.9206C11.5866 36.9206 10.4364 36.8028 9.44688 36.5672C7.60922 36.1299 6.42915 35.3093 5.9393 34.1288C4.68313 31.1011 8.58805 27.1182 12.085 24.31C14.1067 22.6866 15.5172 21.3094 16.2772 20.2169C16.8005 19.4644 16.9957 18.8658 16.8124 18.5746C16.2966 17.7551 12.8316 18.0393 9.85789 19.4644C8.79156 19.9754 7.71899 20.1076 6.75633 19.8472C5.82399 19.5949 5.07298 18.9883 4.64165 18.1393C4.02423 16.9242 4.14103 15.3662 4.9622 13.8649C5.89212 12.1644 7.68961 10.5634 10.1602 9.23453C13.053 7.67867 16.3307 6.82422 19.4003 6.82422C19.4308 6.82422 19.461 6.8243 19.4915 6.82445C22.4581 6.84086 24.9709 7.62578 26.5671 9.03484C28.2632 10.532 28.7267 12.5733 27.8722 14.783C26.6597 17.9189 26.4958 20.1765 27.411 21.1401C27.8668 21.6201 28.8736 22.0402 31.0809 21.315C31.3886 21.2139 31.7195 21.3814 31.8204 21.6888C31.9214 21.9962 31.7541 22.3273 31.4467 22.4283C28.6569 23.3447 27.2502 22.6725 26.5613 21.9472C25.2806 20.5987 25.354 18.0462 26.7793 14.3604C27.4535 12.6167 27.112 11.079 25.7915 9.91343C24.4278 8.70961 22.1291 8.01094 19.4849 7.99633C19.4566 7.99617 19.4281 7.99609 19.3997 7.99609C16.5208 7.99609 13.4404 8.80093 10.7152 10.2666C7.84696 11.8092 6.56274 13.3805 5.99024 14.4271C5.35759 15.584 5.24673 16.7434 5.68626 17.6083C6.30102 18.8183 7.80828 19.1469 9.35133 18.4074C12.1666 17.0583 16.6703 16.1489 17.8041 17.9504C18.7241 19.412 17.0933 21.7912 12.8187 25.2239C8.38289 28.7859 6.26993 31.868 7.02165 33.6797C7.44235 34.6938 8.72024 35.1897 9.7182 35.4272C11.2499 35.7918 13.323 35.845 15.7136 35.581C19.5773 35.1543 21.8027 33.8495 23.7661 32.6983C26.6319 31.0179 28.8957 29.6905 34.2038 32.5506C34.4886 32.7041 34.5952 33.0595 34.4417 33.3443C34.2881 33.6292 33.9328 33.7357 33.6479 33.5822C28.92 31.0349 27.1055 32.0988 24.3589 33.7092C22.3966 34.8597 19.9544 36.2916 15.8423 36.7456C14.7862 36.8624 13.7992 36.9206 12.886 36.9206Z"
            fill="#404B58" />
        <path
            d="M15.4928 30.537L12.5857 38.6692L12.702 40.6664C12.5228 41.1678 14.8259 40.9094 14.8259 40.9094L22.958 38.0023C25.0257 35.9347 17.5604 28.4694 15.4928 30.537Z"
            fill="url(#paint0_linear_1940_22892)" />
        <path
            d="M40.9834 19.9782L22.958 38.0022C22.7537 37.648 22.443 37.3346 22.0451 37.1126C21.5015 36.8115 20.6514 36.9763 20.0628 37.1548C19.9347 37.193 19.8175 37.1262 19.7698 37.024C19.7398 36.9628 19.7344 36.8878 19.7671 36.8142C19.7685 36.8142 19.7685 36.8128 19.7685 36.8128C19.8012 36.7378 19.8298 36.6615 19.8543 36.5852C19.8652 36.5485 19.8761 36.5117 19.887 36.4749C19.8884 36.4722 19.8884 36.4708 19.8884 36.4681C19.9198 36.3496 19.9416 36.231 19.9538 36.1098C19.9579 36.0702 19.9606 36.0294 19.9633 35.9898C19.9667 35.924 19.9673 35.8582 19.9652 35.7924C19.9503 35.3317 19.7998 34.8743 19.5137 34.4856C19.4442 34.3902 19.3665 34.3003 19.2807 34.2145C19.1948 34.1287 19.1049 34.051 19.0096 33.9815C18.5655 33.6545 18.0313 33.5047 17.5054 33.5319C17.4659 33.5346 17.425 33.5373 17.3855 33.5414C17.2642 33.5536 17.1443 33.5755 17.0271 33.6068C17.0244 33.6068 17.023 33.6068 17.0203 33.6082C16.9836 33.6191 16.9467 33.63 16.91 33.6409C16.8704 33.6532 16.8324 33.6668 16.7942 33.6818C16.7575 33.6954 16.7207 33.7104 16.6839 33.7267C16.6825 33.7267 16.6825 33.7267 16.6812 33.7281C16.6076 33.7609 16.5327 33.7554 16.4713 33.7254C16.3691 33.6778 16.3024 33.5605 16.3406 33.4325C16.5191 32.8439 16.6839 31.9951 16.3828 31.4514C16.1608 31.0522 15.8487 30.7416 15.4932 30.5372L33.517 12.5119C34.0811 11.9492 34.9939 11.9492 35.5567 12.5119L36.6208 13.5759L39.9193 16.8745L40.9834 17.9385C41.5461 18.5012 41.5461 19.4141 40.9834 19.9782Z"
            fill="url(#paint1_linear_1940_22892)" />
        <path
            d="M39.9192 16.8743L19.7697 37.0238C19.7397 36.9625 19.7343 36.8875 19.767 36.814C19.7684 36.814 19.7684 36.8126 19.7684 36.8126C19.8012 36.7376 19.9428 36.2295 19.9537 36.1095C19.9592 36.0687 19.9619 36.0291 19.9633 35.9896C19.9905 35.4637 19.8406 34.9296 19.5136 34.4854C19.4441 34.39 19.3664 34.3001 19.2806 34.2143C19.1947 34.1285 19.1048 34.0508 19.0095 33.9813C18.5654 33.6543 18.0312 33.5044 17.5053 33.5317C17.4658 33.5331 17.4263 33.5358 17.3854 33.5412C17.2655 33.5521 17.1456 33.5739 17.0271 33.6066C17.0244 33.6066 17.023 33.6066 17.0203 33.6079C16.9835 33.6175 16.7205 33.7102 16.6837 33.7265C16.6823 33.7265 16.6823 33.7265 16.681 33.7279C16.6075 33.7606 16.5326 33.7551 16.4712 33.7252L36.6208 13.5757L39.9192 16.8743Z"
            fill="url(#paint2_linear_1940_22892)" />
        <path
            d="M13.8801 39.615C13.4879 39.2228 13.0495 38.9081 12.5858 38.6689L11.7881 40.9005C11.6088 41.4019 12.0931 41.8862 12.5945 41.7069L14.826 40.9092C14.587 40.4455 14.2723 40.0071 13.8801 39.615Z"
            fill="url(#paint3_linear_1940_22892)" />
        <path
            d="M43.4213 13.5376L39.9572 10.0734C38.8522 8.96838 37.0606 8.96838 35.9556 10.0734L31.6082 14.4208L39.0739 21.8866L43.4213 17.5391C44.5264 16.4341 44.5264 14.6426 43.4213 13.5376Z"
            fill="url(#paint4_linear_1940_22892)" />
        <path
            d="M38.042 20.8799L36.9779 19.8159L33.6794 16.5173L32.6153 15.4533C32.0526 14.8906 31.1397 14.8906 30.5757 15.4533L29.874 16.1549V31.0869L38.042 22.9196C38.6048 22.3555 38.6048 21.4426 38.042 20.8799Z"
            fill="url(#paint5_linear_1940_22892)" />
        <path
            d="M36.8628 23.2307L30.1875 16.5554C29.7669 16.1348 29.7669 15.453 30.1875 15.0324L31.1589 14.0611C31.5795 13.6405 32.2613 13.6405 32.6819 14.0611L39.3571 20.7363C39.7777 21.1569 39.7777 21.8387 39.3571 22.2593L38.3858 23.2307C37.9652 23.6512 37.2833 23.6512 36.8628 23.2307Z"
            fill="url(#paint6_linear_1940_22892)" />
    </g>
    <defs>
        <linearGradient id="paint0_linear_1940_22892" x1="12.9886" y1="33.0121" x2="20.4528"
            y2="40.4763" gradientUnits="userSpaceOnUse">
            <stop stop-color="#FFE0EA" />
            <stop offset="1" stop-color="#FFC0D5" />
        </linearGradient>
        <linearGradient id="paint1_linear_1940_22892" x1="15.493" y1="25.046" x2="41.4054"
            y2="25.046" gradientUnits="userSpaceOnUse">
            <stop stop-color="#FFCE47" />
            <stop offset="1" stop-color="#FF9356" />
        </linearGradient>
        <linearGradient id="paint2_linear_1940_22892" x1="31.2928" y1="28.3973" x2="23.7565"
            y2="20.8611" gradientUnits="userSpaceOnUse">
            <stop stop-color="#FFCE47" />
            <stop offset="1" stop-color="#FF9356" />
        </linearGradient>
        <linearGradient id="paint3_linear_1940_22892" x1="12.662" y1="40.3521" x2="14.5665"
            y2="42.2566" gradientUnits="userSpaceOnUse">
            <stop stop-color="#2F73A0" />
            <stop offset="1" stop-color="#174461" />
        </linearGradient>
        <linearGradient id="paint4_linear_1940_22892" x1="40.0295" y1="12.7245" x2="38.7078"
            y2="15.1037" gradientUnits="userSpaceOnUse">
            <stop stop-color="#FF755C" />
            <stop offset="1" stop-color="#FF4181" />
        </linearGradient>
        <linearGradient id="paint5_linear_1940_22892" x1="30.4871" y1="26.7235" x2="34.0417"
            y2="19.4394" gradientUnits="userSpaceOnUse">
            <stop stop-color="#FF9356" stop-opacity="0" />
            <stop offset="1" stop-color="#FF755C" />
        </linearGradient>
        <linearGradient id="paint6_linear_1940_22892" x1="35.2154" y1="17.8352" x2="34.05"
            y2="19.933" gradientUnits="userSpaceOnUse">
            <stop stop-color="#EDF5FF" />
            <stop offset="1" stop-color="#C7E9FF" />
        </linearGradient>
        <clipPath id="clip0_1940_22892">
            <rect width="40" height="40" fill="white" transform="translate(4.25 4)" />
        </clipPath>
    </defs>
</svg>
    