<svg width="49" height="48" viewBox="0 0 49 48" fill="none" xmlns="http://www.w3.org/2000/svg">
    <g clip-path="url(#clip0_1940_22843)">
        <path
            d="M39.1666 40.9311H15.9821C15.054 40.9311 14.3015 40.1787 14.3015 39.2505V5.68063C14.3015 4.75247 15.054 4 15.9821 4H39.1666C40.0948 4 40.8472 4.75247 40.8472 5.68063V39.2505C40.8472 40.1787 40.0948 40.9311 39.1666 40.9311Z"
            fill="#00B26B" />
        <path
            d="M37.6331 7.7124V31.0999C37.6331 34.6755 36.4446 38.128 34.2876 40.9311H39.1665C40.0947 40.9311 40.8471 40.1787 40.8471 39.2505V10.9264L37.6331 7.7124Z"
            fill="url(#paint0_linear_1940_22843)" />
        <path
            d="M33.9901 42.5H10.8056C9.87747 42.5 9.125 41.7475 9.125 40.8194V7.24948C9.125 6.32132 9.87747 5.56885 10.8056 5.56885H33.9901C34.9183 5.56885 35.6707 6.32132 35.6707 7.24948V40.8194C35.6706 41.7475 34.9183 42.5 33.9901 42.5Z"
            fill="#D8EDDD" />
        <path
            d="M31.3779 44H13.0757C12.1717 44 11.4387 43.267 11.4387 42.363V8.70587C11.4387 7.80179 12.1716 7.06885 13.0757 7.06885H36.3474C37.2515 7.06885 37.9844 7.80179 37.9844 8.70587V37.3935C37.9844 41.0422 35.0266 44 31.3779 44Z"
            fill="white" />
        <path opacity="0.5"
            d="M11.4387 32.0034V42.3629C11.4387 43.2669 12.1716 43.9999 13.0757 43.9999H31.3779C35.0266 43.9999 37.9844 41.0421 37.9844 37.3934V32.0035L11.4387 32.0034Z"
            fill="url(#paint1_linear_1940_22843)" fill-opacity="0.1" />
        <path opacity="0.5"
            d="M31.3779 44.0001V39.0306C31.3779 38.1265 32.1109 37.3936 33.0149 37.3936H37.9845C37.9844 41.0423 35.0266 44.0001 31.3779 44.0001Z"
            fill="black" fill-opacity="0.2" />
        <path
            d="M20.7757 32.1519H27.4284C27.7533 32.1519 28.0167 32.4152 28.0167 32.7401C28.0167 33.065 27.7533 33.3283 27.4284 33.3283H20.7757C20.4509 33.3283 20.1875 33.065 20.1875 32.7401C20.1875 32.4152 20.4509 32.1519 20.7757 32.1519Z"
            fill="#00B26B" />
        <path
            d="M20.7757 29.5898H25.35C25.6749 29.5898 25.9382 29.8532 25.9382 30.1781C25.9382 30.5029 25.6749 30.7663 25.35 30.7663H20.7757C20.4509 30.7663 20.1875 30.5029 20.1875 30.1781C20.1875 29.8531 20.4509 29.5898 20.7757 29.5898Z"
            fill="#00B26B" />
        <path
            d="M34.5404 33.3283H29.7953C29.4704 33.3283 29.207 33.065 29.207 32.7401C29.207 32.4152 29.4704 32.1519 29.7953 32.1519H34.5404C34.8652 32.1519 35.1286 32.4152 35.1286 32.7401C35.1286 33.065 34.8652 33.3283 34.5404 33.3283Z"
            fill="#00B26B" />
        <path
            d="M32.4619 29.5898C32.7868 29.5898 33.0502 29.8532 33.0502 30.1781C33.0502 30.5029 32.7868 30.7663 32.4619 30.7663H29.7953C29.4704 30.7663 29.207 30.5029 29.207 30.1781C29.207 29.8532 29.4704 29.5898 29.7953 29.5898H32.4619Z"
            fill="#00B26B" />
        <path
            d="M27.0895 30.7663C26.7646 30.7663 26.5012 30.5029 26.5012 30.1781C26.5012 29.8532 26.7646 29.5898 27.0895 29.5898H27.7561C28.081 29.5898 28.3444 29.8532 28.3444 30.1781C28.3444 30.5029 28.081 30.7663 27.7561 30.7663H27.0895Z"
            fill="#00B26B" />
        <path
            d="M34.5405 27.8381H27.8878C27.5629 27.8381 27.2996 27.5747 27.2996 27.2499C27.2996 26.925 27.5629 26.6616 27.8878 26.6616H34.5405C34.8654 26.6616 35.1287 26.925 35.1287 27.2499C35.1287 27.5747 34.8654 27.8381 34.5405 27.8381Z"
            fill="#00B26B" />
        <path
            d="M32.4621 25.2761H27.8878C27.5629 25.2761 27.2996 25.0127 27.2996 24.6878C27.2996 24.363 27.5629 24.0996 27.8878 24.0996H32.4621C32.7869 24.0996 33.0503 24.363 33.0503 24.6878C33.0503 25.0127 32.7869 25.2761 32.4621 25.2761Z"
            fill="#00B26B" />
        <path
            d="M20.7757 26.6616H25.5208C25.8457 26.6616 26.1091 26.925 26.1091 27.2499C26.1091 27.5747 25.8457 27.8381 25.5208 27.8381H20.7757C20.4509 27.8381 20.1875 27.5747 20.1875 27.2499C20.1875 26.925 20.4509 26.6616 20.7757 26.6616Z"
            fill="#00B26B" />
        <path
            d="M20.7757 24.0996H23.4424C23.7673 24.0996 24.0306 24.363 24.0306 24.6878C24.0306 25.0127 23.7673 25.2761 23.4424 25.2761H20.7757C20.4509 25.2761 20.1875 25.0127 20.1875 24.6878C20.1875 24.3629 20.4509 24.0996 20.7757 24.0996Z"
            fill="#00B26B" />
        <path
            d="M25.4815 25.2761C25.1567 25.2761 24.8933 25.0127 24.8933 24.6878C24.8933 24.363 25.1567 24.0996 25.4815 24.0996H26.1482C26.4731 24.0996 26.7364 24.363 26.7364 24.6878C26.7364 25.0127 26.4731 25.2761 26.1482 25.2761H25.4815Z"
            fill="#00B26B" />
        <path
            d="M25.35 22.5046H20.7757C20.4509 22.5046 20.1875 22.2413 20.1875 21.9164C20.1875 21.5915 20.4509 21.3281 20.7757 21.3281H25.35C25.6749 21.3281 25.9382 21.5915 25.9382 21.9164C25.9382 22.2413 25.6749 22.5046 25.35 22.5046Z"
            fill="#00B26B" />
        <path
            d="M32.4619 22.5046H29.7953C29.4704 22.5046 29.207 22.2413 29.207 21.9164C29.207 21.5915 29.4704 21.3281 29.7953 21.3281H32.4619C32.7868 21.3281 33.0502 21.5915 33.0502 21.9164C33.0502 22.2413 32.7868 22.5046 32.4619 22.5046Z"
            fill="#00B26B" />
        <path
            d="M27.7561 22.5046H27.0895C26.7646 22.5046 26.5012 22.2413 26.5012 21.9164C26.5012 21.5915 26.7646 21.3281 27.0895 21.3281H27.7561C28.081 21.3281 28.3444 21.5915 28.3444 21.9164C28.3444 22.2413 28.081 22.5046 27.7561 22.5046Z"
            fill="#00B26B" />
        <path
            d="M20.7757 35.0928H24.1282C24.4531 35.0928 24.7164 35.3561 24.7164 35.681C24.7164 36.0059 24.4531 36.2692 24.1282 36.2692H20.7757C20.4509 36.2692 20.1875 36.0059 20.1875 35.681C20.1875 35.3561 20.4509 35.0928 20.7757 35.0928Z"
            fill="#00B26B" />
        <path
            d="M26.6783 35.0928H34.5406C34.8655 35.0928 35.1288 35.3561 35.1288 35.681C35.1288 36.0059 34.8655 36.2692 34.5406 36.2692H26.6783C26.3535 36.2692 26.0901 36.0059 26.0901 35.681C26.0901 35.3561 26.3535 35.0928 26.6783 35.0928Z"
            fill="#00B26B" />
        <path
            d="M17.5923 25.8092H15.4884C14.8301 25.8092 14.2947 25.2737 14.2947 24.6155V22.5116C14.2947 21.8533 14.8302 21.3179 15.4884 21.3179H17.5923C18.2506 21.3179 18.7861 21.8534 18.7861 22.5116V24.6155C18.7861 25.2737 18.2506 25.8092 17.5923 25.8092ZM15.4884 22.4943C15.4788 22.4943 15.4711 22.502 15.4711 22.5115V24.6154C15.4711 24.625 15.4789 24.6327 15.4884 24.6327H17.5923C17.6019 24.6327 17.6096 24.6249 17.6096 24.6154V22.5115C17.6096 22.502 17.6018 22.4943 17.5923 22.4943H15.4884Z"
            fill="#D8EDDD" />
        <path
            d="M17.5923 31.0441H15.4884C14.8301 31.0441 14.2947 30.5086 14.2947 29.8504V27.7465C14.2947 27.0883 14.8302 26.5527 15.4884 26.5527H17.5923C18.2506 26.5527 18.7861 27.0883 18.7861 27.7465V29.8504C18.7861 30.5086 18.2506 31.0441 17.5923 31.0441ZM15.4884 27.7291C15.4788 27.7291 15.4711 27.7369 15.4711 27.7464V29.8503C15.4711 29.8599 15.4789 29.8676 15.4884 29.8676H17.5923C17.6019 29.8676 17.6096 29.8598 17.6096 29.8503V27.7464C17.6096 27.7368 17.6018 27.7291 17.5923 27.7291H15.4884Z"
            fill="#D8EDDD" />
        <path
            d="M17.5923 36.279H15.4884C14.8301 36.279 14.2947 35.7434 14.2947 35.0852V32.9813C14.2947 32.323 14.8302 31.7876 15.4884 31.7876H17.5923C18.2506 31.7876 18.7861 32.3231 18.7861 32.9813V35.0852C18.7861 35.7434 18.2506 36.279 17.5923 36.279ZM15.4884 32.9641C15.4788 32.9641 15.4711 32.9718 15.4711 32.9813V35.0852C15.4711 35.0948 15.4789 35.1025 15.4884 35.1025H17.5923C17.6019 35.1025 17.6096 35.0947 17.6096 35.0852V32.9813C17.6096 32.9718 17.6018 32.9641 17.5923 32.9641H15.4884Z"
            fill="#D8EDDD" />
        <path
            d="M19.0319 19.9298C17.5678 19.9298 16.3145 19.4399 15.4883 18.5409C14.7716 17.7611 14.4413 16.7522 14.5582 15.6999C14.6857 14.5532 15.3347 13.5777 16.4354 12.8789C17.3088 12.3243 18.4516 11.9594 19.6534 11.8514C19.9767 11.8226 20.2629 12.061 20.292 12.3846C20.3211 12.7082 20.0823 12.9941 19.7588 13.0231C18.7403 13.1146 17.784 13.4161 17.066 13.872C16.2658 14.3801 15.8154 15.0389 15.7276 15.8298C15.6488 16.539 15.8715 17.2191 16.3545 17.7448C16.98 18.4254 17.9829 18.7831 19.1762 18.7513C22.2465 18.6705 24.902 16.4683 25.3651 14.5425C25.587 13.6193 25.4019 12.781 24.8297 12.1185C23.9193 11.0642 22.1319 10.5468 20.0481 10.7338C19.7247 10.7634 19.4387 10.5242 19.4096 10.2007C19.3805 9.87713 19.6192 9.59116 19.9428 9.56214C22.4396 9.33736 24.5454 9.9892 25.7201 11.3496C26.5385 12.2974 26.8186 13.529 26.5088 14.8175C25.8638 17.5001 22.5201 19.8401 19.2072 19.9274C19.1484 19.929 19.09 19.9298 19.0319 19.9298Z"
            fill="#FF6047" />
        <path
            d="M15.6528 24.7188C15.4975 24.7188 15.3476 24.6575 15.2369 24.5468L14.2434 23.5534C14.0136 23.3236 14.0136 22.9512 14.2433 22.7215C14.4731 22.4918 14.8456 22.4917 15.0752 22.7215L15.6025 23.2487C16.1964 22.5534 17.3822 21.3391 19.0404 20.4723C19.3284 20.3218 19.6838 20.4331 19.8342 20.7211C19.9847 21.0091 19.8734 21.3645 19.5854 21.5149C17.4476 22.6323 16.1465 24.4515 16.1336 24.4698C16.0335 24.6114 15.8758 24.702 15.703 24.7167C15.6863 24.718 15.6695 24.7188 15.6528 24.7188Z"
            fill="#FF6047" />
        <path
            d="M17.2998 29.9737C17.1445 29.9737 16.9945 29.9125 16.8839 29.8017L15.8904 28.8082C15.6606 28.5785 15.6606 28.2061 15.8903 27.9764C16.1201 27.7467 16.4926 27.7466 16.7221 27.9764L17.2494 28.5036C17.8434 27.8083 19.0292 26.594 20.6874 25.7272C20.9754 25.5767 21.3308 25.6881 21.4812 25.976C21.6317 26.2639 21.5203 26.6194 21.2324 26.7698C19.0946 27.8872 17.7934 29.7064 17.7806 29.7246C17.6805 29.8663 17.5228 29.9569 17.35 29.9716C17.3333 29.9729 17.3165 29.9737 17.2998 29.9737Z"
            fill="#FF6047" />
        <path
            d="M15.6919 35.5816C15.5366 35.5816 15.3866 35.5204 15.276 35.4096L14.2825 34.4161C14.0527 34.1864 14.0527 33.814 14.2824 33.5843C14.5122 33.3546 14.8847 33.3545 15.1142 33.5843L15.6415 34.1115C16.2355 33.4162 17.4213 32.2019 19.0795 31.3351C19.3675 31.1846 19.7229 31.296 19.8733 31.5839C20.0238 31.8718 19.9124 32.2273 19.6245 32.3777C17.4867 33.4951 16.1855 35.3143 16.1727 35.3325C16.0726 35.4742 15.9149 35.5648 15.7421 35.5795C15.7254 35.5808 15.7086 35.5816 15.6919 35.5816Z"
            fill="#FF6047" />
        <path
            d="M18.0132 17.8683C18.0132 17.8384 18.0231 17.7987 18.033 17.7588L19.8839 11.6888C19.9934 11.3405 20.4412 11.1714 20.8989 11.1714C21.3566 11.1714 21.8045 11.3406 21.9139 11.6888L23.7748 17.7588C23.7847 17.7986 23.7946 17.8384 23.7946 17.8683C23.7946 18.2365 23.2275 18.5052 22.7995 18.5052C22.5508 18.5052 22.3518 18.4256 22.292 18.2166L21.9537 16.9728H19.854L19.5157 18.2166C19.456 18.4256 19.2569 18.5052 19.0082 18.5052C18.5803 18.5052 18.0132 18.2366 18.0132 17.8683ZM21.6253 15.7787L20.8989 13.1119L20.1725 15.7787H21.6253Z"
            fill="#FF6047" />
    </g>
    <defs>
        <linearGradient id="paint0_linear_1940_22843" x1="43.4697" y1="24.3218" x2="37.1897"
            y2="24.3218" gradientUnits="userSpaceOnUse">
            <stop stop-color="#7BACDF" stop-opacity="0" />
            <stop offset="1" stop-color="#017297" />
        </linearGradient>
        <linearGradient id="paint1_linear_1940_22843" x1="24.7115" y1="32.0034" x2="24.7115"
            y2="43.9999" gradientUnits="userSpaceOnUse">
            <stop stop-color="#666666" stop-opacity="0" />
            <stop offset="1" />
        </linearGradient>
        <clipPath id="clip0_1940_22843">
            <rect width="40" height="40" fill="white" transform="translate(4.75 4)" />
        </clipPath>
    </defs>
</svg>
    