<svg width="32" height="32" viewBox="0 0 32 32" fill="none" xmlns="http://www.w3.org/2000/svg">
    <g clip-path="url(#clip0_3370_5742)">
        <mask id="mask0_3370_5742" style="mask-type:luminance" maskUnits="userSpaceOnUse" x="0"
            y="0" width="32" height="32">
            <path d="M0 -4.76837e-07H32V32H0L0 -4.76837e-07Z" fill="white" />
        </mask>
        <g mask="url(#mask0_3370_5742)">
            <path fill-rule="evenodd" clip-rule="evenodd"
                d="M27.2213 19.0108V23.7248V24.5749C27.2213 25.1841 26.7664 25.6832 26.2089 25.6877H5.79937H5.79164C5.23417 25.6832 4.7793 25.1842 4.7793 24.5749V23.7248V21.4933V19.0108V14.3771H27.2213V19.0108Z"
                fill="#FF9800" />
            <path fill-rule="evenodd" clip-rule="evenodd"
                d="M9.19832 12.3338H22.7995H24.9016H27.22C27.781 12.3338 28.24 12.8346 28.24 13.4466V17.8979C28.24 18.51 27.781 19.0108 27.22 19.0108C26.6589 19.0108 26.1999 18.51 26.1999 17.8979V17.7742V16.3843V16.242C26.1999 15.562 25.6898 15.0056 25.0665 15.0056C24.443 15.0056 23.933 15.562 23.933 16.242V16.3843C23.933 17.0644 23.4229 17.6208 22.7995 17.6208C22.1762 17.6208 21.6661 17.0644 21.6661 16.3843V16.242C21.6661 15.562 21.1561 15.0056 20.5327 15.0056C19.9093 15.0056 19.3992 15.562 19.3992 16.242V16.3843V17.4136C19.3992 18.0937 18.8892 18.6501 18.2658 18.6501C17.6424 18.6501 17.1324 18.0937 17.1324 17.4136V16.3843V16.242C17.1324 15.562 16.6223 15.0056 15.9989 15.0056C15.3756 15.0056 14.8655 15.562 14.8655 16.242V16.3843C14.8655 17.0644 14.3555 17.6208 13.732 17.6208C13.1087 17.6208 12.5986 17.0644 12.5986 16.3843V16.242C12.5986 15.562 12.0886 15.0056 11.4652 15.0056C10.8418 15.0056 10.3318 15.562 10.3318 16.242V16.3843V21.8651C10.3318 22.545 9.82173 23.1016 9.19832 23.1016C8.57491 23.1016 8.06485 22.5451 8.06485 21.8651V16.3843V16.242C8.06485 15.562 7.55484 15.0056 6.93143 15.0056C6.30808 15.0056 5.79802 15.562 5.79802 16.242V16.3843V17.7742V17.8979C5.79802 18.51 5.33897 19.0108 4.77794 19.0108C4.21685 19.0108 3.75781 18.51 3.75781 17.8979V13.4466C3.75781 12.8346 4.21685 12.3338 4.77794 12.3338H7.0963H9.19832Z"
                fill="white" />
            <path fill-rule="evenodd" clip-rule="evenodd"
                d="M16.0035 5.65677C16.6155 5.65677 17.1163 6.15754 17.1163 6.7696V12.3337H14.8906V6.7696C14.8906 6.16021 15.387 5.66116 15.9954 5.65677C15.9981 5.65677 16.0008 5.65677 16.0035 5.65677Z"
                fill="#FF9800" />
            <path fill-rule="evenodd" clip-rule="evenodd"
                d="M17.1154 5.20237C16.8115 5.50628 16.406 5.65434 16.0032 5.65674C16.0005 5.65674 15.9979 5.65674 15.9951 5.65674C15.5885 5.65718 15.1817 5.50573 14.8714 5.20237C13.791 4.14618 15.171 2.15812 15.9934 1.20548C16.8158 2.15812 18.2255 4.09232 17.1154 5.20237Z"
                fill="white" />
            <path fill-rule="evenodd" clip-rule="evenodd"
                d="M4.06641 24.5749C4.06641 25.5207 4.78724 26.3999 5.79869 26.3999H26.2006C27.2119 26.3999 27.9329 25.5207 27.9329 24.5749V19.0107C27.9329 18.6174 27.614 18.2985 27.2206 18.2985C26.8273 18.2985 26.5084 18.6174 26.5084 19.0107V24.5749C26.5084 24.8532 26.3111 24.9755 26.2006 24.9755H5.79869C5.68808 24.9755 5.49083 24.8532 5.49083 24.5749V19.0107C5.49083 18.6174 5.17196 18.2985 4.77862 18.2985C4.38527 18.2985 4.06641 18.6174 4.06641 19.0107V24.5749Z"
                fill="black" />
            <path fill-rule="evenodd" clip-rule="evenodd"
                d="M7.35391 21.865C7.35391 22.8789 8.1258 23.8137 9.19959 23.8137C10.2735 23.8137 11.0452 22.8786 11.0452 21.865V16.242C11.0452 15.8956 11.2935 15.7177 11.4664 15.7177C11.6394 15.7177 11.8877 15.8956 11.8877 16.242V16.3842C11.8877 17.398 12.6595 18.3329 13.7333 18.3329C14.8071 18.3329 15.579 17.398 15.579 16.3842V16.242C15.579 15.8956 15.8273 15.7177 16.0002 15.7177C16.1732 15.7177 16.4214 15.8956 16.4214 16.242V17.4136C16.4214 18.4274 17.1933 19.3622 18.267 19.3622C19.3409 19.3622 20.1127 18.4274 20.1127 17.4136V16.242C20.1127 15.8956 20.361 15.7177 20.5339 15.7177C20.7069 15.7177 20.9552 15.8956 20.9552 16.242V16.3842C20.9552 17.398 21.727 18.3329 22.8008 18.3329C23.8746 18.3329 24.6465 17.398 24.6465 16.3842V16.242C24.6465 15.8956 24.8948 15.7177 25.0677 15.7177C25.2406 15.7177 25.4889 15.8956 25.4889 16.242V17.8979C25.4889 18.8436 26.2098 19.7229 27.2212 19.7229C28.2326 19.7229 28.9535 18.8437 28.9535 17.8979V13.4465C28.9535 12.5006 28.2326 11.6215 27.2212 11.6215H26.5146C26.1213 11.6215 25.8024 11.9404 25.8024 12.3337C25.8024 12.7271 26.1213 13.0459 26.5146 13.0459H27.2212C27.3319 13.0459 27.5291 13.1683 27.5291 13.4465V17.8979C27.5291 18.1761 27.3319 18.2984 27.2212 18.2984C27.1105 18.2984 26.9133 18.1761 26.9133 17.8979V16.242C26.9133 15.2282 26.1415 14.2933 25.0677 14.2933C23.9938 14.2933 23.2221 15.2283 23.2221 16.242V16.3842C23.2221 16.7305 22.9738 16.9085 22.8008 16.9085C22.6278 16.9085 22.3796 16.7305 22.3796 16.3842V16.242C22.3796 15.2281 21.6077 14.2933 20.5339 14.2933C19.4601 14.2933 18.6883 15.2282 18.6883 16.242V17.4136C18.6883 17.7599 18.4401 17.9378 18.267 17.9378C18.0941 17.9378 17.8458 17.7599 17.8458 17.4136V16.242C17.8458 15.2282 17.0741 14.2933 16.0002 14.2933C14.9263 14.2933 14.1546 15.2283 14.1546 16.242V16.3842C14.1546 16.7305 13.9063 16.9085 13.7333 16.9085C13.5603 16.9085 13.3121 16.7305 13.3121 16.3842V16.242C13.3121 15.2281 12.5402 14.2933 11.4664 14.2933C10.3926 14.2933 9.6208 15.2282 9.6208 16.242V21.865C9.6208 22.2113 9.37251 22.3893 9.19959 22.3893C9.02657 22.3893 8.77833 22.2113 8.77833 21.865V20.1382C8.77833 19.7449 8.45946 19.426 8.06612 19.426C7.67278 19.426 7.35391 19.7449 7.35391 20.1382V21.865ZM4.77916 18.2984C4.66852 18.2984 4.4713 18.1761 4.4713 17.8979V13.4465C4.4713 13.1682 4.6685 13.0459 4.77916 13.0459H22.6773C23.0706 13.0459 23.3895 12.7271 23.3895 12.3337C23.3895 11.9404 23.0706 11.6215 22.6773 11.6215H4.77916C3.76775 11.6215 3.04688 12.5007 3.04688 13.4465V17.8979C3.04688 18.8436 3.76773 19.7229 4.77916 19.7229C5.79067 19.7229 6.51144 18.8436 6.51144 17.8979V16.242C6.51144 15.8957 6.75972 15.7177 6.9327 15.7177C7.10566 15.7177 7.35391 15.8956 7.35391 16.242V16.3009C7.35391 16.6942 7.67278 17.0131 8.06612 17.0131C8.45946 17.0131 8.77833 16.6942 8.77833 16.3009V16.242C8.77833 15.2282 8.00656 14.2933 6.9327 14.2933C5.85887 14.2933 5.08702 15.2282 5.08702 16.242V17.8979C5.08702 18.1761 4.88983 18.2984 4.77916 18.2984ZM8.06612 19.2518C8.45946 19.2518 8.77833 18.933 8.77833 18.5396V18.5246C8.77833 18.1313 8.45946 17.8124 8.06612 17.8124C7.67278 17.8124 7.35391 18.1313 7.35391 18.5246V18.5396C7.35391 18.933 7.67278 19.2518 8.06612 19.2518ZM24.1888 12.3337C24.1888 12.7271 24.5077 13.0459 24.901 13.0459H24.916C25.3094 13.0459 25.6282 12.7271 25.6282 12.3337C25.6282 11.9404 25.3094 11.6215 24.916 11.6215H24.901C24.5077 11.6215 24.1888 11.9404 24.1888 12.3337Z"
                fill="black" />
            <path fill-rule="evenodd" clip-rule="evenodd"
                d="M1.59961 25.6877C1.59961 26.081 1.91848 26.3999 2.31182 26.3999H29.6874C30.0807 26.3999 30.3996 26.081 30.3996 25.6877C30.3996 25.2944 30.0807 24.9755 29.6874 24.9755H2.31182C1.91848 24.9755 1.59961 25.2944 1.59961 25.6877Z"
                fill="black" />
            <path fill-rule="evenodd" clip-rule="evenodd"
                d="M17.401 23.8461C17.7941 23.8344 18.1034 23.5063 18.0917 23.1131L18.0726 22.4662C18.0609 22.073 17.7327 21.7638 17.3395 21.7754C16.9464 21.7871 16.6371 22.1153 16.6488 22.5085L16.668 23.1553C16.6796 23.5485 17.0078 23.8578 17.401 23.8461Z"
                fill="black" />
            <path fill-rule="evenodd" clip-rule="evenodd"
                d="M14.5265 21.4656C14.713 21.1193 14.5834 20.6873 14.237 20.5009L13.6672 20.1941C13.3208 20.0076 12.8889 20.1372 12.7024 20.4836C12.516 20.8299 12.6456 21.2618 12.9919 21.4483L13.5618 21.7551C13.9081 21.9415 14.3401 21.8119 14.5265 21.4656Z"
                fill="black" />
            <path fill-rule="evenodd" clip-rule="evenodd"
                d="M19.6097 20.5047C19.6214 20.8979 19.9495 21.2071 20.3427 21.1955L20.9897 21.1763C21.3828 21.1646 21.6921 20.8364 21.6804 20.4433C21.6688 20.0501 21.3406 19.7408 20.9474 19.7525L20.3005 19.7717C19.9073 19.7834 19.598 20.1115 19.6097 20.5047Z"
                fill="black" />
            <path fill-rule="evenodd" clip-rule="evenodd"
                d="M24.6962 23.3582C25.0308 23.1516 25.1346 22.7127 24.9279 22.378L24.5878 21.8274C24.3811 21.4928 23.9422 21.389 23.6076 21.5957C23.2729 21.8024 23.1692 22.2413 23.3759 22.5759L23.716 23.1265C23.9227 23.4612 24.3615 23.5649 24.6962 23.3582Z"
                fill="black" />
            <path fill-rule="evenodd" clip-rule="evenodd"
                d="M6.22787 22.859C6.49764 22.5727 6.48427 22.122 6.19801 21.8522L5.26707 20.9749C4.98081 20.7052 4.53007 20.7185 4.2603 21.0048C3.99053 21.2911 4.0039 21.7418 4.29016 22.0116L5.2211 22.8889C5.50736 23.1586 5.95811 23.1453 6.22787 22.859Z"
                fill="black" />
            <path fill-rule="evenodd" clip-rule="evenodd"
                d="M14.1777 12.3337C14.1777 12.727 14.4966 13.0459 14.8899 13.0459H17.1156C17.5089 13.0459 17.8278 12.727 17.8278 12.3337V6.76955C17.8278 5.76415 17.0082 4.94451 16.0028 4.94451C14.9974 4.94451 14.1777 5.76415 14.1777 6.76955V12.3337ZM15.6022 11.6215V6.76955C15.6022 6.55083 15.7841 6.36893 16.0028 6.36893C16.2215 6.36893 16.4034 6.55083 16.4034 6.76955V11.6215H15.6022Z"
                fill="black" />
            <path fill-rule="evenodd" clip-rule="evenodd"
                d="M16.0065 6.3691C15.4196 6.3726 14.8261 6.15516 14.3725 5.71183C13.5007 4.85946 13.7212 3.70284 14.0608 2.89056C14.4159 2.04118 15.0223 1.23958 15.4534 0.740225C15.5887 0.583514 15.7854 0.49343 15.9925 0.493434C16.1995 0.493437 16.3963 0.583528 16.5316 0.740243C16.9559 1.23176 17.5725 2.02061 17.9332 2.86546C18.2839 3.68711 18.4923 4.83195 17.6181 5.70614C17.169 6.15523 16.578 6.3657 16.0065 6.3691ZM15.3683 4.69327C15.5395 4.86063 15.7662 4.94609 15.998 4.9447C16.2321 4.94331 16.4521 4.85766 16.6109 4.69893C16.8467 4.46307 16.9053 4.08578 16.6231 3.42466C16.4677 3.06065 16.2384 2.69121 15.9962 2.3554C15.7567 2.69465 15.5293 3.07087 15.375 3.43996C15.0891 4.12389 15.1598 4.48944 15.3683 4.69327Z"
                fill="black" />
        </g>
    </g>
    <defs>
        <clipPath id="clip0_3370_5742">
            <rect width="32" height="32" fill="white" />
        </clipPath>
    </defs>
</svg>