<svg width="40" height="40" viewBox="0 0 40 40" fill="none" xmlns="http://www.w3.org/2000/svg">
    <path
        d="M9.67242 20.7465L3.50781 14.5819L8.75594 9.33373C12.1605 5.92912 17.6805 5.92912 21.0851 9.33373L9.67242 20.7465Z"
        fill="#FF9800" />
    <path
        d="M3.50781 14.5818L9.67242 20.7464L11.3548 19.0639C11.1772 18.736 10.9509 18.4296 10.6774 18.1561L5.30547 12.7842L3.50781 14.5818Z"
        fill="black" fill-opacity="0.1" />
    <path
        d="M30.3268 19.2539L36.4914 25.4185L31.2433 30.6666C27.8387 34.0712 22.3187 34.0712 18.9141 30.6666L30.3268 19.2539Z"
        fill="#00B26B" />
    <path
        d="M28.6445 20.9362C28.8222 21.2642 29.0484 21.5705 29.322 21.8441L34.6939 27.2161L36.4915 25.4185L30.3269 19.2539L28.6445 20.9362Z"
        fill="black" fill-opacity="0.1" />
    <path
        d="M13.7501 10.752C8.59222 17.5294 12.9364 33.5801 28.7213 26.9618C30.2467 25.0532 31.1592 22.6334 31.1592 20.0002C31.1592 13.8365 26.1625 8.83984 19.9989 8.83984C17.6836 8.83977 15.5331 9.54484 13.7501 10.752Z"
        fill="#FFD768" />
    <path
        d="M8.83984 20.0002C8.83984 26.1638 13.8365 31.1605 20.0002 31.1605C23.5305 31.1605 26.6776 29.5207 28.7226 26.9618C12.4165 28.9427 11.3373 15.6094 13.7514 10.752C10.7878 12.7584 8.83984 16.1517 8.83984 20.0002Z"
        fill="#FFD768" />
    <path
        d="M19.9982 12.1084C16.8194 12.1084 14.0801 13.9882 12.8298 16.6964C12.2956 22.3552 16.594 27.8914 23.5289 27.0589C26.1145 25.7631 27.8897 23.0889 27.8897 19.9999C27.8897 15.6416 24.3565 12.1084 19.9982 12.1084Z"
        fill="#FFEC9F" />
    <path
        d="M23.5316 27.0587C16.0247 26.2844 13.238 21.2493 12.8326 16.6963C12.3687 17.7013 12.1094 18.8202 12.1094 19.9998C12.1094 24.3582 15.6425 27.8914 20.0009 27.8914C21.2702 27.8913 22.4692 27.5911 23.5316 27.0587Z"
        fill="#FFEC9F" />
    <path
        d="M0 14.7542V20.4786C0 21.6861 0.978828 22.6649 2.18633 22.6649H7.9107C9.46172 22.6649 10.2385 20.7896 9.14172 19.6929L2.97195 13.5232C1.87523 12.4264 0 13.2032 0 14.7542Z"
        fill="#FF9800" />
    <path
        d="M39.9989 25.2457V19.5213C39.9989 18.3138 39.0201 17.335 37.8126 17.335H32.0882C30.5372 17.335 29.7604 19.2102 30.8572 20.3069L37.0269 26.4767C38.1237 27.5734 39.9989 26.7967 39.9989 25.2457Z"
        fill="#00B26B" />
    <path
        d="M21.0665 19.3995C20.8917 19.3377 20.7126 19.2728 20.5343 19.2052V16.3718C20.9873 16.4774 21.2575 16.7068 21.2806 16.7271C21.5187 16.9428 21.8865 16.9265 22.1047 16.69C22.324 16.4521 22.3091 16.0814 22.0712 15.8621C22.0374 15.8308 21.4674 15.3175 20.5343 15.1799V14.5967C20.5343 14.2731 20.2719 14.0107 19.9483 14.0107C19.6247 14.0107 19.3624 14.2731 19.3624 14.5967V15.2248C19.2719 15.2446 19.18 15.2675 19.086 15.2957C17.2882 15.8373 16.8345 18.2709 18.1272 19.2848C18.4395 19.5298 18.8287 19.7542 19.3624 19.9914V23.5774C18.8953 23.5444 18.5752 23.4325 18.0474 23.0873C17.7765 22.9101 17.4133 22.9861 17.2363 23.2568C17.0591 23.5276 17.1351 23.8908 17.4058 24.0679C18.1683 24.5667 18.6884 24.7139 19.3624 24.7509V25.4037C19.3624 25.7273 19.6247 25.9896 19.9483 25.9896C20.2719 25.9896 20.5343 25.7273 20.5343 25.4037V24.7046C21.8702 24.4461 22.6505 23.3461 22.8232 22.3187C23.0447 21.001 22.3552 19.855 21.0665 19.3995ZM19.3624 18.6887C19.1695 18.5847 18.9951 18.4763 18.8505 18.3629C18.324 17.95 18.5202 16.7461 19.3624 16.4394V18.6887ZM20.5343 23.4894V20.4536C20.5812 20.4705 20.6275 20.4872 20.676 20.5044C22.2333 21.0548 21.8435 23.0328 20.5343 23.4894Z"
        fill="#FF9800" />
</svg>
    