<svg width="32" height="32" viewBox="0 0 32 32" fill="none" xmlns="http://www.w3.org/2000/svg">
    <path
        d="M30.6664 6C30.6664 4.89544 29.7709 4 28.6664 4H23.6317C22.7892 1.60981 20.534 0.008125 17.9997 0H13.9997C11.4654 0.008125 9.2102 1.60981 8.3677 4H3.33301C2.22845 4 1.33301 4.89544 1.33301 6C1.33301 7.10456 2.22845 8 3.33301 8H3.9997V24.6667C3.9997 28.7167 7.28295 32 11.333 32H20.6663C24.7164 32 27.9997 28.7167 27.9997 24.6667V8H28.6664C29.7709 8 30.6664 7.10456 30.6664 6ZM23.9997 24.6667C23.9997 26.5076 22.5073 28 20.6664 28H11.333C9.49207 28 7.9997 26.5076 7.9997 24.6667V8H23.9997V24.6667Z"
        fill="#252525" />
    <path
        d="M12.666 24C13.7706 24 14.666 23.1046 14.666 22V14C14.666 12.8954 13.7706 12 12.666 12C11.5615 12 10.666 12.8954 10.666 14V22C10.666 23.1046 11.5615 24 12.666 24Z"
        fill="#252525" />
    <path
        d="M19.333 24C20.4376 24 21.333 23.1046 21.333 22V14C21.333 12.8954 20.4376 12 19.333 12C18.2284 12 17.333 12.8954 17.333 14V22C17.333 23.1046 18.2284 24 19.333 24Z"
        fill="#252525" />
</svg>
    