<svg width="200" height="200" viewBox="0 0 200 200" fill="none" xmlns="http://www.w3.org/2000/svg">
    <g filter="url(#filter0_b_3341_130168)">
        <path
            d="M99.3113 188.623C148.637 188.623 188.623 148.637 188.623 99.3113C188.623 49.986 148.637 10 99.3113 10C49.986 10 10 49.986 10 99.3113C10 148.637 49.986 188.623 99.3113 188.623Z"
            fill="white" fill-opacity="0.1" />
    </g>
    <path opacity="0.4"
        d="M100.484 187.265C51.1585 187.265 11.1729 147.278 11.1729 97.9539C11.1729 87.3084 13.0432 77.1027 16.4601 67.6353C12.607 77.6136 10.4727 88.4464 10.4727 99.7834C10.4727 149.109 50.4583 189.095 99.7843 189.095C138.464 189.095 171.393 164.502 183.808 130.102C170.899 163.537 138.472 187.265 100.484 187.265Z"
        fill="#BFE6FF" />
    <path
        d="M158.531 107.226V147.242C158.531 149.054 156.593 150.293 154.805 149.627C146.443 146.477 137.584 144.852 128.648 144.829C119.315 144.829 109.984 146.636 100.873 150.253C100.203 150.522 99.4878 150.661 98.7656 150.663C98.0429 150.661 97.3271 150.522 96.6562 150.253C78.9778 143.237 60.4584 143.028 42.7266 149.627C40.9383 150.293 39 149.054 39 147.242V107.226C39.0077 106.573 39.2119 105.938 39.586 105.402C39.9601 104.867 40.4867 104.457 41.0972 104.226C50.213 100.607 59.5451 98.8003 68.88 98.8003C78.9333 98.8003 88.9894 100.897 98.7656 105.092C117.625 97.0017 137.506 96.7139 156.434 104.225C157.045 104.456 157.572 104.866 157.946 105.402C158.32 105.937 158.524 106.573 158.531 107.226Z"
        fill="url(#paint0_linear_3341_130168)" />
    <path
        d="M154.805 144.373C146.443 141.223 137.584 139.598 128.648 139.575C119.315 139.575 109.984 141.382 100.873 144.999C99.5212 145.546 98.0093 145.546 96.6572 144.999C78.9778 137.983 60.4584 137.774 42.7266 144.373C40.9383 145.039 39 143.8 39 141.988V147.242C39 149.054 40.9383 150.293 42.7266 149.627C60.4584 143.028 78.9778 143.237 96.6562 150.253C98.0084 150.8 99.5203 150.8 100.872 150.253C109.983 146.636 119.314 144.829 128.648 144.829C137.583 144.851 146.442 146.476 154.804 149.627C156.591 150.293 158.53 149.054 158.53 147.242V141.988C158.531 143.8 156.593 145.039 154.805 144.373Z"
        fill="url(#paint1_linear_3341_130168)" />
    <path
        d="M155.102 105.857V139.275C155.102 139.694 154.999 140.106 154.803 140.476C154.607 140.846 154.323 141.162 153.977 141.397C153.631 141.632 153.232 141.779 152.816 141.825C152.4 141.871 151.979 141.814 151.59 141.66C143.486 138.46 135.212 136.862 126.935 136.862C118.799 136.885 110.737 138.398 103.146 141.326C101.748 141.864 100.264 142.142 98.7657 142.147C97.2661 142.141 95.78 141.862 94.3803 141.324C78.4431 135.265 61.8573 135.378 45.9416 141.66C45.5524 141.814 45.1314 141.871 44.7152 141.825C44.2991 141.779 43.9005 141.632 43.5542 141.397C43.2078 141.162 42.9243 140.845 42.7283 140.475C42.5323 140.105 42.4298 139.693 42.4297 139.274V105.857C42.4277 105.218 42.6141 104.592 42.9657 104.059C43.3173 103.525 43.8185 103.107 44.4064 102.857C52.9984 99.2376 61.7987 97.431 70.5964 97.431C80.0738 97.431 89.5487 99.5282 98.7657 103.723C116.542 95.6327 135.283 95.3446 153.125 102.856C153.713 103.106 154.214 103.524 154.566 104.058C154.918 104.592 155.104 105.217 155.102 105.857Z"
        fill="url(#paint2_linear_3341_130168)" />
    <path
        d="M155.102 105.857V139.275C155.102 139.694 154.999 140.106 154.803 140.476C154.607 140.846 154.323 141.162 153.977 141.397C153.631 141.632 153.232 141.779 152.816 141.825C152.4 141.871 151.979 141.814 151.59 141.66C143.486 138.46 135.212 136.862 126.935 136.862C118.799 136.885 110.737 138.398 103.146 141.326C101.748 141.864 100.264 142.142 98.7657 142.147C97.2661 142.141 95.78 141.862 94.3803 141.324C78.4431 135.265 61.8573 135.378 45.9416 141.66C45.5524 141.814 45.1314 141.871 44.7152 141.825C44.2991 141.779 43.9005 141.632 43.5542 141.397C43.2078 141.162 42.9243 140.845 42.7283 140.475C42.5323 140.105 42.4298 139.693 42.4297 139.274V105.857C42.4277 105.218 42.6141 104.592 42.9657 104.059C43.3173 103.525 43.8185 103.107 44.4064 102.857C52.9984 99.2376 61.7987 97.431 70.5964 97.431C80.0738 97.431 89.5487 99.5282 98.7657 103.723C116.542 95.6327 135.283 95.3446 153.125 102.856C153.713 103.106 154.214 103.524 154.566 104.058C154.918 104.592 155.104 105.217 155.102 105.857Z"
        fill="url(#paint3_linear_3341_130168)" />
    <path
        d="M155.102 103.718V137.136C155.102 137.555 154.999 137.967 154.803 138.337C154.607 138.707 154.324 139.024 153.977 139.259C153.631 139.494 153.232 139.641 152.816 139.687C152.4 139.732 151.979 139.676 151.59 139.521C143.486 136.322 135.212 134.724 126.935 134.724C118.799 134.747 110.737 136.26 103.146 139.188C101.748 139.726 100.264 140.004 98.7657 140.009C97.2661 140.003 95.78 139.724 94.3803 139.186C78.4428 133.125 61.857 133.238 45.9413 139.521C45.5522 139.675 45.1313 139.731 44.7153 139.686C44.2993 139.64 43.9008 139.493 43.5545 139.258C43.2082 139.023 42.9247 138.706 42.7287 138.337C42.5326 137.967 42.43 137.555 42.4297 137.136V103.718C42.4277 103.079 42.6141 102.454 42.9657 101.92C43.3173 101.386 43.8185 100.968 44.4064 100.718C52.9984 97.0994 61.7987 95.2926 70.5964 95.2926C80.0738 95.2926 89.5487 97.39 98.7657 101.584C116.542 93.4942 135.283 93.2064 153.125 100.717C153.713 100.968 154.214 101.386 154.566 101.92C154.918 102.453 155.104 103.079 155.102 103.718Z"
        fill="url(#paint4_linear_3341_130168)" />
    <path
        d="M42.4297 102.074V135.492C42.4298 135.911 42.5323 136.323 42.7283 136.693C42.9243 137.063 43.2079 137.379 43.5542 137.614C43.9006 137.85 44.2992 137.996 44.7154 138.042C45.1316 138.088 45.5526 138.031 45.9418 137.877C54.0456 134.678 62.3197 133.079 70.5964 133.079C78.7322 133.102 86.7949 134.616 94.3855 137.544C95.7836 138.081 97.2679 138.359 98.7657 138.364C100.265 138.358 101.751 138.079 103.151 137.541C119.089 131.481 135.674 131.593 151.59 137.876C151.979 138.03 152.4 138.087 152.816 138.041C153.233 137.995 153.631 137.848 153.978 137.613C154.324 137.378 154.607 137.061 154.803 136.692C154.999 136.322 155.102 135.909 155.102 135.491V102.074C155.104 101.435 154.918 100.809 154.566 100.276C154.214 99.7421 153.713 99.324 153.125 99.0738C144.533 95.4548 135.733 93.6482 126.935 93.6482C117.458 93.6482 107.983 95.7454 98.766 99.94C80.9898 91.8498 62.2487 91.5618 44.4067 99.0728C43.8185 99.3231 43.3172 99.7413 42.9656 100.275C42.6139 100.809 42.4275 101.435 42.4297 102.074Z"
        fill="url(#paint5_linear_3341_130168)" />
    <path
        d="M44.4052 96.3764C43.8177 96.6267 43.3169 97.0447 42.9655 97.578C42.6142 98.1114 42.4278 98.7365 42.4297 99.3752V132.793C42.4298 133.212 42.5324 133.625 42.7285 133.995C42.9246 134.365 43.2082 134.681 43.5547 134.916C43.9011 135.152 44.2999 135.299 44.7162 135.345C45.1324 135.39 45.5536 135.334 45.943 135.179C63.3242 128.315 81.5021 128.814 98.7657 136.672V97.2419C80.9912 89.152 62.2499 88.8616 44.4052 96.3764Z"
        fill="url(#paint6_linear_3341_130168)" />
    <path
        d="M91.2785 102.388C85.2081 100.716 78.9712 99.7211 72.6818 99.4218C72.4347 99.4145 72.1886 99.4568 71.9582 99.5464C71.7277 99.6359 71.5176 99.7709 71.3403 99.9432C71.1631 100.116 71.0222 100.322 70.9262 100.55C70.8301 100.777 70.7809 101.022 70.7813 101.269C70.7882 101.772 70.9905 102.252 71.3453 102.608C71.7 102.964 72.1794 103.168 72.6818 103.176C78.9712 103.476 85.2081 104.471 91.2785 106.143C92.2955 106.444 93.1144 105.872 93.1144 104.835C93.0889 104.291 92.9003 103.766 92.5729 103.329C92.2455 102.893 91.7946 102.565 91.2785 102.388Z"
        fill="#FF9800" />
    <path
        d="M49.9179 106.143C52.6912 105.322 55.5108 104.667 58.362 104.181C58.8763 104.087 59.3432 103.821 59.6856 103.426C60.028 103.031 60.2254 102.531 60.2452 102.008C60.2533 101.772 60.2074 101.536 60.111 101.319C60.0146 101.103 59.8702 100.911 59.6887 100.759C59.5073 100.606 59.2935 100.497 59.0637 100.44C58.8338 100.382 58.5938 100.378 58.362 100.427C55.5109 100.912 52.6913 101.567 49.9181 102.388C49.402 102.565 48.951 102.893 48.6236 103.329C48.2962 103.766 48.1075 104.29 48.082 104.835C48.082 105.872 48.9009 106.444 49.9179 106.143Z"
        fill="#FF9800" />
    <path
        d="M63.0157 101.665C63.0135 101.906 63.0626 102.144 63.1597 102.365C63.2568 102.585 63.3997 102.783 63.5789 102.944C63.7581 103.105 63.9695 103.226 64.1991 103.299C64.4287 103.373 64.6712 103.396 64.9106 103.369C65.7703 103.301 66.1997 103.275 67.0615 103.232C67.5665 103.212 68.0445 102.999 68.3977 102.637C68.7508 102.275 68.9525 101.792 68.9613 101.287C68.9627 101.041 68.9139 100.798 68.8177 100.572C68.7216 100.345 68.5802 100.141 68.4022 99.9718C68.2243 99.8023 68.0136 99.6709 67.783 99.5859C67.5524 99.5008 67.3069 99.4638 67.0615 99.4771C66.2006 99.5189 65.7703 99.5461 64.9106 99.6136C64.3982 99.6635 63.922 99.9 63.5726 100.278C63.2232 100.656 63.025 101.15 63.0157 101.665Z"
        fill="#FF9800" />
    <path
        d="M68.5146 108.266C62.2252 108.565 55.9883 109.56 49.9179 111.232C49.4018 111.409 48.9508 111.737 48.6235 112.174C48.2961 112.61 48.1075 113.135 48.082 113.68C48.082 114.716 48.9009 115.288 49.9181 114.987C55.9884 113.315 62.2253 112.32 68.5146 112.021C69.0171 112.012 69.4964 111.808 69.8512 111.452C70.2059 111.096 70.4083 110.616 70.4154 110.114C70.4157 109.867 70.3664 109.622 70.2704 109.394C70.1743 109.166 70.0334 108.96 69.8562 108.787C69.6789 108.615 69.4688 108.48 69.2383 108.391C69.0079 108.301 68.7618 108.259 68.5146 108.266Z"
        fill="#FF9800" />
    <path
        d="M76.2853 108.458C75.4257 108.391 74.9963 108.365 74.1342 108.322C73.8888 108.309 73.6433 108.346 73.4127 108.431C73.1822 108.516 72.9714 108.647 72.7935 108.817C72.6155 108.986 72.4741 109.19 72.378 109.416C72.2819 109.643 72.233 109.886 72.2344 110.132C72.2433 110.637 72.445 111.12 72.7981 111.482C73.1513 111.843 73.6292 112.056 74.1342 112.077C74.9953 112.119 75.4254 112.147 76.2853 112.214C76.5247 112.241 76.7672 112.218 76.9968 112.144C77.2264 112.071 77.4377 111.95 77.6169 111.789C77.796 111.628 77.9389 111.43 78.036 111.21C78.1331 110.989 78.1822 110.75 78.18 110.509C78.1707 109.995 77.9725 109.501 77.6232 109.123C77.2738 108.745 76.7977 108.508 76.2853 108.458Z"
        fill="#FF9800" />
    <path
        d="M153.126 96.3764C135.283 88.8635 116.542 89.1501 98.7656 97.2419V136.672C116.031 128.813 134.209 128.316 151.589 135.179C151.978 135.334 152.399 135.39 152.815 135.345C153.232 135.299 153.63 135.152 153.977 134.916C154.323 134.681 154.607 134.365 154.803 133.995C154.999 133.625 155.102 133.212 155.102 132.793C155.102 109.232 155.102 122.937 155.102 99.3754C155.104 98.7367 154.917 98.1115 154.566 97.5781C154.214 97.0447 153.714 96.6267 153.126 96.3764Z"
        fill="url(#paint7_linear_3341_130168)" />
    <path
        d="M124.14 119.232C117.85 119.531 111.613 120.526 105.543 122.198C105.027 122.375 104.576 122.703 104.248 123.139C103.921 123.576 103.732 124.1 103.707 124.645C103.707 125.682 104.526 126.254 105.543 125.953C111.613 124.28 117.85 123.286 124.14 122.986C124.642 122.977 125.121 122.774 125.476 122.418C125.831 122.062 126.033 121.582 126.04 121.079C126.041 120.832 125.991 120.587 125.895 120.359C125.799 120.132 125.658 119.925 125.481 119.753C125.304 119.581 125.094 119.446 124.863 119.356C124.633 119.267 124.387 119.224 124.14 119.232Z"
        fill="#FF9800" />
    <path
        d="M131.91 119.424C131.051 119.357 130.621 119.33 129.759 119.288C129.514 119.274 129.268 119.311 129.038 119.396C128.807 119.481 128.597 119.613 128.419 119.782C128.241 119.952 128.099 120.156 128.003 120.382C127.907 120.608 127.858 120.852 127.859 121.098C127.868 121.603 128.07 122.086 128.423 122.448C128.776 122.809 129.254 123.022 129.759 123.043C130.62 123.085 131.051 123.113 131.91 123.179C132.15 123.207 132.392 123.183 132.622 123.11C132.851 123.037 133.063 122.916 133.242 122.754C133.421 122.593 133.564 122.396 133.661 122.175C133.758 121.955 133.807 121.716 133.805 121.475C133.796 120.96 133.598 120.467 133.248 120.089C132.899 119.71 132.423 119.474 131.91 119.424Z"
        fill="#FF9800" />
    <path
        d="M131.539 111.062L154.678 134.201C154.955 133.784 155.103 133.294 155.101 132.793C155.101 114.992 155.101 118.462 155.101 111.062H131.539Z"
        fill="url(#paint8_linear_3341_130168)" />
    <path
        d="M155.103 105.179V119.733C155.105 119.094 154.918 118.469 154.567 117.936C154.215 117.403 153.715 116.985 153.127 116.735C151.292 115.962 149.446 115.272 147.591 114.666C144.917 113.784 142.226 112.844 139.526 112.312C137.238 111.86 134.927 111.529 132.603 111.323C132.173 111.286 131.774 111.089 131.483 110.771C131.192 110.453 131.03 110.038 131.03 109.607L131.264 105.057C131.264 87.2069 116.425 71.8762 98.5757 71.9793C92.4909 72.0055 86.5379 73.7537 81.4053 77.0219C76.2726 80.29 72.1701 84.9445 69.5723 90.4469C66.3954 90.4967 63.2265 90.7819 60.0918 91.3C57.0965 91.7922 54.1082 93.007 51.1387 93.925C48.8545 94.6295 46.6071 95.4484 44.4051 96.3785C43.7485 96.6551 43.2026 97.1425 42.8535 97.7636C46.2606 70.067 69.7691 48.5906 98.3352 48.3766C129.557 48.1427 155.103 73.9572 155.103 105.179Z"
        fill="url(#paint9_linear_3341_130168)" />
    <path
        d="M51.5608 73.9518C46.8762 81.1186 43.8974 89.2642 42.8535 97.7624C43.2026 97.1413 43.7485 96.6539 44.4051 96.3773C46.6071 95.4478 48.8545 94.6296 51.1387 93.9257C54.0711 93.0169 57.0626 92.3106 60.0918 91.8116C63.2265 91.2935 66.3954 91.0083 69.5723 90.9585C73.3734 82.9005 80.182 76.4408 88.7823 73.7174L51.5608 73.9518Z"
        fill="url(#paint10_linear_3341_130168)" />
    <path
        d="M147.591 105.126V114.665C144.949 113.793 142.256 113.086 139.526 112.547C137.238 112.094 134.927 111.764 132.603 111.558C132.173 111.52 131.774 111.323 131.483 111.005C131.192 110.687 131.03 110.272 131.03 109.841V105.057C131.03 87.2069 116.425 71.8762 98.5757 71.9793C85.7566 72.0534 74.7079 80.0716 69.5723 90.9586C66.3954 91.0084 63.2265 91.2935 60.0918 91.8117C57.0626 92.3106 54.0711 93.017 51.1387 93.9257C56.0793 72.0035 75.7703 55.6692 99.2348 55.8888C126.084 56.1403 147.591 78.2751 147.591 105.126Z"
        fill="url(#paint11_linear_3341_130168)" />
    <path
        d="M60.8491 73.9518C56.1151 79.7717 52.7916 86.6079 51.1387 93.9257C54.0711 93.0169 57.0626 92.3106 60.0918 91.8116C63.2265 91.2935 66.3954 91.0083 69.5723 90.9585C71.471 86.9401 74.1774 83.356 77.5228 80.43C80.8681 77.5039 84.7806 75.2987 89.016 73.9518H60.8491Z"
        fill="url(#paint12_linear_3341_130168)" />
    <path
        d="M139.526 104.712V112.547C137.238 112.094 134.927 111.764 132.603 111.558C132.173 111.52 131.774 111.323 131.483 111.005C131.192 110.688 131.03 110.272 131.03 109.841V105.057C131.03 87.2069 116.425 72.3449 98.5757 72.4481C92.4873 72.4826 86.533 74.2391 81.4007 77.5146C76.2684 80.7901 72.1676 85.4509 69.5723 90.9585C66.3954 91.0083 63.2265 91.2935 60.0918 91.8117C63.1551 82.6308 69.385 74.8394 77.6669 69.8312C85.9488 64.8231 95.7424 62.9249 105.296 64.4763C114.849 66.0278 123.539 70.9276 129.81 78.2992C136.081 85.6708 139.526 95.0333 139.526 104.712Z"
        fill="url(#paint13_linear_3341_130168)" />
    <path
        d="M72.0229 73.9518C66.5224 78.7326 62.4026 84.8994 60.0918 91.8112C63.2265 91.293 66.3954 91.0078 69.5723 90.958C71.4709 86.9398 74.1773 83.3559 77.5224 80.4299C80.8676 77.504 84.7799 75.2987 89.0151 73.9518H72.0229Z"
        fill="url(#paint14_linear_3341_130168)" />
    <path
        d="M99.7838 189.568C149.37 189.568 189.568 149.37 189.568 99.7838C189.568 50.1976 149.37 10 99.7838 10C50.1976 10 10 50.1976 10 99.7838C10 149.37 50.1976 189.568 99.7838 189.568Z"
        fill="white" fill-opacity="0.1" />
    <path
        d="M86.4287 29.456C136.068 29.456 176.31 69.7591 176.31 119.476C176.31 134.071 172.82 147.842 166.664 160.033C180.901 144.106 189.568 123.08 189.568 100.02C189.568 50.304 149.327 10 99.6867 10C64.6198 10 34.2645 30.1272 19.4512 59.4632C35.9089 41.0517 59.8124 29.456 86.4287 29.456Z"
        fill="white" fill-opacity="0.1" />
    <g style="mix-blend-mode:plus-lighter">
        <path
            d="M122.643 145.527C72.9159 145.527 32.6056 105.298 32.6056 55.6729C32.6056 49.746 33.1967 43.9588 34.2934 38.3528C19.2344 54.4143 10 75.9826 10 99.7135C10 149.339 50.3116 189.568 100.038 189.568C143.824 189.568 180.296 158.369 188.386 117.034C171.956 134.559 148.589 145.527 122.643 145.527Z"
            fill="url(#paint15_radial_3341_130168)" fill-opacity="0.6" />
    </g>
    <path opacity="0.6"
        d="M99.8139 19.0827C93.029 20.2013 89.3814 28.081 92.8403 34.1205C103.592 52.899 123.593 65.5242 146.504 65.5242C149.893 65.5242 153.217 65.2455 156.459 64.7112C163.243 63.5925 166.89 55.7128 163.432 49.6733C152.68 30.8948 132.68 18.2696 109.768 18.2696C106.379 18.2696 103.054 18.5478 99.8139 19.0827Z"
        fill="white" />
    <path opacity="0.1"
        d="M106.019 180.472C56.3317 180.472 16.0522 140.228 16.0522 90.5835C16.0522 74.124 20.5015 58.7103 28.2317 45.441C16.7952 60.5182 10 79.3028 10 99.6791C10 149.323 50.2803 189.568 99.968 189.568C133.18 189.568 162.169 171.573 177.754 144.822C161.327 166.477 135.313 180.472 106.019 180.472Z"
        fill="#BFE6FF" />
    <path
        d="M99.7835 10C97.3833 10 95.0054 10.096 92.6523 10.2801C139.144 13.916 175.737 52.7918 175.737 100.216C175.737 147.641 139.143 186.517 92.6523 190.152C95.0054 190.336 97.3833 190.432 99.7835 190.432C149.608 190.432 190 150.041 190 100.216C190 50.3912 149.608 10 99.7835 10Z"
        fill="black" fill-opacity="0.05" />
    <defs>
        <filter id="filter0_b_3341_130168" x="-50" y="-50" width="298.623" height="298.623"
            filterUnits="userSpaceOnUse" color-interpolation-filters="sRGB">
            <feFlood flood-opacity="0" result="BackgroundImageFix" />
            <feGaussianBlur in="BackgroundImageFix" stdDeviation="30" />
            <feComposite in2="SourceAlpha" operator="in" result="effect1_backgroundBlur_3341_130168" />
            <feBlend mode="normal" in="SourceGraphic" in2="effect1_backgroundBlur_3341_130168"
                result="shape" />
        </filter>
        <linearGradient id="paint0_linear_3341_130168" x1="74.2748" y1="101.971" x2="151.065"
            y2="180.747" gradientUnits="userSpaceOnUse">
            <stop stop-color="#AEFFD1" />
            <stop offset="1" stop-color="#00B26B" />
        </linearGradient>
        <linearGradient id="paint1_linear_3341_130168" x1="96.3666" y1="126.705" x2="101.484"
            y2="165.086" gradientUnits="userSpaceOnUse">
            <stop stop-color="#00B26B" />
            <stop offset="1" stop-color="#006638" />
        </linearGradient>
        <linearGradient id="paint2_linear_3341_130168" x1="94.9391" y1="101.37" x2="100.361"
            y2="131.363" gradientUnits="userSpaceOnUse">
            <stop stop-color="#F8F6FB" />
            <stop offset="1" stop-color="#EFDCFB" />
        </linearGradient>
        <linearGradient id="paint3_linear_3341_130168" x1="94.9391" y1="101.37" x2="100.361"
            y2="131.363" gradientUnits="userSpaceOnUse">
            <stop stop-color="#F9F5F3" />
            <stop offset="1" stop-color="#E5CAF3" />
        </linearGradient>
        <linearGradient id="paint4_linear_3341_130168" x1="98.7657" y1="127.137" x2="98.7657"
            y2="173.134" gradientUnits="userSpaceOnUse">
            <stop stop-color="#5B3374" stop-opacity="0" />
            <stop offset="0.173" stop-color="#5B3374" stop-opacity="0.039" />
            <stop offset="0.363" stop-color="#5B3374" stop-opacity="0.152" />
            <stop offset="0.56" stop-color="#5B3374" stop-opacity="0.341" />
            <stop offset="0.763" stop-color="#5B3374" stop-opacity="0.605" />
            <stop offset="0.968" stop-color="#5B3374" stop-opacity="0.942" />
            <stop offset="1" stop-color="#5B3374" />
        </linearGradient>
        <linearGradient id="paint5_linear_3341_130168" x1="98.7657" y1="126.824" x2="98.7657"
            y2="167.976" gradientUnits="userSpaceOnUse">
            <stop stop-color="#5B3374" stop-opacity="0" />
            <stop offset="0.173" stop-color="#5B3374" stop-opacity="0.039" />
            <stop offset="0.363" stop-color="#5B3374" stop-opacity="0.152" />
            <stop offset="0.56" stop-color="#5B3374" stop-opacity="0.341" />
            <stop offset="0.763" stop-color="#5B3374" stop-opacity="0.605" />
            <stop offset="0.968" stop-color="#5B3374" stop-opacity="0.942" />
            <stop offset="1" stop-color="#5B3374" />
        </linearGradient>
        <linearGradient id="paint6_linear_3341_130168" x1="64.842" y1="109.794" x2="85.516"
            y2="130.468" gradientUnits="userSpaceOnUse">
            <stop stop-color="white" />
            <stop offset="1" stop-color="#D8EDDD" />
        </linearGradient>
        <linearGradient id="paint7_linear_3341_130168" x1="116.523" y1="104.076" x2="136.208"
            y2="129.386" gradientUnits="userSpaceOnUse">
            <stop stop-color="#F5F5F5" />
            <stop offset="1" stop-color="#D8EDDD" />
        </linearGradient>
        <linearGradient id="paint8_linear_3341_130168" x1="141.688" y1="126.424" x2="149.774"
            y2="105.33" gradientUnits="userSpaceOnUse">
            <stop stop-color="#5B3374" stop-opacity="0" />
            <stop offset="0.173" stop-color="#5B3374" stop-opacity="0.039" />
            <stop offset="0.363" stop-color="#5B3374" stop-opacity="0.152" />
            <stop offset="0.56" stop-color="#5B3374" stop-opacity="0.341" />
            <stop offset="0.763" stop-color="#5B3374" stop-opacity="0.605" />
            <stop offset="0.968" stop-color="#5B3374" stop-opacity="0.942" />
            <stop offset="1" stop-color="#5B3374" />
        </linearGradient>
        <linearGradient id="paint9_linear_3341_130168" x1="84.5891" y1="54.7504" x2="100.759"
            y2="101.948" gradientUnits="userSpaceOnUse">
            <stop stop-color="#FEAEAF" />
            <stop offset="1" stop-color="#FE5659" />
        </linearGradient>
        <linearGradient id="paint10_linear_3341_130168" x1="65.2975" y1="82.0963" x2="66.9381"
            y2="93.5807" gradientUnits="userSpaceOnUse">
            <stop stop-color="#FD3581" stop-opacity="0" />
            <stop offset="0.108" stop-color="#FC3480" stop-opacity="0.023" />
            <stop offset="0.24" stop-color="#FB307D" stop-opacity="0.089" />
            <stop offset="0.386" stop-color="#F82B78" stop-opacity="0.199" />
            <stop offset="0.541" stop-color="#F42372" stop-opacity="0.353" />
            <stop offset="0.703" stop-color="#EF1969" stop-opacity="0.55" />
            <stop offset="0.868" stop-color="#E90D5F" stop-opacity="0.787" />
            <stop offset="1" stop-color="#E30256" />
        </linearGradient>
        <linearGradient id="paint11_linear_3341_130168" x1="83.5112" y1="61.6094" x2="98.5977"
            y2="92.1956" gradientUnits="userSpaceOnUse">
            <stop stop-color="#FEF0AE" />
            <stop offset="1" stop-color="#FED402" />
        </linearGradient>
        <linearGradient id="paint12_linear_3341_130168" x1="69.7241" y1="81.464" x2="71.3648"
            y2="92.9483" gradientUnits="userSpaceOnUse">
            <stop stop-color="#FEF0AE" stop-opacity="0" />
            <stop offset="1" stop-color="#FE9738" />
        </linearGradient>
        <linearGradient id="paint13_linear_3341_130168" x1="86.2785" y1="68.8436" x2="99.8603"
            y2="93.0112" gradientUnits="userSpaceOnUse">
            <stop stop-color="#79D9FF" />
            <stop offset="1" stop-color="#7BACDF" />
        </linearGradient>
        <linearGradient id="paint14_linear_3341_130168" x1="74.2584" y1="80.8162" x2="75.899"
            y2="92.3005" gradientUnits="userSpaceOnUse">
            <stop stop-color="#7BACDF" stop-opacity="0" />
            <stop offset="1" stop-color="#0681AF" />
        </linearGradient>
        <radialGradient id="paint15_radial_3341_130168" cx="0" cy="0" r="1"
            gradientUnits="userSpaceOnUse"
            gradientTransform="translate(144.5 20.5676) rotate(115.294) scale(181.39 453.396)">
            <stop offset="0.590503" stop-color="white" stop-opacity="0.1" />
            <stop offset="1" stop-color="white" stop-opacity="0.4" />
        </radialGradient>
    </defs>
</svg>