<svg width="200" height="200" viewBox="0 0 200 200" fill="none" xmlns="http://www.w3.org/2000/svg">
    <g filter="url(#filter0_b_3341_29798)">
        <path
            d="M99.7839 189.527C149.109 189.527 189.095 149.541 189.095 100.216C189.095 50.8906 149.109 10.9045 99.7839 10.9045C50.4587 10.9045 10.4727 50.8906 10.4727 100.216C10.4727 149.541 50.4587 189.527 99.7839 189.527Z"
            fill="white" fill-opacity="0.1" />
    </g>
    <path opacity="0.4"
        d="M100.484 187.697C51.1585 187.697 11.1729 147.711 11.1729 98.3863C11.1729 87.7408 13.0432 77.5351 16.4601 68.0677C12.607 78.046 10.4727 88.8789 10.4727 100.216C10.4727 149.541 50.4583 189.527 99.7843 189.527C138.464 189.527 171.393 164.934 183.808 130.534C170.899 163.969 138.472 187.697 100.484 187.697Z"
        fill="#BFE6FF" />
    <g clip-path="url(#clip0_3341_29798)">
        <path
            d="M43.75 88.75V122.688C43.75 132.94 52.0602 141.25 62.3116 141.25C67.2344 141.25 71.9556 139.294 75.4366 135.813L93.1434 118.107C95.1325 116.118 96.25 113.42 96.25 110.607V88.75H43.75Z"
            fill="#D5D5D5" />
        <path
            d="M156.25 88.75V122.688C156.25 132.94 147.94 141.25 137.688 141.25C132.766 141.25 128.044 139.294 124.563 135.813L106.857 118.107C104.868 116.118 103.75 113.42 103.75 110.607V88.75H156.25Z"
            fill="#D5D5D5" />
        <path
            d="M130 62.5H70C55.5025 62.5 43.75 74.2525 43.75 88.75V117.84C43.75 126.627 50.8731 133.75 59.6598 133.75C63.8793 133.75 67.9263 132.074 70.9098 129.09L81.8934 118.107C81.9025 118.097 81.9114 118.089 81.9205 118.079C83.8417 116.144 86.4177 115 89.1449 115H110.855C113.582 115 116.159 116.144 118.08 118.079C118.089 118.089 118.098 118.098 118.107 118.107L129.09 129.09C132.074 132.074 136.121 133.75 140.34 133.75C149.127 133.75 156.25 126.627 156.25 117.84V88.75C156.25 74.2525 144.497 62.5 130 62.5Z"
            fill="#F5F5F5" />
        <path
            d="M108.547 73.75H91.4528C89.8387 73.75 88.4057 72.7171 87.8952 71.1859L85 62.5H115L112.105 71.1859C111.594 72.7171 110.161 73.75 108.547 73.75Z"
            fill="#D5D5D5" />
        <path
            d="M85 111.25C90.1777 111.25 94.375 107.053 94.375 101.875C94.375 96.6973 90.1777 92.5 85 92.5C79.8223 92.5 75.625 96.6973 75.625 101.875C75.625 107.053 79.8223 111.25 85 111.25Z"
            fill="#D5D5D5" />
        <path
            d="M90.625 99.0625H87.8125V96.25C87.8125 95.2145 86.973 94.375 85.9375 94.375H84.0625C83.027 94.375 82.1875 95.2145 82.1875 96.25V99.0625H79.375C78.3395 99.0625 77.5 99.902 77.5 100.938V102.812C77.5 103.848 78.3395 104.688 79.375 104.688H82.1875V107.5C82.1875 108.535 83.027 109.375 84.0625 109.375H85.9375C86.973 109.375 87.8125 108.535 87.8125 107.5V104.688H90.625C91.6605 104.688 92.5 103.848 92.5 102.812V100.938C92.5 99.902 91.6605 99.0625 90.625 99.0625Z"
            fill="#555A6E" />
        <path
            d="M115 111.25C120.178 111.25 124.375 107.053 124.375 101.875C124.375 96.6973 120.178 92.5 115 92.5C109.822 92.5 105.625 96.6973 105.625 101.875C105.625 107.053 109.822 111.25 115 111.25Z"
            fill="#463C4B" />
        <path
            d="M115 107.5C118.107 107.5 120.625 104.982 120.625 101.875C120.625 98.7684 118.107 96.25 115 96.25C111.893 96.25 109.375 98.7684 109.375 101.875C109.375 104.982 111.893 107.5 115 107.5Z"
            fill="#555A6E" />
        <path
            d="M66.25 93.7499C71.4277 93.7499 75.625 89.5525 75.625 84.3749C75.625 79.1972 71.4277 74.9999 66.25 74.9999C61.0723 74.9999 56.875 79.1972 56.875 84.3749C56.875 89.5525 61.0723 93.7499 66.25 93.7499Z"
            fill="#463C4B" />
        <path
            d="M66.25 89.9999C69.3566 89.9999 71.875 87.4815 71.875 84.3749C71.875 81.2683 69.3566 78.7499 66.25 78.7499C63.1434 78.7499 60.625 81.2683 60.625 84.3749C60.625 87.4815 63.1434 89.9999 66.25 89.9999Z"
            fill="#555A6E" />
        <path
            d="M133.75 80.0001C135.821 80.0001 137.5 78.3211 137.5 76.2501C137.5 74.179 135.821 72.5001 133.75 72.5001C131.679 72.5001 130 74.179 130 76.2501C130 78.3211 131.679 80.0001 133.75 80.0001Z"
            fill="#00D2D2" />
        <path
            d="M133.75 95.0001C135.821 95.0001 137.5 93.3211 137.5 91.2501C137.5 89.179 135.821 87.5001 133.75 87.5001C131.679 87.5001 130 89.179 130 91.2501C130 93.3211 131.679 95.0001 133.75 95.0001Z"
            fill="#00D2D2" />
        <path
            d="M126.25 87.5001C128.321 87.5001 130 85.8211 130 83.7501C130 81.679 128.321 80.0001 126.25 80.0001C124.179 80.0001 122.5 81.679 122.5 83.7501C122.5 85.8211 124.179 87.5001 126.25 87.5001Z"
            fill="#FF6E91" />
        <path
            d="M141.25 87.5001C143.321 87.5001 145 85.8211 145 83.7501C145 81.679 143.321 80.0001 141.25 80.0001C139.179 80.0001 137.5 81.679 137.5 83.7501C137.5 85.8211 139.179 87.5001 141.25 87.5001Z"
            fill="#FF6E91" />
        <path
            d="M92.5 86.875C94.5711 86.875 96.25 85.1961 96.25 83.125C96.25 81.0539 94.5711 79.375 92.5 79.375C90.4289 79.375 88.75 81.0539 88.75 83.125C88.75 85.1961 90.4289 86.875 92.5 86.875Z"
            fill="#D5D5D5" />
        <path
            d="M107.5 86.875C109.571 86.875 111.25 85.1961 111.25 83.125C111.25 81.0539 109.571 79.375 107.5 79.375C105.429 79.375 103.75 81.0539 103.75 83.125C103.75 85.1961 105.429 86.875 107.5 86.875Z"
            fill="#D5D5D5" />
        <path
            d="M81.25 58.75H73.75C71.6788 58.75 70 60.4288 70 62.5H85C85 60.4288 83.3212 58.75 81.25 58.75Z"
            fill="#555A6E" />
        <path
            d="M126.25 58.75H118.75C116.679 58.75 115 60.4288 115 62.5H130C130 60.4288 128.321 58.75 126.25 58.75Z"
            fill="#555A6E" />
    </g>
    <path
        d="M99.7838 190C149.37 190 189.568 149.802 189.568 100.216C189.568 50.63 149.37 10.4324 99.7838 10.4324C50.1976 10.4324 10 50.63 10 100.216C10 149.802 50.1976 190 99.7838 190Z"
        fill="white" fill-opacity="0.1" />
    <path
        d="M86.4287 29.8884C136.068 29.8884 176.31 70.1915 176.31 119.908C176.31 134.503 172.82 148.274 166.664 160.466C180.901 144.539 189.568 123.513 189.568 100.452C189.568 50.7364 149.327 10.4324 99.6867 10.4324C64.6198 10.4324 34.2645 30.5596 19.4512 59.8956C35.9089 41.4841 59.8124 29.8884 86.4287 29.8884Z"
        fill="white" fill-opacity="0.1" />
    <g style="mix-blend-mode:plus-lighter">
        <path
            d="M122.643 145.959C72.9159 145.959 32.6056 105.731 32.6056 56.1054C32.6056 50.1784 33.1967 44.3912 34.2934 38.7852C19.2344 54.8467 10 76.415 10 100.146C10 149.771 50.3116 190 100.038 190C143.824 190 180.296 158.801 188.386 117.466C171.956 134.992 148.589 145.959 122.643 145.959Z"
            fill="url(#paint0_radial_3341_29798)" fill-opacity="0.6" />
    </g>
    <path opacity="0.6"
        d="M99.8139 19.515C93.029 20.6337 89.3814 28.5134 92.8403 34.5529C103.592 53.3314 123.593 65.9566 146.504 65.9566C149.893 65.9566 153.217 65.6779 156.459 65.1435C163.243 64.0249 166.89 56.1452 163.432 50.1056C152.68 31.3272 132.68 18.702 109.768 18.702C106.379 18.702 103.054 18.9802 99.8139 19.515Z"
        fill="white" />
    <path opacity="0.1"
        d="M106.019 180.904C56.3317 180.904 16.0522 140.66 16.0522 91.0159C16.0522 74.5564 20.5015 59.1428 28.2317 45.8734C16.7952 60.9506 10 79.7352 10 100.111C10 149.756 50.2803 190 99.968 190C133.18 190 162.169 172.006 177.754 145.255C161.327 166.91 135.313 180.904 106.019 180.904Z"
        fill="#BFE6FF" />
    <path
        d="M99.7835 10C97.3833 10 95.0054 10.096 92.6523 10.2801C139.144 13.916 175.737 52.7918 175.737 100.216C175.737 147.641 139.143 186.517 92.6523 190.152C95.0054 190.336 97.3833 190.432 99.7835 190.432C149.608 190.432 190 150.041 190 100.216C190 50.3912 149.608 10 99.7835 10Z"
        fill="black" fill-opacity="0.05" />
    <defs>
        <filter id="filter0_b_3341_29798" x="-49.5273" y="-49.0955" width="298.623" height="298.623"
            filterUnits="userSpaceOnUse" color-interpolation-filters="sRGB">
            <feFlood flood-opacity="0" result="BackgroundImageFix" />
            <feGaussianBlur in="BackgroundImageFix" stdDeviation="30" />
            <feComposite in2="SourceAlpha" operator="in" result="effect1_backgroundBlur_3341_29798" />
            <feBlend mode="normal" in="SourceGraphic" in2="effect1_backgroundBlur_3341_29798"
                result="shape" />
        </filter>
        <radialGradient id="paint0_radial_3341_29798" cx="0" cy="0" r="1"
            gradientUnits="userSpaceOnUse"
            gradientTransform="translate(144.5 21) rotate(115.294) scale(181.39 453.396)">
            <stop offset="0.590503" stop-color="white" stop-opacity="0.1" />
            <stop offset="1" stop-color="white" stop-opacity="0.4" />
        </radialGradient>
        <clipPath id="clip0_3341_29798">
            <rect width="120" height="120" fill="white" transform="translate(40 40)" />
        </clipPath>
    </defs>
</svg>