<svg width="200" height="200" viewBox="0 0 200 200" fill="none" xmlns="http://www.w3.org/2000/svg">
    <path
        d="M12.073 54.4128C10.898 54.4128 9.78873 53.7003 9.34012 52.5375C8.75724 51.0284 9.50797 49.3332 11.0171 48.7503L89.9248 18.28C91.4339 17.6987 93.1307 18.4479 93.7136 19.9585C94.2965 21.4676 93.5442 23.1628 92.0351 23.7457L13.1274 54.216C12.781 54.3503 12.4239 54.4128 12.073 54.4128Z"
        fill="#464C51" />
    <path
        d="M187.928 54.4128C187.577 54.4128 187.22 54.3488 186.873 54.216L107.966 23.7457C106.457 23.1628 105.704 21.4676 106.287 19.957C106.87 18.4479 108.567 17.6971 110.076 18.28L188.984 48.7488C190.493 49.3317 191.244 51.0284 190.661 52.5375C190.212 53.7003 189.103 54.4128 187.928 54.4128Z"
        fill="#464C51" />
    <path
        d="M193.823 170.285H6.17676C2.76489 170.285 0 167.519 0 164.107V47.5266C0 44.1147 2.76489 41.3498 6.17676 41.3498H193.823C197.235 41.3498 200 44.1147 200 47.5266V164.107C200 167.519 197.235 170.285 193.823 170.285Z"
        fill="#D8EDDD" />
    <path d="M187.927 53.4225V158.212H12.0723V53.4225H187.927Z" fill="white" />
    <path d="M192 53.4225H196.137V158.212H192V53.4225Z" fill="black" fill-opacity="0.05" />
    <path
        d="M30.1863 170.285H73.9012C75.6086 170.285 76.9941 168.9 76.9941 167.192V149.069C76.9941 147.362 75.6102 145.978 73.9012 145.978H30.1863C28.4788 145.978 27.0948 147.362 27.0948 149.069V167.192C27.0948 168.9 28.4788 170.285 30.1863 170.285Z"
        fill="#FF9800" />
    <path
        d="M64.9214 167.192V149.069C64.9214 147.362 63.5374 145.978 61.8284 145.978H73.9012C75.6086 145.978 76.9941 147.362 76.9941 149.069V167.192C76.9941 168.9 75.6102 170.285 73.9012 170.285H61.8284C63.5374 170.285 64.9214 168.9 64.9214 167.192Z"
        fill="black" fill-opacity="0.1" />
    <path
        d="M10.3455 190.974H189.655C195.369 190.974 200 186.343 200 180.629C200 174.916 195.369 170.285 189.655 170.285H10.3439C4.63104 170.285 0 174.916 0 180.629C0 186.343 4.63104 190.974 10.3455 190.974Z"
        fill="#3A3335" />
    <path
        d="M187.927 180.629C187.927 174.916 183.296 170.285 177.583 170.285H189.655C195.369 170.285 200 174.916 200 180.629C200 186.343 195.369 190.974 189.655 190.974H177.583C183.296 190.974 187.927 186.343 187.927 180.629Z"
        fill="black" fill-opacity="0.1" />
    <path
        d="M76.9941 158.131V167.192C76.9941 168.9 75.6102 170.285 73.9012 170.285H30.1863C28.4788 170.285 27.0948 168.901 27.0948 167.192V158.131H76.9941Z"
        fill="white" />
    <path
        d="M64.9214 167.192V158.131H76.9941V167.192C76.9941 168.9 75.6102 170.285 73.9012 170.285H61.8284C63.5374 170.285 64.9214 168.9 64.9214 167.192Z"
        fill="black" fill-opacity="0.1" />
    <path
        d="M109.312 18.6874C109.312 23.8312 105.144 28.0014 99.9999 28.0014C94.8562 28.0014 90.6875 23.8312 90.6875 18.6874C90.6875 13.5452 94.8562 9.375 99.9999 9.375C105.144 9.375 109.312 13.5452 109.312 18.6874Z"
        fill="#FF9800" />
    <path
        d="M140.42 131.306C138.541 131.306 137.144 130.976 136.23 130.315C135.366 129.655 134.934 128.842 134.934 127.877L135.696 126.582C135.391 127.09 134.807 127.725 133.944 128.487C133.08 129.198 131.963 129.858 130.591 130.468C129.22 131.027 127.518 131.306 125.487 131.306C123.15 131.306 120.915 130.798 118.782 129.782C116.699 128.766 114.845 127.369 113.22 125.592C111.595 123.763 110.299 121.706 109.334 119.42C108.42 117.135 107.963 114.722 107.963 112.182C107.963 109.693 108.42 107.331 109.334 105.096C110.299 102.811 111.595 100.804 113.22 99.0774C114.896 97.2996 116.776 95.9028 118.858 94.8869C120.941 93.8711 123.15 93.3631 125.487 93.3631C127.366 93.3631 128.966 93.6425 130.287 94.2012C131.607 94.7091 132.699 95.3187 133.563 96.0298C134.477 96.7409 135.163 97.4266 135.62 98.0869L135.01 97.0203C134.96 95.8012 135.366 94.8869 136.23 94.2774C137.144 93.6171 138.566 93.2869 140.496 93.2869C142.325 93.2869 143.62 93.5663 144.382 94.125C145.195 94.6838 145.677 95.4203 145.83 96.3345C146.033 97.2488 146.134 98.2139 146.134 99.2298V125.515C146.134 126.481 146.033 127.42 145.83 128.335C145.677 129.249 145.195 129.985 144.382 130.544C143.62 131.052 142.299 131.306 140.42 131.306ZM127.163 119.954C128.484 119.954 129.677 119.623 130.744 118.963C131.861 118.252 132.725 117.312 133.334 116.144C133.995 114.976 134.325 113.681 134.325 112.258C134.325 110.785 133.995 109.49 133.334 108.373C132.674 107.204 131.785 106.29 130.668 105.63C129.55 104.919 128.331 104.563 127.01 104.563C125.537 104.563 124.217 104.919 123.049 105.63C121.931 106.341 121.017 107.281 120.306 108.449C119.645 109.617 119.315 110.938 119.315 112.411C119.315 113.782 119.645 115.052 120.306 116.22C121.017 117.338 121.957 118.252 123.125 118.963C124.344 119.623 125.69 119.954 127.163 119.954Z"
        fill="#00B26B" />
    <path
        d="M104.984 123.306C105.593 124.576 105.923 125.668 105.974 126.582C106.025 127.446 105.746 128.233 105.136 128.944C104.577 129.604 103.638 130.265 102.317 130.925C100.285 131.89 98.7108 132.169 97.5933 131.763C96.4759 131.407 95.4346 130.214 94.4695 128.182L79.5362 96.944L64.6791 128.182C63.6632 130.163 62.5965 131.331 61.4791 131.687C60.4124 132.093 58.8632 131.814 56.8315 130.849C55.5108 130.239 54.5457 129.604 53.9362 128.944C53.3775 128.233 53.1235 127.42 53.1743 126.506C53.2251 125.541 53.5807 124.423 54.241 123.154L74.2791 81.4774C74.787 80.4615 75.5235 79.6488 76.4886 79.0393C77.5045 78.4298 78.5457 78.125 79.6124 78.125C80.3743 78.125 81.0854 78.2774 81.7457 78.5821C82.406 78.8361 82.9902 79.2171 83.4981 79.725C84.0568 80.2329 84.514 80.8425 84.8695 81.5536L104.984 123.306ZM66.7362 118.963L71.46 109.135H87.6886L92.4124 118.963H66.7362Z"
        fill="#00B26B" />
</svg>