<svg width="60" height="60" viewBox="0 0 60 60" fill="none" xmlns="http://www.w3.org/2000/svg">
    <path
        d="M11.5031 8.5831C12.2995 8.21935 13.0644 7.82688 13.7307 7.34205C16.1524 5.5796 17.8178 2.14282 20.7273 1.19815C23.5345 0.286679 26.8889 2.05843 30 2.05843C33.1111 2.05843 36.4655 0.286679 39.2727 1.19815C42.1822 2.14282 43.8476 5.5796 46.2693 7.34205C48.7153 9.12213 52.4918 9.65621 54.2719 12.1022C56.0343 14.5239 55.3868 18.2719 56.3315 21.1814C57.243 23.9886 60 26.6262 60 29.7373C60 32.8483 57.243 35.4859 56.3315 38.2931C55.3869 41.2026 56.0344 44.9506 54.2719 47.3723C52.4918 49.8183 48.7152 50.3524 46.2693 52.1325C43.8476 53.8949 42.1822 57.3317 39.2727 58.2764C36.4655 59.1878 33.1111 57.4161 30 57.4161C26.8889 57.4161 23.5345 59.1878 20.7273 58.2764C17.8178 57.3317 16.1524 53.8949 13.7307 52.1325C11.2847 50.3524 7.50821 49.8183 5.72813 47.3723C3.96567 44.9506 4.61324 41.2026 3.66857 38.2931C2.75698 35.4859 0 32.8483 0 29.7373C0 26.6262 2.75698 23.9886 3.66845 21.1814C4.61312 18.2719 3.96567 14.5239 5.72813 12.1022C6.28974 11.3305 7.05006 10.7493 7.90455 10.259"
        fill="#00B26B" />
    <path
        d="M54.3204 29.7373C54.3204 32.2592 52.0854 34.3975 51.3466 36.6731C50.5807 39.0317 51.1057 42.07 49.677 44.0332C48.2339 46.016 45.1725 46.4489 43.1897 47.892C41.2265 49.3208 39.8766 52.1068 37.518 52.8726C35.2423 53.6116 32.523 52.1753 30.0011 52.1753C27.4791 52.1753 24.7598 53.6116 22.4842 52.8726C20.1256 52.1069 18.7756 49.3208 16.8124 47.892C14.8296 46.449 11.7682 46.0161 10.3251 44.0332C8.89629 42.07 9.4212 39.0317 8.65544 36.6732C7.91649 34.3976 5.68164 32.2594 5.68164 29.7374C5.68164 27.2155 7.91661 25.0772 8.65544 22.8015C9.4212 20.4429 8.89629 17.4047 10.3251 15.4416C11.7681 13.4588 14.8295 13.0259 16.8124 11.5827C18.7756 10.154 20.1256 7.36801 22.4842 6.60214C24.7598 5.86318 27.4791 7.29944 30.0011 7.29944C32.523 7.29944 35.2423 5.86318 37.518 6.60202C39.8766 7.36777 41.2265 10.1538 43.1897 11.5826C45.1725 13.0256 48.2341 13.4586 49.6771 15.4415C51.1059 17.4047 50.581 20.4429 51.3467 22.8014C52.0854 25.0771 54.3204 27.2153 54.3204 29.7373Z"
        fill="white" />
    <path
        d="M56.3315 21.1814C55.3869 18.2719 56.0344 14.5239 54.2718 12.1022C52.4918 9.65619 48.7151 9.12211 46.2693 7.34203C43.8475 5.57957 42.1822 2.14279 39.2727 1.19812C38.0842 0.812289 36.7975 0.907782 35.4728 1.14585C35.5323 1.16263 35.5919 1.17893 35.651 1.19812C38.5604 2.14279 40.2258 5.57957 42.6475 7.34203C45.0935 9.12211 48.87 9.65619 50.6501 12.1022C52.4126 14.5239 51.765 18.2719 52.7098 21.1814C53.6213 23.9885 56.3782 26.6262 56.3782 29.7372C56.3782 32.8483 53.6213 35.4859 52.7098 38.2931C51.7651 41.2025 52.4127 44.9506 50.6501 47.3723C48.87 49.8183 45.0934 50.3524 42.6475 52.1324C40.2258 53.8949 38.5604 57.3317 35.651 58.2763C35.5919 58.2955 35.5323 58.3118 35.4727 58.3287C36.7974 58.5667 38.0842 58.6623 39.2727 58.2763C42.1822 57.3317 43.8475 53.8949 46.2693 52.1324C48.7153 50.3524 52.4918 49.8183 54.2718 47.3723C56.0343 44.9506 55.3869 41.2025 56.3315 38.2931C57.243 35.4859 60 32.8483 60 29.7372C60 26.6262 57.243 23.9885 56.3315 21.1814Z"
        fill="#006638" />
    <path
        d="M51.3465 22.8014C50.5807 20.4428 51.1056 17.4046 49.6769 15.4415C48.2338 13.4587 45.1724 13.0256 43.1895 11.5828C41.2263 10.154 39.8763 7.3679 37.5178 6.60215C36.4263 6.2477 35.2327 6.39402 34.0078 6.64187C36.2972 7.4582 37.6359 10.1768 39.5678 11.5828C41.5505 13.0258 44.6121 13.4587 46.0551 15.4415C47.4839 17.4047 46.959 20.443 47.7248 22.8014C48.4637 25.0771 50.6986 27.2152 50.6986 29.7373C50.6986 32.2592 48.4636 34.3975 47.7248 36.6731C46.9589 39.0317 47.4839 42.07 46.0551 44.0331C44.6121 46.0159 41.5507 46.4489 39.5679 47.8919C37.6362 49.2978 36.2973 52.0163 34.0079 52.8327C35.2328 53.0805 36.4264 53.2269 37.5179 52.8725C39.8765 52.1067 41.2264 49.3207 43.1896 47.8919C45.1724 46.4489 48.2338 46.016 49.6769 44.0331C51.1056 42.0699 50.5807 39.0316 51.3465 36.6731C52.0853 34.3975 54.3203 32.2593 54.3203 29.7373C54.3203 27.2152 52.0853 25.0771 51.3465 22.8014Z"
        fill="black" fill-opacity="0.1" />
    <path
        d="M23.0183 40.3447L18.0492 34.3658C17.2993 33.4635 17.4229 32.124 18.3252 31.3741L19.7183 30.2163C20.6206 29.4664 21.96 29.59 22.71 30.4923L25.2134 33.5045C25.8116 34.2242 26.9038 34.2613 27.5494 33.5836L40.3476 21.0966C41.1569 20.247 42.5016 20.2145 43.3511 21.0238L44.6627 22.2732C45.5123 23.0825 45.5449 24.4273 44.7356 25.2767L29.2767 40.5566C27.5472 42.3722 24.621 42.2732 23.0183 40.3447Z"
        fill="#00B26B" />
    <path
        d="M44.664 22.2732L43.3524 21.0238C42.5028 20.2145 41.1581 20.2472 40.3489 21.0967L39.8926 21.5419L40.6603 22.2732C41.5099 23.0825 41.5424 24.4273 40.7331 25.2767L25.2743 40.5566C24.9634 40.8829 24.6137 41.1462 24.2402 41.3494C25.8498 42.2242 27.9282 41.9736 29.2781 40.5566L44.737 25.2767C45.5462 24.4271 45.5136 23.0824 44.664 22.2732Z"
        fill="#006638" />
</svg>