<svg width="200" height="200" viewBox="0 0 200 200" fill="none" xmlns="http://www.w3.org/2000/svg">
    <g filter="url(#filter0_b_3341_90118)">
        <path
            d="M99.7839 189.527C149.109 189.527 189.095 149.541 189.095 100.216C189.095 50.8906 149.109 10.9046 99.7839 10.9046C50.4587 10.9046 10.4727 50.8906 10.4727 100.216C10.4727 149.541 50.4587 189.527 99.7839 189.527Z"
            fill="white" fill-opacity="0.1" />
    </g>
    <path opacity="0.4"
        d="M100.484 187.697C51.1585 187.697 11.1729 147.711 11.1729 98.3863C11.1729 87.7408 13.0432 77.5351 16.4601 68.0677C12.607 78.046 10.4727 88.8789 10.4727 100.216C10.4727 149.541 50.4583 189.527 99.7843 189.527C138.464 189.527 171.393 164.934 183.808 130.534C170.899 163.969 138.472 187.697 100.484 187.697Z"
        fill="#BFE6FF" />
    <g clip-path="url(#clip0_3341_90118)">
        <path
            d="M146.02 54.8822C146.02 51.2726 143.081 48.3328 139.471 48.3328H61.7077C58.0981 48.3328 55.1582 51.2726 55.1582 54.8822V147.795C55.1582 151.404 58.098 154.344 61.7077 154.344H139.471C143.08 154.344 146.02 151.404 146.02 147.795V54.8822Z"
            fill="white" stroke="#C48958" stroke-width="3" />
        <path fill-rule="evenodd" clip-rule="evenodd"
            d="M139.471 49.8328C142.253 49.8328 144.521 52.101 144.521 54.8822V147.795C144.521 150.576 142.252 152.844 139.471 152.844H137.125C139.906 152.844 142.174 150.576 142.174 147.795V54.8822C142.174 52.101 139.906 49.8328 137.125 49.8328H139.471Z"
            fill="black" fill-opacity="0.1" />
        <path fill-rule="evenodd" clip-rule="evenodd"
            d="M90.8496 112.105C91.8863 112.105 92.7268 112.945 92.7268 113.982C92.7268 115.019 91.8863 115.859 90.8496 115.859H66.7482C65.7116 115.859 64.8711 115.019 64.8711 113.982C64.8711 112.945 65.7116 112.105 66.7482 112.105H90.8496ZM90.8496 133.223C91.8863 133.223 92.7268 134.063 92.7268 135.1C92.7268 136.137 91.8863 136.977 90.8496 136.977H66.7482C65.7116 136.977 64.8711 136.137 64.8711 135.1C64.8711 134.063 65.7116 133.223 66.7482 133.223H90.8496ZM90.8496 126.183C91.8863 126.183 92.7268 127.024 92.7268 128.061C92.7268 129.097 91.8863 129.938 90.8496 129.938H66.7482C65.7116 129.938 64.8711 129.097 64.8711 128.061C64.8711 127.024 65.7116 126.183 66.7482 126.183H90.8496ZM90.8496 119.144C91.8863 119.144 92.7268 119.985 92.7268 121.021C92.7268 122.058 91.8863 122.898 90.8496 122.898H66.7482C65.7116 122.898 64.8711 122.058 64.8711 121.021C64.8711 119.985 65.7116 119.144 66.7482 119.144H90.8496Z"
            fill="#A79BA7" />
        <path fill-rule="evenodd" clip-rule="evenodd"
            d="M109.653 115.859C108.616 115.859 107.775 115.019 107.775 113.982C107.775 112.945 108.616 112.105 109.653 112.105H133.754C134.791 112.105 135.631 112.945 135.631 113.982C135.631 115.019 134.791 115.859 133.754 115.859H109.653ZM109.653 136.977C108.616 136.977 107.775 136.136 107.775 135.1C107.775 134.063 108.616 133.223 109.653 133.223H133.754C134.791 133.223 135.631 134.063 135.631 135.1C135.631 136.136 134.791 136.977 133.754 136.977H109.653ZM109.653 129.938C108.616 129.938 107.775 129.097 107.775 128.061C107.775 127.024 108.616 126.183 109.653 126.183H133.754C134.791 126.183 135.631 127.024 135.631 128.061C135.631 129.097 134.791 129.938 133.754 129.938H109.653ZM109.653 122.898C108.616 122.898 107.775 122.058 107.775 121.021C107.775 119.985 108.616 119.144 109.653 119.144H133.754C134.791 119.144 135.631 119.985 135.631 121.021C135.631 122.058 134.791 122.898 133.754 122.898H109.653Z"
            fill="#A79BA7" />
        <path fill-rule="evenodd" clip-rule="evenodd"
            d="M126.551 76.6497H132.528C133.045 76.6497 133.467 77.0716 133.467 77.589V100.274C133.467 100.791 133.045 101.213 132.528 101.213H126.551C126.033 101.213 125.611 100.791 125.611 100.274V77.589C125.611 77.0716 126.033 76.6497 126.551 76.6497Z"
            fill="#6CF5C2" />
        <path fill-rule="evenodd" clip-rule="evenodd"
            d="M130.182 76.6497H132.528C133.045 76.6497 133.467 77.0716 133.467 77.589V100.274C133.467 100.791 133.045 101.213 132.528 101.213H130.182C130.699 101.213 131.121 100.791 131.121 100.274V77.589C131.121 77.0716 130.699 76.6497 130.182 76.6497Z"
            fill="#00E499" />
        <path fill-rule="evenodd" clip-rule="evenodd"
            d="M117.94 67.663H111.963C111.445 67.663 111.023 68.0848 111.023 68.6022V100.274C111.023 100.791 111.445 101.213 111.963 101.213H117.94C118.457 101.213 118.879 100.791 118.879 100.274V68.6022C118.879 68.0848 118.457 67.663 117.94 67.663Z"
            fill="#8AC9FE" />
        <path fill-rule="evenodd" clip-rule="evenodd"
            d="M117.94 67.663H115.594C116.111 67.663 116.533 68.0848 116.533 68.6022V100.274C116.533 100.791 116.111 101.213 115.594 101.213H117.94C118.458 101.213 118.879 100.791 118.879 100.274V68.6022C118.879 68.0848 118.458 67.663 117.94 67.663Z"
            fill="#60B7FF" />
        <path fill-rule="evenodd" clip-rule="evenodd"
            d="M103.354 84.6127C101.362 84.6127 99.3693 84.6127 97.3768 84.6127C96.8594 84.6127 96.4375 85.0346 96.4375 85.552V100.274C96.4375 100.791 96.8594 101.213 97.3768 101.213H103.354C103.871 101.213 104.293 100.791 104.293 100.274C104.293 95.0688 104.293 90.7573 104.293 85.552C104.293 85.0346 103.871 84.6127 103.354 84.6127Z"
            fill="#FE646F" />
        <path fill-rule="evenodd" clip-rule="evenodd"
            d="M103.354 84.6127H101.008C101.525 84.6127 101.947 85.0346 101.947 85.552V100.274C101.947 100.791 101.525 101.213 101.008 101.213H103.354C103.872 101.213 104.293 100.791 104.293 100.274C104.293 95.0688 104.293 90.7573 104.293 85.552C104.293 85.0346 103.872 84.6127 103.354 84.6127Z"
            fill="#FD4755" />
        <path fill-rule="evenodd" clip-rule="evenodd"
            d="M92.1681 103.09C91.1315 103.09 90.291 102.25 90.291 101.213C90.291 100.176 91.1315 99.3358 92.1681 99.3358H137.161C138.198 99.3358 139.038 100.176 139.038 101.213C139.038 102.25 138.198 103.09 137.161 103.09H92.1681Z"
            fill="#A79BA7" />
        <path fill-rule="evenodd" clip-rule="evenodd"
            d="M82.3223 46.7806H91.3671C91.8765 46.7806 92.3096 46.472 92.4762 45.9908C93.6396 42.6298 96.8323 40.2162 100.589 40.2162C104.346 40.2162 107.539 42.6298 108.702 45.9908C108.869 46.472 109.302 46.7806 109.812 46.7806H118.856C119.503 46.7806 120.03 47.3078 120.03 47.9545V58.7358C120.03 59.3825 119.503 59.9097 118.856 59.9097H82.3223C81.6759 59.9097 81.1484 59.3825 81.1484 58.7358V47.9545C81.1484 47.3078 81.6759 46.7806 82.3223 46.7806Z"
            fill="#E3A76F" />
        <path fill-rule="evenodd" clip-rule="evenodd"
            d="M117.684 46.7806H118.856C119.503 46.7806 120.03 47.3078 120.03 47.9545V58.7358C120.03 59.3825 119.503 59.9097 118.856 59.9097H82.3223C81.6759 59.9097 81.1484 59.3825 81.1484 58.7358V57.5633H116.51C117.156 57.5633 117.684 57.036 117.684 56.3894V46.7806Z"
            fill="#C48958" />
        <path
            d="M100.946 49.5035C102.184 49.3028 103.025 48.1367 102.824 46.8988C102.623 45.661 101.457 44.8201 100.22 45.0208C98.9819 45.2214 98.1412 46.3876 98.3419 47.6254C98.5425 48.8633 99.7086 49.7041 100.946 49.5035Z"
            fill="#ECEFF1" />
        <path fill-rule="evenodd" clip-rule="evenodd"
            d="M78.4034 81.1677V68.4752C71.3935 68.4752 65.7109 74.1578 65.7109 81.1677C65.7109 88.1776 71.3935 93.8601 78.4034 93.8601C85.4133 93.8601 91.0958 88.1776 91.0958 81.1677H78.4034Z"
            fill="#60B7FF" />
        <path fill-rule="evenodd" clip-rule="evenodd"
            d="M78.403 81.1677H91.0954C91.0954 88.1776 85.4129 93.8602 78.403 93.8602C76.1751 93.8602 73.9863 93.2738 72.0566 92.1597L78.403 81.1677Z"
            fill="#FFD064" />
        <path fill-rule="evenodd" clip-rule="evenodd"
            d="M78.4035 81.1677V70.8775C72.7205 70.8775 68.1133 75.4844 68.1133 81.1677C68.1133 86.8507 72.7202 91.4579 78.4035 91.4579C84.0865 91.4579 88.6937 86.8509 88.6937 81.1677H78.4035Z"
            fill="#8AC9FE" />
        <path fill-rule="evenodd" clip-rule="evenodd"
            d="M78.4028 81.1677H88.693C88.693 86.8507 84.0858 91.4579 78.4028 91.4579C76.5965 91.4579 74.8219 90.9825 73.2578 90.0794L78.4028 81.1677Z"
            fill="#FFE177" />
        <path fill-rule="evenodd" clip-rule="evenodd"
            d="M81.1406 77.6999V64.9981C88.1557 64.9981 93.8425 70.6849 93.8425 77.6999H81.1406Z"
            fill="#FE646F" />
        <path fill-rule="evenodd" clip-rule="evenodd"
            d="M81.1406 67.5618V64.9981C88.1557 64.9981 93.8425 70.6849 93.8425 77.6999H91.2788C90.32 72.5667 86.2741 68.5205 81.1406 67.5618Z"
            fill="#FD4755" />
    </g>
    <path
        d="M99.7838 190C149.37 190 189.568 149.802 189.568 100.216C189.568 50.63 149.37 10.4324 99.7838 10.4324C50.1976 10.4324 10 50.63 10 100.216C10 149.802 50.1976 190 99.7838 190Z"
        fill="white" fill-opacity="0.1" />
    <path
        d="M86.4287 29.8884C136.068 29.8884 176.31 70.1915 176.31 119.908C176.31 134.503 172.82 148.274 166.664 160.466C180.901 144.539 189.568 123.513 189.568 100.452C189.568 50.7364 149.327 10.4324 99.6867 10.4324C64.6198 10.4324 34.2645 30.5596 19.4512 59.8956C35.9089 41.4841 59.8124 29.8884 86.4287 29.8884Z"
        fill="white" fill-opacity="0.1" />
    <g style="mix-blend-mode:plus-lighter">
        <path
            d="M122.643 145.96C72.9159 145.96 32.6056 105.731 32.6056 56.1054C32.6056 50.1784 33.1967 44.3912 34.2934 38.7852C19.2344 54.8468 10 76.415 10 100.146C10 149.771 50.3116 190 100.038 190C143.824 190 180.296 158.801 188.386 117.466C171.956 134.992 148.589 145.96 122.643 145.96Z"
            fill="url(#paint0_radial_3341_90118)" fill-opacity="0.6" />
    </g>
    <path opacity="0.6"
        d="M99.8139 19.5151C93.029 20.6337 89.3814 28.5134 92.8403 34.553C103.592 53.3315 123.593 65.9567 146.504 65.9567C149.893 65.9567 153.217 65.678 156.459 65.1436C163.243 64.0249 166.89 56.1453 163.432 50.1057C152.68 31.3272 132.68 18.702 109.768 18.702C106.379 18.702 103.054 18.9803 99.8139 19.5151Z"
        fill="white" />
    <path opacity="0.1"
        d="M106.019 180.905C56.3317 180.905 16.0522 140.66 16.0522 91.016C16.0522 74.5564 20.5015 59.1428 28.2317 45.8734C16.7952 60.9506 10 79.7352 10 100.111C10 149.756 50.2803 190 99.968 190C133.18 190 162.169 172.006 177.754 145.255C161.327 166.91 135.313 180.905 106.019 180.905Z"
        fill="#BFE6FF" />
    <path
        d="M99.7835 10C97.3833 10 95.0054 10.096 92.6523 10.2801C139.144 13.916 175.737 52.7918 175.737 100.216C175.737 147.641 139.143 186.517 92.6523 190.152C95.0054 190.336 97.3833 190.432 99.7835 190.432C149.608 190.432 190 150.041 190 100.216C190 50.3912 149.608 10 99.7835 10Z"
        fill="black" fill-opacity="0.05" />
    <defs>
        <filter id="filter0_b_3341_90118" x="-49.5273" y="-49.0954" width="298.623" height="298.622"
            filterUnits="userSpaceOnUse" color-interpolation-filters="sRGB">
            <feFlood flood-opacity="0" result="BackgroundImageFix" />
            <feGaussianBlur in="BackgroundImageFix" stdDeviation="30" />
            <feComposite in2="SourceAlpha" operator="in" result="effect1_backgroundBlur_3341_90118" />
            <feBlend mode="normal" in="SourceGraphic" in2="effect1_backgroundBlur_3341_90118"
                result="shape" />
        </filter>
        <radialGradient id="paint0_radial_3341_90118" cx="0" cy="0" r="1"
            gradientUnits="userSpaceOnUse"
            gradientTransform="translate(144.5 21) rotate(115.294) scale(181.39 453.396)">
            <stop offset="0.590503" stop-color="white" stop-opacity="0.1" />
            <stop offset="1" stop-color="white" stop-opacity="0.4" />
        </radialGradient>
        <clipPath id="clip0_3341_90118">
            <rect width="120" height="120" fill="white" transform="translate(39.7832 40.2162)" />
        </clipPath>
    </defs>
</svg>