<svg width="200" height="200" viewBox="0 0 200 200" fill="none" xmlns="http://www.w3.org/2000/svg">
    <g filter="url(#filter0_b_3341_130081)">
        <path
            d="M99.3113 188.623C148.637 188.623 188.623 148.637 188.623 99.3113C188.623 49.986 148.637 10 99.3113 10C49.986 10 10 49.986 10 99.3113C10 148.637 49.986 188.623 99.3113 188.623Z"
            fill="white" fill-opacity="0.1" />
    </g>
    <path opacity="0.4"
        d="M100.484 187.265C51.1585 187.265 11.1729 147.278 11.1729 97.9539C11.1729 87.3084 13.0432 77.1027 16.4601 67.6353C12.607 77.6136 10.4727 88.4464 10.4727 99.7834C10.4727 149.109 50.4583 189.095 99.7843 189.095C138.464 189.095 171.393 164.502 183.808 130.102C170.899 163.537 138.472 187.265 100.484 187.265Z"
        fill="#BFE6FF" />
    <g clip-path="url(#clip0_3341_130081)">
        <path
            d="M142.25 149.793H72.6962C69.9117 149.793 67.6543 147.536 67.6543 144.752V44.0419C67.6543 41.2574 69.9117 39 72.6962 39H142.25C145.034 39 147.291 41.2574 147.291 44.0419V144.752C147.291 147.536 145.034 149.793 142.25 149.793Z"
            fill="#00B26B" />
        <path
            d="M137.65 50.1372V120.3C137.65 131.026 134.084 141.384 127.613 149.793H142.25C145.034 149.793 147.292 147.536 147.292 144.752V59.7793L137.65 50.1372Z"
            fill="url(#paint0_linear_3341_130081)" />
        <path
            d="M126.72 154.499H57.1669C54.3824 154.499 52.125 152.242 52.125 149.457V48.7478C52.125 45.9633 54.3824 43.7059 57.1669 43.7059H126.72C129.505 43.7059 131.762 45.9633 131.762 48.7478V149.457C131.762 152.242 129.505 154.499 126.72 154.499Z"
            fill="#D8EDDD" />
        <path
            d="M118.884 159H63.9775C61.2652 159 59.0664 156.801 59.0664 154.089V53.1177C59.0664 50.4054 61.265 48.2066 63.9775 48.2066H133.793C136.505 48.2066 138.704 50.4054 138.704 53.1177V139.18C138.703 150.127 129.83 159 118.884 159Z"
            fill="white" />
        <path opacity="0.5"
            d="M59.0664 123.011V154.089C59.0664 156.801 61.265 159 63.9775 159H118.884C129.83 159 138.703 150.127 138.703 139.181V123.011L59.0664 123.011Z"
            fill="url(#paint1_linear_3341_130081)" fill-opacity="0.1" />
        <path opacity="0.5"
            d="M118.885 159V144.091C118.885 141.379 121.084 139.18 123.796 139.18H138.705C138.704 150.127 129.831 159 118.885 159Z"
            fill="black" fill-opacity="0.2" />
        <path
            d="M87.0772 123.455H107.035C108.01 123.455 108.8 124.245 108.8 125.22C108.8 126.194 108.01 126.984 107.035 126.984H87.0772C86.1026 126.984 85.3125 126.194 85.3125 125.22C85.3125 124.245 86.1026 123.455 87.0772 123.455Z"
            fill="#00B26B" />
        <path
            d="M87.0772 115.769H100.8C101.775 115.769 102.565 116.559 102.565 117.533C102.565 118.508 101.775 119.298 100.8 119.298H87.0772C86.1026 119.298 85.3125 118.508 85.3125 117.533C85.3125 116.559 86.1026 115.769 87.0772 115.769Z"
            fill="#00B26B" />
        <path
            d="M128.371 126.984H114.136C113.161 126.984 112.371 126.194 112.371 125.22C112.371 124.245 113.161 123.455 114.136 123.455H128.371C129.346 123.455 130.136 124.245 130.136 125.22C130.136 126.194 129.346 126.984 128.371 126.984Z"
            fill="#00B26B" />
        <path
            d="M122.136 115.769C123.11 115.769 123.901 116.559 123.901 117.533C123.901 118.508 123.11 119.298 122.136 119.298H114.136C113.161 119.298 112.371 118.508 112.371 117.533C112.371 116.559 113.161 115.769 114.136 115.769H122.136Z"
            fill="#00B26B" />
        <path
            d="M106.019 119.298C105.044 119.298 104.254 118.508 104.254 117.533C104.254 116.559 105.044 115.769 106.019 115.769H108.019C108.993 115.769 109.783 116.559 109.783 117.533C109.783 118.508 108.993 119.298 108.019 119.298H106.019Z"
            fill="#00B26B" />
        <path
            d="M128.371 110.514H108.413C107.439 110.514 106.648 109.724 106.648 108.749C106.648 107.774 107.439 106.984 108.413 106.984H128.371C129.346 106.984 130.136 107.774 130.136 108.749C130.136 109.724 129.346 110.514 128.371 110.514Z"
            fill="#00B26B" />
        <path
            d="M122.136 102.828H108.413C107.439 102.828 106.648 102.037 106.648 101.063C106.648 100.088 107.439 99.2982 108.413 99.2982H122.136C123.111 99.2982 123.901 100.088 123.901 101.063C123.901 102.037 123.111 102.828 122.136 102.828Z"
            fill="#00B26B" />
        <path
            d="M87.0772 106.984H101.313C102.287 106.984 103.077 107.774 103.077 108.749C103.077 109.724 102.287 110.514 101.313 110.514H87.0772C86.1026 110.514 85.3125 109.724 85.3125 108.749C85.3125 107.774 86.1026 106.984 87.0772 106.984Z"
            fill="#00B26B" />
        <path
            d="M87.0772 99.2982H95.0772C96.0518 99.2982 96.8419 100.088 96.8419 101.063C96.8419 102.037 96.0518 102.828 95.0772 102.828H87.0772C86.1026 102.828 85.3125 102.037 85.3125 101.063C85.3125 100.088 86.1026 99.2982 87.0772 99.2982Z"
            fill="#00B26B" />
        <path
            d="M101.194 102.828C100.22 102.828 99.4297 102.037 99.4297 101.063C99.4297 100.088 100.22 99.2982 101.194 99.2982H103.194C104.169 99.2982 104.959 100.088 104.959 101.063C104.959 102.037 104.169 102.828 103.194 102.828H101.194Z"
            fill="#00B26B" />
        <path
            d="M100.8 94.5137H87.0772C86.1026 94.5137 85.3125 93.7238 85.3125 92.749C85.3125 91.7744 86.1026 90.9843 87.0772 90.9843H100.8C101.775 90.9843 102.565 91.7744 102.565 92.749C102.565 93.7238 101.775 94.5137 100.8 94.5137Z"
            fill="#00B26B" />
        <path
            d="M122.136 94.5137H114.136C113.161 94.5137 112.371 93.7238 112.371 92.749C112.371 91.7744 113.161 90.9843 114.136 90.9843H122.136C123.11 90.9843 123.901 91.7744 123.901 92.749C123.901 93.7238 123.11 94.5137 122.136 94.5137Z"
            fill="#00B26B" />
        <path
            d="M108.019 94.5137H106.019C105.044 94.5137 104.254 93.7238 104.254 92.749C104.254 91.7744 105.044 90.9843 106.019 90.9843H108.019C108.993 90.9843 109.783 91.7744 109.783 92.749C109.783 93.7238 108.993 94.5137 108.019 94.5137Z"
            fill="#00B26B" />
        <path
            d="M87.0772 132.278H97.1346C98.1092 132.278 98.8993 133.068 98.8993 134.043C98.8993 135.018 98.1092 135.808 97.1346 135.808H87.0772C86.1026 135.808 85.3125 135.018 85.3125 134.043C85.3125 133.068 86.1026 132.278 87.0772 132.278Z"
            fill="#00B26B" />
        <path
            d="M104.784 132.278H128.371C129.346 132.278 130.136 133.068 130.136 134.043C130.136 135.018 129.346 135.808 128.371 135.808H104.784C103.81 135.808 103.02 135.018 103.02 134.043C103.02 133.068 103.81 132.278 104.784 132.278Z"
            fill="#00B26B" />
        <path
            d="M77.5277 104.428H71.2159C69.2411 104.428 67.6348 102.822 67.6348 100.847V94.5353C67.6348 92.5605 69.2414 90.9541 71.2159 90.9541H77.5277C79.5025 90.9541 81.1089 92.5607 81.1089 94.5353V100.847C81.1089 102.822 79.5025 104.428 77.5277 104.428ZM71.2159 94.4833C71.1872 94.4833 71.1642 94.5066 71.1642 94.535V100.847C71.1642 100.876 71.1875 100.899 71.2159 100.899H77.5277C77.5564 100.899 77.5795 100.875 77.5795 100.847V94.535C77.5795 94.5063 77.5562 94.4833 77.5277 94.4833H71.2159Z"
            fill="#D8EDDD" />
        <path
            d="M77.5277 120.133H71.2159C69.2411 120.133 67.6348 118.527 67.6348 116.552V110.24C67.6348 108.266 69.2414 106.659 71.2159 106.659H77.5277C79.5025 106.659 81.1089 108.266 81.1089 110.24V116.552C81.1089 118.527 79.5025 120.133 77.5277 120.133ZM71.2159 110.188C71.1872 110.188 71.1642 110.212 71.1642 110.24V116.552C71.1642 116.58 71.1875 116.604 71.2159 116.604H77.5277C77.5564 116.604 77.5795 116.58 77.5795 116.552V110.24C77.5795 110.211 77.5562 110.188 77.5277 110.188H71.2159Z"
            fill="#D8EDDD" />
        <path
            d="M77.5277 135.838H71.2159C69.2411 135.838 67.6348 134.232 67.6348 132.257V125.945C67.6348 123.97 69.2414 122.364 71.2159 122.364H77.5277C79.5025 122.364 81.1089 123.971 81.1089 125.945V132.257C81.1089 134.232 79.5025 135.838 77.5277 135.838ZM71.2159 125.893C71.1872 125.893 71.1642 125.917 71.1642 125.945V132.257C71.1642 132.286 71.1875 132.309 71.2159 132.309H77.5277C77.5564 132.309 77.5795 132.285 77.5795 132.257V125.945C77.5795 125.916 77.5562 125.893 77.5277 125.893H71.2159Z"
            fill="#D8EDDD" />
        <path
            d="M81.8456 86.7887C77.4534 86.7889 73.6936 85.3191 71.2148 82.6221C69.0647 80.2828 68.0739 77.256 68.4247 74.0993C68.807 70.6591 70.7541 67.7325 74.0562 65.636C76.6764 63.9725 80.1049 62.8776 83.7103 62.5536C84.6802 62.4673 85.5388 63.1824 85.6259 64.1532C85.7132 65.124 84.9969 65.9817 84.0263 66.0687C80.971 66.3433 78.1021 67.2478 75.948 68.6155C73.5473 70.1398 72.1962 72.116 71.9327 74.4889C71.6964 76.6165 72.3645 78.6567 73.8136 80.2339C75.6901 82.2755 78.6988 83.3487 82.2786 83.2534C91.4894 83.0108 99.456 76.4042 100.845 70.6268C101.511 67.8574 100.956 65.3426 99.239 63.3548C96.508 60.192 91.1456 58.6398 84.8943 59.2009C83.924 59.2896 83.0661 58.572 82.9788 57.6014C82.8915 56.6308 83.6077 55.7729 84.5783 55.6859C92.0689 55.0115 98.3863 56.9671 101.91 61.0482C104.366 63.8918 105.206 67.5866 104.276 71.452C102.341 79.4998 92.3103 86.5198 82.3715 86.7817C82.1953 86.7864 82.02 86.7887 81.8456 86.7887Z"
            fill="#FF6047" />
        <path
            d="M71.7082 101.156C71.2423 101.156 70.7925 100.972 70.4605 100.64L67.48 97.6598C66.7906 96.9706 66.7906 95.8534 67.4797 95.1643C68.1692 94.4751 69.2866 94.4749 69.9753 95.1643L71.5572 96.7459C73.339 94.66 76.8965 91.017 81.871 88.4167C82.735 87.9652 83.8012 88.2991 84.2525 89.1631C84.704 90.0269 84.3699 91.0932 83.5061 91.5445C77.0927 94.8967 73.1892 100.354 73.1506 100.409C72.8503 100.834 72.3772 101.106 71.8588 101.15C71.8087 101.154 71.7583 101.156 71.7082 101.156Z"
            fill="#FF6047" />
        <path
            d="M76.6496 116.921C76.1837 116.921 75.7339 116.737 75.4019 116.405L72.4214 113.424C71.732 112.735 71.732 111.618 72.4212 110.929C73.1106 110.24 74.228 110.239 74.9167 110.929L76.4986 112.51C78.2804 110.424 81.8379 106.781 86.8124 104.181C87.6764 103.73 88.7426 104.064 89.1939 104.928C89.6454 105.791 89.3113 106.858 88.4475 107.309C82.0341 110.661 78.1306 116.119 78.092 116.173C77.7917 116.598 77.3186 116.87 76.8002 116.914C76.7501 116.918 76.6997 116.921 76.6496 116.921Z"
            fill="#FF6047" />
        <path
            d="M71.8254 133.744C71.3595 133.744 70.9096 133.56 70.5776 133.228L67.5972 130.248C66.9078 129.559 66.9078 128.441 67.5969 127.752C68.2863 127.063 69.4038 127.063 70.0925 127.752L71.6743 129.334C73.4562 127.248 77.0136 123.605 81.9882 121.005C82.8522 120.553 83.9183 120.887 84.3696 121.751C84.8212 122.615 84.4871 123.681 83.6233 124.132C77.2099 127.485 73.3063 132.942 73.2678 132.997C72.9675 133.422 72.4943 133.694 71.976 133.738C71.9259 133.742 71.8755 133.744 71.8254 133.744Z"
            fill="#FF6047" />
        <path
            d="M78.7891 80.6047C78.7891 80.5151 78.8187 80.3958 78.8486 80.2762L84.4013 62.0661C84.7298 61.0212 86.0731 60.5139 87.4462 60.5139C88.8194 60.5139 90.1629 61.0214 90.4912 62.0661L96.0738 80.2762C96.1036 80.3955 96.1333 80.5151 96.1333 80.6047C96.1333 81.7092 94.4319 82.5153 93.1481 82.5153C92.4018 82.5153 91.8048 82.2765 91.6255 81.6497L90.6107 77.9181H84.3116L83.2966 81.6497C83.1175 82.2765 82.5204 82.5153 81.774 82.5153C80.4905 82.5153 78.7891 81.7094 78.7891 80.6047ZM89.6255 74.3358L87.4462 66.3353L85.2669 74.3358H89.6255Z"
            fill="#FF6047" />
    </g>
    <path
        d="M99.7838 189.568C149.37 189.568 189.568 149.37 189.568 99.7838C189.568 50.1976 149.37 10 99.7838 10C50.1976 10 10 50.1976 10 99.7838C10 149.37 50.1976 189.568 99.7838 189.568Z"
        fill="white" fill-opacity="0.1" />
    <path
        d="M86.4287 29.456C136.068 29.456 176.31 69.7591 176.31 119.476C176.31 134.071 172.82 147.842 166.664 160.033C180.901 144.106 189.568 123.08 189.568 100.02C189.568 50.304 149.327 10 99.6867 10C64.6198 10 34.2645 30.1272 19.4512 59.4632C35.9089 41.0517 59.8124 29.456 86.4287 29.456Z"
        fill="white" fill-opacity="0.1" />
    <g style="mix-blend-mode:plus-lighter">
        <path
            d="M122.643 145.527C72.9159 145.527 32.6056 105.298 32.6056 55.6729C32.6056 49.746 33.1967 43.9588 34.2934 38.3528C19.2344 54.4143 10 75.9826 10 99.7135C10 149.339 50.3116 189.568 100.038 189.568C143.824 189.568 180.296 158.369 188.386 117.034C171.956 134.559 148.589 145.527 122.643 145.527Z"
            fill="url(#paint2_radial_3341_130081)" fill-opacity="0.6" />
    </g>
    <path opacity="0.6"
        d="M99.8139 19.0827C93.029 20.2013 89.3814 28.081 92.8403 34.1205C103.592 52.899 123.593 65.5242 146.504 65.5242C149.893 65.5242 153.217 65.2455 156.459 64.7112C163.243 63.5925 166.89 55.7128 163.432 49.6733C152.68 30.8948 132.68 18.2696 109.768 18.2696C106.379 18.2696 103.054 18.5478 99.8139 19.0827Z"
        fill="white" />
    <path opacity="0.1"
        d="M106.019 180.472C56.3317 180.472 16.0522 140.228 16.0522 90.5835C16.0522 74.124 20.5015 58.7103 28.2317 45.441C16.7952 60.5182 10 79.3028 10 99.6791C10 149.323 50.2803 189.568 99.968 189.568C133.18 189.568 162.169 171.573 177.754 144.822C161.327 166.477 135.313 180.472 106.019 180.472Z"
        fill="#BFE6FF" />
    <path
        d="M99.7835 10C97.3833 10 95.0054 10.096 92.6523 10.2801C139.144 13.916 175.737 52.7918 175.737 100.216C175.737 147.641 139.143 186.517 92.6523 190.152C95.0054 190.336 97.3833 190.432 99.7835 190.432C149.608 190.432 190 150.041 190 100.216C190 50.3912 149.608 10 99.7835 10Z"
        fill="black" fill-opacity="0.05" />
    <defs>
        <filter id="filter0_b_3341_130081" x="-50" y="-50" width="298.623" height="298.623"
            filterUnits="userSpaceOnUse" color-interpolation-filters="sRGB">
            <feFlood flood-opacity="0" result="BackgroundImageFix" />
            <feGaussianBlur in="BackgroundImageFix" stdDeviation="30" />
            <feComposite in2="SourceAlpha" operator="in" result="effect1_backgroundBlur_3341_130081" />
            <feBlend mode="normal" in="SourceGraphic" in2="effect1_backgroundBlur_3341_130081"
                result="shape" />
        </filter>
        <linearGradient id="paint0_linear_3341_130081" x1="155.16" y1="99.9654" x2="136.32"
            y2="99.9654" gradientUnits="userSpaceOnUse">
            <stop stop-color="#7BACDF" stop-opacity="0" />
            <stop offset="1" stop-color="#017297" />
        </linearGradient>
        <linearGradient id="paint1_linear_3341_130081" x1="98.8849" y1="123.011" x2="98.8849"
            y2="159" gradientUnits="userSpaceOnUse">
            <stop stop-color="#666666" stop-opacity="0" />
            <stop offset="1" />
        </linearGradient>
        <radialGradient id="paint2_radial_3341_130081" cx="0" cy="0" r="1"
            gradientUnits="userSpaceOnUse"
            gradientTransform="translate(144.5 20.5676) rotate(115.294) scale(181.39 453.396)">
            <stop offset="0.590503" stop-color="white" stop-opacity="0.1" />
            <stop offset="1" stop-color="white" stop-opacity="0.4" />
        </radialGradient>
        <clipPath id="clip0_3341_130081">
            <rect width="120" height="120" fill="white" transform="translate(39 39)" />
        </clipPath>
    </defs>
</svg>