<svg width="21" height="20" viewBox="0 0 21 20" fill="none" xmlns="http://www.w3.org/2000/svg">
    <g clip-path="url(#clip0_1307_3032)">
        <path
            d="M6.96694 5.54277L9.28434 3.22454L9.30184 14.5841C9.30184 15.2744 9.86147 15.834 10.5518 15.834C11.2421 15.834 11.8017 15.2744 11.8017 14.5841L11.7842 3.23872L14.0883 5.5428C14.5679 6.03935 15.3592 6.05309 15.8557 5.57351C16.3523 5.09392 16.366 4.30262 15.8864 3.80608C15.8764 3.79565 15.8661 3.78542 15.8557 3.77538L13.1792 1.09882C11.7148 -0.365614 9.34051 -0.365614 7.87608 1.09878L7.87605 1.09882L5.19952 3.77534C4.71993 4.27188 4.73368 5.06318 5.23022 5.54277C5.71462 6.0106 6.48255 6.0106 6.96694 5.54277Z"
            fill="white" fill-opacity="0.6" />
        <path
            d="M19.2502 12.0836C18.5598 12.0836 18.0002 12.6432 18.0002 13.3335V17.1592C17.9998 17.3472 17.8475 17.4995 17.6594 17.5H3.34167C3.15364 17.4995 3.0013 17.3472 3.00087 17.1592V13.3335C3.00087 12.6432 2.44124 12.0836 1.75092 12.0836C1.0606 12.0836 0.500977 12.6432 0.500977 13.3335V17.1592C0.502812 18.7273 1.77358 19.998 3.34167 19.9998H17.6594C19.2275 19.998 20.4982 18.7272 20.5001 17.1592V13.3335C20.5001 12.6432 19.9405 12.0836 19.2502 12.0836Z"
            fill="white" fill-opacity="0.6" />
    </g>
    <defs>
        <clipPath id="clip0_1307_3032">
            <rect width="20" height="20" fill="white" transform="translate(0.5)" />
        </clipPath>
    </defs>
</svg>
    