<svg width="60" height="61" viewBox="0 0 60 61" fill="none" xmlns="http://www.w3.org/2000/svg">
    <g clip-path="url(#clip0_1307_1383)">
        <path
            d="M22.9339 21.5856L27.5687 16.9491L27.6037 39.6682C27.6037 41.0488 28.7229 42.1681 30.1036 42.1681C31.4842 42.1681 32.6035 41.0488 32.6035 39.6682L32.5685 16.9775L37.1766 21.5857C38.1358 22.5788 39.7184 22.6062 40.7115 21.6471C41.7046 20.6879 41.7321 19.1053 40.7729 18.1122C40.7527 18.0914 40.7323 18.0709 40.7115 18.0508L35.3584 12.6977C32.4296 9.76883 27.681 9.76883 24.7522 12.6976L24.7521 12.6977L19.399 18.0507C18.4399 19.0438 18.4674 20.6264 19.4604 21.5856C20.4292 22.5213 21.9651 22.5213 22.9339 21.5856Z"
            fill="#00B26B" />
        <path
            d="M47.4994 34.6671C46.1187 34.6671 44.9995 35.7864 44.9995 37.167V44.8183C44.9985 45.1944 44.6939 45.4991 44.3179 45.4999H15.6824C15.3063 45.499 15.0016 45.1944 15.0008 44.8183V37.167C15.0008 35.7864 13.8815 34.6671 12.5009 34.6671C11.1202 34.6671 10.001 35.7864 10.001 37.167V44.8183C10.0046 47.9546 12.5462 50.496 15.6824 50.4997H44.3178C47.4541 50.496 49.9955 47.9545 49.9992 44.8183V37.167C49.9993 35.7864 48.88 34.6671 47.4994 34.6671Z"
            fill="#00B26B" />
    </g>
    <defs>
        <clipPath id="clip0_1307_1383">
            <rect width="40" height="40" fill="white" transform="translate(10 10.5)" />
        </clipPath>
    </defs>
</svg>
    