<svg width="33" height="32" viewBox="0 0 33 32" fill="none" xmlns="http://www.w3.org/2000/svg">
    <g clip-path="url(#clip0_2808_40481)">
    <path d="M30.7833 11.9407C29.8827 11.4843 28.8011 11.5794 27.994 12.186L25.55 14.0007C25.2035 10.5962 22.3387 8.005 18.9167 8.00069H18.8034L13.3074 2.506C12.5594 1.75282 11.5409 1.33069 10.4794 1.334H1.58331C0.846938 1.334 0.25 1.931 0.25 2.66738C0.25 3.40375 0.846938 4.00069 1.58331 4.00069H10.4793C10.8328 4.00163 11.1715 4.142 11.422 4.39138L15.0313 8.00069H6.91669C3.23662 8.00513 0.254438 10.9873 0.25 14.6674V25.3341C0.254438 29.0141 3.23662 31.9963 6.91669 32.0007H18.9167C22.3388 31.9964 25.2035 29.4052 25.55 26.0007L27.99 27.8194C29.1682 28.703 30.8397 28.4643 31.7233 27.2861C32.0695 26.8245 32.2566 26.2631 32.2566 25.6861V14.3247C32.2601 13.3141 31.6887 12.3896 30.7833 11.9407ZM22.9167 25.334C22.9167 27.5431 21.1258 29.334 18.9167 29.334H6.91669C4.70756 29.334 2.91669 27.5431 2.91669 25.334V14.6674C2.91669 12.4583 4.70756 10.6674 6.91669 10.6674H18.9167C21.1258 10.6674 22.9167 12.4583 22.9167 14.6674V25.334ZM29.5833 25.6767L25.5833 22.6954V17.3061L29.5833 14.3248V25.6767Z" fill="#D8EDDD"/>
    </g>
    <defs>
    <clipPath id="clip0_2808_40481">
    <rect width="32" height="32" fill="white" transform="translate(0.25)"/>
    </clipPath>
    </defs>
    </svg>
    