<svg width="60" height="60" viewBox="0 0 60 60" fill="none" xmlns="http://www.w3.org/2000/svg">
    <g clip-path="url(#clip0_1324_27004)">
        <path
            d="M48.1666 24.926C47.0409 24.3556 45.6888 24.4745 44.68 25.2327L41.625 27.501C41.1919 23.2454 37.6109 20.0064 33.3334 20.001H33.1917L26.3217 13.1327C25.3868 12.1912 24.1136 11.6635 22.7867 11.6677H11.6666C10.7462 11.6677 10 12.4139 10 13.3344C10 14.2549 10.7462 15.001 11.6666 15.001H22.7866C23.2284 15.0022 23.6519 15.1777 23.965 15.4894L28.4766 20.001H18.3334C13.7333 20.0066 10.0055 23.7343 10 28.3344V41.6678C10.0055 46.2678 13.7333 49.9956 18.3334 50.001H33.3334C37.611 49.9957 41.1919 46.7567 41.625 42.501L44.675 44.7744C46.1477 45.8789 48.2371 45.5805 49.3416 44.1078C49.7744 43.5308 50.0083 42.829 50.0083 42.1078V27.906C50.0127 26.6428 49.2984 25.4871 48.1666 24.926ZM38.3334 41.6677C38.3334 44.4291 36.0948 46.6677 33.3334 46.6677H18.3334C15.572 46.6677 13.3334 44.4291 13.3334 41.6677V28.3344C13.3334 25.573 15.572 23.3344 18.3334 23.3344H33.3334C36.0948 23.3344 38.3334 25.573 38.3334 28.3344V41.6677ZM46.6666 42.0961L41.6666 38.3694V31.6328L46.6666 27.9061V42.0961Z"
            fill="#00B26B" />
    </g>
    <defs>
        <clipPath id="clip0_1324_27004">
            <rect width="40" height="40" fill="white" transform="translate(10 10)" />
        </clipPath>
    </defs>
</svg>
    