<svg width="60" height="60" viewBox="0 0 60 60" fill="none" xmlns="http://www.w3.org/2000/svg">
    <g clip-path="url(#clip0_1307_1540)">
        <path
            d="M50.6629 25.2679C47.8194 20.6369 41.3514 12.8672 29.9994 12.8672C18.6474 12.8672 12.1794 20.6369 9.33586 25.2679C8.45683 26.6896 7.99121 28.3281 7.99121 29.9997C7.99121 31.6712 8.45683 33.3098 9.33586 34.7315C12.1794 39.3625 18.6474 47.1322 29.9994 47.1322C41.3514 47.1322 47.8194 39.3625 50.6629 34.7315C51.5419 33.3098 52.0075 31.6712 52.0075 29.9997C52.0075 28.3281 51.5419 26.6896 50.6629 25.2679ZM47.537 32.812C45.095 36.783 39.5675 43.4655 29.9994 43.4655C20.4312 43.4655 14.9037 36.783 12.4617 32.812C11.9394 31.9669 11.6628 30.9931 11.6628 29.9997C11.6628 29.0063 11.9394 28.0324 12.4617 27.1874C14.9037 23.2164 20.4312 16.5339 29.9994 16.5339C39.5675 16.5339 45.095 23.209 47.537 27.1874C48.0593 28.0324 48.3359 29.0063 48.3359 29.9997C48.3359 30.9931 48.0593 31.9669 47.537 32.812Z"
            fill="#00B26B" />
        <path
            d="M29.9997 20.833C28.1867 20.833 26.4144 21.3706 24.907 22.3779C23.3995 23.3851 22.2246 24.8168 21.5308 26.4917C20.837 28.1667 20.6554 30.0098 21.0091 31.788C21.3628 33.5662 22.2359 35.1995 23.5179 36.4815C24.7998 37.7635 26.4332 38.6365 28.2114 38.9902C29.9895 39.3439 31.8326 39.1624 33.5076 38.4686C35.1826 37.7748 36.6142 36.5999 37.6215 35.0924C38.6287 33.585 39.1663 31.8127 39.1663 29.9997C39.1634 27.5694 38.1967 25.2395 36.4783 23.5211C34.7598 21.8026 32.4299 20.8359 29.9997 20.833ZM29.9997 35.4997C28.9119 35.4997 27.8485 35.1771 26.944 34.5728C26.0396 33.9684 25.3346 33.1094 24.9183 32.1044C24.5021 31.0994 24.3931 29.9936 24.6054 28.9267C24.8176 27.8598 25.3414 26.8798 26.1106 26.1106C26.8798 25.3414 27.8598 24.8176 28.9267 24.6054C29.9936 24.3931 31.0994 24.5021 32.1044 24.9183C33.1094 25.3346 33.9684 26.0396 34.5728 26.944C35.1771 27.8485 35.4997 28.9119 35.4997 29.9997C35.4997 31.4584 34.9202 32.8573 33.8888 33.8888C32.8573 34.9202 31.4584 35.4997 29.9997 35.4997Z"
            fill="#00B26B" />
    </g>
    <defs>
        <clipPath id="clip0_1307_1540">
            <rect width="44" height="44" fill="white" transform="translate(8 8)" />
        </clipPath>
    </defs>
</svg>
    