<svg width="32" height="32" viewBox="0 0 32 32" fill="none" xmlns="http://www.w3.org/2000/svg">
    <g clip-path="url(#clip0_1307_12760)">
        <path
            d="M19.9996 5.13145C20.0038 5.3966 20.0855 5.65474 20.2345 5.87411C20.3835 6.09348 20.5934 6.26449 20.8383 6.36611C23.0279 7.32956 24.8796 8.92545 26.1557 10.9489C27.4317 12.9724 28.0739 15.3311 27.9996 17.7221C27.948 20.9047 26.6342 23.9364 24.3473 26.1504C22.0603 28.3643 18.9876 29.5791 15.805 29.5274C12.6224 29.4758 9.59065 28.162 7.37672 25.8751C5.16279 23.5881 3.94802 20.5154 3.99965 17.3328C4.00273 15.0077 4.68118 12.7337 5.95252 10.787C7.22386 8.84036 9.03334 7.30495 11.161 6.36745C11.406 6.26522 11.6159 6.09368 11.7649 5.87389C11.9139 5.6541 11.9955 5.3956 11.9996 5.13011C12 4.91173 11.9467 4.6966 11.8444 4.50364C11.7422 4.31067 11.5941 4.14579 11.4131 4.02346C11.2322 3.90114 11.024 3.82513 10.8069 3.80211C10.5897 3.77909 10.3702 3.80977 10.1676 3.89145C7.07336 5.23297 4.53594 7.5999 2.9828 10.5936C1.42966 13.5872 0.955686 17.0247 1.64073 20.327C2.32577 23.6293 4.12796 26.5945 6.74374 28.7234C9.35953 30.8522 12.6291 32.0145 16.0016 32.0145C19.3742 32.0145 22.6438 30.8522 25.2596 28.7234C27.8753 26.5945 29.6775 23.6293 30.3626 20.327C31.0476 17.0247 30.5736 13.5872 29.0205 10.5936C27.4674 7.5999 24.9299 5.23297 21.8356 3.89145C21.6328 3.80888 21.4127 3.77755 21.1949 3.80023C20.9771 3.8229 20.7682 3.89888 20.5867 4.02146C20.4052 4.14403 20.2567 4.30942 20.1543 4.50302C20.0519 4.69661 19.9988 4.91244 19.9996 5.13145Z"
            fill="#252525" />
        <path
            d="M17.3337 1.33332C17.3337 0.596938 16.7367 -1.52588e-05 16.0003 -1.52588e-05C15.2639 -1.52588e-05 14.667 0.596938 14.667 1.33332V9.33332C14.667 10.0697 15.2639 10.6667 16.0003 10.6667C16.7367 10.6667 17.3337 10.0697 17.3337 9.33332V1.33332Z"
            fill="#252525" />
    </g>
    <defs>
        <clipPath id="clip0_1307_12760">
            <rect width="32" height="32" fill="white" />
        </clipPath>
    </defs>
</svg>
    