<svg width="60" height="60" viewBox="0 0 60 60" fill="none" xmlns="http://www.w3.org/2000/svg">
    <path
        d="M35.3023 29.9994L44.9998 20.2919C45.6294 19.5763 45.9629 18.6478 45.9325 17.6952C45.9021 16.7425 45.5101 15.8372 44.8361 15.1632C44.1621 14.4892 43.2568 14.0972 42.3041 14.0667C41.3514 14.0363 40.4229 14.3698 39.7073 14.9994L29.9998 24.6969L20.2748 14.9694C19.9265 14.6211 19.513 14.3448 19.0578 14.1563C18.6027 13.9678 18.1149 13.8707 17.6223 13.8707C17.1297 13.8707 16.6419 13.9678 16.1868 14.1563C15.7317 14.3448 15.3182 14.6211 14.9698 14.9694C14.6215 15.3178 14.3452 15.7313 14.1567 16.1864C13.9682 16.6415 13.8711 17.1293 13.8711 17.6219C13.8711 18.1145 13.9682 18.6023 14.1567 19.0575C14.3452 19.5126 14.6215 19.9261 14.9698 20.2744L24.6973 29.9994L14.9998 39.7044C14.6195 40.0444 14.3126 40.4584 14.0977 40.9211C13.8829 41.3838 13.7648 41.8854 13.7505 42.3953C13.7362 42.9052 13.8261 43.4127 14.0147 43.8867C14.2033 44.3607 14.4867 44.7912 14.8474 45.1519C15.2081 45.5126 15.6386 45.7959 16.1126 45.9845C16.5865 46.1731 17.094 46.263 17.6039 46.2488C18.1139 46.2345 18.6155 46.1163 19.0782 45.9015C19.5409 45.6867 19.9549 45.3797 20.2948 44.9994L29.9998 35.3019L39.6948 44.9994C40.3983 45.7029 41.3524 46.0981 42.3473 46.0981C43.3422 46.0981 44.2963 45.7029 44.9998 44.9994C45.7033 44.2959 46.0985 43.3418 46.0985 42.3469C46.0985 41.352 45.7033 40.3979 44.9998 39.6944L35.3023 29.9994Z"
        fill="#252525" />
</svg>
    