<svg width="32" height="32" viewBox="0 0 32 32" fill="none" xmlns="http://www.w3.org/2000/svg">
    <g clip-path="url(#clip0_1307_40236)">
        <path fill-rule="evenodd" clip-rule="evenodd"
            d="M14.5807 0.106247H17.4076C21.29 0.106247 23.5588 0.676483 25.5728 1.75629C27.5868 2.83609 29.1762 4.41334 30.2438 6.42739C31.3237 8.4414 31.8939 10.7102 31.8939 14.5926V17.4074C31.8939 21.2899 31.3237 23.5587 30.2438 25.5727C29.164 27.5867 27.5868 29.1761 25.5728 30.2438C23.5588 31.3236 21.29 31.8938 17.4076 31.8938H14.5928C10.7103 31.8938 8.44154 31.3236 6.42752 30.2438C4.41353 29.164 2.82415 27.5867 1.75648 25.5727C0.676675 23.5587 0.106445 21.2899 0.106445 17.4074V14.5926C0.106445 10.7102 0.676675 8.4414 1.75648 6.42739C2.83628 4.41334 4.41353 2.82396 6.42752 1.75629C8.42944 0.676483 10.7103 0.106247 14.5807 0.106247Z"
            fill="#252525" />
        <path opacity="0.12" fill-rule="evenodd" clip-rule="evenodd"
            d="M31.8935 16.9431V17.4076C31.8935 21.29 31.3233 23.5588 30.2435 25.5729C29.1637 27.5869 27.5864 29.1763 25.5724 30.244C23.5584 31.3238 21.2896 31.894 17.4072 31.894H14.5924C11.4156 31.894 9.31917 31.5122 7.55866 30.7818L4.65625 27.7931L31.8935 16.9431Z"
            fill="#001A33" />
        <path fill-rule="evenodd" clip-rule="evenodd"
            d="M4.97875 27.8971C6.46541 28.0614 8.3241 27.6375 9.64384 26.9968C15.3746 30.1644 24.3328 30.0131 29.7553 26.5428C29.9656 26.2274 30.1621 25.8993 30.3444 25.5592C31.4282 23.5379 32.0005 21.2608 32.0005 17.3642V14.5392C32.0005 10.6426 31.4282 8.3655 30.3444 6.34415C29.2728 4.32279 27.6777 2.7398 25.6563 1.65605C23.6349 0.572313 21.3579 0 17.4613 0H14.6241C11.3054 0 9.15104 0.417763 7.34093 1.21532C7.24199 1.30392 7.1449 1.39404 7.04986 1.48566C1.73929 6.60499 1.33561 17.702 5.83878 23.73C5.8438 23.7389 5.84937 23.7479 5.85548 23.757C6.54957 24.7798 5.87984 26.5699 4.83263 27.617C4.66215 27.7754 4.72304 27.8728 4.97875 27.8971Z"
            fill="white" />
        <path
            d="M13.1605 10.88H6.93646V12.2146H11.2556L6.99707 17.4923C6.86363 17.6864 6.7666 17.8684 6.7666 18.2809V18.6206H12.6387C12.9299 18.6206 13.1726 18.378 13.1726 18.0868V17.3709H8.63502L12.6387 12.348C12.6994 12.2753 12.8086 12.1418 12.8572 12.0812L12.8814 12.0447C13.1119 11.705 13.1605 11.4138 13.1605 11.062V10.88Z"
            fill="#252525" />
        <path
            d="M21.0827 18.6206H21.9684V10.88H20.6338V18.1717C20.6338 18.4144 20.8279 18.6206 21.0827 18.6206Z"
            fill="#252525" />
        <path
            d="M16.5214 12.6031C14.8471 12.6031 13.4883 13.962 13.4883 15.6363C13.4883 17.3106 14.8471 18.6694 16.5214 18.6694C18.1957 18.6694 19.5546 17.3106 19.5546 15.6363C19.5667 13.962 18.2079 12.6031 16.5214 12.6031ZM16.5214 17.4198C15.5387 17.4198 14.7379 16.619 14.7379 15.6363C14.7379 14.6536 15.5387 13.8528 16.5214 13.8528C17.5042 13.8528 18.3049 14.6536 18.3049 15.6363C18.3049 16.619 17.5163 17.4198 16.5214 17.4198Z"
            fill="#252525" />
        <path
            d="M25.9119 12.5544C24.2254 12.5544 22.8545 13.9254 22.8545 15.6118C22.8545 17.2982 24.2254 18.6692 25.9119 18.6692C27.5983 18.6692 28.9693 17.2982 28.9693 15.6118C28.9693 13.9254 27.5983 12.5544 25.9119 12.5544ZM25.9119 17.4196C24.917 17.4196 24.1163 16.6188 24.1163 15.6239C24.1163 14.6291 24.917 13.8283 25.9119 13.8283C26.9068 13.8283 27.7075 14.6291 27.7075 15.6239C27.7075 16.6188 26.9068 17.4196 25.9119 17.4196Z"
            fill="#252525" />
        <path
            d="M18.8522 18.6204H19.568V12.7725H18.3184V18.0987C18.3184 18.3778 18.561 18.6204 18.8522 18.6204Z"
            fill="#252525" />
    </g>
    <defs>
        <clipPath id="clip0_1307_40236">
            <rect width="32" height="32" fill="white" />
        </clipPath>
    </defs>
</svg>
    