<svg width="32" height="32" viewBox="0 0 32 32" fill="none" xmlns="http://www.w3.org/2000/svg">
<g clip-path="url(#clip0_141_5258)">
<path d="M6.13498 4.57765C6.55974 4.38366 6.96769 4.17434 7.32304 3.91576C8.61463 2.97578 9.50284 1.14283 11.0545 0.639012C12.5517 0.152895 14.3408 1.09783 16 1.09783C17.6592 1.09783 19.4483 0.152895 20.9454 0.639012C22.4972 1.14283 23.3854 2.97578 24.677 3.91576C25.9815 4.86514 27.9956 5.14998 28.945 6.45451C29.885 7.7461 29.5396 9.74504 30.0435 11.2968C30.5296 12.7939 32 14.2006 32 15.8599C32 17.5191 30.5296 18.9258 30.0435 20.423C29.5397 21.9747 29.885 23.9736 28.945 25.2652C27.9956 26.5698 25.9814 26.8546 24.677 27.804C23.3854 28.744 22.4972 30.5769 20.9454 31.0807C19.4483 31.5669 17.6592 30.6219 16 30.6219C14.3408 30.6219 12.5517 31.5669 11.0545 31.0807C9.50284 30.5769 8.61463 28.744 7.32304 27.804C6.01851 26.8546 4.00438 26.5698 3.055 25.2652C2.11503 23.9736 2.46039 21.9747 1.95657 20.423C1.47039 18.9258 0 17.5191 0 15.8599C0 14.2006 1.47039 12.7939 1.95651 11.2968C2.46033 9.74504 2.11503 7.7461 3.055 6.45451C3.35453 6.04296 3.76003 5.73294 4.21576 5.47146" fill="#00B26B"/>
<path d="M28.9705 15.8597C28.9705 17.2047 27.7785 18.3451 27.3844 19.5588C26.976 20.8167 27.256 22.4371 26.494 23.4842C25.7243 24.5417 24.0916 24.7725 23.0341 25.5422C21.987 26.3042 21.2671 27.7901 20.0092 28.1985C18.7955 28.5926 17.3452 27.8266 16.0002 27.8266C14.6551 27.8266 13.2048 28.5926 11.9911 28.1985C10.7332 27.7901 10.0133 26.3042 8.9662 25.5422C7.90872 24.7726 6.27595 24.5417 5.50628 23.4842C4.74426 22.4371 5.02422 20.8167 4.61581 19.5589C4.2217 18.3452 3.02979 17.2048 3.02979 15.8597C3.02979 14.5147 4.22177 13.3743 4.61581 12.1606C5.02422 10.9027 4.74426 9.2823 5.50628 8.23531C6.27589 7.17783 7.90866 6.94694 8.9662 6.17727C10.0133 5.41525 10.7332 3.92941 11.9911 3.52095C13.2048 3.12684 14.6551 3.89284 16.0002 3.89284C17.3452 3.89284 18.7955 3.12684 20.0092 3.52088C21.2671 3.92928 21.987 5.41519 23.0341 6.1772C24.0916 6.94681 25.7244 7.1777 26.494 8.23525C27.256 9.2823 26.9761 10.9027 27.3845 12.1606C27.7785 13.3742 28.9705 14.5146 28.9705 15.8597Z" fill="white"/>
<path d="M30.0437 11.2966C29.5399 9.7449 29.8852 7.74596 28.9452 6.45437C27.9958 5.14984 25.9816 4.86499 24.6771 3.91562C23.3856 2.97564 22.4973 1.14269 20.9456 0.638869C20.3117 0.43309 19.6255 0.48402 18.919 0.61099C18.9508 0.61994 18.9826 0.628632 19.014 0.638869C20.5658 1.14269 21.454 2.97564 22.7456 3.91562C24.0501 4.86499 26.0642 5.14984 27.0136 6.45437C27.9536 7.74596 27.6082 9.7449 28.1121 11.2966C28.5982 12.7937 30.0686 14.2005 30.0686 15.8597C30.0686 17.519 28.5982 18.9257 28.1121 20.4229C27.6083 21.9746 27.9536 23.9735 27.0136 25.2651C26.0642 26.5696 24.05 26.8545 22.7456 27.8038C21.454 28.7438 20.5658 30.5768 19.014 31.0806C18.9826 31.0908 18.9508 31.0995 18.9189 31.1085C19.6255 31.2354 20.3117 31.2864 20.9456 31.0806C22.4973 30.5768 23.3856 28.7438 24.6771 27.8038C25.9817 26.8545 27.9958 26.5696 28.9452 25.2651C29.8852 23.9735 29.5399 21.9746 30.0437 20.4229C30.5298 18.9257 32.0002 17.519 32.0002 15.8597C32.0002 14.2005 30.5298 12.7937 30.0437 11.2966Z" fill="#006638"/>
<path d="M27.3845 12.161C26.9761 10.903 27.256 9.28263 26.494 8.23564C25.7244 7.17816 24.0917 6.94721 23.0341 6.17766C21.9871 5.41565 21.2671 3.92974 20.0092 3.52134C19.4271 3.3323 18.7905 3.41034 18.1372 3.54252C19.3582 3.9779 20.0722 5.42782 21.1025 6.17766C22.16 6.94727 23.7928 7.17816 24.5624 8.23564C25.3245 9.28269 25.0445 10.9031 25.4529 12.161C25.847 13.3746 27.0389 14.515 27.0389 15.8601C27.0389 17.2051 25.847 18.3455 25.4529 19.5592C25.0444 20.8171 25.3245 22.4375 24.5624 23.4845C23.7928 24.542 22.1601 24.7729 21.1026 25.5426C20.0723 26.2923 19.3583 27.7422 18.1373 28.1776C18.7905 28.3098 19.4271 28.3878 20.0092 28.1989C21.2672 27.7904 21.9871 26.3046 23.0342 25.5426C24.0917 24.7729 25.7244 24.5421 26.494 23.4845C27.256 22.4375 26.9761 20.817 27.3845 19.5592C27.7785 18.3455 28.9705 17.2052 28.9705 15.8601C28.9705 14.515 27.7785 13.3746 27.3845 12.161Z" fill="black" fill-opacity="0.1"/>
<path d="M12.2771 21.5171L9.6269 18.3283C9.22695 17.8471 9.29286 17.1327 9.7741 16.7327L10.5171 16.1153C10.9983 15.7153 11.7126 15.7812 12.1127 16.2625L13.4478 17.869C13.7668 18.2528 14.3494 18.2726 14.6937 17.9112L21.5194 11.2514C21.951 10.7983 22.6682 10.781 23.1212 11.2126L23.8208 11.879C24.2739 12.3106 24.2913 13.0278 23.8596 13.4808L15.6149 21.6301C14.6925 22.5984 13.1319 22.5456 12.2771 21.5171Z" fill="#00B26B"/>
<path d="M23.8204 11.8789L23.1209 11.2126C22.6678 10.7809 21.9506 10.7984 21.519 11.2514L21.2757 11.4889L21.6851 11.8789C22.1382 12.3106 22.1556 13.0277 21.7239 13.4808L13.4792 21.6301C13.3134 21.8041 13.1269 21.9445 12.9277 22.0529C13.7861 22.5194 14.8947 22.3858 15.6146 21.6301L23.8594 13.4808C24.2909 13.0277 24.2735 12.3105 23.8204 11.8789Z" fill="#006638"/>
</g>
<defs>
<clipPath id="clip0_141_5258">
<rect width="32" height="32" fill="white"/>
</clipPath>
</defs>
</svg>
