<svg xmlns="http://www.w3.org/2000/svg" width="28" height="28" viewBox="0 0 28 28" fill="none">
  <path fill-rule="evenodd" clip-rule="evenodd" d="M27.3923 3.8002C28.1734 3.01915 28.1734 1.75282 27.3923 0.971773C26.6113 0.190724 25.345 0.190724 24.5639 0.971773L14.3641 11.1716L4.16422 0.971774C3.38317 0.190726 2.11684 0.190725 1.33579 0.971773C0.55474 1.75282 0.55474 3.01915 1.33579 3.8002L11.5356 14L1.33579 24.1999C0.554738 24.9809 0.554738 26.2473 1.33579 27.0283C2.11683 27.8094 3.38317 27.8094 4.16421 27.0283L14.3641 16.8285L24.5639 27.0283C25.345 27.8094 26.6113 27.8094 27.3923 27.0283C28.1734 26.2473 28.1734 24.9809 27.3923 24.1999L17.1925 14L27.3923 3.8002Z" fill="#666666"/>
</svg>