<svg width="28" height="28" viewBox="0 0 28 28" fill="none" xmlns="http://www.w3.org/2000/svg">
<path fill-rule="evenodd" clip-rule="evenodd" d="M27.3923 3.79996C28.1734 3.01891 28.1734 1.75258 27.3923 0.971529C26.6113 0.19048 25.345 0.19048 24.5639 0.971529L14.3641 11.1714L4.16422 0.971529C3.38317 0.190482 2.11684 0.190481 1.33579 0.971529C0.55474 1.75258 0.55474 3.01891 1.33579 3.79996L11.5356 13.9998L1.33579 24.1996C0.554738 24.9807 0.554738 26.247 1.33579 27.0281C2.11683 27.8091 3.38317 27.8091 4.16421 27.0281L14.3641 16.8282L24.5639 27.0281C25.345 27.8091 26.6113 27.8091 27.3923 27.0281C28.1734 26.247 28.1734 24.9807 27.3923 24.1997L17.1925 13.9998L27.3923 3.79996Z" fill="white"/>
</svg>
