<svg width="41" height="40" viewBox="0 0 41 40" fill="none" xmlns="http://www.w3.org/2000/svg">
<g clip-path="url(#clip0_2005_9064)">
<path d="M32.722 24.4459C31.4618 24.4469 30.2208 24.7546 29.1061 25.3423C27.9914 25.93 27.0364 26.7801 26.3236 27.8192L15.4753 22.9209C16.2458 21.0603 16.2488 18.9704 15.4836 17.1076L26.317 12.1842C27.3734 13.7122 28.9425 14.8108 30.7396 15.281C32.5367 15.7511 34.4428 15.5616 36.1122 14.7467C37.7815 13.9319 39.1035 12.5457 39.8384 10.8397C40.5732 9.13363 40.6723 7.22069 40.1176 5.44786C39.5628 3.67503 38.3911 2.15973 36.8148 1.17683C35.2386 0.193924 33.3623 -0.191478 31.5262 0.0905276C29.6901 0.372534 28.016 1.30327 26.8074 2.71391C25.5987 4.12454 24.9357 5.92165 24.9386 7.77923C24.9457 8.2189 24.9903 8.65716 25.072 9.08923L13.5553 14.3226C12.4492 13.2863 11.0645 12.5956 9.57125 12.3355C8.07803 12.0754 6.54134 12.2571 5.14998 12.8583C3.75861 13.4596 2.57317 14.4541 1.73929 15.7198C0.905406 16.9855 0.459404 18.4673 0.456073 19.983C0.452743 21.4987 0.89223 22.9824 1.72054 24.2517C2.54885 25.5211 3.72991 26.5208 5.11862 27.1282C6.50733 27.7355 8.04321 27.924 9.53756 27.6704C11.0319 27.4169 12.4197 26.7323 13.5303 25.7009L25.077 30.9142C24.9968 31.3459 24.9527 31.7836 24.9453 32.2226C24.945 33.7611 25.4009 35.2652 26.2555 36.5446C27.1101 37.824 28.3248 38.8212 29.7462 39.4102C31.1676 39.9991 32.7317 40.1533 34.2407 39.8532C35.7497 39.5531 37.1358 38.8123 38.2237 37.7243C39.3117 36.6364 40.0525 35.2503 40.3526 33.7413C40.6527 32.2323 40.4985 30.6682 39.9095 29.2468C39.3206 27.8255 38.3234 26.6107 37.044 25.7561C35.7646 24.9015 34.2605 24.4456 32.722 24.4459ZM32.722 3.33423C33.6012 3.3339 34.4607 3.59432 35.1919 4.08254C35.9231 4.57076 36.4931 5.26486 36.8298 6.07705C37.1665 6.88924 37.2547 7.78303 37.0834 8.64539C36.9121 9.50774 36.4889 10.2999 35.8673 10.9217C35.2457 11.5435 34.4537 11.9671 33.5914 12.1387C32.7291 12.3103 31.8353 12.2224 31.023 11.886C30.2107 11.5497 29.5164 10.9799 29.0279 10.2489C28.5394 9.51791 28.2786 8.65844 28.2786 7.77923C28.2795 6.60091 28.7479 5.47107 29.5809 4.63771C30.414 3.80435 31.5436 3.33556 32.722 3.33423ZM8.27863 24.4459C7.39942 24.4462 6.53986 24.1858 5.80866 23.6976C5.07747 23.2094 4.50748 22.5153 4.1708 21.7031C3.83411 20.8909 3.74584 19.9971 3.91717 19.1347C4.08849 18.2724 4.5117 17.4802 5.13328 16.8584C5.75486 16.2366 6.54688 15.8131 7.40917 15.6414C8.27146 15.4698 9.16529 15.5577 9.9776 15.8941C10.7899 16.2305 11.4842 16.8002 11.9727 17.5312C12.4612 18.2622 12.722 19.1217 12.722 20.0009C12.7206 21.1791 12.2521 22.3087 11.4192 23.1419C10.5862 23.9752 9.45682 24.4441 8.27863 24.4459ZM32.722 36.6676C31.8428 36.6676 30.9834 36.4069 30.2525 35.9185C29.5215 35.43 28.9517 34.7358 28.6153 33.9236C28.2789 33.1114 28.1909 32.2176 28.3624 31.3554C28.5339 30.4931 28.9572 29.7011 29.5789 29.0795C30.2005 28.4578 30.9925 28.0345 31.8548 27.863C32.717 27.6915 33.6108 27.7795 34.423 28.1159C35.2352 28.4524 35.9294 29.0221 36.4178 29.7531C36.9063 30.484 37.167 31.3434 37.167 32.2226C37.1661 33.4012 36.6975 34.5313 35.8641 35.3647C35.0307 36.1981 33.9006 36.6667 32.722 36.6676Z" fill="#00B26B"/>
</g>
<defs>
<clipPath id="clip0_2005_9064">
<rect width="40" height="40" fill="white" transform="translate(0.5)"/>
</clipPath>
</defs>
</svg>
