<svg width="41" height="40" viewBox="0 0 41 40" fill="none" xmlns="http://www.w3.org/2000/svg">
<g clip-path="url(#clip0_126_144473)">
<path d="M9.66667 35C8.5616 35 7.50179 34.561 6.72039 33.7796C5.93899 32.9982 5.5 31.9384 5.5 30.8333V2.5C5.5 1.83696 5.23661 1.20107 4.76777 0.732233C4.29893 0.263392 3.66304 0 3 0V0C2.33696 0 1.70107 0.263392 1.23223 0.732233C0.763392 1.20107 0.5 1.83696 0.5 2.5L0.5 30.8333C0.5 33.2645 1.46577 35.5961 3.18485 37.3151C4.90394 39.0342 7.23552 40 9.66667 40H38C38.663 40 39.2989 39.7366 39.7678 39.2678C40.2366 38.7989 40.5 38.163 40.5 37.5C40.5 36.837 40.2366 36.2011 39.7678 35.7322C39.2989 35.2634 38.663 35 38 35H9.66667Z" fill="#00B26B"/>
<path d="M33 30C33.663 30 34.2989 29.7366 34.7678 29.2678C35.2366 28.7989 35.5 28.163 35.5 27.5V17.5C35.5 16.837 35.2366 16.2011 34.7678 15.7322C34.2989 15.2634 33.663 15 33 15C32.337 15 31.7011 15.2634 31.2322 15.7322C30.7634 16.2011 30.5 16.837 30.5 17.5V27.5C30.5 28.163 30.7634 28.7989 31.2322 29.2678C31.7011 29.7366 32.337 30 33 30Z" fill="#00B26B"/>
<path d="M13 30C13.663 30 14.2989 29.7366 14.7678 29.2678C15.2366 28.7989 15.5 28.163 15.5 27.5V17.5C15.5 16.837 15.2366 16.2011 14.7678 15.7322C14.2989 15.2634 13.663 15 13 15C12.337 15 11.7011 15.2634 11.2322 15.7322C10.7634 16.2011 10.5 16.837 10.5 17.5V27.5C10.5 28.163 10.7634 28.7989 11.2322 29.2678C11.7011 29.7366 12.337 30 13 30Z" fill="#00B26B"/>
<path d="M23 29.9989C23.663 29.9989 24.2989 29.7355 24.7678 29.2666C25.2366 28.7978 25.5 28.1619 25.5 27.4989V9.16553C25.5 8.50249 25.2366 7.8666 24.7678 7.39776C24.2989 6.92892 23.663 6.66553 23 6.66553C22.337 6.66553 21.7011 6.92892 21.2322 7.39776C20.7634 7.8666 20.5 8.50249 20.5 9.16553V27.4989C20.5 28.1619 20.7634 28.7978 21.2322 29.2666C21.7011 29.7355 22.337 29.9989 23 29.9989Z" fill="#00B26B"/>
</g>
<defs>
<clipPath id="clip0_126_144473">
<rect width="40" height="40" fill="white" transform="translate(0.5)"/>
</clipPath>
</defs>
</svg>
