<svg width="477" height="477" viewBox="0 0 477 477" fill="none" xmlns="http://www.w3.org/2000/svg">
<g clip-path="url(#clip0_2001_7990)" filter="url(#filter0_dddddd_2001_7990)">
<path fill-rule="evenodd" clip-rule="evenodd" d="M381.951 180.987C372.888 159.549 325.841 142.155 264.93 138.149C257.484 137.657 249.831 137.378 242 137.286C169.39 136.597 108.518 154.854 96.8303 179.315C83.7353 200.656 85.027 225.22 93.0482 244.591C94.3246 249.187 96.7008 253.615 100.095 257.844C110.141 270.439 128.93 281.159 153.171 288.689C165.374 292.473 178.935 295.431 193.496 297.433C207.695 299.389 222.838 300.414 238.54 300.349C270.167 300.231 299.389 295.711 323.225 288.147C347.032 280.609 365.511 270.003 375.655 257.685C379.056 253.552 381.515 249.231 382.92 244.744C391.355 225.878 393.585 201.94 381.979 180.988L381.951 180.987ZM240.002 230.088C215.874 229.667 194.708 227.131 181.242 223.423C171.583 220.776 165.9 217.522 165.939 214.028C165.949 212.182 167.55 210.418 170.461 208.777C175.243 206.085 183.534 203.74 194.287 201.968C206.987 199.848 223.062 198.516 240.673 198.325C276.789 199.079 305.868 204.479 312.425 211.414C313.354 212.413 313.861 213.445 313.807 214.505C313.522 222.825 281.138 229.533 239.973 230.115L240.002 230.088Z" fill="url(#paint0_radial_2001_7990)"/>
<path style="mix-blend-mode:multiply" fill-rule="evenodd" clip-rule="evenodd" d="M351.89 191.533C350.251 194.05 348.063 196.343 345.383 198.415C344.567 199.045 343.753 199.647 342.856 200.216C342.566 200.425 342.247 200.632 341.93 200.812C341.352 201.174 340.746 201.535 340.112 201.894C332.792 206.05 323.231 209.142 312.455 211.388C305.897 204.453 276.819 199.052 240.703 198.298C235.635 198.347 230.702 198.514 225.905 198.745C200.067 200.026 179.278 203.802 170.49 208.751C163.286 206.257 155.508 202.952 148.624 199.104C147.672 198.58 146.722 198 145.799 197.45C145.528 197.268 145.228 197.113 144.958 196.931C143.953 196.321 142.98 195.656 142.005 195.018C130.192 186.892 123.809 177.085 133.944 167.675C144.313 158.053 186.948 142.947 239.545 142.082C249.991 141.917 261.688 142.458 273.491 143.676C320.504 148.595 369.387 164.544 351.892 191.505L351.89 191.533Z" fill="url(#paint1_linear_2001_7990)"/>
<path fill-rule="evenodd" clip-rule="evenodd" d="M278.373 179.583C278.373 179.583 320.648 185.77 345.115 204.75C344.299 205.38 343.457 205.98 342.588 206.551C342.298 206.76 341.981 206.939 341.662 207.147C324.8 194.875 294.529 185.414 273.565 182.777L267.745 169.615L218.987 169.278L212.551 182.429C192.651 184.685 164.082 192.874 145.775 203.936C145.503 203.783 145.205 203.6 144.934 203.418C143.93 202.807 142.955 202.17 142.009 201.507C168.263 184.418 207.82 179.167 207.82 179.167C213.348 170.109 218.294 160.377 218.294 160.377L268.785 160.747C268.785 160.747 273.268 170.513 278.373 179.583Z" fill="url(#paint2_radial_2001_7990)"/>
<path style="mix-blend-mode:multiply" fill-rule="evenodd" clip-rule="evenodd" d="M158.23 192.939C158.23 192.939 175.11 184.6 208.293 180.31L218.966 161.474L267.263 162.599L277.901 181.153C277.901 181.153 299.566 182.679 335.517 198.722L339.28 196.817C339.28 196.817 318.88 186.406 299.854 181.967C280.745 177.523 278.447 177.042 278.447 177.042L268.16 156.548L217.151 157.019L206.183 177.797C206.183 177.797 172.598 180.64 149.246 194.046L151.228 195.797L158.118 192.933L158.23 192.939Z" fill="url(#paint3_linear_2001_7990)"/>
<path style="mix-blend-mode:screen" opacity="0.6" fill-rule="evenodd" clip-rule="evenodd" d="M342.587 206.579C342.296 206.788 341.979 206.967 341.661 207.175C341.083 207.537 340.477 207.897 339.843 208.256C326.78 198.276 303.168 189.407 271.58 184.913L266.839 172.002L220.486 171.704L212.697 185.038C212.697 185.038 180.924 188.001 157.658 200.293C154.263 202.105 151.262 203.881 148.601 205.591C147.648 205.067 146.697 204.515 145.775 203.937C145.503 203.783 158.778 196.994 167.486 193.607C190.241 184.758 212.549 182.457 212.549 182.457L218.985 169.306C218.985 169.306 245.181 168.687 267.743 169.643L273.563 182.805C273.563 182.805 305.112 186.402 331.756 201.131C336.028 203.503 339.86 204.622 342.587 206.579Z" fill="url(#paint4_linear_2001_7990)"/>
<path style="mix-blend-mode:multiply" opacity="0.71" fill-rule="evenodd" clip-rule="evenodd" d="M210.053 143.121L210.542 145.047C280.186 166 255.422 198.854 255.422 198.854C280.978 200.355 301.261 204.272 309.627 209.23C316.774 206.826 324.493 203.613 331.316 199.878C332.266 199.367 333.217 198.829 334.14 198.289C334.427 198.135 334.688 197.953 334.978 197.772C335.987 197.18 336.97 196.559 337.899 195.908C349.635 188.033 356.196 178.468 346.823 169.124C337.212 159.516 296.257 143.916 244.216 142.125C233.769 141.759 221.999 142.081 210.053 143.121Z" fill="url(#paint5_linear_2001_7990)"/>
<path style="mix-blend-mode:multiply" opacity="0.71" fill-rule="evenodd" clip-rule="evenodd" d="M160.774 285.022C168.751 288.814 193.44 297.43 193.44 297.43C178.879 295.428 165.32 292.442 153.115 288.686C128.874 281.156 110.086 270.436 100.039 257.841C96.6733 253.614 94.2691 249.184 92.9928 244.588C84.9702 225.245 83.6785 200.681 96.7749 179.312C108.518 154.854 169.391 136.597 241.973 137.284C241.973 137.284 189.376 138.149 171.938 154.122C158.375 166.546 175.585 193.378 194.316 201.941C183.564 203.713 175.273 206.059 170.49 208.751C167.58 210.392 165.979 212.156 165.969 214.001C165.93 217.495 171.612 220.75 181.271 223.397L177.561 226.451C124.892 228.18 152.799 281.175 160.805 284.968L160.774 285.022Z" fill="url(#paint6_linear_2001_7990)"/>
<path fill-rule="evenodd" clip-rule="evenodd" d="M241.916 139.491C166.621 138.777 104.928 159.397 105.004 185.298C105.063 210.974 165.874 231.727 239.968 231.848C313.167 231.952 372.762 211.868 373.905 186.756C375.032 161.42 316.317 140.159 241.943 139.492L241.916 139.491ZM246.956 213.384C193.181 213.21 149.315 197.629 149.398 178.476C149.488 159.184 194.066 143.842 248.498 144.301C302.453 144.792 345.242 160.626 344.467 179.631C343.727 198.499 300.256 213.534 246.928 213.382L246.956 213.384Z" fill="url(#paint7_linear_2001_7990)"/>
<path fill-rule="evenodd" clip-rule="evenodd" d="M389.851 208.21C379.293 233.036 317.564 253.794 279.753 258.295L271.128 275.39L239.028 275.456L206.76 275.514L198.767 258.326C160.436 253.823 97.3536 232.618 87.3502 207.133L87.0112 217.603C117.665 252.421 192.393 262.586 192.393 262.586C196.537 269.119 205.04 298.778 205.04 298.778C205.04 298.778 236.471 302.509 267.884 298.912C267.884 298.912 275.34 275.102 285.89 262.496C285.89 262.496 359.023 252.388 389.748 218.44L389.878 208.239L389.851 208.21Z" fill="url(#paint8_radial_2001_7990)"/>
<path style="mix-blend-mode:multiply" fill-rule="evenodd" clip-rule="evenodd" d="M88.0336 202.525C97.6242 225.137 134.491 246.261 199.36 254.944L207.982 272.416L269.216 272.3L279.618 254.904C279.618 254.904 321.186 250.819 351.813 234.681C382.468 218.544 389.382 203.711 389.382 203.711L390.068 211.633C390.068 211.633 379.841 228.869 341.126 243.951C311.288 255.599 280.296 260.812 280.296 260.812L271.668 277.431C271.668 277.431 229.171 277.777 205.595 278.614L196.413 260.051C196.413 260.051 147.216 251.329 118.321 235.758C89.0996 220.003 87.2547 210.652 87.2547 210.652L88.0336 202.525Z" fill="url(#paint9_linear_2001_7990)"/>
<path style="mix-blend-mode:multiply" fill-rule="evenodd" clip-rule="evenodd" d="M215 266.51C214.983 267.935 213.637 269.097 212.041 269.099C210.418 269.1 209.134 267.944 209.151 266.519C209.168 265.093 210.514 263.932 212.11 263.929C213.733 263.928 215.017 265.084 215 266.51Z" fill="url(#paint10_linear_2001_7990)"/>
<path fill-rule="evenodd" clip-rule="evenodd" d="M214.692 266.522C214.661 267.667 213.608 268.564 212.32 268.582C211.033 268.572 210.017 267.654 210.018 266.535C210.048 265.39 211.101 264.493 212.39 264.475C213.676 264.485 214.693 265.403 214.692 266.522Z" fill="url(#paint11_linear_2001_7990)"/>
<path style="mix-blend-mode:multiply" fill-rule="evenodd" clip-rule="evenodd" d="M266.576 266.46C266.531 267.884 265.212 269.047 263.617 269.049C262.022 269.052 260.738 267.895 260.782 266.471C260.827 265.047 262.146 263.884 263.741 263.882C265.336 263.879 266.62 265.036 266.576 266.46Z" fill="url(#paint12_linear_2001_7990)"/>
<path fill-rule="evenodd" clip-rule="evenodd" d="M266.296 266.445C266.267 267.563 265.213 268.487 263.926 268.478C262.639 268.468 261.649 267.578 261.68 266.433C261.709 265.316 262.764 264.391 264.052 264.373C265.338 264.383 266.328 265.272 266.298 266.417L266.296 266.445Z" fill="url(#paint13_linear_2001_7990)"/>
<path style="mix-blend-mode:multiply" fill-rule="evenodd" clip-rule="evenodd" d="M190.866 247.574C190.848 249.028 189.501 250.189 187.878 250.19C186.255 250.191 184.943 249.034 184.961 247.58C184.979 246.127 186.326 244.965 187.949 244.964C189.572 244.963 190.884 246.121 190.866 247.574Z" fill="url(#paint14_linear_2001_7990)"/>
<path fill-rule="evenodd" clip-rule="evenodd" d="M190.559 247.559C190.556 248.705 189.474 249.629 188.187 249.619C186.9 249.609 185.856 248.689 185.859 247.542C185.861 246.396 186.944 245.472 188.231 245.482C189.517 245.492 190.562 246.412 190.559 247.559Z" fill="url(#paint15_linear_2001_7990)"/>
<path style="mix-blend-mode:multiply" fill-rule="evenodd" clip-rule="evenodd" d="M288.107 247.591C288.062 249.015 286.744 250.179 285.12 250.18C283.525 250.182 282.241 249.026 282.286 247.602C282.331 246.178 283.649 245.014 285.272 245.013C286.868 245.011 288.152 246.167 288.107 247.591Z" fill="url(#paint16_linear_2001_7990)"/>
<path fill-rule="evenodd" clip-rule="evenodd" d="M287.799 247.604C287.74 248.747 286.715 249.646 285.427 249.664C284.14 249.654 283.152 248.737 283.181 247.619C283.239 246.476 284.264 245.577 285.553 245.559C286.839 245.569 287.828 246.486 287.799 247.604Z" fill="url(#paint17_linear_2001_7990)"/>
<path fill-rule="evenodd" clip-rule="evenodd" d="M125.625 251.094C134.144 262.352 132.786 274.7 122.015 274.093C113.56 273.634 105.117 264.701 102.41 256.34C100.257 249.742 101.866 243.979 106.132 242.099C111.057 239.918 119.491 242.978 125.653 251.095L125.625 251.094Z" fill="#371F82"/>
<path fill-rule="evenodd" clip-rule="evenodd" d="M131.157 266.059C131.157 266.059 121.209 275.087 111.064 281.421C103 286.434 94.796 289.819 91.2598 285.639C82.9689 275.93 98.7296 254.446 106.074 245.424C108.163 242.874 109.558 241.324 109.558 241.324C119.908 240.845 127.3 252.27 129.759 258.352C131.743 263.348 131.158 266.031 131.158 266.031L131.157 266.059Z" fill="url(#paint18_radial_2001_7990)"/>
<path style="mix-blend-mode:multiply" opacity="0.73" fill-rule="evenodd" clip-rule="evenodd" d="M131.157 266.058C131.157 266.058 121.209 275.087 111.063 281.42C119.021 269.717 120.707 248.213 106.073 245.452C108.162 242.902 109.556 241.351 109.556 241.351C119.906 240.873 127.298 252.298 129.758 258.38C131.741 263.376 131.157 266.058 131.157 266.058Z" fill="url(#paint19_linear_2001_7990)"/>
<path fill-rule="evenodd" clip-rule="evenodd" d="M350.414 251.11C341.733 262.188 342.541 274.311 352.954 273.696C361.095 273.189 369.545 264.448 372.51 256.265C374.826 249.812 373.52 244.152 369.528 242.326C364.908 240.188 356.668 243.179 350.414 251.11Z" fill="#371F82"/>
<path fill-rule="evenodd" clip-rule="evenodd" d="M344.459 265.796C344.459 265.796 353.662 274.628 363.17 280.79C370.672 285.676 378.398 288.896 381.936 284.825C390.229 275.321 376.076 254.378 369.418 245.564C367.531 243.063 366.238 241.542 366.238 241.542C356.33 241.036 348.733 252.254 346.132 258.246C344.007 263.144 344.459 265.796 344.459 265.796Z" fill="url(#paint20_radial_2001_7990)"/>
<path style="mix-blend-mode:multiply" opacity="0.73" fill-rule="evenodd" clip-rule="evenodd" d="M344.459 265.796C344.459 265.796 353.662 274.628 363.17 280.79C356.003 269.35 355.261 248.253 369.418 245.564C367.531 243.063 366.238 241.542 366.238 241.542C356.33 241.036 348.733 252.254 346.132 258.246C344.007 263.144 344.459 265.796 344.459 265.796Z" fill="url(#paint21_linear_2001_7990)"/>
<path style="mix-blend-mode:screen" opacity="0.6" fill-rule="evenodd" clip-rule="evenodd" d="M192.422 262.588C192.422 262.588 144.053 256.817 101.393 230.251C101.393 230.251 125.079 253.023 190.627 265.405L202.174 298.464L205.07 298.751C205.07 298.751 200.836 281.392 192.423 262.56L192.422 262.588Z" fill="url(#paint22_linear_2001_7990)"/>
<path style="mix-blend-mode:screen" opacity="0.6" fill-rule="evenodd" clip-rule="evenodd" d="M284.883 262.501C284.883 262.501 332.386 256.733 374.542 230.724C374.542 230.724 350.877 253.007 286.532 265.298L273.769 298.206L270.898 298.534C270.898 298.534 275.811 281.25 284.91 262.53L284.883 262.501Z" fill="url(#paint23_linear_2001_7990)"/>
<path fill-rule="evenodd" clip-rule="evenodd" d="M370.381 196.588C372.861 202.812 366.684 208.145 357.218 208.305L370.381 196.588Z" fill="white"/>
<path style="mix-blend-mode:screen" opacity="0.52" fill-rule="evenodd" clip-rule="evenodd" d="M271.129 212.381C282.33 211.136 287.867 212.845 294.63 216.854C301.367 220.834 308.583 226.376 292.198 228.308C292.198 228.308 322.038 225.385 352.837 210.794C352.837 210.794 348.637 214.69 342.281 213.667C335.925 212.643 313.951 210.038 317.421 202.916C317.421 202.916 313.324 204.776 299.528 208.071C285.732 211.365 271.13 212.353 271.13 212.353L271.129 212.381Z" fill="url(#paint24_linear_2001_7990)"/>
<path style="mix-blend-mode:screen" opacity="0.52" fill-rule="evenodd" clip-rule="evenodd" d="M138.402 154.898C159.983 151.498 163.169 160.89 163.169 160.89C163.169 160.89 176.623 153.886 187.02 151.397C187.02 151.397 159.249 149.419 166.527 146.63C166.527 146.63 156.402 148.742 149.596 151.051C142.763 153.331 138.429 154.9 138.429 154.9L138.402 154.898Z" fill="url(#paint25_linear_2001_7990)"/>
<path fill-rule="evenodd" clip-rule="evenodd" d="M234.786 295.515C248.398 288.687 261.085 290.678 260.97 294.028C260.97 294.028 257.056 297.799 247.826 297.16C238.596 296.521 234.786 295.515 234.786 295.515Z" fill="white"/>
</g>
<path d="M59.7998 72.7C59.7998 72.7 119.13 166.53 155.987 197.374C205.424 224.626 333.459 215.58 344.765 190.409C369.036 165.203 442.3 59.6499 442.3 59.6499C419.377 35.7705 356.9 4.3482 250.376 0.699951C128.119 3.0879 83.1723 50.8104 59.7998 72.7Z" fill="url(#paint26_linear_2001_7990)"/>
<defs>
<filter id="filter0_dddddd_2001_7990" x="-4.61192" y="129.221" width="504.038" height="377.995" filterUnits="userSpaceOnUse" color-interpolation-filters="sRGB">
<feFlood flood-opacity="0" result="BackgroundImageFix"/>
<feColorMatrix in="SourceAlpha" type="matrix" values="0 0 0 0 0 0 0 0 0 0 0 0 0 0 0 0 0 0 127 0" result="hardAlpha"/>
<feOffset dy="2.49053"/>
<feGaussianBlur stdDeviation="1.19545"/>
<feColorMatrix type="matrix" values="0 0 0 0 0 0 0 0 0 0 0 0 0 0 0 0 0 0 0.0253031 0"/>
<feBlend mode="normal" in2="BackgroundImageFix" result="effect1_dropShadow_2001_7990"/>
<feColorMatrix in="SourceAlpha" type="matrix" values="0 0 0 0 0 0 0 0 0 0 0 0 0 0 0 0 0 0 127 0" result="hardAlpha"/>
<feOffset dy="5.98509"/>
<feGaussianBlur stdDeviation="2.87284"/>
<feColorMatrix type="matrix" values="0 0 0 0 0 0 0 0 0 0 0 0 0 0 0 0 0 0 0.0363503 0"/>
<feBlend mode="normal" in2="effect1_dropShadow_2001_7990" result="effect2_dropShadow_2001_7990"/>
<feColorMatrix in="SourceAlpha" type="matrix" values="0 0 0 0 0 0 0 0 0 0 0 0 0 0 0 0 0 0 127 0" result="hardAlpha"/>
<feOffset dy="11.2694"/>
<feGaussianBlur stdDeviation="5.40931"/>
<feColorMatrix type="matrix" values="0 0 0 0 0 0 0 0 0 0 0 0 0 0 0 0 0 0 0.045 0"/>
<feBlend mode="normal" in2="effect2_dropShadow_2001_7990" result="effect3_dropShadow_2001_7990"/>
<feColorMatrix in="SourceAlpha" type="matrix" values="0 0 0 0 0 0 0 0 0 0 0 0 0 0 0 0 0 0 127 0" result="hardAlpha"/>
<feOffset dy="20.1027"/>
<feGaussianBlur stdDeviation="9.64929"/>
<feColorMatrix type="matrix" values="0 0 0 0 0 0 0 0 0 0 0 0 0 0 0 0 0 0 0.0536497 0"/>
<feBlend mode="normal" in2="effect3_dropShadow_2001_7990" result="effect4_dropShadow_2001_7990"/>
<feColorMatrix in="SourceAlpha" type="matrix" values="0 0 0 0 0 0 0 0 0 0 0 0 0 0 0 0 0 0 127 0" result="hardAlpha"/>
<feOffset dy="37.5999"/>
<feGaussianBlur stdDeviation="18.0479"/>
<feColorMatrix type="matrix" values="0 0 0 0 0 0 0 0 0 0 0 0 0 0 0 0 0 0 0.0646969 0"/>
<feBlend mode="normal" in2="effect4_dropShadow_2001_7990" result="effect5_dropShadow_2001_7990"/>
<feColorMatrix in="SourceAlpha" type="matrix" values="0 0 0 0 0 0 0 0 0 0 0 0 0 0 0 0 0 0 127 0" result="hardAlpha"/>
<feOffset dy="90"/>
<feGaussianBlur stdDeviation="43.2"/>
<feColorMatrix type="matrix" values="0 0 0 0 0 0 0 0 0 0 0 0 0 0 0 0 0 0 0.09 0"/>
<feBlend mode="normal" in2="effect5_dropShadow_2001_7990" result="effect6_dropShadow_2001_7990"/>
<feBlend mode="normal" in="SourceGraphic" in2="effect6_dropShadow_2001_7990" result="shape"/>
</filter>
<radialGradient id="paint0_radial_2001_7990" cx="0" cy="0" r="1" gradientUnits="userSpaceOnUse" gradientTransform="translate(278.429 292.431) rotate(2.92416) scale(154.407 154.314)">
<stop stop-color="#B0B4BC"/>
<stop offset="0.14" stop-color="#AAADBC"/>
<stop offset="0.34" stop-color="#9A99BD"/>
<stop offset="0.57" stop-color="#7F7ABF"/>
<stop offset="0.75" stop-color="#685EC1"/>
<stop offset="0.97" stop-color="#7A75D7"/>
</radialGradient>
<linearGradient id="paint1_linear_2001_7990" x1="129.199" y1="171.264" x2="355.414" y2="182.819" gradientUnits="userSpaceOnUse">
<stop stop-color="#E7E3F4"/>
<stop offset="0.07" stop-color="#DFD6EB"/>
<stop offset="0.37" stop-color="#C1A7CC"/>
<stop offset="0.64" stop-color="#AB85B6"/>
<stop offset="0.86" stop-color="#9E70A8"/>
<stop offset="1" stop-color="#9A69A4"/>
</linearGradient>
<radialGradient id="paint2_radial_2001_7990" cx="0" cy="0" r="1" gradientUnits="userSpaceOnUse" gradientTransform="translate(272.845 207.267) rotate(2.92416) scale(103.18 103.118)">
<stop stop-color="#60DAFF"/>
<stop offset="0.18" stop-color="#56D3FF"/>
<stop offset="0.48" stop-color="#3CC2FF"/>
<stop offset="0.86" stop-color="#11A7FF"/>
<stop offset="1" stop-color="#009CFF"/>
</radialGradient>
<linearGradient id="paint3_linear_2001_7990" x1="247.243" y1="138.196" x2="244.376" y2="194.319" gradientUnits="userSpaceOnUse">
<stop stop-color="#E7E3F4"/>
<stop offset="0.07" stop-color="#DFD6EB"/>
<stop offset="0.37" stop-color="#C1A7CC"/>
<stop offset="0.64" stop-color="#AB85B6"/>
<stop offset="0.86" stop-color="#9E70A8"/>
<stop offset="1" stop-color="#9A69A4"/>
</linearGradient>
<linearGradient id="paint4_linear_2001_7990" x1="146.741" y1="184.465" x2="343.204" y2="194.501" gradientUnits="userSpaceOnUse">
<stop stop-color="#623964"/>
<stop offset="1" stop-color="white"/>
</linearGradient>
<linearGradient id="paint5_linear_2001_7990" x1="351.247" y1="179.474" x2="208.568" y2="172.186" gradientUnits="userSpaceOnUse">
<stop stop-color="#7A69A3"/>
<stop offset="0.13" stop-color="#8474AA"/>
<stop offset="0.38" stop-color="#A094BD"/>
<stop offset="0.69" stop-color="#CEC7DD"/>
<stop offset="1" stop-color="white"/>
</linearGradient>
<linearGradient id="paint6_linear_2001_7990" x1="126.428" y1="251.806" x2="206.022" y2="186.721" gradientUnits="userSpaceOnUse">
<stop stop-color="#7A69A3"/>
<stop offset="0.13" stop-color="#8474AA"/>
<stop offset="0.38" stop-color="#A094BD"/>
<stop offset="0.69" stop-color="#CEC7DD"/>
<stop offset="1" stop-color="white"/>
</linearGradient>
<linearGradient id="paint7_linear_2001_7990" x1="209.455" y1="121.416" x2="273.707" y2="259.197" gradientUnits="userSpaceOnUse">
<stop stop-color="#BBAAD6"/>
<stop offset="0.28" stop-color="#7A82ED"/>
<stop offset="0.46" stop-color="#7A75ED"/>
<stop offset="0.55" stop-color="#998CE1"/>
<stop offset="0.69" stop-color="#C5ABD1"/>
<stop offset="0.82" stop-color="#E4C2C6"/>
<stop offset="0.93" stop-color="#F8D0BF"/>
<stop offset="1" stop-color="#FFD5BD"/>
</linearGradient>
<radialGradient id="paint8_radial_2001_7990" cx="0" cy="0" r="1" gradientUnits="userSpaceOnUse" gradientTransform="translate(278.391 296.568) rotate(2.92416) scale(154.16 160.486)">
<stop stop-color="#60DAFF"/>
<stop offset="0.18" stop-color="#56D3FF"/>
<stop offset="0.48" stop-color="#3CC2FF"/>
<stop offset="0.86" stop-color="#11A7FF"/>
<stop offset="1" stop-color="#009CFF"/>
</radialGradient>
<linearGradient id="paint9_linear_2001_7990" x1="234.555" y1="291.812" x2="237.058" y2="242.802" gradientUnits="userSpaceOnUse">
<stop stop-color="#E7E3F4"/>
<stop offset="0.07" stop-color="#DFD6EB"/>
<stop offset="0.37" stop-color="#C1A7CC"/>
<stop offset="0.64" stop-color="#AB85B6"/>
<stop offset="0.86" stop-color="#9E70A8"/>
<stop offset="1" stop-color="#9A69A4"/>
</linearGradient>
<linearGradient id="paint10_linear_2001_7990" x1="209.13" y1="266.378" x2="214.991" y2="266.677" gradientUnits="userSpaceOnUse">
<stop stop-color="#B2A5DA"/>
<stop offset="0.41" stop-color="#A485BC"/>
<stop offset="0.76" stop-color="#9C70A9"/>
<stop offset="1" stop-color="#9969A3"/>
</linearGradient>
<linearGradient id="paint11_linear_2001_7990" x1="210.053" y1="266.397" x2="214.714" y2="266.635" gradientUnits="userSpaceOnUse">
<stop stop-color="#5B58A2"/>
<stop offset="0.44" stop-color="#5E59A1"/>
<stop offset="0.85" stop-color="#695CA1"/>
<stop offset="0.99" stop-color="#705EA1"/>
</linearGradient>
<linearGradient id="paint12_linear_2001_7990" x1="260.763" y1="266.302" x2="266.569" y2="266.599" gradientUnits="userSpaceOnUse">
<stop stop-color="#B2A5DA"/>
<stop offset="0.41" stop-color="#A485BC"/>
<stop offset="0.76" stop-color="#9C70A9"/>
<stop offset="1" stop-color="#9969A3"/>
</linearGradient>
<linearGradient id="paint13_linear_2001_7990" x1="261.686" y1="266.322" x2="266.291" y2="266.557" gradientUnits="userSpaceOnUse">
<stop stop-color="#5B58A2"/>
<stop offset="0.44" stop-color="#5E59A1"/>
<stop offset="0.85" stop-color="#695CA1"/>
<stop offset="0.99" stop-color="#705EA1"/>
</linearGradient>
<linearGradient id="paint14_linear_2001_7990" x1="184.97" y1="247.413" x2="190.859" y2="247.714" gradientUnits="userSpaceOnUse">
<stop stop-color="#B2A5DA"/>
<stop offset="0.41" stop-color="#A485BC"/>
<stop offset="0.76" stop-color="#9C70A9"/>
<stop offset="1" stop-color="#9969A3"/>
</linearGradient>
<linearGradient id="paint15_linear_2001_7990" x1="185.892" y1="247.432" x2="190.553" y2="247.67" gradientUnits="userSpaceOnUse">
<stop stop-color="#5B58A2"/>
<stop offset="0.44" stop-color="#5E59A1"/>
<stop offset="0.85" stop-color="#695CA1"/>
<stop offset="0.99" stop-color="#705EA1"/>
</linearGradient>
<linearGradient id="paint16_linear_2001_7990" x1="282.294" y1="247.434" x2="288.1" y2="247.731" gradientUnits="userSpaceOnUse">
<stop stop-color="#B2A5DA"/>
<stop offset="0.41" stop-color="#A485BC"/>
<stop offset="0.76" stop-color="#9C70A9"/>
<stop offset="1" stop-color="#9969A3"/>
</linearGradient>
<linearGradient id="paint17_linear_2001_7990" x1="283.216" y1="247.481" x2="287.793" y2="247.715" gradientUnits="userSpaceOnUse">
<stop stop-color="#5B58A2"/>
<stop offset="0.44" stop-color="#5E59A1"/>
<stop offset="0.85" stop-color="#695CA1"/>
<stop offset="0.99" stop-color="#705EA1"/>
</linearGradient>
<radialGradient id="paint18_radial_2001_7990" cx="0" cy="0" r="1" gradientUnits="userSpaceOnUse" gradientTransform="translate(127.916 273.08) rotate(2.92416) scale(31.1608 31.1421)">
<stop stop-color="#FFD4BC"/>
<stop offset="0.09" stop-color="#F8CEBD"/>
<stop offset="0.23" stop-color="#E4C0C1"/>
<stop offset="0.39" stop-color="#C5A8C7"/>
<stop offset="0.57" stop-color="#9987CF"/>
<stop offset="0.75" stop-color="#635EDA"/>
<stop offset="0.97" stop-color="#7A81EC"/>
</radialGradient>
<linearGradient id="paint19_linear_2001_7990" x1="118.12" y1="247.354" x2="119.625" y2="268.239" gradientUnits="userSpaceOnUse">
<stop stop-color="#9969A3"/>
<stop offset="0.13" stop-color="#A174AA"/>
<stop offset="0.38" stop-color="#B694BD"/>
<stop offset="0.69" stop-color="#D9C7DD"/>
<stop offset="1" stop-color="white"/>
</linearGradient>
<radialGradient id="paint20_radial_2001_7990" cx="0" cy="0" r="1" gradientUnits="userSpaceOnUse" gradientTransform="translate(347.021 269.87) rotate(-177.076) scale(29.5958 29.578)">
<stop stop-color="#FFD4BC"/>
<stop offset="0.09" stop-color="#F8CEBD"/>
<stop offset="0.23" stop-color="#E4C0C1"/>
<stop offset="0.39" stop-color="#C5A8C7"/>
<stop offset="0.57" stop-color="#9987CF"/>
<stop offset="0.75" stop-color="#635EDA"/>
<stop offset="0.97" stop-color="#7A81EC"/>
</radialGradient>
<linearGradient id="paint21_linear_2001_7990" x1="358.333" y1="246.732" x2="354.789" y2="266.883" gradientUnits="userSpaceOnUse">
<stop stop-color="#9969A3"/>
<stop offset="0.13" stop-color="#A174AA"/>
<stop offset="0.38" stop-color="#B694BD"/>
<stop offset="0.69" stop-color="#D9C7DD"/>
<stop offset="1" stop-color="white"/>
</linearGradient>
<linearGradient id="paint22_linear_2001_7990" x1="99.7811" y1="261.799" x2="206.678" y2="267.259" gradientUnits="userSpaceOnUse">
<stop stop-color="#623964"/>
<stop offset="1" stop-color="white"/>
</linearGradient>
<linearGradient id="paint23_linear_2001_7990" x1="372.68" y1="267.181" x2="272.732" y2="262.076" gradientUnits="userSpaceOnUse">
<stop stop-color="#623964"/>
<stop offset="1" stop-color="white"/>
</linearGradient>
<linearGradient id="paint24_linear_2001_7990" x1="271.052" y1="213.888" x2="352.495" y2="218.048" gradientUnits="userSpaceOnUse">
<stop stop-color="white"/>
<stop offset="1" stop-color="#623964"/>
</linearGradient>
<linearGradient id="paint25_linear_2001_7990" x1="138.528" y1="152.416" x2="186.814" y2="154.882" gradientUnits="userSpaceOnUse">
<stop stop-color="white"/>
<stop offset="1" stop-color="#623964"/>
</linearGradient>
<linearGradient id="paint26_linear_2001_7990" x1="250.825" y1="73.9966" x2="250.703" y2="214.449" gradientUnits="userSpaceOnUse">
<stop stop-color="#545454" stop-opacity="0"/>
<stop offset="1" stop-color="#7F7F7F" stop-opacity="0.6"/>
</linearGradient>
<clipPath id="clip0_2001_7990">
<rect width="322.2" height="185.4" fill="white" transform="translate(91.2461 129.221) rotate(2.92416)"/>
</clipPath>
</defs>
</svg>
