<svg width="188" height="93" viewBox="0 0 188 93" fill="none" xmlns="http://www.w3.org/2000/svg">
<path d="M16.3989 40.6706L13.0718 70.718C12.8668 72.5694 14.2803 74.2039 16.1419 74.2682L161.081 79.2751C161.742 79.298 162.395 79.115 162.948 78.7514L180.299 67.3515C181.099 66.8258 181.621 65.9694 181.723 65.0175L187.779 8.41326C187.89 7.36866 186.982 6.50165 185.944 6.66175L34.0892 30.0763L16.3989 40.6706Z" fill="#00BA9B"/>
<path d="M19.3872 41.6046L16.2518 69.4611C16.0431 71.3151 17.4584 72.9538 19.323 73.0172L156.831 77.6901C157.484 77.7123 158.128 77.5341 158.677 77.1795L175.05 66.5962C175.86 66.073 176.39 65.2128 176.495 64.2546L181.998 13.6506C182.225 11.5627 180.413 9.82589 178.336 10.1409L36.1971 31.7012L19.3872 41.6046Z" fill="#83F7C7"/>
<g clip-path="url(#clip0_2001_5839)">
<path style="mix-blend-mode:screen" opacity="0.5" d="M49.351 84.6259C67.5667 77.9959 75.7186 54.4467 67.5586 32.0272C59.3986 9.6078 38.0167 -3.19206 19.801 3.43794C1.58517 10.0679 -6.56665 33.6172 1.59336 56.0366C9.75336 78.456 31.1352 91.2559 49.351 84.6259Z" fill="url(#paint0_radial_2001_5839)"/>
<path d="M59.1128 65.304C59.3254 66.6295 53.6311 69.8487 46.3272 72.5745C38.94 75.3307 32.3083 76.6787 31.5629 75.5202C31.3831 75.2484 27.5643 70.7975 27.5643 70.7975L58.9377 59.338C58.9377 59.338 59.0596 64.9726 59.1204 65.2877L59.1128 65.304Z" fill="url(#paint1_linear_2001_5839)"/>
<g style="mix-blend-mode:multiply" opacity="0.5">
<path d="M51.0729 62.2275C50.8626 65.0963 51.6268 67.6779 47.4544 72.1507C54.1994 69.5203 59.3037 66.5699 59.1008 65.3083C59.052 64.9888 58.9182 59.3585 58.9182 59.3585L51.0567 62.2199L51.0729 62.2275Z" fill="#772781"/>
</g>
<path d="M58.9236 59.2621C59.1504 60.8117 52.6905 64.4849 44.4013 67.5424C36.0048 70.6389 28.4104 72.1216 27.5274 70.7703C26.5945 69.3562 33.2688 65.4566 42.3572 62.1487C51.4456 58.8408 58.6989 57.6442 58.9355 59.2577L58.9236 59.2621Z" fill="url(#paint2_linear_2001_5839)"/>
<g style="mix-blend-mode:multiply" opacity="0.5">
<path d="M58.1092 58.6547C55.9344 58.1648 49.6709 59.4868 42.3454 62.153C37.0925 64.065 32.6551 66.1791 30.0153 67.8953C30.0092 69.1386 29.4213 69.6358 30.7772 69.6549C32.1287 69.6621 50.6582 65.5349 58.1135 58.6667L58.1092 58.6547Z" fill="#772781"/>
</g>
<g style="mix-blend-mode:multiply" opacity="0.5">
<path d="M30.6523 68.756C30.4227 68.8666 29.2859 69.8199 29.6899 69.9292C30.0982 70.0503 33.8345 70.3091 42.5298 67.1443C51.2251 63.9795 56.3379 60.4594 56.367 60.0576C56.3799 59.6483 36.9618 65.5962 30.6523 68.756Z" fill="#772781"/>
</g>
<path d="M44.2476 30.9478C45.9737 26.7584 42.3498 14.615 42.3498 14.615L10.8855 26.5662C10.8855 26.5662 15.514 37.3187 19.2608 39.8669C23.0606 42.4498 26.016 42.3049 27.9319 42.862C29.8598 43.4149 30.7898 46.3408 30.2056 48.4419C29.7783 49.9733 24.5521 54.3306 24.7039 58.5649C24.86 62.8112 30.2216 69.5739 30.2216 69.5739C37.8942 68.8991 48.2322 64.9475 55.5928 60.3395C55.5928 60.3395 54.2433 52.4808 52.3025 48.5199C51.0455 45.9557 42.6102 45.5727 40.1799 45.1218C37.7495 44.6709 36.5281 41.352 38.0091 39.6394C39.4944 37.9387 42.7683 34.4809 44.2195 30.9446L44.2476 30.9478Z" fill="url(#paint3_linear_2001_5839)"/>
<path style="mix-blend-mode:multiply" opacity="0.5" d="M41.3499 17.9467C41.3499 17.9467 43.609 29.0085 43.883 28.9088C44.0021 28.8654 44.477 27.1683 44.263 24.9125C43.961 21.6366 42.8659 17.3679 42.6849 16.7593C42.3802 15.7371 41.3499 17.9467 41.3499 17.9467Z" fill="url(#paint4_linear_2001_5839)"/>
<path style="mix-blend-mode:multiply" opacity="0.5" d="M11.843 27.8633C11.843 27.8633 15.535 35.7462 17.3073 37.5023C19.0795 39.2584 20.1992 38.8508 20.1992 38.8508C20.1992 38.8508 17.4899 36.1139 15.9089 33.1416C14.3324 30.1812 13.4066 26.9705 13.4066 26.9705L11.8268 27.8557L11.843 27.8633Z" fill="url(#paint5_linear_2001_5839)"/>
<g style="mix-blend-mode:multiply" opacity="0.3">
<path d="M24.0731 41.9331C25.5666 42.2932 27.0774 42.4043 28.5288 42.9822C30.8314 43.8977 30.7694 46.7665 30.5716 48.0391C30.4862 48.5828 30.1171 49.1623 29.7339 49.666C29.2154 50.3538 31.9093 48.5639 32.1328 46.3243C32.1552 45.237 31.5719 42.9672 30.7282 42.6134C29.8844 42.2595 23.1969 41.7124 24.0688 41.9211L24.0731 41.9331Z" fill="#772781"/>
</g>
<g style="mix-blend-mode:multiply" opacity="0.3">
<path d="M38.3879 37.2352C38.0857 37.0349 35.8546 40.0592 35.5765 41.0372C35.3028 42.0271 35.3522 44.127 36.5784 45.124C37.8003 46.1092 40.4556 45.6958 41.0414 45.5635C41.6273 45.4312 39.4235 45.4914 38.3792 44.5495C37.1995 43.4951 36.481 41.7062 37.4769 40.1432C38.4728 38.5802 38.7063 37.443 38.3998 37.2308L38.3879 37.2352Z" fill="#772781"/>
</g>
<path style="mix-blend-mode:multiply" opacity="0.8" d="M13.9894 27.46C14.0718 27.6863 16.5162 35.5512 20.6356 38.5303C24.7507 41.4975 30.7156 41.2824 31.6031 43.239C32.4787 45.2 32.7271 46.5125 32.0605 48.0906C31.3938 49.6687 26.7256 54.7806 26.0928 57.4525C25.4601 60.1243 30.7264 66.9217 31.8594 67.7368C33.716 69.0575 52.2188 62.6333 53.2904 60.611C54.3348 58.6257 52.0787 50.3145 50.4787 48.6981C48.883 47.0937 39.4655 46.8658 37.869 46.2598C35.5306 45.3573 34.1317 42.8852 36.2231 39.5881C37.2611 37.9557 42.0299 32.2677 42.7407 29.8102C43.4559 27.3646 40.9675 17.3035 40.9675 17.3035L13.9894 27.46Z" fill="url(#paint6_linear_2001_5839)"/>
<path style="mix-blend-mode:multiply" opacity="0.8" d="M29.8031 65.4231C30.685 66.5859 31.479 67.4705 31.843 67.7292C33.6996 69.0499 52.2024 62.6257 53.2739 60.6034C53.6744 59.8507 53.5884 58.1688 53.2445 56.2976C52.9625 54.7815 42.6684 49.4769 36.6651 51.8103C30.6022 54.1654 28.8551 64.1898 29.7868 65.4155L29.8031 65.4231Z" fill="url(#paint7_linear_2001_5839)"/>
<path d="M42.2398 24.3943C41.5735 23.4902 33.7265 24.0936 27.3542 27.1548C22.0938 29.6765 17.5848 34.7439 17.7809 35.1716C18.2198 36.118 20.3529 38.7544 23.3834 39.7423C26.4181 40.742 29.0304 41.0997 31.0353 42.272C33.0402 43.4443 37.1273 54.1915 37.3082 54.6517C39.4465 59.9706 38.7588 56.2281 37.8539 54.0754C36.9566 51.9065 33.9339 44.1577 35.4588 40.6755C37.0064 37.1445 41.5848 32.2677 42.2859 30.1914C42.9871 28.1152 42.3481 24.3953 42.2236 24.3867L42.2398 24.3943Z" fill="url(#paint8_linear_2001_5839)"/>
<path d="M17.7927 35.1673C24.5911 40.8 38.6732 34.3121 42.2397 24.3943C41.5734 23.4902 33.7264 24.0936 27.3541 27.1549C22.0937 29.6765 17.5966 34.7396 17.7808 35.1717L17.7927 35.1673Z" fill="url(#paint9_linear_2001_5839)"/>
<g style="mix-blend-mode:multiply" opacity="0.5">
<path d="M43.4351 18.8199C42.8756 16.3931 42.3498 14.615 42.3498 14.615L10.8855 26.5662C10.8855 26.5662 11.6051 28.2468 12.7114 30.434C23.7702 32.1689 37.1478 27.6371 43.4308 18.808L43.4351 18.8199Z" fill="#9A376D"/>
</g>
<path d="M44.0752 15.6868C44.1667 17.4206 37.4199 21.4545 27.8789 24.9271C18.3379 28.3998 10.1262 29.8913 9.53222 28.2594C9.36748 27.8068 6.51562 22.7881 6.51562 22.7881L42.8691 9.55649C42.8691 9.55649 43.974 13.8891 44.0752 15.6868Z" fill="url(#paint10_linear_2001_5839)"/>
<path d="M7.55104 23.4093C7.55104 23.4093 10.6166 25.8278 17.6673 24.1114C24.7136 22.383 34.3696 15.9279 34.323 15.6885C34.1386 14.8114 7.60587 22.0404 7.55104 23.4093Z" fill="#78617A"/>
<path style="mix-blend-mode:screen" opacity="0.6" d="M7.55732 23.353C7.55732 23.353 10.6235 24.3279 17.8712 22.189C25.1188 20.0502 34.0651 15.7958 34.0651 15.7958C34.0651 15.7958 20.1388 18.1532 15.7824 19.4151C11.4422 20.6845 7.54541 23.3573 7.54541 23.3573L7.55732 23.353Z" fill="url(#paint11_linear_2001_5839)"/>
<g style="mix-blend-mode:multiply" opacity="0.5">
<path d="M34.3044 12.6736C34.914 16.2017 34.2675 19.9847 32.5758 23.0825C39.5644 20.1207 44.1618 17.112 44.0866 15.6825C43.9854 13.8848 42.8806 9.55213 42.8806 9.55213L34.3163 12.6693L34.3044 12.6736Z" fill="#772781"/>
</g>
<path d="M42.8689 9.55654C43.2764 10.6762 39.7726 13.0576 34.2849 15.6215C31.7944 16.7843 15.9644 19.4704 7.553 23.3412C6.98117 23.2526 6.62698 23.0578 6.52293 22.7719C5.92898 21.14 13.5832 16.8568 23.6245 13.2021C33.6658 9.54734 42.2825 7.90843 42.8765 9.54029L42.8689 9.55654Z" fill="url(#paint12_linear_2001_5839)"/>
<path d="M32.2546 67.6739C32.2546 67.6739 34.4672 67.9343 41.861 65.5669C49.2548 63.1995 52.4122 61.2005 52.9243 60.569C53.4363 59.9374 45.7918 56.9464 39.4777 59.2041C34.1089 61.1312 31.43 66.1125 32.2546 67.6739Z" fill="url(#paint13_linear_2001_5839)"/>
<g style="mix-blend-mode:multiply" opacity="0.5">
<path d="M46.8853 58.5044C38.4403 69.5098 33.3308 65.8119 32.5877 65.1786C32.1072 66.2303 31.9677 67.1444 32.2549 67.6739C32.2549 67.6739 34.4675 67.9342 41.8613 65.5668C49.2551 63.1994 52.4124 61.2004 52.9245 60.5689C53.2428 60.1833 50.4895 58.9192 46.8733 58.5087L46.8853 58.5044Z" fill="#E09590"/>
</g>
<path style="mix-blend-mode:multiply" opacity="0.5" d="M42.4215 45.4255C41.5042 45.3142 40.7158 45.2235 40.2079 45.1251C37.7775 44.6742 36.5561 41.3552 38.0371 39.6426C39.4444 38.0243 42.4487 34.8265 43.9975 31.484C37.1971 37.3719 29.2447 40.4282 19.2769 39.8745C23.0723 42.4454 26.0201 42.3168 27.948 42.8696C29.8758 43.4224 30.8059 46.3483 30.2217 48.4495C30.1049 48.8697 29.6134 49.5207 28.9736 50.3201C32.8581 46.4647 37.416 45.2374 42.4215 45.4255Z" fill="url(#paint14_linear_2001_5839)"/>
<g style="mix-blend-mode:multiply" opacity="0.5">
<path d="M26.6979 64.1927C28.281 67.0967 30.2538 69.5892 30.2538 69.5892C37.9265 68.9144 48.2644 64.9628 55.6251 60.3548C55.6251 60.3548 55.1336 57.4851 54.3097 54.3317C54.5908 56.5495 54.43 58.591 53.7265 59.9936C52.168 63.1239 48.431 64.457 40.6062 66.752C29.2847 70.0768 31.3627 69.3744 26.686 64.197L26.6979 64.1927Z" fill="#772781"/>
</g>
<g style="mix-blend-mode:soft-light" opacity="0.5">
<path d="M27.4707 70.467C27.4707 70.467 30.1805 71.3153 37.7369 69.3204C45.2933 67.3255 57.0883 61.5217 57.0883 61.5217C57.0883 61.5217 44.7704 68.1498 37.2942 69.9941C29.8136 71.8266 27.4826 70.4627 27.4826 70.4627L27.4707 70.467Z" fill="#FFFFB3"/>
</g>
<path d="M31.4081 50.7831C30.6567 51.4613 26.136 57.4233 27.6415 58.0759C29.147 58.7285 31.6271 55.4247 31.8574 54.0189C32.0876 52.6131 31.6549 50.5719 31.4243 50.7907L31.4081 50.7831Z" fill="white"/>
<path d="M26.7497 55.8104C26.8515 55.8677 30.5786 50.5049 30.545 50.4496C30.4995 50.3987 29.0207 52.3399 28.1438 53.4144C27.2713 54.5009 26.6598 55.7487 26.7453 55.7984L26.7497 55.8104Z" fill="white"/>
<path d="M19.5083 31.0223C15.9881 32.8026 20.8662 37.8662 22.3465 37.4488C23.8387 37.0271 23.0285 29.2419 19.5083 31.0223Z" fill="white"/>
<path style="mix-blend-mode:screen" opacity="0.8" d="M35.7184 40.5C35.7184 40.5 36.8972 38.7355 38.2688 36.8334C39.4552 35.201 40.8268 33.4473 41.2457 32.7822C42.1648 31.3416 42.5102 31.2159 42.8616 29.4018C43.2174 27.5996 41.7304 20.1417 41.7304 20.1417C41.7304 20.1417 43.0513 26.3651 42.3191 29.5048C41.9459 31.111 39.9184 34.1017 38.3196 36.4912C36.8019 38.7702 35.7065 40.5043 35.7065 40.5043L35.7184 40.5Z" fill="url(#paint15_linear_2001_5839)"/>
<path style="mix-blend-mode:screen" opacity="0.8" d="M14.8994 29.9614C14.8994 29.9614 17.0095 35.1287 19.9699 37.518C23.7872 40.5936 28.441 41.5571 28.441 41.5571C28.441 41.5571 23.8469 40.8686 20.0178 38.0941C17.6531 36.3783 14.9157 29.969 14.9157 29.969L14.8994 29.9614Z" fill="url(#paint16_linear_2001_5839)"/>
<path style="mix-blend-mode:screen" d="M26.1002 57.4361C27.7057 55.5838 33.6464 54.1904 36.1638 55.9181C38.6973 57.6533 45.1703 65.0232 44.1578 65.3917C43.1453 65.7602 31.2101 70.1043 30.3109 69.0421C29.4237 67.9757 24.4784 59.2809 26.0839 57.4285L26.1002 57.4361Z" fill="url(#paint17_linear_2001_5839)"/>
<path style="mix-blend-mode:screen" d="M13.8798 30.3461C13.8798 30.3461 17.4504 37.8955 22.1814 39.7753C26.9124 41.655 31.7201 39.5948 34.0935 37.9621C36.4712 36.3413 33.7859 26.7026 32.5393 26.5762C31.2928 26.4499 15.5171 29.8042 13.8755 30.3342L13.8798 30.3461Z" fill="url(#paint18_linear_2001_5839)"/>
<g style="mix-blend-mode:screen">
<path d="M49.0856 49.0972C48.1511 49.235 48.6475 50.8214 49.2334 50.6891C49.8268 50.5405 50.7154 48.8682 49.0856 49.0972Z" fill="#FFFDFF"/>
</g>
<path d="M31.2773 48.9421C31.6887 48.2933 32.6369 46.5992 31.8052 46.6861C30.9854 46.7687 30.866 49.5909 31.2773 48.9421Z" fill="#FFFDFF"/>
<path d="M28.7328 59.9988C27.6631 60.7659 29.7373 61.9804 30.3848 61.6098C31.028 61.2273 30.1447 58.9858 28.7328 59.9988Z" fill="#FFFDFF"/>
<g style="mix-blend-mode:multiply" opacity="0.3">
<path d="M35.0642 11.2774C31.1831 12.1774 15.5198 18.4719 27.3667 15.5899C39.2135 12.7079 40.2004 10.0825 35.0642 11.2774Z" fill="#4F2A6F"/>
</g>
<g style="mix-blend-mode:multiply" opacity="0.3">
<path d="M27.1082 15.6572C15.766 18.369 31.2073 12.1688 35.0765 11.2732C36.2243 11.0172 37.0679 10.926 37.5434 11.0093C33.5357 12.2656 25.7782 15.4128 27.1082 15.6572Z" fill="#4F2A6F"/>
</g>
<g style="mix-blend-mode:multiply" opacity="0.3">
<path d="M15.1087 17.7855C13.0957 18.5182 5.53549 22.2815 13.8844 19.4991C22.2213 16.721 17.5743 16.8881 15.1087 17.7855Z" fill="#4F2A6F"/>
</g>
<g style="mix-blend-mode:multiply" opacity="0.3">
<path d="M18.148 17.2053C17.8773 17.2768 17.6348 17.3516 17.3965 17.4383C16.1816 17.8805 12.9472 19.4085 12.4135 19.9804C6.5324 21.7972 13.2382 18.4662 15.0964 17.7899C16.0851 17.43 17.4419 17.1925 18.148 17.2053Z" fill="#4F2A6F"/>
</g>
<path style="mix-blend-mode:multiply" d="M52.4039 89.0858C62.0348 85.5805 69.1104 80.7283 68.2077 78.2482C67.305 75.7682 58.7659 76.5993 49.135 80.1047C39.5042 83.61 32.4285 88.4622 33.3312 90.9422C34.2339 93.4223 42.773 92.5912 52.4039 89.0858Z" fill="url(#paint19_radial_2001_5839)"/>
</g>
<defs>
<radialGradient id="paint0_radial_2001_5839" cx="0" cy="0" r="1" gradientUnits="userSpaceOnUse" gradientTransform="translate(34.6276 44.1664) rotate(-20) scale(35.2378 43.2464)">
<stop offset="0.33" stop-color="#B41E87"/>
<stop offset="0.38" stop-color="#A21B79"/>
<stop offset="0.54" stop-color="#69114E"/>
<stop offset="0.68" stop-color="#3B092C"/>
<stop offset="0.82" stop-color="#1B0414"/>
<stop offset="0.92" stop-color="#070105"/>
<stop offset="1"/>
</radialGradient>
<linearGradient id="paint1_linear_2001_5839" x1="64.1142" y1="77.2293" x2="36.4889" y2="62.9628" gradientUnits="userSpaceOnUse">
<stop stop-color="#0F0C31"/>
<stop offset="1" stop-color="#4F3A5E"/>
</linearGradient>
<linearGradient id="paint2_linear_2001_5839" x1="48.0389" y1="82.0954" x2="43.6624" y2="66.6243" gradientUnits="userSpaceOnUse">
<stop stop-color="#403D5A"/>
<stop offset="1" stop-color="#776783"/>
</linearGradient>
<linearGradient id="paint3_linear_2001_5839" x1="25.9755" y1="18.8077" x2="46.3518" y2="74.7912" gradientUnits="userSpaceOnUse">
<stop stop-color="#9082A9"/>
<stop offset="0.12" stop-color="#9385AB"/>
<stop offset="0.23" stop-color="#9C90B3"/>
<stop offset="0.33" stop-color="#ADA2BF"/>
<stop offset="0.44" stop-color="#C3BCD1"/>
<stop offset="0.53" stop-color="#E1DDE8"/>
<stop offset="1" stop-color="#9082A9"/>
</linearGradient>
<linearGradient id="paint4_linear_2001_5839" x1="42.5351" y1="19.3498" x2="44.4376" y2="33.064" gradientUnits="userSpaceOnUse">
<stop stop-color="#772781"/>
<stop offset="0.11" stop-color="#7C2F86"/>
<stop offset="0.28" stop-color="#8A4893"/>
<stop offset="0.49" stop-color="#A26FAA"/>
<stop offset="0.75" stop-color="#C2A6C9"/>
<stop offset="1" stop-color="#E8E5ED"/>
</linearGradient>
<linearGradient id="paint5_linear_2001_5839" x1="13.2619" y1="24.757" x2="16.6276" y2="35.2272" gradientUnits="userSpaceOnUse">
<stop stop-color="#772781"/>
<stop offset="0.11" stop-color="#7C2F86"/>
<stop offset="0.28" stop-color="#8A4893"/>
<stop offset="0.49" stop-color="#A26FAA"/>
<stop offset="0.75" stop-color="#C2A6C9"/>
<stop offset="1" stop-color="#E8E5ED"/>
</linearGradient>
<linearGradient id="paint6_linear_2001_5839" x1="14.3724" y1="-6.80743" x2="47.8387" y2="71.6871" gradientUnits="userSpaceOnUse">
<stop stop-color="#9082A9"/>
<stop offset="0.22" stop-color="#9385AB"/>
<stop offset="0.42" stop-color="#9C90B2"/>
<stop offset="0.6" stop-color="#ADA2BF"/>
<stop offset="0.79" stop-color="#C3BCD1"/>
<stop offset="0.96" stop-color="#E1DDE7"/>
<stop offset="1" stop-color="#E8E5ED"/>
</linearGradient>
<linearGradient id="paint7_linear_2001_5839" x1="33.4945" y1="42.0244" x2="44.4368" y2="67.6778" gradientUnits="userSpaceOnUse">
<stop stop-color="#9082A9"/>
<stop offset="0.22" stop-color="#9385AB"/>
<stop offset="0.42" stop-color="#9C90B2"/>
<stop offset="0.6" stop-color="#ADA2BF"/>
<stop offset="0.79" stop-color="#C3BCD1"/>
<stop offset="0.96" stop-color="#E1DDE7"/>
<stop offset="1" stop-color="#E8E5ED"/>
</linearGradient>
<linearGradient id="paint8_linear_2001_5839" x1="27.8759" y1="22.473" x2="37.641" y2="55.5288" gradientUnits="userSpaceOnUse">
<stop stop-color="#FF9600"/>
<stop offset="1" stop-color="#FFA900"/>
</linearGradient>
<linearGradient id="paint9_linear_2001_5839" x1="17.9054" y1="35.477" x2="42.9551" y2="26.3597" gradientUnits="userSpaceOnUse">
<stop stop-color="#FFB100"/>
<stop offset="1" stop-color="#FFC500"/>
</linearGradient>
<linearGradient id="paint10_linear_2001_5839" x1="48.5126" y1="35.5872" x2="20.7359" y2="14.901" gradientUnits="userSpaceOnUse">
<stop stop-color="#0F0C31"/>
<stop offset="1" stop-color="#4F3A5E"/>
</linearGradient>
<linearGradient id="paint11_linear_2001_5839" x1="23.18" y1="29.8072" x2="19.0345" y2="11.9319" gradientUnits="userSpaceOnUse">
<stop/>
<stop offset="1" stop-color="#776783"/>
</linearGradient>
<linearGradient id="paint12_linear_2001_5839" x1="31.3122" y1="34.361" x2="23.0057" y2="11.5388" gradientUnits="userSpaceOnUse">
<stop stop-color="#403D5A"/>
<stop offset="1" stop-color="#776783"/>
</linearGradient>
<linearGradient id="paint13_linear_2001_5839" x1="40.7704" y1="57.9377" x2="42.816" y2="64.8551" gradientUnits="userSpaceOnUse">
<stop stop-color="#FF9600"/>
<stop offset="1" stop-color="#FFA900"/>
</linearGradient>
<linearGradient id="paint14_linear_2001_5839" x1="31.9889" y1="36.8125" x2="35.8371" y2="49.2384" gradientUnits="userSpaceOnUse">
<stop stop-color="#9A376D"/>
<stop offset="0.11" stop-color="#9D3F73"/>
<stop offset="0.3" stop-color="#A85885"/>
<stop offset="0.53" stop-color="#BA7FA2"/>
<stop offset="0.79" stop-color="#D2B5CA"/>
<stop offset="1" stop-color="#E8E5ED"/>
</linearGradient>
<linearGradient id="paint15_linear_2001_5839" x1="32.8007" y1="32.4837" x2="44.6644" y2="28.1656" gradientUnits="userSpaceOnUse">
<stop stop-color="#E8E5ED"/>
<stop offset="0.28" stop-color="#DFD8DD"/>
<stop offset="0.62" stop-color="#D9CED2"/>
<stop offset="1" stop-color="#D8CCCF"/>
</linearGradient>
<linearGradient id="paint16_linear_2001_5839" x1="17.5527" y1="37.2512" x2="25.7834" y2="34.2554" gradientUnits="userSpaceOnUse">
<stop stop-color="#E8E5ED"/>
<stop offset="0.28" stop-color="#DFD8DD"/>
<stop offset="0.62" stop-color="#D9CED2"/>
<stop offset="1" stop-color="#D8CCCF"/>
</linearGradient>
<linearGradient id="paint17_linear_2001_5839" x1="39.6306" y1="75.2275" x2="32.5454" y2="55.4275" gradientUnits="userSpaceOnUse">
<stop offset="0.02" stop-color="#008DFE"/>
<stop offset="0.06" stop-color="#FFAB2F"/>
<stop offset="1"/>
</linearGradient>
<linearGradient id="paint18_linear_2001_5839" x1="18.3275" y1="44.7526" x2="28.3276" y2="26.3825" gradientUnits="userSpaceOnUse">
<stop offset="0.02" stop-color="#008DFE"/>
<stop offset="0.06" stop-color="#FFAB2F"/>
<stop offset="1"/>
</linearGradient>
<radialGradient id="paint19_radial_2001_5839" cx="0" cy="0" r="1" gradientUnits="userSpaceOnUse" gradientTransform="translate(107.307 239.384) rotate(-20) scale(18.3105 4.64594)">
<stop stop-color="#422982"/>
<stop offset="0.99" stop-color="white"/>
</radialGradient>
<clipPath id="clip0_2001_5839">
<rect width="70.2114" height="91.6335" fill="white" transform="translate(0.371582 0.674805)"/>
</clipPath>
</defs>
</svg>
